<svg width="85" height="83" viewBox="0 0 85 83" fill="none" xmlns="http://www.w3.org/2000/svg">
<path fill-rule="evenodd" clip-rule="evenodd" d="M82.0805 48.9765C80.7746 49.0084 79.486 48.6758 78.1734 48.7934C77.9663 48.8116 77.5964 48.7425 77.5566 48.6265C77.166 47.4763 75.8613 47.6142 75.1298 46.8699C74.4816 46.2109 74.4244 45.6894 74.7359 45.0242C75.9429 42.4479 77.0041 39.8135 77.9895 37.1469C78.2488 36.4452 78.5035 35.7378 78.6936 35.015C78.8759 34.3225 79.4702 34.1009 79.9892 33.9095C80.5525 33.702 80.6192 34.3838 80.9187 34.6754C82.3233 36.0435 82.3647 37.8962 82.7747 39.6205C83.3041 41.8439 83.7808 44.0819 84.3818 46.2863C84.8818 48.122 84.2944 49.2706 82.0805 48.9765" fill="black"/>
<path fill-rule="evenodd" clip-rule="evenodd" d="M67.7819 12.9155C67.822 13.8611 67.2161 14.5201 66.1561 14.6444C64.6803 14.8171 63.2049 15.0176 61.7238 15.1186C60.371 15.211 59.6614 14.1063 58.9867 13.2427C58.5224 12.6479 58.8388 11.7951 59.3172 11.0847C60.9177 8.70722 62.1065 6.11183 63.1946 3.46923C63.3843 3.00864 63.5831 2.5845 64.1787 2.50787C64.8232 2.42461 64.9525 2.91171 65.2507 3.29651C66.1412 4.44592 66.3334 5.83183 66.6759 7.1697C67.1601 9.0626 67.6187 10.9609 67.7819 12.9155" fill="black"/>
<path fill-rule="evenodd" clip-rule="evenodd" d="M64.6836 34.076C64.6824 35.2709 65.0071 36.2079 63.8846 36.7476C63.6183 36.8756 63.3826 37.0491 63.1039 37.0007C61.8493 36.782 60.6245 36.852 59.4788 37.4202C58.5829 37.8651 58.0792 37.5176 57.414 36.8631C56.137 35.606 56.1059 35.1003 56.9103 33.5441C58.196 31.0573 59.6527 28.6379 60.4517 25.9195C60.5677 25.5248 60.6957 25.1238 60.8891 24.7639C61.2897 24.0192 62.0153 24.0055 62.5691 24.6359C63.7364 25.9651 63.8689 27.6372 64.1166 29.2551C64.378 30.962 64.5242 32.6863 64.6836 34.076" fill="black"/>
<path fill-rule="evenodd" clip-rule="evenodd" d="M65.5465 78.1568C64.2782 78.0131 63.261 77.321 62.3725 76.4868C62.0511 76.1848 62.0855 75.5697 62.3199 75.0959C63.1073 73.5045 63.4146 71.738 64.236 70.1305C64.6237 69.3712 64.7861 68.3142 65.071 67.4017C65.2711 66.7593 65.5929 66.0497 66.365 65.9905C67.1342 65.9317 67.5405 66.6371 67.8656 67.1855C68.6961 68.5888 68.974 70.2025 69.3025 71.7703C69.6616 73.4851 69.8919 75.2289 70.1446 76.9652C70.2452 77.659 69.7801 78.0976 69.848 78.7264C69.884 79.0615 69.4591 79.1099 69.0556 78.9964C67.8988 78.6717 66.7179 78.431 65.5465 78.1568" fill="black"/>
<path fill-rule="evenodd" clip-rule="evenodd" d="M48.0373 22.4719C48.0402 23.5919 47.4562 24.1146 46.2293 23.8926C45.2253 23.7108 44.2262 23.8126 43.2466 23.8197C42.0363 23.8288 41.2398 23.2966 40.4185 22.5787C39.6613 21.9168 39.6236 21.1493 40.0569 20.3644C41.4399 17.8614 42.5744 15.2582 43.4629 12.5397C43.8091 11.4811 44.5261 11.4168 45.2733 12.2548C45.7853 12.8284 46.1605 13.4721 46.3908 14.1862C47.2694 16.9058 47.7623 19.7054 48.0373 22.4719" fill="black"/>
<path fill-rule="evenodd" clip-rule="evenodd" d="M28.0455 32.5193C27.1814 32.4778 26.4384 32.5056 25.6874 32.3784C23.8993 32.0761 23.3323 31.5442 23.6243 29.7831C23.9975 27.5319 24.2592 25.2488 24.9725 23.0639C25.1229 22.6033 25.284 22.1212 25.5578 21.7314C26.0391 21.0467 26.6442 20.8413 27.3397 21.5226C27.934 22.105 28.4692 22.7238 28.8316 23.4806C29.8539 25.6149 30.6495 27.8322 31.3644 30.0862C31.7443 31.2845 30.9026 32.3871 29.7279 32.4302C29.1282 32.4517 28.5292 32.4932 28.0455 32.5193" fill="black"/>
<path fill-rule="evenodd" clip-rule="evenodd" d="M46.5905 68.3335C45.8134 68.4967 45.0799 68.7303 44.2614 68.5688C43.0557 68.331 41.7025 66.5292 42.0844 65.4068C42.9322 62.9149 43.4429 60.3336 44.2125 57.8232C44.3877 57.2507 44.5108 56.6104 45.2687 56.518C46.0309 56.4252 46.3378 57.0175 46.5992 57.5423C47.9105 60.1733 48.7729 62.9762 49.6357 65.7729C49.8904 66.5992 49.5996 67.2533 48.7571 67.7284C48.0509 68.1268 47.2234 67.8489 46.5905 68.3335" fill="black"/>
<path fill-rule="evenodd" clip-rule="evenodd" d="M30.6129 9.51471C30.7359 11.6938 29.7646 12.6792 27.5764 13.1033C26.4295 13.3258 25.6123 12.8316 24.7288 12.4568C23.6987 12.0194 23.313 11.239 23.6146 10.0072C24.0027 8.42288 24.6894 6.96903 25.2619 5.46672C25.7299 4.2382 26.1843 3.00927 26.589 1.75838C26.9108 0.764296 27.3171 0.799503 28.1393 1.25512C29.5617 2.04294 29.8471 3.35678 30.06 4.71578C30.3089 6.30507 30.434 7.91424 30.6129 9.51471" fill="black"/>
<path fill-rule="evenodd" clip-rule="evenodd" d="M20.0248 58.047C20.0178 57.2319 20.2837 56.4809 20.6784 55.7971C21.6779 54.0653 22.3924 52.2089 23.1383 50.3657C23.7435 48.8692 23.876 48.9864 25.1319 49.787C26.4391 50.6204 26.7672 51.8576 27.1959 53.0998C27.6614 54.448 28.0599 55.8249 28.3917 57.212C28.6944 58.4757 28.4385 58.7354 27.2282 59.1517C26.1107 59.5357 25.0822 60.1466 23.8516 60.227C23.2638 60.2651 22.9983 60.0799 22.8223 59.5721C22.6633 59.1136 22.3162 59.1459 21.9438 59.3008C20.9348 59.7196 20.0227 59.1223 20.0248 58.047" fill="black"/>
<path fill-rule="evenodd" clip-rule="evenodd" d="M28.0918 82.1223C26.7071 81.9719 25.5051 81.9053 24.3271 81.6994C22.3899 81.361 21.5669 79.9279 21.9819 77.977C22.3957 76.0327 22.7846 74.0897 23.553 72.2444C24.1776 70.7454 24.9103 70.5508 25.9947 71.7101C26.4714 72.22 26.8753 72.8488 27.142 73.4941C28.0562 75.7076 29.0221 77.9078 29.4922 80.2775C29.7473 81.5619 29.2412 82.1542 28.0918 82.1223" fill="black"/>
<path fill-rule="evenodd" clip-rule="evenodd" d="M10.0318 26.9377C9.70911 26.6361 10.1821 25.8458 9.45355 25.6445C9.19881 25.5741 9.03893 25.9974 9.13254 26.2435C9.30692 26.6999 9.14662 27.373 9.77372 27.5519C10.0802 27.6393 10.0322 27.2835 10.0318 26.9377M12.8728 28.9411C12.9105 30.6323 12.5075 30.9272 11.0615 30.8995C10.2389 30.8842 9.41047 31.1551 8.58497 31.298C7.2968 31.5212 5.34467 30.3921 5.00171 29.2974C4.88905 28.9354 4.90065 28.6645 5.04396 28.3397C6.0426 26.0683 7.01846 23.7868 8.02579 21.5195C8.46609 20.53 8.97473 20.4509 9.79733 21.191C11.6467 22.8569 12.0311 25.2038 12.6611 27.4281C12.8231 27.9997 12.8301 28.6156 12.8728 28.9411" fill="black"/>
<path fill-rule="evenodd" clip-rule="evenodd" d="M0 49.5596C0.261361 46.96 1.0968 44.5125 1.98817 42.0923C2.36923 41.0585 2.87538 41.0399 3.75929 41.7299C4.54793 42.3458 4.98367 43.1767 5.12988 44.1128C5.47698 46.3346 5.76071 48.5671 6.02704 50.8009C6.13929 51.7432 5.54574 52.2254 4.59888 52.4204C3.0887 52.7315 1.88627 52.1334 0.712012 51.3626C0.0666864 50.9388 0.078284 50.2256 0 49.5596" fill="black"/>
<path fill-rule="evenodd" clip-rule="evenodd" d="M43.5932 48.539C43.1848 48.5055 42.7146 48.3241 42.5378 48.4786C41.9156 49.0224 41.1585 48.6492 40.4742 48.8982C39.744 49.1641 38.6314 47.366 38.7193 46.4685C38.8497 45.138 39.9995 44.2964 40.1855 42.961C40.3694 41.6426 40.8967 40.3706 41.2952 39.0849C41.4111 38.7096 41.6593 38.4371 42.1041 38.4139C42.5796 38.3886 42.831 38.6032 43.0481 39.0327C44.2484 41.4144 44.8871 44.0019 45.8033 46.4867C46.3095 47.8589 45.0495 48.3423 43.5932 48.539" fill="black"/>
<path fill-rule="evenodd" clip-rule="evenodd" d="M64.9256 54.258C65.2404 55.6538 63.7017 56.4131 62.6848 56.1558C62.2114 56.0357 61.8278 55.8783 61.2546 56.1492C60.5504 56.4822 59.4843 56.8886 59.302 55.4036C59.2875 55.286 58.9823 55.2251 58.8522 55.0976C58.0462 54.3052 58.0205 53.1682 58.7594 52.2673C58.9247 52.066 59.0924 51.8423 59.174 51.6005C59.732 49.9499 60.958 48.5627 61.0802 46.7381C61.1117 46.2655 61.2873 45.8252 61.8266 45.7399C62.3679 45.6542 62.6301 46.0419 62.8505 46.4602C62.9553 46.6594 63.1309 46.833 63.1914 47.0422C63.8827 49.4205 64.5002 51.8171 64.9256 54.258" fill="black"/>
</svg>
