<svg width="139" height="145" viewBox="0 0 139 145" fill="none" xmlns="http://www.w3.org/2000/svg">
<path fill-rule="evenodd" clip-rule="evenodd" d="M109.458 96.4945L109.01 96.2207C108.35 97.6948 107.691 99.1694 107.032 100.644C108.03 99.343 109.084 98.0792 109.458 96.4945M110.987 90.938C111.885 89.0985 112.698 87.1029 112.578 84.8712C112.048 86.8937 111.517 88.9158 110.987 90.938M20.8062 39.268C21.0617 38.9806 21.3247 38.6989 21.5716 38.4036C26.6654 32.3202 32.3313 26.8271 38.5162 21.8567C42.0012 19.0563 46.1279 17.1331 49.5012 14.2871C53.2501 11.1243 56.9962 8.15697 61.6083 6.40573C61.6435 6.39206 61.6124 6.20194 61.6124 5.89295C52.0759 6.6849 43.7082 10.3237 36.5093 16.4087C29.2675 22.5306 23.3112 29.7083 20.8062 39.268M132.19 55.402C132.069 42.6736 127.954 31.5167 118.733 22.5281C110.548 14.5493 101.342 8.39597 89.5234 7.27017C110.629 17.2615 124.832 33.2534 132.19 55.402M91.9775 13.3221C93.1828 14.9834 95.0099 15.8375 96.5051 17.1112C105.095 24.4289 110.921 33.5529 114.789 44.1084C118.602 54.516 119.333 65.2517 118.515 76.117C118.001 82.9236 116.315 89.5653 113.859 95.9747C113.667 96.475 113.047 97.1125 113.767 97.5635C114.367 97.9388 114.655 97.1713 115.025 96.8557C118.904 93.5421 122.018 89.5603 124.553 85.1856C126.876 81.1777 128.853 77.0925 128.572 72.1001C127.314 49.7933 118.109 31.7627 100.2 18.29C97.6359 16.3606 94.9391 14.6111 91.9775 13.3221M123.766 96.8097C122.866 96.7567 122.35 97.0938 121.996 97.5358C120.067 99.9452 117.574 101.584 115.012 103.258C113.538 104.222 112.047 105.17 110.535 106.089C108.081 107.581 106.77 110.089 105.043 112.258C99.9066 118.709 93.9988 124.345 86.9905 128.812C78.6262 134.144 69.7627 137.616 59.6872 138.057C54.2997 138.294 49.2237 137.794 44.0714 136.176C35.7518 133.565 29.0438 128.682 23.332 122.35C14.7862 112.874 10.4201 101.399 7.99243 89.0637C7.80893 88.1301 7.52976 87.2156 7.29491 86.2923C6.64627 88.599 6.74361 90.844 6.70467 93.0848C6.54355 102.443 9.02337 111.25 13.6483 119.175C18.154 126.896 24.7117 132.854 33.0147 136.648C40.5217 140.078 48.3721 141.741 56.618 141.312C65.6815 140.84 74.3048 138.515 82.5863 134.856C96.6327 128.65 108.823 120.045 117.862 107.416C120.203 104.145 122.227 100.676 123.766 96.8097M41.9486 26.4688C41.5025 26.6552 41.2416 26.7008 41.0639 26.8474C35.8379 31.1671 31.2304 36.1056 26.8771 41.2757C23.5333 45.2479 20.6856 49.6007 18.0844 54.0803C16.3162 57.1267 14.6196 60.273 14.2266 63.9084C13.2714 72.7396 13.4446 81.5174 15.2248 90.2483C17.7634 102.702 22.4319 114.093 31.3658 123.442C35.9137 128.201 41.3356 131.598 47.5735 133.503C57.6767 136.589 67.1453 134.005 76.2801 129.62C82.1904 126.783 87.3849 122.838 92.2269 118.481C94.4325 116.496 96.5503 114.311 98.2928 111.449C95.1826 111.804 92.4882 112.493 89.7205 112.785C80.302 113.779 71.4671 111.873 63.2083 107.481C51.9715 101.505 44.4367 92.2278 40.1879 80.3021C34.7738 65.1076 35.1657 49.7668 39.3943 34.3921C40.1092 31.7925 41.0444 29.2535 41.9486 26.4688M66.2937 12.7459C62.522 13.3705 59.6222 14.5514 57.0852 16.6038C54.5176 18.6802 52.968 21.4719 51.3021 24.2748C49.0166 28.1194 47.4418 32.2751 46.2298 36.4403C45.1583 40.1209 44.4223 43.9999 43.9873 47.907C42.9564 57.1566 42.8031 66.2814 45.4503 75.3342C48.2109 84.778 52.7614 93.0595 60.2389 99.6101C72.3552 110.224 87.4072 112.023 101.633 105.643C102.559 105.229 103.41 104.72 103.945 103.821C107.433 97.9603 109.915 91.6413 111.46 85.0551C113.553 76.1365 113.863 67.0518 112.66 57.9344C110.937 44.8759 106.229 33.1379 97.1733 23.412C92.4808 18.3732 87.3724 13.8025 80.2494 12.4469C78.1246 12.0426 75.7562 11.237 74.0347 13.0015C72.1522 14.9312 70.3728 17.1079 69.1186 19.4787C63.7953 29.5438 62.6778 40.1457 65.9147 51.0922C67.1731 55.3482 69.8687 58.634 73.6342 61.0385C74.3499 61.4957 75.8249 61.7989 75.3308 62.8464C74.8954 63.7705 73.5104 63.5071 72.4993 63.2172C72.1228 63.109 71.7624 62.9102 71.4269 62.7015C67.2108 60.0767 63.7501 56.7067 61.8655 52.0528C57.8651 42.1741 58.3166 32.1782 61.4306 22.1706C62.4392 18.9283 64.0997 15.9928 66.2937 12.7459M19.9682 27.286C19.4008 27.2997 19.1945 27.7682 18.9725 28.1492C16.8779 31.7507 14.963 35.4532 13.6757 39.4176C13.2346 40.7749 12.0251 41.9396 12.3639 43.6122C13.1592 43.1967 13.5108 42.6268 13.5473 41.8278C13.6094 40.4618 14.302 39.3107 14.8603 38.1153C16.5515 34.4948 18.2381 30.8722 19.926 27.25C22.3321 24.0946 24.739 20.9392 27.1451 17.7843C25.5069 19.2509 23.911 20.735 22.6891 22.5683C21.6785 24.0838 20.2101 25.3285 19.9682 27.286M0 91.6922C0.148698 84.7813 1.09639 77.9664 3.49172 71.514C6.00675 64.7398 7.28249 57.7207 8.84775 50.7253C11.695 37.994 16.5821 26.1511 25.7451 16.504C33.4062 8.4378 42.6793 3.21348 53.7302 1.57987C61.7959 0.387386 69.8318 0.84135 77.6805 3.30999C78.4949 3.56597 79.3353 3.79709 80.2146 3.64881C87.862 2.36064 95.1321 3.71881 102.173 6.74786C110.771 10.4467 118.38 15.5674 124.712 22.4925C129.572 27.8075 133.411 33.8229 135.665 40.6544C138.227 48.424 139.351 56.4073 137.77 64.6109C137.398 66.539 137.549 68.685 136.99 70.4677C136.303 72.6626 136.002 74.9328 135.286 77.0871C134.061 80.7698 133.637 84.6094 132.797 88.3658C131.741 93.0922 129.951 97.5602 127.843 101.89C124.913 107.907 121.218 113.5 116.464 118.168C112.231 122.325 107.858 126.36 102.586 129.408C98.8193 131.586 95.2149 134.073 91.302 136.034C78.6655 142.364 65.3535 145.689 51.165 144.821C40.2015 144.15 30.1037 140.794 21.2042 134.258C8.77361 125.127 1.95544 112.765 0.396805 97.4645C0.201716 95.5468 0.129645 93.6166 0 91.6922" fill="black"/>
</svg>
