<svg width="96" height="78" viewBox="0 0 96 78" fill="none" xmlns="http://www.w3.org/2000/svg">
<path fill-rule="evenodd" clip-rule="evenodd" d="M12.7297 16.8973C12.7314 15.9898 12.8652 15.3014 12.0161 15.0516C11.1272 14.7902 10.9594 15.4753 10.6637 16.0382C10.5175 16.3162 10.392 16.708 9.95871 16.6558C9.51013 16.6024 9.36268 16.2664 9.29848 15.8609C9.25913 15.6128 9.29268 15.2831 8.97788 15.197C8.61215 15.0972 8.46717 15.4236 8.28244 15.6538C6.72049 17.5993 5.48327 19.7453 4.47386 22.016C3.84966 23.4209 3.29297 24.8694 3.12564 26.4181C2.8941 28.5637 4.51942 29.7553 6.50138 28.9046C7.67274 28.4017 8.61463 27.5845 9.31215 26.5411C11.3181 23.5407 12.2571 20.1587 12.7297 16.8973M16.1287 15.9947C15.8105 21.5633 14.3608 26.7913 11.3815 31.5513C10.5924 32.8117 9.47658 33.7656 8.27664 34.616C7.53605 35.1412 6.68114 34.8678 5.86848 34.9125C5.61913 34.9262 4.89138 34.2138 5.0554 35.2845C5.06534 35.3512 4.64368 35.2924 4.44321 35.2008C3.11362 34.592 2.01889 33.7491 1.35203 32.3843C-0.550813 28.4895 -0.347026 24.6072 1.34996 20.7253C2.83859 17.3206 4.73564 14.207 7.57581 11.7181C9.01185 10.4598 10.807 10.1972 12.5168 9.82728C13.962 9.51456 15.4179 10.881 15.7932 12.508C16.0566 13.6499 16.0997 14.8167 16.1287 15.9947" fill="black"/>
<path fill-rule="evenodd" clip-rule="evenodd" d="M85.1975 10.9059C84.3508 13.6765 84.442 16.1948 85.7339 18.5943C86.6902 20.3708 87.9705 20.4528 89.274 18.8851C90.2267 17.7394 90.7888 16.3849 91.232 14.9775C91.8976 12.8642 91.1404 11.4083 89.0744 10.6495C88.2435 10.3442 87.7634 10.541 87.6044 11.3785C87.4669 12.1033 87.1956 12.7773 86.3982 12.7433C85.5069 12.7048 85.5744 11.8217 85.4021 11.1938C85.393 11.1602 85.3602 11.1325 85.1975 10.9059M81.7708 16.6417C81.7066 12.1916 82.8966 8.61329 85.2173 5.39991C85.726 4.69453 86.2976 4.03719 87.051 3.5824C88.1089 2.94329 89.2757 3.29039 89.5992 4.44849C89.7806 5.09962 90.0987 5.23755 90.6682 5.3353C93.2321 5.77518 95.1752 7.64198 95.2555 10.1955C95.4224 15.487 93.7764 20.2668 90.1629 24.1467C87.5381 26.9645 84.6602 26.2939 83.0097 22.7723C82.0305 20.6827 81.7728 18.4477 81.7708 16.6417" fill="black"/>
<path fill-rule="evenodd" clip-rule="evenodd" d="M56.2747 25.6997C56.3273 26.6002 56.5324 27.639 57.4879 28.0958C58.3652 28.5154 59.0577 27.7467 59.6169 27.1684C61.9186 24.7897 63.3497 21.9209 64.1495 18.7307C64.3574 17.9028 63.8418 17.4968 63.1169 17.2529C62.431 17.0218 61.9816 17.1456 61.702 17.8833C61.5231 18.3551 61.2696 18.9262 60.6077 18.8326C60.0311 18.751 60.1483 18.1455 59.9831 17.7623C59.899 17.5681 59.9669 17.2723 59.6824 17.2255C59.4301 17.1841 59.252 17.3999 59.1563 17.5851C57.8445 20.1225 56.5551 22.6702 56.2747 25.6997M67.869 17.0744C67.6789 21.1368 66.1418 24.805 64.4738 28.4309C63.4847 30.5802 62.2318 32.4851 60.0452 33.659C58.1212 34.692 56.3344 34.3436 55.2682 32.3911C53.5911 29.3186 52.9334 26.0609 53.9697 22.6114C54.8739 19.601 56.2553 16.8432 58.3445 14.4616C58.6643 14.0975 59.071 13.7243 59.4699 13.8349C60.3372 14.0751 60.6682 13.4592 60.973 12.9775C61.7985 11.6707 62.9985 11.358 64.3777 11.5945C65.9016 11.8558 67.1239 12.5935 67.6441 14.1737C67.956 15.1206 68.009 16.0873 67.869 17.0744" fill="black"/>
<path fill-rule="evenodd" clip-rule="evenodd" d="M82.907 38.3831C82.5715 38.7166 82.5557 39.0649 82.4915 39.393C82.4186 39.7645 82.1519 39.9745 81.8495 39.7956C81.1044 39.3536 80.7444 39.8867 80.3344 40.3059C79.2276 41.4362 78.2298 42.6826 77.4888 44.0585C76.6852 45.5497 75.8345 47.0897 76.0519 48.9196C76.187 50.0574 76.2922 51.3071 77.5534 51.6836C78.8457 52.0692 79.8224 51.2238 80.6694 50.3208C80.7204 50.2666 80.7535 50.1962 80.8016 50.1386C82.6485 47.9081 83.4732 45.2038 84.1346 42.4808C84.4913 41.0117 84.097 39.5309 82.907 38.3831M87.792 39.5582C87.7125 43.064 86.5499 46.2704 85.2406 49.4746C84.3372 51.686 83.1277 53.6415 81.5836 55.4284C80.2316 56.992 77.4623 57.6166 75.5611 56.4999C74.8491 56.0816 74.7228 55.1562 73.9453 54.8414C74.8491 53.8594 73.4847 53.4493 73.4035 52.7021C73.0726 49.6705 73.167 46.7562 74.5898 43.9107C75.9823 41.1243 77.8044 38.7783 80.2838 36.9268C80.5597 36.7205 80.6317 36.4927 80.6624 36.1721C80.7051 35.7289 80.7635 35.2659 80.932 34.86C81.9009 32.5243 83.5216 32.1436 85.4125 33.8207C87.1248 35.3396 87.8542 37.2926 87.792 39.5582" fill="black"/>
<path fill-rule="evenodd" clip-rule="evenodd" d="M23.0358 41.7162C23.0814 42.2919 22.989 42.9526 23.5759 43.2404C24.1227 43.5084 24.5605 43.0226 24.9685 42.7098C25.5397 42.2716 26.0085 41.7232 26.3892 41.116C27.9027 38.7008 28.9001 36.0901 29.3375 33.2652C29.4481 32.5487 29.4626 31.6606 28.7576 31.5256C28.0129 31.3831 26.9438 31.2091 26.4882 32.3242C26.3614 32.6348 26.2028 32.9442 26.0011 33.211C24.0987 35.7343 23.6617 38.7563 23.0358 41.7162M32.2584 32.7454C32.0111 36.641 30.863 40.5606 28.7555 44.1968C28.4921 44.6504 28.1727 45.0712 27.9085 45.5243C26.8394 47.3564 25.152 48.0808 23.1323 48.1305C22.4348 48.1475 22.0459 47.5949 21.7311 47.0134C20.592 44.9088 20.3017 42.6622 20.7668 40.3535C21.6888 35.779 23.404 31.5152 25.9907 27.6135C26.453 26.9155 27.0469 26.3431 27.6554 25.7951C28.343 25.1763 28.9282 25.4103 29.161 26.3199C29.2406 26.6318 29.2178 26.9938 29.6527 27.1131C31.3874 27.5894 31.6189 29.1601 32.0493 30.5394C32.2344 31.1342 32.1785 31.8039 32.2584 32.7454" fill="black"/>
<path fill-rule="evenodd" clip-rule="evenodd" d="M39.5586 59.8668C40.4823 59.0459 40.7979 58.053 41.2917 57.1443C42.1988 55.4725 42.6092 53.6973 42.859 51.8549C42.9004 51.5484 42.8834 51.2204 42.5202 51.1122C42.1652 51.0066 41.9805 51.302 41.8223 51.538C41.6789 51.7526 41.6682 52.1436 41.4888 52.2306C40.8828 52.5255 41.2937 54.0141 39.9977 53.4827C39.832 53.4152 39.6779 53.7143 39.8751 53.8605C40.7358 54.4971 40.187 55.1946 39.9521 55.8379C39.492 57.0999 39.1614 58.3583 39.5586 59.8668M38.6631 64.9234C39.8991 64.3456 39.3921 63.7462 38.6764 63.4737C37.0407 62.8499 36.9384 61.3443 36.6385 60.0383C36.4468 59.2033 36.6083 58.2262 36.8274 57.3679C37.8186 53.4836 39.6038 49.9434 41.7514 46.5834C42.1047 46.03 42.7269 45.6692 43.081 45.0769C43.2343 44.8214 43.5308 44.6561 43.8639 44.7688C44.1927 44.8802 44.2888 45.1125 44.2524 45.4737C44.1849 46.1472 44.4781 46.6554 44.9735 47.143C46.3379 48.4841 46.2103 50.2863 46.0662 51.9315C45.6988 56.1328 44.2822 60.0267 41.9888 63.566C41.2904 64.6442 40.3162 65.4718 38.6631 64.9234" fill="black"/>
<path fill-rule="evenodd" clip-rule="evenodd" d="M36.1049 9.66674C36.0167 9.36023 35.9284 9.05331 35.8 8.60597C34.8175 9.84982 34.1561 11.1392 33.7551 12.543C33.4896 13.4728 34.2145 14.2772 35.1862 14.2259C36.1654 14.1745 36.8898 13.6311 37.4146 12.859C38.7988 10.8219 39.4156 8.47384 39.771 6.10047C39.8766 5.39301 39.7921 4.43579 39.3522 3.65502C38.972 2.98112 39.7412 1.28248 40.5352 1.02692C41.5293 0.706738 42.001 1.42538 42.3394 2.15023C43.0067 3.57798 42.7735 5.12751 42.6368 6.59709C42.327 9.92023 41.3271 13.0615 39.6119 15.9477C38.8485 17.2325 37.9725 18.4134 36.3464 18.647C33.5758 19.0443 32.4396 18.7531 31.7197 15.9696C30.7708 12.3019 32.7826 7.21342 35.9098 5.0136C36.2561 4.76964 36.6061 4.56378 37.0563 4.73816C37.5699 4.93656 37.4954 5.40834 37.5128 5.79437C37.5774 7.23165 36.9337 8.45686 36.389 9.70774C36.2942 9.69408 36.1997 9.68041 36.1049 9.66674" fill="black"/>
<path fill-rule="evenodd" clip-rule="evenodd" d="M55.271 77.8841C54.3842 77.9608 53.7356 77.6128 53.6962 76.7662C53.6274 75.2705 53.2944 73.8763 53.7302 72.239C54.4633 69.4841 55.5895 67.0056 57.1382 64.7014C57.8221 63.6845 57.5433 62.5541 57.9749 61.5377C58.3344 60.6911 58.7577 59.9186 59.4234 59.2857C59.8545 58.8756 60.3135 58.5683 60.9282 58.9216C61.5051 59.253 61.7462 59.6175 61.7822 60.4156C62.0076 65.4092 60.1171 69.8611 58.4334 74.3759C58.0606 75.3741 57.4658 76.2335 56.8458 77.0885C56.4295 77.6617 55.9263 77.9533 55.271 77.8841" fill="black"/>
</svg>
