<svg width="165" height="83" viewBox="0 0 165 83" fill="none" xmlns="http://www.w3.org/2000/svg">
<path fill-rule="evenodd" clip-rule="evenodd" d="M43.2386 43.6972C43.1016 43.4172 42.9656 43.1362 42.8286 42.8552C38.5076 44.4002 34.1876 45.9452 29.8666 47.4892C29.9486 47.7052 30.0306 47.9212 30.1116 48.1362C34.4876 46.6562 38.8636 45.1772 43.2386 43.6972M64.5326 36.2512C64.6126 36.4692 64.6926 36.6872 64.7726 36.9052C85.5536 31.7492 106.336 26.5922 127.118 21.4362C127.068 21.2312 127.017 21.0262 126.967 20.8212C106.156 25.9642 85.3436 31.1082 64.5326 36.2512M46.8716 28.1172C46.7676 27.9092 46.6636 27.7012 46.5586 27.4942C32.4446 32.2882 18.4286 37.3112 5.17861 45.3832C19.3906 39.4972 33.1316 33.8072 46.8716 28.1172M48.3936 80.6272C47.6346 81.2512 46.8756 81.8742 46.2056 82.4242C44.5096 82.1182 42.8856 81.8262 41.2616 81.5332C41.2416 81.3082 41.2206 81.0822 41.1996 80.8562C40.5666 81.4242 39.9336 81.9932 39.1846 82.6652C36.6986 80.4602 34.4216 78.4162 35.5176 74.4012C37.6646 66.5352 39.4886 58.5832 41.4356 50.6642C41.8636 48.9262 42.2476 47.1792 42.7856 44.8612C39.5396 45.9542 36.7106 46.7422 34.0226 47.8692C32.1836 48.6412 30.5476 49.8932 28.8086 50.9092C28.3486 51.1782 27.8606 51.4212 27.3566 51.5892C22.6566 53.1542 17.9626 54.7322 13.2436 56.2352C11.3566 56.8362 9.41361 57.2592 7.49661 57.7642C7.56561 57.4302 7.63461 57.0962 7.70361 56.7622C6.29061 55.7252 4.97661 54.4992 3.44361 53.6882C-0.311388 51.7002 -1.32739 46.4922 2.06861 43.8662C5.91561 40.8912 10.0046 37.9932 14.4206 36.0392C24.6926 31.4922 35.1996 27.4702 45.6726 23.3912C47.5706 22.6522 48.5106 21.7642 49.0636 19.7352C50.3236 15.1082 51.8146 10.5172 53.6246 6.07917C54.3136 4.39117 56.0936 3.12417 57.4676 1.75817C57.7916 1.43617 58.5906 1.24117 58.9896 1.41117C60.6006 2.09817 62.1436 2.94617 63.7076 3.74317C67.6116 5.73717 68.7736 9.08417 68.4136 13.2112C68.3296 14.1682 68.4016 15.1392 68.4016 16.4132C74.9896 14.8602 81.1826 13.1382 87.4766 11.9632C106.12 8.48317 124.785 5.11817 143.481 1.93817C148.112 1.15117 152.888 1.18717 157.603 0.953167C158.699 0.899167 159.818 1.29217 160.926 1.47917C160.985 1.83117 161.045 2.18417 161.104 2.53617C158.785 3.21117 156.496 4.33117 154.142 4.48917C139.253 5.48817 124.669 8.39117 110.131 11.4752C96.8146 14.3012 83.5966 17.5852 70.3406 20.6852C69.4226 20.9002 68.5416 21.2672 67.6426 21.5642C67.6966 21.8052 67.7496 22.0472 67.8036 22.2892C68.4986 22.1832 69.2016 22.1152 69.8876 21.9662C89.5736 17.6642 109.201 13.0672 128.966 9.16517C139.182 7.14917 149.638 6.34117 159.995 5.06217C160.965 4.94317 162.002 5.36817 163.008 5.54017C162.522 6.34717 162.036 7.15517 161.482 8.07617C166.485 7.11617 163.225 11.1812 163.942 13.0422C163.31 13.3702 162.315 13.8862 161.036 14.5502C161.853 14.7462 162.345 14.8642 162.838 14.9832C162.858 15.1222 162.878 15.2612 162.899 15.4012C158.799 16.1952 154.698 16.9882 150.598 17.7812C150.536 17.5722 150.474 17.3632 150.412 17.1542C151.74 16.8332 153.068 16.5122 154.395 16.1912C154.342 15.9992 154.289 15.8062 154.236 15.6142L135.826 19.1052C135.843 19.3132 135.861 19.5202 135.878 19.7272C137.613 19.4982 139.347 19.2682 141.082 19.0392C141.129 19.2332 141.176 19.4272 141.222 19.6212C139.317 20.0712 137.406 20.5032 135.506 20.9732C112.231 26.7292 88.9576 32.4972 65.6786 38.2402C63.9396 38.6692 62.7016 39.3592 62.5246 41.4052C62.4736 41.9902 61.5836 42.4972 61.0926 43.0542C60.8646 43.3132 60.4316 43.7492 60.4986 43.8572C62.8226 47.6822 59.1816 50.6062 58.9666 54.0382C58.9166 54.8302 58.7056 55.7772 58.2106 56.3332C57.6406 56.9752 58.5386 59.3722 56.2676 58.1462C55.8746 59.3302 55.4816 60.5162 55.0886 61.7012C53.2406 66.2502 51.3186 70.7722 49.5846 75.3642C48.9556 77.0312 48.7776 78.8682 48.3936 80.6272" fill="black"/>
<path fill-rule="evenodd" clip-rule="evenodd" d="M50.7075 75.2758C51.7865 72.1798 52.9035 69.0968 53.9265 65.9838C54.3895 64.5738 54.6655 63.1028 55.0265 61.6598C55.4105 61.3318 55.7945 61.0048 56.1785 60.6758C56.3995 60.7898 56.6215 60.9018 56.8425 61.0148C54.7975 65.7688 52.7525 70.5228 50.7075 75.2758" fill="black"/>
</svg>
