<svg width="230" height="138" viewBox="0 0 230 138" fill="none" xmlns="http://www.w3.org/2000/svg">
<path fill-rule="evenodd" clip-rule="evenodd" d="M174.958 113.357C174.332 113.28 173.816 113.206 173.508 113.699C173.408 113.858 173.593 114.159 173.83 114.207C174.418 114.326 174.671 113.92 174.958 113.357M40.1155 84.9287C39.8558 84.4019 39.2718 84.575 39.2655 84.0357C39.2639 83.8916 38.2595 84.6877 38.4487 84.8575C38.9201 85.2825 39.4453 84.7535 40.1155 84.9287M71.9874 99.9895C73.0084 99.5649 74.1976 100.128 75.3988 99.3181C74.051 99.3069 72.9898 99.497 71.9874 99.9895M87.6703 99.6846C88.6615 99.5989 89.7045 99.5658 90.6422 98.4839C89.3454 98.6077 88.4905 99.065 87.6703 99.6846M68.934 101.526C70.36 101.503 71.7953 101.613 73.1219 100.714C71.6337 100.849 70.2105 100.826 68.934 101.526M107.898 121.314C106.041 121.38 104.129 120.956 102.378 121.948C104.196 121.541 106.084 121.757 107.898 121.314M176.854 115.368L176.681 115.107C174.626 116.241 172.572 117.376 170.518 118.511C170.563 118.591 170.608 118.671 170.652 118.751C172.901 117.954 174.846 116.602 176.854 115.368M10.6198 111.976C12.0583 113.836 12.8064 113.957 13.9732 112.262C12.6341 113.043 11.8566 111.209 10.6198 111.976M96.3172 121.865C93.7856 121.46 91.4624 122.403 89.072 122.944C91.5647 123.128 93.924 122.429 96.3172 121.865M8.992 87.2959C12.1971 85.2626 15.4573 83.3229 18.8197 81.5563C15.2278 82.9228 11.9506 84.8343 8.992 87.2959M92.1263 81.2046C89.0898 81.8048 86.1179 82.6444 83.1866 83.6273C86.3325 83.4248 89.4021 82.9488 92.1263 81.2046M4.90963 103.954C4.70295 104.655 4.88478 105.08 5.03721 105.499C5.84614 107.729 7.47064 109.349 9.12537 110.946C9.89289 111.686 10.0084 111.694 11.1318 111.1C8.41626 110.503 7.15874 108.977 8.11762 107.423C7.58951 107.136 6.52046 106.809 6.74454 106.419C7.32898 105.403 6.40117 105.478 6.07478 105.212C5.67425 104.887 5.17513 104.685 4.90963 103.954M190.034 98.8811C185.098 103.907 179.988 108.763 175.368 114.092C181.8 110.52 186.476 105.243 190.034 98.8811M81.7982 130.657C83.443 131.129 84.9387 131.168 86.4128 131.212C98.416 131.569 110.302 130.012 122.227 129.076C121.347 128.894 83.2168 130.464 81.7982 130.657M75.6639 78.7431C74.6963 78.5873 73.7383 78.3583 72.8117 78.9692C72.5296 79.1548 72.1382 78.9721 71.8412 78.8147C71.3003 78.5281 70.6707 78.7016 70.3953 78.9986C69.9301 79.5006 69.455 79.3399 68.9617 79.3507C68.6291 79.3581 68.3126 79.2244 67.9606 79.3072C65.4418 79.9024 62.8382 79.7504 60.2979 80.1575C59.257 80.3241 58.166 79.9807 57.152 80.5788C56.8269 80.7706 56.5431 81.3504 56.1422 81.1073C55.7479 80.8687 56.5344 80.4123 56.1124 79.9649C55.3204 81.0025 54.2538 81.6814 52.9653 81.6586C51.8912 81.6391 50.613 82.4609 49.7805 80.9619C50.275 81.8475 50.104 82.2468 49.2561 82.4477C48.2649 82.6829 47.2418 82.7297 46.261 82.9418C45.4798 83.1108 44.7082 83.5884 43.9133 83.4542C42.807 83.267 41.9189 84.5531 40.7538 83.8149C40.5902 83.7114 40.2054 83.9752 40.4129 84.4122C40.666 84.9461 41.6509 85.1793 42.1679 84.744C42.8579 84.1629 43.8545 84.669 44.5164 84.0386C45.0718 85.029 45.5602 84.2138 46.0767 83.9881C46.1947 83.9363 46.3223 83.8195 46.4751 83.9744C46.9896 84.4959 47.8039 84.3116 48.426 85.0078C48.4231 84.3899 47.8503 83.8622 48.337 83.7027C48.9653 83.4968 48.7665 84.4549 49.3141 84.6835C49.4371 84.0038 49.879 83.7934 50.536 83.8982C52.568 84.2221 54.4104 83.3614 56.2942 82.8706C57.3922 82.5848 58.5247 82.4286 59.6078 82.328C61.5297 82.1499 63.4023 81.6752 65.2724 81.3438C67.4847 80.952 69.7151 80.4537 71.9096 79.9012C73.1629 79.5851 74.5716 79.6485 75.6428 78.7199C77.3137 78.7136 77.9967 78.2953 77.9876 77.254C77.2627 77.848 76.1535 77.8024 75.6639 78.7431M178.045 119.616C176.698 120.851 175.062 121.576 173.376 122.177C172.082 122.639 170.709 122.887 169.651 123.881C169.448 124.071 169.12 124.36 168.769 124.045C168.536 123.837 168.29 123.913 168.244 124.139C168.093 124.888 167.662 124.824 167.112 124.637C166.717 124.502 166.48 124.565 166.833 125.018C166.534 125.163 166.246 125.339 165.935 125.45C160.876 127.257 155.785 128.969 150.539 130.164C147.772 130.793 145.245 132.086 142.558 132.949C137.604 134.542 132.54 135.214 127.371 135.534C124.245 135.728 121.102 135.64 118.009 135.908C111.671 136.456 105.314 136.674 98.9822 137.222C94.9818 137.567 90.9802 137.729 86.9741 137.877C83.3154 138.012 79.728 137.53 76.129 136.863C70.341 135.788 64.5153 134.913 58.6887 134.055C48.5316 132.559 38.619 130.079 29.0447 126.334C23.0719 123.998 17.3477 121.165 12.0612 117.51C8.3591 114.95 5.00945 112.003 2.54703 108.18C-1.11658 102.494 -0.808001 96.6403 3.34395 91.1828C6.52046 87.0068 10.7855 84.2225 15.3222 81.8123C23.5578 77.4371 32.4524 75.6307 41.6874 75.1768C48.0023 74.8661 54.3209 74.8947 60.6396 74.8694C63.1691 74.8595 65.5669 74.0965 68.0157 73.5771C72.5002 72.6257 76.9446 71.5227 81.379 70.3754C83.1924 69.9065 84.9859 69.3419 86.6295 68.41C87.5129 67.9088 88.6176 67.9212 89.3735 67.0779C89.7418 66.667 90.2955 66.9151 90.7909 67.1872C91.3306 67.4834 92.0116 67.6926 92.0381 66.6637C92.0654 65.5748 92.608 64.84 93.7819 64.6246C94.3137 64.5268 94.7358 64.415 94.9686 63.8989C94.998 63.833 95.0696 63.7295 95.1119 63.7341C96.2547 63.8562 96.6361 62.8054 97.3846 62.3241C99.1441 61.1925 100.843 59.971 102.619 58.8688C103.807 58.1312 104.885 57.2323 106.034 56.4458C106.562 56.0842 107.205 55.7118 107.666 55.2334C108.199 54.68 108.802 54.2215 109.348 53.6946C110.619 52.4661 112.235 51.7123 113.545 50.5148C115.131 49.0659 116.408 47.3599 117.869 45.8107C121.762 41.6799 125.457 37.3465 129.893 33.7666C133.788 30.6228 138.333 29.1329 143.293 28.7701C145.823 28.5849 148.189 27.6708 150.617 27.0226C153.074 26.3673 155.344 25.2983 157.562 24.136C158.923 23.4228 159.826 22.087 160.838 20.9206C163.765 17.5477 166.404 13.834 170.101 11.2726C173.221 9.11127 176.273 6.8137 179.737 5.14033C183.336 3.40234 187.026 1.99695 190.976 1.42991C197.259 0.528197 203.422 0.783759 209.466 3.14098C212.248 4.22618 214.803 5.60547 217.15 7.35382C220.186 9.61618 222.637 12.4709 224.722 15.6407C228.169 20.8816 229.297 26.7459 229.539 32.8864C229.658 35.8857 229.623 38.8704 229.024 41.8071C228.783 42.9875 228.38 44.2132 228.215 45.3506C227.769 48.4177 226.448 51.1059 225.171 53.8094C223.824 56.6641 222.228 59.4019 220.661 62.1518C219.504 64.181 217.942 65.9384 216.965 68.0794C216.614 68.8465 215.893 69.4455 215.33 70.1132C214.674 70.8927 214.462 71.9067 213.862 72.7371C211.779 75.6204 209.816 78.5898 207.743 81.4809C204.11 86.5478 201.169 92.036 197.977 97.3726C196.591 99.6904 195.218 102.016 193.833 104.335C193.049 105.647 192.095 106.855 191.198 108.08C190.674 108.796 189.865 109.441 189.242 110.127C188.355 111.105 187.056 111.718 186.579 113.087C186.327 113.809 185.788 114.32 185.015 114.592C184.083 114.92 183.642 115.967 182.681 116.282C181.136 117.393 179.591 118.505 178.045 119.616" fill="black"/>
</svg>
