<svg width="95" height="57" viewBox="0 0 95 57" fill="none" xmlns="http://www.w3.org/2000/svg">
<path fill-rule="evenodd" clip-rule="evenodd" d="M89.2434 6.96926C86.3477 6.4921 83.4342 6.29909 80.5038 6.47471C83.4173 6.63956 86.3303 6.80441 89.2434 6.96926M92.2389 9.68767C90.0474 9.05642 78.4775 8.92015 76.0859 9.46027C81.5169 9.58329 86.8829 9.21755 92.2389 9.68767M77.3608 3.53554C80.65 3.60056 83.9106 3.6892 87.1339 4.26163C88.3533 4.47826 89.5632 4.7421 90.7805 4.96743C91.0564 5.01879 91.4706 5.19938 91.5795 4.85021C91.7104 4.43104 91.2208 4.49068 90.9793 4.37181C90.9135 4.3395 90.8348 4.33329 90.7615 4.31672C86.3307 3.31808 81.8474 3.18346 77.3608 3.53554M46.8126 16.481C45.9871 17.2062 44.8957 17.2899 43.9203 17.6188C40.7831 18.6767 37.711 19.8778 34.7623 21.3847C33.8481 21.8515 32.9456 22.2653 31.8654 22.0164C31.6032 21.9559 30.8667 21.8006 31.4528 22.5441C31.6988 22.8568 31.3803 22.9131 31.2072 23.0158C29.581 23.9817 28.0137 25.0802 26.2968 25.8428C25.5658 26.1679 25.1797 26.7486 24.5796 27.099C22.7608 28.1606 21.3422 29.7139 19.6825 30.9685C18.6797 31.7265 17.8807 32.7541 16.9562 33.696C16.6977 33.4119 17.2022 33.1903 16.9686 33.0026C16.7628 32.8378 16.4393 32.9215 16.361 33.0871C16.0458 33.754 15.1606 34.1483 15.4058 35.0898C15.5144 35.5044 15.1619 35.8167 14.8856 35.7844C14.4204 35.7297 14.0932 35.5802 14.3923 36.2525C14.4188 36.3109 14.3836 36.3966 14.3765 36.4699C12.8925 36.2653 13.5225 37.6777 13.0287 38.2282C11.7356 39.6704 10.7746 41.3591 9.49311 42.8325C8.57068 43.8932 7.85702 45.292 7.24358 46.6754C6.81323 47.6455 6.29175 48.6665 5.58015 49.4978C5.18086 49.9642 4.79855 50.4223 4.61299 50.9897C4.36116 51.7593 3.74938 51.6955 3.15666 51.7568C2.42187 51.8326 2.68571 51.2681 2.60536 50.9264C2.45956 50.3067 1.78358 50.3237 1.39921 50.0652C-0.247244 48.9581 -0.0687235 47.3489 0.115596 45.8346C0.413407 43.3883 1.46092 41.1487 2.48027 38.9261C5.71684 31.8706 10.4056 25.9078 16.327 20.937C21.8699 16.2838 28.1123 12.7552 34.7909 9.99625C37.5855 8.84187 40.4928 8.00725 43.3541 7.04382C45.6897 6.25725 48.0192 5.49471 50.4091 4.90778C54.3018 3.95222 58.2152 3.11056 62.1828 2.51287C68.7715 1.52003 75.3768 0.756245 82.0549 0.991512C85.5674 1.11577 89.0073 1.73583 92.3586 2.80985C92.9319 2.99335 93.4861 3.23193 93.9723 3.60181C94.3269 3.87187 94.8393 4.10506 94.727 4.62033C94.6226 5.09832 94.2536 5.46613 93.5171 5.47441C94.5866 5.93417 95.591 6.32725 94.5506 7.57275C94.3952 7.75832 94.5386 7.87761 94.6168 8.0524C95.0211 8.95867 94.7158 9.53234 93.7205 9.81068C93.9028 10.0112 94.4267 9.87199 94.3132 10.3297C94.2358 10.6436 93.8887 10.6068 93.6364 10.5898C90.8994 10.4046 88.159 10.4042 85.4178 10.3839C80.4889 10.3467 75.5818 10.5434 70.6715 11.0529C66.1587 11.5213 61.6874 12.201 57.2344 13.0249C55.4831 13.3488 53.7675 13.8645 52.0556 14.439C65.711 11.2533 79.5163 10.1251 93.4898 11.115C93.069 11.5942 92.5276 11.4087 92.0583 11.4008C80.5622 11.2074 69.124 11.7202 57.8031 13.9386C54.4567 14.5943 51.1804 15.5006 47.8916 16.3704C47.5213 16.4681 47.1602 16.5323 46.7803 16.5096C46.4751 15.7698 47.2732 16.0092 47.4248 15.9554C48.7639 15.4799 50.1412 15.1141 51.7317 14.6502C50.1975 14.4667 41.7921 17.1599 41.1232 18.0173C42.0559 17.4473 43.1031 17.1843 44.1278 16.8881C44.9926 16.638 45.8331 16.037 46.8126 16.481" fill="black"/>
<path fill-rule="evenodd" clip-rule="evenodd" d="M50.4662 25.4134C51.5208 26.0164 52.4225 24.9909 53.4199 25.2932C53.5839 25.3434 53.7711 25.1354 53.7508 24.9275C53.7268 24.6856 53.511 24.4371 53.3118 24.5456C52.4341 25.0261 51.3224 24.7059 50.4662 25.4134M57.5205 27.001C60.8531 26.7583 64.1701 26.3648 67.5147 26.3751C64.1411 25.9261 60.8088 26.1527 57.5205 27.001M73.3111 29.3429C66.7725 28.0497 60.3238 28.6826 53.9186 30.25C60.3321 28.8599 66.8056 28.7626 73.3111 29.3429M55.1546 24.7026C56.282 24.5903 57.4095 24.3853 58.5361 24.3894C59.8205 24.3944 61.076 24.1306 62.3931 24.1973C63.3976 24.2482 64.5892 24.1036 65.6782 24.0664C69.4209 23.938 73.0986 24.6284 76.7759 25.2265C77.3947 25.3272 78.0002 25.5505 78.5876 25.7795C78.7719 25.8516 78.8854 26.1345 79.1447 25.9837C79.2213 25.9398 79.2917 25.8052 79.2868 25.7165C79.2681 25.3815 78.9794 25.321 78.7326 25.2514C77.666 24.9503 76.466 24.8736 75.5565 24.3182C74.0956 23.4264 72.522 23.8439 71.0313 23.5213C69.9627 23.2897 68.7619 23.6617 67.8262 23.2454C66.42 22.6196 65.1062 23.0238 63.7405 23.0284C62.4329 23.0325 61.1841 23.7019 59.9904 23.6219C58.2172 23.5035 56.6652 23.8336 55.1546 24.7026M80.8454 26.291C81.3851 26.5868 81.8382 26.8187 82.2736 27.0797C82.5519 27.2466 82.9201 27.3738 82.8344 27.8215C82.759 28.2187 82.4107 28.1848 82.1286 28.2548C81.9389 28.3016 81.7815 28.3906 81.7173 28.5919C82.8675 28.925 82.8886 29.0786 82.3527 30.1497C82.2226 30.4099 81.5628 30.7023 82.1895 31.2693C82.4889 31.5406 81.907 31.6177 81.6564 31.6355C80.1487 31.7428 78.6717 31.4487 77.2244 31.121C75.2015 30.6629 73.1516 30.373 71.1083 30.0839C66.4362 29.4228 61.783 29.837 57.1398 30.5552C54.2831 30.9968 51.5365 31.7759 48.8695 32.9183C52.6172 32.1259 56.263 30.7926 60.3578 30.7089C59.857 31.3045 59.331 31.2113 58.9052 31.2644C54.5941 31.8024 50.4289 32.8893 46.3979 34.503C46.2211 34.5738 45.997 34.8576 45.8499 34.5154C45.4701 33.6315 44.8082 34.2392 44.4736 34.3916C43.9819 34.6161 43.1034 34.7503 43.472 35.8376C42.0886 34.7138 41.4971 36.4096 40.4102 36.318C40.6911 36.9455 41.1587 36.3901 41.5137 36.7463C40.689 37.2251 39.8548 37.6513 39.0873 38.1753C38.6031 38.5054 38.8094 37.4331 38.1922 37.8771C37.3443 38.4868 36.2624 38.7676 35.4021 39.3636C35.0028 39.6403 34.6765 39.2928 34.2925 39.5828C35.0095 40.0947 34.8956 40.3747 34.1049 40.7139C32.8643 41.2466 31.7787 42.0381 30.9039 43.1147C30.3133 43.8424 29.4057 44.2574 28.8416 45.0361C28.6772 45.2635 28.446 45.1252 28.2253 45.0747C27.271 44.856 26.8737 45.1728 26.8373 46.1557C26.8033 47.0711 26.7259 47.9409 25.8705 48.5614C25.6307 48.7354 25.5007 48.7809 25.2202 48.7652C24.5182 48.7254 24.0224 49.758 24.2812 50.4539C24.6201 51.3631 24.2419 52.3708 23.795 52.9847C23.0556 54.0015 23.322 55.0664 23.1534 56.097C23.0664 56.6271 22.8614 56.7721 22.414 56.8835C21.4995 57.1109 21.6345 56.2245 21.3976 55.8518C21.1942 55.5312 21.3437 55.0615 20.681 55.211C20.355 55.2843 20.1943 54.9281 20.1078 54.6216C19.8808 53.8218 19.3059 53.0141 20.1657 52.2283C20.1786 52.2163 20.6425 51.6824 19.9549 51.6232C19.7325 51.6037 19.5879 51.0802 19.6791 50.7376C20.0986 49.1525 20.0034 47.4617 20.6972 45.9271C20.8575 45.5729 20.8127 45.1405 21.3852 45.4218C21.516 45.486 21.7136 45.5862 21.7646 45.3986C21.8068 45.242 21.726 44.9036 21.6494 44.8874C20.8446 44.7184 21.1706 44.1796 21.4452 43.9509C22.2131 43.3114 22.1697 42.2585 22.769 41.5726C23.7192 40.4849 24.3798 39.1673 25.8001 38.4425C26.3133 38.1803 26.5929 37.209 27.1293 36.6204C28.591 35.0158 30.3741 33.8059 32.0417 32.4639C33.3431 31.4172 34.8102 30.5697 36.2227 29.6597C39.5027 27.5469 43.0247 25.9787 46.6659 24.6512C51.1902 23.0019 55.9096 22.1043 60.6643 21.6073C65.814 21.0688 70.994 21.1707 76.0767 22.4187C78.0557 22.9045 79.9814 23.5486 81.6237 24.8202C81.9294 25.0571 82.4947 25.2079 82.3299 25.7141C82.1849 26.1589 81.6841 26.1415 81.2604 26.1287C81.166 26.1254 81.0699 26.1995 80.8454 26.291" fill="black"/>
<path fill-rule="evenodd" clip-rule="evenodd" d="M78.4674 39.3302C78.25 39.6263 77.9973 39.6822 77.7475 39.7526C77.451 39.8363 76.9365 39.6594 76.9432 40.1416C76.9506 40.6415 77.4472 40.4348 77.7508 40.48C77.8614 40.4965 77.9803 40.4692 78.0884 40.4945C78.566 40.6063 78.783 40.8171 78.3175 41.2226C78.2189 41.308 77.9484 41.4475 78.1004 41.4869C79.4528 41.8348 78.269 42.4839 78.2976 42.9743C78.3581 43.9957 77.4029 43.8068 76.8814 44.1204C75.4297 44.9944 73.6465 45.1323 72.2788 46.2457C71.7429 46.6818 71.1564 46.3277 70.7927 45.7523C70.0629 47.0993 68.6074 47.1383 67.4 47.5607C64.9715 48.4103 62.2738 48.7565 60.1129 50.0315C57.921 51.3246 55.5261 51.6974 53.2815 52.6277L50.9848 52.7619C50.6658 52.8658 50.3345 52.9425 50.03 53.0783C48.3761 53.8173 46.7032 54.492 44.8848 54.7065C44.5066 54.7509 44.0104 55.1145 44.2374 54.1561C44.3256 53.7845 43.4231 53.1375 42.9132 52.6819C42.6726 52.467 42.3594 52.2698 42.528 51.9712C43.1091 50.9415 43.2015 49.6632 44.4652 48.9852C47.7126 47.2426 51.0407 45.7296 54.5233 44.5039C57.2823 43.5331 60.0727 42.6864 62.8698 41.8485C65.121 41.1742 67.3958 40.6283 69.7158 40.1996C72.027 39.7725 74.289 39.0762 76.6383 38.7867C77.3362 38.701 77.8904 38.8348 78.4674 39.3302" fill="black"/>
<path fill-rule="evenodd" clip-rule="evenodd" d="M81.0593 32.2006C78.1388 32.2813 75.321 31.6625 72.4978 31.0802L72.5392 30.8026C75.3794 31.2686 78.2196 31.7346 81.0593 32.2006" fill="black"/>
<path fill-rule="evenodd" clip-rule="evenodd" d="M71.506 30.9816C69.4056 30.8752 67.3048 30.7687 65.2043 30.6623C67.3391 30.1375 69.4379 30.4738 71.506 30.9816" fill="black"/>
</svg>
