<svg width="81" height="54" viewBox="0 0 81 54" fill="none" xmlns="http://www.w3.org/2000/svg">
<path fill-rule="evenodd" clip-rule="evenodd" d="M39.2883 5.17764C37.6306 6.09924 36.0401 7.15545 34.7963 8.64782C36.2936 7.49096 37.7909 6.33409 39.2883 5.17764M25.6714 24.6853C24.72 25.2581 23.9338 25.7647 23.1166 26.2153C22.246 26.6958 21.4404 27.12 20.3199 26.5608C19.7682 26.2849 18.9104 26.2679 18.1781 26.2638C18.029 26.263 17.8761 26.3251 17.7312 26.3077C17.4064 26.2692 17.1252 26.0898 17.0813 25.7676C16.9521 24.8087 15.0662 24.2292 16.3167 23.0392C17.8786 21.5523 18.8785 19.661 20.2396 18.0527C22.6324 15.2253 25.6432 13.0529 28.5514 10.7897C30.9541 8.91912 33.3975 7.10078 35.8235 5.26007C37.535 3.96155 39.3964 2.89954 41.2541 1.83338C41.4479 1.72238 41.6604 1.63664 41.8733 1.56664C42.0854 1.49747 42.3501 1.40551 42.5091 1.60019C42.6843 1.81433 42.4685 2.01066 42.3525 2.19581C42.1405 2.53421 41.7565 2.76492 41.6691 3.43013C42.355 3.02877 42.9125 2.68374 43.4879 2.37267C43.9688 2.11297 44.407 2.06078 44.3382 2.82208C44.3125 3.10829 44.3113 3.23504 44.6464 3.2135C45.9221 3.13273 45.8882 3.83812 45.4802 4.83013C45.8037 4.69179 46.0489 4.58699 46.3293 4.46729C46.4295 5.09025 45.7709 5.31889 45.8012 5.82338C45.993 5.89131 46.1359 5.60096 46.3517 5.7948C46.309 5.87806 46.2829 5.99114 46.2129 6.05699C45.7726 6.46664 45.3012 6.8448 44.8812 7.2735C44.2512 7.91717 44.2794 8.16942 45.0237 8.78741C45.276 8.99741 45.1588 9.18504 45.0556 9.37682C44.9496 9.5748 44.8141 9.75705 44.6853 9.9422C44.5789 10.0946 44.4641 10.2408 44.3453 10.4007C44.6418 10.6227 44.74 10.3009 44.9135 10.2259C45.1119 10.141 45.2963 10.0234 45.6351 9.83906C45.4118 10.5917 44.9413 10.9876 44.5283 11.377C39.6317 15.9941 34.5639 20.4165 29.2634 24.5647C28.517 25.1492 27.846 25.9047 26.6377 25.7837C25.8789 25.7075 25.5318 25.6044 25.6714 24.6853" fill="black"/>
<path fill-rule="evenodd" clip-rule="evenodd" d="M72.8719 5.90107C71.5112 6.85581 69.9066 7.45847 68.8541 8.82368C70.2069 7.86025 71.8923 7.37687 72.8719 5.90107M67.9823 17.2999C69.2215 16.5249 70.204 15.4679 71.2014 14.4257C69.9965 15.2368 68.8508 16.114 67.9367 17.2539C66.8556 17.7816 66.2501 18.7947 65.4962 19.6592C66.3292 18.8759 67.3489 18.2927 67.9823 17.2999M76.2418 3.92782C77.1084 3.76918 77.6008 3.33924 78.1625 3.05344C78.4682 2.89811 78.785 2.46735 79.1383 2.91385C79.4747 3.33882 79.0758 3.5803 78.807 3.83918C78.6558 3.98498 78.527 4.15439 78.3659 4.33912C78.8546 4.48658 79.1433 4.23847 79.4701 4.05084C79.7232 3.90545 79.9887 3.44279 80.3168 3.86776C80.5181 4.12829 80.757 4.39587 80.5586 4.87137C80.352 5.36593 80.1204 5.79587 79.6549 6.13468C79.7899 6.16409 79.8673 6.20758 79.9046 6.1848C80.1999 6.00297 80.4899 5.46119 80.8212 5.82486C81.1186 6.15125 80.615 6.45237 80.388 6.73155C75.7837 12.3895 69.574 16.2988 64.4251 21.3665C63.2355 22.5375 61.5311 22.6456 60.0366 23.1318C59.7355 22.6642 60.3055 22.4791 60.194 22.1382C58.1056 23.0308 54.8711 20.8778 55.9414 18.1834C55.5595 17.9746 55.0662 18.774 54.7825 18.1155C54.4619 17.3715 54.2888 16.5605 54.9403 15.8949C55.7815 15.0359 56.663 14.2141 57.5539 13.4064C59.3317 11.7947 61.1318 10.2071 62.9149 8.60084C63.5047 8.06983 64.1165 7.57527 64.8327 7.2232C65.1794 7.05255 65.6437 6.84959 65.8955 7.13208C66.5711 7.89007 67.0694 7.3806 67.6165 7.01859C70.4103 5.16918 73.284 3.4606 76.3408 2.07634C76.5798 1.96823 76.8163 1.8477 77.0661 1.77356C77.2438 1.72095 77.46 1.73504 77.5731 1.91314C77.7027 2.11776 77.5246 2.25693 77.4053 2.3961C77.0268 2.83681 76.5239 3.18598 76.2418 3.92782" fill="black"/>
<path fill-rule="evenodd" clip-rule="evenodd" d="M16.1344 2.57455C16.7909 2.36165 17.1695 2.17526 17.5643 2.1297C17.9416 2.0858 18.2237 1.47154 18.666 1.92177C19.0918 2.35544 18.3947 2.64 18.4912 3.06621C19.0264 3.44106 19.4199 2.18438 20.0317 2.93449C20.484 3.48911 20.281 3.96337 20.0056 4.48485C20.3353 4.5242 20.5544 4.16591 20.9404 4.3958C20.3216 5.03574 20.4301 5.78378 20.6691 6.52852C20.8692 7.1523 20.3349 7.44722 20.037 7.70733C16.6534 10.6618 13.9955 14.2675 11.0443 17.6096C10.6123 18.0988 10.1294 18.5553 9.41195 18.7114C10.4926 16.7406 12.2807 15.3435 13.742 13.2995C12.3246 14.417 11.3645 15.5796 10.3567 16.6943C9.85473 17.2497 9.36308 17.818 8.8213 18.3328C8.52473 18.6145 8.19959 19.0643 7.68929 18.5714C7.48758 18.3763 7.23864 18.5064 7.08456 18.6679C6.53574 19.2416 5.67047 19.2159 5.09888 19.7432C5.00071 19.8335 4.72734 19.9109 4.71905 19.8956C4.3558 19.2184 3.44373 19.3443 3.09124 18.9326C2.58343 18.3395 2.37343 18.2098 1.88385 18.8406C1.77574 18.9798 1.45805 19.0755 1.29113 19.0225C1.0103 18.9334 1.14657 18.6435 1.18882 18.4343C1.45722 17.1002 1.45432 17.0952 0.143788 17.4299C0.0232555 16.9925 -0.0981055 16.5323 0.122664 16.1177C1.39592 13.7282 2.30095 11.1448 4.59397 9.3658C7.38154 7.20408 9.99225 4.81497 12.6862 2.5323C13.7242 1.65254 15.0078 1.33858 16.2889 1.03372C16.5383 0.974494 16.868 0.850647 17.0324 1.09047C17.2333 1.38331 16.8796 1.52248 16.7222 1.71384C16.5598 1.911 16.431 2.1355 16.1344 2.57455" fill="black"/>
<path fill-rule="evenodd" clip-rule="evenodd" d="M44.9999 43.3556C45.1593 43.5631 45.1705 43.7781 44.9742 43.957C42.4861 46.2243 40.0091 48.5045 37.3583 50.5842C37.2796 50.6459 37.1619 50.6579 36.9656 50.7271C37.1271 50.4107 37.2477 50.1733 37.3682 49.9364C36.4164 50.6878 35.2239 51.1454 34.999 52.5844C34.8416 53.5905 34.1457 53.7566 33.3268 53.1063C33.0518 52.8876 32.8182 52.8839 32.5067 52.9099C30.4498 53.081 28.8004 51.1881 29.2499 49.1432C29.3907 48.502 29.4416 47.9474 29.0991 47.3273C28.7441 46.6845 28.8862 46.0011 29.4284 45.4651C29.7481 45.1491 30.0754 44.8252 30.4502 44.5833C34.7438 41.8081 38.3068 38.1221 42.3597 35.0488C42.9264 34.6192 43.522 34.2228 44.1321 33.8575C44.4498 33.6674 44.8826 33.4947 45.1871 33.7962C45.5677 34.1736 45.1113 34.4573 44.9369 34.758C44.8433 34.9195 44.7364 35.0736 44.5886 35.3047C45.2256 35.2289 45.6373 34.8297 46.1252 34.613C46.4086 34.4871 46.8522 34.3011 46.9466 34.5625C47.4026 35.8225 49.0097 35.6746 49.5648 36.8265C49.8709 37.4607 49.7073 37.9237 49.3403 38.3495C48.1457 39.7371 47.0038 41.1785 45.6017 42.3723C45.2828 42.6444 45.0135 42.9422 44.7998 43.2959C44.787 43.317 44.8052 43.3841 44.8106 43.3841C44.8802 43.3866 44.9502 43.3804 45.0202 43.3763L44.9999 43.3556Z" fill="black"/>
<path fill-rule="evenodd" clip-rule="evenodd" d="M45.0204 43.3762L47.0657 41.4576C47.1311 41.5334 47.197 41.6088 47.2624 41.6846C46.5252 42.2607 46.265 43.3957 45.0042 43.3596C45.0001 43.3555 45.0204 43.3762 45.0204 43.3762" fill="black"/>
</svg>
