<svg width="59" height="114" viewBox="0 0 59 114" fill="none" xmlns="http://www.w3.org/2000/svg">
<path fill-rule="evenodd" clip-rule="evenodd" d="M1.69274 103.868C1.62647 104.673 1.85511 105.414 2.14547 106.25C3.07866 105.162 1.50263 104.696 1.69274 103.868M52.4191 34.86C53.4248 33.899 54.1799 32.7811 54.6231 31.4706C53.8887 32.6001 53.1539 33.73 52.4191 34.86M43.1261 37.561C44.9933 35.9464 46.7454 34.2345 47.824 31.9564C46.2736 33.8377 44.6471 35.6548 43.1261 37.561M10.4262 64.009C4.62322 70.5318 0.259608 88.9538 1.31127 97.5485C1.87624 91.6184 2.43665 85.8481 3.83748 80.2079C5.2557 74.4986 7.23558 69.0092 10.4262 64.009M7.40913 83.4607C6.58819 84.9369 6.37943 86.6045 6.1276 88.2124C5.45908 92.477 4.9873 96.7752 5.25198 101.104C5.47233 104.706 5.57754 108.32 6.15369 111.895C6.35624 113.153 6.32641 113.155 5.10245 113.319C5.01298 113.331 4.926 113.411 4.8502 113.474C4.15476 114.059 3.20375 113.802 2.85085 112.907C1.79961 110.244 1.23547 107.451 0.727241 104.648C-0.170332 99.6994 -0.166191 94.712 0.354875 89.7371C0.670082 86.7262 1.17168 83.7295 1.87831 80.7738C3.04553 75.8936 4.35854 71.0686 6.88724 66.6764C10.2406 60.8523 14.5475 55.8732 19.8903 51.7639C24.8569 47.9433 30.4549 45.0994 35.5645 41.5311C45.8048 34.3795 51.6988 24.8317 50.5888 11.8722C50.3581 9.18197 49.7711 6.52322 49.3822 3.8454C49.2269 2.77718 49.4518 1.81872 50.4707 1.20611C51.3654 0.668067 52.6163 0.994872 53.8291 1.98398C55.1773 3.0841 55.8529 4.58931 56.3627 6.15623C57.4703 9.55848 58.2109 13.0398 58.4263 16.6285C58.9093 24.6979 56.4771 31.6855 51.0229 37.7055C46.4749 42.7244 41.063 46.4518 35.0165 49.3984C30.7543 51.4752 26.9284 54.2694 23.1173 57.0727C20.1951 59.222 17.801 61.9027 15.518 64.6655C14.2919 66.1491 13.2477 67.8242 12.5328 69.6566C12.4533 69.8587 12.2901 70.0277 12.1716 70.2042C11.7732 70.0849 12.2495 69.8007 12.003 69.6541C10.683 71.4526 10.1574 73.6176 9.24902 75.6037C9.07132 75.9918 9.03695 75.8377 8.50801 76.034C8.01263 76.2179 7.72973 76.8272 7.9273 77.543C8.28641 77.2572 8.17044 76.7589 8.75487 76.5377C8.75239 77.6134 8.36635 78.5217 8.16215 79.4549C7.89085 80.6938 7.33127 81.8751 7.41535 83.1852C7.41369 83.2772 7.41121 83.3691 7.40913 83.4607" fill="black"/>
<path fill-rule="evenodd" clip-rule="evenodd" d="M9.52587 35.6354C8.55043 35.6354 7.57333 35.659 6.59871 35.6267C5.97865 35.6064 5.44061 35.3007 4.96593 34.9234C4.66439 34.6836 4.47469 34.3435 4.58114 33.9272C4.72197 33.3792 5.03842 33.7586 5.33043 33.7487C10.9789 33.5586 16.5574 32.6983 22.1487 31.9523C23.4443 31.7796 24.766 31.7634 26.0757 31.7638C26.4853 31.7643 27.1315 31.6781 27.1671 32.4328C27.1974 33.0744 26.7471 33.2608 26.2571 33.3937C23.7123 34.0834 21.0929 34.3584 18.4975 34.7565C15.5264 35.2125 12.5268 35.413 9.52587 35.6354" fill="black"/>
<path fill-rule="evenodd" clip-rule="evenodd" d="M38.7973 23.0649C38.188 22.92 37.5211 22.5981 37.157 21.9656C35.395 18.9051 33.7689 15.7708 32.3415 12.5397C31.965 11.6876 32.2703 11.8459 33.0908 11.5315C35.0951 10.7631 35.5607 12.3528 36.375 13.3755C37.8131 15.1818 38.8681 17.2147 39.6302 19.3976C39.8282 19.9655 40.0486 20.5259 40.2714 21.0842C40.8877 22.6313 40.6438 22.9895 38.7973 23.0649" fill="black"/>
<path fill-rule="evenodd" clip-rule="evenodd" d="M34.1085 26.2855C32.5084 27.2361 31.2393 26.4143 29.8844 25.7951C27.3408 24.6333 25.0876 23.0092 22.7519 21.5135C22.3278 21.2418 21.6311 20.929 21.8241 20.4043C22.013 19.8902 22.7759 19.9963 23.3102 19.9855C24.1014 19.9689 24.7413 20.4486 25.3771 20.811C28.0454 22.3295 30.6781 23.9113 33.3178 25.4799C33.6292 25.6646 33.9768 25.8398 34.1085 26.2855" fill="black"/>
</svg>
