<svg width="65" height="68" viewBox="0 0 65 68" fill="none" xmlns="http://www.w3.org/2000/svg">
<path fill-rule="evenodd" clip-rule="evenodd" d="M64.0989 20.8754C64.3391 20.7544 64.5131 20.6674 64.8863 20.4794C63.3401 23.9682 62.6161 27.5121 61.2595 30.8431C60.9091 31.7038 60.3972 32.3288 59.4209 32.4473C59.2768 32.4647 59.0485 32.5509 59.0013 32.492C58.1667 31.4454 56.9775 31.8616 55.9255 31.7196C55.7793 31.7001 55.6272 31.6624 55.4968 31.5957C54.8022 31.2391 53.8317 29.2244 53.9423 28.4258C54.4215 24.9759 55.508 21.7183 56.9734 18.5691C57.2468 17.9813 57.6904 17.6094 58.1593 17.2523C59.4284 16.2864 59.6972 16.3974 59.9884 17.9134C60.0078 18.0141 60.1035 18.1002 60.1698 18.2017C60.6109 18.183 60.6088 17.7432 60.8284 17.5249C61.0429 17.3103 61.3291 17.1575 61.5043 17.4039C62.1791 18.3512 63.4875 18.4717 64.1113 19.5267C64.4187 20.047 64.0355 20.3738 64.0989 20.8754" fill="black"/>
<path fill-rule="evenodd" clip-rule="evenodd" d="M7.59762 5.21604C8.14312 5.04124 8.14105 4.49988 8.41484 4.17266C8.57928 3.97675 8.80999 3.56006 8.96117 3.71828C9.49549 4.27746 10.5505 4.14533 10.7841 4.75586C11.0181 5.36763 12.2131 5.47657 11.6796 6.45036C11.6734 6.46237 12.4972 6.1629 12.1629 6.89769C11.9944 7.26882 11.8573 7.66065 11.7616 8.05704C11.5213 9.04864 11.7844 10.058 11.7823 11.0534C11.7794 12.315 10.8905 13.3621 11.1776 14.6578C11.2724 15.0852 10.5012 14.9626 10.2829 15.3553C9.89809 16.047 9.68809 15.5259 9.42508 15.2066C9.17366 14.9009 8.86798 15.0869 8.61076 15.2285C8.1862 15.4621 7.79312 15.7562 7.35987 15.9716C6.47182 16.4131 5.68981 17.1612 4.50975 16.5229C4.01892 16.2574 3.27626 16.4231 2.65082 16.4504C1.94502 16.4815 1.43472 16.286 1.08638 15.6121C0.713183 14.8901 -0.254391 14.5049 0.0628875 13.3986C0.564485 11.6469 1.35975 10.0129 2.82892 8.99728C4.27697 7.99657 4.96662 6.65249 5.52206 5.12698C5.75691 4.48207 6.05886 3.89018 6.63957 3.47515C6.89224 3.29497 7.14614 3.09367 7.45762 3.2229C7.87058 3.39396 7.70987 3.80071 7.72312 4.11136C7.73845 4.46675 7.45514 4.80391 7.59762 5.21604" fill="black"/>
<path fill-rule="evenodd" clip-rule="evenodd" d="M33.3347 11.6222C33.8243 10.6289 34.5442 11.1193 35.054 10.9392C35.7623 10.6886 36.0701 10.9706 36.6056 11.29C37.0969 11.5824 37.7956 11.5025 38.3378 11.9279C39.1372 12.5558 39.5117 13.1825 39.3447 14.3021C39.0643 16.1854 38.3469 17.9574 38.1017 19.8648C38.0081 20.5938 37.0977 21.7092 36.1268 22.2593C35.6534 22.5277 35.537 22.111 35.4078 21.8211C35.2243 21.4085 34.878 21.126 34.5491 21.4416C33.7708 22.188 32.9528 21.6583 32.3079 21.4421C31.5528 21.1886 30.9642 20.6899 30.0265 20.648C29.3733 20.6186 28.7308 19.6908 28.1381 19.1093C27.1362 18.1256 27.248 16.9563 27.7078 15.7716C28.0474 14.8969 28.4152 14.0332 28.7805 13.1692C28.8526 12.9998 28.945 12.7447 29.0759 12.7095C30.3495 12.3694 31.016 11.324 31.8883 10.4769C32.6571 9.73053 33.0907 10.0432 33.3347 11.6222" fill="black"/>
<path fill-rule="evenodd" clip-rule="evenodd" d="M13.3382 36.489C13.0151 36.2836 13.4848 36.0404 13.1696 35.8449C12.6904 36.1204 12.3225 36.6485 12.2248 37.112C11.98 38.2663 10.8082 38.0638 10.2288 38.6818C10.0921 38.8276 9.97195 38.6764 9.88331 38.5517C9.55278 38.0882 9.07562 38.0638 8.58065 38.1417C8.18219 38.2042 7.83882 38.2096 7.65118 37.756C7.54805 37.5079 7.35254 37.4321 7.11106 37.609C6.38 38.1437 6.10414 37.5502 5.56816 37.1571C3.44041 35.5968 3.9445 33.6426 4.48172 31.6139C4.74018 30.6368 4.94106 29.6418 5.11876 28.6457C5.28941 27.6926 5.77568 27.0742 6.74491 26.8766C6.8555 26.8543 6.97272 26.8497 7.07544 26.8079C8.84988 26.0863 8.84988 26.0855 9.1626 28.0729C9.90361 26.3804 10.696 27.0452 11.6909 27.64C12.6423 28.2083 13.6882 28.5591 14.3637 29.5424C14.662 29.9765 14.8488 30.3493 14.7572 30.8708C14.5609 31.9937 14.6831 33.1804 14.032 34.213C13.9077 34.4101 13.952 34.6094 14.1169 34.9155C14.5037 35.6337 13.6641 35.9787 13.3382 36.489" fill="black"/>
<path fill-rule="evenodd" clip-rule="evenodd" d="M31.7494 31.6442C32.4883 31.1202 33.226 30.8402 33.8424 31.8107C33.9115 31.9192 34.0801 31.9992 34.216 32.0253C36.8619 32.5335 37.9968 33.9467 37.9243 36.5322C37.8866 37.8787 37.4442 39.1901 37.829 40.6046C38.1666 41.8464 37.4414 42.2453 36.1482 41.7138C35.9179 41.6194 35.7398 41.6753 35.5166 41.7698C34.9334 42.0162 34.351 42.0754 33.8535 41.5419C33.7264 41.4061 33.5118 41.2839 33.3445 41.4028C32.2179 42.2009 31.2573 41.3133 30.238 41.1029C29.5537 40.9616 28.9689 40.9637 28.3687 40.1589C27.6853 39.2431 27.694 38.5411 27.8427 37.634C28.1367 35.8463 28.6843 34.1294 29.3122 32.4366C29.4816 31.9793 29.6714 31.5361 30.0619 31.1981C30.9106 30.4637 31.3377 30.5536 31.7494 31.6442" fill="black"/>
<path fill-rule="evenodd" clip-rule="evenodd" d="M12.4138 65.7159C12.2527 65.8289 12.191 65.8675 12.1347 65.913C11.8236 66.1628 11.8157 66.9572 11.2408 66.6544C10.7135 66.3765 10.6419 65.7461 10.8718 65.1501C11.6281 63.1913 12.3803 61.2313 13.1312 59.2705C13.4133 58.5349 13.6589 57.7835 13.9758 57.0628C14.2007 56.5504 14.5022 55.8844 15.119 55.9689C15.8525 56.0695 15.271 56.8673 15.5394 57.2898C15.9652 57.2417 16.019 56.8768 16.1632 56.586C16.4291 56.0492 16.7339 55.71 17.1361 56.4808C17.2041 56.6113 17.2422 56.823 17.4033 56.6826C18.3937 55.8206 18.8128 57.0147 19.3335 57.3399C19.9316 57.7135 19.9606 58.5249 19.6843 59.3339C18.9334 61.5328 18.2955 63.7708 17.6282 65.9979C17.4377 66.6341 17.1506 67.1258 16.4813 67.3963C16.1561 67.528 15.9395 67.8697 15.7842 67.2712C15.7647 67.1962 15.5705 67.0848 15.5402 67.1063C14.9309 67.5396 14.2632 67.3892 13.5889 67.4261C13.2137 67.4468 12.8545 67.8552 12.3919 67.5247C11.8675 67.1494 12.239 66.7083 12.2726 66.2941C12.2863 66.1272 12.3513 65.964 12.4138 65.7159" fill="black"/>
<path fill-rule="evenodd" clip-rule="evenodd" d="M50.475 6.35264C50.5794 5.90075 50.4949 5.56732 50.3023 5.21276C49.4777 3.69554 50.1325 1.77158 51.6957 1.05915C52.1555 0.849567 52.5175 0.968029 53.0216 1.16519C53.9079 1.51063 54.6647 1.96045 55.3709 2.56436C56.1956 3.26892 56.9449 3.98134 56.6276 5.22974C56.5265 5.62531 57.1188 6.35886 56.8695 6.29921C55.7234 6.02294 57.0559 7.20714 56.3584 7.05969C55.6132 6.90187 55.2508 7.59193 55.1054 7.98128C54.6784 9.12406 53.7853 9.11785 52.8724 9.16093C52.6111 9.17335 52.0043 9.49685 52.283 8.72187C52.2926 8.69578 52.2723 8.65892 52.2656 8.62744C51.5578 8.86146 51.4932 8.27909 51.1133 7.93903C50.5098 7.39809 50.5455 6.88821 50.475 6.35264" fill="black"/>
</svg>
