<svg width="48" height="42" viewBox="0 0 48 42" fill="none" xmlns="http://www.w3.org/2000/svg">
<path fill-rule="evenodd" clip-rule="evenodd" d="M38.7143 0.948608C39.7639 1.09151 40.6698 1.54133 41.4302 2.2347C41.7442 2.5205 41.8656 3.06642 41.4998 3.35429C40.3048 4.29535 40.5666 5.58435 40.6433 6.7818C41.1316 14.3994 42.8538 21.7759 45.1303 29.0339C45.9608 31.6828 46.8935 34.2997 47.7642 36.9356C47.8822 37.2935 48.1382 37.6381 47.6959 38.0478C47.2547 38.4566 46.9586 38.0196 46.6326 38.0407C44.1577 38.2019 43.604 36.2791 42.7872 34.6277C38.6559 26.2762 36.6371 17.3986 36.2018 8.12961C36.1222 6.43346 36.2101 4.74021 36.6781 3.09914C36.9767 2.0537 37.4862 1.14204 38.7143 0.948608" fill="black"/>
<path fill-rule="evenodd" clip-rule="evenodd" d="M18.1682 16.771C18.468 16.0238 18.8905 15.7259 19.6071 15.9736C20.3112 16.2168 20.6683 16.5701 20.7051 17.4068C20.7842 19.1965 21.7655 20.6881 22.6341 22.1788C25.6913 27.4288 29.1292 32.4361 32.4925 37.4906C32.7571 37.8886 33.0533 38.2813 32.7861 38.8392C32.4618 39.5185 31.9921 38.898 31.6123 39.026C30.3618 39.4472 29.7099 38.5832 29.0596 37.7871C25.6838 33.653 22.2074 29.5909 19.687 24.8375C18.8603 23.2781 18.0783 21.7012 17.457 20.0432C17.1824 19.3096 17.6748 18.4849 17.008 17.7651C16.7363 17.4722 16.8564 16.7523 17.2217 16.2926C17.4114 16.0536 17.6036 15.7438 17.9333 15.8423C18.3202 15.9579 18.0907 16.3539 18.1682 16.771" fill="black"/>
<path fill-rule="evenodd" clip-rule="evenodd" d="M1.29191 28.667C2.73458 28.7187 3.58742 29.2696 4.39552 30.2687C5.95209 32.1935 8.12831 33.3955 10.2486 34.6145C13.0511 36.2265 15.9484 37.646 18.9626 38.8294C19.7264 39.1288 20.4396 39.5687 21.1487 39.99C21.4188 40.1503 21.7327 40.3797 21.4871 40.813C21.2875 41.1663 21.017 41.1361 20.6475 41.1584C17.7659 41.3328 15.3681 39.8438 12.8626 38.8451C9.44712 37.4836 6.17742 35.7825 3.25647 33.4941C2.18452 32.6541 1.23227 31.6997 0.424991 30.6042C0.0791331 30.1345 -0.164831 29.6449 0.135879 29.0393C0.465997 28.3754 0.977536 28.5659 1.29191 28.667" fill="black"/>
</svg>
