<svg width="56" height="97" viewBox="0 0 56 97" fill="none" xmlns="http://www.w3.org/2000/svg">
<mask id="mask0" mask-type="alpha" maskUnits="userSpaceOnUse" x="0" y="0" width="56" height="97">
<path fill-rule="evenodd" clip-rule="evenodd" d="M0.405273 0H55.9687V96.9761H0.405273V0Z" fill="white"/>
</mask>
<g mask="url(#mask0)">
<path fill-rule="evenodd" clip-rule="evenodd" d="M23.0052 73.6547C22.6217 73.197 22.6631 72.2096 21.3223 72.6486C22.1669 72.8528 22.135 73.8274 23.0052 73.6547M25.3082 61.8819C24.9764 61.5472 25.3852 60.7818 24.6376 60.7316C24.4015 60.7155 24.2478 60.9023 24.2483 61.1686C24.2499 61.8367 24.8128 61.7945 25.3082 61.8819M48.549 72.8213C49.3215 72.2431 49.7415 71.6765 49.9967 70.9802C49.3944 71.4044 48.6708 71.7229 48.549 72.8213M11.3898 70.2657C11.022 70.2744 11.9341 71.3874 10.9126 70.7503C10.5734 70.5391 10.6819 70.8642 10.6065 70.9661C10.4123 71.2292 10.6799 71.3339 10.8099 71.336C11.239 71.3431 11.8044 71.3737 11.9858 70.9765C12.1706 70.5739 11.6541 70.4289 11.3898 70.2657M50.2212 66.8295C51.4381 65.4374 51.523 65.2899 51.54 64.5435C50.8309 65.2 50.2299 66.2418 50.2212 66.8295M53.7406 61.0353C53.2871 60.602 54.2211 60.6935 53.8334 60.4003C53.6164 60.2363 53.3645 60.4206 53.3351 60.778C53.3094 61.0916 53.0671 61.2805 52.8281 61.4809C52.5643 61.7021 52.8439 61.956 52.9106 62.188C52.9205 62.2219 53.1839 62.2236 53.186 62.2128C53.3082 61.5679 54.1254 61.5849 54.3151 61.0179C54.33 60.9723 54.2799 60.9052 54.2489 60.8166C54.0513 60.9015 53.8562 60.9855 53.7406 61.0353M25.2051 66.7479C24.4032 66.6518 25.2005 65.4829 24.4599 65.5455C23.7197 65.6084 23.8718 66.581 23.8245 67.0275C23.721 67.9967 24.4313 66.4414 24.6534 67.1605C24.6741 67.2284 25.1185 67.1377 25.2051 66.7479M4.38939 84.926C4.59814 84.8067 4.97382 85.1832 5.03471 84.7586C5.0956 84.3403 4.61347 84.3051 4.39187 84.3568C3.94246 84.4616 3.56885 84.5134 3.11737 84.2906C2.84856 84.1576 2.64767 84.5842 2.45921 84.788C2.37844 84.875 2.42524 85.1592 2.50684 85.3008C2.71311 85.6603 2.96039 85.2768 3.19856 85.2884C3.63306 85.3095 3.82814 84.5751 4.38939 84.926M7.35879 80.407C8.01033 78.9623 9.44347 77.9243 9.74708 76.2928C8.86566 77.6186 7.83057 78.8571 7.35879 80.407M23.1216 76.5417C22.7132 75.7858 22.6122 74.9495 22.1677 74.2756C22.0074 74.0333 21.8707 73.8138 21.5655 74.071C20.7855 74.7287 20.911 75.5422 21.8471 75.9531C22.2754 76.1408 22.6971 76.345 23.1216 76.5417M23.7757 58.2812C23.2678 57.6707 23.0914 58.5732 22.5629 58.5186C21.9979 58.4597 23.1432 59.878 21.9743 60.1215C21.913 60.1344 22.0584 60.3638 22.1822 60.4562C22.9046 60.9934 23.1689 60.3584 23.4952 59.9322C23.779 59.5615 23.8854 59.0351 24.5316 59.0438C24.8497 59.0479 24.9847 59.7955 25.3144 59.284C25.5422 58.9311 24.9056 58.8189 24.836 58.502C24.6459 57.6363 24.088 58.4196 23.7757 58.2812M19.4941 81.6335C19.6821 82.0945 19.5852 82.5095 19.2766 82.8815C18.9792 83.2402 18.6955 83.6597 18.5236 84.0408C18.1061 84.9645 17.4471 86.3583 17.0412 86.9522C16.313 88.0159 15.4672 88.9947 14.7498 90.0558C13.8228 91.4268 12.6589 92.5506 11.2896 93.0232C11.1363 93.0762 11.0593 93.1934 11.1574 93.3699C11.3968 93.7973 12.777 94.0376 12.8478 93.6565C13.0035 92.8177 13.7147 92.667 14.1807 92.1977C16.3349 90.0244 18.0655 87.5603 19.4373 84.7851C19.8648 83.9203 19.8424 82.7833 20.7785 82.097C21.2138 81.7776 20.8568 81.4272 20.3357 81.4504C20.7184 80.7752 20.5855 79.9179 21.3497 79.3168C21.6736 79.0621 22.0219 78.1335 21.6649 77.496C21.5692 77.3254 21.0701 77.8924 20.6741 77.6551C20.5797 78.2325 20.2487 78.114 20.0064 77.8179C19.7736 77.5333 19.784 77.1937 20.1928 76.9853C20.4314 76.8635 20.7251 76.6602 20.6107 76.3922C20.1696 75.3604 20.7056 74.5233 21.0751 73.6473C21.2892 73.1386 20.6621 72.0045 20.1137 72.0977C19.4241 72.2145 19.0649 71.9461 18.7158 71.3696C18.7025 71.9113 19.2323 72.4755 18.4349 72.7903C17.788 73.045 17.382 72.7733 17.131 72.2966C16.726 72.4415 16.7139 72.8019 16.506 73.1204C16.4795 72.6731 16.5184 72.2912 16.0744 72.1031C15.9009 72.3081 16.096 72.6623 15.7435 72.7745C14.9474 73.0293 14.1716 73.3113 13.8497 74.2201C13.7768 74.4272 13.4993 74.3464 13.3697 74.211C12.6038 73.4103 12.4916 74.1559 12.2944 74.6625C12.1561 75.017 11.9713 75.3186 11.7021 75.601C9.51223 77.8957 7.82767 80.5234 6.60081 83.4464C6.47779 83.7389 6.4869 84.0578 6.66377 84.3009C6.84808 84.5548 6.79382 84.7383 6.72093 85.0146C6.35394 86.3993 6.48773 87.8096 6.78098 89.1728C6.91601 89.8015 6.8543 90.2373 6.43057 90.7123C6.66832 90.9219 7.06761 90.5765 7.26146 91.0516C8.20211 93.3529 9.24714 93.6176 11.2357 92.1902C13.2475 90.7459 14.7473 88.8232 16.0616 86.7919C16.6858 85.8281 17.3953 84.8862 17.7776 83.6879C18.0336 82.8856 18.2316 81.7337 19.1826 81.1853C19.3334 81.3021 19.5728 81.3572 19.4941 81.6335M3.09749 79.4933C3.56388 79.4312 3.82814 79.0721 4.02406 78.7283C4.80856 77.349 5.88258 76.1909 6.82779 74.9342C7.09122 74.5838 7.5369 74.3112 7.54353 73.5081C5.42489 75.2424 3.97767 77.1622 3.11613 79.5302C2.70027 80.0239 2.32459 80.528 2.61868 81.2317C2.67418 81.3647 2.68081 81.5419 2.8672 81.549C3.12442 81.5585 3.16666 81.3514 3.16335 81.1646C3.15258 80.6075 3.12069 80.0504 3.09749 79.4933M22.8984 80.0583C22.7058 80.2016 22.3123 80.2832 22.4751 80.5868C22.6515 80.9157 22.9825 81.1654 23.2687 81.4247C23.2915 81.4458 23.5073 81.2913 23.6005 81.1886C23.7214 81.0561 23.1788 80.2442 22.8698 80.0806C23.1175 79.7116 23.5325 79.4324 23.4228 78.8807C23.3656 78.5945 23.2488 78.2942 22.9746 78.3766C22.4332 78.5398 22.8305 79.1528 22.538 79.5074C22.2199 79.8926 22.6101 79.9804 22.8984 80.0583M18.4105 89.9751C18.058 90.6792 18.5298 91.1605 18.8752 91.6841C18.0717 91.851 18.1318 92.913 17.3837 93.1454C17.3659 93.1508 17.3688 93.3612 17.4222 93.4241C17.4827 93.4941 17.6753 93.5633 17.7018 93.5343C18.2026 92.9838 19.2377 92.7527 18.8537 91.6609C19.5583 91.8572 19.714 92.3505 19.2219 92.8041C18.4519 93.5144 18.1728 94.798 16.8626 94.8916C16.9389 96.4142 15.3032 95.6099 15.0749 96.0688C14.3754 97.4787 13.2964 96.3086 12.4982 96.6889C11.5385 97.1457 10.8919 96.5045 10.2483 95.8646C10.4272 96.2113 10.7842 96.4929 10.5535 96.8082C10.305 97.149 9.87755 96.8976 9.68205 96.6996C9.23471 96.2461 8.96424 96.4569 8.71737 96.9237C8.41874 96.413 8.64737 95.8571 8.13998 95.2441C8.26672 95.9545 8.41998 96.6019 7.744 96.6768C7.32152 96.7232 6.58755 96.6818 6.91974 95.8161C6.92761 95.7958 6.80584 95.6877 6.78264 95.6993C5.65187 96.2527 5.38016 94.6771 4.28874 94.7376C3.43424 94.7848 2.94838 93.5911 2.44803 92.9267C0.353824 90.1453 0.0377889 87.0247 0.746487 83.6051C1.01323 82.3169 1.01737 80.9202 1.41791 79.6196C1.92075 77.9868 2.94217 76.6722 3.93252 75.2979C5.05004 73.7471 6.4285 72.543 7.87033 71.3588C9.05743 70.3842 10.4289 69.736 11.8367 69.188C12.7157 68.8463 12.9025 69.1871 12.7219 70.6497C13.4231 70.366 13.8684 69.8072 13.5532 69.3197C13.1195 68.6499 13.6646 68.7058 13.9376 68.6238C14.3472 68.5016 14.7834 68.6147 15.2228 68.4263C15.5753 68.2751 15.7745 68.6545 15.8752 69.021C16.04 69.62 16.0616 69.6138 16.8407 69.917C16.2219 69.3922 16.8009 68.9013 16.6419 68.3749C16.5623 68.1123 17.1861 67.9963 17.5668 68.1823C19.3897 69.0724 21.1061 69.0244 22.678 67.6202C22.7865 67.5229 22.9344 67.4686 23.067 67.4007C23.1606 67.3526 23.2993 67.3464 23.2285 67.1538C22.958 66.8158 22.746 67.0706 22.4974 67.2445C21.9449 67.6318 21.2942 67.3543 21.382 66.6928C21.5829 65.1785 20.9595 63.5917 21.9374 62.1093C22.1847 61.7348 21.6848 60.8571 21.5054 60.2168C21.4313 59.9529 21.2586 59.6916 21.739 59.6908C22.0103 59.6903 22.1019 59.5189 21.9167 59.3511C21.2122 58.7137 21.3919 58.0696 21.6417 57.2594C21.8032 56.7358 21.261 56.1328 21.4354 55.4108C21.5717 54.8454 21.7805 54.5012 22.2112 54.1902C23.1287 53.5274 23.1225 53.5183 22.427 52.4915C21.8612 52.7918 21.5671 53.2334 21.7117 53.9218C21.4545 52.9231 20.6874 51.91 22.0397 51.0965C22.3496 50.9097 21.9673 50.8194 21.8053 50.6914C21.3112 50.3012 21.0415 49.7748 21.1318 49.1249C21.3422 47.6081 21.0465 46.0449 20.9007 44.6039C20.7462 43.073 20.4231 41.4344 20.0963 39.8592C19.0007 34.5777 18.1305 29.2122 16.04 24.2194C13.2458 17.5474 10.1646 11.001 4.78578 5.88271C3.44998 4.61194 2.18874 3.25253 1.39554 1.54643C1.193 1.11028 0.90554 0.646376 1.31519 0.18247C1.75921 -0.32037 2.07897 0.377145 2.51057 0.362234C2.80838 0.351464 3.16791 0.650518 3.38619 0.997204C4.39891 2.61052 5.76909 3.9107 7.18773 5.14833C11.5174 8.92584 14.4971 13.6821 17.3104 18.6161C20.5851 24.3582 22.9381 30.4312 24.2826 36.8691C24.73 39.0101 25.6102 41.0807 25.6139 43.2967C25.6155 44.4295 25.5339 45.5797 25.7485 46.679C25.9747 47.8384 26.1407 48.9915 26.1925 50.1666C26.2087 50.5365 26.3081 50.9118 26.0832 51.2638C25.9312 51.502 25.5091 51.7824 26.229 51.8926C26.4771 51.9307 26.2663 52.2521 26.161 52.4472C25.9353 52.8643 25.6238 53.2963 26.1751 53.7138C26.2298 53.7553 26.2882 53.8924 26.2874 53.8928C25.2146 54.5596 26.3748 54.8421 26.5537 55.2426C27.1887 56.6654 25.8765 56.1435 25.3977 56.3892C25.9084 57.3286 27.0247 57.9209 26.6063 59.2293C26.1954 59.4132 26.3056 58.8814 26.0823 58.7033C25.8458 59.2529 25.7336 59.6945 26.5197 59.8419C26.8445 59.9028 26.9091 60.1621 26.7583 60.4566C26.2911 61.3679 26.2911 61.3679 26.7799 62.0695C26.5405 62.3122 26.2207 62.1793 25.9506 62.2464C25.8583 62.2692 25.6996 62.3628 25.7063 62.3922C25.739 62.5284 25.7849 62.6995 25.8868 62.7749C26.6759 63.3573 27.1642 65.171 26.7558 66.0777C26.7413 66.1109 26.6858 66.1403 26.69 66.1656C26.8221 67.0557 26.2928 67.882 26.3259 68.6992C26.3793 70.0234 27.7367 70.3854 28.6168 71.0689C28.9283 71.3112 29.3827 71.36 29.7501 71.5411C34.5308 73.9008 39.3256 72.9845 43.0443 69.1441C45.0871 67.0341 46.5894 64.5386 48.3452 62.2244C49.4015 60.8323 50.6325 59.5574 51.3793 57.9428C51.5155 57.6475 51.8022 57.5245 52.0805 57.4077C52.2872 57.3211 52.5332 57.2093 52.7084 57.4102C52.8849 57.6127 52.7093 57.8645 52.6132 58.0298C52.0913 58.9328 51.5015 59.7964 50.9891 60.7043C49.9619 62.5239 48.6397 64.143 47.5914 65.9688C46.4693 67.9238 45.1087 69.9037 43.1938 71.3137C43.1296 71.3609 43.1313 71.4984 43.0588 71.7357C43.8619 71.4093 44.4551 70.9583 44.9169 70.424C46.005 69.164 47.0641 67.8894 47.9687 66.465C48.7909 65.1694 49.4441 63.689 50.7928 62.7737C51.1734 62.5152 51.1457 62.0099 51.289 61.6603C51.7815 60.457 52.9735 59.6961 53.2328 58.3545C53.3119 57.9428 53.7423 57.7887 54.2182 58.1566C55.9678 59.5089 56.3058 60.2106 55.6733 62.2381C54.562 65.8023 52.6314 68.9241 50.4009 71.8795C50.0965 72.2821 49.814 72.7008 49.5986 73.1672C51.4074 71.8521 52.2971 69.8113 53.6565 67.8563C53.0261 71.995 46.051 77.8493 43.3504 76.731C43.1102 77.6638 41.6766 78.3679 40.7823 77.9293C40.499 77.7909 40.2576 77.5826 39.9755 77.771C38.4802 78.7676 36.8553 78.3923 35.3969 77.9284C33.8229 77.4277 32.0481 77.7189 30.6361 76.6656C29.4005 75.744 27.8721 75.3753 26.5955 74.5341C26.2016 74.2744 25.8396 74.1915 25.5136 74.5792C25.174 74.9835 25.3115 75.3525 25.7199 75.6077C26.1242 75.8603 25.9995 76.2588 26.0318 76.6026C26.062 76.9269 25.7419 77.0329 25.6362 76.796C25.1897 75.797 25.092 77.0325 24.7958 76.8432C25.7605 77.4393 25.9013 78.2134 25.2121 79.2439C25.1131 79.3922 25.138 79.485 25.1935 79.6374C25.408 80.2277 25.7535 80.9219 24.5473 80.5561C24.3096 80.4841 23.9252 80.7425 24.2619 80.9728C25.1326 81.5684 24.5486 82.3616 24.4723 82.9312C24.3373 83.9414 23.8138 84.9053 23.4141 85.8728C23.3047 86.1379 23.0355 86.4747 22.7501 86.3715C22.4792 86.2738 22.6118 85.9358 22.777 85.7204C22.6751 85.2507 22.9514 84.7334 22.6167 84.284C22.099 83.7235 22.077 83.036 22.1358 82.297C21.681 83.335 20.7483 84.0309 20.4852 85.1662C20.3399 85.7937 19.9749 86.4274 19.5504 86.9224C18.4859 88.1634 17.9205 89.7158 16.9082 90.982C16.8113 91.1038 16.6377 91.339 16.8515 91.4658C17.008 91.559 17.2354 91.5967 17.4073 91.3183C17.6997 90.8445 18.0721 90.4203 18.4105 89.9751" fill="black"/>
</g>
</svg>
