<svg width="96" height="77" viewBox="0 0 96 77" fill="none" xmlns="http://www.w3.org/2000/svg">
<path fill-rule="evenodd" clip-rule="evenodd" d="M83.2703 60.9999C83.2686 61.9074 83.1348 62.5958 83.9839 62.8456C84.8728 63.1069 85.0406 62.4219 85.3363 61.859C85.4825 61.581 85.608 61.1892 86.0413 61.2414C86.4899 61.2948 86.6373 61.6307 86.7015 62.0362C86.7409 62.2843 86.7073 62.6141 87.0221 62.7002C87.3879 62.8 87.5328 62.4736 87.7176 62.2433C89.2795 60.2978 90.5167 58.1519 91.5261 55.8812C92.1503 54.4762 92.707 53.0278 92.8744 51.4791C93.1059 49.3335 91.4806 48.1419 89.4986 48.9926C88.3273 49.4955 87.3854 50.3127 86.6879 51.3561C84.6819 54.3565 83.7429 57.7385 83.2703 60.9999M79.8713 61.9025C80.1895 56.3339 81.6392 51.1059 84.6185 46.3459C85.4076 45.0855 86.5234 44.1316 87.7234 43.2812C88.4639 42.756 89.3189 43.0294 90.1315 42.9846C90.3809 42.971 91.1086 43.6834 90.9446 42.6127C90.9347 42.546 91.3563 42.6048 91.5568 42.6964C92.8864 43.3052 93.9811 44.1481 94.648 45.5129C96.5508 49.4077 96.347 53.29 94.65 57.1719C93.1614 60.5766 91.2644 63.6901 88.4242 66.1791C86.9882 67.4374 85.193 67.7 83.4832 68.0699C82.038 68.3826 80.5821 67.0162 80.2068 65.3892C79.9434 64.2472 79.9003 63.0804 79.8713 61.9025" fill="black"/>
<path fill-rule="evenodd" clip-rule="evenodd" d="M10.8025 66.9913C11.6492 64.2207 11.558 61.7024 10.2661 59.3029C9.30976 57.5264 8.02946 57.4444 6.72597 59.0121C5.77331 60.1578 5.21123 61.5122 4.76804 62.9197C4.10242 65.033 4.85958 66.4889 6.92561 67.2477C7.7565 67.553 8.23656 67.3562 8.39561 66.5187C8.53313 65.7938 8.80443 65.1199 9.60177 65.1539C10.4931 65.1924 10.4256 66.0755 10.5979 66.7034C10.607 66.737 10.6398 66.7647 10.8025 66.9913M14.2292 61.2554C14.2934 65.7056 13.1034 69.2839 10.7827 72.4973C10.274 73.2027 9.70242 73.86 8.94899 74.3148C7.89112 74.9539 6.72431 74.6068 6.40082 73.4487C6.2194 72.7976 5.90129 72.6596 5.33177 72.5619C2.76786 72.122 0.824844 70.2552 0.744489 67.7017C0.577566 62.4102 2.2236 57.6304 5.83709 53.7505C8.46189 50.9327 11.3398 51.6033 12.9903 55.1248C13.9695 57.2145 14.2272 59.4495 14.2292 61.2554" fill="black"/>
<path fill-rule="evenodd" clip-rule="evenodd" d="M39.7253 52.1975C39.6727 51.2971 39.4676 50.2582 38.5121 49.8014C37.6348 49.3818 36.9423 50.1506 36.3831 50.7288C34.0814 53.1075 32.6503 55.9763 31.8505 59.1665C31.6426 59.9945 32.1582 60.4004 32.8831 60.6443C33.569 60.8755 34.0184 60.7516 34.298 60.0139C34.4769 59.5422 34.7304 58.971 35.3923 59.0646C35.9689 59.1462 35.8517 59.7517 36.0169 60.1349C36.101 60.3291 36.0331 60.6249 36.3176 60.6717C36.5699 60.7131 36.748 60.4973 36.8437 60.3122C38.1555 57.7748 39.4449 55.227 39.7253 52.1975M28.131 60.8229C28.3211 56.7604 29.8582 53.0922 31.5262 49.4663C32.5153 47.317 33.7682 45.4121 35.9548 44.2382C37.8788 43.2052 39.6656 43.5536 40.7318 45.5061C42.4089 48.5787 43.0666 51.8364 42.0303 55.2858C41.1261 58.2962 39.7447 61.054 37.6555 63.4356C37.3357 63.7997 36.929 64.1729 36.5301 64.0623C35.6628 63.8221 35.3318 64.438 35.027 64.9197C34.2015 66.2265 33.0015 66.5393 31.6223 66.3027C30.0984 66.0414 28.8761 65.3037 28.3559 63.7235C28.044 62.7766 27.991 61.8099 28.131 60.8229" fill="black"/>
<path fill-rule="evenodd" clip-rule="evenodd" d="M13.093 39.5141C13.4285 39.1806 13.4443 38.8323 13.5085 38.5042C13.5814 38.1327 13.8481 37.9227 14.1505 38.1016C14.8956 38.5436 15.2556 38.0105 15.6656 37.5913C16.7724 36.461 17.7702 35.2147 18.5112 33.8387C19.3148 32.3476 20.1655 30.8076 19.9481 28.9776C19.813 27.8398 19.7078 26.5902 18.4466 26.2137C17.1543 25.828 16.1776 26.6734 15.3306 27.5764C15.2796 27.6306 15.2465 27.7011 15.1984 27.7586C13.3515 29.9891 12.5268 32.6934 11.8654 35.4164C11.5087 36.8855 11.903 38.3663 13.093 39.5141M8.20795 38.339C8.28748 34.8332 9.45014 31.6269 10.7594 28.4226C11.6628 26.2112 12.8723 24.2557 14.4164 22.4689C15.7684 20.9053 18.5377 20.2806 20.4389 21.3973C21.1509 21.8157 21.2772 22.741 22.0547 23.0558C21.1509 24.0379 22.5153 24.4479 22.5965 25.1951C22.9274 28.2267 22.833 31.141 21.4102 33.9866C20.0177 36.7729 18.1956 39.1189 15.7162 40.9704C15.4403 41.1767 15.3683 41.4045 15.3376 41.7251C15.2949 42.1683 15.2365 42.6313 15.068 43.0373C14.0991 45.3729 12.4784 45.7536 10.5875 44.0765C8.87523 42.5576 8.14582 40.6047 8.20795 38.339" fill="black"/>
<path fill-rule="evenodd" clip-rule="evenodd" d="M72.9642 36.1811C72.9186 35.6053 73.011 34.9447 72.4241 34.6568C71.8773 34.3888 71.4395 34.8747 71.0315 35.1874C70.4603 35.6256 69.9915 36.174 69.6108 36.7812C68.0973 39.1965 67.0999 41.8072 66.6625 44.632C66.5519 45.3486 66.5374 46.2366 67.2424 46.3717C67.9871 46.5141 69.0562 46.6881 69.5118 45.5731C69.6386 45.2624 69.7972 44.953 69.9989 44.6863C71.9013 42.163 72.3383 39.141 72.9642 36.1811M63.7416 45.1518C63.9889 41.2563 65.137 37.3367 67.2445 33.7004C67.5079 33.2469 67.8273 32.826 68.0915 32.3729C69.1606 30.5409 70.848 29.8165 72.8677 29.7668C73.5652 29.7498 73.9541 30.3023 74.2689 30.8839C75.408 32.9884 75.6983 35.235 75.2332 37.5438C74.3112 42.1182 72.596 46.382 70.0093 50.2838C69.547 50.9817 68.9531 51.5541 68.3446 52.1021C67.657 52.721 67.0718 52.4869 66.839 51.5773C66.7594 51.2654 66.7822 50.9034 66.3473 50.7841C64.6126 50.3078 64.3811 48.7372 63.9507 47.3579C63.7656 46.7631 63.8215 46.0933 63.7416 45.1518" fill="black"/>
<path fill-rule="evenodd" clip-rule="evenodd" d="M56.4414 18.0304C55.5177 18.8514 55.2021 19.8442 54.7083 20.753C53.8012 22.4247 53.3908 24.2 53.141 26.0423C53.0996 26.3488 53.1166 26.6769 53.4798 26.785C53.8348 26.8906 54.0195 26.5953 54.1777 26.3592C54.3211 26.1446 54.3318 25.7536 54.5112 25.6667C55.1172 25.3717 54.7063 23.8831 56.0023 24.4145C56.168 24.482 56.3221 24.183 56.1249 24.0368C55.2642 23.4001 55.813 22.7026 56.0479 22.0594C56.508 20.7973 56.8386 19.539 56.4414 18.0304M57.3369 12.9739C56.1009 13.5517 56.6079 14.151 57.3236 14.4236C58.9593 15.0474 59.0616 16.553 59.3615 17.859C59.5532 18.694 59.3917 19.6711 59.1726 20.5293C58.1814 24.4137 56.3962 27.9539 54.2486 31.3139C53.8953 31.8672 53.2731 32.228 52.919 32.8203C52.7657 33.0759 52.4692 33.2412 52.1361 33.1285C51.8073 33.0171 51.7112 32.7847 51.7476 32.4235C51.8151 31.75 51.5219 31.2418 51.0265 30.7543C49.6621 29.4131 49.7897 27.6109 49.9338 25.9657C50.3012 21.7645 51.7178 17.8706 54.0112 14.3312C54.7096 13.253 55.6838 12.4255 57.3369 12.9739" fill="black"/>
<path fill-rule="evenodd" clip-rule="evenodd" d="M59.8951 68.2305C59.9833 68.537 60.0716 68.8439 60.2 69.2912C61.1825 68.0474 61.8439 66.758 62.2449 65.3543C62.5104 64.4244 61.7855 63.62 60.8138 63.6714C59.8346 63.7227 59.1102 64.2662 58.5854 65.0382C57.2012 67.0753 56.5844 69.4234 56.229 71.7968C56.1234 72.5042 56.2079 73.4614 56.6478 74.2422C57.028 74.9161 56.2588 76.6147 55.4648 76.8703C54.4707 77.1905 53.999 76.4718 53.6606 75.747C52.9933 74.3192 53.2265 72.7697 53.3632 71.3001C53.673 67.977 54.6729 64.8357 56.3881 61.9495C57.1515 60.6647 58.0275 59.4838 59.6536 59.2502C62.4242 58.853 63.5604 59.1441 64.2803 61.9276C65.2292 65.5953 63.2174 70.6838 60.0902 72.8836C59.7439 73.1276 59.3939 73.3334 58.9437 73.1591C58.4301 72.9607 58.5046 72.4889 58.4872 72.1028C58.4226 70.6656 59.0663 69.4404 59.611 68.1895C59.7058 68.2031 59.8003 68.2168 59.8951 68.2305" fill="black"/>
<path fill-rule="evenodd" clip-rule="evenodd" d="M40.729 0.0130787C41.6158 -0.0635485 42.2644 0.284381 42.3038 1.13101C42.3726 2.62669 42.7056 4.02089 42.2698 5.65823C41.5367 8.41308 40.4105 10.8917 38.8618 13.1959C38.1779 14.2127 38.4567 15.3431 38.0251 16.3595C37.6656 17.2062 37.2423 17.9786 36.5766 18.6115C36.1455 19.0216 35.6865 19.3289 35.0718 18.9756C34.4949 18.6443 34.2538 18.2798 34.2178 17.4816C33.9924 12.488 35.8829 8.03616 37.5666 3.52136C37.9394 2.52314 38.5342 1.66367 39.1542 0.80876C39.5705 0.235505 40.0737 -0.0560929 40.729 0.0130787" fill="black"/>
</svg>
