<svg width="199" height="158" viewBox="0 0 199 158" fill="none" xmlns="http://www.w3.org/2000/svg">
<path fill-rule="evenodd" clip-rule="evenodd" d="M182.635 125.417C184.802 124.838 189.519 120.802 189.78 119.19C187.605 121.777 185.213 123.709 182.635 125.417M35.3943 15.0693C35.1922 14.7479 35.4635 14.441 35.4436 14.0956C34.971 14.5657 34.0925 14.5748 33.9744 15.5983C34.5249 15.317 34.8935 14.9107 35.4262 15.0362C34.826 15.945 33.723 16.4002 33.3734 17.5902C33.1841 18.2338 32.1565 18.3722 31.8061 19.0693C30.9015 18.4049 31.1251 19.1969 31.0937 19.6297C31.0614 20.0799 30.6873 20.2469 30.3982 20.4531C30.0598 20.6938 29.8332 20.9978 29.5727 21.3126C28.2431 22.916 26.8295 24.4493 25.4709 26.0291C24.961 26.6218 24.3223 27.1586 23.9168 27.7514C23.4835 28.3847 23.1182 29.124 22.6655 29.7863C20.993 32.2309 19.1485 34.5799 17.7067 37.1537C15.9811 40.235 14.1781 43.2872 12.7379 46.5271C11.5206 49.2662 10.0932 51.9229 9.23212 54.8041C8.68579 56.6328 7.72526 58.297 7.39721 60.2231C7.00745 62.5157 6.20266 64.7201 5.85845 67.0446C5.43017 69.9382 4.88177 72.826 4.69538 75.7366C4.43484 79.8082 4.10887 83.8773 3.98916 87.9621C3.80982 94.0728 3.95396 100.138 5.36763 106.119C6.13473 109.365 7.0381 112.579 8.46419 115.595C11.8114 122.674 16.3286 129.031 20.9225 135.329C25.9572 142.231 32.4535 147.082 40.7081 149.57C46.591 151.344 52.5692 152.563 58.6401 153.458C64.5959 154.336 70.4598 154.088 76.3398 152.84C83.8662 151.242 90.9229 148.389 97.8368 145.123C106.815 140.882 115.741 136.527 125.197 133.395C131.232 131.396 137.372 130.031 143.754 129.898C147.15 129.828 150.507 130.326 153.872 130.638C162.37 131.424 170.411 129.697 178.176 126.394C182.049 124.746 185.582 122.551 188.382 119.345C192.644 114.468 194.214 108.596 194.44 102.295C194.674 95.7682 192.504 89.9408 188.837 84.651C184.015 77.6953 179.056 70.8312 174.575 63.6464C169.937 56.2074 163.79 50.3299 156.378 45.7248C151.693 42.8138 147.031 39.8734 142.594 36.5842C138.417 33.4876 134.497 30.0738 130.408 26.8708C125.907 23.3443 121.302 19.952 115.929 17.8275C111.38 16.0286 106.801 14.3051 102.224 12.5796C97.8517 10.9311 93.3382 9.70876 88.9091 8.22923C87.4031 7.72598 85.7864 7.44308 84.2502 7.29231C82.7702 7.14692 81.6523 6.15947 79.9764 6.25971C78.3503 6.35746 76.4516 5.72207 74.709 5.20142C74.1503 5.0345 73.2059 5.0316 72.433 5.03905C70.9469 5.05314 69.4392 5.02414 67.9783 4.78432C66.6118 4.56024 64.9596 5.49178 63.8814 3.79438C64.2538 4.35562 64.2848 4.89823 63.917 5.30953C63.5703 5.69763 63.0025 5.63716 62.5332 5.49509C61.6427 5.22586 60.7637 5.37083 59.8657 5.39817C58.5005 5.44042 57.383 6.36615 55.9975 6.32971C55.6028 6.31935 55.1906 5.9561 54.7744 6.32266C54.1203 6.89923 53.193 6.79361 52.4996 7.12C51.2064 7.72888 49.8218 7.40207 48.544 7.84154C47.6861 8.13686 46.8892 8.50882 46.0981 8.96527C45.4047 9.36497 44.6567 9.80071 43.803 9.85828C43.3677 9.88769 43.127 10.3918 42.6536 10.3089C42.7083 11.3051 41.8103 11.1481 41.2847 11.455C40.6248 11.8398 39.8586 11.9749 39.2398 12.4818C38.0435 13.4614 36.8693 14.4924 35.3943 15.0693M36.0599 11.885C37.9503 10.4117 39.994 9.17278 42.0803 8.00639C43.3867 7.27657 44.7445 6.63953 46.0629 5.93042C46.5918 5.64586 47.0106 5.5129 47.2533 6.42124C46.9911 5.4545 47.5714 5.26107 48.1385 5.05521C48.8799 4.78639 49.649 4.57349 50.3536 4.22846C51.0093 3.90787 51.2756 4.08059 51.329 4.91024C51.5805 3.25592 53.0517 3.34373 53.9642 2.87237C55.8973 1.87414 58.0271 1.34355 60.2476 1.34562C60.6602 1.34604 61.1005 1.35681 61.4795 1.22385C62.708 0.79225 63.9564 0.984439 65.1973 1.03497C66.447 1.08592 67.7066 1.12527 68.94 1.31249C71.0276 1.63018 73.1401 1.68568 75.2243 2.10444C77.6296 2.58781 80.0406 3.07988 82.4604 3.47337C88.7964 4.50391 94.8521 6.49911 100.875 8.61071C105.809 10.3404 110.698 12.2027 115.496 14.2815C121.136 16.7257 126.317 19.9557 131.149 23.7469C136.476 27.927 141.617 32.3457 147.136 36.2773C150.015 38.328 153.053 40.1438 156.072 41.9833C162.605 45.9625 168.478 50.7333 173.387 56.6299C176.477 60.3411 178.981 64.4649 181.587 68.5133C184.724 73.388 188.148 78.0627 191.469 82.8095C193.811 86.1575 195.776 89.6947 197.119 93.5625C198.268 96.8737 199.01 100.287 198.856 103.788C198.694 107.452 198.349 111.114 196.874 114.568C196.194 116.158 195.427 117.667 194.574 119.178C193.393 121.272 191.768 122.863 190.102 124.439C186.746 127.612 182.756 129.746 178.387 131.228C175.397 132.243 172.397 133.202 169.28 133.729C164.177 134.592 159.069 134.731 153.919 134.016C146.681 133.011 139.529 133.483 132.468 135.488C128.96 136.485 125.452 137.527 122.083 138.86C114.925 141.694 107.974 145.028 100.974 148.241C95.1408 150.92 89.2388 153.444 82.9815 155.021C79.7751 155.829 76.5344 156.487 73.2569 156.838C68.1299 157.385 63.0261 156.937 57.9422 156.127C52.039 155.188 46.217 153.927 40.4919 152.194C31.4611 149.459 23.9827 144.474 18.2613 136.95C13.7014 130.953 9.36964 124.782 5.95538 118.055C1.39999 109.079 -0.431191 99.5092 0.0844896 89.4379C0.340466 84.4435 0.57946 79.4495 1.09928 74.4786C1.70899 68.6417 2.6865 62.8595 4.56076 57.2756C6.14632 52.5504 7.97751 47.9217 10.309 43.5026C14.0124 36.4844 18.1391 29.7337 23.2512 23.647C26.0201 20.35 28.9493 17.1851 32.4344 14.5843C33.6518 13.6756 34.7486 12.6053 36.086 11.8568C36.1196 12.2271 35.9547 12.4019 35.6329 12.6301C34.6322 13.3405 33.629 14.0711 32.9004 15.0925C32.5529 15.0565 32.3006 15.1406 32.0227 15.4218C31.0348 16.4213 29.9459 17.3226 28.975 18.337C27.8231 19.5407 26.4679 20.5687 25.6436 22.066C24.7125 22.655 24.1024 23.4996 23.6687 24.4841C24.3538 23.698 25.5098 23.2755 25.6125 22.037C25.9601 21.9733 26.2268 21.7645 26.4534 21.5185C27.6649 20.2009 28.9585 18.9686 30.2342 17.7169C31.1193 16.8479 32.3868 16.3302 32.8818 15.0727C33.3415 15.2516 33.5644 14.8689 33.8419 14.6502C35.1574 13.6126 36.4567 12.5568 37.8663 11.6439C38.7071 11.0992 39.521 10.5131 40.3473 9.94568C40.2956 9.86905 40.2434 9.79243 40.1916 9.7158C39.0919 10.3909 37.9773 11.0441 36.902 11.7557C36.6038 11.9529 36.405 12.2283 36.0599 11.885" fill="black"/>
</svg>
