<svg width="117" height="254" viewBox="0 0 117 254" fill="none" xmlns="http://www.w3.org/2000/svg">
<mask id="mask0" mask-type="alpha" maskUnits="userSpaceOnUse" x="0" y="0" width="117" height="254">
<path fill-rule="evenodd" clip-rule="evenodd" d="M0 0.124634H116.975V253.605H0V0.124634Z" fill="white"/>
</mask>
<g mask="url(#mask0)">
<path fill-rule="evenodd" clip-rule="evenodd" d="M98.1856 27.9338C97.7353 25.0609 95.3818 19.9347 94.0386 19.0322C95.8495 21.9991 97.068 24.9495 98.1856 27.9338M97.4069 63.1616C98.5509 56.3815 99.3254 50.5985 99.2786 44.7408C99.2057 35.6363 97.5622 26.9028 92.6593 19.0657C88.8486 12.9749 83.7863 8.25468 76.8588 5.87634C71.2149 3.93829 65.3837 3.62018 59.4772 4.13628C48.6922 5.07817 39.5641 9.71598 31.6549 16.8581C25.082 22.794 20.0995 30.0085 15.7401 37.6688C10.5261 46.8313 7.17645 56.6433 5.66668 67.0646C4.0455 78.2555 5.28976 89.2902 7.92035 100.185C10.1011 109.217 12.9276 118.066 16.3382 126.715C18.7815 132.912 21.188 139.119 22.9418 145.555C24.348 150.715 25.1138 155.932 24.3956 161.299C23.8224 165.581 22.3909 169.639 21.2319 173.766C18.7733 182.517 14.601 190.554 10.7373 198.723C9.55852 201.216 8.67793 203.852 7.68757 206.432C7.14165 207.855 6.95071 209.381 6.53485 210.828C6.18029 212.063 6.2039 213.333 5.83444 214.534C5.22142 216.525 5.82325 218.502 5.92639 220.47C5.97941 221.486 6.06639 222.699 7.10935 223.478C7.6681 223.895 7.94686 225.568 7.65278 225.864C6.96769 226.552 6.81651 227.571 7.38106 228.278C8.05414 229.122 8.72059 229.996 9.52455 230.705C12.1212 232.993 14.8876 235.054 17.9639 236.677C25.8196 240.822 34.1414 243.783 42.5853 246.445C46.8971 247.805 51.2479 249.056 55.7109 249.743C62.783 250.832 69.725 250.084 76.5291 247.834C80.4636 246.535 84.1251 244.759 87.1753 241.947C93.9839 235.669 99.2857 228.294 102.732 219.674C108.641 204.896 111.609 189.468 112.67 173.639C113.564 160.32 110.82 147.768 104.692 135.924C101.908 130.543 99.1502 125.151 96.7872 119.56C92.016 108.272 90.6591 96.6783 93.2073 84.6425C94.7904 77.1678 96.5548 69.7263 97.4069 63.1616M3.98378 100.921C4.03266 101.29 4.05006 101.667 4.13538 102.028C5.58509 108.174 7.50781 114.18 9.51171 120.161C10.4528 122.969 11.2758 125.834 12.4509 128.544C14.2324 132.653 15.7893 136.837 17.2842 141.051C17.6963 142.213 18.0873 143.384 18.4879 144.55C17.7175 141.284 16.7176 138.093 15.4646 135.001C11.0571 124.125 7.28083 113.043 4.3487 101.677C4.27952 101.409 4.31473 101.065 3.961 100.938C4.08195 99.6995 3.54349 98.5944 3.28917 97.4318C3.32355 98.6359 3.52775 99.8052 3.98378 100.921M102.771 58.354C101.781 65.4352 99.4849 73.7987 97.5887 82.2422C95.0099 93.7239 95.975 104.804 100.498 115.64C102.822 121.209 105.607 126.546 108.36 131.902C111.874 138.736 114.507 145.871 115.848 153.458C116.907 159.45 117.211 165.483 116.797 171.548C116.022 182.871 114.054 193.994 111.044 204.93C109.133 211.877 106.816 218.697 103.259 224.994C98.8433 232.808 93.6472 240.053 86.4649 245.604C81.4667 249.466 75.6191 251.495 69.4905 252.755C61.7098 254.354 54.0636 253.591 46.5164 251.354C36.5793 248.408 26.8522 244.917 17.6926 240.001C12.6866 237.314 8.39378 233.796 5.10296 229.102C4.5152 228.263 3.6197 227.669 3.0655 226.743C1.07195 223.413 0.713252 219.839 1.30432 216.098C1.86142 212.568 2.94662 209.197 4.04509 205.794C6.82852 197.171 11.6693 189.45 14.6317 180.922C16.3241 176.049 17.8657 171.127 19.0727 166.111C20.5667 159.9 19.8423 153.778 18.1172 147.719C16.1671 140.87 13.4727 134.29 10.9767 127.634C6.93414 116.853 3.30367 105.93 1.4352 94.5195C-0.179352 84.662 -0.659825 74.7903 1.19373 64.8867C3.78414 51.0475 9.55603 38.6434 17.8616 27.3498C22.4385 21.1264 27.6359 15.5177 33.938 10.9967C41.3862 5.6535 49.5132 1.88427 58.6575 0.598999C61.1237 0.252312 63.5981 0.078762 66.1338 0.135093C68.6953 0.191425 71.2617 0.101543 73.8193 0.413437C78.7719 1.01693 83.411 2.47782 87.5178 5.40249C89.0557 6.49764 90.6898 7.54391 91.8972 8.96462C93.6302 11.0046 95.6096 12.8693 96.8253 15.3354C97.9246 17.5647 99.6046 19.4601 100.537 21.8049C103.263 28.6628 104.322 35.8015 104.243 43.137C104.193 47.7376 103.739 52.3058 102.771 58.354" fill="black"/>
</g>
</svg>
