<svg width="82" height="73" viewBox="0 0 82 73" fill="none" xmlns="http://www.w3.org/2000/svg">
<path fill-rule="evenodd" clip-rule="evenodd" d="M35.8985 46.5305C36.4635 46.5305 36.9601 46.6166 37.412 46.5119C38.2487 46.318 39.3745 44.6132 39.3103 43.7475C39.3008 43.6149 39.2573 43.4219 39.1658 43.3689C38.7462 43.1278 38.3034 42.9265 37.8693 42.7107C37.6117 43.1543 36.8139 42.6569 36.705 43.3917C36.6603 43.6945 35.9685 43.501 36.1529 44.0382C35.7059 44.8327 36.0332 45.6785 35.8985 46.5305M33.6904 43.0885C33.8263 42.8557 34.0027 42.6407 34.0868 42.3943C34.3917 41.5013 35.1832 41.1579 35.9433 40.9433C36.4714 40.7942 37.0334 40.6161 37.6407 40.6588C39.02 40.7561 39.9888 41.4035 40.6788 42.5728C41.0007 43.1179 41.303 43.6692 41.4389 44.283C41.5304 44.6985 41.6427 45.1798 41.5205 45.5588C41.0462 47.0304 40.2373 48.2656 38.7064 48.8504C38.2847 49.0111 37.8461 49.1292 37.4129 49.2597C37.3441 49.2808 37.2517 49.2887 37.1908 49.2588C36.0808 48.7195 35.008 48.1053 34.3635 47.0118C34.0868 46.5425 33.8304 45.9995 33.8984 45.4092C33.9804 44.6935 33.6747 43.9405 34.1021 43.2587C33.9742 43.2057 33.8458 43.1527 33.6904 43.0885" fill="black"/>
<path fill-rule="evenodd" clip-rule="evenodd" d="M0.685374 56.3504C0.326676 56.2688 0.117504 56.1184 0.24632 55.6943C0.301823 55.6686 0.399989 55.6425 0.476616 55.5866C1.2081 55.0581 2.10774 54.979 2.93117 54.7168C3.29029 54.6024 3.86023 54.7048 4.16094 54.935C5.09579 55.6516 6.13295 56.2737 6.57531 57.5035C6.94064 58.5187 6.79318 59.8218 6.14786 60.6523C5.77342 61.1344 5.24904 61.4372 4.86342 61.9272C4.23135 61.8249 3.56531 62.0817 2.93656 61.7014C2.64289 61.5237 1.36425 60.8478 1.11407 60.661C0.531291 60.2256 0.303894 59.5886 0.0860246 58.9429C0.0408767 58.8095 -0.0307801 58.6397 0.0143678 58.5295C0.30348 57.822 0.0976222 56.9721 0.685374 56.3504" fill="black"/>
<path fill-rule="evenodd" clip-rule="evenodd" d="M51.7098 33.0795C52.6074 33.9356 54.1068 34.4132 55.3394 34.3664C55.9301 34.3445 56.3762 34.1369 56.7676 33.7327C56.9942 33.4987 57.2265 33.2708 57.4622 33.0348C57.3284 32.8504 57.2083 32.7485 57.1706 32.6218C56.9958 32.0403 56.6777 31.6753 56.0204 31.6256C55.7222 31.6033 55.4397 31.4086 55.1419 31.3191C54.9472 31.2607 54.6047 31.1626 54.5566 31.2342C54.2845 31.6426 54.1366 31.0023 53.78 31.3129C53.5745 31.5059 53.2312 31.8286 52.8857 32.1529C52.6065 31.9334 52.3866 31.7603 52.1919 31.6074C51.4845 31.9607 51.8423 32.5576 51.7098 33.0795M58.7206 33.8176C58.9368 33.8926 59.0677 33.9381 59.2068 33.9862C59.0946 34.3399 58.9898 34.6713 58.8842 35.0043C58.7069 35.0246 58.5292 35.0457 58.2803 35.0743C58.3627 35.1849 58.4145 35.2553 58.4948 35.3634C58.1121 35.8343 57.6722 36.1959 56.9934 36.1661C56.8239 36.1587 56.6467 36.2266 56.4802 36.2813C56.0179 36.4333 55.5677 36.4652 55.1079 36.2581C54.9505 36.1872 54.6523 36.1069 54.6018 36.1719C54.1784 36.7191 53.8301 36.0153 53.4151 36.1102C53.2407 36.15 53.0754 35.6943 52.7026 35.6815C52.5034 35.6749 52.327 35.3812 52.1153 35.2619C51.8676 35.1223 51.7703 34.7495 51.4033 34.8034C51.231 34.2463 50.6739 33.9891 50.3943 33.5268C49.7718 32.4979 49.7709 31.0192 50.2829 30.0239C50.7356 29.1421 51.5893 28.884 52.3738 29.4772C52.754 29.765 53.0427 29.9941 53.476 29.6466C53.6251 29.8831 53.7638 29.7878 53.8723 29.6184C54.0451 29.3488 54.3081 29.333 54.5649 29.3865C55.4579 29.5741 56.3646 29.8272 57.0832 30.3656C57.7153 30.8395 58.168 31.5523 58.6999 32.1595C58.6568 32.6984 59.3415 33.2075 58.7206 33.8176" fill="black"/>
<path fill-rule="evenodd" clip-rule="evenodd" d="M66.9495 59.5179C67.2892 59.3406 67.6702 59.0474 68.2278 59.2744C68.1685 59.3547 68.1184 59.4239 68.0161 59.5643C68.236 59.6215 68.5935 59.6331 68.62 59.7333C68.8047 60.4263 69.5868 60.6226 69.8208 61.265C70.2159 62.3515 70.5626 63.4354 69.9823 64.5608C69.9177 64.6859 69.8518 64.7145 69.9442 64.8914C70.2006 65.3797 69.962 65.7309 69.5143 65.9844C69.2028 66.1605 69.3751 66.3361 69.5565 66.5121C69.1672 67.0121 68.7766 67.5137 68.3926 68.0066H67.1512C66.9218 67.7597 66.6397 67.4619 66.3634 67.1587C66.1145 66.8866 65.7889 66.7163 65.5644 66.3891C65.0558 65.6473 64.9593 64.8466 65.1295 64.0219C65.2625 63.3808 65.5773 62.7789 65.7351 62.1406C65.8382 61.7235 65.9401 61.3889 66.3564 61.1611C66.5237 61.0695 66.6389 60.7344 66.6339 60.5133C66.6269 60.1898 66.8522 60.0684 66.993 59.8634C67.0394 59.7967 66.9698 59.6509 66.9495 59.5179" fill="black"/>
<path fill-rule="evenodd" clip-rule="evenodd" d="M78.3926 24.0629C78.3396 24.0099 78.2625 23.9664 78.2372 23.9022C78.0525 23.4333 77.5571 23.5116 77.2125 23.3857C77.0282 23.3182 76.7022 23.6242 76.4458 23.7713C76.3315 23.8367 76.1037 24.2112 75.9517 24.4825C75.8341 24.6933 75.7052 25.0375 75.5466 25.0578C75.19 25.1046 75.2629 25.303 75.2301 25.5159C75.2082 25.6625 75.1104 25.7976 75.0541 25.9206C75.8452 26.725 76.5896 26.3878 77.4047 26.0092C78.294 25.5963 78.4489 24.9062 78.3926 24.0629M76.3075 28.0247C76.1368 28.2741 75.9865 28.4919 75.8316 28.7185C75.7301 28.6241 75.6402 28.4787 75.5739 28.4886C74.7691 28.6092 74.5032 27.835 73.9619 27.5256C73.9006 27.4908 73.8587 27.2705 73.896 27.2386C74.4589 26.7581 73.8587 26.4031 73.7842 25.9877C73.6947 26.0676 73.6156 26.1393 73.5356 26.2101C73.5087 26.1832 73.4582 26.1554 73.4594 26.1302C73.4855 25.6377 73.2175 25.1013 73.7129 24.6751C73.8256 24.5777 73.8045 24.3404 73.8877 24.1917C74.1019 23.8106 74.159 23.3074 74.5513 23.0684C74.9535 22.8224 74.7961 22.3216 75.197 22.0329C75.8775 21.5425 76.9412 21.294 77.7385 21.5918C78.8962 22.0246 79.6335 22.9056 80.0651 23.9709C80.4122 24.8283 80.5762 25.8 80.4151 26.7411C80.3207 27.2891 79.839 27.6656 79.4115 27.9949C79.2831 28.0935 78.9621 27.9419 78.6614 27.8938C78.6809 27.9717 78.6842 28.1403 78.7625 28.2608C78.8817 28.4456 78.9298 28.6187 78.6991 28.6928C78.4646 28.7686 78.3785 28.6063 78.393 28.3751C78.3955 28.3374 78.2899 28.2927 78.1726 28.2053C77.9958 28.3528 77.8048 28.5122 77.5749 28.704C77.5389 28.5793 77.5037 28.4571 77.437 28.226C77.14 28.5015 76.8729 28.7487 76.4814 29.1112C76.4073 28.6498 76.3601 28.3532 76.3075 28.0247" fill="black"/>
<path fill-rule="evenodd" clip-rule="evenodd" d="M19.4041 39.6761C19.591 39.8339 19.6738 39.9039 19.7753 39.9893C19.8465 39.8455 19.8999 39.5933 19.9948 39.5767C20.2359 39.5345 20.5581 39.5092 20.7358 39.6351C21.2689 40.0141 21.8293 40.4047 22.2249 40.9117C22.5993 41.3926 22.8482 42.006 23.0168 42.6C23.1141 42.9438 23.0591 43.3377 22.8582 43.7531C22.4456 44.6035 22.0323 45.3664 21.1715 45.8668C20.7909 46.088 20.363 46.0979 20.0027 46.3212C19.8602 46.4098 19.687 46.4483 19.521 46.5121C19.4592 46.4028 19.3797 46.2615 19.3002 46.1207C19.1726 46.3029 19.0869 46.2814 18.8918 46.1468C18.5414 45.9045 17.86 45.2848 17.5647 45.0434C16.6141 44.2671 17.1617 43.3016 17.2031 42.4165C17.213 42.1945 17.5676 41.9882 17.7772 41.7604C18.5538 42.1779 18.9552 42.8448 19.2269 43.5816C19.9886 43.4868 20.112 42.776 20.5304 42.38C20.6227 42.2926 20.5602 42.0408 20.5776 41.6809C20.2123 42.0458 19.9699 42.2881 19.7666 42.491C19.1937 42.4505 19.2629 41.76 18.7804 41.7181C18.7725 41.2708 18.6959 40.809 18.7828 40.3811C18.8325 40.138 19.1511 39.9499 19.4041 39.6761" fill="black"/>
<path fill-rule="evenodd" clip-rule="evenodd" d="M62.564 10.3125C62.8875 9.98905 63.1273 9.74923 63.4069 9.46964H64.8069C64.9527 8.8587 64.5012 9.10597 64.21 9.0252C64.2411 8.94651 64.2498 8.85248 64.3011 8.80816C64.6578 8.50165 64.1296 8.38236 64.1802 8.07089C64.4192 7.50302 65.0852 7.39947 65.5856 7.09006C65.7272 7.00225 66.0035 7.05071 66.1841 7.12195C67.1007 7.48396 67.4329 8.30657 67.802 9.1358C68.0397 9.66887 67.8185 10.2985 68.2344 10.7644C68.0695 11.3741 68.0057 12.0385 67.7117 12.5778C67.3998 13.1506 66.7325 13.4625 66.1054 13.5251C65.7579 13.5599 65.4547 13.9679 65.1134 13.7032C64.8238 13.4787 64.4163 13.605 64.1528 13.2501C63.9652 12.997 63.5485 12.98 63.4354 12.5376C63.3795 12.3193 62.9624 12.2846 62.774 11.9379C62.4699 11.3787 62.6953 10.8448 62.564 10.3125" fill="black"/>
<path fill-rule="evenodd" clip-rule="evenodd" d="M58.5943 45.6981C58.7347 46.2581 58.8581 46.729 58.9679 47.2028C58.9927 47.3093 59.0197 47.4783 58.9642 47.5301C58.4667 47.9907 58.929 48.3692 59.0499 48.776C59.9193 48.7901 59.8953 48.7354 60.3414 48.1004C60.872 47.3445 60.7808 46.5223 60.7659 45.6993C60.7634 45.5498 60.6205 45.3696 60.493 45.2619C60.2382 45.0465 59.8187 45.3791 59.5867 45.0204L59.3502 45.382C58.9111 45.0888 58.8001 45.5593 58.5943 45.6981M57.5617 46.4229C57.4262 46.1599 57.2825 45.8811 57.1653 45.6533C57.2929 44.9782 58.0612 45.165 58.3114 44.6406C58.5566 44.1257 59.3059 44.3453 59.7072 43.8259C59.5482 43.719 59.3941 43.6159 59.2371 43.5102C59.2595 43.4817 59.291 43.4017 59.3345 43.3938C60.0953 43.2551 60.6504 43.6618 61.1681 44.1241C61.5993 44.5085 61.8462 45.0341 62.1701 45.4992C62.3519 45.7606 62.035 46.0012 62.3101 46.1678C62.5561 46.3173 62.6319 46.5604 62.5859 46.8392C62.535 47.1453 62.8241 47.475 62.7723 47.634C62.6497 48.0085 62.6402 48.4003 62.5147 48.7636C62.2803 49.4416 61.9365 50.0592 61.405 50.5566C61.1002 50.842 60.6715 50.9381 60.1343 50.8441C58.8378 50.6175 58.8225 50.6312 58.2381 49.9888C57.78 49.4855 57.483 48.9106 57.36 48.2069C57.2895 47.8076 57.0526 47.4555 57.3339 47.0604C56.9569 46.6983 57.5269 46.707 57.5617 46.4229" fill="black"/>
<path fill-rule="evenodd" clip-rule="evenodd" d="M27.2756 15.7845C28.3036 16.3636 28.5406 16.8466 27.9756 17.7288C27.6844 18.184 28.0448 18.6968 27.6335 19.0704C27.5726 19.1255 27.7329 19.427 27.7937 19.6134C27.9623 20.1258 28.1288 20.1718 28.6864 20.0247C29.7508 19.7447 30.2549 18.9917 30.5113 17.9711C30.1145 17.8585 29.7152 17.7508 29.3193 17.6315C28.8359 17.4861 29.0115 16.9431 28.8135 16.6937C29.0413 16.4659 29.2915 16.2157 29.5421 15.9656C30.2305 15.5808 30.658 16.3329 31.2855 16.5032C31.7461 17.2467 32.3889 17.8916 32.3226 18.8877C32.2381 20.1453 31.6964 21.1936 30.3224 21.6969C29.1759 22.1177 28.2688 21.9412 27.2851 21.0669C26.6858 20.5342 26.197 19.9854 26.1759 19.0393C26.1469 17.7901 26.3859 16.6925 27.2756 15.7845" fill="black"/>
<path fill-rule="evenodd" clip-rule="evenodd" d="M25.6991 62.0909C24.7191 62.3788 24.1471 61.7181 23.4881 61.3242C22.8838 60.963 22.8051 60.2506 22.6262 59.6653C22.4613 59.1236 22.7944 58.5603 22.9907 58.0359C23.156 57.5943 23.4289 57.1922 23.6526 56.7755C23.5503 56.7382 23.4198 56.691 23.2624 56.6338C23.4289 56.459 23.5755 56.3045 23.7578 56.1123C23.5238 56.0701 23.3179 56.0328 22.9795 55.9715C23.1982 55.8087 23.3527 55.5983 23.4927 55.6078C23.8837 55.6343 24.2664 55.4989 24.6777 55.7234C25.7248 56.2946 26.26 57.251 26.646 58.2769C27.1874 59.7167 26.8978 61.0256 25.6991 62.0909" fill="black"/>
<path fill-rule="evenodd" clip-rule="evenodd" d="M38.2439 67.4501C38.1362 67.6663 38.0438 67.8514 37.9369 68.0664C38.68 68.8302 38.9869 69.751 38.8685 70.8171C38.8399 71.0698 38.8469 71.2881 38.6577 71.5246C38.299 71.9744 38.2501 72.6305 37.5538 72.8682C37.2523 72.9714 36.9234 73.0563 36.7204 72.9523C36.1555 72.662 35.506 72.4379 35.1556 71.8568C34.9804 71.5664 34.818 71.2657 34.7812 70.8838C34.659 69.6296 35.1684 68.5887 35.8063 67.5905C35.9496 67.366 36.1923 67.2036 36.4814 67.0727C36.8145 66.9224 37.0203 66.8002 37.3538 67.0491C37.5965 67.231 37.9167 67.3084 38.2439 67.4501" fill="black"/>
<path fill-rule="evenodd" clip-rule="evenodd" d="M78.9718 41.5728C78.5257 41.2294 78.2639 40.6098 77.5685 40.6355C77.3941 40.3335 77.1182 40.0485 77.0656 39.7267C76.9389 38.9468 77.1216 38.2505 77.9276 37.8686C78.0229 37.8234 78.0883 37.7145 78.1919 37.611C78.051 37.5633 77.9255 37.5207 77.9131 37.5165C78.1094 37.3202 78.3513 37.0783 78.5928 36.8368C78.5406 36.7751 78.4884 36.7138 78.4362 36.6521C78.5398 36.638 78.6479 36.5982 78.7456 36.6152C79.1992 36.6935 79.7215 36.3849 80.1063 36.848C80.6067 37.4498 80.9761 38.1051 81.1223 38.8971C81.3166 39.9483 80.3014 41.1105 79.5306 41.4854C79.3342 41.5807 79.0903 41.1955 78.9718 41.5728" fill="black"/>
<path fill-rule="evenodd" clip-rule="evenodd" d="M49.0308 55.3241C49.0308 55.6356 49.0113 55.7893 49.0341 55.9363C49.1517 56.7026 48.5122 56.9739 48.0674 57.3115C47.625 57.647 47.2021 57.1541 46.7883 57.0319C46.4018 56.918 46.0833 56.5469 45.7578 56.2631C45.2089 55.786 45.0035 54.6519 45.3514 53.9726C45.4305 53.8181 45.346 53.5551 45.713 53.5207C45.9321 53.5 46.1392 53.1508 46.3153 52.9218C46.7767 52.3241 47.181 52.2557 47.6751 52.7776C47.9978 53.1185 48.3718 53.3977 48.6021 53.855C48.8688 54.3843 49.1683 54.8652 49.0308 55.3241" fill="black"/>
<path fill-rule="evenodd" clip-rule="evenodd" d="M36.7214 29.6071C37.2097 30.1319 37.754 30.5854 38.0104 31.324C38.3281 32.2385 38.1549 32.7376 37.3771 33.2707C36.4907 33.8783 35.898 33.7731 35.1242 32.9841C35.019 32.8768 34.9122 32.7716 34.8272 32.6871C34.6988 32.2911 34.9929 31.8343 34.5717 31.5249C34.3377 30.4819 35.0426 29.6274 36.1552 29.6075C36.3428 29.6042 36.5304 29.6071 36.7214 29.6071" fill="black"/>
<path fill-rule="evenodd" clip-rule="evenodd" d="M47.2231 17.9961C47.4264 17.8374 47.5507 17.7405 47.675 17.6436C47.5296 17.5214 47.3842 17.3988 47.2421 17.2795C47.3001 17.2149 47.3701 17.1366 47.4683 17.0277C47.2123 16.9713 46.9845 16.9216 46.7107 16.862C47.0309 16.0025 47.8174 15.94 48.4338 15.6592C48.5543 15.6045 48.814 15.7631 48.9631 15.8816C49.5674 16.36 50.0077 16.9713 50.3138 17.6771C50.354 17.7703 50.4079 17.9389 50.3697 17.9716C49.8363 18.4268 50.5404 19.3079 49.8412 19.6127C49.7041 19.6724 49.3964 19.3207 49.0281 19.295C49.1777 19.4586 49.3264 19.6226 49.4966 19.8095C49.2224 19.9913 48.9635 20.1802 48.686 20.3363C48.6011 20.3848 48.4648 20.3529 48.3538 20.3405C48.2876 20.333 48.167 20.2829 48.1695 20.2667C48.261 19.6496 47.525 20.1081 47.443 19.703C47.4024 19.5025 47.2516 19.319 47.233 19.1202C47.1982 18.7491 47.2231 18.3726 47.2231 17.9961" fill="black"/>
<path fill-rule="evenodd" clip-rule="evenodd" d="M48.8267 1.44565V0.948608H49.8332C50.3435 1.71488 51.0418 2.44098 50.7949 3.59535C50.6334 3.60571 50.4309 3.61813 50.1471 3.63595V2.70399C49.9661 2.73837 49.827 2.72346 49.776 2.78352C49.6907 2.88334 49.682 3.04488 49.6058 3.15589C49.4649 3.3605 49.3879 3.31453 49.199 3.01092C49.0715 2.80547 48.8963 2.62902 48.7202 2.41281C48.9518 2.30595 49.105 2.23553 49.2686 2.16015C48.7931 1.92529 48.8014 1.93358 49.1932 1.52642C49.2612 1.456 49.2226 1.28328 49.2409 1.06334C49.0727 1.21908 48.994 1.29115 48.8267 1.44565" fill="black"/>
</svg>
