<svg width="91" height="67" viewBox="0 0 91 67" fill="none" xmlns="http://www.w3.org/2000/svg">
<path fill-rule="evenodd" clip-rule="evenodd" d="M16.943 56.549C16.3114 57.0477 15.758 57.5995 15.2837 58.2717C14.942 58.7572 14.4603 59.1747 13.9107 59.5238C13.3072 59.9066 12.8536 60.5308 12.2282 60.9309C11.8417 61.1777 11.5758 61.7796 10.9756 61.3132C10.7064 61.4656 10.4372 61.618 10.0988 61.8098C9.89042 61.5563 9.68581 61.3128 9.48947 61.0638C9.44764 61.0108 9.41657 60.8791 9.40829 60.8816C8.73066 61.0742 8.35663 60.2677 7.68397 60.3742C7.31823 60.4322 6.7603 60.0312 6.80089 59.7301C6.88291 59.1217 6.47657 58.8595 6.13113 58.5024C5.99734 57.7448 6.2003 57.0448 6.54243 56.3511C6.88001 55.666 7.09829 54.9183 7.46527 54.2515C8.20959 52.8979 9.01314 51.5774 9.80261 50.249C10.6173 48.878 11.488 47.5464 12.4121 46.2441C13.2554 45.055 14.0685 43.8434 14.9101 42.6518C15.4229 41.9257 15.9237 41.1905 16.424 40.4553C16.4456 40.4238 16.4058 40.3517 16.3694 40.1811C16.113 40.3882 15.9162 40.6694 15.6801 40.7071C15.3699 40.7572 15.1131 40.7435 15.0775 41.1308C14.5465 40.954 14.4678 41.7811 13.9517 41.6378C13.8063 41.9625 13.4878 42.1812 13.2189 42.2678C12.9033 42.3701 12.6295 42.3685 12.5189 42.7611C12.4879 42.8721 12.1872 43.0183 12.0741 42.9761C11.5795 42.7909 11.5895 43.4313 11.2577 43.4383C10.8563 43.4466 10.6426 43.6181 10.6107 44.0166C10.0963 44.1168 9.80302 44.5633 9.37971 44.8114C9.0148 45.0247 8.59521 45.265 8.40095 45.6075C8.27669 45.8275 8.1777 45.9066 7.97847 45.9737C7.32859 46.1936 6.89989 46.7478 6.31421 47.0812C5.72356 47.4172 5.23231 47.9262 4.69137 48.3524C4.01166 48.8884 3.32865 49.4206 2.64273 49.9492C2.23101 50.2664 1.77829 50.1095 1.41959 49.9135C1.14746 49.7648 0.983853 49.5101 0.633025 49.752C0.58622 49.7839 0.357995 49.554 0.141782 49.3904C0.344741 49.2492 0.521605 49.1266 0.699297 49.0035C0.669889 48.9538 0.640894 48.9037 0.611072 48.854C0.436693 48.9182 0.262729 48.9824 0.0630838 49.0557C0.0473441 48.9903 -0.0222417 48.8731 0.00716663 48.7915C0.077995 48.5964 0.159178 48.3835 0.299593 48.2389C1.08616 47.4283 1.85409 46.5945 2.69782 45.8469C4.1177 44.5886 5.56533 43.3576 7.049 42.175C8.06379 41.3657 9.10013 40.5787 10.134 39.795C11.0643 39.0896 12.036 38.4153 12.9849 37.7331C14.2018 36.8583 15.4432 36.0295 16.7007 35.221C17.5001 34.707 18.3198 34.2253 19.1317 33.7307C19.6689 33.4039 20.2662 33.5248 20.8444 33.5012C21.247 33.7195 21.4632 34.1304 22.0211 34.2364C22.6565 34.3578 23.8349 36.0759 23.9273 36.783C23.9956 37.3065 23.7102 37.8064 23.5504 38.3101C23.2708 39.1924 22.8781 40.01 22.273 40.7187C22.2079 40.7953 22.1234 40.927 22.1483 40.9974C22.3562 41.5815 21.662 41.7832 21.6314 42.2587C21.0345 42.6062 20.7603 43.2275 20.366 43.7473C20.2985 43.8364 20.1382 43.9085 20.1386 43.988C20.1469 45.0293 19.3147 45.6133 18.8484 46.3937C18.703 46.6372 18.5004 46.8505 18.3824 47.1048C18.3008 47.2796 18.3198 47.5004 18.2941 47.7005C18.4565 47.7203 18.5588 47.7647 18.5953 47.7328C19.3723 47.0564 20.1059 46.3237 20.9218 45.6999C21.9847 44.888 22.9096 43.9122 24.0549 43.1944C24.602 42.851 25.0121 42.3088 25.5551 41.9145C26.5562 41.188 27.4103 40.2531 28.4301 39.5585C30.1826 38.3656 31.6484 36.7958 33.516 35.7636C34.0019 34.9907 34.9111 34.7074 35.5021 34.0505C35.6612 33.8732 35.9168 33.785 36.1185 33.6429C36.4117 33.4366 36.7008 33.2245 36.9837 33.0046C38.1236 32.119 39.2577 31.226 40.3992 30.343C40.8814 29.9706 41.3896 29.6309 41.8647 29.2499C43.2063 28.1742 44.6262 27.207 46.0154 26.1972C46.7382 25.672 47.3715 25.0288 48.2227 24.6932C48.8175 23.8247 49.7884 23.4217 50.5844 22.8041C51.547 22.0577 52.5378 21.3473 53.5211 20.6274C54.7911 19.6976 56.0635 18.7714 57.3388 17.849C58.1486 17.2637 58.9629 16.6843 59.7801 16.1089C60.7709 15.4114 61.7849 14.7487 62.7632 14.0305C64.2506 12.939 65.8076 11.9421 67.3401 10.9128C69.2533 9.62751 71.1653 8.34017 73.0905 7.07272C74.1512 6.37437 75.2327 5.70668 76.3134 5.0394C77.6007 4.24455 78.8831 3.43893 80.1953 2.68591C81.1413 2.14331 82.1163 1.65704 83.0131 1.02372C83.2322 0.869225 83.653 1.00094 84.112 1.00094C83.991 1.18899 83.9376 1.33064 83.8369 1.41804C83.5341 1.68147 83.2123 1.9242 82.8408 2.22076C83.646 2.59562 84.1699 1.50171 84.8385 1.90473C84.6301 2.11307 84.4052 2.33757 84.1803 2.56207C84.2226 2.62875 84.2644 2.69544 84.3066 2.76212C84.5456 2.69295 84.7842 2.62378 85.1015 2.53183C85.1553 2.94769 85.2079 3.35402 85.2796 3.91278C84.9975 4.13727 84.631 4.63017 84.1708 4.74366C83.6124 4.88118 83.4381 5.56999 82.7969 5.51283C82.6299 5.49792 82.7422 6.07863 82.328 5.93822C81.884 5.78704 82.1408 6.50609 81.7431 6.39301C81.372 6.28739 81.3488 6.7807 81.2573 6.77739C80.6791 6.75834 80.5212 7.32704 80.1058 7.52502C79.663 7.73627 79.2422 8.01461 78.857 8.32029C78.5132 8.59283 78.1785 8.8223 77.7316 8.89106C77.5738 8.91508 77.324 9.07621 77.3145 9.19094C77.283 9.57449 77.0457 9.5165 76.7922 9.57698C76.6099 9.62047 76.496 9.93112 76.3105 9.98869C76.0943 10.0554 75.8478 9.99491 75.91 10.3457C75.1387 10.3888 74.9482 11.4628 74.0924 11.3721C74.0092 11.3634 73.8758 11.4529 73.8294 11.5332C73.2868 12.4731 72.2778 12.828 71.4689 13.4319C70.2901 14.3117 69.1133 15.1944 67.9291 16.0659C66.9789 16.765 66.0325 17.4704 65.0566 18.1331C64.5381 18.4852 64.162 19.1164 63.4036 19.0514C63.3514 19.0469 63.2598 19.1247 63.2391 19.1831C62.8245 20.3528 61.4771 20.2998 60.7614 21.0752C60.6417 21.2053 60.4366 21.267 60.3414 21.4078C59.4935 22.6637 58.0765 23.2411 56.9988 24.2264C56.2076 24.9496 55.2827 25.5258 54.4299 26.1831C53.3712 26.9987 52.3278 27.8337 51.272 28.6522C51.1656 28.7346 51.0198 28.7686 50.8889 28.815C49.8182 29.1935 49.0693 30.0497 48.1547 30.6615C47.9534 30.7965 47.7633 31.0235 47.6826 31.2488C47.4986 31.7624 47.0215 32.0201 46.633 32.1021C46.2188 32.1886 45.9872 32.397 45.713 32.6327C45.1733 33.0966 44.5321 33.4573 44.2111 34.1383C43.2324 34.7496 42.3762 35.5337 41.4894 36.2544C40.7592 36.8484 39.8952 37.3082 39.3153 38.1076C38.9342 38.6319 38.3059 38.9049 37.714 39.124C37.4671 39.2156 37.231 39.2686 37.0707 39.4769C36.8976 39.7014 36.7961 40.0195 36.5753 40.1595C36.333 40.3128 36.2001 40.5046 36.0257 40.71C35.5357 41.2874 34.9943 41.8457 34.1436 41.866C34.0756 41.8677 33.9957 41.8855 33.9439 41.9253C33.5715 42.2127 33.1723 42.4749 32.8467 42.8096C32.4677 43.1981 31.9549 43.4851 31.7946 44.0634C31.7772 44.1263 31.6965 44.1752 31.6393 44.2237C31.1659 44.6242 30.697 45.0309 30.2144 45.4199C29.7311 45.8092 29.3666 46.3079 28.8157 46.6567C28.3116 46.9752 27.8394 47.3886 27.3357 47.7382C27.0379 47.9225 26.5848 48.0405 26.4721 48.304C26.1312 49.1013 25.092 49.1241 24.805 49.9293C24.0271 50.1273 23.6825 50.906 23.0218 51.2626C22.8375 51.362 22.5786 51.4279 22.4921 51.5853C22.0261 52.4352 20.9964 52.7019 20.5242 53.5328C19.8549 53.6836 19.5252 54.2217 19.1039 54.6901C18.7875 55.0422 18.2946 55.2352 17.8804 55.4986C17.8592 56.1092 17.2094 56.158 16.943 56.549" fill="black"/>
<path fill-rule="evenodd" clip-rule="evenodd" d="M89.4659 14.0746C89.8279 13.9947 90.1899 13.9147 90.7192 13.7975C90.5163 14.0282 90.4479 14.1065 90.3572 14.2096C90.4931 14.2552 90.6211 14.2983 90.754 14.3426C90.8464 14.7009 90.9756 15.1221 90.5627 15.3127C90.3514 15.41 90.0176 15.2423 89.7078 15.3181C89.8474 15.386 89.9874 15.4539 90.1439 15.5297C89.6788 16.0918 89.0571 16.1837 88.3761 16.0843C88.3504 16.3386 88.3322 16.5168 88.3065 16.7678C87.8174 16.3486 87.4433 16.8672 86.8987 16.827C87.0184 17.0614 87.095 17.2122 87.172 17.363C86.9956 17.4781 86.8046 17.6479 86.5814 17.7378C86.2624 17.8662 86.0338 18.4287 85.5703 17.9818C85.5484 17.9611 85.4552 17.9855 85.4171 18.0162C85.3292 18.0862 85.2688 18.2059 85.1727 18.2465C84.8198 18.3947 84.3956 18.444 84.1165 18.6739C83.8692 18.8777 83.8075 19.2919 83.6082 19.5748C83.4927 19.7388 83.2814 19.8552 83.0897 19.941C82.8859 20.0325 82.132 20.4069 82.0297 20.653C81.9179 20.9205 81.7431 20.8091 81.5878 20.8563C81.389 20.9168 81.1715 20.9682 81.0116 21.0899C80.8903 21.1823 80.8468 21.3778 80.7743 21.517C80.5825 21.3476 80.3957 21.1819 80.0689 20.8928C80.1161 21.3364 79.6957 21.4023 79.8883 21.8339C80.0026 22.0902 79.2964 22.48 78.8677 22.3085C78.5745 22.1909 78.5972 22.446 78.4593 22.4833C78.6908 23.1663 78.0807 23.2119 77.7237 23.4368C77.5472 23.5482 77.003 23.9169 76.9263 24.0121C76.8588 24.0946 76.7723 24.1612 76.701 24.2283C76.6091 24.1538 76.5316 24.0681 76.4359 24.0217C76.3808 23.9952 76.2951 24.0324 76.1771 24.0465C76.2466 24.196 76.31 24.3331 76.3692 24.4607C76.3336 24.5394 76.3229 24.6301 76.2732 24.662C75.8884 24.9093 75.4696 25.1114 75.1113 25.3914C74.2523 26.0624 73.423 26.7711 72.5777 27.4599C71.5281 28.3144 70.4553 29.1379 69.4827 30.0864C69.0279 30.5304 68.7471 30.8514 68.6071 31.505C68.1722 31.2793 67.6789 31.2896 67.3016 30.9007C66.9685 30.5573 66.6459 30.9653 66.2714 31.1074C66.0875 30.2976 66.7772 30.1523 67.0969 29.7745C66.9901 29.6681 66.8836 29.5616 66.7859 29.4634C66.5626 29.6246 66.3406 29.784 66.0652 29.9824C66.0179 29.7857 65.9413 29.6585 65.9774 29.5877C66.3849 28.7846 67.0543 28.2076 67.7207 27.6327C67.9096 27.4703 68.142 27.3572 68.325 27.1895C69.7909 25.845 71.4133 24.7092 73.0184 23.5404C74.5169 22.4494 76.0992 21.4884 77.5928 20.397C78.0252 20.0814 78.6155 20.0163 78.9294 19.528C80.3812 19.0363 81.3612 17.7324 82.8594 17.3133C83.0636 17.6256 82.8167 17.6587 82.5404 17.7411C82.376 17.7904 82.4385 18.0389 82.1805 18.1752C81.0924 18.751 80.0701 19.4518 79.0276 20.1128C78.9584 20.1568 78.9187 20.2475 78.7302 20.4902C79.0533 20.3771 79.1709 20.3133 79.2943 20.2963C79.7379 20.2375 79.9272 19.7662 80.4073 19.6879C80.7896 19.6253 81.1533 19.2873 81.4685 19.0078C82.142 18.4105 82.989 18.1222 83.742 17.6682C84.2507 17.3617 84.6831 16.9363 85.2841 16.7549C85.5173 16.6845 85.6643 16.332 85.8507 16.1079C86.2376 15.8822 86.6332 15.6697 87.0084 15.4262C87.353 15.2033 87.766 15.1714 88.0733 14.7792C88.3749 14.394 89.0492 14.425 89.4659 14.0746" fill="black"/>
<path fill-rule="evenodd" clip-rule="evenodd" d="M42.4726 44.5749C42.8255 44.3355 43.3461 44.1689 43.4898 43.8384C43.692 43.3737 44.0722 43.2395 44.3994 42.9972C44.7391 42.7457 45.1193 42.5507 45.4689 42.3129C45.8243 42.0714 46.202 41.8453 46.5027 41.5458C47.1505 40.9013 47.8841 40.3765 48.6425 39.8799C48.8152 39.766 49.0252 39.7092 49.2029 39.6007C49.3798 39.4922 49.6146 39.3866 49.6892 39.2197C50.0595 38.3913 50.8535 38.0818 51.5473 37.6647C51.947 37.4245 52.2125 37.5479 52.6424 37.9949C52.4925 38.5458 51.802 38.6978 51.6774 39.293C51.6579 39.3849 51.2955 39.406 51.0913 39.4578C50.7794 39.5378 50.9939 40.1135 50.5694 40.0468C50.1953 39.988 50.2045 40.2738 50.0624 40.4552C50.0185 40.5115 49.7617 40.4022 49.5579 40.3595C49.4402 40.5936 49.2895 40.8918 49.1408 41.1871H48.7639C48.5025 41.5023 48.3041 41.965 48.0378 42.0089C47.6372 42.0747 47.7366 42.7267 47.2466 42.5511C47.1858 42.5295 47.0528 42.6198 46.9969 42.6919C46.8904 42.8298 46.8424 43.0949 46.7235 43.1252C46.2592 43.244 46.0881 43.7639 45.6805 43.8823C44.9035 44.1081 44.3858 44.7335 43.6874 45.0719C43.5474 45.1394 43.3975 45.3494 43.3917 45.4994C43.3722 45.967 43.127 46.0623 42.7178 46.1936C42.4067 46.2934 42.1089 46.6918 41.9751 47.0257C41.7958 47.471 41.2254 47.0472 41.104 47.5323C41.0436 47.775 40.9081 48.1482 40.5416 47.7489C40.4351 47.8553 40.2338 47.9659 40.2375 48.0678C40.2603 48.6096 39.8138 48.3246 39.6026 48.4584C39.4394 48.6046 39.9588 48.7169 39.5955 48.9517C39.0471 49.3059 38.6147 49.8402 38.0613 50.1819C37.8596 50.3066 37.756 50.3824 37.6819 50.5924C37.6376 50.7171 37.4495 50.9043 37.3721 50.8844C36.721 50.7175 36.4269 51.2008 36.0487 51.5459C36.0346 51.5587 35.8934 51.4324 35.7836 51.35C35.6101 51.5943 35.8366 52.1315 35.2721 52.1253C35.1934 52.1245 35.0865 52.2604 35.0368 52.356C34.5617 53.2644 34.5696 53.2723 33.766 53.841C33.6211 53.9437 33.6969 54.5637 33.264 54.0742C33.2587 54.0679 33.0118 54.2017 32.9944 54.2924C32.8465 55.0624 32.156 55.3723 31.6909 55.8714C31.0829 55.7819 30.9139 56.3647 30.5336 56.624C30.2839 56.7942 30.0043 56.8539 30.0088 57.3082C30.0121 57.6268 29.5917 57.773 29.1767 57.6263C29.3312 57.3815 29.4828 57.1413 29.6775 56.8327C29.5085 56.8456 29.4339 56.829 29.4066 56.8576C29.2604 57.0096 29.0901 57.102 28.951 56.899C28.9037 56.8298 28.9783 56.5805 29.0628 56.5341C29.6153 56.2321 29.8605 55.6929 30.1613 55.1937C30.6102 55.2281 30.6102 55.2281 30.7726 55.5806C30.7991 55.5972 30.8488 55.6291 30.8492 55.6282C31.0576 55.3201 31.6926 55.4286 31.6085 54.7331C31.3616 54.845 31.2307 55.0504 30.9317 55.2948C31.0037 55.0189 31.0042 54.8421 31.0895 54.7315C31.2216 54.5604 31.4022 54.4208 31.5803 54.2929C31.9241 54.0456 32.1863 53.7105 32.2853 53.3257C32.3677 53.0068 32.446 52.8067 32.7798 52.6924C32.9526 52.6331 33.0681 52.407 33.2098 52.2562C33.7296 52.3697 33.8634 51.7029 34.3277 51.7033C34.302 51.1056 34.8902 51.0459 35.2058 50.8827C35.6366 50.6599 35.712 50.1794 36.1502 49.9719C36.6563 49.7329 37.0913 49.3253 37.5229 48.9513C38.3264 48.2538 39.103 47.5256 39.8975 46.8173C39.9989 46.7266 40.1514 46.6939 40.2553 46.6049C40.5349 46.3663 40.7892 46.0966 41.0759 45.8672C41.3062 45.6824 41.5224 45.4178 41.7233 45.2964C42.0501 45.0988 42.2969 44.8959 42.4726 44.5749" fill="black"/>
<path fill-rule="evenodd" clip-rule="evenodd" d="M26.884 58.3565C27.3073 58.4584 27.4427 58.0691 27.7012 57.8848C27.917 57.7307 28.0015 57.3227 28.4944 57.5335C28.2811 57.6507 28.1021 57.7493 27.7732 57.9307C28.163 58.159 28.3465 58.2671 28.5097 58.3627C28.187 58.8639 27.5405 59.0387 27.8967 59.9019C27.6034 59.6331 27.5251 59.5606 27.4029 59.4488C27.3752 60.2403 26.9614 60.6549 26.1599 60.6827C26.2602 60.7825 26.3132 60.8355 26.4321 60.9548C25.8729 61.514 25.2893 62.0558 24.7554 62.6431C24.2401 63.2093 23.5534 63.6202 23.2187 64.3629C23.1661 64.4805 22.8327 64.4718 22.5916 64.5302C22.6657 64.6234 22.725 64.6984 22.7867 64.7758C22.638 65.1296 22.2416 65.2749 22.0974 65.6978C21.933 66.1804 21.6737 66.1199 21.1903 65.6813C21.0976 65.5968 20.8362 65.6983 20.5811 65.7202C20.608 65.6291 20.6113 65.4497 20.7012 65.3454C20.8718 65.1474 21.0893 64.9904 21.0098 64.6822C21.2898 64.3712 21.8725 64.2647 21.7069 63.6492C21.7019 63.6314 21.7528 63.5784 21.7827 63.5742C22.4909 63.4732 22.6463 62.733 23.1528 62.3714C23.7253 61.9626 24.1076 61.2932 24.5984 60.7614C25.3485 59.9487 26.121 59.1572 26.884 58.3565" fill="black"/>
<path fill-rule="evenodd" clip-rule="evenodd" d="M42.4725 44.5749C42.2969 44.8959 42.05 45.0988 41.7232 45.2964C41.5223 45.4178 41.3061 45.6824 41.0758 45.8672C40.7892 46.0966 40.5349 46.3663 40.2553 46.6049C40.1513 46.6939 39.9989 46.7266 39.8974 46.8173C39.103 47.5256 38.3263 48.2538 37.5228 48.9513C37.0912 49.3253 36.6563 49.7329 36.1501 49.9719C35.7119 50.1794 35.6365 50.6599 35.2058 50.8827C34.8901 51.0459 34.302 51.1056 34.3276 51.7033C33.8633 51.7029 33.7295 52.3697 33.2097 52.2562C33.2093 51.5881 33.7693 51.2365 34.1889 50.9975C34.9001 50.592 35.3482 49.921 36.0358 49.491C36.836 48.9907 37.4669 48.2265 38.2008 47.6122C39.3975 46.6111 40.6111 45.6298 41.8379 44.6664C41.9833 44.5521 42.2575 44.6014 42.4725 44.5749" fill="black"/>
<path fill-rule="evenodd" clip-rule="evenodd" d="M26.8838 58.3565C26.1208 59.1572 25.3483 59.9487 24.5982 60.7614C24.1074 61.2932 23.7251 61.9626 23.1527 62.3714C22.6461 62.733 22.4908 63.4732 21.7825 63.5742C21.7527 63.5784 21.7017 63.6314 21.7067 63.6492C21.8724 64.2647 21.2896 64.3712 21.0096 64.6822C20.7341 64.8972 20.4591 65.1122 20.1493 65.3541C20.1348 65.2215 20.0731 65.0707 20.119 65.0223C21.4089 63.6591 22.3942 62.0172 23.8779 60.8426C24.1409 60.6346 23.9777 60.1861 24.4648 60.126C24.6827 60.0991 24.826 59.6385 25.046 59.4165C25.2721 59.1874 25.5637 59.0242 25.8006 58.8039C26.0206 58.5988 26.1983 58.3487 26.4087 58.1325C26.6373 57.8976 26.8751 57.6702 27.1228 57.4552C27.3845 57.2278 27.6629 57.0195 28.0518 56.7084C27.9015 57.5476 27.1149 57.7597 26.8838 58.3565" fill="black"/>
<path fill-rule="evenodd" clip-rule="evenodd" d="M16.9431 56.549C17.2094 56.158 17.8593 56.1092 17.8805 55.4986C18.2947 55.2352 18.7876 55.0422 19.104 54.6901C19.5252 54.2217 19.8549 53.6836 20.5243 53.5328C20.9965 52.7019 22.0262 52.4352 22.4922 51.5853C22.5787 51.4279 22.8376 51.362 23.0219 51.2626C23.6826 50.906 24.0272 50.1273 24.8051 49.9293C25.0921 49.1241 26.1313 49.1013 26.4722 48.304C26.5849 48.0405 27.038 47.9225 27.3358 47.7382C27.2836 47.903 27.2816 48.1259 27.1697 48.2236C26.7357 48.6043 26.4267 49.1054 25.8538 49.3639C25.3348 49.5979 25.0681 50.1753 24.5296 50.4864C23.8172 50.8981 23.2481 51.5592 22.6197 52.1154C21.9355 52.7214 21.2852 53.3713 20.5636 53.928C19.4975 54.751 18.4674 55.6092 17.4853 56.549H16.9431Z" fill="black"/>
<path fill-rule="evenodd" clip-rule="evenodd" d="M89.4659 14.0746C89.0492 14.425 88.3749 14.394 88.0733 14.7792C87.766 15.1714 87.353 15.2033 87.0084 15.4262C86.6332 15.6697 86.2376 15.8822 85.8507 16.1079C85.2 16.2094 84.7688 16.7284 84.196 16.9827C83.882 17.1223 83.6016 17.3377 83.1555 17.6111C83.2032 17.3054 83.1737 17.1008 83.2582 17.027C83.5503 16.7715 83.8642 16.5296 84.2022 16.3395C85.5637 15.5732 86.9384 14.8293 88.3061 14.0734C88.6114 13.9048 88.8968 13.6969 89.2111 13.5502C89.417 13.4541 89.6589 13.4355 89.984 13.3585C89.7504 13.6815 89.6084 13.8783 89.4659 14.0746" fill="black"/>
</svg>
