<svg width="81" height="59" viewBox="0 0 81 59" fill="none" xmlns="http://www.w3.org/2000/svg">
<path fill-rule="evenodd" clip-rule="evenodd" d="M3.27069 52.6774C3.49892 52.6774 3.70519 52.7283 3.7433 52.6699C4.39732 51.6663 5.01365 50.6387 5.67265 49.6384C6.25253 48.7574 6.71643 47.8113 7.26566 46.9142C7.56099 46.4308 7.90768 45.9785 8.21501 45.5013C8.442 45.148 8.56294 44.6684 8.87442 44.4401C9.31472 44.1171 9.22111 43.596 9.5446 43.2212C10.0657 42.6185 10.4008 41.8568 10.8286 41.1717C11.5195 40.0654 12.2286 38.9706 12.917 37.863C13.3167 37.2206 13.8022 36.6196 13.9326 35.8206C13.6874 36.0037 13.4733 36.217 13.3171 36.4664C12.8512 37.2103 12.415 37.9728 11.9536 38.7196C11.7299 39.0816 11.4673 39.4192 11.2362 39.7771C10.9885 40.161 10.7561 40.5549 10.5171 40.9447C10.2781 41.3345 10.0524 41.7333 9.79726 42.1119C9.26667 42.8997 8.72986 43.6826 8.33927 44.5541C8.28253 44.6812 8.19844 44.7964 8.12637 44.9169C7.74821 45.5498 7.16336 46.0584 6.98318 46.8123C6.95915 46.9117 6.92188 47.0388 6.84773 47.0898C6.18708 47.5409 5.87809 48.2769 5.53347 48.9226C5.17685 49.5916 4.52282 50.1329 4.50087 50.9717C4.0904 51.1051 4.14383 51.622 3.89034 51.791C3.55939 52.0122 3.48856 52.3025 3.27069 52.6774M11.8575 45.7258C12.345 45.1559 12.7936 44.5462 13.3271 44.023C15.3285 42.0618 17.3502 40.1204 19.3806 38.189C20.3196 37.2952 21.1244 36.2588 22.2312 35.5381C22.5712 35.317 22.8359 34.9744 23.1138 34.6679C23.3884 34.3643 23.8677 34.3432 24.023 33.818C24.1133 33.5119 24.624 33.3404 24.9239 33.0836C25.4238 32.6561 25.9362 32.2237 26.4018 31.7784C27.5756 30.6564 28.9901 29.7944 29.985 28.4826C30.0297 28.423 30.084 28.3385 30.1449 28.3277C30.6792 28.2362 30.8735 27.728 31.2471 27.4417C31.6203 27.1559 31.9964 26.871 32.3505 26.562C33.0725 25.9324 33.7385 25.2278 34.511 24.6687C35.0225 24.298 35.4363 23.8349 35.9267 23.4588C37.1068 22.5533 38.2856 21.652 39.411 20.6749C39.8488 20.2951 40.2584 19.8366 40.7501 19.5595C41.6709 19.0409 42.3945 18.2867 43.2407 17.6832C44.4179 16.8436 45.4803 15.8429 46.6599 15.0074C47.7712 14.2204 48.8473 13.3896 49.9466 12.5889C50.9287 11.8748 51.9228 11.1781 52.9119 10.4736C53.7548 9.8734 54.6002 9.27571 55.4389 8.66973C55.5702 8.57488 55.6725 8.44109 55.7972 8.31642C55.7028 8.25387 55.6584 8.21038 55.6456 8.21784C55.1655 8.51524 54.6432 8.76541 54.2237 9.13281C53.8161 9.48902 53.1235 9.43145 52.9251 10.059C51.9961 10.7246 51.0637 11.3861 50.138 12.0562C49.1522 12.7707 48.1618 13.479 47.1938 14.2171C46.387 14.8318 45.6538 15.5546 44.8076 16.1055C43.599 16.892 42.5092 17.8252 41.3685 18.6942C40.4125 19.4224 39.5468 20.2703 38.5859 20.991C37.4249 21.862 36.2776 22.7443 35.1981 23.7152C34.6816 24.1799 34.1858 24.6869 33.6064 25.0597C32.8049 25.5749 32.1687 26.2762 31.4136 26.8407C30.8279 27.2785 30.3106 27.8071 29.7319 28.2548C29.6313 28.3331 29.3753 28.2122 29.1073 28.1695C29.2461 28.5062 29.1081 28.9039 28.7942 28.9623C28.1526 29.0816 27.89 29.6486 27.4116 29.9485C27.2223 30.067 27.1825 30.4186 26.9949 30.547C26.1831 31.1029 25.3969 31.6865 24.7193 32.401C24.5002 32.6317 24.385 32.9722 24.1452 33.1693C23.7372 33.5048 23.1089 33.6726 22.8657 34.0839C22.5729 34.5801 22.0087 34.7768 21.7847 35.3037C21.7321 35.4275 21.4699 35.4474 21.3406 35.558C21.1973 35.681 21.0884 35.9867 20.9782 35.9801C20.5545 35.954 20.3167 36.2464 20.1875 36.5061C20.0168 36.8491 19.8164 37.2393 19.5152 37.3271C19.0431 37.4646 19.1131 37.9712 18.7457 38.1567C18.2987 38.382 17.9674 38.7867 17.5838 39.1069C17.1725 39.4499 16.9033 39.9581 16.5255 40.3483C15.5828 41.3225 14.6136 42.2706 13.6551 43.229C13.2558 43.6283 12.8474 44.0193 12.4602 44.4298C12.128 44.7814 11.8662 45.1799 11.8575 45.7258M12.2961 36.7749C11.6554 36.5695 11.2768 36.8209 10.9885 37.1129C10.7284 37.3768 10.6696 37.8407 10.1895 37.8838C10.2243 38.397 9.61336 38.353 9.47833 38.6985C9.31182 39.1255 8.80608 38.9872 8.58117 39.2933C8.72448 39.5824 8.72448 39.5824 8.04726 40.2513C7.60821 40.6858 7.60821 40.6858 7.03123 40.8113C6.99436 41.0159 6.95708 41.2226 6.91525 41.4554C6.79803 41.3506 6.71809 41.2794 6.49939 41.0839C6.593 41.414 6.64395 41.5921 6.70939 41.8236C6.38839 41.834 6.06572 42.1591 5.6391 41.9019C5.5985 41.8779 5.35413 42.1931 5.16028 42.3965C4.93454 41.9752 4.72785 41.5913 4.49714 41.1622C4.84797 40.499 5.27833 39.8512 5.84164 39.2796C6.40744 38.7051 6.88584 38.0436 7.45454 37.4725C7.96939 36.9543 8.5472 36.4974 9.11134 36.0294C9.64815 35.5833 9.99111 34.9164 10.6832 34.648C11.2565 33.475 12.6424 33.2194 13.4029 32.2262C13.7997 31.708 14.4579 31.3986 15.099 31.1807C15.3658 31.0896 15.6715 31.112 15.9597 31.083L17.1531 31.8116C17.2081 31.8534 17.2645 31.894 17.3192 31.9371C18.1215 32.5696 18.1476 32.5791 17.8212 33.4659C17.6174 34.0193 17.3208 34.5383 17.0607 35.0833C16.8142 35.0962 16.5612 35.109 16.2224 35.1268C16.3209 35.2536 16.4067 35.3161 16.4228 35.3932C16.5322 35.9151 16.579 36.4274 16.043 36.7745C16.1221 37.4236 15.4905 37.7371 15.3297 38.2876C15.1752 38.8174 14.8944 39.3103 14.6666 39.8181C14.609 39.9461 14.5411 40.0695 14.4719 40.2058C14.7946 40.4721 15.0377 40.2712 15.2896 40.0169C16.2161 39.0808 17.1526 38.1538 18.0817 37.2198C18.8534 36.444 19.6764 35.7312 20.5661 35.0916C20.7483 34.9603 20.8291 34.6944 21.0002 34.5383C21.5958 33.9932 22.2047 33.4617 22.8197 32.9386C23.4067 32.4395 23.8147 31.7503 24.5532 31.4023C24.8415 31.2665 25.0088 30.8904 25.2892 30.716C25.5303 30.5661 25.6657 30.3668 25.8455 30.1746C26.2613 29.7294 26.7513 29.3251 27.2803 29.0248C27.5474 28.8728 27.5872 28.307 28.0755 28.5481C28.2918 28.2681 28.4852 27.9657 28.7287 27.7122C29.5137 26.8946 30.4075 26.2066 31.3254 25.5435C31.8874 25.138 32.3874 24.6475 32.9151 24.1948C33.9705 23.2902 35.0089 22.3641 36.0862 21.4855C37.5144 20.32 38.9657 19.1822 40.4204 18.0497C41.6692 17.0784 42.9023 16.0802 44.2045 15.1847C46.1198 13.8684 47.8976 12.3706 49.8298 11.0717C51.3342 10.0602 52.839 9.03009 54.2908 7.94985C55.8113 6.81825 57.4283 5.8395 58.9584 4.72944C59.9525 4.00873 61.0687 3.45867 62.0984 2.78435C62.9844 2.20488 63.9242 1.71612 64.8011 1.12423C64.9092 1.05092 65.038 1.00784 65.1619 0.948608C65.4754 1.49991 65.0919 1.75257 64.8024 2.01311C64.5315 2.25624 64.2216 2.45547 63.718 2.83198C64.647 2.69529 65.0989 2.21896 65.6013 1.87352C65.8797 1.68216 66.0868 1.57157 66.4434 1.78157C66.3676 1.93441 66.2931 2.08559 66.2111 2.2521C66.5428 2.33287 66.9077 2.42151 67.317 2.52133C67.208 2.77358 67.0651 2.94837 67.1041 3.05731C67.1488 3.18074 67.3567 3.24535 67.5054 3.34311C67.3886 3.60944 66.9682 3.72997 67.0726 4.14169C67.0879 4.20174 66.9313 4.36991 66.9177 4.36287C66.4057 4.10358 66.4637 4.7808 66.1112 4.86281C65.9016 4.91169 65.4531 4.96263 65.4394 5.42405C65.4373 5.48328 64.9738 5.46837 64.8769 5.60009C64.7572 5.76411 64.7858 6.02879 64.4631 5.95837C64.3944 5.94305 64.256 5.9534 64.2531 5.97163C64.1036 6.76648 63.3029 6.58464 62.8523 6.91932C62.6174 7.09328 62.2372 7.13512 62.2219 7.53689C61.7103 7.47476 61.9054 8.33713 61.3964 8.20169C60.906 8.07121 61.0037 8.95139 60.457 8.69417C60.4197 8.67677 60.2031 9.06529 60.0535 9.25251C59.8742 9.4766 59.3113 9.14316 59.3647 9.71973C59.0677 9.82038 58.7753 9.98524 58.4721 10.0072C58.0049 10.0412 57.8098 10.2412 57.8123 10.696C57.8127 10.7867 57.7369 10.9234 57.659 10.9611C57.4399 11.0655 57.1632 11.08 56.9826 11.2229C56.7992 11.3674 56.6596 11.8172 56.5776 11.7986C55.9434 11.6536 56.0329 12.4067 55.5826 12.5185C55.429 12.4419 55.243 12.3491 54.9775 12.217C54.6826 13.129 53.6947 13.4032 53.278 14.2105C53.1621 14.4358 52.9483 14.5858 52.6306 14.5477C51.9832 14.471 51.5545 14.7117 51.4845 15.4262C51.4725 15.5517 51.345 15.7667 51.2658 15.7691C50.4851 15.7928 50.4109 16.7367 49.7171 16.9152C49.3717 17.0043 49.2321 17.5912 48.7098 17.4893C48.6754 17.4827 48.6141 17.648 48.5553 17.7262C48.4476 17.8708 48.2757 17.9951 48.2318 18.1554C48.1067 18.6085 47.5774 18.1632 47.4129 18.5696C47.309 18.8268 47.0936 19.0554 46.8844 19.2493C46.6508 19.4659 46.3377 19.5993 46.1144 19.8233C45.8659 20.0723 45.5743 20.1348 45.2678 20.2487C45.0189 20.3415 44.9041 20.938 44.6921 20.9607C44.1234 21.0212 44.0177 21.5162 43.6851 21.7833C43.319 22.0783 42.9458 22.3649 42.5825 22.6639C42.334 22.8681 42.1692 23.1999 41.755 23.1411C41.7028 23.1336 41.641 23.359 41.5495 23.4352C41.1958 23.7301 41.0376 24.2839 40.4374 24.2685C40.3599 24.2665 40.285 24.4483 40.1959 24.5316C39.4184 25.2585 38.6385 25.9821 37.8594 26.7065C37.277 26.5827 37.2323 27.1704 36.9328 27.4165C36.3372 27.9048 35.7677 28.4242 35.1832 28.9258C35.1339 28.9685 35.0561 28.983 34.989 28.9987C33.9763 29.2361 33.9763 29.2356 33.2858 29.91C32.9122 29.8408 32.5017 29.6536 32.1641 29.7418C31.9318 29.8023 31.8 30.2455 31.7466 30.6249C32.0324 30.4451 32.319 30.2649 32.8422 29.9361C32.6405 30.4012 32.3079 30.5329 32.3145 30.7011C32.329 31.0623 32.0411 30.967 31.904 31.0909C30.9141 31.9855 29.949 32.9071 28.9512 33.7919C28.6915 34.0217 28.6732 34.6012 28.1074 34.4252C27.786 34.8994 27.0732 35.0875 27.0926 35.8119C27.0935 35.8459 27.0893 35.8948 27.0678 35.9126C26.4788 36.3968 25.8877 36.8777 25.2967 37.3594C24.8746 37.2583 24.7044 37.6083 24.4786 37.8341C23.5351 38.7776 22.5683 39.698 21.7474 40.7612C21.4964 41.0872 21.247 41.5428 20.675 41.4376C20.6083 41.4256 20.4828 41.5602 20.4364 41.6526C20.3134 41.9011 20.277 42.2225 20.0951 42.4043C19.9133 42.5862 19.5124 42.5638 19.357 42.7539C18.9548 43.2448 18.5999 43.7832 18.2929 44.3399C18.0067 44.8589 17.3626 45.4239 16.7235 45.5647V46.2572C16.176 46.8446 15.5236 47.3437 14.9926 47.9704C14.4591 48.6 13.88 49.2113 13.2322 49.7171C12.7451 50.0969 12.2601 50.41 12.1346 51.0649C12.1172 51.1568 11.9813 51.2239 11.9043 51.3064C10.8659 52.4193 9.82128 53.5269 8.79241 54.6481C8.12347 55.3771 7.53986 56.1815 6.81377 56.8608C6.7243 56.9449 6.71685 57.1168 6.6746 57.2406H5.96507C5.88762 57.3939 5.76998 57.5422 5.7385 57.7066C5.64531 58.1867 5.44111 58.5048 4.95691 58.7384C4.36211 59.0254 4.39773 59.0962 3.85513 58.7433C3.76773 58.6866 3.6704 58.6448 3.5772 58.5967C3.25702 58.4306 3.05448 59.0631 2.6962 58.7181C2.42448 58.4563 2.19998 58.6046 1.91667 58.779C1.6346 58.9525 1.4975 58.8394 0.973948 58.3428C1.00294 58.1125 1.02655 57.9282 1.05016 57.7439C0.921344 57.7629 0.774717 57.7501 0.669096 57.8097C0.542764 57.881 0.451226 58.0143 0.341463 58.1241C0.297143 58.0827 0.222587 58.0471 0.212646 57.9982C0.129392 57.5794 -0.0557563 57.1379 0.0163147 56.744C0.0801017 56.394 0.470693 56.1161 0.650042 55.7715C1.28129 54.5595 1.90549 53.3451 2.65105 52.1969C3.05489 51.5748 3.31584 50.8669 3.83898 50.3123C3.9914 50.1503 3.95288 49.8082 4.10614 49.6467C4.25608 49.4876 4.59117 49.5104 4.50998 49.1417C4.49217 49.061 4.57791 48.9467 4.63673 48.8617C5.15862 48.1075 5.58028 47.2861 6.0972 46.5372C6.50188 45.9512 6.84981 45.3394 7.20726 44.7309C7.67117 43.9419 8.30738 43.2576 8.62963 42.3828C8.64123 42.3509 8.6785 42.3257 8.70791 42.3033C8.95478 42.1157 9.20247 41.9301 9.45016 41.7437C9.22981 41.3767 9.47501 41.1435 9.673 40.8743C9.85856 40.622 9.95383 40.2981 10.156 40.0637C10.7648 39.3579 11.1534 38.5129 11.6732 37.7525C11.8708 37.4642 12.0493 37.1635 12.2961 36.7749" fill="black"/>
<path fill-rule="evenodd" clip-rule="evenodd" d="M53.9787 27.1925C54.6932 26.5161 55.3348 25.7295 56.1458 25.2018C56.6933 24.8456 57.1403 24.3825 57.6663 24.0118C59.0183 23.0604 60.3147 22.0179 61.6029 20.9815C62.703 20.0968 63.8565 19.2825 64.95 18.3899C66.0303 17.5084 67.154 16.6647 68.339 15.9361C68.7636 15.6748 69.1372 15.3422 69.5468 15.0717C70.4394 14.4823 71.3233 13.8626 72.1654 13.1925C72.7258 12.7464 73.4084 12.4672 73.8984 11.9176C74.0069 11.7958 74.1975 11.6926 74.3574 11.6811C75.4923 11.6011 76.1285 10.6704 76.9946 10.1415C77.6664 9.73141 78.2434 9.16809 78.8999 8.72987C79.2404 8.50289 79.6517 8.33845 80.053 8.26223C80.2891 8.21709 80.5691 8.40016 80.8611 8.49046C80.6959 8.71247 80.5596 8.90756 80.4101 9.09188C80.3339 9.1859 80.2345 9.26087 80.145 9.34413L79.2826 10.0354C79.1708 10.3469 78.9699 10.5399 78.6199 10.4703C78.2347 10.3937 78.506 11.0635 78.0309 10.9434C77.7 10.8593 77.6113 11.1977 77.4514 11.452C77.2738 11.7337 76.9333 11.942 76.6226 12.1044C75.7238 12.5745 75.0043 13.2869 74.2145 13.8966C73.932 14.1153 73.314 13.8606 73.3422 14.4939C72.923 14.5295 72.749 15.1048 72.4794 15.0941C71.8042 15.0667 71.7939 15.7961 71.2567 15.966C70.7903 16.113 70.4647 16.6734 69.9867 16.97C69.3182 17.3854 68.7313 17.9289 68.0806 18.3758C67.161 19.007 66.2378 19.6267 65.4106 20.3826C64.9567 20.7972 64.4588 21.1638 63.9733 21.5424C63.6884 21.7644 63.3897 21.9677 63.1267 22.1583C63.0298 22.138 62.8475 22.0605 62.8181 22.0995C61.7536 23.4924 60.299 24.4148 58.884 25.3841C58.3419 25.7552 57.9703 26.3057 57.383 26.6553C56.7319 27.0434 56.2 27.634 55.6264 28.1476C55.2743 28.4624 55.0204 28.8936 54.4132 28.7963C54.1837 28.7594 54.0387 29.0299 53.9575 29.319C53.8581 29.6756 53.5901 29.9796 53.2037 30.1126C52.6975 30.2866 52.3475 30.6167 52.0154 31.0437C51.6156 31.5582 51.1256 32.0055 50.5387 32.3497C50.0077 32.6612 49.7584 33.34 49.1089 33.5401C49.0136 33.5695 48.9498 33.6958 48.867 33.7721C47.9409 34.6245 47.042 35.51 46.0803 36.3198C44.411 37.7252 42.8275 39.2209 41.2175 40.69C40.4272 41.4112 39.6506 42.1501 38.8582 42.87C38.594 43.1094 38.1748 43.2419 38.0257 43.5277C37.8451 43.874 37.6065 44.0364 37.3079 44.2397C37.0051 44.4464 36.7508 44.69 36.2297 44.5558C36.4111 44.75 36.4609 44.8035 36.5503 44.8992C36.1187 45.2156 35.6921 45.5292 35.2588 45.8464C35.3061 45.8999 35.3761 45.9782 35.4332 46.0424C35.2096 46.2031 35 46.4139 34.7461 46.5199C34.4905 46.6264 34.1914 46.6289 33.728 46.7084C34.022 46.8749 34.208 46.9797 34.4478 47.1155C33.9802 47.3558 33.6464 47.5277 33.2839 47.7141C33.1601 47.5973 33.0052 47.4511 32.8494 47.3053C32.743 47.4117 32.6365 47.5182 32.5143 47.6403C32.6713 47.7141 32.8209 47.7845 32.9956 47.8665C32.9584 47.9721 32.9393 48.081 32.8851 48.1676C32.772 48.349 32.6071 48.5039 32.5222 48.6957C32.3445 49.0992 32.3578 49.1008 31.6934 49.3729C31.5973 49.4123 31.5111 49.515 31.4552 49.609C31.2523 49.9503 30.9354 50.2763 30.7333 50.3252C30.7772 50.4316 30.8878 50.5866 30.8526 50.635C30.7643 50.7551 30.5606 50.799 30.491 50.9229C30.1956 51.4469 30.0325 52.0996 29.2301 52.0541C28.9907 52.3689 28.8064 52.7632 28.497 52.9773C28.1462 53.2205 28.352 53.7908 28.1093 53.8124C27.5584 53.8608 27.8856 54.2758 27.7274 54.4606C27.3248 54.8694 26.8891 53.9205 26.4504 54.4929C26.6054 53.6111 26.9562 52.8112 27.5501 52.1767C28.3512 51.3222 29.0467 50.3886 29.791 49.4926C30.5336 48.5992 31.4279 47.8321 32.2455 47C32.5019 46.739 32.7277 46.4479 32.9675 46.1703C33.4156 46.0047 33.7859 45.7313 34.1049 45.3763C34.3049 45.1535 34.4988 44.9037 34.7469 44.7496C35.0169 44.5827 34.896 44.1557 35.3558 44.0741C35.659 44.0202 35.8806 43.5671 36.163 43.3219C36.4327 43.0887 36.7707 42.9271 37.0122 42.6716C37.2669 42.4019 37.4471 42.0859 37.7946 41.8809C38.1081 41.6966 38.4022 41.4058 38.5861 41.0926C38.886 40.5824 39.3698 40.2676 39.8051 39.9524C40.1605 39.6951 40.4786 39.4093 40.8042 39.1248C41.0825 38.8812 41.2971 38.5702 41.5518 38.308C41.8252 38.0271 42.111 37.8847 42.4179 37.6908C42.8006 37.4481 43.0421 36.9887 43.3639 36.6408C43.5756 36.4122 43.8017 36.0734 44.0561 36.0382C44.4065 35.9897 44.5465 35.7445 44.79 35.6078C45.1094 35.4297 45.0456 34.9206 45.4788 34.8738C45.5588 34.3279 46.1565 34.5031 46.4203 34.1954C46.8001 33.753 47.2143 33.3405 47.6198 32.9084C47.665 32.9594 47.7139 33.0145 47.7917 33.1031C48.1281 32.6964 48.454 32.3004 48.7838 31.9073C48.8442 31.8348 48.9325 31.7118 48.9896 31.7213C49.4042 31.7901 49.5674 31.4525 49.813 31.2467C50.1162 30.9932 50.3759 30.7124 50.7384 30.5003C51.3274 30.1561 51.8584 29.6719 52.3181 29.1608C52.669 28.7714 53.0152 28.4504 53.492 28.2139C53.8494 28.0366 54.1224 27.6779 53.9787 27.1925" fill="black"/>
<path fill-rule="evenodd" clip-rule="evenodd" d="M53.9787 27.1925C54.1224 27.6779 53.8495 28.0366 53.492 28.2139C53.0153 28.4504 52.669 28.7714 52.3182 29.1608C51.8584 29.6719 51.3274 30.1561 50.7384 30.5003C50.376 30.7124 50.1163 30.9932 49.8131 31.2467C49.5675 31.4525 49.4043 31.7901 48.9897 31.7214C48.9325 31.7118 48.8443 31.8348 48.7838 31.9073C48.4541 32.3004 48.1281 32.6964 47.7918 33.1031C47.7139 33.0145 47.665 32.9594 47.6199 32.9085C47.2144 33.3405 46.8002 33.753 46.4204 34.1954C46.1565 34.5031 45.5588 34.3279 45.4789 34.8738C45.0456 34.9206 45.1094 35.4297 44.7901 35.6078C44.5465 35.7445 44.4065 35.9897 44.0561 36.0382C43.8018 36.0734 43.5756 36.4122 43.364 36.6408C43.0421 36.9887 42.8007 37.4481 42.4179 37.6908C42.111 37.8847 41.8252 38.0271 41.5518 38.308C41.2971 38.5702 41.0826 38.8812 40.8042 39.1248C40.4787 39.4093 40.1605 39.6951 39.8052 39.9524C39.3698 40.2676 38.886 40.5824 38.5862 41.0927C38.4023 41.4058 38.1082 41.6966 37.7946 41.8809C37.4471 42.0859 37.2669 42.4019 37.0122 42.6716C36.7707 42.9271 36.4327 43.0887 36.1631 43.3219C35.8806 43.5671 35.659 44.0202 35.3558 44.0741C34.896 44.1557 35.017 44.5827 34.7469 44.7496C34.4988 44.9037 34.305 45.1535 34.1049 45.3763C33.786 45.7313 33.4157 46.0047 32.9675 46.1703C32.994 45.9558 32.9464 45.6774 33.0636 45.5399C33.2658 45.303 33.5996 45.1829 33.8237 44.9588C34.0478 44.7351 34.1749 44.415 34.399 44.1909C34.6231 43.9668 34.9723 43.8562 35.1636 43.6147C35.6337 43.022 36.2364 42.5742 36.7595 42.042C37.3133 41.4783 37.8634 40.91 38.4375 40.3674C39.4345 39.4255 40.3958 38.4343 41.4736 37.5939C42.1794 37.0443 42.7423 36.3509 43.4468 35.8273C44.7632 34.849 45.8832 33.6441 47.2181 32.6864C47.962 32.1529 48.5999 31.4728 49.2912 30.8652C50.3234 29.9573 51.38 29.0816 52.5153 28.2992C52.8811 28.0474 53.1474 27.656 53.4875 27.3602C53.6084 27.255 53.813 27.2455 53.9787 27.1925" fill="black"/>
</svg>
