<svg width="99" height="66" viewBox="0 0 99 66" fill="none" xmlns="http://www.w3.org/2000/svg">
<path fill-rule="evenodd" clip-rule="evenodd" d="M34.5056 27.8402C34.646 28.0121 34.7081 28.0883 34.8029 28.2035C34.1879 28.3397 33.5856 28.4731 32.9759 28.6085C33.067 28.7133 33.135 28.7916 33.2215 28.8906C32.6102 29.0194 32.022 29.1433 31.4048 29.2729C31.4831 29.3682 31.5461 29.4444 31.6161 29.5293C31.2644 29.6436 30.9165 29.7882 30.5541 29.864C30.3014 29.9166 30.0284 29.8648 29.7658 29.8764C29.4863 29.8888 29.6611 30.2728 29.309 30.3759C28.9735 30.4737 28.6231 30.5226 28.1985 30.5648C28.3178 30.7164 28.3754 30.7906 28.4735 30.9161C27.8564 31.0527 27.2566 31.1857 26.6494 31.3203C26.7372 31.4181 26.8089 31.4968 26.8793 31.5751C26.1316 31.7689 25.3857 31.9628 24.5908 32.1694C24.7064 32.3074 24.7706 32.3844 24.836 32.4623C24.0917 32.6661 23.342 32.8711 22.5583 33.0861C22.6863 33.2464 22.746 33.3213 22.7932 33.3801C22.0306 33.5852 21.2867 33.7852 20.5122 33.9932C20.6369 34.1303 20.7081 34.209 20.7769 34.2848C20.0284 34.4803 19.2828 34.6758 18.49 34.8833C18.6064 35.0204 18.6723 35.0974 18.7489 35.1877C18.01 35.377 17.2711 35.5659 16.5023 35.763C16.5806 35.9217 16.6315 36.0248 16.7164 36.1975C16.0823 36.2125 15.4424 36.101 14.9316 36.5426C14.9929 36.6101 15.0642 36.6892 15.1491 36.7832C14.551 36.8806 13.9595 36.9779 13.3233 37.0819C13.4186 37.277 13.4687 37.3805 13.5611 37.5702C12.6386 37.4571 11.8301 37.6841 11.0808 38.1215C11.1504 38.2006 11.2196 38.2789 11.3186 38.3903C11.1848 38.4172 11.0684 38.4806 10.9831 38.452C10.5001 38.2884 10.1327 38.375 9.71395 38.7648C9.66839 38.807 9.56691 38.8141 9.4994 38.8004C9.39916 38.7793 9.27034 38.6641 9.21525 38.6956C8.96383 38.8418 8.71241 39.0522 8.42744 38.8497C8.1317 38.6397 7.99916 38.264 7.69431 38.0395C7.62555 37.989 7.68395 37.7649 7.68395 37.6626C7.33809 37.5309 7.04567 37.4194 6.6062 37.2521C7.29833 36.9791 7.8252 36.7716 8.41046 36.5413C8.0265 36.3413 7.80697 36.4709 7.5365 36.6308C7.35011 36.7406 7.04733 36.6515 6.81289 36.6515C6.69525 36.012 7.20141 35.9693 7.47478 35.8699C9.31425 35.2018 11.0415 34.2926 12.7952 33.4452C14.6798 32.5343 16.4882 31.4595 18.3981 30.61C19.673 30.0425 20.9007 29.3781 22.1839 28.8442C23.6311 28.2424 25.015 27.4985 26.4808 26.9501C27.4277 26.5955 28.305 26.0968 29.2618 25.7506C30.1697 25.4221 31.0797 25.0386 31.957 24.633C32.9067 24.1936 33.8685 23.7868 34.8386 23.4058C36.6515 22.6933 38.4525 21.9507 40.2745 21.2577C41.4724 20.8025 42.6595 20.2922 43.8508 19.8072C45.5908 19.0989 47.364 18.4797 49.0966 17.7465C50.601 17.1099 52.1895 16.6742 53.7145 16.0806C54.9812 15.5881 56.2669 15.1541 57.5426 14.6897C59.8331 13.8551 62.1232 13.0188 64.4237 12.2116C65.9012 11.6934 67.4018 11.2274 68.8602 10.6587C71.0402 9.8092 73.2897 9.17092 75.485 8.38062C76.7971 7.9076 78.1073 7.43997 79.4377 7.01914C81.0651 6.50512 82.6486 5.84737 84.2855 5.36896C86.7326 4.65322 89.1292 3.7921 91.5464 2.99062C93.3652 2.38796 95.2138 1.87393 96.9559 1.05382C97.1957 0.941153 97.5051 0.978017 97.7574 0.948608C98.0332 1.65027 97.1075 1.4676 97.1493 2.04748C97.3436 1.97707 97.5022 1.89382 97.6704 1.86565C97.8477 1.83583 98.0337 1.85902 98.3348 1.85902C98.237 2.11417 98.1703 2.28896 98.1032 2.465C98.2669 2.57352 98.5659 2.54908 98.527 2.93512C98.5079 3.12813 98.0776 3.33027 98.4951 3.54109C98.4764 3.56802 98.4636 3.60405 98.4383 3.61979C98.2582 3.72914 98.0834 3.85174 97.8924 3.93748C96.9087 4.37985 95.9494 4.90216 94.9276 5.22565C93.5288 5.66885 92.1918 6.26447 90.8075 6.73541C88.7286 7.44245 86.6473 8.14163 84.575 8.86689C83.2612 9.32666 81.9614 9.8266 80.648 10.3112C80.7341 10.4065 80.8054 10.486 80.8766 10.5655C80.8485 10.5933 80.824 10.6393 80.7946 10.6426C80.7424 10.6488 79.2616 10.8671 79.1651 10.8956C78.6043 11.0609 78.0427 11.2254 77.452 11.3985C77.5775 11.5459 77.6434 11.6234 77.8095 11.8181C77.5589 11.7729 77.4321 11.7601 77.312 11.7253C77.1799 11.6872 77.0274 11.5559 76.9297 11.5915C76.2835 11.8247 75.6498 12.0919 75.0082 12.3503C75.0935 12.4514 75.1586 12.528 75.3259 12.7264C75.0716 12.6775 74.9453 12.6622 74.8247 12.6274C74.693 12.5897 74.541 12.4609 74.4428 12.4965C73.7975 12.7297 73.1646 12.9961 72.5234 13.2533C72.6092 13.356 72.6738 13.433 72.8424 13.6343C72.5839 13.5817 72.4584 13.5648 72.3379 13.5296C72.2066 13.4914 72.0541 13.3664 71.9556 13.402C71.3115 13.6343 70.6794 13.9003 70.0386 14.1571C70.1252 14.2614 70.1886 14.3377 70.3592 14.5427C70.0962 14.4868 69.9434 14.4967 69.8568 14.4259C69.6965 14.295 69.5954 14.2776 69.3796 14.3625C68.1818 14.8343 66.9677 15.2642 65.7363 15.7165C65.8262 15.8197 65.8945 15.8975 65.9666 15.98C65.6767 16.4033 65.3043 15.514 64.9382 16.0583C64.7915 16.2761 64.2924 16.2562 63.9076 16.3569C64.017 16.4903 64.0795 16.5661 64.1396 16.6394C64.1002 16.6804 64.0621 16.7334 64.0112 16.7661C63.9909 16.7794 62.9951 16.757 62.9587 16.7703C62.076 17.0929 61.1938 17.4152 60.2945 17.7441C60.4006 17.8621 60.4718 17.9416 60.5451 18.0228C59.6749 18.0311 59.2847 18.1139 58.5243 18.4532C58.5971 18.5339 58.668 18.613 58.7388 18.6909C58.6837 18.727 58.6179 18.8065 58.5686 18.7974C57.3898 18.577 56.4458 19.3201 55.3863 19.5831C54.8279 19.7219 54.3118 20.0309 53.7754 20.2632C53.8566 20.3589 53.9216 20.4359 53.9904 20.5171C53.9092 20.5536 53.8367 20.6186 53.7833 20.6054C52.9064 20.3904 52.1116 20.7888 51.3987 21.1223C50.4796 21.5526 49.4512 21.7046 48.6079 22.3139C48.6551 22.3694 48.7218 22.4469 48.8535 22.6006H47.2828C47.2468 22.7766 47.2257 22.8797 47.1992 23.0106C46.9229 23.3507 46.2287 22.736 46.0398 23.5483C45.8261 23.5483 45.5743 23.5317 45.3257 23.5549C45.2011 23.5669 44.9824 23.646 44.9795 23.704C44.967 23.9571 44.8494 23.9827 44.6295 24.0117C44.325 24.0511 43.8437 23.7496 43.7766 24.3804C43.7729 24.4143 43.5836 24.4342 43.4792 24.4504C43.1615 24.5001 42.7038 24.2512 42.6463 24.8468C42.3186 24.8754 41.991 24.9035 41.6733 24.9309C41.5842 25.0733 41.5192 25.3086 41.4032 25.3368C41.1216 25.4059 40.8159 25.3803 40.5202 25.3923C40.4506 26.0128 39.9266 25.7377 39.6255 25.8168C39.5878 25.8839 39.5538 25.9175 39.5609 25.9357C39.5733 25.9676 39.6139 25.9879 39.6363 26.0181C39.6735 26.0683 39.705 26.1221 39.7928 26.2567H38.3464C38.486 26.429 38.5473 26.504 38.6111 26.5831C38.4342 26.9803 37.9037 26.4299 37.7235 26.9215C37.5437 27.4115 37.0889 27.0632 36.775 27.163C36.4415 27.2694 36.1089 27.3788 35.727 27.5026C35.7461 27.467 35.7142 27.501 35.7216 27.5188C35.7345 27.5507 35.7747 27.571 35.7966 27.6008C35.8331 27.6505 35.8641 27.7048 35.9503 27.8402H34.5056Z" fill="black"/>
<path fill-rule="evenodd" clip-rule="evenodd" d="M82.3429 59.1136C86.4087 59.7523 85.7443 59.2743 85.6358 59.5891C85.9261 59.6956 86.2194 59.8028 86.6543 59.9623C86.3155 60.1984 86.1018 60.3475 85.8856 60.4979C85.934 60.5534 86.0019 60.6312 86.0703 60.7095C86.0202 60.746 85.963 60.8242 85.9121 60.8205C84.6525 60.7273 83.4347 61.1581 82.1648 61.0711C80.8911 60.9841 79.5926 60.9353 78.3313 61.0885C77.3041 61.2128 76.286 61.2513 75.2596 61.2886C74.9432 61.2998 74.6847 61.033 74.2999 61.2463C74.0121 61.4062 73.5647 61.2782 73.1878 61.2782H71.946C71.5695 61.2782 71.1934 61.277 70.8169 61.2786C70.4421 61.2795 70.0668 61.2824 69.6919 61.2911C69.6646 61.2915 69.6385 61.3408 69.5432 61.436C69.8966 61.4816 70.1948 61.5197 70.4934 61.5574C70.4918 61.6054 70.4901 61.6531 70.4889 61.7007C70.0962 61.7106 69.7035 61.7243 69.3113 61.7285C68.8971 61.7334 68.4833 61.7313 68.0691 61.728C67.9987 61.7276 67.8939 61.7313 67.8632 61.6903C67.4466 61.1308 66.9769 61.1999 66.4218 61.4866C66.2135 61.5938 65.9037 61.504 65.6402 61.504C62.1021 61.504 58.564 61.4982 55.0263 61.5122C54.6411 61.5139 54.1963 61.3242 53.8748 61.7276C53.8599 61.7454 53.7833 61.7458 53.7676 61.7276C53.4499 61.354 53.0879 61.9115 52.8352 61.714C52.5088 61.4592 52.2893 61.5035 51.9819 61.7123C51.8883 61.7765 51.6431 61.6618 51.4903 61.5839C51.2766 61.4745 51.2902 61.3234 51.4882 61.1908C51.4493 61.1444 51.4178 61.0724 51.3698 61.0583C51.3043 61.0396 51.1863 61.0396 51.1618 61.0777C51.0877 61.1929 51.0782 61.3602 50.9874 61.4509C50.8669 61.5719 50.6942 61.7115 50.5426 61.7135C50.2816 61.7169 49.9602 61.4998 49.7713 61.5926C49.4677 61.7421 49.2772 61.7235 48.9765 61.6009C48.7715 61.5176 48.4679 61.7185 48.2069 61.7227C47.1561 61.74 46.1048 61.7297 45.0784 61.7297C44.9749 61.5615 44.8875 61.4195 44.8001 61.2782C44.6593 61.3979 44.5189 61.518 44.2558 61.7421C43.8164 61.8531 43.0542 61.4344 42.5953 62.1973C42.4603 62.0486 42.3352 61.9107 42.2238 61.7881C41.3308 62.0379 40.4667 62.0739 39.604 61.7786C38.7118 62.1903 37.7873 61.8316 36.8855 61.9728C36.905 61.7649 36.9522 61.5292 36.9241 61.5201C36.5728 61.4021 36.6292 61.7227 36.5306 61.9376H35.3344C35.2739 62.1021 35.2258 62.2325 35.1753 62.3709C35.1227 62.3448 35.0498 62.3324 35.0225 62.2901C34.8079 61.9629 34.4413 61.8287 34.1518 61.9749C33.4738 62.3183 32.7763 62.1364 32.0899 62.175C31.4989 62.2081 30.9045 62.1816 30.3002 62.3452C30.6622 62.3816 31.0242 62.4185 31.3862 62.4545C30.5586 62.527 29.6789 62.9938 29.0596 62.2441C28.6255 62.3067 28.2784 62.3945 27.9297 62.4007C26.8466 62.4193 25.7626 62.4073 24.7018 62.4073C24.6351 62.5995 24.5892 62.7304 24.5216 62.9263C24.339 62.6513 24.1903 62.4272 24.0416 62.2031C23.965 62.5129 23.7869 62.8344 23.4638 62.6124C23.1221 62.3775 22.9266 62.5386 22.6138 62.6012C22.0422 62.7151 21.4313 62.6335 20.8195 62.7797C21.0999 62.8236 21.3803 62.8675 21.6753 62.9143C21.6284 62.9876 21.5978 63.0787 21.5663 63.0792C20.7383 63.087 19.9079 63.1239 19.0824 63.0729C18.4735 63.0353 17.8857 62.7627 17.2561 62.8605C17.1538 62.8766 17.0536 62.906 16.9509 63.0336C17.2528 63.0655 17.5548 63.097 17.8571 63.1284C16.9128 63.2258 15.9879 63.4834 15.036 63.1305C14.6148 62.9744 14.0879 63.1044 13.5797 63.2245C13.7872 63.2755 13.9951 63.3264 14.2097 63.379C14.1728 63.4383 14.1434 63.5302 14.1119 63.5306C13.7367 63.5385 13.3614 63.5323 12.9861 63.5298C12.7844 63.0535 12.4829 63.7609 12.1764 63.4478C11.9767 63.2444 11.5613 63.7228 11.1579 63.3517C10.9379 63.1504 10.3816 63.3161 9.96123 63.4623C10.2516 63.5074 10.5419 63.5534 10.8505 63.6015C10.7847 63.6735 10.7449 63.7568 10.7031 63.7576C10.1389 63.7659 9.57312 63.7386 9.00981 63.7684C7.91093 63.826 6.7959 63.8214 5.72271 64.026C5.14407 64.1362 4.57661 64.159 4.00419 64.2286C3.51295 64.2878 3.03413 64.4609 2.84235 65.1108C2.64644 65.1108 2.21111 65.1883 2.17259 65.0976C2.00484 64.7008 1.49496 64.6593 1.38064 64.318C1.27295 63.9954 1.09567 63.896 0.828508 63.746C0.289632 63.4432 0.173656 62.8642 0.4462 62.2996C0.297916 62.1422 0.147561 61.9836 0.00093392 61.8279C0.00756114 61.7463 -0.0156341 61.6481 0.0233008 61.6046C0.445372 61.1258 0.939928 60.8806 1.61425 60.7969C2.71892 60.6598 3.79874 60.3214 4.93076 60.3744C5.5794 59.9785 6.29803 60.2183 6.9823 60.1445C7.51744 60.0874 8.04721 59.9689 8.58318 59.9308C9.10715 59.8931 9.69117 60.0646 10.1505 59.8886C10.8116 59.6359 11.4594 59.6678 12.1006 59.7167C12.9248 59.7796 13.6845 59.447 14.4926 59.4665C15.3202 59.4856 16.1829 59.6202 16.9695 59.4387C18.4876 59.0883 20.0151 59.4371 21.5096 59.2217C23.3623 58.9545 25.2328 59.2142 27.0599 58.9798C29.5206 58.6634 31.9719 58.9036 34.424 58.7942C34.7242 58.781 35.0258 58.7959 35.3269 58.7918C35.5804 58.7885 35.8587 58.8589 36.0282 58.5768C36.1624 58.9334 36.4535 58.5412 36.6884 58.7131C36.8321 58.8183 37.19 58.6004 37.4567 58.5735C37.755 58.5441 38.0582 58.5669 38.3593 58.5669H39.1496H40.0529H40.9563H41.7466C42.0477 58.5669 42.3509 58.5449 42.6496 58.5722C43.0025 58.605 43.3516 58.4861 43.7174 58.7363C43.8934 58.8568 44.3026 58.5847 44.6083 58.576C45.5486 58.5507 46.4905 58.583 47.4307 58.5582C47.7807 58.5495 48.1742 58.7222 48.4728 58.3457C48.6683 58.0984 48.8145 58.7773 49.1107 58.4074C49.2039 58.2906 49.6732 58.2711 49.7233 58.3552C50.0079 58.8295 50.3297 58.1096 50.5463 58.4016C50.8537 58.815 51.0446 58.3287 51.2923 58.3444C51.4323 58.3531 51.5706 58.3966 51.7098 58.4235C51.9534 58.4716 52.3402 58.6377 52.416 58.5461C52.725 58.1725 53.0862 58.5387 53.425 58.3954C53.7758 58.2463 54.2335 58.3419 54.6444 58.3419C62.0209 58.3407 69.3983 58.3519 76.7752 58.3279C77.7589 58.3245 78.7745 58.5714 79.7301 58.115C80.2325 58.5466 80.7287 58.0673 81.2378 58.0897C82.8147 58.1589 84.3961 58.115 86.0844 58.115C86.0276 58.291 85.9932 58.5441 85.9361 58.5495C85.1392 58.6224 84.3671 58.8411 83.5466 58.8108C81.8926 58.7503 80.235 58.7918 78.579 58.7971C78.5194 58.7976 78.4597 58.8676 78.3997 58.9053C78.4751 58.9429 78.5463 58.996 78.6258 59.0158C78.8251 59.0651 79.0077 59.3153 79.2422 59.0299C79.3027 58.9558 79.5296 59.0187 79.68 59.0187C81.8599 59.0187 84.0395 59.0187 82.3429 59.1136C78.4096 59.1691 78.4138 59.1289 78.4179 59.0892C78.0683 58.9951 77.7233 58.8717 77.3671 58.8183C77.1782 58.7901 75.9832 58.8315 75.8118 58.8075C75.6655 58.7868 75.4398 58.7321 75.3781 58.8038C75.0712 59.1583 74.6806 59.0117 74.3293 59.0125C68.9824 59.0212 63.6355 59.0221 58.289 59.0092C57.975 59.0088 57.6171 59.1753 57.3322 58.863C57.2779 58.8034 57.0812 58.7744 57.0418 58.8162C56.6993 59.1869 56.2656 58.9724 55.8771 59.0134C55.0814 59.097 54.2675 58.8771 53.4772 59.2234C53.254 59.3211 52.9135 59.1803 52.6343 59.1177C52.0967 58.9972 51.5632 58.9106 51.0392 59.1575C50.8561 59.2437 50.63 58.9206 50.4792 59.2263C50.1901 58.8626 49.7051 58.9214 49.4541 59.0531C49.0353 59.2735 48.7325 58.856 48.3796 59.0175C48.3167 59.0461 48.2218 59.037 48.1829 59.0817C47.9973 59.2942 47.864 59.2457 47.6212 59.114C47.386 58.9864 47.0173 58.9504 46.7684 59.0415C46.4457 59.16 46.0551 59.2511 45.807 59.2006C45.4214 59.1223 45.095 59.2283 44.7429 59.2416C41.9881 59.3427 39.2324 59.1045 36.4738 59.4433C34.4148 59.696 32.3273 59.353 30.2393 59.657C28.3402 59.9329 26.3934 59.5854 24.4595 59.8894C22.9348 60.1292 21.36 59.7892 19.808 60.1222C19.0882 60.2767 18.3037 60.1011 17.5556 60.1619C16.8693 60.2183 16.1991 60.06 15.478 60.3094C14.8057 60.5418 13.9931 60.3657 13.2425 60.3773C13.1266 60.3794 13.011 60.4221 12.8954 60.4461C13.0487 60.6002 13.1887 60.6043 13.3283 60.5993C14.6541 60.5534 15.9729 60.6155 17.3067 60.4096C18.9084 60.1628 20.5482 60.4771 22.1847 60.1843C23.7032 59.9126 25.2987 60.3893 26.8275 59.918C27.0425 59.8517 27.2255 60.3516 27.438 59.9366C27.6828 60.3086 27.9119 59.9134 28.1484 59.9085C30.0011 59.8699 31.8638 60.094 33.7053 59.7051C33.9522 59.6529 34.3216 59.6102 34.4629 59.744C34.7831 60.0472 34.9396 59.5738 35.2176 59.6786C35.4483 59.7656 35.7378 59.6964 36.0012 59.6964C37.5077 59.6964 39.0141 59.7088 40.5197 59.6881C40.907 59.6827 41.3386 59.8592 41.6861 59.4942C41.7251 59.4537 41.9284 59.5858 42.0602 59.6148C42.235 59.6533 42.5195 59.7502 42.5725 59.6806C42.7825 59.406 42.9068 59.6458 43.0861 59.674C43.2647 59.7018 43.4722 59.4847 43.6669 59.4847C43.9812 59.4847 44.3486 59.3277 44.5996 59.6732C44.8179 59.4147 45.1182 59.4702 45.4003 59.4727C45.6865 59.4752 46.005 59.3795 46.2088 59.6927C46.4118 59.3721 46.7353 59.4744 47.0202 59.4735C48.9032 59.4677 50.7866 59.5141 52.6679 59.4582C54.5193 59.4027 56.3874 59.7154 58.2231 59.2445C58.4493 59.4615 58.7429 59.3447 58.9964 59.365C59.3237 59.3919 59.6612 59.2553 59.9947 59.254C60.3807 59.2528 60.8028 59.1206 61.1358 59.4508C61.5044 59.0469 61.9849 59.2573 62.4057 59.2557C67.3757 59.2387 72.3461 59.2453 77.3166 59.2428C77.6794 59.2428 78.0427 59.2209 82.3429 59.1136" fill="black"/>
<path fill-rule="evenodd" clip-rule="evenodd" d="M32.2451 43.6057C32.0492 43.9504 31.9663 44.097 31.8586 44.2867H32.9385C32.9471 44.2544 32.9558 44.2221 32.9641 44.1902C32.8593 44.1628 32.7554 44.1305 32.6498 44.109C32.547 44.0879 32.4431 44.0783 32.3134 44.0601C32.3304 43.9247 32.3109 43.7582 32.3611 43.7341C32.61 43.612 32.8697 43.4844 33.1389 43.4384C33.7428 43.3353 34.3563 43.2889 34.9627 43.1998C35.2642 43.1551 35.5591 43.066 35.8441 43.0002C36.1796 43.4976 35.5318 43.332 35.4999 43.5995C36.2823 43.8816 36.9554 43.2272 37.715 43.3477C37.2109 43.2201 36.7085 43.042 36.1319 43.3419C36.2007 43.2205 36.24 43.0449 36.3436 42.9894C36.5553 42.8755 36.798 42.8117 37.0349 42.7554C37.4222 42.6638 37.8496 42.9144 38.2174 42.6092C38.5049 42.371 38.9154 42.6547 39.2459 42.3288C39.412 42.1647 39.8726 42.3002 40.24 42.3002C39.938 42.9293 39.4389 42.6804 39.0351 42.7591C38.671 42.8299 38.3181 42.9612 37.983 43.1969C38.8019 43.124 39.6431 43.1418 40.4342 42.9517C41.1856 42.7707 41.915 42.4936 42.7037 42.3453C42.1747 42.3163 41.645 42.2873 41.116 42.2583V42.1217C42.2302 41.9456 43.3453 41.7696 44.4595 41.594C44.4723 41.6528 44.4843 41.712 44.4967 41.7708C43.9757 41.9067 43.4546 42.043 42.9344 42.1788C43.4194 42.238 43.9106 42.5052 44.3679 42.1038C45.3844 42.1461 46.3644 41.6172 47.4222 41.9179V42.668C47.2367 42.7517 47.0333 42.477 46.8345 42.7405C46.7401 42.8651 46.3938 42.603 46.3072 42.9608C46.284 43.0578 46.0811 43.2106 46.0479 43.1907C45.4974 42.8651 44.9594 43.2694 44.4218 43.1982C44.254 43.1758 44.0954 43.0859 43.8982 43.0147C43.8676 43.1775 43.8286 43.3817 43.7893 43.5867C43.4716 43.3212 43.0669 43.8986 42.7757 43.4508C42.7186 43.6107 42.6722 43.7412 42.6088 43.9185C42.2029 43.7747 41.8222 43.486 41.3592 43.7462C41.4229 43.8249 41.4843 43.9007 41.6371 44.0899C40.9358 43.9963 40.329 43.916 39.7019 43.8327C39.4277 44.1069 39.1722 44.3617 38.9725 44.5613C38.6171 44.5572 38.4689 44.1409 38.1056 44.483C37.8219 44.7506 37.3663 44.8728 36.9653 44.9656C36.7081 45.0252 36.4032 44.9436 36.1353 44.8699C35.9451 44.8173 35.7915 45.0235 35.5446 44.8131C35.2861 44.5932 35.3151 45.0542 35.1818 45.176C35.0571 45.2891 34.8724 45.4199 34.7237 45.4092C34.1272 45.3644 33.5656 45.6792 32.9691 45.5541C32.9385 45.5475 32.9153 45.5036 32.8892 45.4771C32.2505 46.1336 31.3069 45.8462 30.6061 46.1999C30.0208 46.4952 29.3448 46.1125 28.847 46.5925C27.2274 46.9401 25.5706 47.1281 24.0083 47.7221C23.0473 47.6082 22.2231 48.1682 21.2919 48.275C20.4316 48.3744 19.5341 48.5857 18.7343 48.8922C17.2866 49.4464 15.7023 49.4978 14.3131 50.2073C13.8086 50.0975 13.4992 50.3887 13.1525 50.6952C12.9607 50.8646 12.6231 50.8683 12.397 50.9334C11.909 50.5502 11.6261 50.0383 11.0811 49.861C11.1771 49.4878 11.2737 49.1109 11.3884 48.6631C12.638 48.256 13.9274 47.7121 15.325 47.4802C15.9719 47.3725 16.5763 47.0175 17.2224 46.9028C18.0264 46.7599 18.8067 46.4969 19.6049 46.3929C20.4582 46.2811 21.2621 46.0027 22.0893 45.8172C22.5996 45.7024 23.1343 45.5773 23.6363 45.5032C24.4867 45.3781 25.277 45.0347 26.1348 44.9552C26.6509 44.9076 27.1483 44.6843 27.6603 44.5638C28.0095 44.4809 28.3971 44.7005 28.7306 44.4167C29.0139 44.1753 29.4935 44.529 29.73 44.1073C30.3613 44.2188 30.9482 43.9657 31.5546 43.8758C31.7124 43.8526 31.8595 43.7598 32.2451 43.6057" fill="black"/>
</svg>
