<svg width="102" height="138" viewBox="0 0 102 138" fill="none" xmlns="http://www.w3.org/2000/svg">
<path fill-rule="evenodd" clip-rule="evenodd" d="M73.7066 58.8465C73.6428 58.8436 73.5786 58.8403 73.5148 58.8374C73.2589 59.8547 73.0774 60.8989 72.7254 61.8813C72.3741 62.8605 72.0635 63.8347 71.8526 64.9179C72.3625 64.6809 72.6798 64.4245 72.7858 63.9515C72.9465 63.2325 73.316 62.5627 73.2883 61.7989C73.7236 61.3897 73.3231 60.8305 73.567 60.3376C73.7737 59.9197 73.6718 59.3493 73.7066 58.8465V58.8465ZM95.7127 112.723C95.5396 112.279 95.3983 112.071 95.3855 111.854C95.3461 111.204 95.3246 110.568 95.1833 109.915C95.0417 109.261 94.8756 108.609 94.7538 107.957C94.5712 106.98 94.1031 106.042 94.2377 105.008C94.2406 104.989 94.1429 104.956 94.0646 104.916C93.867 105.996 94.227 107.007 94.3392 108.039C94.4133 108.724 94.5086 109.402 94.6822 110.071C94.7273 110.246 94.5935 110.468 94.5264 110.727C94.5952 110.793 94.7538 110.905 94.852 111.057C94.8872 111.111 94.7091 111.301 94.7443 111.359C94.8396 111.514 95.0562 111.612 95.1104 111.771C95.1539 111.899 95.0301 112.084 94.9605 112.311C95.1005 112.388 95.2977 112.495 95.7127 112.723V112.723ZM32.6228 123.2C32.8104 123.845 32.9045 124.472 33.1749 125.012C33.4533 125.568 33.6554 126.193 34.169 126.534C34.0518 126.8 33.9719 126.978 33.8078 127.349C34.3799 126.925 34.7394 126.962 35.0513 127.367C35.1855 127.542 35.4576 127.676 35.4837 127.856C35.5628 128.397 35.888 128.103 36.2168 128.14C35.4381 127.352 35.0786 126.396 34.6251 125.514C34.1732 124.634 33.4906 123.963 32.9057 123.204C32.8784 123.169 32.7641 123.2 32.6228 123.2V123.2ZM70.0219 82.2795C70.1586 81.7551 69.9187 81.1686 70.2965 80.7014C70.2136 79.7508 70.8548 78.9195 70.748 77.9648C71.1191 77.6123 70.8378 77.1032 71.0259 76.7313C71.4169 75.9571 71.3084 75.0691 71.6402 74.2854C71.6737 74.2067 71.5407 74.0576 71.4857 73.9408C71.3904 74.0179 71.2624 74.0758 71.2052 74.1744C70.7674 74.9341 70.5786 75.789 70.2795 76.6025C70.0132 77.3257 69.7294 78.0634 69.6507 78.8052C69.529 79.9451 69.6189 81.1073 69.6189 82.2795H70.0219ZM98.9894 49.6777C98.9894 49.1546 98.8925 48.6062 99.0164 48.1141C99.1414 47.6187 98.4729 47.1797 98.9874 46.715C98.5351 46.3181 98.849 45.7967 98.7654 45.3398C98.6817 44.8838 98.5976 44.4265 98.5409 43.9659C98.4522 43.246 98.5197 42.4727 98.2696 41.8183C98.0683 41.2939 98.2472 40.772 98.0604 40.3263C97.8342 39.785 97.867 39.2573 97.8632 38.7159C97.8612 38.3858 97.7439 38.0942 97.6644 37.7856C97.565 37.4012 97.3662 37.091 97.208 36.7497C97.8057 36.478 96.7598 35.925 97.3943 35.6599C97.3235 35.5046 97.2717 35.3364 97.1765 35.1981C97.0825 35.0614 96.86 34.9661 97.1293 34.7955C97.0394 34.6613 96.9499 34.5275 96.8667 34.4028C96.5713 34.5921 96.3021 34.7644 95.9968 34.9599C96.2652 35.172 96.4686 35.4276 96.7291 35.5158C97.1197 35.6475 96.8277 35.7345 96.7548 35.8476C97.1338 36.0828 96.7929 36.3744 96.8285 36.63C96.8629 36.8768 96.7826 37.1167 96.8381 37.3494C96.9296 37.7359 96.819 38.2474 97.4196 38.3638C97.2597 38.4392 97.1114 38.5096 96.952 38.585C97.3761 38.899 97.1429 39.2158 96.9839 39.5518C97.2034 39.5849 97.4105 39.6164 97.681 39.657C97.6106 39.9042 97.5439 40.1006 97.5008 40.3023C97.4747 40.4261 97.4337 40.5856 97.4859 40.6821C97.838 41.337 98.0832 42.1148 98.0852 42.6926C98.0865 43.0315 97.9751 43.4233 98.1072 43.6979C98.4348 44.3784 98.3499 45.0312 98.1929 45.7101C98.1759 45.7834 98.1826 45.9143 98.2257 45.9416C98.5757 46.1591 98.5404 46.4983 98.5384 46.8338C98.5346 47.4734 98.528 48.1133 98.5433 48.7524C98.5479 48.9347 98.7219 49.1836 98.651 49.2847C98.3996 49.6434 98.8693 49.5775 98.9894 49.6777V49.6777ZM40.1762 52.4914C40.1248 52.4972 40.0735 52.5034 40.0221 52.5092C40.0221 52.7992 40.0511 53.0932 40.0138 53.3786C39.9757 53.6702 39.873 53.9535 39.7595 54.3926C39.9741 54.2066 40.0515 54.1395 40.206 54.0057C40.317 54.6349 40.3891 55.226 40.5291 55.8005C40.7552 56.7245 40.9971 57.6437 41.1558 58.5839C41.2386 59.076 41.4644 59.5448 41.3931 60.0622C41.8757 60.4225 41.4677 61.0132 41.7891 61.487C42.0604 61.8859 41.9539 62.5296 42.0629 63.0548C42.1801 63.6214 42.3607 64.1756 42.2816 64.7663C42.6573 65.0889 42.3329 65.6199 42.5363 65.8904C42.8635 66.3265 42.6394 66.7552 42.7359 67.1707C42.7749 67.3393 42.8474 67.5 42.8967 67.6669C42.9957 68.002 43.1609 68.3367 43.1704 68.6751C43.1928 69.4364 43.5296 70.1173 43.658 70.8505C43.7101 71.1491 43.9951 71.4071 44.2565 71.8118C44.2896 71.5339 44.3447 71.4109 44.3078 71.3276C43.9516 70.515 43.798 69.624 43.6836 68.7815C43.4952 67.3989 42.8863 66.0938 42.9592 64.6731C42.5226 64.2141 42.8175 63.5783 42.5433 63.0386C42.2977 62.5552 42.4742 61.8639 42.2472 61.3628C42.0359 60.8968 42.1499 60.435 42.0045 59.9967C41.4267 58.2583 41.1549 56.445 40.7014 54.6759C40.5158 53.9506 40.351 53.2196 40.1762 52.4914V52.4914ZM69.2411 42.4445C68.6724 42.4835 68.6641 42.8302 68.7138 43.215C68.7664 43.6217 68.7449 44.4745 68.5945 44.7827C68.5009 44.9749 68.4578 45.0847 68.6057 45.2578C69.0207 45.7466 68.3974 45.6248 68.264 45.8166C68.4181 45.889 68.5688 45.9595 68.7598 46.0489C68.5444 46.5721 68.2814 47.0604 68.1969 47.6415C68.1406 48.0334 68.4301 48.3544 68.2611 48.7118C68.2354 48.7657 68.1791 48.8046 68.1426 48.8448C68.0573 48.7752 67.9819 48.7135 67.8771 48.6277C67.6013 49.1343 68.1704 49.0171 68.2164 49.1186V50.1673C68.049 50.2241 67.9339 50.2626 67.8254 50.2994C68.0134 50.5393 68.1662 50.7344 68.3485 50.9676C68.1223 51.1452 67.9467 51.2832 67.7997 51.3983C68.1493 51.9186 68.0842 52.4106 67.9451 52.9114C67.9235 52.9872 67.9007 53.1322 67.9227 53.1413C68.4491 53.3645 68.1406 53.9345 68.3899 54.3603C68.9756 53.5439 68.5755 52.6919 68.7693 51.7711C68.8315 51.7272 69.0071 51.6021 69.1636 51.4907C68.8994 50.8768 68.8418 50.8474 68.998 50.5244C69.1736 50.1603 68.8186 49.8973 68.9309 49.5547C69.051 49.1865 69.1032 48.7942 69.1574 48.4086C69.1686 48.327 69.046 48.2334 69.01 48.1361C68.9752 48.0408 68.9342 47.9215 68.9619 47.8341C69.0787 47.47 69.2212 47.1142 69.3538 46.7555C68.9449 46.3575 69.331 45.988 69.3828 45.6028C69.3989 45.4815 69.2904 45.3452 69.2465 45.2131C69.2138 45.1137 69.1442 44.9409 69.1757 44.9186C69.5248 44.6696 69.2436 44.2123 69.4279 44.0102C69.7617 43.6441 69.3881 43.3135 69.4672 43.0716C69.7916 42.0763 69.5074 41.0764 69.6205 40.0894C69.6549 39.7891 69.7096 39.4913 69.7584 39.1678C69.6756 39.1719 69.5257 39.1355 69.4805 39.1885C69.2382 39.4702 69.5857 39.9432 69.1761 40.1987C69.1603 40.2083 69.3099 40.4323 69.3314 40.5649C69.3517 40.6871 69.3521 40.8818 69.2788 40.9393C68.6964 41.3966 68.9619 41.8999 69.2411 42.4445V42.4445ZM90.1781 126.691C91.1113 125.762 91.9472 124.966 92.5101 123.922C93.295 122.465 93.7465 120.929 93.7991 119.273C93.8074 119.012 94.0199 118.691 93.925 118.508C93.7423 118.153 93.7386 117.908 94.0136 117.634C94.048 117.6 94.0397 117.453 94.002 117.426C93.6512 117.173 93.7742 116.801 93.8057 116.496C93.8981 115.607 93.5361 114.791 93.4772 113.926C93.3633 114.232 93.2204 114.542 93.2391 114.842C93.2565 115.128 93.1272 115.363 93.1177 115.626C93.1065 115.964 93.1252 116.302 93.1123 116.64C93.1012 116.93 93.1268 117.245 93.0208 117.502C92.9131 117.762 93.039 118.006 92.9193 118.286C92.7114 118.772 93.0262 119.342 92.7238 119.897C92.4658 120.371 92.9003 121.106 92.2226 121.487C92.4099 121.637 92.4803 121.832 92.4368 122.064C92.3676 122.43 91.3081 124.082 90.9353 124.346C90.6557 124.544 90.6893 125.038 90.237 125.054C90.2175 125.347 90.1935 125.639 90.1798 125.931C90.1711 126.116 90.1781 126.301 90.1781 126.691V126.691ZM29.2214 80.3315C29.2011 80.6997 29.1203 80.9379 29.1899 81.1181C29.4393 81.7659 29.7346 82.3963 30.0237 83.0284C30.0966 83.1874 30.2378 83.3163 30.302 83.4774C30.4694 83.897 30.4396 84.4102 30.8219 84.7245C31.1744 85.0145 30.6964 85.7559 31.4365 85.8081C31.642 86.8117 32.2819 87.6529 32.5333 88.6201C32.6899 89.2223 33.1617 89.6585 33.2329 90.25C33.3526 91.2453 34.2096 91.9859 34.1558 93.033C34.1533 93.0831 34.2717 93.1299 34.3053 93.1933C34.5497 93.656 34.9274 94.1041 34.9887 94.5916C35.0633 95.179 35.6154 95.577 35.5102 96.195C35.5073 96.2112 35.6071 96.2447 35.6581 96.27C35.7678 96.0111 35.8739 95.7622 35.9878 95.4954C35.8051 95.4283 35.6751 95.3803 35.5322 95.3277C35.5102 95.005 35.5243 94.6695 35.4551 94.3518C35.3851 94.0316 35.0562 93.6473 35.1544 93.4377C35.3309 93.0608 34.9158 92.9029 35.0024 92.5596C35.0591 92.3338 34.8131 91.9246 34.5853 91.7568C34.1972 91.4715 34.669 90.9781 34.4354 90.9181C33.8257 90.7619 34.3041 90.3432 34.1516 90.098C33.9859 89.8312 33.8364 89.5529 33.6989 89.2708C33.5465 88.9585 33.4177 88.635 33.2744 88.3186C33.1451 88.0336 32.9931 87.7577 32.8813 87.4665C32.7562 87.1418 32.6849 86.7955 32.5524 86.4745C32.4331 86.1854 32.2633 85.917 32.1142 85.6403C31.9651 85.3641 31.8073 85.0915 31.6644 84.8115C31.5065 84.5013 31.3512 84.1894 31.2141 83.87C31.0907 83.583 31.0228 83.269 30.877 82.9952C30.727 82.7148 30.4963 82.4783 30.3315 82.2045C30.1521 81.9063 30.02 81.5799 29.8452 81.2792C29.6845 81.0021 29.4939 80.7428 29.2214 80.3315V80.3315ZM13.2059 99.888C13.0713 99.1992 12.899 98.7792 12.9338 98.3774C12.9781 97.8754 12.8418 97.4136 12.6596 97.0131C12.3655 96.3665 12.2106 95.6901 12.0122 95.0232C11.6924 93.9492 11.4045 92.8661 11.103 91.7867C10.8383 90.8361 10.3707 89.9327 10.4258 88.9067C10.0373 88.3037 10.3338 87.4914 9.76926 86.909C9.56051 86.6932 9.63299 86.226 9.50749 85.9C9.43956 85.7232 10.0368 85.5782 9.52696 85.4738C9.02701 85.3715 9.62181 85.1851 9.46772 85.0683C8.93092 84.6616 8.85056 84.037 8.75985 83.4463C8.64636 82.709 8.26613 82.0654 8.11619 81.3289C7.99607 80.7424 7.90453 80.0958 7.57317 79.5292C7.36897 79.1805 7.31015 78.7228 7.27163 78.3057C7.16394 77.1331 6.76506 76.0263 6.48879 74.8972C6.18642 73.6608 5.99962 72.4029 5.6811 71.1727C5.90145 70.8542 5.28761 70.5468 5.66826 70.2258C5.52204 69.9139 5.34394 69.612 5.2379 69.2868C5.12772 68.9493 5.22672 68.6013 5.0921 68.2199C4.74169 67.2295 4.56441 66.1779 4.32707 65.1481C4.16802 64.4602 4.04832 63.7618 3.86731 63.0796C3.66974 62.3378 3.30607 61.6225 3.22116 60.8724C3.0679 59.5187 2.71749 58.2003 2.55802 56.8616C2.41056 55.629 2.16122 54.3872 2.28009 53.121C2.34678 52.4123 2.30412 51.692 2.28589 50.9775C2.27926 50.6971 2.23743 50.4254 2.15169 50.1375C2.00051 49.628 2.02039 49.027 2.1198 48.4927C2.2892 47.5835 2.36997 45.8041 2.16494 44.808C2.05642 45.0279 1.834 45.2615 1.86009 45.4628C1.9769 46.3608 1.64305 47.2021 1.59997 48.0802C1.47116 50.7294 1.88412 53.3583 1.84104 56.0018C1.83855 56.15 1.81039 56.3149 1.86216 56.4445C2.27761 57.4817 2.28258 58.6 2.50914 59.6741C2.55471 59.889 2.5195 60.0999 2.72784 60.2664C2.9863 60.4726 2.30163 60.6764 2.68311 60.8781C3.22737 61.1656 2.7498 61.8126 3.17559 62.1634C3.27252 62.2434 3.10974 62.6315 3.07784 62.8792C3.06914 62.9492 3.0766 63.0444 3.11761 63.0933C3.42577 63.4574 3.42909 63.4545 3.19755 63.889C3.35619 64.1089 3.79234 64.2444 3.42204 64.625C3.74098 65.057 3.48542 65.7239 4.01725 66.0776C4.08104 66.1203 4.11707 66.3468 4.09015 66.3638C3.78985 66.5473 4.01974 66.6861 4.08808 66.8708C4.17299 67.1011 4.12122 67.3852 4.21814 67.6073C4.5495 68.3648 4.81997 69.1369 4.7653 69.9711C4.74376 70.2942 4.88086 70.5253 5.00388 70.7813C5.12731 71.0381 5.31122 71.2713 5.23252 71.5919C5.14678 71.9398 5.5266 72.2939 5.2292 72.6456C5.68814 73.1261 5.54151 73.8058 5.77222 74.3393C6.30985 75.5827 6.14749 77.0009 6.81062 78.1988C6.78826 78.9266 7.11548 79.586 7.22483 80.2752C7.32713 80.923 7.6995 81.5211 7.55784 82.2344C7.4982 82.5338 7.68914 82.9253 7.86311 83.2173C8.05571 83.5395 7.81713 83.9144 8.13731 84.2507C8.36595 84.4901 8.20193 85.171 8.43305 85.326C8.9011 85.6391 8.2069 86.0115 8.59376 86.2293C8.77849 87.385 9.61808 88.2983 9.78997 89.4593C10.2924 89.7024 10.135 90.2189 10.2704 90.6149C10.4175 91.0457 10.6648 91.4429 10.6581 91.9242C10.6557 92.1035 10.7567 92.2825 10.7613 92.4631C10.7675 92.666 10.659 92.886 10.7066 93.0707C10.7936 93.4074 11.3474 93.6237 10.9543 94.0847C11.1423 94.399 11.3511 94.7039 11.5118 95.0319C11.6336 95.28 11.6299 95.6106 11.7943 95.8123C12.1385 96.2327 11.8287 96.7869 12.0942 97.1555C12.4197 97.6087 12.032 98.1161 12.3704 98.5029C12.802 98.7684 12.7018 99.3579 13.2059 99.888V99.888ZM28.7413 132.566C28.4642 132.35 27.9941 132.668 28.0165 132.112C28.0181 132.067 27.6056 132.053 27.4378 131.945C26.9048 131.601 26.358 131.301 25.7562 131.089C25.5632 131.021 25.3942 130.837 25.2542 130.672C24.6312 129.939 23.9875 129.229 23.1177 128.779C22.996 128.716 23.2494 128.158 22.7897 128.538C22.7288 128.588 22.5084 128.409 22.3564 128.396C21.9377 128.362 21.5922 128.188 21.3321 127.875C21.2016 127.718 21.1175 127.513 21.048 127.318C20.8852 126.857 20.7936 126.365 20.5828 125.929C19.9429 124.608 19.5407 123.198 19.0151 121.834C18.8274 121.347 18.7007 120.835 18.5271 120.342C18.3544 119.849 18.1067 119.378 17.9833 118.875C17.799 118.122 17.5061 117.419 17.2141 116.706C16.937 116.03 16.756 115.315 16.5245 114.62C16.0515 113.197 15.6426 111.747 15.0686 110.366C14.75 109.601 14.789 108.817 14.6113 108.053C14.6005 108.007 14.6486 107.948 14.6697 107.895C14.0571 107.942 14.2613 107.368 14.1523 107.111C13.7149 106.089 13.4097 105.012 13.0079 103.971C12.8882 103.661 12.8981 103.658 13.1363 103.198C12.9855 103.117 12.713 103.048 12.7039 102.954C12.6099 101.994 11.9297 101.187 11.9964 100.186C12.0039 100.07 11.8622 99.9464 11.7951 99.8226C11.7123 99.6693 11.5557 99.5061 11.5677 99.3587C11.6551 98.3062 10.9854 97.4811 10.7468 96.528C10.603 95.9552 10.5848 95.3484 10.2224 94.8203C10.0981 94.6384 10.2398 94.2735 10.2733 93.815C9.77258 93.4294 9.49299 92.7344 9.52157 91.9155C9.52406 91.8401 9.55181 91.7448 9.51743 91.6922C8.74287 90.5225 8.90565 89.0277 8.18826 87.8339C8.13358 87.7424 8.29015 87.5237 8.35808 87.3386C7.79104 86.9351 7.61914 86.2968 7.47293 85.606C7.30684 84.8223 7.04051 84.0577 6.78412 83.2964C6.4366 82.265 6.10855 81.2308 5.90104 80.1596C5.83477 79.8192 5.684 79.4961 5.59453 79.1589C5.51832 78.8744 5.60903 78.531 5.39696 78.3011C5.01382 77.8848 5.4711 77.2569 5.00346 76.8796C5.06767 76.2454 4.60417 75.7405 4.564 75.1453C4.52258 74.5294 4.20861 73.9694 4.16429 73.3995C4.09222 72.4571 3.76666 71.5832 3.60471 70.6711C3.45974 69.8551 3.43944 68.9758 3.00784 68.2178C2.93867 66.7855 2.24944 65.499 2.04855 64.0919C1.95494 63.435 1.70518 62.8 1.57015 62.1398C1.49974 61.7968 1.40364 61.4526 1.38914 61.0948C1.38459 60.9817 1.43719 60.8255 1.38086 60.7626C0.899559 60.2208 0.911571 59.5693 0.931452 58.9119C0.56737 58.6729 0.768257 58.2993 0.70737 57.9874C0.646896 57.6768 0.496955 57.3715 0.495299 57.0638C0.4866 55.3216 0.193346 53.5994 0.228553 51.8477C0.257961 50.3781 -0.140914 48.897 0.0537601 47.4266C0.272458 45.7714 0.228967 44.067 0.923583 42.4839C1.2508 41.7383 1.57429 41.0197 2.06512 40.3516C2.52985 39.7195 3.05962 39.1682 3.61092 38.6297C4.20737 38.0466 4.91772 37.6713 5.76435 37.5578C6.1069 37.5118 6.44447 37.3896 6.7692 37.2621C7.30352 37.0525 7.8598 36.9717 8.41317 36.8512C9.14382 36.6917 9.8608 36.7058 10.5865 36.6557C11.4373 36.5968 12.1828 37.0218 12.9955 37.1332C13.0961 37.1469 13.1624 37.4128 13.1951 37.4721C13.4225 37.4559 13.6358 37.3772 13.7845 37.4426C14.1358 37.598 14.4597 37.8167 14.7881 38.02C15.059 38.1882 15.3498 38.3402 15.5784 38.556C15.8311 38.795 15.991 39.1351 16.2507 39.3629C16.4818 39.5658 16.8538 39.6201 17.0571 39.8384C17.3893 40.195 17.4515 40.7426 17.8673 41.0723C18.0218 41.1941 18.052 41.467 18.2016 41.6C18.6187 41.9707 18.7931 42.4942 19.1029 42.9167C19.3854 43.3007 19.2706 43.8242 19.7478 44.1494C20.1222 44.4045 20.292 44.9484 20.5812 45.3427C20.8815 45.7515 21.2758 46.1011 21.5239 46.5368C22.1216 47.5893 23.0502 48.4165 23.5328 49.5435C23.5878 49.6715 23.6715 49.8583 23.7746 49.8836C24.5111 50.0621 24.6101 50.8479 25.1109 51.2426C25.0512 51.598 25.2873 51.5727 25.5226 51.581C25.6129 51.5843 25.75 51.6456 25.781 51.7168C26.0561 52.3526 26.6148 52.6749 27.1367 53.0692C27.5302 53.3662 27.7779 53.8504 28.1138 54.2306C28.3876 54.5405 28.6639 54.8648 28.9977 55.1C29.3146 55.3237 29.2893 55.8589 29.7735 55.8978C29.67 56.5038 30.3783 56.5199 30.5228 56.9225C30.6827 57.3657 31.229 57.3976 31.3835 57.9075C31.4995 58.2886 31.9825 58.5586 32.3018 58.878C32.6481 59.2242 32.9939 59.5705 33.3477 59.9238C33.4255 59.8542 33.5038 59.7842 33.5817 59.7151C33.5775 59.8994 34.0783 59.8381 33.8029 60.1968C33.7325 60.2883 33.8211 60.6085 33.9367 60.7179C34.3707 61.1283 34.6408 61.719 35.1962 61.9812C35.5914 62.1676 35.6382 62.5362 35.8453 62.8232C36.2305 63.3571 36.788 63.7672 37.2797 64.2228C37.3252 64.2655 37.4644 64.251 37.4723 64.2833C37.7573 65.5193 39.0794 65.8084 39.7003 66.7316C39.9968 67.1723 40.2744 67.6263 40.5672 68.0853C40.8091 67.7444 41.0452 67.7899 41.2833 68.0521C41.3169 67.9829 41.3807 67.9154 41.3724 67.8583C41.3065 67.3985 41.3625 66.8435 41.1189 66.5063C40.7801 66.0362 41.0464 65.5238 40.7834 65.0496C40.5382 64.608 40.5618 64.0153 40.4752 63.4876C40.3941 62.9926 40.3978 62.4695 40.2333 62.0052C39.8191 60.8363 39.837 59.5742 39.3697 58.4108C39.1477 57.8607 39.2045 57.2017 39.1142 56.5949C39.062 56.2461 39.0512 55.8493 38.8706 55.5726C38.6644 55.2579 38.7915 54.8797 38.6374 54.6552C38.4415 54.3698 38.4879 54.1064 38.4336 53.8268C38.2928 53.099 38.1524 52.3676 37.9478 51.6564C37.5961 50.4341 37.191 49.2271 37.085 47.9484L36.7304 47.0401C36.3001 46.5845 36.4637 45.9561 36.2769 45.4222C36.112 44.9525 35.7413 44.4621 36.0545 43.9C36.0888 43.8379 36.0917 43.7277 36.0599 43.6648C35.5338 42.6189 35.0343 41.0147 34.9477 40.0455C34.9432 39.9941 35.0107 39.9055 34.9945 39.8906C34.4213 39.3782 34.7829 38.561 34.3741 37.9985C34.4606 36.8247 33.817 35.7481 33.9151 34.5706C33.9259 34.4409 33.8468 34.3018 33.8 34.1696C33.597 33.5922 33.3829 33.0198 33.467 32.3861C33.51 32.0568 33.4156 31.761 33.2594 31.4558C33.117 31.1783 33.3112 30.8419 33.1062 30.4994C32.8357 30.0471 32.9873 29.466 32.8341 28.9279C32.5309 27.8647 32.4687 26.7326 32.3146 25.6288C32.1838 24.691 31.9725 23.7537 31.7426 22.8263C31.5977 22.2419 31.5997 21.621 31.4419 21.0283C31.2791 20.4152 31.2862 19.7625 31.0112 19.1722C30.9677 19.079 30.988 18.9548 30.9855 18.8446C30.9755 18.3384 30.9631 17.8518 30.7867 17.3473C30.6268 16.89 30.8836 16.3229 30.5332 15.869C30.5332 14.8148 30.5381 13.7603 30.5315 12.7061C30.5261 11.908 30.623 11.1554 30.8952 10.3742C31.1437 9.65886 31.239 8.86483 31.4233 8.10726C31.6975 6.98188 32.0011 5.86685 32.4716 4.81229C32.6638 4.38235 32.6862 3.90767 32.8751 3.5117C33.3903 2.43022 34.116 1.52975 35.3582 1.18306C35.8146 1.0559 36.2533 0.936609 36.7358 0.958562C37.4122 0.989213 38.0936 1.00247 38.7679 0.957319C39.6568 0.897674 40.5142 1.15241 41.2693 1.47424C43.1849 2.29063 45 3.32034 46.1539 5.17803C46.7388 5.2646 46.6551 5.86767 46.9339 6.19324C47.2126 6.51921 47.4508 6.87998 47.703 7.22833C47.901 7.50211 47.8203 7.78046 47.689 8.07495C48.0729 8.21122 48.2655 8.50531 48.5 8.82838C48.8728 9.34158 48.734 9.98483 49.1544 10.5005C49.5032 10.9296 49.5595 11.6019 49.9078 12.0948C49.5931 12.5815 50.4285 12.791 50.1891 13.2595C50.6513 13.5797 50.168 14.2279 50.5146 14.4582C50.8899 14.708 51.0825 15.0671 51.2958 15.3856C51.6587 15.9265 51.6558 16.6754 52.2067 17.1356C52.0389 17.2603 51.9722 17.3709 52.1669 17.5544C52.1971 17.5825 51.9602 17.8422 52.2083 18.0203C52.6627 18.3459 52.9373 18.8106 53.0901 19.345C53.2335 19.8486 53.5648 20.2637 53.6236 20.8328C53.6593 21.179 53.6584 21.6736 53.9115 21.9292C54.1981 22.2187 54.1969 22.5774 54.3651 22.8839C54.5519 23.2244 54.7714 23.5541 54.7204 23.9852C54.7076 24.0954 54.8294 24.2566 54.9333 24.3377C55.1375 24.4968 55.1682 24.6894 55.1645 24.9263C55.1599 25.2287 55.0203 25.6147 55.5509 25.6702C55.5952 25.6752 55.5725 26.0161 55.6387 26.1768C55.9577 26.9497 56.357 27.6915 56.5164 28.5245C56.5293 28.5916 56.5475 28.6752 56.5943 28.7158C57.0636 29.1271 57.1083 29.6971 57.2719 30.2492C57.3693 30.5773 57.3307 31.0511 57.7797 31.2905C58.068 31.4446 57.7648 31.6517 57.6571 31.8178C58.2991 32.1069 57.8804 32.9618 58.4483 33.3064C58.5319 33.3574 58.5207 33.5694 58.5468 33.7082C58.5742 33.8486 58.5431 34.0611 58.6247 34.1191C58.9002 34.3142 58.8538 34.5743 58.9076 34.8456C58.954 35.0825 59.3959 35.3422 59.3471 35.4768C59.2228 35.8181 59.5107 35.9557 59.548 36.1947C59.5931 36.478 59.6345 36.7617 59.6776 37.045C59.6884 37.1158 59.6722 37.2111 59.7124 37.2546C60.279 37.8684 60.1945 38.8132 60.9169 39.3848C60.6075 39.5861 60.3822 39.7328 60.1428 39.8881C60.1925 39.9568 60.2169 40.026 60.2633 40.048C60.5147 40.1668 60.7844 40.253 61.0217 40.3938C61.131 40.4584 61.276 40.6821 61.2449 40.731C60.8858 41.2881 61.3427 41.3502 61.72 41.4906V42.4777C62.1334 42.5141 62.3235 42.7933 62.1433 43.0638C61.8629 43.4846 62.1177 43.765 62.3666 43.8665C62.7601 44.0272 62.8545 44.2546 62.8475 44.6228C62.845 44.7562 62.8761 44.9558 62.9647 45.0155C63.4477 45.3386 63.4506 45.8621 63.6316 46.3293C63.7401 46.6093 63.6299 46.9813 63.9832 47.2128C64.2338 47.3768 64.3664 47.7186 64.5552 47.9787C64.7661 48.2686 64.9612 48.5735 65.1997 48.8386C65.4097 49.0718 65.2991 49.2014 65.1567 49.4023C65.1061 49.4735 65.2991 49.6885 65.3178 49.8455C65.348 50.099 65.3261 50.3591 65.3261 50.6457C65.558 50.5567 65.7316 50.49 65.9805 50.3947C65.9039 50.7161 65.5912 50.9497 65.949 51.1921C66.1019 51.2956 66.3607 51.4501 66.0265 51.6642C66.1056 51.7098 66.2029 51.81 66.2605 51.791C66.5973 51.68 66.7712 51.3478 66.6702 51.0069C66.6416 50.9108 66.5132 50.8487 66.4622 50.7542C66.4324 50.7004 66.4668 50.6118 66.4742 50.5181C66.5981 50.4734 66.7286 50.4262 66.8872 50.369C66.8168 50.2568 66.6681 50.0841 66.6942 50.0513C66.9294 49.7573 66.5923 49.3679 66.7083 49.235C67.0119 48.8874 66.8868 48.5267 66.8984 48.1754C66.9125 47.7741 66.9609 47.4025 67.1138 47.019C67.2235 46.7448 67.2173 46.4209 67.1709 46.0792C67.096 45.5254 66.9626 44.8995 67.3594 44.3706C67.0574 43.9812 67.3851 43.5923 67.383 43.2021C67.3801 42.6649 67.1925 42.109 67.516 41.571C67.7757 41.1386 67.3697 40.5347 67.8113 40.1138C67.733 39.4494 68.0035 38.8124 68.0101 38.1741C68.0221 36.9651 68.2984 35.795 68.5365 34.6439C68.8091 33.3263 69.1976 32.015 69.7303 30.7425C70.4526 29.0182 71.2599 27.3486 72.3534 25.8504C73.0588 24.8849 73.4821 23.6444 74.6982 23.0984C74.7657 23.0682 74.7607 22.9017 74.8179 22.8172C75.2988 22.1015 75.998 21.6334 76.77 21.3306C77.0368 21.2263 77.2857 21.1521 77.533 20.9806C77.8113 20.7876 78.1195 20.6095 78.5101 20.6066C78.856 20.6041 79.1993 20.4645 79.5464 20.3979C79.8939 20.3316 80.3007 20.5548 80.5881 20.175C80.6159 20.1386 80.7331 20.1758 80.8081 20.1692C81.6804 20.0955 82.5539 20.0321 83.4246 19.9381C83.7738 19.9004 84.118 19.7235 84.4605 19.7339C85.0338 19.7517 85.6016 19.8975 86.1757 19.936C86.7378 19.9737 87.3123 19.8855 87.8673 19.9605C88.4542 20.0396 89.0536 20.1787 89.5941 20.4144C90.1723 20.6663 90.8512 20.6671 91.3487 21.0809C91.8192 21.4723 92.4695 21.6061 92.8717 22.0066C93.2788 22.4129 94.058 22.5579 94.0281 23.3557C94.0257 23.4211 94.1412 23.5164 94.222 23.5553C95.0458 23.95 95.2521 24.79 95.5806 25.5141C95.7661 25.9221 95.8233 26.4245 95.8051 26.8789C95.7885 27.2964 96.2661 27.0582 96.2793 27.351C96.2893 27.571 96.2619 27.8067 96.3323 28.0067C96.5328 28.5787 96.7233 29.147 96.7333 29.7617C96.7349 29.8648 96.7519 29.985 96.807 30.0678C97.28 30.7831 97.2291 31.6297 97.4076 32.418C97.4851 32.7626 97.7116 33.1751 97.5973 33.4377C97.4333 33.8142 97.587 34.0996 97.6495 34.3929C97.8467 35.3244 97.7878 36.3069 98.2497 37.1929C98.3901 37.4613 98.2161 37.9082 98.3752 38.1489C98.5533 38.4189 98.3694 38.6587 98.4936 38.9371C98.6697 39.3302 98.871 39.7862 98.7794 40.2952C98.7045 40.7144 99.0516 41.0889 99.0122 41.5561C98.9778 41.9678 99.1576 42.3932 99.2102 42.8169C99.2628 43.2427 99.1058 43.7016 99.436 44.0823C99.4732 44.1254 99.4376 44.2289 99.4417 44.3039C99.5163 45.6281 99.4819 46.9701 99.6903 48.2732C100.089 50.765 99.781 53.2606 99.8895 55.7512C99.9048 56.1074 99.887 56.1078 100.293 56.6289C100.322 56.1144 100.346 55.6961 100.377 55.1622C100.541 55.2384 100.776 55.2914 100.78 55.3581C100.81 55.8837 100.823 56.4135 100.782 56.9374C100.768 57.1172 100.589 57.2841 100.489 57.4502C100.161 57.3115 100.635 56.6347 99.9636 56.8003C100.168 57.1897 100.112 57.6474 100.509 58.0007C100.835 58.2898 100.311 58.7939 100.498 59.2131C100.504 59.2255 100.432 59.2607 100.425 59.2918C100.321 59.7391 100.015 60.1405 99.9404 60.5489C99.8704 60.9357 100.202 61.3922 100.339 61.8234C100.369 61.9166 100.324 62.0329 100.308 62.1816C100.172 62.11 100.071 62.0566 99.8796 61.9555C100.1 62.9057 100.46 63.8339 99.6389 64.6577C100.252 65.3312 99.6381 65.9935 99.5685 66.6683C99.5523 66.8199 99.2044 66.9371 98.9555 67.1069C99.2098 67.1458 99.4169 67.1777 99.629 67.21C99.4132 67.7485 99.38 68.0807 99.436 68.738C99.4475 68.8751 99.4119 69.0255 99.3622 69.1568C99.2156 69.5503 99.1816 69.9164 99.2065 70.3774C99.2181 70.5845 99.1373 70.7966 99.1 71.0066C99.0619 71.2174 99.0594 71.4415 98.9816 71.6354C98.8652 71.9253 99.3966 72.231 98.9857 72.4576C98.6274 72.6547 98.895 73.0378 98.668 73.235C98.598 73.2955 98.4671 73.2855 98.1308 73.3584C98.463 73.4463 98.6403 73.4931 98.8354 73.5448C98.7306 73.6372 98.8088 73.568 98.888 73.498C99.2123 73.9541 98.7152 74.336 98.7836 74.727C98.8714 75.2306 98.4154 75.4141 98.2306 75.8445C98.4282 75.9257 98.5761 75.9866 98.7687 76.0661C98.7231 76.7251 98.8784 77.4056 98.4195 78.0397C98.1685 78.3864 98.2845 78.9957 98.603 79.8912C98.3864 79.7322 98.3093 79.6464 98.2145 79.6141C98.1229 79.5831 98.0132 79.6075 97.8591 79.6075C98.1047 79.9724 98.3151 80.2843 98.5259 80.597C98.2878 80.9189 98.0446 81.2299 98.299 81.6731C98.3483 81.7589 98.2696 81.9585 98.1946 82.0678C98.0248 82.3147 98.0177 82.5297 98.2054 82.7666C98.2667 82.8445 98.3259 83.035 98.3044 83.0495C97.6946 83.4484 98.5632 83.8365 98.3077 84.2271C98.1577 84.4553 98.021 84.6918 97.9266 84.8471C98.0728 85.0207 98.2 85.1566 98.3097 85.3044C98.5421 85.6167 97.9966 85.8686 98.2729 86.2703C98.4489 86.5263 98.3487 87.0039 98.3044 87.3742C98.1486 88.6777 98.6448 89.9377 98.5371 91.235C98.873 91.8906 98.7181 92.5993 98.7716 93.2869C98.8043 93.7106 98.9099 94.1294 98.9907 94.549C99.0652 94.935 98.9199 95.3128 99.1468 95.7311C99.3365 96.0815 99.1319 96.6249 99.2409 97.047C99.3121 97.3208 99.6029 97.5304 99.2197 97.7719C99.5329 97.9761 99.4318 98.2938 99.4405 98.5804C99.4616 99.2999 99.6426 99.9854 99.839 100.673C99.9181 100.95 99.9632 101.291 99.8704 101.548C99.7686 101.829 100.334 102.028 99.909 102.279C100.062 102.683 100.155 103.094 100.124 103.535C100.096 103.932 100.199 104.301 100.32 104.691C100.555 105.444 100.668 106.238 100.788 107.021C100.853 107.445 100.833 107.859 100.986 108.294C101.145 108.743 101.09 109.305 100.785 109.765C100.693 109.902 100.617 110.049 100.642 110.299C100.814 110.16 100.985 110.022 101.156 109.884C101.483 110.382 101.03 110.603 100.757 110.941C100.965 111.172 100.895 111.59 101.349 111.698C101.434 111.718 101.46 112.087 101.469 112.296C101.492 112.794 101.363 113.213 100.715 113.325C101.2 113.486 101.406 113.701 101.166 114.127C101.141 114.173 101.345 114.416 101.52 114.482C101.112 114.946 101.464 115.701 100.822 116.158C100.997 116.123 101.172 116.089 101.415 116.04C101.363 116.603 101.459 117.286 101.208 117.798C100.927 118.368 101.253 119.061 100.671 119.556C100.457 119.574 100.174 119.597 99.8932 119.62C99.892 119.657 99.8912 119.694 99.8899 119.732C100.093 119.769 100.296 119.807 100.571 119.859C100.578 120.353 100.361 120.783 100.169 121.231C99.6182 122.507 98.8722 123.652 98.0306 124.758C97.6027 125.32 97.1119 125.805 96.6517 126.326C96.2159 126.819 95.8237 127.353 95.366 127.823C94.2 129.02 92.9988 130.182 91.4377 130.875C90.7365 131.688 89.7238 131.99 88.8129 132.448C87.3487 133.184 85.7992 133.718 84.2559 134.262C83.4337 134.551 82.6115 134.844 81.7752 135.089C80.9352 135.334 80.0414 135.386 79.2474 135.807C79.1289 135.87 78.9578 135.851 78.8125 135.842C78.1883 135.806 77.5959 135.896 77.0417 136.208C76.9241 136.274 76.7667 136.27 76.6275 136.297C76.2075 136.377 75.7822 136.179 75.3439 136.493C75.0685 136.691 74.5483 136.398 74.2115 136.744C74.1746 136.781 74.0657 136.752 73.9907 136.749C72.4338 136.684 70.9041 137.121 69.3389 136.989C68.8468 136.948 68.3431 136.903 67.8353 137.169C67.5814 137.302 67.0997 137.348 66.8102 136.991C66.56 137.302 66.2096 137.194 65.8935 137.198C64.9897 137.207 64.0851 137.174 63.183 137.212C62.7232 137.232 62.2312 137.015 61.7975 137.415C61.5705 137.626 61.3642 136.916 61.0412 137.306C60.4331 137.204 59.8574 137.477 59.2444 137.441C58.3439 137.386 57.3908 137.251 56.5471 137.476C55.6872 137.705 54.865 137.597 54.0291 137.642C53.1278 137.69 52.222 137.634 51.319 137.663C51.0092 137.673 50.6928 137.776 50.3991 137.886C50.1087 137.995 49.8428 137.483 49.5665 137.879C49.2522 137.758 48.9382 137.534 48.6238 137.879C48.3471 137.517 48.0717 137.932 47.7942 137.88C47.5158 137.828 47.2483 137.903 46.9463 137.734C46.6572 137.573 46.2219 137.632 45.8557 137.659C44.5303 137.759 43.2322 137.481 41.9871 137.158C40.7759 136.844 39.5412 136.558 38.3599 136.113C38.1959 136.052 37.9933 136.058 37.8132 136.075C36.4857 136.205 35.2393 135.664 33.9338 135.61C33.8116 135.605 33.7018 135.452 33.5734 135.397C33.3493 135.302 33.1161 135.229 32.8858 135.148C32.6559 135.067 32.4302 134.951 32.1929 134.92C31.982 134.892 32.3399 134.374 31.8661 134.597C31.7037 134.674 31.4225 134.567 31.2228 134.481C30.9349 134.357 30.6699 134.178 30.399 134.015C29.8257 133.672 29.2537 133.326 28.6833 132.977C28.4381 132.828 28.5587 132.699 28.7413 132.566V132.566Z" fill="black"/>
</svg>
