<svg width="133" height="109" viewBox="0 0 133 109" fill="none" xmlns="http://www.w3.org/2000/svg">
<path fill-rule="evenodd" clip-rule="evenodd" d="M55.9366 60.6617C56.0862 60.5631 56.2585 60.4948 56.3657 60.3701C56.6225 60.0715 56.8031 59.6921 57.0976 59.4435C57.7798 58.8678 58.0896 58.0241 58.672 57.3792C58.8514 57.1799 58.6074 56.6701 59.145 56.6978C59.1007 56.5164 58.9777 56.3072 59.0299 56.1602C59.109 55.9378 59.4594 55.8528 59.4126 55.5318C59.3973 55.4279 59.382 55.3169 59.3314 55.2291C59.3086 55.1893 59.1815 55.1678 59.1351 55.1947C59.0862 55.2233 59.0597 55.3185 59.0539 55.3873C59.0477 55.4651 59.1156 55.5828 59.0817 55.6205C58.5738 56.1817 58.3556 56.9343 57.7575 57.4583C57.4385 57.737 57.1581 58.1811 56.9734 58.565C56.8077 58.9096 56.7178 59.1271 56.3421 59.3172C55.8774 59.5525 55.5763 60.0143 55.9366 60.6617M64.1983 54.3779V54.923C64.4041 54.8434 64.5773 54.7767 64.9973 54.6144C64.5864 55.1835 64.3337 55.5322 64.0492 55.927C63.9585 55.7041 63.9067 55.4672 63.8541 55.4668C63.6992 55.4668 63.5414 55.5534 63.3898 55.6184C63.1731 55.7108 63.3645 56.2074 62.9283 56.0898C62.814 56.4418 62.4313 56.7177 62.6272 57.1576C62.8451 57.2139 63.063 57.2707 63.3454 57.344C62.7262 57.8754 62.7266 57.8758 62.3501 58.8318C62.3249 58.896 62.2909 58.9598 62.2486 59.0144C61.9678 59.3798 61.9666 59.3785 62.2528 59.6904C62.9975 58.7117 62.9975 58.7117 63.1288 57.9081C63.256 57.9698 63.2895 58.1479 63.543 57.9893C63.8727 57.7838 63.4366 57.2996 63.9651 57.1982C64.3988 57.1149 63.9833 56.5967 64.1896 56.3967C64.4066 56.4315 64.6017 56.5127 64.7715 56.4766C64.9488 56.4385 65.1021 56.2869 65.1576 56.2525C65.1306 55.9274 65.1095 55.6739 65.0847 55.3674H65.5084C66.0054 54.9068 65.7826 54.3191 66.184 53.9326C66.2275 53.8908 66.1612 53.7342 66.1347 53.5611C65.916 53.6485 65.7441 53.7168 65.573 53.7851C65.513 53.641 65.4599 53.5126 65.4065 53.3842C65.2918 53.4393 65.1 53.4712 65.0747 53.5532C64.9322 54.0246 64.5603 54.2213 64.1983 54.3779M16.8186 48.6304C16.7085 48.7642 16.5714 48.8843 16.4922 49.0351C16.0238 49.9281 15.6928 50.8862 15.1494 51.7498C14.898 52.1495 14.8354 52.6672 14.6793 53.1286C14.5343 53.5565 14.2112 54.0063 14.2701 54.4006C14.3475 54.9147 13.5228 55.1744 14.0029 55.7037C13.5655 56.4733 13.4591 57.3551 13.1654 58.1736C12.9778 58.6976 12.7831 59.224 12.6572 59.7641C12.5288 60.3113 12.3092 60.8663 12.2649 61.3886C12.2214 61.906 11.8018 62.4241 12.158 63.0069C12.2434 63.1469 12.0214 63.6841 11.8598 63.726C11.3491 63.8577 11.4572 64.0329 11.7103 64.3034C11.2712 64.6737 11.7451 65.2842 11.3193 65.703C11.1267 65.8927 11.1246 66.2915 11.0712 66.6014C11.0186 66.905 11.1673 67.0035 11.4576 66.8859C11.5086 66.5322 11.4601 66.1143 11.6362 65.8401C11.8623 65.4884 11.5251 65.0112 11.9973 64.7308C12.2285 64.5937 11.9534 64.1029 12.3486 63.9414C12.4041 63.9186 12.3921 63.7438 12.4219 63.6427C12.8303 62.2672 13.0581 60.8419 13.5576 59.4933C13.7407 58.9987 13.7478 58.4727 13.9706 57.9731C14.1628 57.542 14.2498 57.0466 14.4453 56.5934C14.6524 56.1138 14.7236 55.584 14.8673 55.0812C15.4787 52.9393 16.3059 50.8692 16.8186 48.6304M22.4526 48.9547C22.0691 49.3089 21.7427 49.4642 21.7079 49.6688C21.5741 50.4587 21.1719 51.0991 20.8115 51.7899C20.4636 52.4568 20.2404 53.2032 19.9343 53.9061C19.6298 54.6061 19.298 55.3434 19.2318 56.0873C19.1282 57.2429 18.6573 58.2622 18.3243 59.3338C18.0136 60.3337 17.8579 61.3779 17.4056 62.3392C17.244 62.6814 17.2043 63.0951 17.174 63.4816C17.1289 64.0577 17.1409 64.6206 16.9731 65.2026C16.8079 65.7746 16.8791 66.4104 16.7631 67.0272C16.6654 67.5462 16.4889 68.073 16.4864 68.6173C16.484 69.1599 16.358 69.6938 16.3025 70.2211C16.1857 71.3307 15.8353 72.3853 15.7078 73.4837C15.692 73.6183 15.8196 73.772 15.7985 73.9033C15.7715 74.0682 15.658 74.2181 15.5847 74.3763C15.5205 74.5151 15.4601 74.6555 15.3934 74.8059C15.5122 74.8224 15.5843 74.8286 15.6543 74.8435C15.687 74.8506 15.745 74.8808 15.743 74.8912C15.6436 75.4193 15.8714 75.9064 15.9438 76.4208C16.0358 75.942 15.8776 75.3812 16.0756 75.0101C16.3344 74.5234 16.0607 73.9899 16.293 73.6357C16.6078 73.1561 16.3982 72.6972 16.4898 72.2419C16.5511 71.935 16.7594 71.5788 16.6641 71.3394C16.5606 71.0793 16.5631 70.9662 16.6364 70.6904C16.7623 70.2194 16.9222 69.7095 16.9156 69.2303C16.9002 68.0564 17.0717 66.9215 17.3989 65.8082C17.6475 64.9628 17.8131 64.0967 17.9999 63.2418C18.1888 62.3777 18.5338 61.5725 18.743 60.7234C19.0284 59.5662 19.4409 58.4478 19.7379 57.2918C19.933 56.5346 20.2901 55.7808 20.51 55.0269C20.725 54.2876 20.9238 53.5474 21.2112 52.8292C21.4962 52.1188 21.7659 51.4018 22.0061 50.6757C22.1693 50.1841 22.2699 49.6717 22.4526 48.9547M128.265 46.5147C128.853 46.6891 129.343 46.6269 129.793 46.3631C130.101 46.1821 130.357 45.8018 130.666 45.7654C131.071 45.7169 131.185 45.3628 131.465 45.2638C131.867 45.1209 131.903 44.8666 131.957 44.5124C131.996 44.256 132.235 44.0705 132.567 44.3293C132.599 44.1036 132.63 43.8965 132.664 43.6612C132.747 43.7267 132.833 43.7619 132.835 43.8C132.854 44.3969 132.802 44.9656 132.148 45.246C132.085 45.2733 131.995 45.2882 131.964 45.3379C131.204 46.5553 130.977 46.5756 129.596 47.4504C129.236 47.6778 129.051 48.1064 128.568 48.1938C127.847 48.3256 127.258 48.8926 126.475 48.869C126.39 48.8665 126.309 49.0127 126.212 49.0434C125.679 49.2111 125.236 49.673 124.61 49.5383C124.174 49.912 123.613 49.8772 123.117 50.0346C122.417 50.2562 121.619 50.146 120.994 50.6356C120.9 50.7105 120.706 50.6492 120.56 50.6699C120.173 50.7246 119.785 50.5672 119.389 50.8605C119.101 51.0738 118.63 50.7731 118.242 51.0949C117.999 51.2954 117.563 51.1392 117.189 51.242C116.514 51.4271 115.814 51.5294 115.152 51.7908C114.776 51.9391 114.814 51.5327 114.642 51.3277C114.5 51.5319 114.365 51.7249 114.152 52.0298C114.023 52.0298 113.748 51.968 113.524 52.0488C113.332 52.118 113.21 52.3649 113.035 52.5053C112.785 52.7062 112.524 52.8967 112.247 53.0574C112.178 53.0972 112.033 53.0035 112.014 52.9986C111.675 53.3722 111.341 53.7404 110.983 54.1351C110.849 54.0246 110.754 53.9757 110.706 53.8974C110.653 53.8125 110.646 53.7002 110.597 53.5163C110.448 53.6286 110.342 53.6973 110.25 53.7818C110.161 53.8647 110.087 53.9645 110.007 54.0564C109.91 53.9297 109.814 53.803 109.688 53.6385C109.452 53.9003 108.878 53.8245 108.893 54.4466C109.097 54.387 109.29 54.2677 109.453 54.3C109.645 54.3381 109.812 54.5071 110.077 54.6732C109.905 54.8099 109.754 54.9988 109.559 55.0704C108.997 55.2775 108.567 55.6395 108.192 56.0889C107.894 56.4464 107.541 56.7334 107.155 56.8494C107.176 56.9894 107.192 57.0992 107.208 57.2093C106.768 57.223 106.609 57.5759 106.409 57.8758C106.351 57.9624 106.336 58.097 106.26 58.1483C105.695 58.5286 105.315 59.065 105.007 59.6486C104.814 60.0164 104.58 60.2633 104.073 60.1974C104.174 60.2968 104.203 60.3208 104.227 60.3498C104.454 60.6257 104.001 60.8303 104.148 61.0987C103.66 61.672 103.561 62.5223 102.873 62.881C102.938 63.2534 102.995 63.5839 103.081 64.0867C102.869 63.9327 102.801 63.8838 102.694 63.8063C102.7 64.0859 102.184 64.1824 102.542 64.6082C102.686 64.7805 102.671 65.2788 102.523 65.4627C102.264 65.7846 102.352 66.0989 102.347 66.4141C102.33 67.5809 102.216 68.7647 102.369 69.9117C102.602 71.6534 102.516 73.3909 102.584 75.1298C102.601 75.5829 102.897 76.0215 102.787 76.5045C102.742 76.7058 102.583 76.8947 102.583 77.0898C102.583 77.284 102.737 77.4737 102.788 77.6746C102.893 78.0867 102.573 78.4546 102.591 78.8211C102.628 79.5675 102.398 80.2642 102.341 80.9882C102.335 81.0628 102.372 81.1638 102.336 81.2102C101.768 81.9314 101.784 82.8608 101.466 83.6747C100.906 85.1062 100.317 86.5269 99.5673 87.8549C98.765 89.276 97.9963 90.7704 96.4985 91.6597C96.3105 91.7715 96.2517 92.0905 96.0682 92.2251C95.8805 92.3618 95.5674 92.3324 95.3901 92.4761C95.012 92.783 94.686 93.1546 94.2577 93.5804C93.7565 93.4317 93.2118 93.6769 92.7931 94.0608C92.2248 94.5819 91.3935 94.5744 90.8641 95.1655C90.4421 95.6373 89.8634 95.921 89.2711 96.1646C88.6602 96.416 88.0757 96.7324 87.4611 96.9743C87.0411 97.14 86.6969 97.4776 86.1837 97.4738C86.0656 97.473 86.0337 97.9916 85.5951 97.9067C85.3855 97.8661 85.0873 97.9804 84.9121 98.125C84.5836 98.3959 84.2237 98.313 83.8662 98.3408C83.3286 98.3822 82.7686 98.2033 82.2566 98.5516C82.1274 98.639 81.8681 98.6162 81.7057 98.552C81.4875 98.4654 81.3437 98.1664 81.0484 98.4721C80.9842 98.5379 80.6996 98.3594 80.5124 98.3433C79.4471 98.253 78.4998 97.9042 77.7414 97.1222C77.5343 96.9085 77.3351 96.7622 76.9913 96.7316C76.5891 96.696 76.1335 96.5535 75.832 96.3012C75.4989 96.0221 75.0694 96.1273 74.7583 95.8614C74.6067 95.7317 74.3122 95.7408 74.2025 95.5963C73.6706 94.9004 72.8083 94.7438 72.1447 94.2721C71.75 94.4013 71.8507 93.7589 71.7098 93.8815C71.4021 94.1499 71.3279 93.8699 71.2173 93.7481C71.0546 93.5696 70.9402 93.3467 70.7799 93.1044C70.5993 93.1943 70.413 93.2867 70.0667 93.459C69.9163 93.2581 69.7867 92.9205 69.5489 92.8058C69.1778 92.626 69.0444 92.0002 68.4409 92.2143C68.3527 92.2458 68.144 91.96 68.0019 91.8101C67.936 91.7405 67.8656 91.5661 67.8511 91.5719C67.2489 91.8154 66.9734 91.0877 66.452 91.1059C66.3853 91.1084 66.2859 91.0939 66.254 91.0496C65.8679 90.5148 65.2487 90.4117 64.702 90.1557C64.2517 89.9449 63.8798 89.5676 63.5062 89.2892C63.5969 89.0515 63.6631 88.8779 63.7464 88.6592C63.4664 88.9396 63.2415 89.1646 63.0775 89.3282C62.2905 88.9802 61.5428 88.8539 61.0951 88.0885C61.0363 88.296 61.0019 88.4177 60.9447 88.619C60.7501 88.46 60.5931 88.2392 60.3934 88.1895C60.0865 88.1129 59.7357 88.2384 59.4623 87.9584C59.4346 87.9302 59.2337 88.0963 59.1028 88.1357C59.0108 88.163 58.8112 88.1249 58.8112 88.1216C58.8319 87.5736 58.3336 87.8151 58.1116 87.6498C57.9679 87.543 57.8651 87.3806 57.716 87.2116C57.668 87.603 57.4609 87.765 57.1622 87.823C56.9609 87.8619 56.6805 87.9766 56.5654 87.8884C56.2324 87.6341 56.0182 87.7004 55.6844 87.907C55.4678 88.0408 55.1012 87.9323 54.7557 87.9323C54.5669 87.8764 54.747 87.3031 54.3386 87.509C54.0284 87.6651 54.2782 87.9182 54.4592 88.0694C53.8801 88.4604 54.1067 87.4713 53.5831 87.6921C53.3562 87.7882 53.0004 87.5802 52.7067 87.5115C52.464 87.9936 53.0472 88.0412 53.0882 88.3535C53.0882 88.6037 52.8438 88.8357 52.6466 88.7284C52.4656 88.6306 52.302 88.5404 52.22 88.7561C52.1989 88.8129 52.4789 89.0059 52.2241 89.1405C52.0725 89.2209 51.894 89.2524 51.7267 89.3008C51.0474 89.498 50.4621 89.8521 50.0529 90.4291C49.7493 90.857 49.5136 91.3329 49.2473 91.7873C48.9809 92.2421 48.7478 92.7205 48.4359 93.1413C48.2524 93.3886 47.9446 93.5435 47.6978 93.7365C47.9633 93.978 47.9459 94.2191 47.7296 94.5695C47.2902 95.2815 47.011 96.1045 46.509 96.7627C46.1391 97.2481 45.8454 97.748 45.5596 98.2778C45.2747 98.8072 44.8824 99.2793 44.5328 99.7735C44.4947 99.8278 44.4293 99.863 44.3763 99.9069C44.2603 99.4682 44.1439 99.0283 44.0275 98.5885C43.9849 98.5876 43.9418 98.5872 43.8991 98.5868C43.8743 98.7338 43.8241 98.883 43.832 99.0283C43.8407 99.1733 43.9074 99.3146 43.9488 99.4579C43.5425 99.4156 43.5421 100.172 42.9763 99.8775V101.152C43.3462 100.679 43.639 100.304 43.9339 99.9276C44.3489 100.351 43.7674 100.627 43.7732 100.989C42.9456 101.54 42.8259 102.588 42.1458 103.304H41.1525V103.97C40.9177 103.876 40.7504 103.808 40.4998 103.707C40.4646 103.95 40.4343 104.152 40.3979 104.402C40.1191 104.485 39.8035 104.542 39.5247 104.676C39.3388 104.766 39.229 105.027 39.0418 105.099C38.8446 105.175 38.5965 105.115 38.3704 105.118C38.336 105.118 38.2888 105.12 38.2689 105.141C37.7188 105.736 36.9542 105.934 36.1921 106.182C36.1656 106.155 36.098 106.051 36.0024 106.001C35.8586 105.925 35.6954 105.887 35.5401 105.833C35.5579 106.017 35.5753 106.201 35.5944 106.398C34.4263 106.691 34.4263 106.691 33.9815 106.484C33.8199 106.851 33.675 107.121 33.1518 107.179C32.0832 107.296 31.0336 107.606 29.9476 107.588C29.7073 107.584 29.482 107.98 29.2372 107.617C29.0235 108.034 28.8209 107.48 28.6304 107.606C28.3807 107.773 28.1524 108.003 27.9068 107.611C27.5953 107.751 27.2843 107.889 26.9691 108.03C26.7611 107.849 26.6369 107.495 26.2181 107.808C26.0388 107.942 25.6954 107.862 25.719 107.463C25.719 107.461 25.5856 107.43 25.5707 107.451C25.3412 107.785 25.0753 107.085 24.8649 107.477C24.8177 107.565 24.8251 107.682 24.8177 107.725C24.6052 107.512 24.3799 107.287 24.0518 106.959C23.9785 107.35 23.9404 107.553 23.8766 107.893C23.7143 107.682 23.5407 107.551 23.5055 107.389C23.4467 107.119 23.2831 107.081 23.1249 107.196C22.9186 107.345 23.0491 107.517 23.2011 107.652C23.2234 107.671 23.2338 107.704 23.2632 107.753C22.8204 107.997 22.7276 107.498 22.5102 107.408C21.6855 107.803 20.8786 107.739 20.0875 107.462C19.4944 107.254 18.7836 107.232 18.4456 106.534C18.4079 106.455 18.1259 106.803 17.983 106.498C17.9018 106.635 17.8206 106.772 17.7125 106.953C17.5543 106.707 17.406 106.476 17.237 106.214C17.0531 106.298 16.8679 106.431 16.672 106.448C16.5979 106.455 16.4488 106.066 16.4206 106.077C15.8337 106.309 15.5425 105.882 15.2339 105.547C14.9059 105.189 14.4896 105.006 14.0584 104.833C13.983 104.088 13.375 104.218 12.6642 104.206C13.0933 103.931 13.3195 103.786 13.5456 103.641C13.4446 103.541 13.3373 103.436 13.194 103.295C13.0954 103.445 12.9956 103.597 12.9156 103.719C12.7777 103.693 12.7106 103.701 12.6754 103.671C12.144 103.222 11.642 102.734 11.0778 102.332C10.8363 102.16 11.0053 101.738 10.5654 101.692C10.4296 101.678 10.2134 101.22 10.2523 101.004C10.3161 100.647 10.2362 100.534 9.93379 100.349C9.62231 100.159 9.42225 99.7872 9.17249 99.4956C8.40166 98.5955 7.35746 97.946 6.77302 96.8753C5.86799 96.4562 5.60663 95.4691 4.96296 94.8151C4.46592 94.311 4.41166 93.5033 3.84296 93.0195C3.78787 92.9719 3.82018 92.7996 3.83882 92.6898C3.9084 92.2802 3.73858 92.001 3.4445 91.7169C2.89444 91.1863 2.71302 90.4386 2.49846 89.7436C2.30296 89.1091 1.85769 88.5263 1.99852 87.8031C1.5603 87.2642 1.57148 86.5377 1.25213 85.9702C1.06864 85.6451 1.31965 85.5167 1.30391 85.332C1.27822 85.0387 1.0471 84.7691 0.937751 84.4762C0.801893 84.1125 0.602663 83.775 0.65568 83.3413C0.692959 83.0381 0.813905 82.6649 0.46432 82.4035C0.434083 82.3808 0.570355 82.1641 0.593965 82.0308C0.615917 81.9069 0.639527 81.6982 0.578225 81.6588C0.224497 81.4343 0.399704 81.1738 0.422485 80.8727C0.450237 80.4974 0.262604 80.1118 0.229882 79.7249C0.191775 79.2763 0.253905 78.8191 0.212485 78.3709C0.162781 77.8349 0.422899 77.2538 0 76.7675C0.542189 76.3657 0.0952663 75.8252 0.134615 75.3667C0.167337 74.9864 0.312722 74.5979 0.24645 74.1837C0.208343 73.9439 0.518166 73.7057 0.458107 73.3756C0.405089 73.0844 0.47426 72.7721 0.438639 72.4751C0.409231 72.2316 0.786568 72.0042 0.461006 71.7404C0.439882 71.723 0.591065 71.4148 0.718225 71.3112C0.906272 71.1588 1.14485 71.0685 1.3884 70.9372C1.10716 70.7546 0.877278 70.6059 0.707041 70.4953C0.778698 70.0376 0.874379 69.6553 0.890947 69.2692C0.919527 68.5928 0.783669 67.8887 0.92574 67.2425C1.13615 66.2907 0.993669 65.3244 1.15935 64.3995C1.31716 63.5205 1.32296 62.618 1.57686 61.7569C1.59675 61.6898 1.60503 61.6119 1.64604 61.5605C1.80219 61.365 2.12568 61.2569 1.82663 60.8883C1.74296 60.7851 2.03497 60.4343 2.01053 60.2131C1.96704 59.8205 2.17331 59.5193 2.25325 59.1747C2.40361 58.5215 2.66414 57.9098 2.74822 57.2209C2.82692 56.5727 3.11396 55.9427 3.17858 55.2593C3.22331 54.7846 3.47142 54.3311 3.60728 53.8622C3.85083 53.0193 3.96639 52.1416 4.28905 51.3202C4.94929 49.6365 5.44509 47.8948 6.26562 46.2624C6.65083 45.4962 7.05302 44.7108 7.3413 43.8874C7.52811 43.3531 7.88473 42.8941 8.17302 42.4319C9.13935 40.8795 9.65669 39.0802 10.8396 37.6562C11.5049 35.8676 12.9947 34.5944 13.8095 32.8995C14.4618 32.646 14.5757 31.941 14.9899 31.4858C15.4066 31.0273 15.837 30.5704 16.1824 30.0593C16.9417 28.9368 18.0186 28.1188 18.8971 27.1151C19.2417 26.7217 19.5217 26.2884 20.1343 26.2201C20.0246 26.0912 19.9583 26.0138 19.8812 25.9235C21.444 24.3615 22.9617 22.7404 24.5982 21.2496C25.4456 20.4776 26.2533 19.6566 27.1318 18.9251C28.5124 17.7753 29.9368 16.6785 31.4035 15.6306C33.991 13.782 36.791 12.3162 39.6382 10.9526C41.7047 9.96308 43.8631 9.16077 46.031 8.38828C48.0672 7.66302 50.1167 6.98124 52.1666 6.30071C52.8985 6.05757 53.6577 5.89603 54.4078 5.71047C55.0581 5.54935 55.7179 5.42467 56.3645 5.25112C56.9771 5.08669 57.6108 5.05811 58.223 4.83402C58.6724 4.66958 59.2055 4.79799 59.7088 4.60331C60.1983 4.41361 60.7894 4.49728 61.2939 4.33201C61.7582 4.18 62.2959 4.25538 62.6943 3.90041C63.5306 3.92444 64.3035 3.58396 65.1087 3.47503C65.9259 3.36402 66.7088 3.10763 67.5044 2.94195C68.2359 2.78994 69.0585 2.7829 69.72 2.31941C70.7808 2.38154 71.762 1.94 72.805 1.83355C73.9101 1.72006 74.9899 1.36053 76.1227 1.41521C76.8095 1.00225 77.5849 1.33899 78.2844 1.1729C79.8307 0.806745 81.3876 1.00805 82.9388 0.971597C84.4817 0.935147 86.0267 0.987336 87.5692 0.951715C88.1635 0.938046 88.7157 1.07887 89.2848 1.18201C89.8506 1.28473 90.4694 1.00929 90.9971 1.41521C91.6714 1.24994 92.2753 1.65254 92.9364 1.65503C93.3572 1.65669 93.8286 1.69645 94.1877 1.8874C94.927 2.28047 95.7525 2.27964 96.5213 2.52609C97.2859 2.77089 98.0137 3.15568 98.8325 3.22278C98.9175 3.51314 99.4518 3.31225 99.4153 3.75503C99.412 3.79645 99.5789 3.89876 99.6614 3.89337C100.715 3.82296 101.537 4.43887 102.461 4.77645C103.639 5.20722 104.807 5.68645 105.935 6.20337C107.294 6.82592 108.785 7.14485 110.037 8.04988C110.754 8.56763 111.67 8.80828 112.486 9.1939C113.193 9.52775 113.799 10.0451 114.473 10.4092C114.9 10.6395 115.1 11.3204 115.751 11.1303C116.122 11.4153 116.484 11.7143 116.867 11.9819C117.272 12.2648 117.687 12.5386 118.117 12.7809C119.678 13.6598 121.027 14.8034 122.299 16.0535C122.767 16.5137 123.364 16.8529 123.784 17.3475C125.124 18.9235 126.562 20.4229 127.706 22.1576C128.032 22.6538 128.319 23.1802 128.584 23.7129C128.972 24.4949 129.513 25.1812 129.809 26.0299C130.296 27.4229 130.826 28.7856 131.058 30.2618C131.209 31.2157 131.359 32.1754 131.535 33.119C131.735 34.1955 131.685 35.2488 131.696 36.3104C131.704 37.0817 131.856 37.8007 132.091 38.5235C132.179 38.7944 132.134 39.1067 132.166 39.3983C132.189 39.6166 132.246 39.8311 132.275 40.049C132.344 40.5804 132.546 41.1085 132.183 41.6362C132.117 41.7331 132.418 42.0454 132.369 42.1999C132.23 42.6286 132.247 43.1679 131.679 43.3688C131.452 43.4488 131.238 43.602 131.055 43.764C130.422 44.3231 129.804 44.8997 129.183 45.473C129.113 45.5372 129.001 45.627 129.009 45.6937C129.068 46.202 128.679 46.3312 128.265 46.5147" fill="black"/>
</svg>
