<svg width="194" height="143" viewBox="0 0 194 143" fill="none" xmlns="http://www.w3.org/2000/svg">
<path fill-rule="evenodd" clip-rule="evenodd" d="M174.662 35.8716C174.599 35.8351 174.536 35.7991 174.472 35.7626C174.319 35.9685 174.201 36.2212 174.004 36.3682C173.79 36.5285 173.432 36.526 173.261 36.7095C172.904 37.093 172.445 37.2658 172.003 37.487C171.856 38.1762 171.214 38.3704 170.748 38.7416C170.384 39.0327 170.006 39.3103 169.658 39.6205C169.556 39.712 169.535 39.8959 169.477 40.0376C169.857 39.8831 170.065 39.5364 170.496 39.6549C170.815 39.7431 170.782 39.459 170.903 39.302C171.004 39.1715 171.451 39.2063 171.463 39.1255C171.531 38.6786 171.893 38.6086 172.186 38.4235C172.517 38.2143 172.87 37.9997 173.114 37.7048C173.36 37.4066 173.681 37.429 173.97 37.3424C173.898 37.1614 173.829 36.9866 173.717 36.7033H174.662V35.8716ZM65.8267 13.7876C65.0621 14.2006 64.7966 14.9523 64.4454 15.6424C64.1144 16.2931 63.9591 17.0291 63.6596 17.6807C63.3233 18.413 63.1527 19.1768 63.122 19.9236C63.0901 20.7043 62.5645 21.4594 62.963 22.2733C63.076 22.0795 63.2053 21.9072 63.279 21.7138C63.3291 21.5829 63.2802 21.4176 63.3121 21.2759C63.4273 20.7619 63.5582 20.2516 63.6824 19.7401C63.817 19.1884 64.0809 18.6611 63.9989 18.0684C64.5837 16.8461 64.8041 15.4722 65.5646 14.3223C65.6731 14.1579 65.7402 13.9661 65.8267 13.7876V13.7876ZM181.482 43.9203C181.63 43.9352 181.731 43.9771 181.77 43.9443C182.412 43.4022 183.077 42.8828 183.675 42.295C184.915 41.0768 185.909 39.6478 186.831 38.1928C187.247 37.5375 187.736 36.876 187.928 36.0592C188.014 35.691 187.707 35.7738 187.668 35.6011C186.894 37.1022 186.204 38.6567 185.109 39.9481C183.962 41.3013 182.719 42.5742 181.482 43.9203V43.9203ZM172.675 15.8085C172.884 15.9448 173.057 16.062 173.235 16.1722C173.413 16.2828 173.596 16.3859 173.777 16.4923C173.482 17.0316 173.483 17.0267 173.851 17.2934C173.995 17.3978 174.203 17.5274 174.222 17.6678C174.298 18.2183 174.634 17.8961 174.79 17.9217C174.756 17.5241 174.723 17.1488 174.691 16.774C175.173 16.4617 174.707 16.1452 174.676 15.8387C174.656 15.6478 174.506 15.4543 174.368 15.3048C174.341 15.2762 174.099 15.4477 173.925 15.5434C173.799 15.2709 173.698 15.0551 173.536 14.7059C173.863 14.8397 174.033 14.9093 174.2 14.9776C174.401 14.4859 173.85 14.6744 173.807 14.471C173.756 14.2304 173.795 13.9703 173.795 13.6418H172.271C172.199 13.4484 172.159 13.3436 172.062 13.0843C172.003 13.9566 172.003 13.9566 172.384 14.288C172.428 14.1571 172.473 14.0262 172.52 13.8883C172.723 14.078 172.902 14.2465 173.063 14.3965C173.264 14.2842 173.387 14.2159 173.603 14.0958C173.505 14.7908 173.004 14.9204 172.675 15.1772V15.8085ZM157.885 108.038C157.73 108.344 157.52 108.639 157.566 108.686C157.885 109.015 157.713 109.399 157.74 109.752C157.769 110.126 157.832 110.531 157.723 110.873C157.609 111.226 158.139 111.507 157.759 111.828C158.115 112.112 157.946 112.508 157.967 112.859C157.99 113.234 157.972 113.611 157.972 113.988C157.972 115.418 157.97 116.849 157.976 118.279C157.976 118.421 158.026 118.564 158.053 118.705C158.136 118.108 158.352 117.552 158.394 116.998C158.495 115.677 158.379 114.347 158.631 113.025C158.737 112.466 158.503 111.871 158.469 111.312C158.401 110.222 158.146 109.19 157.885 108.038V108.038ZM158.11 134.346C158.396 133.925 158.672 133.59 158.869 133.213C159.515 131.978 160.585 130.947 160.701 129.452C160.705 129.395 160.808 129.351 160.854 129.291C161.192 128.855 161.395 128.363 161.356 127.808C161.314 127.212 161.501 126.68 161.736 126.155C161.846 125.91 161.9 125.689 161.569 125.433C161.42 125.627 161.225 125.794 161.147 126.005C161.026 126.333 161.011 126.699 160.904 127.035C160.608 127.963 160.432 128.937 159.913 129.788C159.843 129.904 159.764 130.063 159.79 130.181C159.92 130.779 159.594 131.307 159.295 131.663C158.678 132.399 158.533 133.401 157.745 133.981L158.11 134.346ZM74.467 12.4299C73.9463 12.1594 73.5189 11.937 73.086 11.712C73.0119 11.7783 72.9021 11.8769 72.7961 11.9717C72.8752 12.0616 72.9444 12.1395 72.9837 12.1842C72.473 12.5848 71.9723 12.9778 71.4769 13.3668C71.5179 13.4169 71.6575 13.5424 71.6392 13.5722C71.4731 13.8452 71.2648 14.0925 71.0962 14.3642C70.7197 14.9722 70.2873 15.5728 70.6261 16.3726C71.1169 16.0355 71.3833 15.3607 72.0899 15.4254C72.0166 15.2369 71.8567 15.0153 71.9105 14.932C72.164 14.5398 72.4113 14.0833 72.7857 13.8468C73.1668 13.6054 73.4936 13.2587 73.5856 12.9426C73.7272 12.4555 74.0627 12.6063 74.467 12.4299V12.4299ZM105.803 91.2614L105.962 91.1016C105.902 91.0485 105.837 90.9454 105.783 90.9508C105.347 90.9922 104.817 90.9868 104.666 90.8294C104.07 90.209 103.33 90.4538 102.686 90.5764C102.09 90.6898 101.546 91.0767 100.978 91.3406C100.798 91.4246 100.62 91.5369 100.431 91.5634C100.351 91.5746 100.252 91.3223 100.116 91.529C100.027 91.6653 99.9544 91.8123 99.7585 92.1619C100.44 91.8902 100.889 92.6747 101.427 92.0824C101.436 92.0725 101.694 92.2087 101.702 92.2907C101.734 92.5927 101.987 92.5807 102.105 92.5115C102.679 92.1739 103.318 92.3657 103.926 92.2696C103.963 92.041 103.996 91.8339 104.005 91.7763C104.16 91.9304 104.35 92.1197 104.506 92.2754C104.463 92.2903 104.331 92.3363 104.378 92.3201C104.526 92.4684 104.717 92.659 104.88 92.823C104.978 92.4684 104.63 91.8306 105.344 91.6061C105.693 91.8939 106.061 91.9337 106.51 91.7278C106.252 91.5572 106.027 91.4089 105.803 91.2614V91.2614ZM108.848 95.005C108.558 95.4556 108.067 94.8704 107.769 95.2353C107.417 94.8625 106.932 95.0916 106.514 94.9648C106.307 95.0104 106.724 94.3994 106.194 94.6732C105.861 94.8455 105.404 94.7776 104.953 94.8223C104.902 94.5635 104.857 94.3336 104.784 93.9678C104.69 94.2375 104.644 94.3688 104.589 94.5245C104.308 94.3381 104.029 94.1538 103.71 93.943C103.771 93.7293 103.836 93.5006 103.905 93.2591C103.469 92.9845 102.967 92.8561 102.281 93.1022C102.745 93.3225 103.112 93.4965 103.509 93.6845C103.392 93.9235 103.292 94.1285 103.191 94.334C102.988 94.2358 103.133 93.6178 102.594 94.0059C102.686 94.2122 102.784 94.4288 102.88 94.643C102.795 94.6886 102.724 94.7528 102.695 94.7374C102.323 94.5415 101.957 94.3344 101.589 94.1298C101.247 94.7552 100.617 94.9839 99.867 95.2109C99.9399 95.0004 99.9925 94.8484 100.072 94.619C99.8583 94.4856 99.7693 94.0627 99.3083 94.1116C99.3737 94.4636 99.4354 94.7938 99.4947 95.1119C99.126 95.2771 99.0738 95.3761 99.1915 95.6135C98.6679 96.026 98.578 95.2328 98.1597 95.186C98.1187 95.4556 98.0868 95.6627 98.0537 95.8785C97.8267 95.8442 97.7074 95.5509 97.3951 95.7957C96.9602 96.1358 96.3782 96.2874 95.9462 96.6295C95.5101 96.9749 95.1654 96.8051 94.7376 96.6146C94.7227 96.8155 94.7094 96.9936 94.6895 97.2612C94.0985 97.151 93.6399 97.537 93.1106 97.7048C91.8465 98.1057 90.6316 98.6326 89.3927 99.0961C88.2851 99.5103 87.2033 99.9907 86.1048 100.429C85.1998 100.791 84.2947 101.153 83.3773 101.48C82.1309 101.925 80.9314 102.488 79.7008 102.971C78.7395 103.349 77.776 103.777 76.8184 104.192C76.5024 104.329 76.2186 104.607 75.8144 104.506C75.7291 104.485 75.5944 104.54 75.5228 104.604C74.6567 105.383 73.424 105.384 72.4983 106.035C72.4449 106.072 72.3566 106.089 72.2924 106.076C71.3522 105.89 70.665 106.509 69.8975 106.845C68.6773 107.38 67.4247 107.805 66.1308 108.115C65.8582 108.18 65.5666 108.22 65.3268 108.351C65.0994 108.476 64.8579 108.384 64.6591 108.473C64.404 108.587 64.1443 108.745 63.9587 108.949C63.6978 109.238 63.5283 108.648 63.2227 108.947C62.9994 109.164 62.5566 109.138 62.2518 109.297C61.7531 109.559 61.1223 109.454 60.6873 109.907C60.597 110.001 60.2959 109.981 60.1431 109.908C59.8664 109.775 59.7641 109.73 59.5901 110.082C59.4949 110.275 59.0301 110.317 58.722 110.366C57.7432 110.522 56.863 111.085 55.8408 111.05C55.0472 111.601 54.0862 111.544 53.2052 111.778C53.0022 111.832 52.8051 111.911 52.5996 111.95C52.2161 112.025 51.8292 111.857 51.4299 112.149C51.1491 112.355 50.638 112.02 50.2867 112.391C50.2188 112.463 49.9173 112.396 49.7814 112.305C49.4248 112.067 49.5988 112.449 49.5188 112.491C49.3917 112.558 49.1937 112.484 49.0595 112.545C48.4498 112.821 47.8102 112.935 47.1566 112.85C46.0006 112.701 44.8963 113.139 43.7465 113.111C43.399 113.103 43.0436 113.347 42.692 113.084C42.0388 113.42 41.3847 112.942 40.7332 113.086C40.4602 113.146 40.1355 113.369 39.9338 113.283C39.3999 113.057 38.8623 113.121 38.3221 113.077C37.7862 113.033 37.2547 112.933 36.7208 112.858C36.6496 112.848 36.539 112.864 36.5133 112.825C36.283 112.472 35.9127 112.682 35.6601 112.593C35.0847 112.389 34.4531 112.517 33.9067 112.19C33.4979 111.945 33.1185 111.748 32.9176 111.496C32.8427 111.655 32.7714 111.808 32.6695 112.024C31.8432 111.392 30.6205 111.491 29.9317 110.404H29.0937C28.9885 110.217 28.9053 109.941 28.8233 109.941C28.2475 109.944 27.7695 109.913 27.8114 109.126C27.8176 109.005 27.5049 108.866 27.1271 108.568C27.2762 109.004 27.34 109.191 27.4531 109.522C27.0144 109.23 26.6988 109.034 26.3994 108.816C26.1169 108.61 25.7979 108.421 25.5925 108.15C25.3527 107.835 24.9501 107.74 24.7417 107.399C24.5553 107.094 24.3532 106.786 24.0997 106.539C23.8334 106.281 23.6979 105.93 23.343 105.713C23.1073 105.568 23.0613 105.114 22.9271 104.791C23 104.713 23.1011 104.604 23.1988 104.498C23.2858 104.576 23.3641 104.645 23.5455 104.806C23.514 104.571 23.5376 104.419 23.4734 104.326C23.2191 103.956 22.8194 103.779 22.428 103.59C22.2698 103.514 22.0639 103.415 22.008 103.276C21.9297 103.081 22.0275 102.815 21.9463 102.623C21.8808 102.468 21.5317 102.375 21.5337 102.258C21.5441 101.669 21.1324 101.145 21.286 100.544C20.8619 99.5852 21.1303 98.5733 21.0611 97.5875C20.9327 95.7564 21.4492 94.03 22.0519 92.3496C22.7308 90.4554 23.7302 88.7195 24.9741 87.1174C25.8406 86.0015 26.664 84.8596 27.6101 83.8017C28.9044 82.3545 30.0418 80.7743 31.1333 79.1664C31.4675 78.6747 31.6328 78.0932 31.9952 77.5974C32.3361 77.131 32.5411 76.5461 32.7221 75.9865C32.8853 75.4833 32.9495 74.9456 33.0295 74.4192C33.0933 73.9959 32.9056 73.5382 33.2486 73.148C33.3161 73.0718 33.256 72.8614 33.2204 72.7218C33.1773 72.5545 33.0498 72.3991 33.0411 72.2347C32.9147 69.8116 31.598 67.8069 29.7465 66.4777C28.6166 65.6663 27.4079 65.0139 26.254 64.2626C24.6274 63.2043 22.8989 62.322 21.2815 61.2493C20.0231 60.4151 18.6902 59.6939 17.3921 58.9202C15.9358 58.0525 14.3867 57.3317 13.0944 56.2047C12.3832 56.0887 12.005 55.4326 11.3829 55.1555C10.6875 54.8457 10.2219 54.2058 9.58444 53.7845C8.85503 53.3024 8.24781 52.6355 7.58468 52.0519C7.20361 51.716 6.91326 51.2881 6.40876 51.0744C6.15154 50.9659 5.88065 50.7033 5.78166 50.4461C5.58201 49.9262 5.13675 49.6525 4.80166 49.271C3.19704 47.4423 1.93 45.4305 1.15379 43.0977C0.832783 42.1335 0.721777 41.1096 0.27444 40.188C0.431008 39.3687 0.011422 38.6074 0.0420729 37.7959C0.0718954 37.0065 -0.0933709 36.1818 0.0818362 35.4321C0.34444 34.3084 0.312132 33.0972 0.952073 32.0709C1.16166 30.5209 2.67391 27.7905 3.36148 26.743C4.1671 25.5165 5.25894 24.539 6.34621 23.5955C6.89627 23.1179 7.5648 22.6511 8.35385 22.4755C8.8629 22.362 9.32391 22.1019 9.84994 21.9772C10.3325 21.8629 10.7065 21.763 11.1783 21.9528C11.3523 22.0228 11.6161 21.8301 11.8423 21.8161C12.2548 21.7904 12.6736 21.7775 13.0836 21.819C13.3905 21.85 13.6772 22.1487 14.0023 21.8678C14.3515 22.2187 14.7984 21.9209 15.1728 22.0435C15.5013 22.1512 15.7933 22.3686 16.1209 22.4792C16.6515 22.6573 17.1999 22.7824 17.7376 22.9414C17.9033 22.9903 18.0739 23.0533 18.2151 23.1498C19.0684 23.7326 20.0886 23.9032 21.0255 24.2748C22.027 24.6724 23.0804 24.9528 24.0454 25.4362C24.7347 25.7816 25.4765 25.9954 26.1815 26.2799C26.9229 26.5794 27.6353 26.9538 28.3908 27.2201C29.9404 27.7665 31.3731 28.5675 32.8522 29.2667C34.7418 30.1601 36.6276 31.0623 38.5069 31.9777C41.7977 33.5798 45.0773 35.2043 48.3719 36.7977C49.185 37.1912 50.0179 37.571 50.8815 37.8196C51.2999 37.9401 51.6308 38.2035 52.0409 38.3021C52.6572 38.45 53.2686 38.6194 53.8882 38.7478C54.3791 38.8497 54.9179 38.8116 55.3665 38.9996C56.1576 39.3306 57.0117 39.3422 57.8219 39.6068C58.6772 39.886 59.5934 39.5174 60.3183 38.9106C60.6347 38.6455 60.8978 38.3183 61.2026 38.0387C62.3984 36.9427 62.683 35.633 62.1847 34.1083C61.9652 33.4365 61.7009 32.7675 61.727 32.0381C61.2734 31.6219 61.7361 30.943 61.2921 30.5238C61.3878 29.6933 61.1479 28.8724 61.4478 28.008C61.6462 27.4364 61.8256 26.7707 61.7407 26.0852C61.5253 24.341 61.8993 22.608 62.0062 20.8742C62.0803 19.6705 62.3876 18.4441 62.7298 17.2454C62.963 16.429 63.3337 15.6755 63.6174 14.8939C63.9351 14.0183 64.5585 13.245 65.0973 12.4605C66.2318 10.8103 67.7428 9.55571 69.4121 8.4792C70.6207 7.69967 71.8836 7.01707 73.2525 6.57387C73.8212 6.38997 74.4483 6.33032 75.015 6.17417C75.6425 6.00103 76.2899 6.16754 76.8416 5.9592C77.431 5.73636 77.9993 5.73512 78.5667 5.78441C79.6391 5.8776 80.7069 6.04577 81.7689 6.22636C82.8078 6.40322 83.7695 6.83441 84.7504 7.20553C86.0406 7.6947 87.2505 8.31808 88.3485 9.156C88.5183 9.28565 88.7391 9.37222 88.8642 9.53417C89.5447 10.4143 90.2555 11.278 90.8565 12.2112C91.875 13.793 93.0278 14.9196 94.4431 16.0177C94.6725 16.1954 94.825 16.4716 95.0143 16.7036C95.3858 16.5723 95.648 16.4107 95.9135 16.4041C96.2225 16.3971 96.4586 16.2587 96.7286 16.1788C97.0057 16.0968 97.3479 16.0914 97.6208 16.1792C97.9141 16.2736 98.0731 15.8358 98.3863 16.0732C98.4728 16.1382 98.7354 15.9704 98.9173 15.9091C99.1157 15.8425 99.3344 15.8085 99.5071 15.7008C99.7722 15.5355 99.8724 16.0272 100.164 15.8164C100.319 15.7045 100.584 15.7555 100.792 15.7045C101.029 15.647 101.254 15.5347 101.492 15.4883C101.824 15.4233 102.117 15.6275 102.419 15.6735C102.63 15.7054 102.874 15.3388 103.134 15.2738C103.476 15.1888 103.821 15.2149 104.181 15.0671C104.502 14.9354 105.066 14.819 105.228 15.4659C105.239 15.5082 105.561 15.4717 105.772 15.4717C105.672 15.2655 105.602 15.1197 105.529 14.9672C105.896 14.8165 106.172 14.3385 106.617 14.7614C106.773 14.5141 106.912 14.7829 107.013 14.7705C107.304 14.7345 107.412 14.0266 107.881 14.5315C108.192 14.4031 108.494 14.242 108.816 14.1637C108.948 14.1318 109.146 14.3625 109.272 14.3269C109.455 14.2751 109.597 13.9574 109.817 14.22C110.02 14.464 110.116 14.0933 110.214 14.1728C110.308 14.2499 110.327 14.4193 110.38 14.5485C111.143 14.3054 111.143 14.3054 111.327 13.631C111.522 13.7238 111.728 13.7872 111.89 13.909C112.033 14.0154 112.128 14.1873 112.231 14.3136C112.355 14.1086 112.482 13.8974 112.605 13.6944C114.191 14.1128 114.309 14.0792 114.875 13.0375H115.641C115.691 13.1435 115.761 13.2939 115.843 13.4674C115.985 12.9 115.985 12.9 116.556 12.5872C116.797 12.5226 116.367 13.1932 116.882 12.8726C117.16 12.6991 117.48 12.7024 117.803 12.9045C117.948 12.9957 118.221 12.9712 118.4 12.9037C118.755 12.7691 119.265 12.7732 119.198 12.1412C119.186 12.0326 119.373 11.8355 119.674 12.0434C119.966 12.2447 120.417 12.217 120.872 12.3039C120.805 12.1068 120.741 11.9167 120.658 11.6706C121.291 11.8993 121.813 12.0509 122.3 11.5273C122.456 11.3596 122.68 11.7307 123.016 11.5265C123.477 11.2461 124.098 11.2287 124.727 11.0804C124.744 10.9685 124.775 10.7614 124.805 10.5688C124.86 10.5428 124.893 10.5113 124.922 10.515C125.194 10.5481 126.252 10.3862 126.563 10.2901C127.099 10.1256 127.64 9.97737 128.183 9.83571C130.72 9.1734 133.151 8.17766 135.661 7.44577C137.444 6.92595 139.228 6.3908 141.039 5.94843C142.563 5.57648 144.098 5.19086 145.603 4.7166C146.444 4.45151 147.34 4.36245 148.208 4.18352C148.483 4.12677 148.746 4.01825 149.02 3.96441C149.476 3.87453 149.936 3.80991 150.394 3.73453C150.853 3.65914 151.331 3.64299 151.765 3.49636C152.744 3.16624 153.79 3.20808 154.776 2.86346C155.329 2.67003 155.987 2.83902 156.598 2.62488C157.097 2.4505 157.737 2.59174 158.171 2.34281C158.675 2.05453 159.209 2.21482 159.722 1.97666C160.234 1.73973 160.924 1.93855 161.536 1.72979C161.777 1.64737 162.149 1.84453 162.423 1.98701C162.814 2.19038 163.152 2.26867 163.509 1.93358C163.671 1.78198 165.652 0.988372 165.728 1.0621C166.148 1.47174 166.512 1.10145 167.014 0.948608C166.955 1.1934 166.922 1.3421 166.881 1.48873C166.848 1.61092 166.807 1.73103 166.747 1.9224C167.266 1.75174 167.282 1.39263 167.227 0.993342C167.439 1.11553 167.613 1.26796 167.661 1.23482C167.921 1.06003 168.124 1.13583 168.396 1.22322C168.585 1.2837 168.849 1.08281 169.086 1.02938C169.23 0.99707 169.39 1.00245 169.536 1.02814C169.751 1.06666 169.918 1.46553 170.18 1.12382C170.43 0.799496 170.648 1.32553 170.797 1.16772C171.223 0.718727 171.532 1.23814 171.891 1.27127C172.195 1.29944 172.592 1.35577 172.674 1.80973C172.682 1.85447 172.953 1.9195 173.034 1.86814C173.191 1.76914 173.321 1.59269 173.505 1.76417C174.006 2.23305 174.745 2.29476 175.229 2.79387C175.346 2.91441 175.535 3.05109 175.681 3.04032C176.018 3.01589 176.156 3.25861 176.305 3.44541C176.517 3.71133 176.742 3.94535 177.015 4.15038C177.303 4.36577 177.489 4.64701 177.942 4.676C178.288 4.69796 178.47 5.20577 178.889 5.35944C180.075 5.79476 181.17 6.46453 182.197 7.16328C183.2 7.84506 184.256 8.47464 185.173 9.30926C185.739 9.82535 186.339 10.3149 186.892 10.853C187.78 11.7162 188.381 12.8097 189.172 13.7396C190.273 15.0319 190.903 16.5549 191.636 18.0377C192.293 19.3661 192.692 20.7677 193.03 22.2116C193.237 23.0976 193.21 24.0507 193.667 24.8783C193.683 24.9072 193.675 24.9536 193.668 24.9901C193.5 25.8839 193.932 26.7227 193.901 27.6078C193.871 28.4727 193.916 29.3404 193.885 30.2053C193.872 30.5528 193.723 30.8933 193.675 31.2425C193.632 31.5614 193.662 31.8621 193.471 32.1814C193.327 32.4221 193.405 32.7874 193.248 33.103C193.155 33.2894 193.386 33.6245 193.438 33.8987C193.495 34.2023 193.472 34.4877 193.056 34.5088C192.97 35.1181 192.465 35.5978 192.379 36.1383C192.209 37.2024 191.376 37.9148 191.139 38.911C190.628 39.2113 190.747 39.8906 190.28 40.2662C189.915 40.5599 189.748 41.0905 189.456 41.4881C189.134 41.9272 188.768 42.3343 188.424 42.7577C188.357 42.8397 188.24 42.9486 188.257 43.0199C188.406 43.6722 187.893 43.9493 187.542 44.3109C186.964 44.9045 186.394 45.5084 185.782 46.0651C184.737 47.0152 183.676 47.9439 182.482 48.7205C181.697 49.2308 181.061 49.9871 180.248 50.4341C179.344 50.9315 178.528 51.5445 177.657 52.0801C176.553 52.759 175.411 53.372 174.279 54.0041C173.087 54.6705 171.85 55.2491 170.667 55.9264C169.965 56.3281 169.317 56.8579 168.575 57.1483C167.548 57.5492 166.676 58.2016 165.725 58.716C164.545 59.3543 163.466 60.1794 162.346 60.9278C161.382 61.5715 160.63 62.4484 159.799 63.2391C159.459 63.5626 159.164 63.9188 158.713 64.1503C158.315 64.3549 158.022 64.7737 157.811 65.2227C157.396 66.1066 156.976 66.9897 156.714 67.9299C156.608 68.3106 156.671 68.7355 156.608 69.1323C156.56 69.4351 156.874 69.9185 156.238 69.991C156.198 69.9955 156.169 70.2548 156.168 70.3961C156.161 71.1864 156.177 71.9775 156.16 72.7678C156.15 73.281 156.559 73.7229 156.391 74.2556C156.853 74.7091 156.51 75.3536 156.805 75.8967C157.062 76.3693 156.951 77.0283 157.079 77.5874C157.243 78.3019 157.618 78.992 157.656 79.7061C157.702 80.5552 158.151 81.2531 158.281 82.0658C158.401 82.8072 158.9 83.4877 159.02 84.2296C159.18 85.2154 159.504 86.1398 159.767 87.0888C159.794 87.1869 159.647 87.3327 159.572 87.4752C159.679 87.5121 159.81 87.5572 159.975 87.6136C160.011 88.3103 160.146 88.9987 160.406 89.6688C160.507 89.9302 160.42 90.2595 160.465 90.5507C160.507 90.8257 160.643 91.0879 160.674 91.3629C160.711 91.6852 160.704 91.9884 160.892 92.2953C161.05 92.5521 161.111 92.8984 161.121 93.2082C161.132 93.5445 161.187 93.8485 161.362 94.1302C161.526 94.3945 160.927 94.6794 161.403 94.9478C161.736 95.1363 161.46 95.5468 161.604 95.7593C161.947 96.2662 161.822 96.8639 161.998 97.4041C162.112 97.7516 162.191 98.1571 162.257 98.541C162.322 98.9192 162.157 99.3363 162.457 99.6747C162.092 99.8681 162.485 100.011 162.498 100.179C162.512 100.35 162.605 100.514 162.626 100.686C162.652 100.887 162.645 101.094 162.639 101.297C162.636 101.377 162.559 101.509 162.585 101.529C163.181 102.002 162.867 102.757 163.147 103.336C163.276 103.602 163.269 103.948 163.357 104.26C163.48 104.693 163.732 105.121 163.64 105.628C163.601 105.839 163.718 106.129 163.858 106.313C164.108 106.642 164.085 106.999 164.067 107.357C164.04 107.899 164.137 107.874 164.266 108.459C164.389 109.015 164.727 109.512 164.732 110.072C164.737 110.579 165.353 111.073 164.787 111.602C164.782 111.607 164.954 111.803 165.044 111.909C165.278 112.183 165.247 112.532 165.337 112.846C165.452 113.248 165.46 113.581 165.229 113.934C165.359 113.964 165.462 113.987 165.564 114.011C165.591 114.038 165.638 114.062 165.641 114.091C165.723 114.736 165.794 115.382 165.882 116.026C165.96 116.597 165.682 117.202 166.093 117.75C166.227 117.929 165.731 118.188 166.086 118.48C166.164 118.544 165.997 118.906 165.942 119.131C166.069 119.175 166.2 119.221 166.326 119.265C166.292 119.913 165.58 120.443 166.071 121.138C165.723 121.282 165.158 121.178 165.212 121.889C165.415 121.789 165.559 121.718 165.692 121.653C165.769 121.711 165.874 121.755 165.872 121.794C165.858 122.046 165.821 122.297 165.791 122.548C165.781 122.628 165.746 122.774 165.759 122.778C166.339 122.973 165.731 123.491 166.072 123.843C166.383 124.164 165.969 124.675 165.843 125.062C165.727 125.416 165.686 125.752 165.648 126.109C165.595 126.607 165.626 127.171 165.395 127.578C165.15 128.009 165.341 128.457 165.14 128.833C164.936 129.214 164.678 129.562 164.75 130.028C164.221 130.634 164.266 131.488 163.838 132.132C163.753 132.259 163.555 132.308 163.401 132.398V133.513C163.101 133.69 162.698 133.758 162.701 134.224C162.153 134.518 162.869 134.849 162.665 135.188C162.573 135.196 162.43 135.253 162.375 135.205C162.231 135.082 162.148 134.96 161.96 135.174C161.828 135.325 161.907 135.367 161.96 135.508C162.099 135.877 161.795 136.394 161.728 136.327C161.305 135.9 161.265 136.452 161.067 136.549C160.989 136.586 160.9 136.739 160.919 136.813C161.095 137.512 160.525 137.686 160.113 137.929C158.934 138.622 158.926 138.609 157.972 138.645C157.972 138.858 157.943 139.08 157.979 139.29C158.033 139.605 157.872 139.809 157.649 139.943C156.958 140.36 156.272 140.792 155.545 141.135C154.855 141.46 154.132 141.82 153.392 141.914C152.287 142.054 151.254 142.544 150.104 142.469C149.017 142.399 147.921 142.443 146.829 142.457C145.667 142.471 144.577 142.121 143.464 141.859C142.705 141.681 141.989 141.447 141.281 141.121C140.841 140.918 140.33 140.783 139.802 140.868C139.096 140.981 138.466 140.693 137.845 140.418C136.147 139.668 134.872 138.739 133.433 137.699C132.698 137.168 131.937 136.689 131.302 136.02C130.256 134.917 129.533 133.703 128.809 131.966C128.435 131.067 127.923 130.212 127.386 129.395C126.344 127.811 125.685 126.292 124.721 124.286C123.917 122.613 123.33 120.865 122.649 119.155C122.291 118.256 121.888 117.362 121.579 116.433C121.273 115.512 120.952 114.595 120.405 113.75C120.079 113.246 119.883 112.607 119.552 112.081C118.933 111.099 118.481 110.039 117.988 108.998C117.39 107.74 116.732 106.499 116.216 105.214C115.756 104.068 115.03 103.082 114.572 101.941C114.12 100.812 113.499 99.7488 112.937 98.6653C112.399 97.6294 111.694 96.7591 110.573 96.2894C109.899 96.0074 109.303 95.5977 108.848 95.005V95.005Z" fill="black"/>
</svg>
