<svg width="108" height="99" viewBox="0 0 108 99" fill="none" xmlns="http://www.w3.org/2000/svg">
<path fill-rule="evenodd" clip-rule="evenodd" d="M24.3967 64.4256C25.9889 64.7992 27.4966 64.5656 28.9244 63.7438C27.3574 63.5541 25.8932 64.1079 24.3967 64.4256M37.0518 48.9808C37.1599 54.1758 35.5963 57.9993 33.4789 61.5895C31.9948 64.1062 29.5709 65.3654 26.6475 65.5145C24.1577 65.6417 21.7061 65.4478 19.3315 64.5449C17.5413 63.8648 16.3546 62.5505 15.3642 61.0337C13.5231 58.213 11.361 55.4966 11.2868 51.9101C11.1936 47.4317 12.1161 43.2193 15.0739 39.6833C16.3264 38.1864 17.813 37.1815 19.9722 37.5182C22.1153 37.8525 22.9801 40.4624 22.964 42.026C22.9565 42.7496 22.3526 43.1141 21.9964 43.5387C20.374 45.473 20.043 47.894 19.278 50.1514C19.1202 50.6161 19.4404 50.7441 19.7966 50.8216C22.1078 51.3236 24.2066 51.1757 25.7785 49.0682C26.6119 47.9516 27.5132 46.8929 28.0641 45.591C28.3262 44.9722 28.3387 44.4048 28.1084 43.7458C27.8362 42.9646 27.2854 42.0036 28.6584 41.5762C28.9393 41.4888 28.8817 41.2498 28.7504 41.0211C28.1742 40.0213 28.5068 39.0471 29.592 38.5198C31.7898 37.4516 35.2053 39.4037 35.4174 41.8429C35.4397 42.0993 35.4559 42.3971 35.5922 42.5959C37.1177 44.8177 36.8186 47.409 37.0518 48.9808" fill="black"/>
<path fill-rule="evenodd" clip-rule="evenodd" d="M67.25 49.5471C65.995 49.3512 64.7731 49.4402 63.6187 49.9812C64.8659 50.1378 66.1085 50.2769 67.25 49.5471M60.3287 24.5778C59.8035 25.0322 59.0737 24.8073 58.7635 25.458C59.1731 25.7711 59.5496 25.3354 59.9067 25.4128C60.4045 25.5214 61.4259 25.3457 60.6183 26.4127C60.5586 26.4918 60.4194 26.5709 60.5884 26.6542C61.9872 27.3451 60.9401 28.2336 60.7201 28.9853C60.4915 29.7711 60.1399 30.5237 60.1212 31.3566C60.0955 32.5218 60.0839 33.6873 60.0997 34.8517C60.1187 36.2811 60.3407 36.4646 61.7577 36.3299C64.2019 36.0976 65.9171 34.336 65.8579 31.8868C65.809 29.8788 66.2079 27.9573 66.6602 26.0408C66.8934 25.0533 67.513 24.2618 68.6103 24.0733C69.9022 23.8509 71.7764 24.6457 72.2577 25.7927C73.0679 27.7228 73.7977 29.7176 74.0848 31.7911C74.651 35.8847 74.5346 39.9679 73.3872 43.9807C72.9391 45.5476 72.3277 47.0747 71.3813 48.3679C70.1366 50.0682 68.2673 50.8332 66.1822 51.0511C63.5479 51.3261 61.0097 51.2404 58.8074 49.4431C58.3248 49.0492 58.0204 48.5348 57.6919 48.0804C55.529 45.087 52.9377 42.275 52.4249 38.4171C51.8343 33.9744 52.5185 29.7131 54.8074 25.7993C55.6014 24.4411 56.6879 23.4214 58.4462 23.6198C59.164 23.7009 59.8325 23.9138 60.3287 24.5778" fill="black"/>
<path fill-rule="evenodd" clip-rule="evenodd" d="M51.127 85.1813C52.3087 85.7815 54.3201 85.7165 55.2773 85.091C53.898 85.0144 52.5817 84.9146 51.127 85.1813M64.0277 72.6261C64.1416 76.4417 63.0452 80.271 60.4813 83.6368C59.4156 85.0355 57.9651 85.9116 56.2681 86.2906C53.3529 86.9413 50.5165 86.6683 47.8022 85.3561C46.2233 84.5932 45.2151 83.2934 44.1842 81.9203C42.2685 79.3684 41.3225 76.4193 40.5268 73.4383C39.6164 70.0282 40.2596 66.7407 41.8315 63.5692C42.3716 62.479 42.7415 61.3818 43.8623 60.729C44.7156 60.2319 45.5295 60.4473 46.3488 60.746C46.5451 60.8176 46.8508 61.0512 46.8347 61.1747C46.606 62.9226 48.0955 64.3826 47.6428 66.1654C47.4676 66.8558 47.3719 67.5679 47.2617 68.2732C46.9556 70.2328 48.0222 71.6788 50.0348 71.8975C51.9948 72.1104 53.7145 71.5123 54.9232 69.9081C55.9193 68.5868 56.6338 67.0944 57.0157 65.4654C57.3326 64.1134 58.3992 63.3861 59.7776 63.5924C62.0677 63.9349 62.6368 64.5487 62.8829 66.9354C62.8978 67.0837 62.8903 67.2688 62.9748 67.369C64.1814 68.8134 63.8119 70.5803 64.0277 72.6261" fill="black"/>
<path fill-rule="evenodd" clip-rule="evenodd" d="M95.5633 32.0556C96.3494 32.249 97.1339 32.5646 97.8588 31.9794C97.0838 31.9015 96.3097 31.7035 95.5633 32.0556M93.9802 15.0286C95.6685 15.5542 94.3302 16.5458 94.3364 17.3001C94.3393 17.6704 93.911 18.0891 94.3157 18.4814C94.71 18.8633 95.2087 18.8347 95.6908 18.6413C97.843 17.7785 99.0069 16.0405 99.4613 13.9061C99.7948 12.3379 100.344 10.8394 100.678 9.27617C100.977 7.87369 102.408 7.13102 103.819 7.45037C105.505 7.83185 106.559 8.75179 106.793 10.5275C107.07 12.6382 107.666 14.6765 107.603 16.8685C107.456 21.9661 106.013 26.5442 102.849 30.5591C99.8966 34.3039 94.2382 34.4666 91.1997 30.7653C90.2143 29.5646 89.301 28.1869 89.1224 26.514C89.093 26.2381 88.9083 25.9652 88.7526 25.7175C86.1563 21.5987 86.4243 17.3502 88.3483 13.1266C89.6655 10.2363 91.9299 10.3759 93.771 11.7527C94.0013 11.925 94.3194 12.1304 94.2664 12.4597C94.1985 12.8826 93.7756 12.6726 93.5171 12.7604C93.2715 12.8441 92.9314 12.8549 92.9737 13.2036C93.0172 13.5681 93.363 13.4596 93.6116 13.4857C94.0635 13.5329 94.5381 13.5627 94.7121 14.0954C94.8993 14.6695 94.2478 14.6711 93.9802 15.0286" fill="black"/>
<path fill-rule="evenodd" clip-rule="evenodd" d="M15.2577 91.2156C15.0108 91.5805 15.1665 91.9044 15.5343 91.9408C16.1122 91.9976 15.7539 91.568 15.7733 91.3233C15.8011 90.9741 15.9643 91.1957 16.1378 91.228C16.5193 91.2992 16.4883 90.9443 16.3321 90.842C16.0728 90.6713 15.7141 90.5313 15.4188 90.5657C15.0709 90.6054 15.1653 90.948 15.2577 91.2156M13.8084 95.7859C12.9261 95.5129 11.92 96.5737 11.3807 95.194C11.3783 95.7904 11.0283 96.6735 11.7216 96.6383C12.3549 96.606 13.3076 96.6607 13.8084 95.7859M19.1242 92.5721C19.7783 92.9614 19.9083 92.1558 20.5992 92.1898C19.6635 92.9192 19.1271 93.7149 18.763 94.7147C18.5224 95.3754 17.5196 95.778 16.8801 96.0911C14.614 97.2008 12.1723 97.9397 9.61458 98.0118C8.84044 98.0337 8.09322 97.5483 7.28015 97.4924C7.02831 97.4754 6.79139 97.2704 6.8092 96.9539C6.81334 96.8748 6.95293 96.7302 7.0105 96.7393C7.47813 96.8143 7.80618 96.7754 7.57547 96.1727C7.47234 95.9035 7.51003 95.5307 7.15133 95.4301C6.52133 95.2532 7.01589 96.1475 6.53086 96.106C6.06778 96.4987 6.67251 94.5681 5.83293 95.8033C5.77991 95.7614 5.7008 95.7295 5.67802 95.6749C5.17932 94.4724 4.00961 93.8031 3.35932 92.6769C2.73967 91.6041 1.94399 90.6336 1.47636 89.4548C0.0701466 85.9146 -0.37512 82.2705 0.329437 78.5244C0.69559 76.576 1.9324 75.7824 3.71677 76.1291C4.32772 76.2476 4.80032 76.5533 5.04346 77.0743C5.96257 79.0451 7.34932 80.88 6.62902 83.313C6.40618 84.0656 6.83364 84.87 7.3692 85.4851C7.70015 85.8649 8.10441 86.0911 8.66358 85.8057C9.73305 85.2598 10.7959 84.737 11.5522 83.7388C12.0923 83.026 12.736 82.3914 13.3113 81.7038C14.1058 80.7541 14.3228 79.5483 14.4114 78.4068C14.5469 76.6663 15.6677 75.8504 17.2926 76.5839C17.9533 76.8821 18.5965 77.3274 18.8749 77.9789C19.6117 79.7012 20.4493 81.3567 20.8469 83.2542C21.2354 85.1078 21.346 86.9079 21.2516 88.7602C21.2106 89.5662 20.6932 90.2679 20.7649 91.1116C20.7781 91.2678 20.4165 91.5904 20.2111 91.6057C19.5459 91.6554 19.5049 92.2473 19.1242 92.5721" fill="black"/>
<path fill-rule="evenodd" clip-rule="evenodd" d="M85.3421 58.5729C84.6579 59.2783 84.4558 59.3463 84.2255 58.8973C83.9136 58.2892 83.023 58.0821 82.5633 58.5228C82.2812 58.7929 82.2862 59.145 82.5306 59.3968C82.9104 59.7886 85.1334 59.1549 85.3421 58.5729M87.1187 67.0189C86.6887 66.6134 85.9804 66.898 85.7597 66.62C84.9905 65.6512 84.4736 66.8437 83.8249 66.7687C83.711 66.7555 83.2753 67.1763 83.4004 67.4692C83.5279 67.767 84.0821 67.9977 84.2433 67.8598C85.0713 67.1498 86.1962 67.5698 87.1187 67.0189M84.715 62.4441C84.2578 62.4379 83.7251 62.4524 83.6514 63.077C83.5644 63.8122 84.2416 63.4804 84.5767 63.6403C84.9926 63.8395 85.362 63.4464 85.7066 63.5661C86.0827 63.6962 86.311 63.5864 86.4472 63.3093C86.6452 62.9067 86.2745 62.6164 86.1088 62.3144C85.9332 61.9959 85.6408 62.2341 85.4291 62.3463C85.2121 62.4619 85.0514 62.744 84.715 62.4441M93.8532 50.7802C94.4409 51.0295 94.9363 51.336 95.027 51.9316C95.0974 52.3943 94.5577 52.157 94.2972 52.4589C95.5423 52.4879 95.2954 53.5822 95.1637 54.0366C94.8158 55.2337 95.2569 56.3781 95.1169 57.5478C95.0245 58.3166 94.8477 59.0948 94.7839 59.8723C94.718 60.6787 94.1779 59.5674 93.7587 59.6258C93.5388 59.8657 93.5549 60.1175 93.8366 60.2604C94.1257 60.4074 94.6389 60.3776 94.5983 60.7852C94.549 61.2802 94.4057 62.0394 94.083 62.1802C93.2136 62.5596 93.4149 63.422 93.4684 63.8213C93.5835 64.6828 93.1904 64.5772 92.7327 64.448C92.0708 64.2603 91.6736 64.4716 91.5407 65.1136C91.3713 65.9329 90.4505 65.7979 90.0392 66.3748C89.6358 66.9402 89.0041 67.3399 89.0592 68.1857C87.9222 68.0495 88.4478 67.0479 87.9968 66.4399C87.8361 68.426 86.3685 68.3916 85.0394 68.5395C84.5978 68.5892 84.0975 68.4193 83.7098 68.5701C82.8963 68.8857 82.9555 68.4922 83.1614 67.7504C82.7078 68.6343 82.2891 68.9354 81.6508 68.2006C81.4192 67.9343 81.0361 67.9749 80.7081 67.9016C80.1042 67.7661 80.0304 67.6253 80.0466 66.8479C80.0511 66.6287 79.9124 66.6511 79.7778 66.5894C78.3923 65.9548 77.7904 64.7947 77.7801 63.275C77.7751 62.5513 78.0708 61.3978 76.6427 61.4732C76.4459 61.4831 76.4066 61.3336 76.3432 61.199C75.0319 58.4085 75.4589 55.7253 76.9339 53.1581C77.6148 51.9735 79.3574 51.3841 80.682 51.8496C81.1152 52.0021 81.5804 52.4146 81.7643 52.8271C81.9474 53.2368 81.4868 53.4004 81.0668 53.4542C80.74 53.4961 80.841 53.7765 80.9106 53.9915C81.0274 54.3514 81.2706 54.4446 81.6143 54.3174C82.451 54.0072 82.6395 54.146 82.5413 55.1376C82.4697 55.8641 83.5048 56.1532 84.0842 56.5467C84.4769 56.8134 84.6861 56.2418 84.8016 55.9134C84.8857 55.6764 85.0153 55.4992 85.205 55.4026C87.0379 54.4637 87.2396 52.666 87.5237 50.9413C87.6571 50.1324 87.6774 49.2605 87.834 48.4954C87.9926 47.7196 88.2382 46.9066 88.4408 46.1067C88.7659 44.8248 89.8217 44.7838 90.8336 44.8409C91.4877 44.8778 92.135 45.1031 92.7737 45.2862C92.9282 45.3305 93.1598 45.5542 93.1457 45.6702C93.0231 46.6787 94.2044 47.399 93.7202 48.5315C93.598 48.8173 93.9894 49.3872 94.2446 49.7579C94.73 50.4612 94.7482 50.4836 93.8532 50.7802" fill="black"/>
<path fill-rule="evenodd" clip-rule="evenodd" d="M44.7469 29.7981C43.8303 30.2127 43.1849 30.682 42.8002 31.4503C43.4289 30.9628 44.481 30.9628 44.7469 29.7981M41.1707 16.1738C42.0231 16.0151 42.4394 15.5082 42.9178 15.1188C43.8452 14.3633 44.6032 14.6044 44.8778 15.8201C44.9971 16.3473 45.0265 16.641 45.7435 16.7872C46.4509 16.9318 46.6092 17.9424 46.9302 18.5998C47.9197 20.6277 48.2999 22.8068 48.1715 25.0468C48.0005 28.0348 46.5139 30.2761 44.0693 31.9424C42.9489 32.7062 41.797 33.156 40.3845 32.9899C39.7123 32.9108 39.325 32.4817 38.8068 32.2241C37.0249 31.3393 35.1847 30.5731 33.5212 29.4469C31.7315 28.2357 29.6484 23.6998 30.5212 21.295C31.0803 19.7537 32.0235 18.8247 33.59 18.4987C34.4909 18.3111 34.903 18.6851 34.9689 19.7873C35.4535 19.4468 35.6879 19.0512 35.8217 18.5215C36.1357 17.2809 36.5971 16.0943 37.1803 14.9469C37.872 13.5846 39.021 12.9194 40.4355 12.586C40.9909 12.4551 41.5447 12.5243 41.8823 12.9679C42.2103 13.3986 42.1822 13.9193 41.8844 14.4403C41.6093 14.9212 41.4532 15.4701 41.1707 16.1738" fill="black"/>
<path fill-rule="evenodd" clip-rule="evenodd" d="M67.0717 6.28958C67.7717 4.70236 68.089 3.06378 69.3246 1.9065C69.5139 1.72922 69.6787 1.4981 69.9024 1.38999C70.4346 1.13277 71.1106 0.715256 71.5712 1.11247C71.9705 1.45709 71.9046 2.18526 71.7017 2.77756C71.6035 3.06212 71.2398 3.45271 71.6569 3.66271C72.0098 3.83958 72.2116 3.38271 72.4369 3.14786C72.5669 3.012 72.6639 2.84342 72.8001 2.71626C73.0545 2.47892 73.1775 1.9649 73.6563 2.1546C74.0386 2.30537 74.3758 2.58082 74.4321 3.05011C74.4843 3.48543 74.4805 3.89052 75.1578 3.59561C75.5024 3.44567 75.7439 3.89301 75.9307 4.14567C77.9946 6.93656 78.4221 9.82395 75.7393 12.6683C74.9188 13.5377 74.0759 14.3856 73.2446 15.2446C72.7877 15.7168 72.2327 15.7106 71.6785 15.5138C71.053 15.2918 71.7274 14.7844 71.4482 14.3781C70.812 15.4008 70.1998 15.2649 69.3859 14.5272C68.8814 14.0703 68.2766 13.4992 67.3273 13.8815C66.9777 14.0223 66.3125 13.6338 65.9045 13.3335C63.8596 11.8287 62.6286 9.83679 62.5801 7.24472C62.5607 6.21668 62.8982 5.30502 63.9379 4.84194C64.1371 4.7533 64.5393 4.65141 64.5546 4.68579C65.0314 5.75815 66.421 5.32987 67.0717 6.28958" fill="black"/>
</svg>
