<svg width="71" height="71" viewBox="0 0 71 71" fill="none" xmlns="http://www.w3.org/2000/svg">
<path fill-rule="evenodd" clip-rule="evenodd" d="M63.7295 28.0744C63.3509 27.9567 63.0129 28.1816 62.7897 27.8793C62.5565 27.5632 62.361 27.241 62.3668 26.8115C62.3854 25.4578 62.39 24.1038 62.3618 22.7506C62.3556 22.4342 62.4749 22.1997 62.5975 21.9404C62.9297 21.2384 63.2842 20.55 63.79 19.9535C64.0261 19.6748 64.299 19.4449 64.6507 19.309C64.8379 19.237 64.9986 19.471 65.2413 19.2486C65.4352 19.0713 65.67 19.572 65.9608 19.5522C66.1381 19.9991 65.7703 20.2054 65.53 20.4833C65.8374 20.6241 66.16 20.6129 66.4483 20.7852C66.7308 20.9542 66.9524 21.1079 66.8857 21.448C66.8037 21.8684 67.1454 22.0245 67.3376 22.2755C67.2535 22.3878 67.0593 22.4607 67.1226 22.6334C67.6367 24.0404 67.2622 25.0043 66.812 26.1574C66.6873 26.478 66.503 26.8587 66.4848 27.1337C66.4404 27.8105 65.9803 28.298 65.8697 28.9276C65.7881 29.3932 65.4849 29.6761 64.951 29.6483C64.8507 29.6429 64.7658 29.8741 64.4995 29.8206C64.427 29.7432 64.1959 29.6081 64.2013 29.4822C64.2178 29.0655 64.1623 28.7391 63.7374 28.5436C63.6814 28.518 63.7295 28.2665 63.7295 28.0744" fill="black"/>
<path fill-rule="evenodd" clip-rule="evenodd" d="M41.2647 61.9058C41.7278 62.023 42.3069 61.6726 42.6825 62.2206C42.526 62.5329 42.3727 62.8385 42.2277 63.1277C42.4274 63.3319 42.5504 63.237 42.738 63.1641C43.4327 62.892 43.5963 62.9814 43.8411 63.6752C43.8767 63.7759 43.8593 63.9258 43.9719 63.9486C44.7639 64.1056 44.5825 64.9 44.9118 65.3573C44.5725 65.7583 45.1408 66.1604 44.9544 66.4843C44.744 66.8505 44.8115 67.3608 44.3787 67.6043C44.2507 67.6764 44.3157 67.8052 44.2988 67.91C44.1505 68.8233 43.7582 69.5457 42.8118 69.8568C42.6867 69.8982 42.6291 70.1007 42.3628 70.022C42.2431 69.7768 42.0948 69.4732 41.9461 69.1692C41.7088 69.0938 41.2879 69.3096 41.3513 68.7413H40.0586C39.9778 68.1262 40.0664 67.4755 39.5723 67.0125C39.5334 66.976 39.5296 66.8538 39.5599 66.7991C39.8527 66.2714 39.6605 65.6472 39.8813 65.1262C39.9931 64.8623 40.0731 64.6689 39.9136 64.4266C39.5288 63.8417 39.9173 63.3894 40.2197 62.974C40.5034 62.5834 40.8977 62.2727 41.2647 61.9058" fill="black"/>
<path fill-rule="evenodd" clip-rule="evenodd" d="M52.3778 32.9307C52.2154 33.2956 51.8762 33.202 51.5212 33.2828C51.5941 33.755 51.358 34.2636 51.7366 34.7151C51.3817 34.7275 51.3817 34.7275 51.194 34.5871C50.9401 34.735 50.8556 35.0071 50.6696 35.2742C50.7276 34.4529 50.3938 33.861 49.8081 33.4704C49.5422 33.4182 49.5024 33.6174 49.3715 33.668C48.9275 32.8491 48.9163 32.4403 49.2692 30.2906C49.4527 29.1764 50.028 28.2581 50.842 27.3319C51.0872 27.2785 51.4885 27.9868 51.8601 27.3108C52.22 27.9499 51.5581 28.3024 51.5221 28.9179C51.8812 28.756 52.2295 28.6259 52.5932 28.7543C52.7841 28.9192 52.5364 29.1896 52.7452 29.3669C53.0749 29.6469 53.3682 29.9522 52.9159 30.373C53.4046 30.735 52.7953 31.0511 52.8695 31.4168C52.9407 31.7697 52.8848 32.1487 52.8848 32.5277C52.5286 32.4573 52.4627 32.0373 52.0792 32.1044C51.7499 32.536 52.3298 32.606 52.3778 32.9307" fill="black"/>
<path fill-rule="evenodd" clip-rule="evenodd" d="M10.9351 56.438C10.7918 56.1671 10.4249 56.327 10.1871 56.2243V55.7194C10.1598 55.6887 10.1258 55.6332 10.1117 55.6378C9.48959 55.8457 9.16527 55.1942 8.62101 55.1267C8.10036 55.062 7.80213 54.6698 7.69982 54.1508C7.65923 53.942 7.75077 53.79 7.93633 53.6902C7.04456 52.943 7.6029 52.1999 7.8916 51.4419C8.2619 50.4706 9.02403 50.3555 9.88515 50.4027C10.0579 50.8873 9.96095 51.2891 9.63332 51.5906C10.3109 52.033 10.5122 51.3728 10.9414 51.2497C11.0809 51.5161 11.2056 51.7538 11.3162 51.9642C11.3104 52.2136 10.9459 52.3014 11.1224 52.5802C11.4268 52.9434 11.532 52.3577 11.8489 52.4534C12.2751 52.837 12.225 53.4222 12.2142 53.9512C12.3894 53.9967 12.4913 54.0236 12.6491 54.0647C12.592 54.3463 12.1985 54.4275 12.2101 54.7299C12.2088 55.0583 12.5576 54.809 12.6582 55.0521C12.1218 55.4945 11.7569 56.158 10.9351 56.438" fill="black"/>
<path fill-rule="evenodd" clip-rule="evenodd" d="M37.1675 40.6909H38.0933C38.283 40.8806 38.2337 41.3892 37.9794 41.9231C38.5137 42.3597 38.7216 41.7256 39.0149 41.5897C39.3599 41.5735 39.3798 41.8726 39.5322 41.909C39.6295 42.2379 39.234 42.3075 39.3616 42.6476C39.5985 42.7876 40.1092 42.6559 40.2119 43.0601C40.2852 43.3492 40.3552 43.7278 39.9911 43.9854C40.1402 44.0376 40.2707 44.0832 40.4016 44.1287C40.3722 44.4493 39.9406 44.6896 40.1978 45.1054C39.712 45.7532 38.8881 46.0146 38.2556 46.5307C38.1409 46.6243 37.899 46.9495 37.5788 46.7341C37.4496 46.5605 37.7478 46.5609 37.7209 46.4048C37.4036 46.2051 37.0064 46.4462 36.6647 46.2698C36.5587 46.0183 36.7247 45.6497 36.3213 45.4948C35.8433 45.7243 35.3616 45.8162 34.9408 45.1568C35.4917 44.796 36.2331 44.673 36.3561 43.8475C35.8972 43.8343 35.613 44.2414 35.176 44.3035C35.0853 44.2215 34.9776 44.1246 34.8314 43.9929C34.8 43.9701 34.8563 43.9411 34.8985 43.8603C35.1541 43.3745 35.9502 43.4403 36.0065 42.7635C36.5106 42.5643 36.4721 42.0027 36.5636 41.6514C36.6692 41.2451 36.883 41.0156 37.1675 40.6909" fill="black"/>
<path fill-rule="evenodd" clip-rule="evenodd" d="M18.0444 66.4867C18.1736 66.1864 18.4338 66.1189 18.2221 65.7705C18.0804 65.6206 17.747 65.8645 17.4533 65.703C17.4372 65.6251 17.4165 65.5224 17.3887 65.3845C17.3556 65.3302 17.2914 65.3041 17.2516 65.3629C17.1286 65.5464 16.9488 65.5415 16.7596 65.5377C16.2066 65.5274 16.0881 65.3679 16.0426 64.8038C16.0227 64.5552 16.2236 64.4442 16.2435 64.2036C16.0591 64.1903 15.8815 64.1775 15.6387 64.1601C15.4598 63.3242 15.9477 62.5882 16.1047 61.817C16.1846 61.4255 16.7881 61.2358 17.2736 61.24C17.4504 61.3203 17.3949 61.4926 17.4202 61.561C17.5018 61.72 17.5304 61.6902 17.6128 61.6198C17.8634 61.4052 18.1649 61.3522 18.3662 61.6476C18.5729 61.9507 18.8666 61.9048 19.1416 61.9532C19.2986 62.1148 19.1814 62.3123 19.2228 62.4863C19.3607 62.6781 19.5666 62.56 19.7729 62.6226C20.1974 62.908 19.9945 63.5322 20.3511 63.89C19.1632 65.7722 18.8786 66.1052 18.0444 66.4867" fill="black"/>
<path fill-rule="evenodd" clip-rule="evenodd" d="M31.0562 18.0872C30.9448 17.4866 30.543 17.2833 29.937 17.4402C29.3957 16.4134 29.5887 15.344 29.7109 14.3064C29.7365 14.086 29.8649 13.8168 29.8277 13.5828C29.7544 13.1218 30.0331 12.7511 30.1068 12.3302C30.164 12.0043 30.6569 11.9314 30.9634 11.7611C31.3747 12.1244 31.3747 12.1244 31.4874 12.6492C31.6207 12.6579 31.7641 12.667 31.6622 12.6604C32.2387 12.6807 31.9985 13.0642 32.2429 13.1731C32.382 13.2353 32.5999 13.3753 32.5448 13.5952C32.4549 13.9547 32.9864 14.202 32.7602 14.5056C32.5307 14.8134 32.6654 15.1683 32.532 15.4293C32.1903 16.0986 32.0826 16.828 31.8908 17.5314C31.7653 17.992 31.5267 18.1204 31.0562 18.0872" fill="black"/>
<path fill-rule="evenodd" clip-rule="evenodd" d="M54.8963 50.9409C54.731 50.7985 54.6175 50.6332 54.3479 50.6112C53.6624 50.5553 53.6644 50.5288 53.5008 49.7721C52.9988 49.6043 52.5279 49.7688 52.107 49.9647C51.8933 49.7489 52.0412 49.5501 51.9529 49.3624C52.1091 49.3086 52.24 49.2634 52.4024 49.2075V47.9115C52.1774 47.9831 51.967 48.0502 51.6506 48.1505C51.5292 48.16 51.4957 47.902 51.3213 47.8485C51.5727 47.1941 52.0967 46.7911 52.5523 46.3317C53.1082 46.4539 53.7108 45.833 54.2103 46.4866C54.1896 46.5256 54.1573 47.2724 54.2021 47.424C54.0927 47.4368 53.9883 47.4513 53.8835 47.4612C53.8102 47.4683 53.7365 47.4695 53.6628 47.4737C53.4801 47.6418 53.6222 47.943 53.3687 48.1099C53.9366 47.9115 54.4303 47.6692 54.8014 47.2289C54.9584 47.4144 55.1133 47.566 55.4016 47.4894C54.907 47.8899 55.5706 48.3957 54.9853 48.7656C55.4285 48.7842 55.4745 48.4943 55.6505 48.433C55.8154 48.3758 56.0001 48.3758 56.1637 48.3526C56.365 48.7689 56.6429 49.1301 56.4226 49.6694C56.136 49.9183 55.4521 49.8624 55.3403 50.5702C55.8518 50.4708 56.189 50.1821 56.4412 49.9286C56.761 49.9875 56.7316 50.1436 56.7212 50.2902C56.1496 50.2496 56.2047 50.9617 55.7226 51.1017C55.3357 51.2139 55.0126 51.5473 54.5289 51.8721C54.5773 51.4367 54.7422 51.1895 54.8963 50.9409" fill="black"/>
<path fill-rule="evenodd" clip-rule="evenodd" d="M44.5253 17.0744C44.3928 17.2073 44.2598 17.3399 44.1265 17.4732C44.5187 17.7301 43.7255 18.1848 44.2843 18.4143C43.4182 19.4399 43.407 19.466 43.3602 20.5367H42.3081C42.2215 20.4932 42.3031 20.3097 42.2224 20.1933C41.1691 20.0707 40.9446 19.8259 40.9102 18.7693C40.9011 18.486 40.9943 18.1737 40.696 17.967C40.9156 17.6617 40.7926 17.2699 41.022 16.9331C41.4627 16.2874 42.0178 15.7605 42.5475 15.2084C42.7658 15.1019 42.965 15.1682 43.1473 15.1885C43.2459 15.6081 42.6747 15.8686 43.0731 16.3172C43.202 16.13 43.3233 15.9527 43.4501 15.768C43.8473 16.2468 44.5212 16.3847 44.5253 17.0744" fill="black"/>
<path fill-rule="evenodd" clip-rule="evenodd" d="M61.47 1.485C61.3138 1.75009 60.9531 1.43944 60.7932 1.73932C61.1117 1.905 61.4509 1.78654 61.8196 1.83417C61.9559 2.3047 62.2296 2.73672 62.4102 3.23003C62.7921 4.27506 62.5415 5.17595 62.1555 6.11577C62.0022 6.48979 61.7744 6.63145 61.3358 6.53991C61.2281 6.30879 61.0989 6.03127 60.9506 5.71316C60.7004 5.62038 60.3082 5.72186 60.1139 5.27121C60.1375 4.52109 60.1698 3.68606 59.626 2.97612C59.7896 2.67748 59.9379 2.40784 60.0944 2.12287C59.9693 2.07772 59.8393 2.0305 59.6425 1.95926C59.7486 1.59518 59.8774 1.24766 60.2021 0.948608H61.1581C61.2907 1.10435 61.5247 1.21038 61.47 1.485" fill="black"/>
<path fill-rule="evenodd" clip-rule="evenodd" d="M28.7704 29.2114C28.6142 29.4607 28.3723 29.3725 28.1777 29.3862C27.638 28.9024 27.9847 28.1349 27.5808 27.6113C28.251 26.3008 28.251 26.3008 29.3938 25.7727C29.6241 25.8298 29.7566 25.9889 29.8403 26.1993C29.9045 26.4474 29.4737 26.5029 29.6183 26.7883C29.8328 27.0356 29.9931 26.8769 30.1513 26.7042C30.8012 26.9594 30.6405 27.8002 31.2063 28.1436C31.1425 28.6083 31.2838 29.0908 31.133 29.563L30.194 30.7286C30.0461 30.7348 29.8983 30.7414 29.7529 30.7481C29.622 30.5207 29.349 29.7904 29.3896 29.7117C29.1966 29.5556 28.9961 29.3936 28.7704 29.2114" fill="black"/>
<path fill-rule="evenodd" clip-rule="evenodd" d="M16.416 29.6171C16.1906 29.7119 16.4035 30.0267 16.2288 30.0416C15.9028 30.1125 15.7785 29.9381 15.6878 29.7952C15.4977 29.4953 15.7388 29.089 15.5801 28.8326C15.3796 28.5079 15.3026 28.2991 15.5433 27.9611C15.7433 27.6807 15.6323 27.2992 15.7992 26.943C16.1985 26.0889 16.1762 26.0206 17.1048 26.028C17.1313 26.0545 17.1793 26.0798 17.181 26.108C17.188 26.2571 17.1843 26.407 17.1843 26.5868C17.4863 26.7608 17.9485 26.6299 18.1163 27.1476C18.2426 27.5374 18.6481 27.8116 18.5557 28.3215C18.4857 28.7104 18.5822 29.0964 18.2057 29.4332C18.0181 29.6013 17.8342 29.9257 17.8487 30.2906C17.8586 30.554 17.6366 30.716 17.3334 30.7516C17.053 30.7843 16.8989 30.6178 16.7888 30.4413C16.6305 30.1866 16.5361 29.8917 16.416 29.6171" fill="black"/>
<path fill-rule="evenodd" clip-rule="evenodd" d="M23.6049 37.5211C23.9259 37.5211 24.225 37.5211 24.5248 37.5211C24.7638 37.6735 24.5592 37.9423 24.6831 38.1254C24.8409 38.2741 25.0384 38.1577 25.2182 38.2041C25.4771 38.7281 25.8105 39.2338 25.9795 39.7901C26.163 40.3915 25.8892 40.9867 25.6892 41.5525C25.2315 41.741 25.019 41.3893 24.7605 41.1379C24.461 41.1375 24.1628 41.1375 23.8567 41.1375C23.7031 40.7059 23.4889 40.348 22.9393 40.4636C22.6821 40.1608 23.0337 39.6857 22.6216 39.4525C22.8254 39.1692 23.0171 38.8871 23.0677 38.5226C23.1174 38.1668 23.3025 37.864 23.6049 37.5211" fill="black"/>
<path fill-rule="evenodd" clip-rule="evenodd" d="M0.0428384 41.0092C0.453312 40.4575 1.05515 40.2794 1.70627 40.2231C2.14698 40.7603 1.39603 40.8655 1.33597 41.2118C1.81893 41.6691 2.21698 40.902 2.67384 41.1919C2.94266 41.4392 2.57899 41.5415 2.52142 41.7192C2.68296 41.9333 2.95674 41.7113 3.11911 41.8472C3.30426 42.3152 2.99444 42.8367 3.38461 43.2861C3.0168 43.6187 3.08763 44.2607 2.55787 44.525C2.06663 44.4376 1.76509 44.0702 1.3981 43.7827C1.07337 43.5288 0.548992 43.5785 0.278105 42.9527C0.44917 42.3968 -0.16302 41.7623 0.0428384 41.0092" fill="black"/>
<path fill-rule="evenodd" clip-rule="evenodd" d="M68.0794 39.1494C67.6991 38.9253 67.3239 38.8628 67.077 38.4374C67.2365 38.3409 67.42 38.2299 67.6035 38.1189C67.0936 37.9615 66.6781 38.4399 66.2287 38.1002C66.4756 37.6657 67.0095 37.6707 67.3409 37.3774C67.3765 37.1152 67.2195 37.1152 67.0203 37.0519C66.6926 36.9479 66.6293 37.4603 66.3153 37.2855C66.1939 37.1745 66.1393 36.9893 66.2739 36.9119C67.0008 36.4927 67.5956 35.9087 68.2339 35.3806C68.6129 35.0674 68.7367 34.9825 69.3357 34.8723C69.2901 35.1039 69.0677 35.188 68.9393 35.3636C69.24 35.6916 69.4918 35.4133 69.7594 35.2969C69.7983 35.7612 70.174 36.1477 69.9922 36.7839C69.286 37.3679 68.9049 38.398 68.0794 39.1494" fill="black"/>
</svg>
