<svg width="32" height="70" viewBox="0 0 32 70" fill="none" xmlns="http://www.w3.org/2000/svg">
<path fill-rule="evenodd" clip-rule="evenodd" d="M12.0218 0.948608C11.8503 1.42742 11.789 1.99405 11.4878 2.36973C10.3517 3.78796 9.57548 5.4079 8.69282 6.97482C8.12246 7.98672 7.75465 9.07482 7.27749 10.1186C6.80116 11.1595 6.50045 12.2799 6.12684 13.3672C5.66169 14.72 5.25412 16.0964 4.85483 17.4636C4.54252 18.5339 4.02684 19.5964 4.0927 20.7677C3.53518 22.106 3.56169 23.5992 2.98637 24.9387C2.86666 25.2167 2.96897 25.5894 3.11394 25.937C3.36495 24.9785 3.61678 24.0209 3.86655 23.0624C4.06992 22.2808 4.33418 21.5083 4.45844 20.7143C4.67258 19.3495 5.21146 18.0762 5.47986 16.723C5.72258 15.5012 6.18607 14.3136 6.64542 13.1472C6.91175 12.47 7.21039 11.7791 7.42371 11.1048C7.63619 10.4338 8.21649 9.90157 8.15933 9.14565C8.95832 8.30441 8.9285 7.02121 9.7395 6.1866C9.88447 5.19003 10.6727 4.53228 11.0596 3.68316C11.468 2.78725 12.1622 2.1208 12.617 1.28163C12.6886 1.14867 12.8195 1.06376 13.0005 1.10766C13.4988 1.38186 12.5345 1.72482 13.0498 2.00896C13.5145 2.06654 13.2934 1.35535 13.8078 1.36529C13.8078 1.91494 13.7709 2.4737 13.8223 3.02417C13.8509 3.32861 13.4632 3.4218 13.5659 3.71589C13.0651 4.15453 12.892 4.78453 12.5979 5.34618C12.5296 5.47624 12.4869 5.69494 12.4393 5.71938C11.7028 6.09796 11.54 6.81867 11.323 7.50956C11.2522 7.73529 10.9738 7.58038 10.879 7.76056C11.2157 8.00204 11.2165 8.48956 11.067 8.65275C10.3774 9.40328 10.3629 10.4065 9.98968 11.268C9.49181 12.4174 9.04282 13.6004 8.83075 14.8538C8.74915 15.3342 8.5524 15.813 8.354 16.2335C7.85944 17.2781 7.86027 18.4329 7.47134 19.4837C7.09027 20.5109 7.09566 21.623 6.65909 22.6474C6.46442 23.103 6.40063 23.6833 6.36459 24.2143C6.33353 24.6683 6.25234 25.0692 5.904 25.3823C5.97897 25.4643 6.0527 25.5455 6.15873 25.6623C6.03447 25.968 5.83193 26.2803 5.89696 26.6626C5.98477 27.1791 5.71471 27.6497 5.63643 28.1434C5.47282 29.1723 5.29844 30.1929 5.18371 31.2325C5.11702 31.8393 5.17542 32.5227 4.95051 33.0426C4.67258 33.6858 4.96252 34.3133 4.75086 34.8812C4.48205 35.604 4.69868 36.3595 4.51684 37.0458C4.22442 38.1493 4.48453 39.2664 4.29731 40.3433C3.89015 42.6823 4.20495 45.0279 4.09518 47.3669C4.07737 47.7426 3.99578 48.1572 4.12169 48.4852C4.2327 48.7743 4.11092 49.0693 4.28944 49.3625C4.40211 49.5477 4.44353 49.9474 4.154 50.1797C4.44974 50.4568 3.82098 50.8698 4.29193 51.1349C4.32548 51.1539 4.28862 51.3341 4.25382 51.4277C4.2298 51.4919 4.15317 51.5362 4.08649 51.6029C4.22442 51.7264 4.36193 51.8502 4.54459 52.0138C4.54459 52.5436 4.5301 53.1011 4.55081 53.6574C4.56075 53.9382 4.43524 54.2389 4.71027 54.5011C4.80927 54.5951 4.79229 54.8565 4.76246 55.0304C4.70737 55.3494 4.46051 55.6078 4.74589 55.9922C4.93311 56.2445 4.62743 56.7146 4.97909 57.0244C5.05447 57.0907 4.97868 57.3139 4.99939 57.461C5.05944 57.8905 4.85483 58.3424 5.14436 58.7562C5.39826 59.119 4.9998 59.6575 5.44589 59.9872C5.46412 60.0004 5.45376 60.0601 5.44755 60.0965C5.2798 61.0637 5.76566 61.9758 5.68406 62.94C5.66376 63.1807 5.58672 63.4408 5.78057 63.6877C6.27015 64.311 6.15294 65.1109 6.33394 65.8245C6.46731 66.3522 6.47891 66.8625 7.11761 67.0895C7.43944 67.2042 7.65317 67.5642 7.42122 67.9005C7.18471 68.2426 7.19672 68.475 7.4643 68.7716C7.53885 68.8536 7.47548 69.0603 7.47548 69.2251C7.26921 69.4488 6.98962 69.2765 6.70548 69.3473C6.50335 69.1054 6.28879 68.8494 6.05974 68.5752C5.59252 69.3577 5.22513 69.4227 4.60921 69.076C3.62424 68.5218 3.31317 67.553 2.97187 66.6036C2.73578 65.9459 2.60447 65.2517 2.38868 64.5861C2.18365 63.9523 2.14885 63.283 1.86471 62.6571C1.70027 62.2955 1.69613 61.8155 1.64643 61.405C1.51678 60.333 1.12371 59.2996 1.16264 58.2099C1.17507 57.8677 0.847019 57.659 0.909563 57.2837C0.958853 56.9859 1.07027 56.6077 0.724829 56.3513C0.686309 56.3227 0.695835 56.2097 0.705776 56.1388C0.84619 55.1365 0.346664 54.1863 0.472995 53.1827C0.537196 52.6732 0.148261 52.2379 0.234415 51.6932C0.315599 51.1792 0.34832 50.62 0.234829 50.1193C-0.184342 48.2744 0.0985572 46.4138 0.0360128 44.5628C-0.0136913 43.0965 0.0190305 41.6273 0.028143 40.1598C0.0347702 39.0576 0.404238 37.9794 0.251812 36.8657C0.586072 36.2891 0.335066 35.6172 0.511516 35.0502C0.69335 34.4658 0.564119 33.8664 0.736013 33.3371C0.919918 32.77 0.747196 32.1338 1.02927 31.66C1.33412 31.1488 0.853232 30.5201 1.38175 30.1071C1.32501 29.555 1.52507 29.0331 1.57063 28.5038C1.60584 28.0925 1.74418 27.7333 1.84773 27.3626C2.03495 26.6925 1.99228 25.9987 2.13353 25.3343C2.26566 24.7113 2.4011 24.0859 2.54359 23.4691C2.82814 22.2365 3.16282 21.0146 3.44406 19.7774C3.6201 19.0028 3.82388 18.2067 4.13246 17.4715C4.4369 16.7475 4.42365 15.9489 4.77157 15.251C5.17915 14.4338 5.26613 13.5097 5.66418 12.6842C6.05643 11.8707 6.31572 10.9971 6.64211 10.1546C7.33631 8.36157 8.20489 6.65837 9.06601 4.94814C9.57672 3.93417 10.3028 3.05399 10.8827 2.08476C11.1639 1.61423 11.5276 1.25885 12.0218 0.948608" fill="black"/>
<path fill-rule="evenodd" clip-rule="evenodd" d="M23.7574 45.7519C23.745 45.4603 23.7412 45.2673 23.9264 45.0718C24.1724 44.8125 23.6654 44.6771 23.7417 44.3991C23.7802 44.2591 23.6895 44.009 23.7582 43.9646C24.1521 43.7087 23.7524 43.3624 23.8572 43.1694C24.0386 42.8335 23.9293 42.5178 23.9715 42.1985C24.027 41.7739 23.8759 41.3398 24.1861 40.9273C24.4388 40.5914 23.9086 40.1942 24.177 39.7564C24.3112 39.5381 24.2515 39.1574 24.1873 38.8708C24.1049 38.5001 24.5063 38.3067 24.4375 37.9438C24.3824 37.653 24.4669 37.337 24.416 37.045C24.3526 36.6851 24.7593 36.473 24.6521 36.1209C24.5452 35.7684 24.9362 35.5564 24.8919 35.1968C24.8496 34.8481 24.7772 34.4538 25.104 34.1634C25.063 33.4315 25.0638 32.712 25.5484 32.0878C25.6031 32.0174 25.572 31.865 25.553 31.7552C25.4751 31.3004 25.6163 30.8767 25.8644 30.5338C26.0227 30.3142 25.9808 30.1212 26.0082 29.9104C26.0351 29.7004 26.0599 29.5053 26.1395 29.2891C26.463 28.4072 26.8009 27.5275 27.1037 26.6427C27.5233 25.4184 28.015 24.2342 28.5671 23.0711C28.647 22.9029 28.8086 22.7919 28.6056 22.5517C28.3948 22.8375 28.0957 22.9994 27.9856 23.388C27.8837 23.7487 27.4902 24.0631 27.4815 24.4044C27.4715 24.8116 26.8693 24.836 27.0536 25.362C27.1414 25.613 26.7724 26.0181 26.6224 26.3582C26.4116 26.8353 26.0939 27.3034 26.0367 27.8C25.9576 28.4851 25.671 29.0927 25.4738 29.7232C25.2746 30.3598 25.1669 31.0175 24.9768 31.655C24.7875 32.29 24.486 32.9274 24.4578 33.5761C24.4276 34.274 24.2085 34.9309 24.1472 35.621C24.1045 36.1039 24.1173 36.6619 23.9347 37.0951C23.7802 37.4621 23.7259 37.7993 23.7636 38.1451C23.8067 38.5378 23.4347 38.771 23.5027 39.1852C23.5867 39.6984 23.5445 40.2368 23.5159 40.7616C23.4902 41.2388 23.7263 41.8075 23.4132 42.1736C23.004 42.6524 23.8841 43.1404 23.2968 43.5285C23.576 43.9174 23.617 44.3043 23.3026 44.7003C23.2807 44.7288 23.3258 44.849 23.3722 44.8879C23.6625 45.1302 23.5296 45.4591 23.5105 45.73C23.3767 47.627 23.7632 49.498 23.7673 51.3867C23.7673 51.4132 23.8175 51.4397 23.8949 51.5172C24.1509 50.6942 23.7288 49.826 24.138 49.1069C23.9869 48.8058 23.8456 48.5258 23.7267 48.2901C23.8241 48.006 24.112 48.1783 24.1977 47.982C24.1144 47.8664 23.8846 47.7629 23.9852 47.6299C24.3182 47.19 23.8551 46.922 23.8005 46.5638C23.9334 46.4362 24.068 46.3061 24.2491 46.1317C24.0656 45.9905 23.8887 45.8538 23.7574 45.7519M27.5801 57.5848H27.0263C26.8867 57.6764 26.9766 57.7377 27.0362 57.828C27.2093 58.0918 27.0818 58.5429 27.583 58.6129C27.7379 58.6344 27.8278 58.8456 27.824 59.0668C27.8178 59.464 28.1003 59.6219 28.4718 59.6434V61.1088C28.2946 61.2658 28.1873 61.4746 27.9015 61.4344C27.7341 61.4108 27.5067 61.3329 27.3825 61.5251C27.0751 62.001 26.487 62.0288 26.1975 61.8354C25.7903 61.5632 25.2982 61.3843 25.0137 60.8255C24.5282 59.8716 24.225 58.8784 23.9877 57.8607C23.7686 56.9221 23.6422 55.9595 23.4836 55.0077C23.3813 54.393 23.4248 53.7588 23.2653 53.1831C23.0934 52.5647 23.1904 51.9384 23.0466 51.3536C22.8072 50.3769 22.7173 49.4408 23.0093 48.4625C23.0562 48.3067 22.883 48.0267 22.8283 47.7914C22.6175 46.879 22.5111 45.0225 22.7289 44.0454C22.794 43.7534 22.4672 43.5409 22.6266 43.2903C22.7915 43.031 23.0127 42.8098 22.6258 42.5663C23.0673 41.8298 22.2538 41.006 22.8167 40.2314C23.011 39.9647 22.8039 39.4739 23.0433 39.0862C23.1535 38.9081 22.7041 38.6231 22.8619 38.2619C22.9891 38.1273 23.1398 37.9682 23.2939 37.8051C23.1303 37.6866 23.0284 37.5416 23.0707 37.3308C23.1916 36.7319 23.2227 36.106 23.366 35.5274C23.5673 34.711 23.7433 33.8838 23.9508 33.0678C24.4085 31.2661 24.838 29.4647 25.4689 27.7077C25.9527 26.3578 26.4828 25.0435 27.1178 23.7566C27.7068 22.5633 28.3691 21.481 29.5401 20.7922C29.6685 20.8775 29.6105 21.0001 29.6221 21.1057C29.6341 21.2117 29.5844 21.3348 29.7716 21.4437C29.9596 21.2014 30.1597 20.9425 30.4082 20.6219C30.7752 21.0104 31.1733 21.0092 31.5535 20.9773C31.9499 21.7432 31.4251 22.2535 31.0854 22.7696C30.8485 23.1303 30.6505 23.4729 30.5097 23.8916C29.999 25.4088 29.4204 26.9029 28.8674 28.406C28.5828 28.3948 28.8434 28.0572 28.6019 28.0229C28.5787 28.0477 28.5099 28.0867 28.4971 28.1388C28.3981 28.553 28.8355 28.8567 28.7241 29.2882C28.5824 29.8354 28.4735 30.3913 28.36 30.9455C28.0978 32.2311 27.5772 33.4572 27.5664 34.8054C27.5631 35.2863 27.3775 35.7784 27.2992 36.2725C27.2479 36.5977 27.4732 36.9804 27.1373 37.2554C27.3005 38.2963 26.7401 39.2908 26.9244 40.3226C27.0097 40.8006 26.6228 41.2541 26.9115 41.7188C26.6054 42.1393 26.6912 42.6247 26.6866 43.094C26.6817 43.6209 26.6854 44.1481 26.6854 44.675C26.6854 45.1646 26.6647 45.6554 26.6924 46.1433C26.7136 46.5016 26.6158 46.8537 26.7976 47.2285C26.9157 47.4733 26.4394 47.8486 26.8511 48.1472C26.3561 48.9185 27.0565 49.6404 26.9318 50.4233C26.697 51.8995 27.2557 53.3604 27.1373 54.8449C27.4608 55.1932 26.9521 55.6165 27.1659 55.8808C27.4782 56.2681 27.3353 56.6616 27.3498 57.0497C27.3576 57.2543 27.5233 57.34 27.5801 57.5848" fill="black"/>
<path fill-rule="evenodd" clip-rule="evenodd" d="M12.9038 35.2169C12.9038 36.7602 12.9229 38.3039 12.8922 39.8464C12.8831 40.3045 13.1109 40.8169 12.6855 41.229C12.6342 41.2791 12.6681 41.4311 12.7663 41.5252C12.9875 41.7364 12.9713 41.9713 12.8011 42.2152C12.7427 42.2989 12.6578 42.4327 12.6876 42.4977C12.9345 43.0449 13.0177 43.5817 12.6777 44.1218C13.154 44.681 12.881 45.3441 12.8831 45.948C12.8873 47.1674 13.2994 48.3545 13.1296 49.5805C13.632 50.3278 13.0687 51.2556 13.5405 52.0078C13.0658 52.5326 13.4804 53.0702 13.6875 53.4484C13.9716 53.9678 13.5732 54.5302 13.9994 55.0331C14.1982 55.2675 14.0338 55.8105 14.1013 56.2268C14.2239 55.8934 14.4579 55.6813 14.6857 55.4651C14.4658 55.0662 14.1957 54.6943 14.2521 54.1927C14.2831 53.9139 14.337 53.6004 14.0479 53.39C14.4534 53.1216 14.0296 52.866 13.9563 52.7007C13.8602 52.4841 13.888 52.4249 14.0135 52.2778C14.0698 52.2116 14.0756 52.0343 14.0263 51.956C13.4866 51.0986 14.1323 50.0532 13.5815 49.2028C13.7244 48.7683 13.7633 48.3512 13.3793 48.0053C13.8681 47.6847 13.1784 47.2407 13.3793 47.1049C13.8113 46.8129 12.9792 46.3895 13.5458 46.2102C13.5579 45.8387 13.6854 45.422 13.5608 45.1039C13.1039 43.9379 13.4725 42.7466 13.3669 41.5749C13.3429 41.306 13.8449 41.0265 13.3599 40.7481C13.8544 40.4689 13.3665 40.1947 13.359 39.9172C13.3379 39.1779 13.5123 38.4597 13.6771 37.7489C13.714 37.5898 13.7939 37.4242 13.8101 37.2431C13.8383 36.9279 13.5802 36.6579 13.7799 36.2859C13.9215 36.0233 13.8395 35.6195 13.8018 35.2852C13.6722 34.1333 14.1965 33.0287 14.0325 31.8776C14.0068 31.6978 14.1464 31.6216 14.2347 31.5077C14.2781 31.4514 14.2719 30.3918 14.2616 30.2382C14.2512 30.0882 14.1986 29.8952 14.269 29.7933C14.7594 29.085 14.5594 28.1995 14.8949 27.4523C14.9653 27.2953 14.9425 27.0882 14.9338 26.9059C14.9102 26.4147 14.9993 25.9686 15.3832 25.6227C15.3095 25.5411 15.2362 25.4604 15.2014 25.4218C15.2967 24.3607 15.8078 23.4275 15.8422 22.3853C15.848 22.2081 15.795 22.0258 15.9606 21.8663C16.0526 21.7777 16.0737 21.6166 16.1296 21.4816C16.3243 21.4994 16.3926 21.6804 16.519 21.7852C16.6163 22.0739 16.0447 22.2747 16.4585 22.6496C16.7609 22.9234 16.116 23.1466 16.2684 23.5463C16.3773 23.8309 16.3802 24.2882 16.2166 24.5135C15.9677 24.856 16.1719 25.1456 16.1184 25.4678C16.3595 25.0909 16.311 24.5512 16.9133 24.2758C16.9249 24.6539 16.577 24.9124 16.845 25.2566C16.968 25.3498 16.9676 25.0487 17.1063 25.0747C17.3789 25.4078 17.057 25.6588 16.9758 25.9508C16.8976 26.232 17.0889 26.5568 16.8897 26.8177C16.6494 27.1325 17.2074 27.3711 16.9034 27.7082C16.8226 27.7372 16.6921 27.7845 16.5273 27.8437C16.5927 27.9269 16.6511 28.0011 16.7547 28.1324C16.5902 28.2459 16.4134 28.3689 16.2303 28.4952C16.5132 28.7417 16.6428 28.9181 16.3665 29.1948C16.3189 29.2429 16.4481 29.5481 16.3454 29.7345C16.8416 29.9859 15.8819 30.1152 16.2928 30.3595C16.3989 30.466 16.5053 30.5724 16.6147 30.6814C16.9158 30.5434 16.5886 30.1769 16.8565 30.0249C17.0868 30.2378 16.9883 30.526 16.9464 30.7514C16.9208 30.8872 16.8537 31.2476 16.4295 31.0069C16.2216 30.8889 15.9979 31.3201 16.0787 31.62C16.1375 31.8378 16.2659 31.9985 16.077 32.235C15.9192 32.433 15.826 32.6878 16.0613 32.9475C16.2821 33.191 15.7415 33.3724 15.9714 33.7071C16.0414 33.809 15.9118 34.2406 15.8123 34.456C15.6777 34.7476 15.8811 35.0843 15.6235 35.3208C15.9934 35.477 15.5982 35.8092 15.8119 36.0759C16.0182 36.3327 15.5522 36.2897 15.3907 36.4574C15.9697 36.7552 15.3087 37.0402 15.389 37.3533C15.563 37.5799 15.7846 37.4614 16.0165 37.4345C16.1851 36.5634 15.8538 35.6356 16.1731 34.8002C16.4879 33.9747 15.9374 33.0162 16.654 32.2968C16.8421 32.4591 16.8048 32.7528 16.7269 32.9007C16.3939 33.5336 16.647 34.2178 16.5024 34.8449C16.1623 36.3149 16.3255 37.7965 16.3102 39.2723C16.3065 39.643 15.918 39.805 15.9921 40.1757C15.8463 39.6546 15.6802 39.1481 16.0857 38.6427C15.9731 38.4174 15.8521 38.1755 15.7328 37.9365C15.377 38.0935 15.4329 38.5205 15.1898 38.7098C15.5249 39.24 15.8136 39.7685 15.5013 40.4134C15.3795 40.6645 15.8902 40.9995 15.3944 41.1984C15.8666 42.0756 15.5394 43.0175 15.6015 43.9267C15.6624 44.8251 15.6148 45.7305 15.6148 46.6244C15.7792 46.8626 16.0555 46.6385 16.2953 46.8452C16.1748 48.4357 16.7741 50.0556 16.3264 51.7162V50.1865C16.0385 50.1712 15.9818 50.3742 15.8471 50.4607C15.918 50.5407 15.9888 50.6202 16.0385 50.6765C15.679 51.222 16.2833 51.6619 16.0161 52.3047C16.3144 52.043 16.4088 51.8388 16.7331 52.0156C16.6486 52.2087 16.4245 52.3279 16.3011 52.5094C16.6876 52.709 17.0243 52.9774 16.9622 53.4537C16.8346 54.4234 17.1564 55.3479 17.2393 56.2935C17.289 56.8576 17.3586 57.4384 17.4414 58.0075C17.5193 58.541 17.7073 59.0583 17.6481 59.6108C18.1468 60.0971 17.5893 60.8597 18.1 61.343C17.9339 61.9817 18.4264 62.533 18.3357 63.1705C18.2963 63.448 18.7176 63.6605 18.5448 63.9753C18.4023 64.2342 19.0042 64.4553 18.556 64.6968C18.6902 64.9358 19.0891 65.0158 18.988 65.3923C18.853 65.5691 18.8182 65.3711 18.6687 65.3206C18.2628 65.6847 17.6742 65.8781 17.3358 66.3926C17.149 66.3134 17.2302 66.1324 17.1581 66.0165C16.999 65.8661 16.7998 65.9862 16.5973 65.9291C16.5575 65.8143 16.5119 65.683 16.4655 65.5492C16.3202 65.4569 16.3123 65.6416 16.1909 65.676C15.9809 65.5758 15.8065 65.4225 15.843 65.1342C15.8919 64.7461 15.7092 64.4156 15.4959 64.1521C15.1132 63.6791 14.9197 63.1473 14.9603 62.5736C14.9806 62.287 14.5345 62.0302 14.9434 61.734C14.7988 61.6823 14.6679 61.6359 14.4761 61.5675C14.5751 60.9657 14.2889 60.4156 14.1543 59.8312C13.9721 59.0413 13.8784 58.2369 13.608 57.4587C13.4986 57.1422 13.4953 56.7723 13.3752 56.4256C13.2625 56.1001 13.3607 55.7405 13.1602 55.3798C12.9995 55.0911 13.2277 54.5895 13.0708 54.2954C12.8827 53.9421 12.8015 53.7172 13.0931 53.4165C13.1188 53.39 12.8972 53.1824 12.9163 53.0826C13.0045 52.6224 12.6251 52.2695 12.6702 51.8181C12.7133 51.3865 12.7038 50.9549 12.4581 50.5535C12.2539 50.2201 12.821 49.8539 12.4519 49.5023C12.3401 48.4821 12.1471 47.4706 12.2154 46.4334C12.2357 46.1236 12.3554 45.7687 12.0199 45.4953C11.916 45.4104 12.0887 45.2451 12.1355 45.1163C12.2867 44.6996 12.3248 44.234 12.1226 43.843C12.0071 43.6194 11.9487 43.4007 12.0348 43.2304C12.1197 43.0623 12.2158 43.0063 12.0518 42.8088C11.9288 42.6605 11.9565 42.4124 12.1164 42.2049C12.3065 41.9572 12.3372 41.5691 12.1504 41.393C11.8389 41.0994 12.4569 40.9171 12.1483 40.6603C11.8464 40.4097 11.9669 40.0096 12.029 39.7163C12.0763 39.4927 12.039 39.2479 12.133 39.0495C12.338 38.615 12.2051 38.1693 12.2154 37.7323C12.2258 37.2929 12.5795 36.942 12.4681 36.4674C12.4229 36.2743 12.3625 36.1314 12.2279 36.0051C12.5124 35.7893 12.4453 35.2778 12.9038 35.2169" fill="black"/>
<path fill-rule="evenodd" clip-rule="evenodd" d="M12.9022 35.2181C13.0335 34.7873 12.5928 34.6693 12.4669 34.4178C12.3824 34.1615 12.6657 34.091 12.6723 33.9162C12.6976 33.3003 12.7941 32.6927 12.8612 32.0859C12.9726 31.0819 13.0907 30.0986 13.316 29.1065C13.4643 28.4525 13.4469 27.7616 13.8077 27.1573C13.4945 26.6926 13.7923 26.2071 13.8478 25.7685C13.9228 25.1725 13.883 24.4609 14.472 24.0202C14.2157 23.7899 14.1481 23.5492 14.3648 23.2439C14.6435 22.8513 14.7649 22.4093 14.7156 21.9202C14.6982 21.7445 14.6924 21.5755 14.8394 21.4057C15.1961 20.9932 15.1932 20.4758 15.1542 19.9411C15.2897 19.8943 15.4206 19.8491 15.5519 19.804C15.8563 19.4871 15.1447 19.2796 15.4322 19.0489C15.7126 18.824 15.4839 18.4699 15.7345 18.2789C15.8451 18.3895 15.9516 18.4959 16.0609 18.6057C15.7296 18.8443 15.8016 19.0808 16.0684 19.3132C16.0613 19.3881 16.0837 19.4933 16.0439 19.5286C15.5461 19.9709 15.5717 20.6428 15.4338 21.1916C15.2632 21.8704 15.177 22.5891 15.0088 23.2816C14.8515 23.9286 14.6091 24.5884 14.5412 25.2159C14.4638 25.9367 14.2836 26.6454 14.2223 27.3719C14.1635 28.0599 14.1005 28.7735 13.8429 29.4599C13.6614 29.9432 13.6896 30.5256 13.6312 31.052C13.5509 31.7719 13.1781 32.4665 13.3595 33.2109C13.4465 33.5687 13.031 33.7597 13.1135 34.1383C13.1822 34.4547 13.1126 34.8035 13.0882 35.1365C13.0857 35.1675 12.9681 35.1907 12.9022 35.2181" fill="black"/>
</svg>
