<svg width="48" height="116" viewBox="0 0 48 116" fill="none" xmlns="http://www.w3.org/2000/svg">
<path fill-rule="evenodd" clip-rule="evenodd" d="M17.065 62.5492C16.8637 62.3235 17.3322 62.3674 17.0957 62.1781C16.8716 61.9983 17.0054 61.7618 16.9379 61.5626C16.9043 61.4632 16.8352 61.4553 16.7817 61.5208C16.609 61.7772 16.8741 62.1164 16.6438 62.3409C16.5179 62.367 16.4152 62.3881 16.3062 62.4105C16.4272 62.7924 16.8675 62.8943 16.9586 63.2501C16.8091 63.8163 16.3655 63.714 15.9691 63.7264C15.9264 63.7281 15.8866 63.8101 15.8452 63.8556C16.0092 64.0793 16.2938 63.8212 16.4176 63.965C16.7523 64.4707 16.1062 64.3046 16.0697 64.7201C16.09 64.6641 16.3385 64.6451 16.2118 64.8029C16.0329 64.9454 15.7595 64.7292 15.6021 64.9603C15.7752 65.5741 15.617 66.0534 14.9841 66.8337C15.0371 66.8867 15.0901 66.9402 15.1432 66.9928C15.0591 67.1945 14.7724 67.0222 14.6954 67.2359C14.6059 67.4592 14.8429 67.5379 14.8984 67.6973C14.2671 68.7316 14.2671 68.7316 14.2365 69.3699C13.9726 69.5882 13.6292 69.8723 13.2859 70.1565C13.1218 70.5077 13.488 70.6523 13.524 70.8792C13.1968 71.1866 12.882 71.527 12.9069 71.9777C12.9251 72.3062 12.7553 72.5232 12.6604 72.787C12.438 73.4088 12.2019 74.0263 11.9915 74.6522C11.955 74.7599 11.9198 74.9409 12.17 75.0039C12.3643 74.6845 12.5565 74.3672 12.6758 73.9779C12.9309 73.1482 13.1968 72.3091 13.5845 71.5374C13.9751 70.7583 14.0956 69.8607 14.6763 69.1603C14.8023 69.0087 14.8714 68.7175 14.9489 68.4893C15.3739 67.2376 15.967 66.055 16.5597 64.8704C16.882 64.2263 17.362 63.6228 17.403 62.8541C17.4068 62.7874 17.3707 62.7186 17.3525 62.6507C17.222 62.6047 17.0911 62.5583 17.065 62.5492M10.7104 65.0701C10.8454 65.174 10.9187 65.2304 11.0136 65.3028C11.142 64.8874 11.1213 64.5283 10.8185 64.1741H11.1875C11.2277 64.1145 11.3105 64.0457 11.2994 64.0002C11.2037 63.6117 11.3793 63.2654 11.5504 62.973C11.7508 62.6304 12.1286 62.3856 11.9853 61.9064C11.9753 61.8728 11.972 61.812 11.9907 61.7987C12.7064 61.2938 12.7619 60.3515 13.3455 59.7592C13.5369 59.5645 13.5576 59.8358 13.7411 59.8801C13.8069 59.0414 13.6963 58.1488 14.4688 57.4123C14.4808 57.4111 14.6585 57.3895 14.8308 57.3692C14.9398 57.3129 14.9315 57.274 14.8478 57.204C14.6055 57.0002 14.5968 56.7247 14.7911 56.5218C15.3701 55.9162 15.5979 55.1189 15.9658 54.4048C16.6438 53.0893 17.4627 51.8616 18.2008 50.5854C18.9443 49.2998 19.7313 48.0493 20.563 46.8208C21.6594 45.2008 22.7181 43.5581 23.8559 41.9634C24.5915 40.9312 25.3333 39.887 26.0114 38.8039C26.6567 37.7717 27.4834 36.8551 28.1979 35.8635C29.0359 34.6996 29.9981 33.6326 30.7797 32.4211C31.1703 31.8163 31.7721 31.3545 32.2074 30.7514C33.8224 28.5131 35.8516 26.6479 37.7871 24.7004C38.1371 24.3487 38.4743 23.9751 39.1378 23.9813C38.9212 24.5997 38.7158 25.139 38.2755 25.571C37.6305 26.2039 36.996 26.8476 36.3569 27.4867C36.0375 27.806 35.6494 28.0831 35.4179 28.4568C35.1859 28.8312 34.8359 29.0826 34.6011 29.4479C34.3691 29.8087 34.044 30.1024 33.7876 30.4611C33.3448 31.082 32.7786 31.6221 32.2716 32.2015C31.6238 32.9421 31.1703 33.8086 30.5229 34.5451C29.8618 35.2981 29.3121 36.1485 28.6987 36.945C28.5011 37.2014 28.2075 37.3666 28.2261 37.7783C28.2336 37.9386 27.9846 38.1325 27.821 38.2746C27.2358 38.7815 26.8841 39.4588 26.467 40.0888C26.0375 40.7382 25.6183 41.3947 25.1875 42.0434C23.9516 43.904 22.7462 45.7865 21.4601 47.6123C20.6442 48.7717 20.0767 50.0789 19.2135 51.2038C19.1936 51.7336 18.5761 51.8546 18.4522 52.3615C18.3574 52.7472 18.2091 53.1535 17.881 53.4886C17.6458 53.7288 17.3537 53.967 17.2117 54.3087C17.0646 54.662 16.9085 55.0141 16.7233 55.3483C16.5357 55.688 16.3389 56.0326 16.0879 56.3246C15.8245 56.6307 15.7487 57.0317 15.5172 57.327C15.3855 57.4947 15.4878 57.8236 15.2003 57.8381C14.9303 57.8522 14.8892 57.9922 14.9232 58.1976C14.9887 58.5903 14.7265 58.8682 14.5976 59.1872C14.4208 59.2538 14.2191 59.1168 14.0294 59.2973C14.3889 59.9481 13.7427 60.4828 13.7916 61.1186C13.1123 61.235 13.3961 61.935 13.0887 62.2767C12.7714 62.63 12.8232 63.1382 12.5387 63.5201C12.0772 64.1402 11.8536 64.8891 11.5276 65.5833C11.2161 66.246 10.8963 66.9095 10.5186 67.535C10.3604 67.7976 10.3972 67.926 10.6528 68.1397C9.85753 68.4682 10.2858 69.6694 9.2938 69.8976C9.36339 70.0082 9.51209 70.1436 9.48599 70.219C9.24866 70.9103 9.12357 71.6414 8.73794 72.2813C8.42812 72.7957 8.15309 73.3491 8.1651 73.9539C8.17049 74.2554 7.99942 74.4778 7.89215 74.634C7.20581 75.6305 7.10889 76.8073 6.79658 77.9136C6.54931 78.7892 6.23493 79.6388 5.94789 80.4995C5.59416 81.5607 5.17002 82.5982 4.96416 83.7112C4.83783 84.3921 4.52179 85.0358 4.35321 85.7118C4.23351 86.1927 3.96262 86.6582 4.08025 87.1797C4.16806 87.5695 3.76753 87.8109 3.80771 88.2206C3.82221 88.3701 3.52729 88.6891 3.64327 88.9036C3.78865 89.1733 3.16155 89.295 3.57327 89.5382C3.42126 90.0257 3.35664 90.5675 3.09694 90.9891C2.66327 91.6928 2.73617 92.4943 2.51871 93.2357C2.16996 94.4274 2.29836 95.7243 1.81706 96.9018C2.04197 97.4415 1.36309 97.9643 1.80049 98.5342C1.90487 98.6705 1.60747 98.861 1.57268 99.1029C1.38629 100.393 1.06197 101.67 1.15682 102.984C1.17753 103.271 0.767057 103.537 1.13363 103.817C0.758359 104.097 0.947649 104.501 0.919483 104.851C0.892146 105.188 1.03215 105.593 0.890075 105.855C0.535104 106.508 1.06363 107.09 0.925282 107.716C0.809306 108.239 1.06694 108.819 0.694986 109.32C0.64114 109.392 0.639069 109.583 0.6954 109.646C1.07232 110.066 0.938536 110.576 0.894217 111.026C0.816761 111.814 1.22268 112.529 1.15516 113.308C1.14729 113.401 1.35729 113.513 1.53292 113.68C1.55073 112.931 1.76528 112.241 1.41942 111.541C1.32913 111.359 1.36806 111.107 1.36723 110.887C1.36351 109.569 1.39333 108.251 1.35274 106.934C1.33451 106.338 1.70191 105.832 1.60871 105.217C1.52505 104.665 1.43889 104.03 1.63191 103.541C1.84564 103.001 1.64972 102.431 1.897 101.959C2.1654 101.449 1.92475 100.93 2.05025 100.438C2.31907 99.3854 2.26439 98.2799 2.52534 97.2427C2.74197 96.3833 2.84013 95.5014 3.10191 94.6602C3.1628 94.4647 2.7751 94.3562 3.09694 94.1582C3.29037 94.0393 3.15617 93.7398 3.16735 93.5232C3.17812 93.3244 3.45895 93.2743 3.39848 93.0523C3.33096 92.8021 3.59315 92.6563 3.60972 92.4666C3.65611 91.9269 3.7199 91.3992 3.81765 90.8615C4.00777 89.8136 4.31138 88.7992 4.54416 87.7658C5.0354 87.4411 4.54126 86.8521 4.92398 86.4445C5.20688 86.143 5.13398 85.631 5.23173 85.2222C5.55564 83.8624 5.94664 82.5137 6.39564 81.1895C6.71084 80.2601 7.13126 79.3762 7.26505 78.3804C7.3222 77.9567 7.57487 77.523 7.76747 77.1295C8.3254 75.9905 8.61493 74.7657 9.02333 73.5827C9.21966 73.0144 9.52534 72.5083 9.75274 71.9628C10.1263 71.0636 10.3107 70.0952 10.8346 69.244C11.1772 68.6873 11.1548 67.9276 11.7326 67.4737C11.4721 66.8412 12.1663 66.5314 12.2375 65.9809C12.3075 65.4424 12.74 65.0021 12.904 64.4554C13.0523 63.9608 13.324 63.4998 13.57 63.0392C13.8165 62.577 14.0985 62.1338 14.3653 61.6811H14.8926C14.7981 61.4156 14.589 61.1869 14.6913 60.9223C14.7733 60.7408 14.9547 60.8154 15.074 60.7446C15.0984 60.6787 15.1448 60.6133 15.1432 60.5486C15.1266 59.7708 15.448 59.0501 15.856 58.4793C16.5817 57.4637 17.0004 56.3047 17.6072 55.2382C18.3184 53.9873 19.0801 52.7633 19.7632 51.5004C20.5684 50.011 21.5873 48.6607 22.395 47.1741C22.9521 46.1498 23.6782 45.2162 24.3401 44.2502C25.1855 43.0172 26.0884 41.821 26.8804 40.5547C27.5253 39.5234 28.3011 38.5923 28.9895 37.5957C29.6824 36.5925 30.3713 35.5802 31.1748 34.6495C31.8769 33.8368 32.4605 32.9227 33.1095 32.0628C33.8253 31.1147 34.6069 30.22 35.3152 29.2649C35.7874 28.6278 36.3121 27.9933 36.8804 27.4179C37.8596 26.4272 38.8479 25.4447 39.8362 24.463C39.9613 24.3388 40.0536 24.1457 40.3154 24.1896C40.612 24.4659 40.4484 24.772 40.2081 25.0441C40.7408 25.1887 40.7946 24.6283 41.1695 24.6337C41.3662 24.656 41.4263 24.8718 41.5812 24.9704C41.2117 25.0972 41.6475 25.3871 41.4714 25.5246C41.283 25.6721 41.4246 25.9885 41.1562 26.0747C41.1836 26.3435 41.5013 26.1128 41.6023 26.4305C41.2565 26.877 40.8787 27.3914 40.4724 27.8823C40.1953 28.2165 39.8598 28.487 39.6605 28.902C39.4961 29.2446 38.9829 29.3908 39.0852 29.9135C39.1039 30.0088 38.9195 30.0158 38.8429 30.0676C38.3123 30.4263 37.8207 31.1694 37.5088 31.946C37.3381 32.371 37.0486 32.7533 36.7876 33.1066C36.3188 33.7424 35.7956 34.3392 35.3711 35.0127C35.3023 35.1221 35.1694 35.1966 35.0323 35.2687C34.4346 35.5823 34.0398 36.0727 33.8928 36.7561C33.817 37.1086 33.6729 37.2113 33.2566 37.606C33.0561 37.797 32.9016 38.0567 32.7392 38.2816C32.0716 39.2053 31.5132 40.2018 30.8327 41.1089C30.421 41.6582 30.4669 42.4472 29.832 42.8473C29.9566 43.3639 29.4691 43.527 29.2633 43.8559C28.7596 44.6603 28.0787 45.3773 27.8276 46.3055C27.7382 46.6373 27.1691 46.4327 27.3468 46.8817C26.8021 47.6206 26.5005 48.5033 25.9733 49.2443C25.7711 49.5284 25.3913 49.7633 25.3383 50.0905C25.2368 50.713 24.4676 50.9885 24.584 51.6852C23.9586 51.961 23.9482 52.5927 23.7092 53.11C23.5245 53.5097 23.0937 53.7421 23.0204 54.2843C22.9587 54.7399 22.6137 55.162 22.3734 55.5878C22.1328 56.0152 21.7509 56.3631 21.6561 56.8726C21.0898 56.9728 21.0836 57.5279 20.8923 57.8944C20.686 58.2892 20.3567 58.6574 20.3505 59.1333C20.3455 59.504 19.6753 59.4278 19.8754 59.9497C19.9988 60.2715 19.6389 60.5163 19.5179 60.8054C19.4016 61.0838 19.3767 61.4595 18.914 61.4802C18.7823 61.486 18.6361 61.7026 18.5404 61.8505C18.1598 62.4382 18.1453 63.26 17.4059 63.6195C17.454 64.0474 17.0559 64.3527 17.0278 64.6956C16.9366 65.8098 16.2603 66.656 15.793 67.5797C15.4472 68.2631 15.419 69.1164 14.7621 69.6408C14.8731 70.2335 14.316 70.5963 14.2481 71.1207C14.169 71.7337 13.6632 72.162 13.5675 72.7601C13.4714 73.3591 13.0929 73.8449 12.9181 74.4128C12.8887 74.5081 12.7652 74.5747 12.648 74.692C12.9367 75.6952 11.8676 76.454 12.0288 77.6344C12.2479 77.1975 12.3974 76.8992 12.6277 76.4395C12.684 77.4841 12.0872 78.1708 11.9252 78.9823C11.7649 79.7825 11.3528 80.5446 11.0769 81.3341C10.8011 82.1223 10.4184 82.8828 10.2295 83.6896C10.0365 84.5139 9.6699 85.2736 9.48475 86.0986C9.30167 86.915 9.00469 87.7053 8.74499 88.5491C8.59463 88.5615 8.41611 88.576 8.23759 88.5909C7.77658 89.1513 8.02759 89.913 7.69789 90.5144C7.65067 90.601 7.73889 90.7758 7.6838 90.8433C7.18096 91.4572 7.32925 92.2723 7.01445 92.9412C6.68931 93.6321 6.84629 94.4212 6.56753 95.1282C6.24363 95.95 6.22623 96.8526 5.93049 97.688C5.77723 98.1204 6.00546 98.6415 5.65794 99.0441C5.79463 99.7151 5.51836 100.343 5.40777 100.98C5.30877 101.552 5.16877 102.111 5.20315 102.696C4.65972 103.128 5.28268 103.874 4.76451 104.329C4.68996 104.395 4.74422 104.62 4.75581 104.77C4.82871 105.724 4.54167 106.633 4.40416 107.561C4.36439 107.831 4.64232 108.041 4.53049 108.33C4.08605 109.478 4.40374 110.679 4.29688 111.85C4.25173 112.343 4.37723 112.774 4.62783 113.186C4.68126 113.142 4.73386 113.098 4.79516 113.048C5.41522 113.206 5.5515 113.697 5.40901 114.2C5.29013 114.618 4.83203 114.589 4.43895 114.542C4.24179 114.925 4.0815 115.376 3.51031 115.229C3.18682 115.146 2.95777 115.342 2.69806 115.466C2.42055 115.312 2.15132 115.045 1.86883 115.03C1.23883 114.997 0.942678 114.558 0.708655 114.133C0.462205 113.683 0.336702 113.161 0.214099 112.642C-0.12389 111.207 0.0475897 109.764 0.0165246 108.325C-0.0141263 106.895 0.0185956 105.463 0.00492693 104.033C0.000370716 103.52 0.322619 103.088 0.260489 102.542C0.2054 102.058 0.0525601 101.502 0.461791 101.057C0.311022 100.239 0.778655 99.4906 0.704099 98.6638C0.609661 97.6151 0.919897 96.5953 1.14936 95.5793C1.20073 95.3527 1.18913 95.0843 1.27321 94.9182C1.40865 94.6515 1.39084 94.3951 1.34942 94.166C1.26493 93.698 1.57516 93.3389 1.63439 92.9073C1.69487 92.4662 1.85765 92.0188 1.80629 91.627C1.99516 91.4576 2.19729 91.5818 2.27848 91.3035C1.90197 90.8918 2.07676 90.415 2.25238 89.8811C2.59493 88.839 2.82771 87.7637 2.95652 86.6669C2.9967 86.3256 3.14209 85.9947 3.25889 85.6654C3.55629 84.8283 3.85824 83.9933 3.8657 83.0017C3.98789 82.9114 4.16765 82.7784 4.27741 82.6981C4.29978 82.4661 4.04836 82.5017 4.14777 82.2673C4.32463 81.851 4.55534 81.4376 4.53008 80.9563C4.52676 80.8863 4.54126 80.8118 4.56363 80.7451C4.63611 80.5338 5.20398 80.4763 4.75913 80.1056C5.15925 79.9453 4.85688 79.4921 5.13232 79.237C5.31581 79.0676 5.3357 78.6985 5.38333 78.4583C5.44132 78.1671 5.63144 77.9455 5.66292 77.6585C5.72339 77.0964 6.30493 76.6743 6.09286 76.0791C6.19185 75.8757 6.37617 75.9578 6.49297 75.8774C6.41221 75.5042 6.72037 74.4832 7.08487 73.9261C7.18718 73.975 7.29114 74.0251 7.39635 74.0752C7.4212 74.0011 7.48043 73.9182 7.45972 73.8714C7.31558 73.5525 7.03102 73.2464 7.42617 72.9101C7.47629 72.1189 7.85197 71.4086 8.18664 70.7442C8.48073 70.1614 8.63232 69.5654 8.81167 68.9669C8.98315 68.3944 9.50215 67.9753 9.49842 67.3357C10.1152 66.7149 10.1152 65.7601 10.7104 65.0701" fill="black"/>
<path fill-rule="evenodd" clip-rule="evenodd" d="M18.7619 31.865C18.8054 32.319 18.2888 32.7174 18.6289 33.2004C18.9234 33.3267 18.9984 33.0256 19.2204 32.9208C19.162 32.2502 19.4341 31.7171 19.7605 31.1236C20.0828 30.5379 20.5819 30.0773 20.8242 29.4245C21.0528 28.8099 21.5159 28.2797 21.8912 27.723C22.2693 27.1613 22.667 26.6133 23.0538 26.0579C23.3595 25.6205 23.6225 25.1467 23.9725 24.7482C24.8075 23.7968 25.5241 22.7584 26.2908 21.7564C26.6888 21.2362 27.1722 20.7872 27.5786 20.2603C28.2761 19.3561 29.1533 18.5911 29.8596 17.6919C30.62 16.7243 31.5681 15.9344 32.3332 14.9888C34.0579 12.8573 36.1459 11.0883 38.0288 9.11624C38.3345 8.79565 38.6642 8.49535 38.9716 8.17021C39.6463 7.45695 40.2842 6.66707 41.2563 6.33944C41.6307 6.21311 41.446 5.78731 41.8341 5.60547C42.1721 5.44766 42.5581 5.1163 42.8191 4.7547C43.0842 4.38772 43.4835 4.15328 43.8007 3.84802C44.1826 3.48103 44.6312 3.1476 45.0483 2.75908C45.4671 2.70358 45.9078 2.65387 46.3443 2.57766C46.4185 2.56482 46.4723 2.43766 46.527 2.37305C46.4404 2.15849 46.0909 2.41115 46.1033 1.96506C46.4007 1.58358 46.7859 1.16896 47.3898 0.948608C47.5033 0.992928 47.4155 1.17808 47.4925 1.2866C47.565 1.38808 47.7423 1.44441 47.5542 1.61092C47.3492 1.79275 47.659 1.81098 47.6723 1.94021C47.4391 2.18293 47.1052 1.93855 46.8517 2.08062C46.5258 2.39624 47.0945 2.49814 46.9864 2.80092C46.7648 3.01589 46.433 3.11281 46.1132 3.26316V3.68151C45.5739 4.24814 44.6726 4.37944 44.3993 5.21198C44.2688 5.60796 43.708 5.50772 43.5862 5.98944C43.5009 6.32577 43.032 6.39701 42.735 6.55606C42.5283 6.60453 42.4997 6.38624 42.3274 6.35228C42.0727 6.78263 42.5863 6.8692 42.7056 7.13056C42.5213 7.31447 42.3353 7.50044 42.1489 7.68683C42.0702 7.61559 41.9907 7.54393 41.9112 7.47269C41.7024 7.73571 41.2824 7.70009 41.1399 8.01902C41.0645 8.24973 41.2339 8.3595 41.3495 8.48624C41.2302 8.60553 41.1238 8.71198 41.019 8.81677C40.9403 8.74512 40.8612 8.67305 40.7796 8.59932C40.6234 9.18748 40.6234 9.18748 40.1388 9.69654C39.8633 9.68577 40.1396 9.22435 39.6065 9.30015C39.3133 9.44305 39.5457 10.2586 38.8871 10.2661C38.9662 10.38 39.0436 10.4906 39.1708 10.6728C38.7549 10.998 38.4439 11.4391 38.0554 11.7303C37.6171 12.0591 37.4026 12.5566 36.9238 12.8751H36.237C36.2267 13.2583 35.7739 13.4223 35.7238 13.7512C35.5557 14.8571 34.6668 15.3889 33.9452 16.0259C33.681 16.2596 33.3446 16.4 33.2241 16.7657C33.1856 16.8829 33.1438 16.9558 33.005 16.9554C32.4189 16.955 32.1459 17.2743 32.0863 17.8385C32.0565 18.1239 31.8734 18.2995 31.5727 18.3082C31.086 18.3219 30.9402 18.7154 30.7314 18.9403C30.7505 19.3441 31.086 19.1068 31.1854 19.3574C30.9042 19.4108 30.9104 20.0259 30.4042 19.697C30.3728 19.6767 30.1147 19.8681 30.1101 19.9679C30.0907 20.3676 29.932 20.6683 29.6156 20.8978C29.7187 21.4466 29.2933 21.7059 28.969 21.9788C28.537 22.3421 28.2843 22.8425 27.97 23.2753C27.5781 23.8142 27.1735 24.2756 26.5973 24.6003C26.437 24.6906 26.3049 24.8298 26.1959 24.9172C26.251 25.3844 26.1529 25.676 25.8948 26.0065C25.042 27.1 24.1523 28.1749 23.509 29.4162C23.2845 29.8491 22.8819 29.9965 22.4611 30.0417C22.1857 30.0707 22.0983 30.2728 21.9665 30.3648C22.2271 31.0681 21.4099 31.5792 21.74 32.1885C21.4206 32.4064 21.1489 32.2502 20.8681 32.3567C20.7007 32.9572 20.5218 33.5972 20.3449 34.2313C20.4319 34.4335 20.7256 34.252 20.803 34.5668C20.7446 34.834 20.4009 35.0862 20.6486 35.6404C20.3818 35.4035 20.3023 35.3327 20.2248 35.2639C20.0285 35.3476 20.2269 35.6533 19.963 35.7005C19.6441 35.7469 19.5638 35.4238 19.3625 35.29C19.0572 35.4449 18.7536 35.5986 18.4674 35.744C18.1762 35.4814 18.3402 35.3223 18.515 35.1625C18.3829 35.003 18.3004 34.7785 18.0138 34.8029C17.7193 34.805 17.967 35.1488 17.7359 35.2399C17.2057 34.6513 17.9239 33.9783 17.53 33.3835C17.769 33.2083 17.9492 33.0757 18.1273 32.9457C18.0283 32.8359 17.9807 32.7829 17.8933 32.6859C18.0627 32.3517 18.2412 31.9946 18.4259 31.6413C18.4342 31.6256 18.498 31.6393 18.5357 31.6393C18.6923 31.633 18.7677 31.7084 18.7619 31.865" fill="black"/>
<path fill-rule="evenodd" clip-rule="evenodd" d="M18.7618 31.865C18.7676 31.7084 18.6922 31.6331 18.5357 31.6393C18.4723 30.8303 19.0087 30.2409 19.355 29.6109C19.9303 28.563 20.6402 27.5871 21.286 26.579C21.7627 25.8338 22.3823 25.1483 22.9163 24.4214C23.6411 23.4344 24.4832 22.5426 25.1732 21.5253C25.5812 20.9247 26.1458 20.431 26.6263 19.8797C27.3035 19.1035 27.8742 18.2295 28.6616 17.5419C29.0692 17.1865 29.483 16.8241 29.7274 16.2973C29.8334 16.069 30.0629 15.8499 30.4054 15.7791C30.574 15.7443 30.6212 15.3719 30.8022 15.1764C32.6032 13.2404 34.4165 11.3181 36.2979 9.45879C37.4613 8.30856 38.7222 7.26684 39.9089 6.14145C40.8516 5.24719 41.8568 4.38856 42.8994 3.60779C43.3008 3.30749 43.6238 2.80216 44.1706 2.70317C44.3735 2.92601 44.3155 3.09749 44.1383 3.20643C43.0021 3.90187 42.0366 4.79696 41.139 5.76826C40.8375 6.09506 40.3943 6.20483 40.0994 6.55234C39.8476 6.8485 39.6023 7.16329 39.1745 7.3037C38.9193 7.38779 38.6468 7.66986 38.5494 7.92666C38.3879 8.35329 37.9948 8.51648 37.7571 8.82755C37.5094 9.1527 37.1863 9.34157 36.9042 9.59424C36.4954 9.96039 36.3008 10.5593 35.7064 10.7548C35.6674 11.3215 34.9915 11.3434 34.8295 11.7265C34.6377 12.1805 34.1999 12.3089 33.9245 12.6394C33.6648 12.9509 33.4428 13.3117 33.111 13.5776C32.7606 13.858 32.4652 14.2076 32.1463 14.5265C31.827 14.8459 31.5039 15.1611 31.1895 15.4858C30.8871 15.7973 30.6448 16.1734 30.3644 16.4849C29.7481 17.1691 29.2544 17.952 28.5664 18.5828C27.8233 19.2642 27.2442 20.1009 26.6283 20.904C26.0141 21.7047 25.4172 22.55 24.7023 23.2475C24.1647 23.7719 23.9646 24.5365 23.3151 24.9391C23.2712 25.4971 22.7079 25.7067 22.4718 26.1652C22.2958 26.5061 22.0352 26.9319 21.5887 27.1622C21.3684 27.2757 21.368 27.875 21.1617 27.9458C20.7666 28.0821 20.8718 28.348 20.7608 28.5808C20.6758 28.7593 20.6112 28.978 20.4704 29.1396C19.7886 29.9203 19.338 30.8328 18.9486 31.7826C18.93 31.8281 18.826 31.8385 18.7618 31.865" fill="black"/>
</svg>
