<svg width="86" height="86" viewBox="0 0 86 86" fill="none" xmlns="http://www.w3.org/2000/svg">
<path fill-rule="evenodd" clip-rule="evenodd" d="M4.61528 60.1563H5.34717C5.57291 60.329 5.348 60.6053 5.51907 60.8062C5.66238 60.8141 5.80735 60.8219 6.02274 60.8335C6.18924 60.4906 6.30771 59.9927 6.90126 60.1567C7.12907 60.2106 6.94806 60.5055 7.11208 60.5796C7.45836 60.6935 7.69569 60.5018 8.01877 60.3253C8.43877 60.9147 9.20421 61.056 9.71617 61.5837C9.81558 61.9892 9.63788 62.4423 9.95226 62.8391C10.0508 62.9634 10.0173 63.3494 9.89842 63.4616C9.53392 63.8063 9.97546 64.1587 9.85782 64.3944C9.68427 64.7428 9.82262 65.0186 9.75469 65.2879C10.0687 65.4183 10.1797 65.2502 10.3855 65.0348C10.424 65.8657 10.5591 66.6141 10.1266 67.3423C9.96345 67.3601 9.78534 67.3796 9.52688 67.4086C9.62629 67.7718 9.28374 68.0373 9.29782 68.3981C9.32019 68.9925 9.13504 69.5272 8.83309 70.0131C8.58001 70.419 8.62143 70.8468 8.61439 71.2925C8.26481 71.6135 7.90694 71.9412 7.54203 72.2758C7.55777 72.2891 7.50516 72.2452 7.3896 72.1491C7.23303 72.28 7.07688 72.5037 6.87765 72.5534C6.60345 72.6213 6.41706 72.9104 6.06913 72.8114C5.82516 72.7418 5.54558 72.7928 5.28214 72.7994C5.06179 72.8052 4.82569 72.7791 4.62522 72.8495C4.3651 72.9402 4.14392 73.197 3.88587 73.2314C3.4054 73.2952 2.91001 73.2496 2.38108 73.2496C2.11558 72.7451 1.53487 72.6254 1.07013 72.4183C0.501848 72.1648 0.232203 71.7262 0.0540964 71.2511C-0.127324 70.7665 0.187055 70.2653 0.414866 69.8416C0.707292 69.299 1.08711 68.7916 1.61149 68.435C1.23043 67.8224 0.880842 67.2346 1.38534 66.5508C1.53072 64.5638 2.77043 63.0545 3.65723 61.3952C3.8925 60.9553 4.46907 60.7499 4.61528 60.1563" fill="black"/>
<path fill-rule="evenodd" clip-rule="evenodd" d="M79.0986 21.5992C79.0274 21.6853 78.964 21.762 78.899 21.8402C78.954 22.0163 79.133 21.9347 79.2585 22.0001C79.4668 22.1546 79.1968 22.4425 79.4341 22.6289C79.5107 22.621 79.6528 22.6488 79.7062 22.5924C80.3967 21.8676 80.5222 22.1691 81.1348 22.7163C81.2073 22.7813 81.2442 22.7821 81.3465 22.7913C82.7564 22.9143 83.304 23.4647 83.4622 24.8552C83.6457 24.8776 83.7029 24.5831 83.9622 24.697C84.1009 25.1526 84.6795 25.4413 84.5511 26.0912C84.5246 26.2266 84.8104 26.4238 84.9521 26.5924C84.4095 27.0443 85.4558 27.6718 84.8046 28.1108C84.8183 28.4004 85.1468 28.453 85.2085 28.704C85.2806 28.9943 85.0536 29.1695 84.979 29.4023C84.7201 30.215 84.1639 30.8694 83.7613 31.603C83.422 32.2214 82.6645 32.4836 82.0829 32.8195C81.7698 32.7578 81.67 32.4831 81.4546 32.3564C81.3891 32.5229 81.3382 32.6526 81.2524 32.8692C81.1054 32.6542 80.9836 32.4769 80.871 32.3133C80.5645 32.513 80.7761 32.7847 80.6171 33.0001H79.0766C78.9975 32.9205 78.841 32.764 78.655 32.578C78.1169 33.0995 77.6576 32.6857 77.1734 32.38C76.533 33.0282 75.8815 32.0424 75.2225 32.4111C74.9392 32.0992 74.5126 31.9393 74.5805 31.4265C74.588 31.3702 74.5254 31.2534 74.4869 31.2492C73.7214 31.1714 73.7914 30.42 73.4949 29.9897C73.6825 29.5212 74.0329 29.1555 74.4061 28.8075C74.489 28.7309 74.566 28.5797 74.6464 28.5793C75.6504 28.5747 75.6914 27.6279 76.1346 27.0786C76.5185 26.6027 76.6619 26.0075 76.8226 25.4475C76.9791 24.9037 77.0843 24.3354 77.1042 23.7423C77.1253 23.1048 77.0893 22.3149 77.9803 22.0556C78.1389 22.0092 78.2574 21.8079 78.3816 21.6671C78.5941 21.4265 78.8277 21.4671 79.0986 21.5992" fill="black"/>
<path fill-rule="evenodd" clip-rule="evenodd" d="M56.4313 37.283C56.0564 37.4454 55.6675 37.585 55.2123 37.5643C54.3487 37.5258 53.4797 37.5162 52.6173 37.5684C52.1874 37.5945 51.7446 37.5303 51.3772 37.4338C51.0852 37.358 50.8905 37.7888 50.6557 37.4632C50.4639 37.1981 50.1574 37.4048 49.9267 37.3195C49.6657 37.223 49.4475 36.9807 49.1033 37.1538C48.95 37.2188 49.2035 37.5713 48.8531 37.5427C48.1709 37.4959 48.5702 36.6104 48.0006 36.4435C47.9601 36.5598 47.9137 36.6903 47.8644 36.8291C47.6859 36.8643 47.5707 36.6787 47.5628 36.6083C47.4962 36.04 47.183 35.519 47.2468 34.9275C47.2704 34.7138 47.3023 34.5282 47.4042 34.3136C47.7053 33.6778 47.9795 32.9915 47.9058 32.2758C47.8606 31.8359 48.2239 31.5596 48.1742 31.123C48.1319 30.7503 47.9721 30.2951 48.3784 29.9774C48.3784 29.3006 48.4182 28.62 48.3685 27.9465C48.3022 27.0548 48.8253 26.5246 49.4371 26.0404C49.5278 25.9691 49.7241 26.0309 49.86 26.0309C50.0294 26.404 50.2307 26.7379 50.2146 27.3153C50.4217 26.9102 50.5264 26.6654 50.7414 26.4765C51.0355 26.2181 51.2915 26.1398 51.6009 26.426C51.7305 26.5461 51.8167 26.73 52.0474 26.711C52.6964 26.6559 53.1575 27.0125 53.5335 27.4706C53.8931 27.908 54.4502 28.154 54.5372 28.8698C54.6001 29.3863 55.0566 29.8456 55.2902 30.3522C55.9173 31.71 56.5514 33.0656 57.116 34.4495C57.3881 35.1159 57.1064 35.7886 56.8476 36.4223C56.7291 36.7114 56.5763 36.9865 56.4313 37.283" fill="black"/>
<path fill-rule="evenodd" clip-rule="evenodd" d="M62.3522 51.7914C62.3858 52.2019 62.2917 52.6409 62.467 52.8323C62.7552 53.1458 62.1286 53.3397 62.4972 53.582C63.0742 53.1363 63.0477 52.3013 63.5853 51.8303C63.9647 51.9952 64.3371 52.1729 64.5206 52.4442C64.8287 52.4972 64.8697 52.298 65.0657 52.2126C65.6451 52.537 66.3513 52.7958 66.7738 53.3786C67.3081 54.1163 67.8126 54.9037 67.8085 55.8812C67.8064 56.3331 67.7704 56.7883 67.8147 57.2361C67.9617 58.7135 67.5082 60.0796 67.065 61.4464C66.8799 62.0172 66.5721 62.5341 66.2105 62.9997C65.9533 63.1575 65.6874 63.0523 65.3651 63.0912L64.8979 62.6236C64.5815 62.5851 64.5284 63.0295 64.229 63.0838C64.0455 63.1161 63.9751 62.9591 63.8607 62.8651C63.7829 62.9359 63.7038 63.0075 63.6048 63.0974C63.5567 62.9574 63.5116 62.8261 63.466 62.6948C63.4134 62.6207 63.3736 62.6426 63.3045 62.7251C62.7979 63.3286 62.1112 63.3584 61.3871 63.2991C60.9253 63.003 60.6552 62.4877 59.9938 62.3278C59.312 62.1634 59.0324 61.0513 59.3464 60.3691C59.6036 59.8095 59.9159 59.2955 59.4681 58.6646C59.3439 58.4894 59.3642 58.1121 59.4648 57.8955C59.7415 57.3011 59.6843 56.6438 59.8948 56.0407C60.0903 55.4799 60.2054 54.8892 60.4245 54.3391C60.4912 54.1722 60.572 54.0268 60.5819 53.8388C60.6188 53.1388 61.0288 52.592 61.3672 52.0209C61.5839 51.6559 61.9596 51.8067 62.3522 51.7914" fill="black"/>
<path fill-rule="evenodd" clip-rule="evenodd" d="M34.691 34.5911C34.6243 34.534 34.5469 34.4681 34.4508 34.3861C34.3949 34.5398 34.3472 34.6698 34.2905 34.8248C33.5876 34.5245 33.0156 35.0319 32.3744 35.1516C32.1209 35.1988 31.1608 35.3595 30.9123 35.3359C30.8423 35.3288 30.7362 35.2721 30.7101 35.2994C30.4086 35.6076 30.0168 35.4568 29.6734 35.5355C29.3785 35.603 29.1184 35.1383 28.8396 35.5152C28.2796 35.0526 27.6235 35.3831 27.0163 35.3027C26.6472 35.2543 26.267 35.2936 25.8984 35.2936C25.7857 35.181 25.6793 35.0745 25.5724 34.9681C25.6561 34.819 25.8727 34.7303 25.7774 34.4835C25.4597 34.2623 25.0642 34.4868 24.7233 34.3443C24.4085 34.0668 24.2457 33.7719 24.6148 33.414C24.6955 33.3357 24.821 33.2678 24.8467 33.1729C25.0903 32.2898 25.8541 32.2509 26.547 32.1387C27.2582 32.0239 27.8691 31.6975 28.4233 31.4511C28.7166 30.6794 28.2746 30.0788 28.2618 29.4256C28.249 28.8143 28.4068 28.1851 28.063 27.5907C27.9814 27.4495 27.9259 27.1132 28.1384 26.9698C28.4909 26.7304 28.4548 26.1945 28.8607 26.0449C29.043 25.9778 29.2617 26.0234 29.4754 26.1837C29.6796 26.3369 29.5027 26.6609 29.796 26.7081C30.0259 26.7445 30.1356 26.5619 30.2375 26.4243C30.409 26.1928 30.6575 26.2106 30.8448 26.2723C31.1016 26.3568 31.3232 26.5494 31.5597 26.6956C31.8964 26.2926 32.152 26.7594 32.3218 26.8638C32.5579 27.008 32.8317 27.1239 33.045 27.3099C33.2712 27.5066 33.4712 27.7345 33.687 27.9432C33.8212 28.0733 33.9049 28.205 33.9463 28.4051C33.9761 28.548 34.1256 28.5939 33.991 28.823C33.8465 29.0703 34.2938 28.8777 34.3891 29.1398C34.7697 30.1886 35.4399 31.1023 35.862 32.1387C35.9531 32.3615 35.9622 32.5384 35.8968 32.7546C35.6752 33.489 35.3471 34.1496 34.691 34.5911" fill="black"/>
<path fill-rule="evenodd" clip-rule="evenodd" d="M30.6184 0.948608C31.5935 1.0037 31.5935 1.0037 31.7525 2.0624C32.3162 1.53595 32.3162 1.53595 32.8895 1.386C33.051 1.81429 33.2739 2.23098 33.8736 2.09098C33.9552 2.07192 34.0791 2.14772 34.1557 2.21234C34.6055 2.5934 34.7799 3.20642 35.2745 3.55228C35.2505 4.28417 35.7475 5.00074 35.4778 5.70737C35.192 6.45748 35.12 7.26435 34.7095 7.98713C34.2075 8.87103 33.6661 9.70441 32.8965 10.445C32.4811 10.404 32.0383 10.4247 31.8002 10.9072C31.6983 10.817 31.6187 10.7457 31.5392 10.6749C30.8044 11.4134 30.6172 12.5595 29.7118 13.139C29.3543 13.3104 29.1435 12.8523 28.8863 12.9455C28.5495 13.0673 28.33 12.6378 28.0156 12.8412C27.7422 13.0184 27.4589 12.9149 27.2079 12.8904C26.9453 12.5475 27.5844 12.393 27.3119 12.0811C27.1093 12.0388 27.0049 12.4009 26.7316 12.1867C26.5725 11.442 26.8343 10.7685 27.1176 10.0544C27.4245 9.27985 27.8528 8.51524 27.8147 7.63589C27.801 7.32068 28.0185 7.11234 28.1353 6.86464C28.4799 6.13524 28.7218 5.37352 28.9985 4.6234C29.346 3.68027 29.45 2.64808 30.0129 1.76707C30.1914 1.48831 30.3993 1.25222 30.6184 0.948608" fill="black"/>
<path fill-rule="evenodd" clip-rule="evenodd" d="M37.8537 63.3195C37.659 63.5461 37.8826 63.8215 37.6544 63.9797C37.3297 64.0323 37.082 63.7859 37.1044 63.5763C37.1884 62.7955 36.6715 62.4439 36.1695 62.0524C36.0221 61.9381 35.9015 61.7898 35.7686 61.6565C35.5615 61.195 35.8775 60.8335 36.0018 60.4346C36.1699 60.3161 36.3547 60.3886 36.5332 60.3874C36.7138 60.483 36.5332 60.8798 36.9209 60.8198C37.1748 60.7324 37.2709 60.3584 37.2721 60.2465C37.2792 59.5805 37.4374 58.9766 37.7596 58.4046C37.4332 57.7004 37.9671 57.0969 37.9932 56.4301C38.021 55.7243 38.3751 55.1556 38.8461 54.6403C39.0445 54.4229 39.2603 54.5533 39.4661 54.4726C39.4508 54.859 39.9288 54.9808 39.6795 55.6178C40.0866 55.1738 40.07 54.7053 40.4445 54.7368C41.0463 54.7869 41.7418 54.7671 42.2098 55.0678C42.6613 55.3581 43.4673 55.4836 43.4122 56.3236C43.4085 56.3837 43.4532 56.469 43.5029 56.5075C44.3657 57.1765 44.4303 58.2281 44.7547 59.1481C45.0148 59.8841 45.2355 60.6317 45.2318 61.4386C45.2302 61.888 44.7675 62.2248 45.0164 62.6655C44.7646 63.0656 44.2978 63.2549 44.2241 63.8372C43.3074 63.0817 42.4049 64.01 41.5305 63.7445C41.33 63.843 41.4112 64.0269 41.3251 64.1533C41.1731 64.2978 40.9713 64.1616 40.9771 64.1595C40.6006 64.2941 40.8119 64.5994 40.5621 64.6408C40.4395 64.5687 40.478 64.4478 40.4693 64.3293C40.2395 64.0638 39.904 64.3148 39.6405 64.1736C39.5121 64.0448 39.3796 63.9118 39.2433 63.7764C38.8573 64.0228 38.7889 64.461 38.5889 64.8732C38.3159 64.7278 38.1784 64.5368 38.207 64.2113C38.236 63.8778 38.2567 63.5299 37.8537 63.3195" fill="black"/>
<path fill-rule="evenodd" clip-rule="evenodd" d="M31.3107 84.5736C31.1736 84.3578 31.2548 84.1759 31.0816 84.1018C30.848 84.3449 31.0738 84.6775 30.9408 84.9625C30.8281 84.9741 30.7262 84.984 30.5428 85.0027V83.9137C30.334 84.557 29.4037 84.3313 29.2919 84.9965C29.1208 84.7314 28.8603 84.7579 28.6006 84.7807C28.3719 84.9389 28.6002 85.216 28.4349 85.4011C28.1934 85.4964 27.9378 85.4475 27.6777 85.4301C27.5005 85.1953 27.6355 84.9244 27.5907 84.6717C27.3455 84.4112 27.1297 84.1055 26.7379 84.0305C26.8497 83.8462 26.7035 83.5526 26.7644 83.4913C27.0365 83.2179 26.8091 82.7482 27.2192 82.5303C27.5986 82.329 27.1459 81.7835 27.5444 81.5449C27.1115 81.0707 27.7469 80.6598 27.6181 80.164C27.5005 79.7129 27.5928 79.2068 27.5928 78.754C27.3919 78.6538 27.3799 78.822 27.2764 78.8601C26.9773 78.8779 27.2722 78.5159 27.0494 78.4728C27.0009 78.5063 26.921 78.5304 26.9003 78.5797C26.6228 79.2374 26.3312 79.9005 26.5134 80.6374C26.7052 81.4091 26.7545 81.4169 26.448 82.3862C26.361 82.6616 26.8866 82.7527 26.53 83.0273C26.332 83.1794 26.6062 83.5633 26.2777 83.7124C26.4103 83.9456 26.4463 84.2318 26.6704 84.4141C26.6281 84.5334 26.5341 84.5425 26.4239 84.5487C26.0789 84.5682 25.8598 84.4215 25.7873 84.0819C25.7264 83.7969 25.8917 83.49 25.6987 83.2146C25.5607 83.017 25.801 82.7461 25.5682 82.546C25.5123 82.4988 25.5127 82.2694 25.5674 82.2271C25.9493 81.9322 25.6423 81.682 25.586 81.3834C25.5305 81.091 25.497 80.7625 25.6933 80.4233C25.9364 80.0053 25.7629 79.5356 25.5781 79.0833C25.4738 78.8286 25.2472 78.9773 25.1436 78.822C25.4481 78.4475 25.3218 78.0217 25.3147 77.6419C25.1938 77.5056 24.9937 77.5363 24.9912 77.5607C24.9556 77.8979 24.5277 78.1936 24.8707 78.5705C24.5758 78.8311 24.3691 79.2536 23.8066 79.102C23.8501 78.8555 23.9387 78.5805 24.0149 78.3663C24.099 78.1315 24.2386 77.9207 24.2022 77.6568C24.1595 77.3503 24.531 77.1726 24.4333 76.8454C24.3331 76.5099 24.6184 76.4826 24.8127 76.3326C25.0086 76.1823 24.7684 75.771 25.0894 75.5999C24.9059 75.4392 24.7133 75.5398 24.5248 75.5137C24.3335 75.7668 24.4706 76.1251 24.1541 76.3869C23.689 76.7713 23.7532 76.8334 23.4628 77.9343C23.3572 78.3344 23.1538 78.7085 22.984 79.1202C22.4625 78.7399 22.5445 78.2479 22.7413 77.7757C22.9061 77.3797 22.9931 76.9618 23.1248 76.5757C23.2483 76.2146 23.1828 75.6765 23.6857 75.4491C24.0241 75.2963 23.9603 74.7794 24.3326 74.6195C24.4552 74.7499 24.5708 74.9119 24.8699 74.7678C24.7265 74.5901 24.5882 74.4186 24.4453 74.2417C24.7456 74.0607 25.0045 74.0959 25.2219 74.3813C25.6096 73.7778 26.4277 73.9634 26.8344 73.4701C27.1886 73.4804 27.271 73.789 27.5046 73.9381C27.551 73.8027 27.5961 73.6718 27.6429 73.5368C27.7954 73.432 27.9432 73.888 28.1454 73.5268C28.2034 73.4233 28.5749 73.4386 28.7787 73.4916C28.9373 73.533 29.0715 73.7057 29.1945 73.8399C29.3706 74.0326 29.6332 73.8358 29.8204 73.9795C29.5719 74.3498 29.8821 74.5909 30.0026 74.8585C30.1762 75.2445 30.7755 74.8717 30.9619 75.4781C30.9715 75.5286 30.643 75.6107 30.7623 75.7846C31.1968 76.4196 30.9818 77.255 31.4279 77.8834C31.4635 77.9335 31.4051 78.0474 31.4387 78.1029C31.6764 78.4972 30.8269 78.8845 31.4337 79.2734C31.4337 79.6876 31.5377 80.1375 31.4097 80.5078C31.2113 81.0814 31.2154 81.6489 31.2096 82.2292C31.2092 82.2988 31.2336 82.3692 31.251 82.4644C31.4722 82.5013 31.5257 82.2814 31.6391 82.1795C31.7178 82.1086 31.5878 81.892 31.8765 81.8581C31.8831 82.8012 32.0335 83.7472 31.3107 84.5736" fill="black"/>
<path fill-rule="evenodd" clip-rule="evenodd" d="M53.3447 9.01864C53.3534 8.8248 53.353 8.71462 53.244 8.64379C52.933 8.45202 52.87 9.06214 52.5453 8.82811C52.467 8.80285 52.4455 8.74776 52.496 8.69722C52.7536 8.43918 53.1421 8.14137 52.8033 7.78433C52.4131 7.37178 53.0407 7.21894 52.9189 6.91823C53.2734 6.82131 53.558 6.39717 53.9925 6.68338C54.0815 6.7422 54.1366 6.859 54.3661 6.80225C55.284 6.07906 55.8291 4.99095 56.2482 3.87012C56.392 3.48533 56.6434 3.27782 56.8463 2.98953C58.1863 3.89622 58.1863 3.89622 58.6771 3.67338C59.0884 4.22841 59.5072 4.78717 59.4421 5.54308C59.4148 5.85663 59.5101 6.10764 59.6745 6.35202C59.2872 6.83042 59.6099 7.29018 59.7822 7.69776C59.9992 8.21054 59.8054 8.72125 59.9255 9.21705C59.9404 9.27959 60.0262 9.32474 60.0974 9.39557C59.7876 9.88722 59.6575 10.499 59.0623 10.8954C58.5615 10.7968 57.9701 11.0524 57.3989 10.7691C56.8509 10.4961 56.223 10.521 55.6551 10.3491C55.1299 10.1896 54.6565 9.8574 54.1259 9.58403C53.647 9.68302 53.3633 10.1254 53.0021 10.441C52.3191 10.4758 51.6469 10.7247 51.2285 11.0938C50.6669 11.211 50.0472 10.9352 49.5183 11.3543C49.3369 11.1178 49.1542 10.8797 49.0623 10.7599C49.9888 10.9559 49.9395 10.8478 51.2153 10.2608C52.0018 9.89924 52.4831 9.1164 53.3447 9.01864" fill="black"/>
<path fill-rule="evenodd" clip-rule="evenodd" d="M22.8875 58.0845C22.8552 58.3695 22.8349 58.5476 22.8171 58.7009C22.7484 58.8032 22.709 58.7829 22.6386 58.6992C22.5214 58.56 22.3748 58.4631 22.3893 58.2328C22.4154 57.8203 22.3839 57.4044 22.4004 56.991C22.4137 56.6564 22.3909 56.33 22.1668 56.0715C21.8338 55.6863 21.9945 55.2394 21.9312 54.8413C22.3855 54.4333 22.5483 53.9661 22.6568 53.3987C22.7678 52.8213 22.7459 52.2033 23.0532 51.6474C23.1804 51.4175 23.0743 51.0593 23.0743 50.7697C23.3104 50.5274 23.5822 50.3278 23.631 49.9815H24.1007C24.3443 50.2255 24.0925 50.563 24.2598 50.8319C24.4371 50.9081 24.6496 50.9553 24.6438 50.6782C24.638 50.3812 25.1669 50.3762 24.7535 49.9136C25.5641 50.0846 26.1506 50.3153 26.709 50.199C27.0378 50.2408 26.832 50.5601 27.1207 50.6827C27.9217 51.0232 28.2262 51.6424 28.2796 52.4655C28.3442 53.462 28.1003 54.394 27.8223 55.3301C27.6094 56.045 27.2251 56.4832 26.4132 56.5474C25.6768 56.6058 25.352 57.0569 25.3346 57.8169C25.328 58.1139 25.3338 58.4113 25.3338 58.6975C25.106 58.8603 25.1064 58.5675 24.9929 58.5712C24.693 58.4382 24.5957 58.9543 24.2668 58.7489C24.0701 58.6056 24.3306 58.3194 24.1272 58.1471C24.0784 58.1756 23.9852 58.2038 23.9848 58.2336C23.9785 58.5617 23.6455 58.7882 23.7188 59.1515C23.7387 59.2497 23.5412 59.2385 23.431 59.2422C23.2206 59.1204 23.315 58.9154 23.3034 58.7435C23.2906 58.5604 23.3005 58.3761 23.3005 58.2564C23.1932 58.0588 23.0644 58.1355 22.8875 58.0845" fill="black"/>
<path fill-rule="evenodd" clip-rule="evenodd" d="M9.00393 32.0201C9.23754 32.1067 9.36802 32.1552 9.48192 32.1974C9.55606 32.3743 9.48896 32.4807 9.3908 32.6083C9.21435 32.8365 9.20234 33.0888 9.44133 33.293C9.8866 33.6745 9.8108 33.9884 9.42973 34.4035C9.21973 34.6325 9.04908 35.0239 9.25577 35.4344C9.04867 35.7426 8.80429 35.2522 8.6937 35.3594C8.42364 35.6208 8.12914 35.4907 7.8479 35.5152C7.58612 35.5375 7.32145 35.5197 7.0576 35.5197H6.235C5.98524 35.1946 5.64766 34.8852 5.48737 34.502C5.37139 34.2266 5.25707 33.9114 5.17754 33.607C5.08393 33.2512 5.60541 33.1045 5.30098 32.7239C5.13074 32.5114 5.22228 32.0893 5.19577 31.7613C4.67222 31.333 3.78541 31.6366 3.44204 30.8645C3.47642 30.8301 3.52985 30.7771 3.62636 30.6806C3.50376 30.4942 3.18565 30.5079 3.11938 30.1869C3.08417 30.0171 3.03737 29.6704 2.77808 29.561C2.8663 29.3775 2.95453 29.1936 3.04565 29.0031C3.09287 29.0309 3.18151 29.0557 3.18565 29.0909C3.20387 29.2384 3.15624 29.4061 3.2105 29.5341C3.26518 29.6625 3.4118 29.7516 3.5166 29.8564C3.6947 29.7934 3.61352 29.6141 3.68683 29.4832C3.94198 29.5225 4.23151 29.9185 4.43985 29.3535C4.52352 29.5726 4.57281 29.7023 4.63991 29.8791C4.80186 29.8638 5.04459 29.9152 5.14275 29.8195C5.63855 29.3328 6.24411 28.9194 6.50092 28.2439C6.69725 27.7286 7.10648 27.4581 7.46021 27.0941C7.80234 27.3161 7.7866 27.5878 7.635 27.7796C7.4424 28.0231 7.44198 28.2315 7.5824 28.5404C7.78867 28.3118 8.02973 28.1312 8.14902 27.8901C8.28488 27.6143 8.38346 27.3691 8.73677 27.3902C8.96334 27.6528 8.7608 27.9804 8.86518 28.2472C9.15719 28.2555 9.03251 28.06 9.07559 27.937C9.35186 27.7419 9.62731 27.7642 9.83027 28.0475C9.99553 28.2778 10.0568 28.5761 10.3136 28.7509C10.5038 28.8805 10.4719 29.1282 10.4097 29.2628C10.0983 29.9355 9.98186 30.667 9.76855 31.3665C9.64719 31.7638 9.40281 31.8582 9.00393 32.0201" fill="black"/>
<path fill-rule="evenodd" clip-rule="evenodd" d="M67.8179 8.63116C68.044 8.62661 68.0759 8.88258 68.2722 8.94057C68.1807 9.04205 68.1103 9.12075 68.0399 9.19903C68.1049 9.30051 68.2118 9.33903 68.3203 9.3088C68.575 9.23714 68.6384 8.89915 68.9478 8.8569C69.275 8.87803 69.4345 9.21477 69.7252 9.36306C70.4667 9.74081 70.8871 11.1938 70.634 12.0218C70.4368 12.6647 70.4451 13.298 70.7003 14.0203C70.6796 14.1218 70.4948 14.0212 70.3735 14.0932C70.1196 14.4196 70.4033 14.6773 70.5267 14.9614C70.4468 15.2787 70.1171 15.3822 69.98 15.6465C69.6449 15.3648 69.3458 15.2215 68.8848 15.3893C68.4802 15.5367 68.3041 15.0658 68.0469 14.8487C68.1239 14.7522 68.1848 14.6773 68.2457 14.601C67.9562 14.3616 67.8116 14.5944 67.6837 14.7547C67.4409 15.0575 67.525 15.5806 66.9799 15.6991C66.8047 15.7372 66.9219 16.0358 66.9083 16.2144C66.8813 16.5631 66.6805 16.7209 66.3839 16.7806C66.0637 16.619 66.3797 16.2504 66.1134 16.0922C65.5915 16.4732 65.8264 17.3286 65.0808 17.6873C65.2921 16.9487 65.5335 16.2993 65.6545 15.6279C65.7767 14.951 66.456 14.4159 66.1395 13.5423C65.7079 14.4039 65.4822 15.2513 65.1806 16.0802C65.0854 15.6171 65.1073 15.2029 65.302 14.7357C65.6752 13.8389 65.9216 12.8892 66.2281 11.9642C66.3926 11.4697 66.5533 10.9718 66.7575 10.4934C66.8122 10.365 66.888 10.259 66.9124 10.1049C67.0425 9.29264 67.093 9.22678 67.8179 8.63116" fill="black"/>
</svg>
