<svg width="83" height="81" viewBox="0 0 83 81" fill="none" xmlns="http://www.w3.org/2000/svg">
<path fill-rule="evenodd" clip-rule="evenodd" d="M39.6623 24.4597H40.2947C40.4078 24.6975 40.4484 24.9651 40.6998 25.0997C41.935 25.1341 41.5456 25.04 42.9622 26.4612H45.8289C46.2568 26.655 46.3794 27.2548 46.9418 27.1562C47.3432 27.7071 48.3265 27.7087 48.3344 28.6523C48.3356 28.7865 48.5829 28.9186 48.7159 29.0516C48.498 29.6592 47.9873 30.0307 47.5602 30.4872C47.419 30.7142 46.9601 30.317 46.9468 30.7394C46.934 31.1483 46.5289 30.9254 46.3864 31.1665C46.287 31.3346 45.9614 31.3686 45.7324 31.4647C45.6412 31.3856 45.5584 31.3135 45.4781 31.2439C45.3699 31.6635 44.9698 31.7281 44.6675 31.8984C44.4496 31.9299 44.4177 31.5923 44.0805 31.7314C43.9443 31.9013 43.7355 32.1618 43.5305 32.4165C43.3052 32.2335 43.1697 32.0222 42.9837 32.1357C42.4987 32.431 42.036 32.7632 41.5692 33.0867C41.1107 33.404 40.4269 33.5995 39.8665 33.5274C39.4291 33.4707 39.1072 33.9942 38.6027 33.5796V34.4726C38.3542 34.7327 37.9392 34.4577 37.7528 34.9456C37.6513 34.2597 36.7848 34.6242 36.6999 33.9727C36.3433 34.1413 35.9771 34.3832 35.6917 33.8493C35.6234 33.7325 35.787 33.7188 35.8255 33.6198C35.8156 33.3999 35.6263 33.5142 35.5128 33.4711C35.2829 33.2412 35.3831 32.7852 35.8665 31.8913C34.8057 31.2216 34.3746 30.0448 33.6882 29.1162C33.7359 28.3739 34.1815 27.9113 34.8343 27.6259C35.0257 27.5418 35.2477 27.5476 35.4523 27.4929C35.9966 27.3471 36.533 27.1351 37.1249 27.1458C38.1773 27.1653 38.4752 26.8985 38.8061 25.885C38.9689 25.3851 39.0136 24.8085 39.6623 24.4597" fill="black"/>
<path fill-rule="evenodd" clip-rule="evenodd" d="M69.7291 66.5641C69.0954 66.9576 68.4699 67.0719 68.0827 67.5809C67.9356 67.7748 67.7302 67.8444 67.5314 67.8879C66.8003 68.0473 66.3153 68.7374 65.5279 68.79C65.387 68.7991 65.2611 69.0385 65.1282 69.1711C64.3184 69.0953 63.5621 69.5737 62.7428 69.4051C62.5311 69.3612 62.295 69.4966 62.1004 69.3214C61.5751 68.8492 60.9224 68.6898 60.253 68.6123C59.6441 68.5419 59.3128 68.1041 58.9247 67.728C58.8526 67.489 59.0647 67.0711 58.498 67.1344V66.0931C59.1015 65.3252 59.9627 65.0075 60.9758 64.8625C61.9417 64.7246 62.8956 64.4367 63.823 64.1219C64.2318 63.9836 64.5649 63.699 64.8138 63.2194C65.4595 61.9722 65.94 60.6725 66.3579 59.3437C66.6731 58.3426 66.6528 58.3364 67.5069 57.8824C68.122 58.0361 67.8743 58.5924 67.9592 58.9357C68.1933 58.7017 68.4186 58.476 68.6307 58.2639C68.9409 58.4946 69.0962 58.6856 69.1273 58.9734C69.4727 58.9875 69.8368 59.1797 70.1164 58.734C70.3078 59.1627 70.0062 59.6821 70.6453 59.9087C70.7907 59.7115 70.9821 59.4514 71.1796 59.1843C71.4617 59.5077 71.2132 59.8437 71.4017 60.0971C71.6166 60.2318 71.7401 60.0856 71.8697 59.9431C71.9219 59.9766 71.996 59.9977 72.0234 60.0454C72.7586 61.3257 72.5705 62.5745 71.861 63.7869C71.5077 64.3916 71.0363 64.9098 70.5078 65.3691C70.1156 65.7096 69.8592 66.1283 69.7291 66.5641" fill="black"/>
<path fill-rule="evenodd" clip-rule="evenodd" d="M55.705 49.939C55.4146 49.968 55.1384 50.098 54.9946 49.7439C54.6463 49.9995 54.3903 50.5114 53.8842 50.0388C53.7578 49.9208 53.6058 49.9348 53.5043 50.0744C53.3374 50.3031 53.0827 50.1337 52.8768 50.2385C52.5678 51.2205 51.7833 51.829 51.0225 52.4453C50.928 52.5219 50.7818 52.6615 50.6725 52.6628C49.6684 52.6715 48.6619 52.7572 47.6596 52.6218C47.3651 52.244 46.7148 52.727 46.5048 52.1442C46.0918 52.1376 45.7335 51.9909 45.3694 51.7942C44.9933 51.5908 44.6607 51.3079 44.2921 51.1286C43.7242 50.8519 43.4185 50.3967 43.1361 49.8976C42.9484 49.5658 42.8084 49.2071 42.6423 48.85C42.8341 48.4818 42.9828 48.08 43.3394 47.7947C43.544 47.6302 43.7338 47.5379 43.998 47.4654C44.6765 47.2794 45.2688 46.9058 45.84 46.463C47.1915 45.4155 48.4788 44.2938 49.7691 43.1755C50.0213 42.9564 50.3307 42.8926 50.5987 42.7356C50.812 42.8943 51.0676 43.0069 50.9914 43.3316C51.3505 43.5532 51.7506 43.2973 52.0874 43.4919C52.1159 43.8134 51.7382 43.4973 51.7312 43.8129C52.0116 43.9803 52.3773 43.8192 52.7124 43.8916C52.8648 44.1327 53.173 44.2371 53.2703 44.5564C53.3503 44.8182 53.7015 45.1458 53.629 45.2763C53.4393 45.6189 53.7761 45.8206 53.7197 46.1039C53.663 46.3893 53.7732 46.7579 53.629 46.9625C53.4625 47.1995 53.834 47.4741 53.4555 47.6385C53.8676 47.9003 54.2375 48.2996 54.6513 48.3522C55.104 48.4102 55.1152 49.159 55.705 48.8012V49.939Z" fill="black"/>
<path fill-rule="evenodd" clip-rule="evenodd" d="M26.3065 59.2741C25.7627 59.5396 25.5369 60.2263 24.8572 60.4131C24.6306 59.697 25.7921 59.574 25.4325 58.8963C25.1111 58.7137 24.7959 58.4664 24.4372 58.3513C24.1191 58.2494 24.0015 58.0866 23.8702 57.7954C23.6805 57.3729 23.4295 56.9566 22.985 56.6783C22.985 56.4207 22.9581 56.1589 22.9908 55.9054C23.0641 55.3346 23.2058 54.8053 23.6569 54.3729C24.7793 53.298 26.0269 52.4534 27.5301 51.9982C27.89 51.8893 28.2127 51.6561 28.5738 51.4685C28.6256 50.9781 28.9276 50.5104 28.8948 49.9351C28.8804 49.687 29.0779 49.2836 29.5079 49.1991C29.7299 49.1556 29.927 48.9895 30.2145 48.8366V50.3087C30.5748 49.9537 30.8234 49.7081 31.0549 49.4799C32.4011 50.2805 33.3508 51.2804 33.6259 52.8229C33.4668 52.8792 33.3363 52.9252 33.1661 52.9857V53.9243C32.5721 54.3724 32.517 55.0695 32.2838 55.6366C31.9922 56.3449 31.6555 56.979 31.1348 57.5316C30.6842 58.01 30.1288 58.3956 29.8471 59.0276C29.7754 59.1879 29.6131 59.3631 29.4532 59.4195C28.8373 59.6361 28.4343 60.0892 28.0536 60.6418C27.9836 60.4492 27.936 60.3187 27.8432 60.0636C27.6924 60.549 27.603 60.9094 27.1254 61.1463C26.5422 61.4354 26.3372 61.097 26.0331 60.8187C25.8886 60.9744 25.7701 61.1297 25.5489 61.0104C25.5233 60.9479 25.4582 60.8688 25.4764 60.8216C25.6343 60.4169 25.8331 60.0379 26.1872 59.7608C26.3367 59.6436 26.4589 59.5044 26.3065 59.2741" fill="black"/>
<path fill-rule="evenodd" clip-rule="evenodd" d="M45.2581 11.3218C45.1156 11.2647 45.1015 11.1031 44.9135 11.1876C44.8489 11.7244 45.0353 12.3374 44.5473 12.8945C44.3555 12.9654 43.9252 12.8614 43.8063 13.2433C43.7111 13.5498 43.61 13.7813 43.3101 13.8269C42.9634 13.8211 43.2256 13.3692 42.9075 13.3729C42.5969 13.3746 42.5128 13.6819 42.3044 13.8211C42.2005 13.7557 42.1416 13.6302 42.1959 13.5444C42.3537 13.2959 42.5269 13.0648 42.3591 12.7541C42.1155 12.5441 41.9987 12.8531 41.8182 12.8883C41.6897 12.81 41.7051 12.6634 41.7461 12.5855C42.1884 11.7406 42.3628 10.8082 42.6917 9.92968C42.0319 9.50885 41.3468 9.2301 40.704 8.91157C39.9791 8.55246 39.487 8.00779 38.8657 7.46891H37.8932C37.8882 6.89856 38.5414 6.7482 38.408 6.11447C38.0734 5.88294 37.9872 6.73122 37.5713 6.5966C37.4661 6.53282 37.4301 6.43755 37.4537 6.25779C38.0709 5.86057 38.8624 5.82081 39.5471 5.48737C40.2761 5.13282 41.1173 5.09015 41.908 4.91246C42.7302 4.72773 43.53 4.89755 44.37 4.75548C44.964 4.29944 44.8609 3.50583 45.1173 2.86134C45.3853 2.1895 45.6806 1.55619 46.2389 1.06619C46.4489 0.882285 46.6448 0.963882 46.8813 0.984178C46.9182 1.32341 46.3184 1.37104 46.5342 1.81796C46.8254 1.67672 47.1187 1.53507 47.3966 1.40004C47.6335 1.41453 47.6137 1.57359 47.6112 1.72187C48.7034 1.97081 48.8923 2.09051 49.2825 3.22459C49.3678 3.47187 49.4337 3.80365 49.4225 4.11098C49.4076 4.52394 49.4187 4.93773 49.4187 5.3453C49.5016 5.51223 49.6859 5.42939 49.8363 5.53459V7.22743C48.9809 7.5211 48.7854 8.4311 48.2938 9.09755C48.0784 9.38998 47.9197 9.72672 47.303 9.80335C47.5992 9.4753 47.8642 9.28684 47.9724 9.03211C48.0767 8.78566 48.3629 8.59388 48.2801 8.29276C48.2147 8.17181 48.1645 8.1656 48.1078 8.24554C47.7831 8.70696 47.5374 9.24708 46.9335 9.43181C46.9588 9.85181 46.813 9.78471 46.6051 9.5424C46.3677 9.70477 46.5173 9.94542 46.4858 10.1467C46.4618 10.2967 46.4775 10.4296 46.2559 10.4425C45.7162 10.4735 45.6011 11.0087 45.2581 11.3218" fill="black"/>
<path fill-rule="evenodd" clip-rule="evenodd" d="M24.3361 27.1561C24.3854 27.6184 24.3105 27.9191 23.9215 28.0636C23.6192 28.0599 23.5347 27.7526 23.3263 27.613C23.0608 27.8905 22.7966 27.9352 22.4731 27.6718C22.2063 27.4552 21.9773 27.1549 21.9479 26.879C21.8903 26.3306 21.5486 26.027 21.199 25.7184C20.5363 25.1327 20.0848 24.4245 19.7559 23.6068C19.5948 23.2055 19.584 22.9271 19.7953 22.5133C20.1581 21.8034 20.6779 21.4157 21.428 21.2844C21.9189 21.1982 22.3778 20.9278 22.8798 21.0736C22.9941 20.8752 23.1685 20.8085 23.2211 20.5947C23.4966 19.4743 23.9439 18.4169 24.4931 17.4033C24.8692 16.7083 25.194 16.6648 25.894 17.0525C26.3305 17.2948 26.7667 17.4903 27.1498 17.8461C27.6783 18.3374 27.8979 18.6016 28.1928 19.3215C28.4823 20.0298 28.6501 20.7405 28.6422 21.5064C28.6389 21.8564 28.4873 22.2532 28.8514 22.5498C28.9069 22.5945 28.8948 22.7813 28.8534 22.8762C28.5693 23.524 28.7022 24.2708 28.3054 24.9062C27.8618 25.6169 27.4364 26.341 26.7646 26.8455C26.5405 27.014 26.244 27.1959 25.884 27.166C25.4023 27.1263 24.9144 27.1561 24.3361 27.1561" fill="black"/>
<path fill-rule="evenodd" clip-rule="evenodd" d="M12.3664 39.8669C12.3664 40.1357 12.2865 40.4025 12.3801 40.4981C12.8386 40.9658 12.2422 41.3489 12.3225 41.7726C11.7936 42.273 11.6354 43.0074 11.1984 43.5599C10.9536 43.8697 10.6993 44.1767 10.1844 44.1257C9.90358 44.0975 9.57387 44.2765 9.33985 44.5254C9.1108 44.3564 8.8718 44.2073 8.57358 44.3908C8.54334 44.5747 8.84405 44.6302 8.72352 44.9011C8.31636 45.0345 7.86074 45.1803 7.4076 45.3327C6.94618 45.4884 6.34559 45.5249 6.0631 45.8426C5.73298 46.2129 5.31506 46.4535 4.95843 46.8524C4.67843 46.661 4.3392 46.5774 3.97801 46.5322C4.14701 46.2369 4.54796 46.1586 4.41251 45.6798C4.21742 45.8372 4.04553 45.9759 3.87529 46.1135C3.75517 46.041 3.73819 45.8774 3.78997 45.8219C3.98257 45.6148 4.07784 45.3973 3.94654 45.0403C3.30535 45.0245 2.65506 44.7698 2.00269 44.4587C1.80967 44.1154 2.2131 43.8316 2.21807 43.5363C1.9447 43.3251 1.81257 43.4547 1.67671 43.6088C1.29979 43.4787 1.16642 43.1387 1.32796 42.8595C1.54955 42.4755 1.72683 42.0535 2.216 41.8248C3.63464 41.1613 4.98784 40.3614 6.4102 39.7534C7.03606 38.6897 6.92091 37.3001 7.95393 36.4253H8.62369C8.73263 36.7542 8.96831 36.8084 9.30506 36.907C9.89778 37.0806 10.546 37.3647 10.7701 38.0328C10.9225 38.4893 11.2978 38.7746 11.485 39.2038C11.6192 39.5111 11.8938 39.8147 12.3664 39.8669" fill="black"/>
<path fill-rule="evenodd" clip-rule="evenodd" d="M41.409 75.9479C41.2541 75.8332 41.2102 75.7035 41.1696 75.7118C40.8154 76.0825 40.5201 76.3924 40.1295 76.802C40.0981 77.0058 40.564 76.7245 40.5814 76.9938C39.8951 77.3935 38.9685 77.5409 38.8795 78.634C38.9064 78.6614 39.0128 78.7678 39.1914 78.9467C39.3831 78.6862 39.5749 78.4257 39.7708 78.1598C40.0073 78.4141 39.9349 78.5541 39.7845 78.7036C39.4175 79.0689 39.0207 79.3286 38.4698 79.3589C38.0871 79.3796 37.7462 79.6985 37.313 79.539C37.2566 79.7018 37.2107 79.8327 37.1643 79.9665C37.0193 80.0543 37.0106 79.8733 36.8499 79.8248C36.8209 80.1968 36.4204 80.2105 36.224 80.4524C35.8612 80.3041 35.5845 79.8774 35.2043 79.9392C35.0237 79.9686 34.7495 79.5738 34.6269 80.0539C34.4297 79.8008 34.2491 79.5685 34.0983 79.3746H33.1718C32.6176 79.1145 32.4589 78.6261 32.2436 78.1817C32.3136 78.0645 32.3802 77.9539 32.444 77.847L32.0137 77.4167C32.0307 77.0961 32.2502 76.8496 32.4163 76.5899C32.5828 76.3294 32.8466 76.3675 33.101 76.4702C33.1146 76.6661 32.7849 76.778 32.9962 77.0522C33.5019 76.7121 34.1199 76.626 34.6637 76.3625C35.0452 75.3502 35.0146 74.1963 35.8392 73.3335C36.031 73.133 36.1739 72.7097 36.0973 72.3199C36.0554 72.1091 36.2514 72.1153 36.4212 72.1161C36.6854 72.4272 36.4465 72.8224 36.5678 73.1595C37.3101 72.8402 37.5515 72.3937 37.5288 71.6162C37.5217 71.3743 37.7417 71.1279 37.6307 70.8098C37.4368 70.7704 37.4753 70.9261 37.4372 71.0409C37.4053 71.1378 37.3105 71.2132 37.2446 71.2993C37.144 71.4306 37.0172 71.4754 36.8594 71.4149C36.9037 70.2783 37.2301 69.8045 38.2449 69.4106C38.4947 69.6529 38.2292 69.9925 38.4135 70.2667C38.6388 70.2324 38.7163 70.0033 38.9151 69.865C39.0427 70.1002 39.1011 70.3889 39.3691 70.5318C39.5902 70.6155 39.6867 70.415 39.8665 70.2783C40.6498 70.6031 41.2711 71.0471 41.2984 72.0412C41.3079 72.3845 41.7064 72.754 41.4885 73.0605C41.2197 73.4403 41.6223 73.6868 41.5258 74.0219C41.392 74.4879 41.8522 74.8863 41.7557 75.3945C41.7068 75.6509 41.5556 75.7727 41.409 75.9479" fill="black"/>
<path fill-rule="evenodd" clip-rule="evenodd" d="M65.8283 21.0561H66.479C66.7321 21.2943 66.4835 21.6306 66.6393 21.9023C67.029 22.1132 67.1148 21.6903 67.3459 21.5461C67.3927 21.5706 67.4519 21.5896 67.4958 21.6261C67.7526 21.8394 67.9001 22.1335 68.1842 22.3522C69.11 23.0658 69.2881 24.1568 68.7426 25.3307C68.4928 25.8691 68.2563 26.4685 67.8434 26.8599C67.5029 27.1822 67.5853 27.6017 67.3219 27.9083C67.0651 28.2069 66.7399 28.4169 66.5544 28.827C66.3373 29.3045 65.6568 29.4155 65.3246 29.8674C64.7224 29.7303 64.6304 30.241 64.3955 30.5844C64.2912 30.7372 64.1342 30.8536 63.9702 31.0181C63.6487 30.9551 63.3464 30.7584 62.9711 30.7439C62.6513 30.731 62.3494 30.3305 62.0073 30.7215C61.5222 30.2953 60.9987 30.8478 60.5542 30.6884C60.0651 30.5136 59.5022 30.5649 59.0664 30.1735C58.9148 30.0377 58.5723 30.0944 58.318 30.0981C57.9928 30.1027 57.8731 29.896 57.8338 29.7999C57.6871 29.3911 58.2463 29.3787 57.9539 29.0502C57.8342 28.8377 57.5554 29.0709 57.3736 28.9003C57.2763 28.7338 57.3301 28.5532 57.3471 28.3755C57.7079 28.2201 58.0425 28.0557 58.4621 28.042C59.0644 28.0226 59.5593 27.6183 60.1131 27.4091C61.2534 26.9792 62.3034 26.3993 63.1691 25.5088C63.4793 25.1894 63.6939 24.8353 63.8807 24.4439C64.2713 23.6267 64.6718 22.814 65.0794 22.0051C65.2592 21.6488 65.465 21.3051 65.8283 21.0561" fill="black"/>
<path fill-rule="evenodd" clip-rule="evenodd" d="M0.271996 19.2545C0.431463 19.4049 0.590102 19.5548 0.745013 19.701C1.57176 19.6712 1.77306 18.9439 1.94247 18.4166C2.43288 16.8882 3.04176 15.4053 3.55661 13.8877C3.70448 13.452 3.82916 13.3592 4.81951 12.8882C4.93176 13.4093 5.22543 13.6185 5.80075 13.6421C6.16359 13.6566 6.61549 14.0045 6.83046 14.3321C7.00649 14.6006 7.41365 14.8818 7.35442 15.0947C7.26205 15.4265 7.78892 15.6398 7.43685 15.9616C7.38673 16.008 7.6717 16.1903 7.62655 16.4069C7.55655 16.7424 8.09087 17.0298 7.82868 17.3115C7.50353 17.6607 8.00845 17.8806 7.85022 18.159C7.83407 18.1875 7.83821 18.2364 7.84939 18.2704C7.98401 18.6813 7.11004 18.7119 7.49898 19.2914C7.63566 19.4952 7.26247 19.8609 7.09679 20.1471C6.89052 20.5037 6.63206 20.7916 6.35661 21.0799C6.10519 21.3437 5.84797 21.5972 5.43916 21.6474C5.0933 21.1656 4.7259 21.9564 4.33531 21.7451C4.24129 22.4762 3.33336 22.4219 3.08815 23.0726C3.02768 23.2511 3.30478 23.3116 3.33294 23.5034C3.25632 23.9955 2.84501 24.1284 2.51324 23.969C1.98472 23.715 1.44543 23.819 0.895369 23.7478C0.847321 23.2636 0.710221 22.8183 0.352351 22.499C0.148564 22.3163 0.0744217 22.0379 0.182114 21.9066C0.690339 21.2862 0.199096 20.7477 0.0793922 20.1948C-0.027886 19.6981 -0.0775901 19.7089 0.271996 19.2545" fill="black"/>
<path fill-rule="evenodd" clip-rule="evenodd" d="M70.8821 43.5361C71.1459 43.2722 71.3845 43.0336 71.6218 42.7959C73.2405 42.5353 74.8588 42.298 76.528 42.7383C77.0168 42.6265 77.2446 42.1468 77.3743 41.7471C77.5437 41.2232 77.9811 40.8885 78.1347 40.3682C78.2491 39.981 78.7709 40.0791 78.9379 39.766C79.3065 39.918 79.5588 40.0584 79.4415 40.4958C79.9626 40.466 80.4017 40.4594 80.6862 40.9046C80.9062 41.2484 81.4678 41.2087 81.568 41.7658C81.6389 42.1568 81.9504 42.5043 82.1363 42.8398C81.6364 43.5766 82.3509 44.1797 82.3153 44.852C82.1628 45.2927 82.0212 45.716 81.3622 45.7446C80.9911 45.7607 80.6009 46.0913 80.2811 46.3555C79.869 46.6968 79.5107 46.7005 79.0944 46.3505C79.077 46.9023 78.5949 46.995 78.2263 47.2137C78.1422 47.1669 78.0233 47.0402 77.9144 47.0481C77.1788 47.0994 76.4986 46.708 75.8164 46.7109C75.1156 46.7138 74.4595 46.6098 73.9107 46.2913C73.3279 45.9537 72.6503 45.885 72.094 45.4811C71.8592 45.3105 71.6463 45.2272 71.5469 44.9133C71.4007 44.4498 70.8589 44.1752 70.8821 43.5361" fill="black"/>
</svg>
