<svg width="27" height="36" viewBox="0 0 27 36" fill="none" xmlns="http://www.w3.org/2000/svg">
<path fill-rule="evenodd" clip-rule="evenodd" d="M10.676 8.77163C10.6744 9.11127 10.0104 9.36559 10.5464 9.78145C10.5837 9.81086 10.5903 9.95914 10.5551 9.99186C10.1222 10.3978 10.3658 10.9118 10.3455 11.3707C10.3066 12.2716 10.3575 13.1758 10.3277 14.0775C10.2975 14.9884 10.4027 15.8922 10.1446 16.8142C9.95905 17.4765 10.0448 18.2403 10.1256 18.9452C10.2125 19.6999 9.81533 20.3821 9.89154 21.109C9.99757 22.1135 9.51462 23.0612 9.65586 24.0619C9.66124 24.0987 9.66828 24.1418 9.65462 24.1741C9.2226 25.203 9.26609 26.3313 8.9832 27.392C8.87716 27.7901 8.57024 28.1716 8.83284 28.6177C9.1468 28.7539 9.36633 28.4859 9.63059 28.4375C10.4333 28.29 11.2046 27.9781 12.0334 27.9682C12.2711 27.508 12.7682 27.8423 13.1351 27.6103C13.4446 27.4152 13.937 27.3225 14.3496 27.3158C14.763 27.3096 15.072 26.9302 15.4965 27.069C15.9082 26.6183 16.5076 26.8834 17.0204 26.6618C17.9374 26.2654 18.9485 26.072 19.909 25.7452C20.4657 25.5555 20.8368 25.2543 21.1338 24.9619C21.2763 24.305 21.0298 23.8349 20.785 23.4252C20.1149 22.3032 19.4351 21.1741 18.6333 20.146C17.3782 18.5377 16.228 16.8585 15.0653 15.1872C14.1139 13.8199 13.1973 12.4286 12.2724 11.0431C11.7579 10.2731 11.369 9.41612 10.676 8.77163M20.6181 29.55C20.3659 29.8027 20.1525 30.0156 19.9396 30.2285C19.9131 30.2045 19.8866 30.1796 19.8601 30.1556C19.8071 30.1092 19.7139 30.016 19.706 30.023C18.9257 30.6787 17.7717 30.1784 17.0034 30.8925C16.8725 30.7964 16.7213 30.5661 16.5598 30.6957C16.2595 30.9364 16.0018 31.0337 15.6986 30.7384C15.6431 30.6841 15.564 30.6932 15.5433 30.7897C15.4307 31.3145 15.0686 31.211 14.6747 31.2259C14.3094 31.2404 13.9582 31.4785 13.5904 31.5838C12.6058 31.8658 11.5496 31.8546 10.6019 32.2755C10.2966 32.4109 10.1069 31.9035 9.74036 32.2345C9.57053 32.3881 9.22095 32.5923 8.84154 32.5083C8.53876 32.4416 8.26166 32.7042 7.92657 32.7489C7.31562 32.8301 6.81858 33.2054 6.60361 33.8441C6.55059 33.791 6.49757 33.738 6.44497 33.6854C6.00219 33.8341 5.88787 34.0665 6.25775 34.4219C6.15089 34.5283 6.04444 34.6348 5.93716 34.7425C5.85763 34.6712 5.77811 34.6 5.70148 34.5316C5.31213 34.7135 5.4074 35.3671 4.95882 35.4035C4.58769 35.4342 4.26089 35.5336 3.97302 35.6761C3.60976 35.517 3.93615 35.1426 3.67728 34.9843C3.53189 35.0767 3.45154 35.3107 3.14047 35.1301C3.10817 34.8493 2.97604 34.4997 3.31651 34.1986C2.93089 33.9153 2.50178 33.8378 2.02213 33.8329C1.51805 33.8283 1.03964 33.6983 0.838757 33.1142C0.68716 32.6731 0.0153254 32.6859 0 32.0746C0.0269231 32.0369 0.108521 31.9222 0.183491 31.8025C0.470533 31.3427 0.801893 30.9948 1.42527 30.8539C2.40195 30.6332 3.30615 30.0649 4.28491 29.8897C5.11 29.7414 5.17959 29.1628 5.33864 28.6363C5.4484 28.2743 5.52047 27.8638 5.55858 27.4923C5.67663 26.3433 6.09414 25.2378 6.04195 24.0689C6.50586 23.3043 6.11941 22.4241 6.38823 21.6164C6.65 20.8319 6.32941 19.9609 6.51911 19.1805C6.86953 17.7407 6.66491 16.3006 6.70964 14.8633C6.75396 13.4339 6.71917 12.0024 6.71917 10.5722C6.71917 9.10423 6.8774 7.61393 6.67527 6.17417C6.47189 4.72737 6.56716 3.29879 6.48432 1.88719C6.82769 1.54382 7.14704 1.22447 7.4229 0.948608C7.64615 1.17186 7.87189 1.3976 8.11337 1.63867C8.42775 1.1934 8.83284 1.22488 9.09379 1.34334C10.1682 1.83044 11.1043 2.45796 11.7107 3.5705C12.636 5.26956 13.6864 6.90151 14.7033 8.55044C15.4828 9.81583 16.3191 11.0501 17.1674 12.2551C18.2605 13.8071 19.291 15.4171 20.5498 16.856C21.0435 17.4206 21.3268 18.1827 21.9349 18.6329C22.238 18.8578 21.7808 19.3681 22.3652 19.4042C22.7401 19.4274 22.6887 19.9323 22.9414 20.1327C23.2325 20.3639 23.3614 20.7296 23.6004 20.9785C23.8381 21.2262 23.8514 21.5837 24.1347 21.7887C24.4002 21.9805 24.5228 22.3003 24.7125 22.5571C25.1557 23.1585 25.5363 23.7951 25.8884 24.4471C26.3096 25.2278 26.2653 26.0301 25.8412 26.8072C25.7907 26.8996 25.7364 27.0263 25.6854 27.0743C25.4204 27.3262 25.6109 27.7963 25.3545 27.9475C24.7183 28.3232 24.184 28.9043 23.4583 29.0766C23.0954 29.1623 22.796 29.3164 22.4973 29.4908C22.2041 29.6627 21.8682 29.4469 21.5563 29.6979C21.3392 29.8723 20.9267 29.9174 20.6181 29.55" fill="black"/>
</svg>
