<svg width="32" height="29" viewBox="0 0 32 29" fill="none" xmlns="http://www.w3.org/2000/svg">
<path fill-rule="evenodd" clip-rule="evenodd" d="M13.258 4.12063C13.0596 4.12063 12.9697 4.14797 12.9113 4.11649C12.0622 3.66004 11.334 3.85099 10.6456 4.4756C10.2157 4.86578 9.76713 5.29075 9.28914 5.5633C8.28139 6.13738 7.77938 7.13063 7.08807 7.9433C6.27914 8.89472 5.78293 10.0814 5.22417 11.2167C4.40902 12.8756 4.05943 14.6194 3.90204 16.422C3.80056 17.5876 4.03955 18.7175 4.31417 19.8516C4.40446 20.2252 4.69233 20.5619 4.59997 20.9799C5.07298 21.1654 4.51423 21.749 5.02162 21.9947C5.33766 22.1471 5.53275 22.5497 5.7821 22.8396C5.83014 22.8951 5.896 22.9419 5.92582 23.0057C6.3479 23.9103 7.17298 24.3896 7.95582 24.9007C8.76227 25.4276 9.71245 25.7113 10.6262 25.7693C12.0146 25.8567 13.4407 26.005 14.8154 25.5796C15.549 25.3522 16.3322 25.2764 17.0161 24.9032C18.3473 24.1767 19.698 23.5318 20.9067 22.5426C22.4549 21.2752 23.7091 19.8284 24.6651 18.1107C25.1013 17.3262 25.443 16.4721 25.7031 15.6118C25.9686 14.7345 26.1496 13.8183 26.2453 12.9063C26.3795 11.633 26.1533 10.3726 25.7975 9.15069C25.6145 8.52069 25.3987 7.8617 25.0284 7.33442C24.6022 6.72844 24.0571 6.14856 23.4395 5.7501C22.7494 5.30442 22.0693 4.71501 21.1456 4.76596C20.9489 4.25649 20.6341 4.85294 20.3529 4.67359C19.8227 4.33519 19.2068 4.18235 18.6054 3.99099C18.2322 3.87211 17.883 3.97111 17.5309 3.87004C16.6768 3.62566 16.6748 3.64264 15.7776 3.86134C15.7142 3.87667 15.6161 3.74868 15.5291 3.68407C15.3816 3.82199 15.2259 3.96738 15.0693 4.11442C14.7628 3.70312 14.4464 3.9301 14.1353 4.0817C13.999 3.94501 13.8661 3.81205 13.729 3.67537C13.5703 3.82531 13.4113 3.97566 13.258 4.12063M15.3199 28.9727C14.7496 28.9727 14.3337 28.9971 13.9216 28.9681C12.6363 28.8783 11.3688 28.7308 10.1192 28.346C9.45565 28.1418 8.71754 28.0917 8.07801 27.8158C7.40991 27.5276 6.69707 27.3296 6.11139 26.8176C5.57707 26.3504 4.96943 25.947 4.38168 25.546C3.45677 24.9139 2.75014 24.1427 2.256 23.1544C1.66162 22.8715 1.67156 22.1844 1.31742 21.7296C0.982748 21.2988 0.858902 20.7144 0.621979 20.2206C0.4447 19.8516 0.742925 19.3616 0.279848 19.1176C0.369316 18.6326 0.112097 18.1977 0.0727478 17.7416C0.005233 16.9571 -0.0515126 16.1449 0.0764756 15.3761C0.329967 13.8548 0.672097 12.3566 1.25322 10.9011C1.82109 9.47833 2.7373 8.28046 3.45636 6.95998C3.62908 6.64312 3.93062 6.34282 4.24707 6.173C4.5805 5.99324 4.41689 5.39306 4.94044 5.44732C5.48429 4.6272 6.29571 4.10986 7.06653 3.54158C8.03701 2.82625 9.11559 2.33584 10.2472 1.95022C10.7177 1.78992 11.2421 1.70584 11.7006 1.68223C12.5116 1.6404 13.2646 1.45773 13.9899 1.17028C15.0051 0.768089 16.0419 1.05637 17.0629 0.957793C17.3913 1.30986 17.8333 1.22412 18.2081 1.16282C18.6186 1.09614 18.8733 1.40057 19.2457 1.42708C20.5202 1.51821 21.6907 2.03306 22.8849 2.44063C24.1888 2.88549 25.3606 3.58797 26.4971 4.34886C28.178 5.47383 29.5171 6.90406 30.3446 8.7717C30.6582 9.47915 30.8462 10.221 31.0417 10.9728C31.3586 12.1947 31.2364 13.4074 31.2025 14.6136C31.1726 15.6611 30.8288 16.6867 30.4428 17.675C30.1512 18.4197 29.8592 19.1644 29.5622 19.9071C29.5365 19.9717 29.4297 20.021 29.4309 20.0761C29.4491 21.1721 28.6936 21.8319 28.0487 22.5551C27.9025 22.7191 27.7041 22.8641 27.6262 23.0571C27.1035 24.3548 25.9367 25.01 24.9161 25.8061C23.8574 26.6321 22.6471 27.2136 21.4435 27.7802C20.3972 28.2727 19.2594 28.5154 18.1253 28.7772C17.13 29.0071 16.15 28.9193 15.3199 28.9727" fill="black"/>
</svg>
