<svg width="31" height="29" viewBox="0 0 31 29" fill="none" xmlns="http://www.w3.org/2000/svg">
<path fill-rule="evenodd" clip-rule="evenodd" d="M15.8224 12.3367C15.3221 12.6515 14.7729 12.8545 14.2282 13.0777C13.9246 13.2016 13.6036 13.0309 13.3675 13.1717C13.0075 13.3863 12.5039 13.231 12.2669 13.4824C11.924 13.8469 11.5603 13.8224 11.1569 13.8378C10.9813 13.844 10.8164 13.8237 10.6292 13.9252C10.0071 14.2623 9.84469 14.8414 9.72209 15.4573C9.66576 15.7406 9.79043 16.0268 9.62724 16.3226C9.47854 16.5922 9.88984 16.8971 9.71546 17.1841C9.1915 18.046 9.81197 19.0832 9.27019 19.934C9.87907 20.3631 9.05688 20.9811 9.47854 21.474C9.62517 21.6459 9.10659 21.8853 9.27889 22.1487C9.60321 22.6453 9.43008 23.2091 9.54108 23.8213C10.0824 23.6825 10.5898 23.569 11.0861 23.4182C11.3163 23.3487 11.5152 23.1536 11.745 23.1121C11.9658 23.0724 12.1829 23.0873 12.3241 22.8748C12.6004 23.2766 12.7072 22.8645 12.8833 22.7626C13.0949 22.6408 13.3124 22.5285 13.5311 22.42C14.4974 21.94 15.518 21.5585 16.4359 20.9956C17.6897 20.2272 18.9774 19.4966 19.9843 18.3803C20.5124 17.7946 21.0874 17.25 21.6565 16.7024C22.3639 16.0214 22.834 15.1785 23.3327 14.3497C24.4739 12.4531 24.7497 10.3154 25.0778 8.19179C25.1014 8.03812 25.1871 7.80617 24.915 7.73368C24.8442 7.74735 24.7592 7.74031 24.7075 7.778C23.5655 8.61013 22.412 9.40291 21.1321 10.0379C20.1413 10.5291 19.0221 10.7884 18.1983 11.565C17.7634 11.3231 17.7543 11.3165 17.635 11.4756C17.5981 11.5245 17.625 11.6205 17.6226 11.6947C17.1491 11.6607 16.7722 12.3015 16.2383 11.884C16.0515 11.7378 15.8336 11.7622 15.6282 11.8753C15.6514 12.0497 15.9111 12.1197 15.8224 12.3367M25.5992 21.5104C26.6509 20.687 27.377 19.6196 28.1226 18.5717C28.5633 18.9337 27.8231 19.0704 28.0219 19.3694C26.9616 20.5346 26.0412 21.8252 24.7021 22.7356C24.2966 23.0119 23.8604 23.301 23.4947 23.6605C23.2288 23.9219 22.9575 23.8188 22.7272 23.5632C22.4654 23.6999 22.6862 23.9687 22.5665 24.1456C22.2206 24.3084 21.8313 24.4003 21.56 24.7027C21.3458 24.9417 20.8844 24.6041 20.7614 25.0485C20.3376 25.0212 20.1782 25.4379 19.87 25.6118C19.5532 25.7908 19.1667 25.7142 18.8892 25.995C18.7322 26.1536 18.5595 25.9614 18.4369 25.8214C17.8313 26.3843 17.1885 26.7737 16.3435 26.2973C16.2594 26.5351 16.1936 26.7861 16.0126 26.8868C15.5039 27.0669 14.9696 26.6987 14.5815 27.161C14.3512 26.9969 14.2021 26.7724 14.1748 26.4576C13.9449 26.6242 14.0994 26.9974 13.7332 26.9414C13.5907 26.9199 13.4652 26.9555 13.3261 27.0483C12.6861 27.4741 12.6791 27.4637 12.0801 26.9493C11.8962 27.0955 12.0176 27.2997 11.96 27.5607C10.9378 27.5023 10.3562 28.1923 9.88404 28.9917C9.6757 28.8869 9.76144 28.701 9.67611 28.5862C9.05937 28.5477 8.8009 28.0337 8.43848 27.653C8.27487 27.8113 8.43434 28.0159 8.32333 28.2081C8.20611 28.2673 8.04209 28.3331 7.89712 28.428C7.52931 28.6695 7.18801 28.5137 7.06954 28.2047C6.9399 27.8672 6.71209 27.6572 6.48221 27.4335C6.04315 27.0056 5.7909 26.5136 5.89363 25.8952C5.45292 25.8202 5.24913 25.4934 4.98073 25.2465V24.4629C5.17789 24.3042 5.43883 24.0938 5.69647 23.8859C5.10209 22.4498 4.51268 21.078 3.86653 19.726C3.41629 18.7846 3.02197 17.8191 2.52203 16.8966C1.8357 15.6313 1.16593 14.3592 0.354928 13.168C0.0567036 12.7298 -0.0667283 12.2563 0.0351651 11.6628C0.653982 10.9897 1.39747 10.5565 2.36173 11.1235C2.63676 11.2855 2.72789 10.7151 3.00375 11.051C3.15286 11.2324 3.42872 11.1181 3.64451 11.1152C3.88931 11.1119 4.14777 11.2043 4.37641 10.9611C4.47002 10.8617 4.73138 10.8733 4.9041 10.904C5.72546 11.0473 6.52901 10.7938 7.28203 10.6161C7.97623 10.4525 8.77729 10.5184 9.39363 10.0035C9.55102 9.87179 9.70842 10.1029 9.84428 10.2077C10.0725 10.0304 10.2548 9.85191 10.5613 9.73966C12.095 9.17966 13.6417 8.65197 15.1361 7.97847C15.9036 7.6322 16.6123 7.18818 17.3682 6.82989C18.137 6.46581 18.8146 5.92279 19.549 5.54297C20.7531 4.92001 21.6465 3.9367 22.745 3.22055C23.5792 2.6767 24.1206 1.81557 25.0119 1.35167C25.4319 1.13339 25.8117 0.862084 26.3597 0.97516C26.4724 1.79694 27.1351 1.62836 27.6823 1.63291C27.8082 1.75841 27.8956 1.9125 28.024 1.96386C28.9303 2.32504 29.3834 3.12694 29.9111 3.85883C29.974 3.94623 30.0718 4.00214 30.0577 4.13841C29.9815 4.87445 30.3356 5.5525 30.3021 6.30303C30.2333 7.8422 30.3095 9.388 30.2731 10.9297C30.242 12.2559 29.9811 13.5598 29.5921 14.8219C29.0806 16.4824 28.1992 17.9545 27.1629 19.3504C26.6977 19.9771 26.1729 20.5321 25.6303 21.0797C25.5011 21.2101 25.5226 21.3315 25.5992 21.5104" fill="black"/>
</svg>
