<svg width="41" height="56" viewBox="0 0 41 56" fill="none" xmlns="http://www.w3.org/2000/svg">
<path fill-rule="evenodd" clip-rule="evenodd" d="M37.468 43.8046C37.4042 43.5101 36.997 43.4682 37.0782 43.1352C37.1764 42.7297 36.8666 42.4655 36.7738 42.1275C36.6723 41.7588 36.519 41.4051 36.3948 41.0423C35.9951 39.8738 36.1036 38.5794 35.5084 37.4565C35.4612 37.3683 35.4964 37.237 35.4906 37.126C35.433 36.1203 34.9571 35.178 35.0391 34.1512C34.5566 33.0531 34.7409 31.8288 34.3818 30.6992C34.2455 30.2705 34.3271 29.7888 34.1631 29.3216C34.0036 28.8643 34.1581 28.3424 33.9386 27.8317C33.7178 27.3194 33.9792 26.715 33.7277 26.1124C33.5074 25.5843 33.6192 24.9141 33.4904 24.2982C33.3367 23.5617 33.4685 22.7855 33.2593 22.0197C33.0915 21.4054 33.2622 20.7344 33.0369 20.0775C32.8753 19.6061 32.9457 19.0254 33.0219 18.5097C33.1019 17.9683 32.6935 17.5463 32.7718 17.019C32.8157 16.7245 32.7796 16.418 32.7796 16.1169C32.7796 15.7781 32.7473 15.4351 32.7892 15.1017C32.826 14.8117 32.563 14.4369 32.6566 14.3482C33.0659 13.9585 32.4922 13.7795 32.5311 13.4589C32.6077 12.8281 32.435 12.1521 32.5858 11.5499C32.7482 10.9017 32.0461 10.3835 32.447 9.7651C32.2776 9.17983 32.3344 8.57965 32.3286 7.98362C32.324 7.56941 32.3315 7.15521 32.3265 6.74143C32.3215 6.32474 32.2996 5.90723 32.4744 5.51249C32.1157 5.18983 32.5059 4.7106 32.2412 4.36723C32.0581 4.4335 31.9587 4.75533 31.687 4.50557C31.3846 4.22805 31.0963 4.29101 30.837 4.59338C30.7438 4.7019 30.6527 4.83527 30.4787 4.80089C30.1913 4.83693 30.3706 3.99859 29.8475 4.46912C30.0894 4.65468 30.1097 4.95249 30.2576 5.17989C30.188 5.20515 30.1201 5.22421 30.0571 5.25362C29.2668 5.62433 28.6124 5.75149 27.7214 5.70468C27.1941 6.22492 27.1941 6.22492 27.0753 6.77788C26.8321 6.90379 26.4941 6.73149 26.304 7.02391C26.2783 6.99657 26.2531 6.96965 26.2257 6.94066V6.43202C25.9888 7.00693 25.6355 6.73439 25.3596 6.90048C25.3393 7.07403 25.3182 7.25172 25.2971 7.43024C25.1132 7.53711 24.916 7.60421 24.7342 7.72267C24.4182 7.92853 24.0441 8.04823 23.6871 8.18533C23.5454 8.24001 23.4924 7.83823 23.2675 8.09089C23.1279 8.24829 22.8931 8.25409 22.7158 8.40072C22.3115 8.73498 21.7789 8.87332 21.3328 9.12557C20.9235 9.35711 20.4766 9.19184 20.1051 9.44823C19.1764 10.0894 18.073 10.2874 17.052 10.7016C16.9774 10.4904 16.9311 10.3591 16.8859 10.2311C16.4945 10.3968 16.5417 10.8743 16.2253 11.0756C15.5928 11.139 15.2672 11.2512 14.7172 11.5731C14.6782 11.5955 14.5892 11.5329 14.5233 11.5101C14.3406 11.2728 14.6621 11.1589 14.6563 10.9456C14.52 10.8839 14.3879 10.8586 14.2702 10.9953C14.257 11.2504 14.2441 11.5035 14.2288 11.7943H13.045C12.7745 11.972 12.6954 12.2971 12.3305 12.2532C12.2295 12.2615 12.227 11.9836 12.0385 12.0912C12.0099 12.2027 12.0166 12.3443 11.9507 12.3982C11.8061 12.517 9.09976 13.3624 8.96597 13.3624C8.93987 13.362 8.91336 13.3405 8.88644 13.3285C8.84088 13.1976 8.79449 13.0667 8.74644 12.9292C8.44863 13.0932 8.7597 13.4552 8.48715 13.6076C8.30987 13.4072 8.34425 13.0485 8.00626 12.9656C7.91431 13.1181 7.67905 13.1707 7.70265 13.4465C7.75567 13.5277 7.82816 13.6395 7.90354 13.7543C7.53035 13.9808 7.16626 13.6689 6.82828 13.7232C6.42981 13.787 6.01313 13.9191 5.71946 14.1391C5.59851 14.3478 5.76585 14.5545 5.59106 14.7102C5.41875 14.6846 5.34792 14.4265 4.98881 14.5752C4.98508 14.5794 4.8778 14.6887 4.8078 14.8183C4.73407 14.9546 5.05632 15.0822 4.93041 15.1145C4.56052 15.2089 4.62597 15.4939 4.50129 15.7213C4.34307 16.0096 4.26561 16.2776 4.32857 16.5476C4.39691 16.8405 4.04277 17.0385 4.27887 17.4026C4.45076 17.6668 4.35425 18.139 4.30496 18.5089C4.16123 19.5891 4.48597 20.6317 4.5862 21.6862C4.64005 22.2504 4.76845 22.8261 4.7581 23.4039C4.74691 24.0546 4.78834 24.0356 4.95981 24.6005C5.02816 24.825 5.36987 24.9667 5.19052 25.2778C4.94283 25.7077 5.36118 26.1343 5.21662 26.5688C5.86319 27.7145 5.75052 29.0524 6.15147 30.249C6.33289 30.7916 6.17964 31.3615 6.40786 31.8329C6.78934 32.6203 6.73508 33.5021 7.04573 34.2804C7.2607 34.8193 7.08425 35.4025 7.29135 35.8714C7.75484 36.921 7.63431 38.1076 8.15372 39.1282C8.03443 39.7611 8.39396 40.3244 8.40887 40.9536C8.42378 41.572 8.74644 42.1788 8.80319 42.8026C8.83177 43.1153 9.13496 43.2756 9.07076 43.6124C9.01733 43.8944 8.97922 44.2801 9.12585 44.476C9.34538 44.7684 9.28656 45.0459 9.27082 45.3222C9.25218 45.6362 9.58313 45.8018 9.51727 46.134C9.37851 46.8332 9.90703 47.4731 9.73473 48.1843C10.0918 48.637 9.82295 49.2082 9.98822 49.6618C10.1866 50.204 10.129 50.7354 10.1974 51.2705C10.2769 51.8918 10.3784 52.533 11.0072 52.9025C11.1538 52.6283 11.4056 52.6705 11.6135 52.7045C12.5832 52.8615 13.506 52.5069 14.4537 52.4315C14.858 52.3992 15.2941 52.1814 15.7154 52.2609C16.224 52.3566 16.6092 51.9991 17.093 52.0066C17.7702 52.0178 18.4218 51.8119 19.0704 51.6168C19.5828 51.4627 20.1635 51.6968 20.6576 51.3513C20.7496 51.2871 20.7997 51.5986 20.9795 51.5128C21.0279 51.3724 21.0731 51.2411 21.1199 51.1049C21.2201 51.191 21.3539 51.3343 21.3742 51.3198C21.8596 50.9707 22.4374 50.9628 22.9846 50.8282C23.1843 50.7789 23.3081 50.5797 23.5417 50.7897C23.7409 50.9698 23.9232 50.6952 24.0694 50.6364C25.0863 50.2288 26.123 49.8979 27.2086 49.7782C27.5744 49.738 27.6937 49.475 27.9235 49.3101C27.9496 49.3358 27.9724 49.3681 28.0031 49.388C28.0751 49.4352 28.105 49.5823 28.2462 49.4452C28.503 49.1954 28.9421 49.3329 29.1864 48.9709C29.4002 48.6536 29.9378 49.062 30.1698 48.6424C31.4298 48.4266 32.5303 47.7933 33.6627 47.2636C34.994 46.6402 36.3579 46.0607 37.2758 45.3466C37.823 44.6831 37.0575 44.2792 37.468 43.8046M40.2216 41.1901C40.485 41.7572 40.9932 42.1941 40.5173 42.82C40.4254 42.9418 40.6105 42.9728 40.6478 43.0569C40.985 43.8203 40.8856 44.6313 40.9224 45.4303C40.9406 45.8325 40.6805 46.0881 40.5339 46.4024C40.425 46.6377 40.268 46.5685 40.1412 46.3908C40.005 46.607 39.6595 46.5002 39.5643 46.7441C39.5224 46.9471 39.6562 47.0333 39.7589 47.1372C39.7121 47.377 39.4508 47.2147 39.3369 47.3721C39.1484 47.6322 38.839 47.4226 38.6066 47.5071C38.0731 47.7014 37.3682 47.6256 37.178 48.3972C37.1515 48.5033 37.0177 48.6553 36.8144 48.6325C36.5112 48.6582 36.6996 48.3376 36.5617 48.2328C36.5116 48.1748 36.4308 48.1835 36.4097 48.2821C36.2469 49.0409 36.2506 49.0417 35.329 49.132C35.2822 49.2625 35.235 49.3934 35.1969 49.5007C34.8912 49.6846 34.8183 49.2857 34.5926 49.3089C33.3442 50.1302 33.029 50.5246 31.2011 50.5287C31.2765 50.6161 31.3436 50.694 31.4111 50.7718C31.2479 50.8675 31.1701 51.3157 30.8739 50.9052C30.6378 51.051 30.4125 51.2221 30.1619 51.3372C29.5919 51.5986 29.0096 51.7713 28.4678 51.3028C28.1841 51.5265 28.2396 51.9801 27.8291 52.0194C27.639 52.0575 27.593 51.8649 27.3988 51.7771C27.1606 51.9047 26.8081 51.9349 26.6739 52.328C26.5927 52.5662 26.3599 52.4605 26.1901 52.4676C26.0037 52.475 25.9449 52.1789 25.7063 52.2543C25.1877 52.6519 24.6857 53.163 23.9808 52.8362C23.7745 53.0429 23.5545 53.2624 23.335 53.4824C22.8318 53.4778 22.43 53.2579 22.0411 53.5648C21.7615 53.7856 21.228 53.4128 20.9169 53.8274C20.2803 53.6758 19.7219 54.119 19.0907 54.0589C18.2507 53.9786 17.4389 54.1202 16.6643 54.4636C16.6009 54.4918 16.5235 54.5104 16.456 54.5026C15.3807 54.3746 14.3556 54.8265 13.2737 54.7507C12.5194 54.6976 11.7457 54.6268 10.9885 54.935C10.6659 55.0663 10.0972 55.111 9.90123 54.923C9.55372 54.5895 9.11218 55.2991 8.90757 54.7312C8.53437 54.7225 8.12017 54.8091 7.80413 54.6711C7.60366 54.5837 7.25076 54.5866 7.17165 54.3046C7.05277 53.8783 6.61372 53.8108 6.3768 53.518C6.46378 53.3391 6.59632 53.1937 6.58307 52.9514C6.54952 52.3512 6.75952 51.6549 6.52052 51.1711C6.2662 50.6559 6.59715 50.052 6.13076 49.6278C6.05538 49.5595 6.10011 49.335 6.12331 49.1884C6.27035 48.2585 5.76958 47.3849 5.89384 46.4588C5.44526 45.0335 5.5223 43.4993 4.99047 42.091C5.08946 40.9528 4.56094 39.9069 4.49508 38.7807C4.46899 38.3429 4.45739 37.8115 4.27804 37.4201C4.06473 36.9545 4.27763 36.4049 4.01419 36.0706C3.67745 35.6427 4.14839 35.0662 3.6439 34.7456C3.72757 34.1172 3.56478 33.5117 3.39538 32.9276C3.1191 31.9729 3.32372 30.927 2.78567 30.0175C2.6523 29.793 2.69828 29.4289 2.74301 29.1418C2.79354 28.8146 2.4949 28.6518 2.48455 28.3312C2.44893 27.2539 2.0252 26.2221 2.05336 25.1307C1.5936 24.5985 2.01733 23.9059 1.7307 23.3447C1.43993 22.7768 1.62549 22.1733 1.62177 21.5918C1.61928 21.2078 1.31443 20.9419 1.3662 20.555C1.41094 20.2224 1.4068 19.8753 1.36579 19.5415C1.33265 19.2752 1.61348 19.0159 1.52112 18.8841C1.37076 18.6688 1.3894 18.4741 1.3749 18.2599C0.463661 17.8433 0.0834239 17.1006 0.0130097 16.1314C-0.0499489 15.2632 0.104548 14.4058 0.720051 13.8392C1.57952 13.0481 2.37147 12.1463 3.46579 11.6302C4.97887 10.9174 6.5197 10.2891 8.10567 9.74356C9.38597 9.30326 10.653 8.80705 11.9354 8.36427C14.3067 7.54622 16.6838 6.74474 19.0563 5.92959C20.7028 5.36338 22.3438 4.7806 23.9915 4.21728C24.5205 4.03669 25.068 3.91036 25.5978 3.73184C26.5219 3.4216 27.4319 3.06663 28.3609 2.77338C29.6276 2.37368 30.9025 1.99717 32.1844 1.64924C32.5406 1.55273 32.8405 1.42184 33.1276 1.18989C33.5579 0.842788 33.5745 0.863498 34.1312 1.29551C34.0595 1.37462 33.9883 1.45332 33.9058 1.54362C34.243 1.7474 34.3826 1.6335 34.3652 1.29344C34.5363 1.09628 34.7392 1.22882 34.9057 1.18533C35.0772 1.26403 35.0163 1.43965 35.066 1.55604C35.3141 1.73001 35.5863 1.5693 35.8385 1.66829C35.8886 1.95078 36.0671 2.13551 36.3869 2.18853V4.909C36.2494 5.05439 36.099 5.21344 35.9487 5.37249C36.5004 5.89397 36.8421 6.46723 36.4586 7.23764C36.7398 7.39794 36.3264 7.68249 36.5977 7.9132C36.7278 8.02379 36.6719 8.42723 36.6077 8.67409C36.5228 8.99924 36.966 9.15415 36.8202 9.47018C36.6234 9.61474 36.6222 9.31652 36.483 9.34592C36.1314 9.83178 36.746 9.6893 36.8438 9.88066C36.7713 9.9606 36.6996 10.0393 36.6321 10.113C36.703 10.1963 36.7684 10.2737 36.8326 10.3495C36.6868 10.4957 36.5538 10.6287 36.4201 10.7629C36.6437 11.2765 36.9448 11.7885 36.8347 12.3679C36.7315 12.9093 37.1143 13.3293 37.094 13.8578C37.0745 14.3486 36.8823 14.8917 37.2874 15.3535C37.3619 15.4384 37.289 15.6459 37.2998 15.7955C37.3251 16.1479 37.1246 16.4677 37.2725 16.8604C37.3967 17.1897 37.347 17.6113 37.2857 17.9775C37.2074 18.443 37.5777 18.7777 37.5483 19.2424C37.5222 19.6529 37.3147 20.1454 37.7472 20.5053C37.7658 20.5207 37.7546 20.5782 37.7492 20.6147C37.5885 21.692 38.0371 22.723 37.9886 23.7962C37.9696 24.2162 37.9021 24.6395 38.1725 25.0748C38.3548 25.3685 38.0164 25.8088 38.1721 26.2354C38.2533 26.4586 38.3842 26.6869 38.4148 26.923C38.4422 27.1305 38.5358 27.4068 38.3552 27.5629C38.0309 27.8425 38.648 27.9668 38.4277 28.2016C38.7433 28.593 38.4227 29.0814 38.6418 29.5076C38.8564 29.9239 38.8017 30.4312 38.9098 30.8682C39.1857 31.9795 39.1032 33.1484 39.5038 34.2311C39.2201 34.7733 39.6351 35.2791 39.5887 35.8308C39.5427 36.3804 39.6272 37.022 39.8911 37.4901C40.0824 37.8301 39.7287 38.0484 39.8906 38.2037C40.1176 38.422 39.8865 38.7153 40.1102 38.9153C40.3695 39.1469 40.186 39.4799 40.2336 39.7636C40.2626 39.9384 40.1914 40.1182 40.3496 40.283C40.6582 40.6044 40.3442 40.8733 40.2216 41.1901" fill="black"/>
</svg>
