<svg width="101" height="51" viewBox="0 0 101 51" fill="none" xmlns="http://www.w3.org/2000/svg">
<path fill-rule="evenodd" clip-rule="evenodd" d="M24.2089 25.9566C23.832 25.7193 23.7413 26.0643 23.5334 26.0888C23.2877 26.1182 23.0202 25.9786 22.8002 26.2242C22.2895 26.7929 21.5034 26.9118 20.9065 27.3885C20.3208 27.8561 19.5471 28.1051 18.9361 28.5777C18.6205 28.8217 18.3268 29.0718 17.9068 29.0896C17.7055 29.6227 17.1224 29.764 16.7939 30.1815C16.4484 30.6209 16.0061 30.9842 15.6159 31.3901C15.577 31.4299 15.6043 31.533 15.5993 31.6494C15.7497 31.7443 15.9013 31.8014 16.0558 31.6175C16.3639 31.2509 16.856 31.1321 17.1671 30.7502C17.4868 30.3575 17.9184 30.0788 18.3248 29.7685C19.6792 28.7351 21.0858 27.7994 22.5749 26.9681C23.1192 26.6641 23.733 26.4375 24.2089 25.9566M31.189 38.8424C31.73 38.4282 31.7258 37.7386 32.0572 37.2043C31.79 37.3472 31.539 37.5128 31.4069 37.7456C30.9401 38.5682 30.1916 39.1278 29.5604 39.7959C29.3405 40.0287 29.0141 40.1927 28.8177 40.3932C28.5862 40.6289 28.4354 41.0907 28.1335 41.1914C27.5963 41.3699 27.4016 41.8984 26.9431 42.1316C26.499 42.3573 26.1142 42.6829 25.7017 42.9563C24.9151 43.4765 24.2487 44.2067 23.2567 44.4014C23.0351 44.4449 22.8715 44.7593 22.647 44.8193C22.3666 44.8943 22.2982 45.053 22.0505 45.3657C22.8756 45.0501 23.5334 44.8889 24.0958 44.563C24.9793 44.051 25.8475 43.5038 26.7049 42.9422C28.1886 41.9705 29.4892 40.8244 30.7048 39.5577C30.9086 39.3453 31.1207 39.1597 31.4152 39.0864C31.3622 39.0288 31.3125 38.9754 31.189 38.8424M51.1564 3.7952C50.256 3.56863 49.5903 4.02508 48.8696 4.00064C48.6083 4.39869 48.1212 4.03254 47.7583 4.35893C47.528 4.56686 46.9664 4.4836 46.5704 4.49023C46.1554 4.49769 45.9483 4.86136 45.5709 4.85141C44.8465 4.83236 44.1879 5.16331 43.5124 5.34183C42.8505 5.51745 42.165 5.66573 41.513 5.95112C40.5587 6.36946 39.4789 6.44319 38.51 6.87396C37.9074 7.14153 37.2708 7.33289 36.6499 7.55946C36.0944 7.76242 35.5526 8.02212 34.981 8.1555C34.3825 8.2955 33.7803 8.36177 33.3553 8.88159C33.3073 8.94041 33.1445 8.91638 33.036 8.91266C32.8086 8.90479 32.5895 8.89899 32.4453 9.1268C32.3115 9.33763 32.1164 9.41467 31.8679 9.36786C31.6264 9.32272 31.4719 9.45236 31.2802 9.59319C30.9165 9.85993 30.5168 10.1722 30.0939 10.2447C29.2046 10.3984 28.5779 11.1626 27.6621 11.2007C27.4268 11.7499 26.7757 11.6012 26.3843 11.9682C26.0318 12.2979 25.3732 12.2801 24.9644 12.5754C24.1298 13.1785 22.9887 13.2179 22.3015 14.0682C22.2676 14.1101 22.1665 14.1001 22.0961 14.1109C21.2751 14.238 20.7673 15.0524 19.9137 15.1083C18.9129 15.8986 17.6724 16.2792 16.6439 17.0227C16.2177 16.9556 16.1469 17.5396 15.7124 17.5098C15.2253 17.4763 15.1023 18.0027 14.7709 18.221C14.7092 18.2616 14.6719 18.3399 14.6086 18.3767C13.4973 19.0291 12.4597 19.7714 11.4503 20.5853C10.247 21.5557 9.0678 22.5399 7.98963 23.6458C7.86578 23.7734 7.89022 23.9084 7.99957 24.0231C8.16856 24.0894 8.28993 24.0414 8.39762 23.9159C8.66271 23.6056 9.01312 23.3861 9.29851 23.087C9.60336 22.7669 10.0047 22.4773 10.3676 22.1774C11.1761 21.5093 11.949 20.7737 12.8412 20.2394C13.5979 19.7859 14.2896 19.2374 15.065 18.8129C15.7455 18.4397 16.4683 18.1174 17.0242 17.5459C17.9495 17.625 18.3297 16.5642 19.1905 16.5095C19.5318 15.9711 20.1444 15.9267 20.6522 15.6807C21.1256 15.4512 21.5195 15.0478 22.0008 14.8482C23.3842 14.2745 24.6008 13.3388 26.0807 12.9818C26.6622 12.2408 27.6576 12.2296 28.3692 11.6712C28.9565 11.2102 29.7683 11.0822 30.4547 10.7343C31.5084 10.1996 32.5803 9.68638 33.6858 9.27633C34.2371 9.07171 34.764 8.80248 35.3526 8.65212C36.082 8.46491 36.8089 8.16668 37.5048 7.86804C38.6318 7.38425 39.7812 7.00153 40.9501 6.64739C42.1865 6.27295 43.4237 5.89934 44.6572 5.51579C45.8 5.16082 46.9738 4.92721 48.1133 4.58881C49.0925 4.29804 50.1296 4.25496 51.1564 3.7952M46.5501 8.34686L46.7729 8.56928C46.6802 8.73124 46.4925 8.73745 46.3881 8.67988C45.8315 8.37171 45.3071 8.39076 44.786 8.76064C44.8357 8.86337 44.8854 8.96733 44.936 9.07171C44.786 9.17899 44.6543 9.17733 44.5383 9.04479C44.431 8.92218 44.3101 8.86585 44.1366 8.96195C44.0939 9.07088 44.0434 9.20011 43.9916 9.33141C43.8073 9.29911 43.6896 8.99094 43.4436 9.20053C43.3504 9.36248 43.6333 9.36993 43.5757 9.51863C43.5148 9.54266 43.4158 9.60851 43.3902 9.58698C42.7482 9.05307 42.1708 9.62591 41.59 9.73112C40.9973 9.83881 40.4208 10.1698 39.8119 10.0211C39.5029 9.94609 39.3061 10.4448 38.9508 10.0691C38.8091 9.91917 38.3758 10.0447 38.0813 10.0447L37.6767 10.4498C37.47 10.4489 37.1937 9.96017 37.0707 10.5169C36.9775 10.9377 36.6395 10.6453 36.4316 10.7691C35.8335 11.1245 35.0854 11.1609 34.5296 11.6253C34.4471 11.6944 34.3465 11.8224 34.2736 11.8104C33.6651 11.7069 33.282 12.1546 32.7941 12.4346C32.7804 12.5568 32.7605 12.7349 32.7319 12.9971C32.2117 12.9085 31.7892 13.1408 31.3365 13.3707C30.7446 13.671 30.11 14.0094 29.4088 13.8686C29.1122 13.8089 28.8857 14.2844 28.5589 13.9001C28.4375 13.7572 28.1703 13.9908 28.1302 14.1403C28.0254 14.5292 27.7106 14.7289 27.477 15.0126C27.3925 14.9356 27.3134 14.8635 27.2338 14.791C26.8958 15.2864 26.2393 15.2599 25.8235 15.6347C25.8222 15.636 25.7734 15.585 25.7468 15.5585C25.7199 15.5316 25.6934 15.5051 25.6632 15.4744C25.5074 15.6198 25.3517 15.7656 25.1922 15.9147C25.0112 15.5564 24.824 15.9495 24.6964 15.9035C24.1712 15.7159 24.0797 16.4333 23.6344 16.3774C23.6116 16.3745 23.5474 16.5128 23.5503 16.5149C23.7765 16.6673 23.6597 16.7696 23.5317 16.9262C23.3337 17.1681 23.2753 16.8073 23.1241 16.8645C22.8644 16.9627 21.6388 17.6888 21.4934 17.9435C21.411 18.0885 21.3716 18.1953 21.2026 18.1759C20.6998 18.1191 20.5026 18.8759 19.9161 18.6435C19.767 18.5847 19.6726 18.4964 19.5587 18.4095C19.2924 18.5698 19.5637 18.8974 19.3288 19.0987C19.0753 19.3157 18.7792 19.4342 18.4838 19.517C18.2589 19.5796 18.1135 19.5481 18.0609 19.8708C18.0046 20.217 17.5552 20.2589 17.2847 20.4063C17.0697 20.5235 16.8825 20.6022 16.6108 20.987C18.3061 20.3678 19.4651 19.23 20.9823 18.6953C21.1571 18.8605 20.9732 19.0055 20.8208 19.1795C20.6692 19.3534 20.4413 19.3791 20.2608 19.4748C19.666 19.7904 19.0024 19.9805 18.5555 20.5335C17.4835 20.8731 16.7139 21.7057 15.7783 22.2698C14.7892 22.8659 13.8067 23.5543 13.0868 24.4672C12.6279 25.0495 12.1366 25.5876 11.6176 26.1041C11.2585 26.4615 10.9081 26.8169 10.4608 27.1027C10.0639 27.3562 9.57561 27.6764 9.48034 28.2525C8.32803 29.4877 7.68561 31.0646 6.70354 32.4169C6.32413 32.9396 6.05075 33.5928 5.92028 34.2253C5.82294 34.6967 5.52223 35.0388 5.40294 35.4915C5.23975 36.1062 4.98543 36.6699 4.94567 37.3434C4.90797 37.9846 4.70833 38.625 4.75927 39.2848C4.7862 39.6327 4.57413 40.0084 4.6433 40.2797C4.88312 41.2216 5.22111 42.1428 5.57856 43.0499C5.96501 44.0299 6.83732 44.4698 7.75022 44.8343C7.81525 44.8599 7.91383 44.8102 7.97223 44.8417C8.37277 45.0592 8.76667 45.289 9.16223 45.5148C9.55158 45.1143 9.94093 45.7683 10.3303 45.5152C10.7528 45.8085 11.2751 45.6175 11.6976 45.7629C12.905 46.1779 14.1293 45.9331 15.3388 45.9389C16.0661 45.9422 16.8403 45.7708 17.5096 45.4833C18.1268 45.2178 18.7916 45.1685 19.4034 44.8678C19.9857 44.5816 20.6791 44.435 21.235 44.126C22.1532 43.6153 23.11 43.1762 24.0113 42.6373C24.6165 42.2757 25.2527 41.9464 25.7966 41.5066C26.3288 41.075 26.8644 40.6632 27.4529 40.3132C27.6095 40.2201 27.7342 40.0647 27.856 39.9227C28.5406 39.1253 29.42 38.5372 30.0993 37.7174C31.1236 36.4794 32.3832 34.741 32.7961 32.6095C32.9303 31.919 33.1519 31.2356 33.2145 30.5319C33.2981 29.595 32.8421 28.9703 32.0038 28.5487C31.7954 28.4443 31.5585 28.3333 31.3489 28.2041C31.2317 28.1316 30.9844 28.2819 30.7769 28.1308C30.6448 28.0343 30.5247 28.2264 30.4095 28.335C30.2538 28.1904 30.0972 28.045 29.9216 27.8822C29.8723 28.0239 29.8267 28.1552 29.7704 28.3155H28.3236C28.2805 28.1991 28.2329 28.0686 28.1712 27.9001C27.6799 28.1792 27.7147 28.9919 26.9977 29.0296C26.4315 29.0598 26.048 29.7441 25.4283 29.4314C25.1823 29.981 25.1823 29.981 24.6177 29.677C24.1924 29.8203 24.16 30.4515 23.6763 30.5472C23.2351 30.6342 22.987 31.026 22.5931 31.2037C22.1785 31.3909 21.8061 31.6842 21.4404 31.9638C20.8928 32.3825 20.3672 32.8295 19.8321 33.2648C19.6941 33.377 19.5947 33.5079 19.3851 33.5564C19.0045 33.6438 18.5903 34.2961 18.5352 34.7228C18.4586 35.318 18.3505 35.9078 18.0825 36.5055C18.1417 36.7834 18.4652 36.8957 18.6209 37.1276C19.9522 37.2614 21.2188 37.116 22.3831 36.4082C22.1996 36.1041 22.0422 36.0478 21.7158 36.228C21.4955 36.3498 21.2702 35.8105 20.9061 36.1C20.6199 35.3457 20.2367 34.6876 20.3631 33.8778C21.1161 33.0734 21.8799 32.2628 23.004 31.8809C23.7053 31.6432 24.7594 31.4154 25.3343 31.4999C25.5294 31.5289 25.6048 31.7041 25.799 31.7538C26.1225 31.8362 26.0376 32.5167 26.516 32.395C26.9924 32.274 26.7894 33.0142 27.2177 32.8634C27.4364 33.1708 27.8402 33.2375 28.0796 33.4963C28.3948 33.8372 28.6504 34.2344 28.9312 34.6076C28.6483 35.0409 29.4631 35.4592 28.9486 35.8958C29.5057 36.2545 28.737 36.6144 28.9408 36.9379C29.188 37.3306 28.1554 36.9118 28.633 37.4772C28.7444 37.6098 28.2515 37.8889 28.1554 38.2273C28.097 38.4348 27.7831 38.6179 27.5089 38.7666C26.9745 39.0561 26.615 39.6017 26.0778 39.9421C25.8276 40.0999 25.4929 39.955 25.3898 40.1641C25.2747 40.3973 25.1541 40.6003 24.9723 40.7817C24.8356 40.918 24.6803 40.9553 24.4993 41.0116C23.6361 41.28 22.7787 41.5281 21.8583 41.4511C21.0974 41.3869 20.3266 41.5666 19.5719 41.2419C19.2468 41.1023 18.9419 40.949 18.6321 40.7817C17.713 40.2847 16.709 39.979 15.7932 39.4463C15.164 39.081 14.7887 38.5985 14.476 38.0107C14.2308 37.5497 13.9831 37.0899 13.7669 36.6115C13.6576 36.3701 13.5627 36.1638 13.5664 35.902C13.5731 35.4128 13.6199 34.9166 13.5573 34.4353C13.4355 33.4967 13.7735 32.641 14.09 31.8254C14.341 31.1805 14.8807 30.6367 15.3384 30.0866C16.2571 28.9824 17.4989 28.2571 18.6624 27.4705C20.1398 26.4723 21.6993 25.5818 23.3192 24.8205C23.9782 24.5106 24.684 24.299 25.3757 24.0633C25.4358 24.0426 25.548 24.1776 25.6876 24.2766C25.7647 24.1395 25.8537 23.9809 25.9407 23.826C27.1075 23.826 28.1927 23.7717 29.2692 23.8471C29.8889 23.891 30.5611 24.0327 31.0818 24.3446C31.4367 24.557 31.7934 24.3665 32.111 24.6134C32.8417 25.1812 33.6237 25.6824 34.3751 26.2246C34.817 26.544 35.2532 26.8662 35.65 27.251C36.3616 27.9415 36.8474 28.8009 37.4617 29.5622C37.6663 29.8153 37.8813 30.2022 37.7297 30.5638C37.5719 30.9399 38.1414 31.2708 37.745 31.6233C38.1253 31.825 37.8192 32.3366 38.1745 32.5495C37.7065 32.7644 37.7065 32.7644 37.9339 33.1588C37.7761 33.4769 37.6241 33.783 37.4924 34.0476C37.6087 34.304 37.9032 34.1234 37.9803 34.4043C37.5276 35.1502 37.5785 36.0905 37.2045 36.904C37.0264 36.9251 36.8487 36.9462 36.688 36.9653C36.4411 37.2548 36.7816 37.3563 36.8611 37.6143C36.2725 38.5193 35.7788 39.5259 35.0738 40.4354C34.2699 41.4734 33.2899 42.3213 32.4118 43.2756C31.9889 43.7354 31.4065 43.9938 30.9724 44.459C30.5955 44.8632 30.4513 45.4957 29.835 45.6714C29.9208 46.0972 29.485 45.9534 29.3197 46.103C29.0965 46.3047 28.7548 46.3204 28.6864 46.7429C28.6293 47.0954 28.1351 47.0482 27.9289 47.3083C27.7044 47.242 27.8879 46.9521 27.6886 46.8713C27.2661 46.8299 27.2003 47.2917 26.8784 47.4002C26.9754 47.5092 27.0462 47.5891 27.1382 47.6931C26.5798 48.0008 26.1097 48.4784 25.408 48.4531C25.3351 48.4506 25.225 48.4328 25.1939 48.4718C24.6343 49.168 23.7612 49.2182 23.0119 49.4808C22.3897 49.6986 21.8182 50.1306 21.1061 50.0644C20.6733 50.4707 20.0147 50.0627 19.5864 50.4856C19.0554 50.3282 18.6284 50.7834 18.0974 50.7242C17.5767 50.6662 17.0445 50.7118 16.5176 50.7118C16.1784 50.7118 15.84 50.7105 15.5012 50.7118C14.6964 50.7143 13.9347 50.3775 13.1067 50.4562C12.8035 50.4852 12.41 50.252 12.3483 49.8101C12.1648 49.9148 12.2273 50.0403 12.2091 50.1609C10.6409 49.9898 9.26123 49.2592 7.83596 48.6727C6.93052 48.3003 6.06732 47.8202 5.24389 47.3046C3.9172 46.4737 2.73383 45.4672 2.00194 44.0174C1.68673 43.3932 1.38064 42.7703 1.09111 42.1366C0.794541 41.4854 0.720813 40.7676 0.384068 40.1732C0.153772 39.7669 0.407677 39.3515 0.169512 39.0168C-0.0798376 38.6676 -0.0222636 38.3789 0.138032 38.0024C0.210517 37.833 -0.0421453 37.5174 0.0121151 37.2341C0.218801 36.1497 0.234541 35.0322 0.593239 33.9735C0.760991 33.4785 0.913003 32.9748 1.08655 32.4869C1.26383 31.9866 1.51939 31.5048 1.75466 31.0712C2.20531 30.2415 2.50933 29.2963 3.23584 28.6332C3.43466 28.4518 3.50714 28.195 3.60365 27.9903C4.08993 26.9602 4.79448 26.0718 5.40501 25.1278C6.15265 23.9714 7.21052 23.0647 8.18348 22.0963C10.0379 20.2502 12.2195 18.8195 14.3402 17.318C15.0178 16.8384 15.8218 16.5393 16.5574 16.1388C16.7475 16.0353 16.8987 15.8605 17.09 15.6993H18.2324C18.7029 14.9053 19.4754 14.4244 20.3063 14.0541C20.9827 13.753 21.5949 13.3492 22.2452 13.0079C22.8624 12.684 23.4874 12.3737 24.1203 12.0817C24.6579 11.834 25.0779 11.3337 25.7278 11.3279C25.8682 10.9816 26.1478 11.5428 26.1847 11.2968C26.2282 11.0019 26.4237 11.018 26.5769 10.895C26.755 10.7521 26.9625 10.6883 27.1448 10.6109C27.9525 10.2675 28.6699 9.71248 29.4784 9.43496C30.3171 9.14751 31.0304 8.60698 31.8646 8.37958C32.6785 8.15757 33.3205 7.45591 34.2388 7.55573C34.2624 7.55822 34.2902 7.50437 34.3192 7.48159C35.1389 6.83461 36.2249 6.83709 37.1187 6.31893C37.6315 6.02153 38.3162 5.96769 38.9139 5.75976C40.166 5.32485 41.4244 4.89988 42.6989 4.53786C43.7108 4.25041 44.7148 3.93396 45.7453 3.70076C46.874 3.44479 48.0267 3.27331 49.1215 2.86283C49.3853 2.76384 49.715 2.78662 50.0041 2.82556C50.3272 2.86905 50.5053 2.59485 50.8126 2.5613C51.3457 2.50289 51.8664 2.36662 52.416 2.34425C52.9102 2.32437 53.4217 2.20881 53.8947 2.09698C54.5512 1.94124 55.1899 1.9313 55.8435 1.90769C56.2722 1.89236 56.6429 1.60905 57.1077 1.67035C57.4916 1.7213 57.9191 1.79047 58.2592 1.46449C58.2985 1.4268 58.4054 1.46325 58.4799 1.45869C59.9168 1.37171 61.3441 1.12899 62.7918 1.22674C63.0726 1.24579 63.3687 1.30958 63.6156 1.02378C63.7875 0.82455 63.9147 1.19443 64.152 1.16254C64.7907 1.07597 65.4501 0.765734 66.078 1.21473C66.3721 0.904491 66.7544 1.01757 67.1061 1.01094C67.7837 0.998929 68.5094 0.855201 69.1257 1.04988C69.7561 1.24869 70.3534 1.20064 70.966 1.22674C71.6424 1.25573 72.3242 1.19278 72.9977 1.24662C73.4939 1.28638 73.9644 1.48147 74.4863 1.48064C74.9838 1.47982 75.5297 1.25491 75.9928 1.64053C76.3933 1.20313 76.7524 1.83023 77.1422 1.68526C77.5709 1.52621 77.8542 2.00212 78.2937 1.92757C78.7331 1.85301 79.207 1.84431 79.644 1.92425C80.7437 2.12638 81.874 2.13508 82.9534 2.39313C83.508 2.52567 84.0581 2.85082 84.4305 3.25881C84.8289 3.30437 84.6719 2.99869 84.8235 2.8355C85.0919 2.86283 85.3649 2.80733 85.712 2.95023C86.1511 3.13082 86.6452 3.25384 87.1588 3.30189C87.7648 3.3578 88.4722 3.35159 88.9167 3.94638C90.1647 3.85733 91.3008 4.30964 92.4187 4.75615C93.6779 5.25899 94.9089 5.83887 96.1267 6.43739C97.5553 7.13905 98.715 8.19982 99.7609 9.37988C100.215 9.89183 100.188 10.1466 99.7919 10.6896C99.1868 10.3922 98.6003 10.0873 98.1256 9.57041C97.8783 9.30159 97.4861 9.12887 97.1274 9.00627C95.5733 8.47402 94.0598 7.83615 92.425 7.51928C91.7254 7.38384 90.9802 7.25751 90.3022 6.93692C90.0541 6.81928 89.719 6.88514 89.3495 6.86278C89.1395 6.65402 88.884 6.39887 88.7009 6.21704C88.2117 6.16195 88.4685 6.61053 88.2125 6.65443C87.1219 6.17479 87.1219 6.17479 86.5996 6.3736C86.5541 6.2423 86.5077 6.11141 86.46 5.97638C86.2915 6.07289 86.2148 6.31603 85.9299 6.14662C85.9054 6.07704 85.8603 5.94573 85.8102 5.80118C85.456 6.05177 85.1512 5.89976 84.773 5.79828C84.4735 5.71751 84.073 6.11473 83.6563 5.92337C83.6311 5.81857 83.6058 5.71627 83.5685 5.5626C83.2251 5.75562 82.8934 5.89023 82.5624 5.51372C82.2708 5.18112 81.7932 5.26479 81.4855 5.0639C81.307 5.20721 81.3529 5.32029 81.36 5.42633C81.5062 5.68313 81.874 5.34928 82.0542 5.78585C81.1732 5.64005 80.3497 5.93621 79.5155 5.55514C79.2716 5.44372 79.1245 5.39775 79.016 5.14053C78.946 4.97402 78.7737 4.73917 78.4722 4.89118C78.4225 5.18029 78.8114 5.19769 78.8416 5.5481C77.9992 5.4284 77.1679 5.68354 76.3266 5.39278C76.1257 5.32319 75.7852 5.68147 75.5781 5.48721C75.3056 5.23124 75.026 5.31656 74.7431 5.30414C74.3674 5.28757 73.8874 5.44414 73.638 5.26603C73.2681 5.0026 73.0615 5.43337 72.7835 5.30206C72.7529 5.28757 72.7036 5.28798 72.6725 5.30206C72.3685 5.43958 72.2732 5.04112 71.9738 5.04816C71.6917 5.05479 71.3736 5.31201 71.2216 5.18609C70.9184 4.93384 70.6425 5.30662 70.5994 5.24573C70.3219 4.85431 70.1766 5.33106 69.9574 5.33189C69.4111 5.33272 69.1767 5.06017 69.0342 4.62692C68.4415 4.4865 68.2692 5.01958 67.9121 5.28177C67.8421 5.22047 67.7771 5.12272 67.6884 5.09206C67.3819 4.98644 67.2063 5.40851 66.8845 5.30289C66.6886 5.23911 66.5457 5.15005 66.2669 5.2623C65.8871 5.41556 65.3664 5.38988 65.2828 4.72798C65.2645 4.58591 65.0533 4.58384 64.91 4.67662C64.8122 4.84396 65.096 4.851 65.079 4.89573C64.9257 5.08958 64.8334 5.2068 64.6929 5.38449C64.3765 5.0465 63.9776 5.04899 63.5937 5.08047C63.4723 4.81952 63.4317 4.55195 63.1811 4.4194C62.9885 4.46704 63.0747 4.64597 63.0179 4.7665C62.7706 4.95993 62.4459 4.77603 62.1435 4.88207C62.2839 5.26106 62.6584 4.90526 62.7926 5.15958C62.6903 5.52946 62.2537 5.46236 62.0636 5.71834C61.6916 5.54313 61.3644 5.23993 60.9092 5.30124C60.524 5.35301 60.085 5.13017 59.7437 5.53443C59.6952 5.39526 59.6492 5.26437 59.6037 5.13349C59.5771 5.12065 59.5502 5.1078 59.5237 5.09496C59.4293 5.46236 58.9732 5.56425 58.8979 5.9507C58.6676 5.78544 58.7492 5.39153 58.3934 5.35053C58.3031 5.52366 58.0301 5.47396 57.8764 5.61769C57.6014 5.87449 57.3417 6.14745 57.0617 6.42745C56.6877 6.3823 56.259 6.57532 55.9044 6.22283C55.7702 6.28745 55.8547 6.47218 55.7727 6.58692C55.7193 6.671 55.66 6.66644 55.6141 6.56414C55.4898 6.28621 55.3722 6.00579 55.2645 5.75603C55.0831 5.74609 54.9754 5.75562 54.9547 5.80242C54.731 6.17769 55.3697 6.23609 55.0901 6.57118C54.8656 6.82053 54.7322 6.57366 54.5769 6.43242C54.415 6.51402 54.5011 6.70041 54.4063 6.82757C54.0989 6.98124 53.7386 6.8839 53.3832 7.05994C53.0717 7.21443 52.5233 7.26455 52.1219 6.92905C51.9865 6.81638 51.7156 6.80686 51.6071 6.9307C51.2053 7.39254 50.8818 6.89964 50.514 6.86112C50.4353 7.02846 50.3624 7.18254 50.2912 7.33414H49.797C49.6819 7.97698 49.2544 8.11863 48.6716 7.98278L48.2686 7.57976C47.9576 7.71023 48.2939 8.0797 47.9646 8.2636C47.5181 7.86638 47.0397 8.0184 46.5501 8.34686" fill="black"/>
</svg>
