<svg width="82" height="66" viewBox="0 0 82 66" fill="none" xmlns="http://www.w3.org/2000/svg">
<path fill-rule="evenodd" clip-rule="evenodd" d="M26.4562 34.9012C26.3145 35.5875 25.8494 36.2407 26.0035 36.9871C26.0366 37.1478 25.9442 37.2514 25.8589 37.3798C25.7587 37.5305 25.8001 38.8804 25.767 39.0697C25.6746 39.6003 26.2197 40.0779 25.9807 40.543C25.6961 41.096 25.89 41.5321 25.9728 42.0627C26.1754 43.3617 26.6115 44.5484 27.3633 45.8469C27.3231 45.383 27.3401 45.0806 27.5617 44.8516C27.3927 44.7538 27.2121 44.8267 27.1206 44.625C27.3393 43.681 26.8207 42.7959 26.7387 41.8428C26.6612 40.9539 26.4313 40.0737 26.4487 39.1592C26.4761 37.7405 26.4562 36.3207 26.4562 34.9012V34.9012ZM40.0913 54.2726C40.5109 54.5447 40.7958 54.922 41.1968 55.2033C42.1565 55.8759 43.2297 56.3013 44.2586 56.8224C44.696 57.0436 45.1864 56.9487 45.4283 56.5581C46.238 55.2497 47.1008 53.9685 47.5718 52.4791C47.7921 51.782 48.0514 51.0977 48.285 50.4043C48.5335 49.6679 48.6131 48.8892 48.7883 48.1358C48.9573 47.4072 48.8562 46.6264 49.0235 45.861C49.2538 44.8085 48.6715 43.7626 48.8231 42.6861C48.4113 42.3469 48.6843 41.854 48.5451 41.4468C48.2403 40.5555 47.9677 39.6529 47.6948 38.7508C47.2255 37.1963 46.4439 35.7694 45.5442 34.4601C44.8484 33.4474 44.0713 32.4454 43.0706 31.6336C42.3669 31.0624 41.6636 30.5132 40.8658 30.1105C39.53 29.4354 38.1537 28.8522 36.5979 28.9674C36.373 28.9839 36.1452 28.9856 35.9211 28.9669C34.3314 28.8352 33.5726 29.7411 32.762 30.8731C32.3453 31.455 32.221 32.1985 31.6681 32.6873C31.746 32.8567 32.0906 32.9793 31.7957 33.2245C31.6176 33.3724 31.6399 33.5534 31.6565 33.7319C31.6884 34.0782 31.2419 33.8081 31.227 34.0753C31.6449 34.48 31.4461 34.7798 31.0791 35.0507C30.9954 34.9824 30.9196 34.9203 30.7796 34.8059C30.6889 35.5826 30.725 36.2991 30.5589 37.0169C30.3195 38.0553 30.6831 39.1331 30.8268 40.1711C30.9615 41.1486 31.1599 42.1783 31.6399 43.0949C31.6565 43.1264 31.5061 43.2457 31.4287 43.3289C32.1548 43.8318 32.3801 44.6805 32.7471 45.3867C33.4226 46.6861 34.0746 47.9784 35.1155 49.0271C35.2754 49.1878 35.195 49.4036 35.2824 49.5208C35.4879 49.7971 35.4431 50.1347 35.5798 50.4242H36.0093C36.2765 50.5249 36.1439 50.8165 36.3411 50.9813C36.5072 51.1201 36.7495 51.0741 36.8941 51.3947C37.1111 51.8756 37.5953 52.2649 38.0319 52.6095C38.456 52.9442 38.5554 53.6355 39.2708 53.667C39.516 53.6778 39.5093 54.0816 39.6705 54.2726H40.0913ZM40.9963 63.3299C40.6641 63.981 39.9563 63.7416 39.4426 63.9454C39.0823 64.0875 38.5997 64.4213 38.2121 64.1902C37.7962 63.9429 37.5075 64.3211 37.1376 64.2341C36.8816 64.1736 36.5515 64.1028 36.3055 64.3965C36.24 64.4747 35.987 64.4909 35.888 64.4284C35.6274 64.2643 35.4042 64.0469 35.161 64.4337C34.5704 64.0634 33.8853 64.3029 33.2578 64.1359C32.5358 63.9442 31.8085 63.7511 31.0547 63.7292C30.8401 63.515 30.6268 63.3021 30.4143 63.0892C30.1944 63.3531 29.9504 63.3924 29.6406 63.2247C28.5065 62.6092 27.2254 62.248 26.194 61.4776C25.4157 60.8965 24.5318 60.4649 23.8509 59.7234C23.1343 58.9431 22.2413 58.3346 21.4941 57.57C20.4138 56.4645 19.503 55.2161 18.4646 54.0766C18.3466 53.4781 17.8296 53.1488 17.5244 52.6775C17.1942 52.1684 16.7606 51.7422 16.4653 51.1988C16.179 50.6719 15.8841 50.1334 15.448 49.6948C15.2732 49.5188 15.4227 49.3614 15.6116 49.1978C15.3171 48.8175 14.818 48.6543 14.6593 48.0778C14.5322 47.6168 14.055 47.2324 13.7705 46.7647C12.9309 45.3838 12.1468 43.9776 11.4385 42.5275C11.1792 41.996 11.0363 41.388 10.6942 40.9229C10.3458 40.4498 10.3073 39.8741 9.98052 39.3994C9.64874 38.9177 9.41513 38.3565 9.20638 37.8047C8.57803 36.1442 7.78484 34.5562 7.15649 32.8907C6.49294 31.1316 5.78342 29.3923 5.19898 27.6013C4.99519 26.9763 4.70774 26.379 4.5172 25.7366C4.28856 24.9658 4.10259 24.1796 3.83626 23.4224C3.57987 22.6934 3.22365 22.0055 3.16359 21.209C3.14993 21.0379 2.88235 20.8569 2.96768 20.6262C3.04265 20.424 2.57129 20.3764 2.87697 20.0852C3.02194 19.9477 2.63383 19.8069 2.54271 19.6275C2.40809 19.3645 2.48389 19.0708 2.41099 18.783C2.05726 17.3834 1.58342 16.0178 1.33655 14.5817C1.19738 13.7716 1.09756 12.922 0.737618 12.1276C0.530103 11.6695 0.781109 11.0432 0.474186 10.5433C0.620399 9.68877 0.107618 8.89433 0.245547 8.03859C0.283654 7.80291 -0.0667605 7.61031 0.220695 7.29717C0.329216 7.17913 -0.0651037 6.84901 0.0094525 6.50936C0.0728253 6.22232 0.0227069 5.9096 0.0227069 5.60848C0.0227069 5.30735 0.033062 5.00581 0.0206359 4.7051C-0.0116718 3.92226 0.225665 3.2641 0.670518 2.59351C1.06939 1.99291 1.48442 1.46274 2.0672 1.05019C2.27638 0.902323 2.47229 0.940429 2.67815 1.01043C2.94448 1.42007 2.52324 1.67688 2.45365 2.0099C2.39815 2.27416 2.07963 2.4241 2.17945 2.80433C2.242 3.04416 1.9446 3.30966 2.26726 3.6112C2.57626 3.90031 1.89075 4.14428 2.11028 4.52948C2.19726 4.54771 2.3004 4.56883 2.41886 4.59368C2.43212 4.60652 2.48348 4.6351 2.48141 4.65954C2.42466 5.39558 2.63797 6.09889 2.73448 6.81587C2.76016 7.00226 2.58123 7.05072 2.50294 7.19528C2.6359 7.24126 2.7672 7.28682 2.89809 7.33197C2.99999 7.5867 3.02525 7.82777 2.77342 8.0299C2.79703 8.0796 2.80697 8.15291 2.84797 8.18025C3.17105 8.39522 3.11389 8.74025 3.20336 9.05422C3.67596 10.7073 3.85158 12.4399 4.54123 14.0333C4.54413 15.0158 5.083 15.8442 5.33525 16.7559C5.49265 17.3246 5.67862 17.9032 5.82732 18.4628C5.98099 19.0402 6.53146 19.5078 6.34839 20.1751C6.87608 21.0163 6.97425 22.0249 7.40667 22.8993C7.71774 23.5289 7.82584 24.2223 8.11288 24.868C8.38916 25.4897 8.59667 26.1802 8.86135 26.8156C9.26146 27.7774 9.55762 28.7818 10.0845 29.703C10.369 30.2017 10.6184 30.7662 10.8139 31.315C11.7218 33.8566 13.0158 36.2084 14.2547 38.5892C14.625 39.3004 15.1522 39.9458 15.2931 40.7539C15.3664 41.1751 15.7971 41.3296 15.8696 41.7691C15.9206 42.0764 16.3373 42.3063 16.4739 42.6215C16.6305 42.9835 16.8302 43.3024 17.0331 43.635C17.3583 44.1685 17.7663 44.6991 17.6466 45.3606C17.8371 45.5205 17.8429 45.3117 17.9332 45.296C18.6158 45.955 18.646 46.0569 18.354 46.7403C18.458 46.8393 18.5624 46.9391 18.6618 47.034C18.7483 46.9611 18.8254 46.8956 18.8887 46.8422C19.6045 47.403 20.0642 48.0711 19.8936 48.9948C20.1487 49.0909 20.1947 48.7546 20.4449 48.8743C20.9767 49.6095 21.4709 50.4441 22.1174 51.1358C22.5987 51.6507 23.0871 52.1697 23.5978 52.6621C24.1396 53.1853 24.6652 53.725 25.1974 54.2576C25.7301 54.7903 26.2097 55.3926 26.8066 55.8399C27.8844 56.6476 28.9501 57.4665 30.1244 58.1603C31.0708 58.719 32.055 59.1568 33.0437 59.588C33.7113 59.8792 34.4594 60.0233 35.1867 60.1244C35.5483 60.1745 35.8842 60.2424 36.2226 60.3655C36.3477 60.4106 36.5213 60.4123 36.6236 60.2553C36.6787 59.9815 36.4699 59.7943 36.2968 59.728C35.2841 59.3407 34.5704 58.5575 33.7958 57.8674C33.0379 57.1923 32.3337 56.4537 31.6341 55.7169C30.4918 54.5149 29.5209 53.1894 28.6995 51.7405C28.1805 50.8252 27.5944 49.9529 27.1177 49.006C26.3763 47.5343 25.7583 46.0225 25.3474 44.4316C25.2906 44.21 25.0305 44.0803 25.108 43.8554C25.2206 43.5303 24.6673 43.2991 24.9253 43.0759C25.2799 42.7694 24.7613 42.6791 24.8566 42.4322C24.9419 42.2098 24.893 41.948 24.6681 41.7256C24.5248 41.5839 24.7497 41.4083 24.8797 41.265C24.3881 41.0417 24.4755 40.5294 24.451 40.1744C24.3744 39.0503 24.309 37.9017 24.461 36.7929C24.5703 35.9914 24.6395 35.1613 24.8818 34.3789C25.1187 33.6143 25.4588 32.8803 25.6692 32.1099C25.8146 31.5768 26.1845 31.1916 26.3949 30.7136C26.5991 30.2497 26.9653 29.8716 27.1608 29.4474C27.447 28.8257 28.0534 28.5921 28.4154 28.0768C28.7509 27.5997 29.3796 27.3333 29.8957 27.0529C30.5274 26.7095 31.1876 26.3546 31.888 26.1512C32.5607 25.9561 33.2089 25.6956 33.9052 25.5461C34.8214 25.3489 35.7153 25.1153 36.6629 25.1182C37.0854 25.1194 37.4661 24.8427 37.9258 24.8912C38.5003 24.9517 39.0682 24.8999 39.6477 25.1033C40.1774 25.2892 40.7714 25.1745 41.3616 25.3158C43.5548 25.8405 43.9454 25.8066 46.0226 26.9059C46.33 27.0682 46.5135 27.475 46.9351 27.4211C48.1645 28.7582 49.6544 29.8571 50.6286 31.4269C51.8136 33.3363 52.7232 35.3684 53.349 37.5301C53.5238 38.1345 53.8713 38.6874 53.8747 39.3493C54.2346 38.161 53.3938 37.152 53.3225 35.7561C53.8883 36.744 54.0316 37.5914 54.2338 38.4066C54.5013 39.4905 54.701 40.5824 54.7424 41.7169C54.7611 42.2305 54.8899 42.7781 54.9313 43.3186C54.9681 43.8049 54.5916 44.1884 54.6811 44.6971C54.7582 45.1353 54.7813 45.6178 54.6819 46.0461C54.3547 47.4498 54.0834 48.8635 53.6796 50.2552C53.2451 51.7521 52.5724 53.1198 51.8683 54.478C51.4093 55.3627 50.9048 56.2562 50.1203 56.9127C49.801 57.179 49.7612 57.6959 49.2779 57.8049C49.2493 57.8115 49.2998 58.0165 49.1838 58.0936C48.9361 58.258 49.1159 58.5016 49.0182 58.6991C50.2334 59.0288 51.4151 59.2537 52.5886 59.5122C53.4704 59.7065 54.3626 59.7065 55.2424 59.8833C56.1109 60.0585 57.0541 60.0146 57.9434 59.8999C59.2469 59.7317 60.5702 59.6071 61.8331 59.214C63.0662 58.83 64.2044 58.2124 65.3712 57.6669C65.737 57.4959 65.8413 56.9707 66.3313 56.9847C67.0177 56.03 68.2164 55.6245 68.8261 54.5414C69.1914 53.8915 69.8699 53.4259 70.3263 52.7901C70.9911 51.8652 71.5793 50.8914 72.2383 49.9657C72.773 49.2147 73.1553 48.376 73.625 47.5927C74.3159 46.44 74.7786 45.1382 75.2363 43.8633C75.4947 43.1434 75.8253 42.4517 76.0063 41.692C76.2618 40.6163 76.6918 39.5808 76.6106 38.4451C76.577 37.9808 76.3008 37.5711 76.365 37.0671C76.4035 36.7659 76.5472 36.6065 76.7278 36.4279C77.0492 36.9329 77.1528 37.5587 77.7256 38.0976C77.5777 37.649 78.2554 37.4978 77.7964 36.9917C77.581 36.7535 77.825 36.2084 77.4307 35.916C77.6121 35.7648 77.7268 35.6691 77.9571 35.4769C78.0822 35.6451 78.2645 35.8311 78.3713 36.0531C78.4625 36.2428 78.4215 36.5211 78.8526 36.3894C78.5594 35.9901 78.6538 35.5511 78.6567 35.0747C79.1293 35.0938 79.5564 34.9584 79.9358 35.2446C80.0799 35.1543 79.9084 34.9327 80.1168 34.8693C80.2986 35.0636 80.5625 35.2048 80.6813 35.4894C80.7803 35.7267 80.9017 35.9549 81.0168 36.1956C81.2612 35.9972 80.9957 35.7097 81.2227 35.542C81.46 35.8932 81.6042 36.2523 81.5918 36.6976C81.5628 37.789 81.5499 38.8829 81.5959 39.9731C81.6199 40.5347 81.4 41.0388 81.3184 41.5686C81.1419 42.7056 80.8404 43.843 80.4266 44.9174C80.0774 45.8233 79.9018 46.8091 79.3232 47.6226C78.7081 49.7706 77.1822 51.4046 76.1011 53.2892C75.8373 53.7498 75.4214 54.1524 75.0573 54.5422C73.6847 56.011 72.447 57.611 70.9261 58.9381C68.8277 60.7693 66.5322 62.3139 63.9621 63.3949C62.9059 63.839 61.7921 64.1629 60.675 64.4673C59.8615 64.6889 59.0045 64.7398 58.225 65.0886C58.1621 65.1168 58.0829 65.1093 58.0117 65.1184C56.714 65.2795 51.7722 65.5198 50.7669 65.3205C49.6776 65.1048 48.5663 65.0459 47.4881 64.7924C46.4638 64.551 45.4511 64.2577 44.4325 63.991C44.3617 63.9727 44.259 64.02 44.2105 63.9839C43.2744 63.2852 42.1971 63.2537 40.9963 63.3299V63.3299Z" fill="black"/>
</svg>
