<svg width="217" height="128" viewBox="0 0 217 128" fill="none" xmlns="http://www.w3.org/2000/svg">
<path fill-rule="evenodd" clip-rule="evenodd" d="M36.6298 99.2564C36.6298 99.0008 36.5868 98.8066 36.6373 98.6401C36.8531 97.9256 37.1244 97.2252 37.0817 96.4585C37.5432 96.2124 37.3017 95.722 37.4201 95.3621C38.0497 93.4489 38.7667 91.5639 39.3979 89.5446C39.1043 89.6672 38.9005 89.7521 38.6975 89.8371C38.5439 90.2542 38.782 90.6974 38.5555 91.1323C38.3484 91.5295 38.0882 91.9043 37.9669 92.3546C37.9155 92.5443 37.5568 92.6834 37.5543 92.8491C37.5386 93.8345 36.8282 94.6037 36.7694 95.5829C36.7359 96.1317 36.378 96.6432 36.4041 97.2272C36.4323 97.8477 36.0056 98.4119 36.18 99.0489C36.1978 99.1143 36.2438 99.1723 36.2769 99.2345C36.3503 99.239 36.4236 99.2436 36.6298 99.2564M67.4729 40.5074C67.5508 40.3529 67.6162 40.1897 67.7094 40.0447C67.8242 39.8674 67.9488 39.6864 68.0615 39.5207C68.4082 39.01 68.4508 38.3949 68.7437 37.8809C69.23 37.0276 69.4975 36.0895 69.8479 35.182C70.3868 33.7874 70.6908 32.314 71.3345 30.9501C71.5018 30.5955 71.8568 30.1469 71.5487 29.6317C71.2152 30.2045 70.9373 30.7769 70.5716 31.286C70.135 31.8949 70.0642 32.6665 69.6156 33.2597C69.6442 34.2094 69.1351 35.0225 68.8696 35.8857C68.5979 36.7688 68.2976 37.6668 67.9116 38.5283C67.6518 39.109 67.3685 39.7411 67.4729 40.5074M62.2084 39.015C62.756 37.9608 63.386 37.0566 63.7099 36.0534C64.2281 34.4492 65.0685 33.0012 65.6943 31.4533C65.9549 30.8092 66.2634 30.1494 66.7004 29.6209C67.1884 29.0307 67.1689 28.1782 67.8076 27.6998C68.4873 26.3433 69.2784 25.0539 70.1603 23.8217C70.3442 23.5645 70.3516 23.3656 70.2013 23.1254C69.8624 23.0459 69.734 23.2919 69.6193 23.5147C69.3157 24.1046 68.9939 24.7014 68.6501 25.249C68.2537 25.8794 67.9579 26.5529 67.5823 27.1866C67.2053 27.8212 66.8243 28.4529 66.4532 29.0903C65.6082 30.5404 65.0295 32.1115 64.3445 33.6345C63.7604 34.933 63.1797 36.2407 62.5555 37.5243C62.3492 37.9484 62.0746 38.3833 62.2084 39.015M58.0652 35.7556C58.0283 35.3965 58.1824 35.0672 58.336 34.7682C58.5742 34.3034 58.715 33.7298 59.0555 33.3922C59.4676 32.9842 59.3426 32.3012 59.9005 32.034C60.352 31.0188 60.7724 29.9887 61.2636 28.993C61.9876 27.5255 62.6694 26.024 63.5401 24.6447C64.5184 23.0943 65.585 21.5978 66.5074 20.0089C66.6772 19.7165 66.8881 19.4465 66.9208 18.9121C66.4581 19.3756 66.0468 19.661 65.8041 20.052C64.7524 21.7453 63.7136 23.4485 62.8351 25.2424C62.191 26.5575 61.4554 27.8303 60.7326 29.0978C60.231 29.9788 59.6971 30.8643 59.3024 31.7805C58.7664 33.0248 58.1513 34.2326 57.6456 35.4885C57.624 35.5427 57.6708 35.6247 57.6791 35.6633C57.7682 35.8178 57.8866 35.7465 58.0652 35.7556M31.6814 87.4243C30.8244 87.7963 30.8439 88.8525 30.1434 89.3541C30.0548 89.9953 29.6228 90.4931 29.4174 91.0768C29.1518 91.8298 28.9547 92.6134 28.755 93.3851C28.5939 94.0089 28.7223 94.7072 28.7223 95.4375C29.4207 94.8149 29.4368 93.9584 29.8311 93.2811C30.2279 92.5994 30.4914 91.831 30.7457 91.0776C31.0029 90.3146 31.4817 89.6647 31.7435 88.9022C31.9991 88.1579 32.1942 87.39 32.6523 86.6162C32.2824 86.6552 32.2037 86.883 32.0504 86.9989C31.8657 87.1389 31.5973 86.9252 31.4395 87.1543C31.5107 87.2338 31.5816 87.3133 31.6814 87.4243M58.8811 111.902C60.2459 111.991 61.491 111.366 62.8136 111.12C63.8449 110.928 64.8237 110.52 65.8571 110.305C66.9171 110.084 67.9555 109.742 69.0075 109.498C70.0352 109.26 71.0218 108.877 72.0734 108.705C72.7461 108.595 73.4188 108.344 74.2302 108.177C73.5252 107.896 73.0224 108.294 72.5079 108.26C71.9384 108.223 71.4687 108.595 70.9091 108.515C70.4224 108.445 70.0347 109.061 69.4259 108.737C69.3207 108.871 69.1832 109.047 69.0514 109.215C68.7143 109.215 68.3796 109.126 68.1278 109.232C67.4452 109.52 66.7071 109.595 66.0083 109.816C65.3543 110.023 64.634 110.232 63.9547 110.273C63.2224 110.317 62.5398 110.685 61.7971 110.544C61.6285 110.511 61.5399 110.654 61.414 110.708C61.1609 110.817 60.8676 110.902 60.6229 110.949C60.3847 110.995 60.0823 111.37 59.7994 111.008C59.4755 111.45 58.9147 111.013 58.5871 111.31C58.1285 111.726 57.5876 111.665 57.0703 111.674C56.6424 112.246 55.9498 112.211 55.3492 112.456C55.9652 112.825 56.4597 112.266 56.9684 112.37C57.4865 112.476 57.9571 111.907 58.4628 112.321C58.5953 112.188 58.7283 112.055 58.8811 111.902M59.058 21.5278C58.218 22.4068 57.7512 23.521 57.2165 24.5826C56.6801 25.6475 55.9337 26.6225 55.5708 27.9293C56.1118 27.7529 56.3827 27.5358 56.5194 27.1113C56.6892 26.5823 56.852 26.0331 57.1378 25.5663C57.3647 25.1956 57.5752 24.8671 57.6663 24.4214C57.7491 24.0134 58.317 23.849 58.3998 23.3743C58.4102 23.313 58.5241 23.272 58.5403 23.2091C58.7983 22.2059 59.495 21.4255 59.9465 20.5205C60.1548 20.103 60.4398 19.6349 60.8618 19.3114C61.2707 18.9979 61.3581 18.3625 61.9338 18.1997C62.5369 17.1398 63.6097 16.4153 64.0458 15.2365C64.8328 14.5204 65.1658 13.4335 66.041 12.7898C66.0965 12.3375 66.6967 12.1449 66.5662 11.57C66.3873 11.6533 66.3231 11.8392 66.1934 11.9482C65.645 12.4096 65.3062 13.1378 64.4729 13.2508C64.2943 13.2749 64.0193 13.547 64.0152 13.7106C64.0019 14.2346 63.7497 14.5013 63.2891 14.6413C62.6616 15.8785 61.4985 16.76 61.0159 18.1028C60.8763 18.4913 60.5135 18.7974 60.3586 19.1839C60.2903 19.3541 59.5948 19.0385 60.0658 19.5947C60.1755 19.7244 59.6756 19.9236 59.6582 20.2736C59.6371 20.7048 59.3376 20.9765 58.9052 21.0813C58.8613 21.0921 58.8331 21.1708 58.8049 21.2093C58.8774 21.3004 58.9441 21.3845 59.058 21.5278M120.479 53.7067C119.959 54.1085 119.631 53.4296 119.195 53.5986C118.313 52.9504 117.175 52.752 116.369 51.941C116.139 51.7094 115.752 51.4265 115.2 51.6825C115.641 51.9695 116.033 52.2234 116.424 52.4807C117.684 53.3116 119.116 53.8024 120.439 54.5123C120.992 54.8093 121.668 54.8433 122.125 55.3718C122.302 55.5772 122.679 55.4579 122.954 55.5043C123.505 55.5963 123.813 56.1074 124.412 56.131C124.903 56.1505 125.401 56.4251 125.882 56.6409C126.325 56.8389 126.797 57.0447 127.237 57.1686C127.717 57.3036 128.159 57.5041 128.614 57.6805C129.424 57.9945 130.222 58.3424 131.033 58.6552C132.203 59.1066 133.299 59.7209 134.456 60.208C135.241 60.5381 136.023 60.9855 136.762 61.456C137.177 61.7198 137.168 61.7339 137.914 61.6242C137.264 61.2332 136.661 60.8711 136.048 60.5025C136.143 60.4031 136.241 60.2991 136.35 60.1848C137.419 60.7825 138.484 61.3827 139.473 62.1158C140.154 62.6207 142.13 63.2826 143.036 63.3062C143.355 63.3145 143.547 63.6438 143.844 63.5436C144.251 63.4056 144.491 63.8501 144.883 63.7875C145.214 63.7349 145.569 63.8256 145.896 63.7643C146.296 63.6894 146.547 64.0684 146.936 64.0124C147.268 63.9648 147.612 63.995 147.951 64.0042C148.861 64.0294 149.748 63.9259 150.596 63.5701C150.659 63.5431 150.742 63.5423 150.813 63.5531C151.742 63.6939 152.625 63.1874 153.541 63.3414C153.955 63.411 154.188 63.0341 154.581 63.0867C154.988 63.1414 155.422 63.1654 155.817 63.0768C156.103 63.0126 156.399 63.0146 156.688 62.9214C156.995 62.8233 157.361 62.8287 157.685 62.8862C158.121 62.9641 158.54 62.2612 158.968 62.8717C159.346 62.4965 159.734 62.5756 160.125 62.8473C160.454 62.4335 160.765 62.6978 161.079 62.873C161.346 63.0221 161.559 62.5565 161.825 62.7972C161.991 62.9479 162.108 62.5151 162.332 62.8009C162.439 62.9359 162.819 62.8618 163.076 62.8713C163.302 62.8796 163.528 62.873 163.754 62.873C163.98 62.873 164.206 62.8858 164.431 62.8709C165.578 62.7947 166.683 63.2337 167.841 63.1219C168.153 63.0913 168.507 63.3112 168.816 63.4674C169.131 63.6264 169.373 63.5978 169.591 63.3257C169.937 63.7084 170.391 63.7308 170.87 63.7954C171.653 63.9006 172.47 63.843 173.216 64.215C173.396 64.3053 173.66 64.2287 173.887 64.2287C174.828 64.2287 175.769 64.2374 176.71 64.2241C177.061 64.2191 177.448 64.3438 177.739 64.0199C178.029 64.3745 178.429 64.198 178.782 64.2229C179.157 64.2485 179.535 64.2287 179.912 64.2287C180.288 64.2287 180.666 64.2055 181.04 64.2357C181.356 64.261 181.707 64.092 181.987 64.4117C182.089 64.5281 182.232 64.403 182.369 64.3413C182.926 64.0899 183.44 64.1346 183.819 64.6901C184.03 64.3525 184.477 64.3508 184.614 64.4805C184.939 64.7858 185.234 64.5244 185.531 64.5658C185.882 64.6143 186.259 64.2572 186.599 64.536C186.944 64.8185 187.321 64.5907 187.772 64.7336C187.862 64.7742 187.678 65.0716 187.943 65.1374C188.421 64.9614 188.898 64.7129 189.447 65.0869C189.765 65.3039 190.268 64.9336 190.581 65.3395C191.155 65.2613 191.588 65.7434 192.083 65.772C192.602 65.8014 193.052 66.1108 193.568 66.0321C193.849 65.989 194.032 66.2102 194.255 66.291C195.954 66.9077 197.664 67.4963 199.341 68.1868C201.494 69.0736 203.468 70.2544 205.442 71.456C205.842 71.7 206.213 72.0181 206.539 72.3155C207.664 73.3402 208.93 74.2213 209.901 75.4059C211.409 77.2478 212.778 79.1834 213.767 81.3691C214.112 82.1304 214.491 82.8984 214.733 83.6754C215.045 84.6732 215.573 85.6333 215.565 86.7239C215.565 86.7977 215.544 86.8904 215.58 86.9426C216.162 87.7938 215.957 88.7634 216.027 89.6983C216.112 90.834 216.337 91.9598 216.243 93.1068C216.659 93.4965 216.226 93.885 216.236 94.2752C216.257 95.0655 216.243 95.8566 216.243 96.6469V98.2284C215.728 98.5746 216.293 99.2717 215.791 99.6221C215.865 100.482 215.334 101.177 215.159 101.95C214.975 102.758 214.595 103.458 214.347 104.218C213.794 105.907 212.709 107.304 211.921 108.861C211.791 109.116 211.365 109.268 211.322 109.511C211.228 110.05 210.592 110.181 210.553 110.795C210.525 111.244 209.944 111.508 209.611 111.856C209.352 112.126 209.536 112.575 209.145 112.806C208.863 112.973 208.688 113.314 208.413 113.503C207.238 114.31 206.126 115.202 204.929 115.984C204.042 116.564 203.016 116.92 202.232 117.663C201.541 117.758 201.064 118.284 200.46 118.564C199.859 118.843 199.226 119.034 198.629 119.33C197.982 119.651 197.305 119.939 196.599 120.156C195.766 120.412 194.979 120.785 194.109 120.975C193.587 121.09 193.068 121.357 192.526 121.499C192.155 121.597 191.789 121.825 191.427 121.812C191.083 121.799 190.793 122.105 190.452 121.917C190.421 121.9 190.376 121.844 190.375 121.846C189.767 122.415 188.886 122.252 188.221 122.647C187.905 122.835 187.671 122.785 187.444 122.525C187.288 122.671 187.132 122.817 186.989 122.95C186.892 122.885 186.81 122.831 186.727 122.776C186.388 123.404 185.677 123.132 185.172 123.391C184.892 123.535 184.479 123.57 184.147 123.606C183.743 123.65 183.402 123.992 183.007 123.861C182.662 123.747 182.376 124.185 182.047 123.906C181.419 124.529 180.548 124.19 179.821 124.465C179.133 124.725 178.378 124.84 177.664 124.951C177.03 125.05 176.407 125.377 175.732 125.232C175.397 125.161 175.19 125.557 174.805 125.476C174.512 125.414 174.124 125.313 173.885 125.677C173.645 125.264 173.418 125.735 173.168 125.695C172.854 125.645 172.549 125.781 172.237 125.868C171.696 126.02 171.073 125.815 170.534 126.133C169.607 126.001 168.735 126.502 167.803 126.365C167.294 126.29 166.855 126.686 166.314 126.601C165.836 126.525 165.3 126.467 164.855 126.608C163.684 126.979 162.487 126.638 161.33 126.828C158.954 127.218 156.57 126.978 154.192 127.026C151.821 127.075 149.449 127.042 147.077 127.031C146.715 127.029 146.346 127.119 145.987 126.94C145.694 126.795 145.439 127.16 145.116 127.041C144.193 126.702 143.201 126.955 142.283 126.77C141.511 126.615 140.758 126.645 139.998 126.571C139.615 126.534 139.268 126.319 138.847 126.341C138.5 126.359 138.153 126.432 137.771 126.221C137.451 126.045 136.954 126.229 136.573 126.12C134.637 125.563 132.575 125.563 130.693 124.777C129.925 124.82 129.232 124.505 128.505 124.338C127.443 124.094 126.406 123.769 125.355 123.493C124.846 123.358 124.272 123.343 123.845 123.054C123.379 122.739 122.84 122.714 122.355 122.559C121.387 122.249 120.515 121.709 119.524 121.471C119.154 121.382 118.814 121.159 118.443 121.091C117.697 120.953 117.163 120.399 116.447 120.171C115.459 119.856 114.481 119.426 113.6 118.882C112.282 118.069 110.875 117.419 109.59 116.544C108.639 115.896 107.568 115.426 106.585 114.82C106.318 114.654 106.014 114.56 105.767 114.307C105.232 113.758 104.402 113.811 103.747 113.483C103.716 113.468 103.644 113.469 103.638 113.483C103.498 113.822 103.233 113.453 103.073 113.579C102.771 113.819 102.428 113.695 102.108 113.695C101.832 113.695 101.589 114.026 101.266 113.72C101.075 113.539 100.801 113.962 100.623 113.844C100.388 113.689 100.277 113.797 100.06 113.844C99.1448 114.039 98.205 113.916 97.2747 113.916C97.0282 113.563 96.6459 113.678 96.3481 113.727C95.9729 113.789 95.7629 113.42 95.4216 113.481C94.8636 113.581 94.3848 113.119 93.8211 113.255C93.4181 112.774 92.7156 113.29 92.3138 112.803C91.4146 112.978 90.674 112.339 89.7917 112.318C89.3038 112.306 88.8155 111.976 88.3433 111.756C87.4208 111.327 86.4234 111.123 85.4724 110.78C85.2724 110.708 85.0085 110.82 84.8027 110.756C84.5827 110.687 84.5206 111.145 84.2667 110.86C84.0782 110.649 84.0439 111.05 83.8339 111.012C83.6355 110.976 83.4176 110.986 83.1898 111.067C82.6944 111.243 82.1717 111.367 81.6502 111.436C81.1519 111.501 80.6366 111.39 80.1582 111.663C79.9959 111.755 79.7937 111.653 79.6947 111.436C79.5668 111.877 79.1944 111.987 78.8581 112.11C78.7773 112.139 78.6253 111.975 78.4397 111.858C77.869 112.444 76.9987 112.24 76.3045 112.583C75.8228 112.822 75.2504 112.716 74.7877 113.019C74.7459 113.046 74.6084 112.928 74.4729 112.855C74.1005 113.246 73.5526 113.333 73.0253 113.488C72.4607 113.655 71.8974 113.759 71.3204 113.698C71.0707 113.927 70.8839 114.154 70.4817 114.181C69.8198 114.225 69.232 114.658 68.544 114.665C68.3237 115.053 68.0992 114.39 67.8254 114.68C67.6465 114.87 67.3478 114.967 67.0856 115.055C66.8139 115.145 66.4784 114.932 66.2345 115.176C66.0129 115.397 65.6185 115.15 65.4591 115.491C64.6505 115.431 63.9265 115.763 63.1673 115.952C61.9727 116.25 60.745 116.411 59.5799 116.839C59.3811 116.912 59.1375 116.868 58.9147 116.869C58.5162 116.869 58.1074 116.81 57.8229 117.148C57.6845 117.022 57.6037 116.949 57.5213 116.874C57.1759 117.258 56.7306 117.331 56.2394 117.327C55.5195 117.321 54.7789 117.195 54.146 117.738C54.0143 117.851 53.7119 117.756 53.4899 117.776C52.9158 117.828 52.3053 117.604 51.7763 117.999C51.387 117.574 50.9794 117.948 50.6116 118.017C49.4378 118.238 48.2722 118.551 47.0702 118.431C46.7181 118.395 46.5574 118.673 46.2588 118.689C45.9726 118.705 45.6325 118.466 45.4991 118.556C45.1988 118.758 44.9159 118.663 44.638 118.663C44.3307 118.663 44.1791 118.98 43.8249 118.924C43.3109 118.843 42.7741 118.905 42.2472 118.903C41.2179 118.898 40.223 119.228 39.1763 119.146C38.1665 119.067 37.143 119.165 36.1299 119.108C35.8027 119.09 35.5413 119.669 35.166 119.156C34.9358 118.842 34.6305 119.487 34.3277 119.199C33.6314 119.627 32.9683 119.109 32.2853 119.125C31.5323 119.143 30.7784 119.112 30.0266 119.137C29.6841 119.149 29.4758 118.815 29.0997 118.883C28.8371 118.931 28.5181 119.01 28.2493 118.778C28.0418 118.599 27.9237 119.06 27.7129 118.898C27.5663 118.786 27.4557 118.675 27.2382 118.669C26.199 118.641 25.2136 118.388 24.2324 118.03C23.8227 117.88 23.3642 117.736 22.868 117.744C22.3966 117.752 21.9104 117.547 21.4489 117.384C19.513 116.698 17.5932 115.965 15.752 115.052C15.064 114.711 14.4746 114.193 13.7365 113.915C13.3849 113.782 13.1533 113.418 13.0108 113.039C12.9483 113.101 12.8953 113.154 12.834 113.215C12.3618 112.936 11.9095 112.612 11.4514 112.314C10.9121 111.963 10.3794 111.562 9.91428 111.08C9.38286 110.528 8.90362 109.92 8.20031 109.521C7.82256 109.307 7.64611 108.784 7.3193 108.432C6.63339 107.695 5.98599 106.921 5.36552 106.119C4.76948 105.349 4.25256 104.523 3.76546 103.711C2.83682 102.165 1.91605 100.577 1.41072 98.824C1.25581 98.2868 0.930665 97.7918 0.935221 97.2115C0.939778 96.6594 0.626227 96.2008 0.510665 95.6976C0.375636 95.1094 0.380606 94.4819 0.301079 93.8718C0.212026 93.1933 -0.0650744 92.5401 0.014038 91.824C0.0873517 91.1542 0.0335055 90.4704 0.0289493 89.7923C0.0181801 88.16 0.575281 86.6663 1.11333 85.1595C1.48777 84.1099 1.98025 83.1079 2.30416 82.036C2.49593 81.401 3.0112 80.9176 3.29327 80.3021C3.9622 78.8421 4.94717 77.5784 5.89859 76.2931C6.20966 75.8727 6.7212 75.5811 6.81232 75.0004C6.82185 74.9382 6.88978 74.8803 6.9399 74.8293C7.17765 74.5878 7.39469 74.3174 7.66433 74.1185C7.94475 73.9123 8.24877 73.7565 8.20321 73.3386C8.63688 73.3552 8.60043 72.9041 8.82493 72.7094C9.07966 72.4874 9.32445 72.2488 9.54439 71.992C11.1995 70.0614 13.0162 68.2866 14.8238 66.503C15.3929 65.941 16.0399 65.458 16.6235 64.9096C17.2543 64.3169 17.7998 63.6227 18.4766 63.0925C19.5453 62.2554 20.4781 61.2617 21.562 60.4557C22.5155 59.7466 23.4512 59.0064 24.3583 58.2521C25.2277 57.5302 26.1447 56.8671 27.0183 56.1526C27.8169 55.4998 28.6175 54.8308 29.4998 54.2704C29.9831 53.9635 30.3891 53.5207 30.8356 53.1475C31.5107 52.5826 32.1788 51.9878 32.8614 51.4431C34.3294 50.2726 35.5918 48.9028 36.8825 47.5662C38.5662 45.8232 40.0217 43.8852 41.3845 41.8746C42.6304 40.0356 43.6369 38.0594 44.7904 36.1723C46.4742 33.4183 47.7462 30.4601 49.2965 27.6447C50.1075 26.1727 50.7549 24.6099 51.732 23.2244C51.9209 22.9568 52.0203 22.596 52.2034 22.2929C52.2688 22.1847 52.3542 22.034 52.3753 21.9188C52.4842 21.3298 53.3089 21.1459 53.1892 20.4451C53.5413 20.0408 53.784 19.5575 54.0996 19.1391C54.252 18.9362 54.3991 18.7958 54.5167 18.5307C54.7242 18.0614 54.8779 17.515 55.3285 17.1692C55.4408 17.083 55.582 16.9567 55.5974 16.8345C55.7092 15.9403 56.3794 15.3471 56.7791 14.6115C57.1676 13.8962 57.6042 13.2103 58.1004 12.5508C58.5502 11.9531 58.947 11.3153 59.4395 10.7387C60.1879 9.86351 60.7438 8.83587 61.7557 8.17356C62.1339 7.92546 62.4002 7.49427 62.7883 7.18031C64.3039 5.95262 66.1698 4.43498 68.5585 3.6799C69.4487 2.97161 70.6921 2.93102 71.523 2.1109C72.288 1.98208 72.9209 1.50368 73.7178 1.39143C74.9347 1.22037 76.1301 0.95818 77.3748 0.950724C78.4546 0.944511 78.6733 0.952381 79.5436 1.27877C80.3918 1.59729 81.2687 1.8483 82.1331 2.12333C83.4934 2.55617 84.8462 3.00516 86.0316 3.90398C87.4846 5.00575 88.0252 6.07853 89.2599 7.76102C89.7776 8.46682 90.2175 9.23972 90.6139 10.0217C90.9747 10.7325 91.2133 11.5046 91.5347 12.2369C91.8843 13.035 92.2479 13.8191 92.511 14.6604C92.6456 15.0916 92.4985 15.6503 92.8953 15.9572C93.3145 16.2807 92.8771 16.8681 93.3377 17.1373C93.1795 18.2842 93.8902 19.3048 93.812 20.453C93.7875 20.8084 94.0381 21.1782 94.1442 21.5469C94.4474 22.5956 94.7481 23.6427 94.9324 24.725C95.0972 25.6959 95.3292 26.6614 95.615 27.6037C95.7542 28.0602 95.9364 28.5473 96.305 28.8952C97.109 29.6532 97.4843 30.6473 97.8508 31.6451C97.9701 31.9698 98.3959 32.0137 98.4543 32.3729C99.4095 32.8533 99.3366 32.9196 99.9065 33.5513C100.853 34.6004 101.208 35.9739 102.008 37.0943C102.503 37.7881 102.957 38.5109 103.451 39.2055C104.136 40.1677 104.881 41.0897 105.521 42.0801C105.837 42.5692 106.253 42.9685 106.597 43.4262C107.303 44.3669 107.992 45.3833 108.973 46.0531C110.148 46.855 110.904 48.1626 112.272 48.709C113.338 49.7958 114.716 50.3989 116.015 51.1246C116.31 51.673 117.161 51.5355 117.354 52.2094C117.779 51.8436 117.883 52.5242 118.182 52.4711C118.609 52.3953 118.736 52.7839 119.014 52.9297C119.323 53.0912 119.629 53.2879 119.96 53.3662C120.214 53.4267 120.264 53.6309 120.479 53.7067" fill="black"/>
</svg>
