<svg width="161" height="199" viewBox="0 0 161 199" fill="none" xmlns="http://www.w3.org/2000/svg">
<path fill-rule="evenodd" clip-rule="evenodd" d="M42.4585 144.794C42.2891 145.072 42.1268 145.155 42.0448 145.342C41.6492 146.243 41.4388 147.201 41.16 148.136C40.8896 149.045 40.6303 149.969 40.4919 150.904C40.3507 151.856 39.9079 152.704 39.7161 153.644C39.473 154.835 39.1371 155.993 39.0944 157.226C39.0708 157.903 39.4614 158.497 39.3446 159.166C39.3322 159.239 39.3363 159.317 39.3446 159.391C39.3558 159.487 39.35 159.615 39.5633 159.523C39.6026 158.75 39.6598 157.954 39.7455 157.167C39.8752 155.981 39.9957 154.804 40.2128 153.627C40.3035 153.135 40.4087 152.646 40.5685 152.185C40.7446 151.676 40.7446 151.146 40.9065 150.634C41.3178 149.334 41.7308 148.033 42.0742 146.71C42.2229 146.138 42.5803 145.621 42.4585 144.794M108.313 125.244C108.743 124.846 109.013 124.426 109.159 124.057C109.605 122.928 109.984 121.776 110.465 120.658C111.111 119.163 111.763 117.663 112.269 116.118C112.535 115.306 113.04 114.477 112.666 113.483C112.237 114.42 111.742 115.29 111.433 116.221C110.974 117.609 110.414 118.95 109.834 120.287C109.6 120.828 109.283 121.358 109.181 121.924C109.065 122.562 108.81 123.12 108.582 123.708C108.398 124.181 108.085 124.668 108.313 125.244M91.4031 30.3522C91.2332 30.1824 91.1802 30.1294 91.1268 30.0764C91.4793 29.8394 91.618 29.2803 92.2103 29.441C92.2103 29.1523 92.2377 28.9253 92.2037 28.7079C92.159 28.4283 92.3462 28.2974 92.5086 28.1565C92.7326 27.9623 92.8573 28.287 93.0483 28.2908C93.175 27.8509 93.3009 27.4155 93.426 26.9815C93.6733 27.0481 93.4347 27.4797 93.9504 27.4126C93.7992 26.9458 94.4802 26.9102 94.4814 26.4041C94.3373 26.2947 94.2026 26.1692 94.0473 26.0802C93.8601 25.9725 93.8108 26.3353 93.6215 26.2516C93.5291 26.117 93.6116 25.9339 93.4484 25.8552C93.4886 26.1253 92.9476 26.3129 93.3506 26.6489C93.0023 26.9906 92.6987 27.3998 92.2965 27.6529C91.8918 27.908 91.6901 28.309 91.3683 28.6159C91.0149 28.9531 90.5796 29.2525 90.3576 29.6642C90.1248 30.095 89.7595 30.3833 89.4928 30.7656C89.2475 31.1168 88.9663 31.4478 88.6681 31.7551C88.3371 32.0956 88.0853 32.5077 87.8326 32.8859C87.5949 33.2413 87.2407 33.5366 86.9044 34.1376C88.4212 33.3825 89.0686 31.9498 90.3584 31.4304C90.4711 31.1421 90.3112 30.8708 90.4467 30.6757C90.7494 30.5734 91.012 30.4844 91.4031 30.3522M5.79595 144.234C6.1795 143.811 5.64062 143.512 5.6663 143.12C5.78269 141.34 5.29269 139.582 5.45175 137.797C5.46831 137.61 5.52796 137.371 5.44056 137.242C5.12039 136.767 5.20364 136.245 5.24299 135.748C5.28524 135.219 5.02678 134.756 5.01394 134.26C4.97914 132.944 4.93897 131.624 5.01932 130.312C5.10216 128.971 4.69376 127.678 4.76459 126.341C4.82216 125.253 4.77908 124.16 4.77287 123.069C4.77204 122.893 4.84701 122.693 4.45766 122.384C4.78115 123.434 4.27873 124.232 4.31725 125.111C4.35121 125.9 4.34003 126.691 4.32015 127.481C4.29944 128.288 4.59062 129.051 4.57613 129.87C4.55542 131.003 4.41169 132.144 4.74802 133.283C4.91163 133.836 4.73104 134.482 4.78861 135.079C4.84701 135.688 4.67098 136.283 4.95719 136.925C5.18127 137.427 5.00192 138.109 5.00192 138.711C5.00192 139.124 4.86897 139.603 5.03257 139.937C5.29891 140.482 5.09056 141.043 5.25169 141.543C5.43725 142.119 5.47246 142.685 5.44471 143.263C5.42565 143.653 5.68577 143.905 5.79595 144.234M8.78979 118.299C8.2824 119.461 8.39589 120.68 8.39216 121.887C8.38719 123.581 8.45056 125.276 8.37642 126.967C8.27577 129.279 8.63157 131.569 8.61707 133.874C8.61666 133.949 8.60423 134.027 8.61914 134.099C8.70074 134.494 8.85524 134.872 8.84571 135.287C8.8337 135.813 8.90453 136.35 8.82542 136.864C8.74713 137.373 9.11204 137.757 9.07725 138.242C9.03956 138.766 9.0263 139.3 9.08056 139.821C9.13565 140.355 8.82997 140.942 9.28973 141.427C9.32577 141.465 9.3208 141.61 9.28311 141.639C8.81713 142.004 9.19778 142.347 9.29098 142.703C9.4082 143.153 9.62689 143.587 9.52749 144.078C9.5192 144.12 9.60867 144.183 9.65299 144.236C9.76151 144.232 9.88039 144.261 9.99595 144.069C10.1322 143.839 9.71678 143.749 9.72796 143.454C9.76607 142.39 9.63808 141.33 9.56932 140.27C9.47447 138.8 9.11991 137.338 9.29388 135.851C9.30216 135.777 9.3266 135.676 9.28973 135.629C8.93062 135.172 9.04163 134.632 9.08843 134.14C9.13938 133.604 8.86435 133.153 8.84571 132.651C8.77115 130.613 8.87802 128.577 8.65973 126.531C8.45802 124.633 8.61707 122.696 8.61707 120.777C8.61707 120.589 8.54334 120.353 8.6295 120.221C9.03666 119.597 8.74465 118.94 8.78979 118.299M115.932 157.19C116.029 157.363 116.246 157.452 116.149 157.701C115.838 157.922 115.657 158.336 115.245 158.461C115.122 158.499 115.015 158.541 115.036 158.654C115.113 159.066 114.676 159.216 114.611 159.491C114.519 159.875 114.226 160.023 114.015 160.259C113.829 160.466 113.638 160.662 113.335 160.783C113.123 160.867 113.055 161.31 112.922 161.593C112.802 161.85 112.459 161.775 112.324 161.988C112.242 162.175 112.49 162.513 112.113 162.525C111.756 162.537 111.875 162.846 111.774 162.998C111.619 163.23 111.209 163.102 111.198 163.407C111.175 164.014 110.646 164.304 110.442 164.819C110.251 164.642 110.095 164.496 109.938 164.351C109.669 164.653 109.917 164.921 110.004 165.16C109.681 165.467 109.331 165.367 108.92 165.276C109.293 165.601 109.135 165.96 109.123 166.293C108.832 166.597 108.524 166.876 108.082 167.377C109.738 166.865 110.134 165.434 111.082 164.568C111.201 164.699 111.29 164.828 111.559 164.777C111.611 164.015 112.372 163.719 112.826 163.187C112.705 163.049 112.633 162.967 112.559 162.883C112.959 162.376 113.517 162.009 113.825 161.398C113.962 161.128 114.221 160.771 114.548 160.749C115.174 160.708 115.447 160.264 115.681 159.835C115.798 159.623 115.924 159.63 116.074 159.569C116.181 159.525 116.181 159.465 116.083 159.412C115.901 159.289 115.63 159.497 115.488 159.262C115.488 159.175 115.458 159.081 115.493 159.031C115.749 158.662 116.241 158.549 116.49 158.216C116.752 157.866 116.699 157.326 117.066 156.997C117.094 156.972 117.12 156.944 117.146 156.918C117.44 156.932 117.529 157.623 118.061 157.143C117.746 156.809 117.463 156.51 117.202 156.234C116.722 156.563 116.499 157.092 115.932 157.19M12.3697 117.059C12.2285 117.218 12.0438 117.329 12.0458 117.438C12.057 118.061 11.7319 118.613 11.7604 119.255C11.8234 120.682 11.7799 122.115 11.7799 123.546C11.7799 124.637 11.7609 125.73 11.7853 126.821C11.8089 127.884 11.7397 128.94 11.9709 130.011C12.1601 130.888 12.0098 131.822 12.2024 132.739C12.3958 133.66 12.173 134.625 12.4215 135.585C12.605 136.291 12.5213 137.089 12.4401 137.833C12.354 138.624 12.7496 139.329 12.6986 140.114C12.6166 141.389 13.0693 142.569 13.479 143.807C13.8215 143.246 13.351 142.851 13.3535 142.39C13.3572 141.775 13.3013 141.174 13.177 140.555C12.9993 139.673 13.1095 138.745 12.9401 137.827C12.7558 136.828 12.9803 135.786 12.7127 134.757C12.5338 134.07 12.7032 133.322 12.4894 132.59C12.3279 132.035 12.3979 131.387 12.4741 130.794C12.5532 130.183 12.221 129.667 12.2239 129.079C12.2401 125.69 12.2409 122.302 12.2231 118.914C12.2198 118.331 12.6493 117.812 12.3697 117.059M87.3406 27.4532C87.0324 27.9905 86.7822 28.5815 86.2819 28.9357C85.1047 29.7678 84.6797 31.2763 83.4317 32.0306C83.3311 32.8101 82.6543 33.2181 82.2463 33.7889C81.6656 34.5999 81.1512 35.4602 80.5402 36.2405C79.9873 36.9476 79.5329 37.7055 79.0375 38.4437C78.5417 39.1809 78.0496 39.9281 77.507 40.6261C76.8273 41.5005 76.404 42.5223 75.7371 43.4033C75.2778 44.0093 74.7418 44.6045 74.5724 45.3981C74.5525 45.4909 74.4067 45.5493 74.3433 45.6408C73.8194 46.4005 73.2465 47.1332 72.7917 47.9326C71.9406 49.4308 71.0778 50.919 70.1392 52.3658C70.0207 52.5484 69.6881 52.7829 69.9375 53.2062C70.1144 53.0293 70.3413 52.8914 70.4383 52.6909C71.0227 51.481 71.8312 50.4103 72.5142 49.2626C73.0328 48.3903 73.5502 47.5147 74.06 46.6365C74.77 45.413 75.6945 44.3174 76.4243 43.0984C76.8994 42.3052 77.5016 41.58 77.9403 40.7889C78.7318 39.3611 79.7677 38.1069 80.6036 36.7131C81.2584 35.62 82.1009 34.6301 82.8515 33.5905C83.5891 32.5678 84.3525 31.5211 85.2824 30.6372C85.497 30.433 85.6597 30.2102 85.7616 29.931C85.8706 29.6332 86.4281 29.7674 86.3825 29.3055C86.979 28.8532 87.2602 28.1284 87.8202 27.6458C87.9002 27.5771 87.925 27.5377 87.8397 27.4706C87.6844 27.3853 87.505 27.4321 87.3406 27.4532M1.32755 123.257C1.19707 123.591 0.679735 123.848 1.1221 124.281C0.753049 124.479 1.17015 124.614 1.16932 124.788C1.16766 125.023 0.900504 125.103 0.919143 125.372C0.945652 125.757 0.466421 126.118 0.920386 126.555C1.10098 126.729 0.512812 126.951 0.758847 127.21C1.00695 127.472 0.916244 127.605 0.742279 127.858C0.618847 128.037 0.763818 128.374 0.484646 128.535C0.979202 129.174 0.596066 129.907 0.702516 130.589C0.751806 130.898 0.639143 131.239 0.908374 131.499C0.55506 131.838 0.575356 132.41 0.782043 132.608C1.19749 133.006 0.692575 133.349 0.887664 133.755C1.06494 134.125 1.00861 134.654 1.14364 135.112C1.23601 135.423 1.16145 135.784 1.16145 136.123C1.16145 136.499 1.21695 136.886 1.14405 137.248C1.08441 137.542 1.55618 137.804 1.16145 138.081C1.29648 138.413 1.44725 138.731 1.3963 139.117C1.3524 139.45 1.37601 139.794 1.39009 140.132C1.40914 140.598 1.44228 141.047 1.56695 141.518C1.70861 142.054 1.99027 142.618 1.84074 143.22C1.80056 143.38 1.94015 143.484 1.98364 143.61C2.12074 144.007 2.3005 144.437 2.26323 144.836C2.21891 145.31 2.36843 145.784 2.55979 146.071C2.86216 146.525 2.64305 146.988 2.84684 147.432C3.10405 147.993 3.30246 148.63 3.38737 149.23C3.56672 150.501 4.39595 151.589 4.34252 152.916C4.33382 153.135 4.73808 153.221 4.7795 153.518C4.94394 154.687 5.40991 155.764 5.84482 156.855C5.82411 156.406 6.12192 155.903 5.58636 155.551C5.3921 155.424 5.46334 155.22 5.45465 155.042C5.44263 154.782 5.52672 154.47 5.41157 154.272C4.81802 153.25 4.68299 152.085 4.29074 151.006C4.1321 150.571 4.23897 150.123 4.0563 149.751C3.63547 148.891 3.39731 147.991 3.13843 147.075C2.92015 146.303 2.73086 145.498 2.57802 144.73C2.41897 143.933 2.13731 143.095 2.28849 142.239C2.30755 142.129 2.33944 141.967 2.28311 141.908C1.91778 141.528 2.05157 141.058 2.08346 140.641C2.11867 140.18 1.81465 139.828 1.825 139.378C1.83867 138.804 1.77695 138.238 1.66139 137.656C1.47873 136.739 1.64814 135.76 1.40045 134.82C1.31719 134.503 1.38719 134.146 1.38719 133.807C1.38719 133.506 1.335 133.193 1.40086 132.907C1.47666 132.581 1.12997 132.299 1.29441 132.039C1.53175 131.666 1.26542 131.438 1.16394 131.151C1.11796 131.023 1.22897 130.95 1.30725 130.875C1.47252 130.716 1.43607 130.415 1.37228 130.361C1.08772 130.118 1.16062 129.82 1.16518 129.533C1.16973 129.182 1.06784 128.806 1.3611 128.508C0.972575 128.178 1.24305 127.733 1.16104 127.349C1.06991 126.922 1.4166 126.496 1.16145 126.069C1.65311 125.155 1.25299 124.196 1.32755 123.257M134.632 116.582C134.503 116.748 134.46 116.778 134.462 116.805C134.57 118.549 134.296 120.275 134.179 122.054C134.133 122.136 134.008 122.081 133.843 122.109C133.669 122.422 133.922 122.889 133.569 123.204C133.487 123.277 133.57 123.525 133.674 123.707C133.887 124.083 133.88 124.482 133.451 124.774C133.198 124.758 133.45 124.426 133.21 124.387C132.798 124.735 133.316 125.001 133.329 125.282C133.307 125.604 132.983 125.386 132.901 125.569C132.946 125.771 133.126 125.682 133.239 125.733C133.494 127.288 133.33 127.069 132.882 128.468C133.009 128.95 133.479 128.804 133.86 128.99C133.101 129.242 134.004 129.843 133.452 130.193C133.178 130.075 133.038 129.708 132.664 129.557C132.697 129.903 132.508 130.229 132.817 130.509C133.208 130.864 133.205 131.241 132.92 131.673C132.835 131.801 132.884 132.018 132.872 132.178C133.056 132.244 133.187 132.291 133.314 132.337C133.261 132.396 133.222 132.477 133.175 132.482C132.954 132.505 132.689 132.436 132.522 132.536C132.349 132.64 131.966 132.843 132.299 133.129C132.537 133.333 131.977 133.571 132.385 133.727C132.43 133.744 132.181 133.813 132.06 133.866C131.878 134.086 132.438 134.252 132.122 134.485C131.985 134.586 131.919 134.732 131.979 134.874C132.344 135.752 131.891 136.344 131.298 136.896C131.28 136.913 131.304 136.971 131.294 137.005C131.274 137.072 131.243 137.135 131.199 137.241C131.067 136.986 130.947 136.756 130.839 136.547C130.921 136.06 131.476 136.188 131.673 135.818C131.567 135.535 131.481 135.212 131.21 134.999C130.711 135.076 131.043 135.516 130.887 135.774C130.744 136.009 130.52 136.295 130.602 136.676C130.678 137.036 130.618 137.424 130.618 137.88C130.084 137.81 129.741 138.105 129.488 138.538C129.491 138.983 129.925 138.953 130.158 139.145C129.967 139.481 129.355 139.218 128.942 138.608C128.134 139.01 128.935 139.561 128.811 140.029C128.672 140.34 128.298 140.017 128.139 140.276C128.069 140.775 128.556 140.761 128.744 140.934C128.641 141.248 128.773 141.581 128.579 141.815C128.646 142.081 129.177 141.874 129.034 142.316C128.813 142.563 128.654 142.399 128.494 142.224C128.062 142.416 128.131 143.015 127.683 143.181C127.832 143.429 128.022 143.575 128.378 143.612C128.063 144.183 129.087 144.798 128.24 145.361C128.049 145.258 128.226 144.753 127.716 144.96C127.512 145.306 128 145.546 127.941 145.935C127.884 146.31 127.707 146.599 127.592 146.929C127.409 146.873 127.305 146.506 127.043 146.795C126.965 146.945 127.003 147.064 127.121 147.183C127.301 147.365 127.312 147.65 127.164 147.779C126.699 148.183 126.657 148.784 126.378 149.27C126.144 149.678 126.149 150.27 125.513 150.367C125.474 150.372 125.422 150.487 125.427 150.548C125.454 150.938 125.128 151.191 125.051 151.521C124.968 151.879 124.614 152.016 124.527 152.322C124.415 152.715 123.87 152.88 123.881 153.167C123.9 153.627 123.212 153.413 123.369 153.857C122.981 153.935 122.767 154.248 122.494 154.504V155.382C122.192 155.679 121.866 155.726 121.494 155.527C121.214 155.754 121.439 156.084 121.321 156.368C121.21 156.409 121.079 156.457 120.908 156.519V157.245C120.74 157.314 120.611 157.366 120.465 157.426C120.35 157.777 120.981 158.032 120.577 158.438C120.468 158.491 120.473 158.296 120.299 158.307C120.328 158.622 119.92 158.897 120.204 159.32C119.847 159.475 119.328 159.178 119.104 159.808V160.815C118.371 161.198 117.857 161.888 117.074 162.17C117.14 162.361 117.319 162.28 117.475 162.366C117.472 162.659 116.996 162.709 117.067 163.025C117.151 163.396 116.837 163.38 116.659 163.524C116.433 163.705 116.241 163.923 115.939 163.988V164.426C115.871 164.547 115.777 164.576 115.658 164.572C115.55 164.568 115.441 164.583 115.345 164.589C115.157 164.841 115.329 165.115 115.174 165.478C115.034 165.684 114.472 165.722 114.523 166.295C114.532 166.398 114.157 166.424 113.995 166.605C113.523 167.133 112.922 167.531 112.491 168.11C112.278 168.396 111.987 168.607 111.643 168.773C111.322 168.927 111.249 169.355 111.019 169.639C110.798 169.911 110.307 169.851 110.274 170.321C110.262 170.487 109.995 170.388 109.911 170.489C109.72 170.718 109.409 170.745 109.246 171.094C109.002 171.616 108.293 171.738 107.931 172.224C107.623 172.636 107.211 172.962 106.734 173.142C106.328 173.296 106.359 173.935 105.821 173.891C105.396 174.464 104.705 174.727 104.239 175.25C104.042 175.471 103.821 175.649 103.532 175.727C103.344 175.778 103.3 176.305 102.973 175.898C102.751 176.182 102.646 176.574 102.191 176.638C102.096 176.651 102.171 176.92 101.92 177.018C101.397 177.22 101.026 177.705 100.481 177.906C100.321 177.966 100.088 178.072 100.029 178.143C99.2455 179.096 98.0315 179.395 97.1074 180.122C97.0196 180.191 96.9604 180.308 96.8647 180.355C96.1481 180.713 95.3326 180.886 94.7055 181.406C94.0949 181.911 93.3763 182.213 92.6655 182.485C92.2559 182.642 92.0119 183.025 91.582 183.096C91.1019 183.175 90.766 183.506 90.4409 183.844C90.2656 183.722 90.1546 183.645 90.0445 183.568C89.8465 184.231 89.2401 184.433 88.7045 184.649C88.5132 184.726 88.3094 184.826 88.1408 184.919C86.9761 185.564 85.7687 186.098 84.4967 186.49C84.3666 186.53 84.2606 186.643 84.1363 186.709C83.5249 187.035 82.8954 187.242 82.1771 187.174C81.6246 187.121 79.9864 187.619 79.3399 187.945C78.0633 188.59 76.7983 189.259 75.5031 189.864C74.5906 190.29 73.6396 190.636 72.6994 191.001C71.6916 191.392 70.6744 191.76 69.7229 192.322C69.2826 191.869 68.8303 192.274 68.3656 192.353C67.83 192.445 67.9311 193.181 67.41 193.255C67.0592 193.459 66.8997 192.987 66.6032 193.031C66.3219 193.173 66.5336 193.446 66.4168 193.644C66.2445 193.795 66.0954 193.729 65.9429 193.529C65.9081 193.47 65.8609 193.479 65.8009 193.576C65.5967 193.906 65.228 194.035 64.9083 194.14C64.6643 194.22 64.434 194.249 64.241 194.45C63.9572 194.746 63.6623 194.678 63.3923 194.4C63.0348 194.771 62.725 195.148 62.088 195.108C61.8158 195.091 61.5946 195.649 61.1477 195.522C60.9796 195.795 60.6958 195.807 60.4535 195.737C60.0012 195.606 60.2427 196.18 59.8691 196.223C58.8539 196.341 57.8909 196.727 56.8798 196.92C56.3471 197.021 55.7316 196.929 55.2441 197.32C55.0838 197.448 54.9484 197.19 54.7972 197.126C54.6588 197.264 54.5259 197.397 54.371 197.552C54.0371 197.503 53.6499 197.703 53.3338 197.416C53.1847 197.281 53.1611 197.433 53.0903 197.478C52.3244 197.968 51.4148 197.982 50.5852 198.252C49.973 198.451 49.2987 198.278 48.7685 198.498C47.8916 198.861 46.9323 198.392 46.1164 198.911C45.3981 198.802 44.6642 199.084 43.9364 198.713C43.6075 198.546 43.1192 198.721 42.7091 198.679C41.2275 198.525 39.7538 198.288 38.4412 197.54C37.8319 197.194 37.2578 196.719 36.5972 196.545C35.8732 196.354 35.2854 195.904 34.5618 195.708C33.9778 195.549 33.489 195.037 32.9622 194.675C32.0919 194.078 31.2432 193.448 30.1729 193.219C30.0354 193.189 29.8486 193.084 29.7086 192.991C29.1503 192.618 28.4921 192.423 27.9454 192.082C27.3783 191.729 26.7239 191.476 26.2442 190.997C25.6424 190.396 24.7614 190.133 24.3559 189.271C24.1446 188.823 23.6145 188.537 23.3162 188.115C23.0408 187.726 22.8171 187.325 22.4096 187.036C22.1921 186.882 22.0836 186.577 21.9191 186.346C21.4155 185.635 20.6567 185.177 20.0996 184.52C19.815 184.184 19.4787 183.904 19.2053 183.547C18.9667 183.234 18.5484 183.018 18.2783 182.695C16.9197 181.07 15.3926 179.567 14.4913 177.602C14.3571 177.309 13.9155 177.296 13.8501 177.099C13.7577 176.822 13.5535 176.691 13.4181 176.484C12.721 175.418 12.0036 174.365 11.3616 173.267C11.2203 173.025 10.9528 172.728 11.101 172.361C11.2067 172.1 10.9577 171.928 10.8562 171.792C10.3824 171.157 10.2855 170.432 10.1894 169.687C10.1446 169.344 10.0009 169.015 9.90192 168.679L9.93755 167.655C10.1989 167.015 9.75985 166.485 9.47985 166.077C9.07476 165.488 8.78565 164.845 8.42571 164.241C8.03305 163.581 7.66317 162.897 7.32228 162.214C6.90476 161.377 6.5121 160.514 6.1563 159.65C5.52092 158.105 4.91908 156.541 4.48831 154.917C4.25636 154.043 3.94281 153.188 3.64334 152.332C3.29624 151.341 2.86092 150.377 2.7408 149.318C2.26861 149.006 2.66376 148.481 2.43553 148.086C2.2479 147.762 2.17459 147.368 2.06648 147C1.79808 146.081 1.68914 145.127 1.44725 144.204C1.40045 144.026 1.51228 144.031 1.55453 143.963C1.66512 143.787 1.65973 143.574 1.58269 143.436C1.44766 143.193 1.01027 143.059 1.38719 142.686C1.22772 142.399 1.23145 142.063 1.13908 141.769C0.772516 140.603 1.14613 139.307 0.485475 138.202C0.468907 138.174 0.479676 138.127 0.483818 138.09C0.645356 136.641 0.128019 135.229 0.239853 133.777C0.25725 133.552 0.521924 133.362 0.408019 133.234C0.194291 132.993 0.265534 132.744 0.26512 132.498C0.264705 132.261 0.210445 132.085 0.0402083 131.906C-0.138312 131.718 0.347131 131.581 0.151214 131.377C-0.0397325 131.177 0.0381373 130.956 0.0360663 130.745C0.0261255 129.729 0.0671314 128.711 0.0124568 127.697C-0.00659641 127.338 0.323936 127.024 0.0928119 126.666C0.429557 126.356 0.219972 125.959 0.249794 125.604C0.283759 125.193 0.136717 124.725 0.287486 124.375C0.488788 123.906 0.523167 123.451 0.470149 122.989C0.413404 122.493 0.818078 122.104 0.712871 121.612C0.672279 121.424 0.823463 121.276 0.871096 121.117C1.08192 120.409 1.27453 119.687 1.37518 118.956C1.54956 117.689 1.99482 116.506 2.41855 115.318C2.69855 114.533 3.0208 113.751 3.43376 113.03C4.24228 111.619 5.0566 110.21 6.06352 108.916C6.65293 108.158 7.2382 107.39 7.78329 106.592C8.35778 105.751 9.13441 105.05 9.82033 104.285C10.3853 103.656 11.0986 103.164 11.5082 102.388C11.6403 102.139 11.8959 101.957 12.2372 101.913C12.1544 101.814 12.0901 101.737 12.0015 101.631C12.3648 101.412 12.5151 100.959 13.008 100.841C13.3887 100.75 13.3576 100.235 13.65 99.9956C14.447 99.3437 14.9361 98.3512 15.936 97.9209C16.1584 97.4607 16.4488 97.0705 16.9674 96.9131C16.9769 96.332 17.6326 96.6298 17.7713 96.2231C17.9341 96.1332 17.6959 96.1502 17.751 95.9733C18.1507 95.8267 18.4013 95.3628 18.8015 95.1072C19.2128 94.8446 19.4741 94.4242 20.0126 94.2573C20.4578 94.1193 20.773 93.5597 21.1856 93.1472H21.9113C21.9349 92.931 21.9544 92.7525 21.9734 92.5814C22.4617 92.2848 23.071 92.2803 23.4724 91.7878C23.8079 91.3769 24.4238 91.3421 24.8078 90.9151C25.0762 90.6168 25.5024 90.4396 25.8864 90.2739C26.074 90.1927 26.3267 90.2598 26.5681 90.2598C27.2946 89.4256 28.1819 88.8573 29.2828 88.6581C30.1485 87.9063 31.3683 87.7887 32.2195 87.0452C32.5024 86.7983 32.8159 86.8571 33.1034 86.6927C34.4392 85.9268 35.8177 85.2401 37.1415 84.4461C38.1852 83.8194 39.3028 83.3116 40.4066 82.7918C41.0925 82.4683 41.6956 82.0553 42.2746 81.5653C43.4804 80.5455 44.6609 79.4984 45.8509 78.4621C47.0699 77.4005 48.264 76.3074 49.4987 75.2694C51.3655 73.7009 52.9855 71.8933 54.7305 70.2087C55.9072 69.073 56.9394 67.7981 58.0669 66.6122C59.0987 65.5262 60.0422 64.3478 61.0309 63.215C62.3158 61.7416 63.5228 60.1979 64.7119 58.6447C66.0531 56.8922 67.2808 55.0556 68.482 53.205C69.6115 51.4657 70.6093 49.642 71.7036 47.8845C72.6745 46.3255 73.6844 44.7805 74.6975 43.243C75.4348 42.123 76.1128 40.9641 76.8517 39.8453C77.7957 38.4171 78.7554 36.9993 79.8071 35.6449C80.2457 35.0795 80.6048 34.457 81.0592 33.8945C81.2783 33.6232 81.4618 33.279 81.7406 33.0698C82.0309 32.8515 82.0554 32.5098 82.2761 32.2592C83.0714 31.3571 83.7664 30.3758 84.5803 29.4803C85.4883 28.4817 86.3084 27.3986 87.242 26.4165C87.4905 26.1551 87.848 25.9766 88.0696 25.7426C88.3268 25.4709 88.4622 25.1035 88.8661 24.9341C89.1672 24.8081 89.0889 24.2767 89.5843 24.2324C89.7433 24.2179 89.88 23.7946 90.0623 23.5713C90.5614 22.96 91.2896 22.6336 91.8214 22.0674C92.3619 21.4912 92.8863 20.8819 93.5055 20.4006C94.488 19.6373 95.3678 18.7529 96.3552 18.0074C97.2959 17.297 98.0982 16.3696 99.2186 15.9389C99.5214 15.8225 99.2973 15.3739 99.6788 15.4576C101.258 14.3632 102.831 13.2577 104.421 12.1796C105.088 11.7273 105.84 11.4079 106.544 11.0206C107.456 10.5182 108.307 9.88199 109.31 9.53324C110.528 9.10992 111.547 8.22187 112.855 8.00193C113.229 7.44856 113.968 7.56495 114.424 7.14909C114.604 6.9859 114.759 7.15199 114.872 7.28081C115.754 6.7088 116.663 6.22915 117.672 5.90111C118.927 5.49312 120.125 4.91075 121.378 4.49241C123.304 3.84915 125.228 3.20383 127.225 2.77761C128.029 2.60572 128.817 2.42803 129.636 2.31619C130.394 2.21264 131.139 1.93057 131.916 1.83986C132.01 1.82909 132.105 1.67211 132.183 1.68495C133.078 1.83572 133.914 1.29395 134.8 1.45548C135.478 1.57892 136.068 1.14856 136.742 1.21152C137.376 1.27034 138.061 1.36477 138.653 1.19537C140.018 0.806017 141.394 0.976253 142.744 1.0475C143.61 1.09347 144.5 1.11501 145.36 1.2459C146.719 1.45217 148.106 1.65264 149.385 2.15093C151.155 2.83933 152.825 3.71371 154.355 4.90454C155.536 5.82282 156.324 6.97057 157.114 8.16969C157.659 8.99477 158.014 9.92176 158.338 10.8239C158.579 11.4957 158.689 12.2636 158.877 12.9781C159.149 14.0074 159.226 15.069 159.511 16.0979C159.669 16.6741 159.683 17.3206 159.725 17.9196C159.905 20.517 160.086 23.1194 160.001 25.7302C159.986 26.2102 159.657 26.5983 159.747 27.1074C159.824 27.5452 159.878 28.0493 159.735 28.4498C159.528 29.028 159.659 29.6236 159.508 30.165C159.347 30.7436 159.394 31.3198 159.295 31.8839C159.087 33.0731 158.641 34.2184 158.633 35.4461C157.779 37.3274 157.517 39.3976 156.688 41.3054C156.079 42.705 155.467 44.1137 154.91 45.5368C154.476 46.6461 153.865 47.6613 153.423 48.7618C153.251 49.1909 152.817 49.5099 152.61 49.898C152.412 50.2691 152.402 50.762 152.19 51.189C152.006 51.5589 151.801 51.8257 151.463 51.9151C151.712 52.6657 150.904 52.9693 150.833 53.5947C150.766 54.1816 150.334 54.7309 150.045 55.288C149.756 55.8467 149.42 56.3827 149.151 56.951C148.867 57.5516 148.566 58.1402 148.256 58.7275C147.966 59.278 147.788 59.8873 147.563 60.4717C147.334 61.0657 146.9 61.5399 146.608 62.1057C146.318 62.6694 146.197 63.2924 145.859 63.8346C145.534 64.3573 145.309 64.943 145.045 65.4906C145.298 65.6902 145.301 65.3957 145.435 65.4048C145.721 65.7159 145.403 65.8832 145.225 66.0112C144.953 66.2067 145.177 66.5083 145 66.7191C144.845 66.9051 144.667 67.1312 144.647 67.3537C144.621 67.6225 144.498 67.8217 144.414 68.0541C144.335 68.2715 144.494 68.6145 144.043 68.5615C143.842 68.7876 143.995 69.0626 143.945 69.3128C143.674 69.4176 143.466 69.5961 143.389 69.9842C143.295 69.7374 143.245 69.6077 143.195 69.4756C142.716 69.7055 142.665 70.2042 142.879 70.4817C143.228 70.9336 142.899 71.2181 142.798 71.4886C142.876 71.8183 143.408 71.61 143.257 72.0813C142.706 72.2052 142.11 72.3315 142.14 73.1181C141.527 73.5629 141.704 74.3574 141.335 74.9364C140.988 75.479 140.997 76.208 140.601 76.7755C140.395 77.0696 140.658 77.4751 140.445 77.84C140.203 78.2554 140.242 78.7744 139.995 79.2375C139.835 79.5378 139.868 80.0038 139.703 80.3927C139.583 80.6773 139.649 81.0409 139.631 81.3781C139.504 81.4058 139.401 81.4286 139.268 81.4572C139.554 81.9998 139.218 82.4898 139.093 82.9852C138.958 83.5191 138.742 84.0538 138.453 84.5202C138.243 84.8561 138.219 85.1954 138.391 85.4323C138.566 85.6746 138.168 85.9335 138.497 86.0884C138.062 86.3601 138.552 87.0046 138.021 87.251C137.776 87.3645 137.883 87.7419 137.625 87.8707C137.902 87.9875 137.772 88.3636 138.024 88.4957C137.717 89.2678 137.717 89.2678 137.355 89.46C137.618 89.9032 137.769 90.3178 137.252 90.7676C136.959 91.0224 137.336 91.6159 136.976 91.9663C137.084 92.0678 137.264 92.2368 137.159 92.3246C136.807 92.6166 137.095 93.0751 136.871 93.3377C136.6 93.6546 136.763 93.9806 136.725 94.2979C136.683 94.6458 136.914 94.9668 136.742 95.3624C136.592 95.7037 136.831 96.1593 136.498 96.5064C136.33 96.6824 136.819 96.7739 136.602 97.0411C136.452 97.2254 136.906 97.459 136.58 97.7564C136.337 97.9789 136.516 98.3955 136.496 98.7244C136.478 99.0235 136.492 99.3242 136.492 99.6257C136.737 99.5889 136.737 99.5889 136.82 99.5135C136.931 99.5698 136.932 99.67 136.948 99.779C136.997 100.121 136.63 100.33 136.698 100.706C136.746 100.969 136.811 101.279 136.598 101.56C136.434 101.775 136.812 101.941 136.733 102.214C136.673 102.422 136.447 102.523 136.483 102.795C136.655 104.09 136.092 105.345 136.278 106.624C136.049 106.808 136.042 106.524 135.916 106.517C135.896 106.537 135.845 106.566 135.846 106.591C135.925 107.847 135.465 109.068 135.594 110.325C135.627 110.643 135.287 110.928 135.578 111.276C135.771 111.508 135.233 111.794 135.549 112.081C135.193 112.379 135.403 112.78 135.369 113.133C135.337 113.47 135.363 113.81 135.363 114.149C135.363 114.526 135.283 114.926 135.384 115.273C135.495 115.652 134.777 115.982 135.362 116.334C134.966 116.61 135.17 117.02 135.144 117.371C135.112 117.782 135.136 118.199 135.136 118.612C135.136 118.989 135.173 119.369 135.128 119.741C135.056 120.35 134.807 120.94 134.913 121.568C135.015 122.17 134.498 122.635 134.699 123.222H134.358C134.434 121.048 134.857 118.891 134.632 116.582" fill="black"/>
</svg>
