<svg width="178" height="197" viewBox="0 0 178 197" fill="none" xmlns="http://www.w3.org/2000/svg">
<path fill-rule="evenodd" clip-rule="evenodd" d="M169.905 98.9579C169.915 98.2198 169.834 97.683 169.727 97.1102C169.552 96.1704 169.24 95.2765 169.031 94.3545C168.714 92.9504 168.092 91.6614 167.595 90.3297C167.432 89.8952 167.277 89.4147 167.011 88.9943C166.755 88.588 166.509 88.1605 166.354 87.6933C166.337 87.642 166.27 87.473 166.069 87.6171C166.119 87.8205 166.108 88.0201 166.238 88.2827C166.731 89.2756 167.043 90.3496 167.447 91.3818C167.881 92.4864 168.228 93.6168 168.536 94.7538C168.7 95.3598 168.893 95.9753 169.067 96.5701C169.282 97.3069 169.357 98.1279 169.905 98.9579M112.047 58.7477C112.357 58.734 112.465 59.0434 112.831 58.9167C113.193 58.7904 113.417 58.5414 113.718 58.3733C114.137 58.1376 114.3 57.7283 114.32 57.3067C114.336 56.948 114.63 57.0739 114.785 56.907C114.813 56.1809 114.776 55.4589 113.999 54.8484C113.383 56.1954 112.263 57.1671 112.047 58.7477M137.834 155.223C136.109 156.065 132.339 159.022 131.825 160.576C132.283 160.288 132.799 160.232 132.958 159.632C133.016 159.412 133.347 159.28 133.485 159.063C133.683 158.753 134.053 159.046 134.275 158.763C134.506 158.469 134.952 158.306 135.095 157.992C135.292 157.56 135.747 157.572 135.992 157.263C136.223 156.971 136.472 156.612 136.792 156.491C137.167 156.349 137.208 155.819 137.627 155.85C138.07 155.882 137.956 155.22 138.394 155.294C138.777 154.848 139.382 154.675 139.74 154.19C139.867 154.017 139.931 153.888 139.748 153.702C139.246 153.776 138.901 154.162 138.538 154.404C138.273 154.366 138.178 154.019 137.901 154.212C137.883 154.231 137.838 154.258 137.837 154.285C137.832 154.585 137.834 154.884 137.834 155.223M147.31 159.685C146.227 160.076 145.627 161.041 144.718 161.616C143.777 162.212 142.918 162.914 142.062 163.616C141.179 164.34 140.334 165.11 139.479 165.856C139.658 165.946 139.894 165.993 140.058 165.825C140.664 165.199 141.709 165.23 142.172 164.4C142.8 164.39 143.083 163.863 143.506 163.536C143.805 163.303 144.173 163.15 144.462 163.172C144.732 162.715 144.99 162.442 145.422 162.243C145.778 162.079 145.978 161.631 146.414 161.533C146.123 160.919 146.17 160.862 147.073 160.616C147.048 160.475 146.828 160.448 146.896 160.159C146.994 160.046 147.152 159.865 147.31 159.685M118.404 126.765C119.744 125.04 120.795 123.175 121.791 121.282C122.991 119.003 124.127 116.69 125.309 114.401C125.441 114.144 125.451 113.954 125.272 113.695C122.801 117.838 120.654 122.114 118.412 126.34C118.353 126.451 118.404 126.622 118.404 126.765M36.0865 67.8274C35.7033 68.2109 35.3198 68.5398 35.0046 68.925C34.6948 69.3028 34.2739 69.5451 33.9451 69.9129C33.5052 70.4054 33.1891 70.9882 32.7062 71.4442C31.7481 72.3484 30.9607 73.3996 30.1415 74.4285C28.8578 76.041 27.8729 77.8362 26.8179 79.5899C26.5748 79.9937 26.3962 80.4369 26.1879 80.8623C29.5988 76.6602 32.514 72.1044 36.1615 68.1144C36.1863 68.0871 36.1296 67.9848 36.0865 67.8274M87.2126 184.55C87.2946 184.888 87.3426 185.089 87.3911 185.289C86.7893 185.318 87.16 186.086 86.5842 186.245C85.9729 186.284 85.2435 186.174 84.5373 186.458C84.2117 186.588 84.2415 186.701 84.3939 186.923C84.9345 186.912 85.4903 187.027 85.9207 186.687C86.1833 186.788 86.0073 187.078 86.2454 187.15C86.9454 187.15 87.7154 187.32 88.357 187.105C89.0661 186.867 89.7359 186.974 90.4197 186.933C91.1305 186.891 91.8462 186.924 92.5599 186.924C92.7476 186.924 92.9356 186.932 93.1224 186.92C93.1862 186.916 93.2471 186.861 93.3092 186.829C93.3129 186.651 93.3788 186.467 93.2657 186.298C92.6005 186.557 92.6183 186.526 92.1664 186.126C91.9283 185.914 92.1822 185.779 92.1395 185.639C92.0148 185.228 91.5547 185.436 91.3351 185.233C91.1293 185.095 91.4917 184.793 91.1214 184.688C90.9644 185.043 91.2639 185.56 90.7084 185.759C90.1099 185.476 90.1099 185.476 89.7119 186.095C89.6928 186.379 90.1402 186.115 90.1323 186.454C89.8531 186.415 89.5317 186.68 89.4518 186.142C89.4277 185.982 88.9936 185.883 88.8528 185.81C88.5919 185.791 88.589 186.066 88.41 185.953C88.1164 185.767 88.0915 185.44 87.9412 185.205C88.0712 185.012 88.2982 184.932 88.3334 184.732C87.9652 184.502 87.8678 185.014 87.5705 184.885C87.4996 184.819 87.4189 184.743 87.2126 184.55M94.3816 155.949C94.416 155.148 94.9536 154.527 95.1362 153.779C95.3603 152.861 95.6615 151.964 95.9054 151.05C96.1133 150.27 96.359 149.507 96.5077 148.706C96.6601 147.885 96.9919 147.103 97.1915 146.283C97.3982 145.435 97.5705 144.569 97.8604 143.745C98.0232 143.283 98.2055 142.836 98.3057 142.35C98.4184 141.803 98.5335 141.24 98.7671 140.74C99.0045 140.232 98.7912 139.561 99.3702 139.176C99.5102 139.084 99.4456 138.833 99.3918 138.659C99.3644 138.572 99.2402 138.439 99.253 138.427C99.7293 137.979 99.5533 137.318 99.8387 136.745C99.6225 136.787 99.4994 136.745 99.4129 137.012C99.0152 138.235 98.5402 139.433 98.1537 140.659C98.0178 141.09 97.7561 141.51 97.8451 141.998C97.3087 142.89 97.2068 143.934 96.9927 144.905C96.7723 145.904 96.4795 146.892 96.2206 147.871C95.6482 150.033 95.186 152.23 94.4561 154.349C94.5858 154.892 93.9914 155.36 94.3816 155.949M21.5335 143.635C21.3977 143.368 21.3194 143.069 21.1284 142.893C21.0232 142.796 20.8555 142.828 20.7896 142.587C20.5225 141.613 20.2499 140.634 19.8796 139.696C19.6903 139.217 19.6307 138.678 19.2571 138.26C18.2564 137.142 17.2834 135.999 16.3034 134.863C16.2115 134.756 16.0545 134.701 16.0553 134.514C16.0561 134.253 15.8072 134.158 15.6577 134.008C15.5268 133.876 15.4361 133.653 15.0923 133.637C15.7724 135.22 16.595 136.631 17.4387 138.028C18.2402 139.354 19.0603 140.669 19.9078 141.965C20.2934 142.555 20.6082 143.178 20.9437 143.793C20.9872 143.872 21.0874 143.92 21.1309 143.957C21.2709 143.845 21.3877 143.752 21.5335 143.635M83.894 80.4547C84.3707 80.3773 84.2494 79.9175 84.5199 79.6901C84.7874 79.4652 85.0074 79.174 85.2199 78.8692C86.0222 77.7177 86.9259 76.6354 87.8012 75.5349C88.4328 74.7417 89.093 73.9555 89.668 73.1375C90.2441 72.3178 90.9309 71.5821 91.4598 70.7343C91.9626 69.9295 92.7923 69.3488 93.0437 68.3737C92.5102 67.996 92.1014 67.9943 91.6772 68.51C91.0638 69.2556 90.5063 70.0479 89.9405 70.8316C89.5462 71.3783 89.219 71.9769 88.7907 72.4934C87.9457 73.5111 87.2759 74.6493 86.5718 75.7544C85.7206 77.091 84.874 78.4318 84.0062 79.7576C83.843 80.0078 83.8037 80.2021 83.894 80.4547M130.253 164.093C130.683 163.654 131.259 163.471 131.784 163.191C132.404 162.86 132.97 162.43 133.582 162.081C133.814 161.949 133.741 161.499 134.143 161.583C134.744 160.497 135.717 159.802 136.708 159.095C136.844 159.188 136.955 159.263 137.059 159.334C137.168 159.23 137.277 159.127 137.382 159.027C137.306 158.944 137.236 158.866 137.167 158.79C137.317 158.525 137.685 158.863 137.817 158.534C137.681 158.482 137.551 158.433 137.421 158.383C137.458 157.696 137.457 157.692 138.089 157.556C138.213 157.529 138.289 157.481 138.286 157.347C138.316 157.161 138.144 157.103 138.064 156.99C138.186 156.733 138.696 156.645 138.465 156.251C137.745 156.483 137.353 157.087 136.819 157.504C136.198 157.989 135.541 158.428 134.946 158.957C134.372 159.468 133.788 159.975 133.195 160.457C132.525 161 131.777 161.45 131.168 162.073C130.957 162.288 130.777 162.597 130.521 162.688C130.18 162.809 129.983 163.051 129.748 163.271C129.497 163.507 129.259 163.756 129.029 163.986C129.476 164.383 129.879 163.534 130.253 164.093M120.893 192.248C121.113 192.399 121.315 192.373 121.525 192.277C122.413 191.873 123.351 191.584 124.263 191.255C125.905 190.66 127.495 189.961 129.075 189.233C131.773 187.991 134.415 186.634 136.968 185.113C138.059 184.463 139.142 183.797 140.193 183.084C141.317 182.321 142.382 181.471 143.503 180.703C144.578 179.966 145.537 179.086 146.573 178.301C147.443 177.642 148.158 176.797 149.096 176.217C149.283 176.102 149.424 175.908 149.578 175.743C149.73 175.58 149.933 175.447 150.013 175.254C149.757 175.109 149.65 175.21 149.545 175.326C149.074 175.845 148.494 176.264 147.94 176.654C146.61 177.589 145.404 178.674 144.106 179.644C143.413 180.162 142.754 180.761 142.034 181.204C140.411 182.204 138.862 183.314 137.232 184.306C135.042 185.64 132.763 186.8 130.54 188.066C130.012 188.367 129.413 188.461 128.904 188.754C127.782 189.4 126.627 189.984 125.407 190.402C124.483 190.72 123.644 191.222 122.687 191.488C122.096 191.652 121.446 191.868 120.893 192.248M9.8485 74.8663C9.98063 74.728 10.0804 74.624 10.1811 74.5188C9.93713 74.3341 9.91974 74.0342 9.77228 73.8122C9.91352 73.3802 10.5253 73.893 10.6206 73.3885C10.5336 73.1975 10.2349 73.381 10.1869 73.1271C10.1186 72.7386 10.4143 72.4772 10.527 72.1575C10.7084 72.1094 10.9117 72.2432 11.0679 72.0651C10.8873 71.8311 10.7303 71.5883 10.9312 71.2955C11.3309 70.7144 11.4423 69.9506 12.0496 69.5033C12.2699 69.3405 12.1788 68.9983 12.4443 68.8745C12.2898 68.3402 12.6775 67.9893 12.9028 67.5983C13.6388 66.3201 14.3579 65.0291 15.1664 63.7972C16.24 62.162 17.3174 60.5192 18.5343 58.9917C19.3735 57.9379 20.1232 56.7943 21.1413 55.8851C21.3012 55.7427 21.3194 55.5882 21.1736 55.4755C17.0651 59.0289 14.2651 63.5205 11.8872 68.3224C11.7468 68.1745 11.6349 68.0088 11.4042 68.1091C11.2253 68.4802 11.0861 68.8861 10.8521 69.2257C10.5626 69.6457 10.5622 70.0115 10.8865 70.33C10.6595 70.7591 10.4669 71.1232 10.2888 71.4604C10.1053 71.4786 9.86962 71.4421 9.8282 71.5154C9.53536 72.0361 9.05033 72.5029 9.315 73.1992C8.80968 73.1648 8.87471 73.6461 8.63157 73.8196C8.81672 74.2007 8.12086 74.4513 8.50773 74.9082C8.78358 75.2341 8.62536 75.5601 8.20702 75.7105C8.15276 75.6558 8.09932 75.6028 8.02394 75.527C8.06329 75.8683 7.55755 76.0033 7.72406 76.3579C7.90962 76.5513 7.97796 76.046 8.17885 76.3794C7.93944 76.9585 7.75098 77.6075 7.41216 78.1654C7.18642 78.5378 7.2353 78.8087 7.32974 79.2246C7.59234 78.7702 7.64909 78.286 8.13909 78.1273C7.98252 77.9699 7.80151 77.8461 8.02311 77.5756C8.22441 77.3292 8.46506 77.3565 8.72145 77.3358C8.81382 77.3288 8.82873 77.2368 8.77654 77.1838C8.64607 77.1374 8.51518 77.091 8.32258 77.0227C8.75418 76.2071 9.04992 75.3551 9.61116 74.629C9.69317 74.711 9.74619 74.764 9.8485 74.8663M19.8697 70.1382C20.7242 69.6669 21.1028 68.8791 21.6773 68.2917C22.1702 67.7876 22.5943 67.1779 23.0333 66.6067C23.508 65.9896 24.0929 65.4801 24.5572 64.8725C25.2427 63.9741 25.9195 63.0744 26.7239 62.2779C26.9372 62.0671 27.2317 61.8869 27.339 61.6301C27.6273 60.9392 28.2643 60.5843 28.7261 60.0661C29.1892 59.5467 29.5011 58.9059 30.0652 58.4656C30.2144 58.3492 30.397 58.367 30.5482 58.1359C31.1724 57.1857 32.1781 56.5462 32.772 55.553C33.2302 55.4892 33.262 55.0021 33.5507 54.7631C33.8436 54.5208 34.0958 54.2292 34.3907 53.9343C33.8469 53.6986 33.7392 54.1762 33.4865 54.3257C32.3757 54.9814 31.3277 55.7456 30.373 56.6121C28.5049 58.3066 26.8386 60.1974 25.2804 62.1748C24.8935 62.6656 24.4346 63.0906 24.0759 63.5897C22.8519 65.2925 21.6594 67.0189 20.4885 68.7585C20.2304 69.1425 19.9761 69.5666 19.8697 70.1382M60.4109 29.5258C59.9768 29.1998 59.7059 29.385 59.4304 29.5888V30.3604C58.7483 30.3948 58.9019 31.2493 58.2736 31.5227C57.7579 31.7476 57.3843 32.298 56.9527 32.6994C57.0612 32.9512 57.4178 32.7591 57.4986 33.0796C57.8772 32.7446 58.1423 32.2409 58.7495 32.3598V31.8254C59.1944 31.7091 59.457 31.3491 59.7618 31.0451C60.0505 30.7568 60.6014 30.7315 60.6287 30.1819C61.1689 30.2333 61.144 29.6074 61.5375 29.4264C61.8904 29.2649 62.1464 28.8871 62.4371 28.5967C62.7453 28.2894 62.9777 27.8914 63.2697 27.6072C63.5642 27.3206 63.768 26.947 64.1043 26.7125C64.4568 26.4673 64.9141 26.3162 65.0731 25.8883C65.2442 25.4293 65.5892 25.2218 66.0076 25.0371C65.8336 24.3139 66.4155 24.277 66.9279 24.1776C66.8107 24.0608 66.7573 24.0074 66.7018 23.9519C66.7158 23.6802 67.0153 23.8935 67.0986 23.7158C67.326 23.2308 67.5326 22.684 67.9866 22.4044C68.4969 22.0909 68.75 21.581 69.1455 21.1871C70.7013 19.6384 72.286 18.1224 73.9229 16.6603C74.0344 16.5609 74.1242 16.3857 74.2485 16.3596C74.9891 16.2043 75.3627 15.5738 75.9012 15.1543C76.4823 14.7011 76.9727 14.1125 77.5762 13.7377C78.4854 13.174 79.373 12.6057 80.0867 11.8518C80.2358 11.9061 80.2478 12.0743 80.3281 12.0341C80.761 11.634 81.0981 11.0752 81.538 10.9766C82.1307 10.8441 82.3072 10.4013 82.8378 10.0654C81.7654 10.1776 81.7654 10.1776 81.1934 10.7356C80.8376 10.4676 80.4686 11.004 80.0527 10.719C79.9558 11.1286 80.0237 11.6824 79.3452 11.6025C79.2119 11.5867 79.112 11.6543 79.0694 11.7479C78.7538 12.4446 78.019 12.6492 77.478 13.0688C77.051 13.3997 76.5916 13.818 76.0043 13.6619C75.7665 14.226 75.4265 14.5723 74.97 14.808C74.8487 14.6949 74.7675 14.6195 74.6718 14.5305C74.5413 14.8188 74.4117 15.1041 74.2791 15.397C73.8881 15.4098 73.5547 15.6045 73.2155 15.7942V16.242C72.8539 16.2954 72.646 16.5654 72.431 16.8065C72.2334 17.0285 71.878 17.0194 71.7695 17.4191C71.6929 17.7028 71.3218 17.907 71.0823 18.146C70.8284 18.2011 70.5373 18.0789 70.2407 18.2753C70.449 18.3569 70.5783 18.4074 70.8632 18.5188C70.2589 18.5391 70.2585 19.0179 69.9851 19.2586C69.5332 19.6558 69.1261 20.1031 68.7003 20.5289C68.8879 20.9854 68.2128 20.7282 68.2339 21.1142C68.2587 21.5624 67.6826 21.096 67.5993 21.4493C67.6631 21.5301 67.7223 21.6046 67.6652 21.533C67.1296 22.0698 66.6322 22.568 66.1351 23.0667C66.0187 23.2229 65.9889 22.7851 65.81 22.9967C65.4927 23.3173 66.324 23.4395 65.9148 23.768C65.764 23.814 65.7599 23.524 65.5681 23.6499C65.4575 23.828 65.6513 24.0964 65.4177 24.2617C65.3018 24.1147 65.1829 23.9647 65.0785 24.0037C64.8312 24.1101 64.8594 24.2323 64.861 24.3404C64.8689 24.8205 64.7749 25.2413 64.2547 25.426C64.2476 25.8887 63.7497 25.8539 63.541 26.1244C63.3123 26.4201 62.9491 26.6231 62.7635 26.937C62.1638 27.9506 61.1854 28.5967 60.4109 29.5258M1.14157 94.4001C0.817252 94.1967 0.855773 93.8396 0.937371 93.5919C1.45388 92.0225 1.71441 90.3885 2.17873 88.8034C2.4227 87.97 2.6269 87.0877 2.73459 86.2034C2.81992 85.503 3.16909 84.8718 3.27429 84.1651C3.38737 83.4047 3.71128 82.6889 3.8782 81.9305C4.01903 81.291 4.38767 80.7178 4.55293 80.065C4.79193 79.1194 5.115 78.1932 5.44926 77.2753C5.66299 76.6884 5.79761 76.0555 6.21885 75.5638C6.32986 75.4346 6.30542 75.2942 6.35264 75.1646C6.55435 74.6091 6.7395 74.0504 7.01039 73.516C7.5766 72.3985 8.03471 71.2259 8.61707 70.1179C9.04039 69.3135 9.41317 68.4885 9.81122 67.6741C10.1948 66.8905 10.5941 66.1138 11.0087 65.3463C11.9804 63.547 13.0329 61.7941 14.208 60.1212C15.1271 58.8123 16.1477 57.5838 17.2118 56.3822C18.0745 55.4088 18.9108 54.4064 19.8891 53.5619C20.6741 52.8843 21.3649 52.089 22.1958 51.4946C22.9795 50.9342 23.7379 50.327 24.5021 49.7504C26.2724 48.4159 28.0912 47.1579 29.9555 45.9704C31.0531 45.2712 32.1731 44.5907 33.2558 43.8766C34.5258 43.0391 35.8815 42.3515 37.1535 41.5182C37.8982 41.0307 38.7349 40.6247 39.5227 40.1782C40.2857 39.7458 41.1037 39.4227 41.8393 38.9427C42.5741 38.4634 43.383 38.0973 44.153 37.7001C44.8775 37.3269 45.5655 36.7611 46.4374 36.682C46.8106 36.0673 47.5449 36.0685 48.0938 35.762C48.6372 35.4584 49.2191 35.1813 49.7381 34.8483C50.2733 34.5049 50.8283 34.1694 51.3672 33.8443C52.4619 33.1844 53.4867 32.4244 54.5731 31.7658C55.2367 31.3636 55.7291 30.7916 56.3393 30.3443C57.5007 29.4927 58.5697 28.4998 59.5481 27.4254C59.9399 26.995 60.3694 26.5924 60.8706 26.3C61.2521 26.0767 61.2641 25.6282 61.5847 25.361C62.1033 24.9294 62.5494 24.4108 63.0357 23.9391C63.1972 23.7821 63.3393 23.6272 63.2966 23.3865C63.5298 23.3612 63.7075 23.3418 63.8719 23.324C64.0451 23.1537 63.7626 23.1744 63.7804 23.0344C63.9614 22.822 64.1026 22.5457 64.4299 22.4459C64.7372 22.3518 64.6829 21.9811 64.9257 21.7931C65.4542 21.383 65.5809 20.553 66.3605 20.3831C66.5775 19.7573 67.106 19.3526 67.4734 18.8328C67.6577 18.5722 67.9033 18.3411 68.2492 18.2649C68.5466 18.1999 68.3486 17.6436 68.7877 17.7045C69.2433 16.6777 70.2651 16.203 71.0488 15.5353C72.3055 14.465 73.4884 13.2933 74.9361 12.4288C75.6601 11.9964 76.2872 11.3374 77.0162 10.8826C78.6556 9.86077 80.2279 8.72544 81.9903 7.90201C82.7185 7.56154 83.3713 7.05828 84.1019 6.72485C85.6519 6.01657 87.2031 5.3058 88.8052 4.71805C89.1051 4.60828 89.3834 4.44219 89.7371 4.50349C90.117 4.56893 90.2495 4.13237 90.5904 4.01929C90.9938 3.88467 91.4225 3.95923 91.833 3.74012C92.0591 3.61917 92.4613 3.59473 92.7243 3.45515C93.5784 3.00118 94.5878 3.09314 95.4307 2.61929C95.7497 2.44035 96.1527 2.5087 96.4928 2.48716C97.6484 2.41385 98.7071 1.81574 99.871 1.89941C100.508 1.94538 101.095 1.8029 101.654 1.55645C101.833 1.47734 102.017 1.3858 102.165 1.44834C102.68 1.66828 103.179 1.44213 103.676 1.41396C104.207 1.38414 104.722 1.16958 105.278 1.20396C105.841 1.23834 106.451 1.34603 106.963 1.18201C107.88 0.888342 108.791 1.00887 109.702 1.00101C110.158 0.997277 110.654 0.798461 111.088 1.20065C111.316 1.41189 111.508 0.712721 111.849 1.0855C112.052 1.30669 112.281 1.24207 112.543 1.10621C112.782 0.981952 113.06 1.38456 113.29 1.19775C113.517 1.01426 113.886 0.867218 113.968 1.00349C114.175 1.34562 114.491 0.87633 114.64 1.17083C114.652 1.19444 114.704 1.21308 114.734 1.20935C115.735 1.09006 116.682 1.53284 117.692 1.46284C118.282 1.42183 118.913 1.5639 119.483 1.75112C120.029 1.93089 120.596 2.00089 121.142 2.08538C122.094 2.2316 122.961 2.65905 123.906 2.79408C124.162 2.83095 124.224 3.45846 124.635 3.03639C124.842 3.36237 125.185 3.16935 125.447 3.25923C125.643 3.3255 125.794 3.52183 126.013 3.69953C126.543 3.64941 127.036 3.89337 127.579 4.10958C128.619 4.52337 129.637 4.98189 130.608 5.51953C131.944 6.25846 133.333 6.94355 134.402 8.0768C134.622 8.31041 134.893 8.11905 135.107 8.30254C136.355 9.3687 137.707 10.3031 138.764 11.5992C139.207 12.1414 139.865 12.5427 140.323 13.0953C141.244 14.2049 142.307 15.182 143.077 16.4412C143.534 17.1884 144.124 17.8872 144.611 18.6385C145.62 20.1988 146.569 21.7956 147.182 23.5592C147.64 24.878 148.127 26.1873 148.48 27.5447C148.601 28.0115 148.556 28.499 148.71 28.9153C148.869 29.3469 148.917 29.7573 148.897 30.1881C148.881 30.529 149.22 30.7361 149.151 31.1151C149.098 31.4108 149.034 31.7509 149.324 32.0599C149.456 32.2015 149.355 32.5631 149.356 32.8253C149.358 33.2018 149.414 33.5908 149.339 33.9511C149.276 34.2473 149.754 34.4958 149.373 34.7779C149.729 35.0674 149.549 35.4675 149.577 35.8208C149.603 36.1576 149.583 36.498 149.583 36.8369V37.9668C149.583 38.3052 149.495 38.6751 149.601 38.9766C149.807 39.5582 149.651 40.1521 149.777 40.7424C149.915 41.3906 149.831 42.0922 149.802 42.7686C149.776 43.3589 150.13 43.8737 150.051 44.4847C149.975 45.0774 149.898 45.7302 150.071 46.2786C150.265 46.8982 150.073 47.5609 150.312 48.094C150.598 48.7294 150.323 49.354 150.498 49.9397C150.882 51.2171 150.848 52.5724 151.198 53.8328C151.639 55.4237 151.881 57.0594 152.402 58.6359C152.741 59.6618 153.114 60.6812 153.452 61.7076C153.788 62.7244 154.331 63.6796 154.838 64.6318C155.473 65.8231 156.238 66.9323 157.057 68.0096C157.88 69.0907 158.857 70.0338 159.693 71.0975C160.074 71.5821 160.537 71.986 160.906 72.4863C161.304 73.026 161.912 73.4096 162.312 73.9476C163.314 75.2938 164.666 76.3454 165.52 77.8105C167.057 79.2651 168.022 81.1601 169.333 82.7908C169.986 83.6031 170.412 84.5967 170.953 85.5001C171.853 87.0008 172.595 88.5805 173.352 90.1545C174.049 91.6017 174.609 93.0999 175.109 94.6229C175.469 95.7176 175.775 96.8306 176.155 97.9183C176.309 98.3594 176.092 98.8772 176.468 99.2561C176.427 100.314 176.997 101.282 176.92 102.345C177.267 102.96 177.169 103.636 177.129 104.284C177.099 104.778 177.485 105.148 177.39 105.663C177.303 106.136 177.233 106.694 177.402 107.116C177.708 107.884 177.576 108.646 177.588 109.407C177.618 111.176 177.619 112.946 177.585 114.715C177.575 115.296 177.769 115.899 177.458 116.465C177.185 116.963 177.566 117.56 177.224 118.065C177.1 118.249 177.45 118.367 177.382 118.617C177.249 119.105 177.531 119.627 177.204 120.13C176.95 120.519 177.335 121.068 176.958 121.498C176.731 121.757 177.494 122.126 176.922 122.42C177.017 123.05 176.797 123.641 176.693 124.246C176.607 124.747 176.839 125.261 176.536 125.765C176.278 126.194 176.68 126.799 176.242 127.222C176.406 127.969 175.976 128.645 175.994 129.388C176.007 129.947 175.855 130.52 175.715 131.072C175.499 131.926 175.307 132.787 175.137 133.649C175.074 133.967 174.982 134.265 174.887 134.568C174.834 134.736 174.65 134.815 174.652 135.039C174.664 136.449 174.143 137.754 173.722 139.058C173.469 139.844 173.286 140.671 172.886 141.424C172.778 141.629 172.787 142.007 172.615 142.206C172.111 142.794 171.988 143.539 171.751 144.224C171.621 144.602 171.475 144.943 171.249 145.26C171.207 145.321 171.099 145.367 171.098 145.421C171.083 146.429 170.425 147.18 170.042 148.036C169.672 148.863 169.147 149.623 168.799 150.458C168.098 152.142 167.056 153.644 166.291 155.293C166.042 155.831 165.68 156.317 165.447 156.698C165.322 157.073 165.663 157.103 165.611 157.396C165.557 157.653 165.297 157.759 164.948 157.846C165.102 158.67 164.476 159.21 164.109 159.827C163.239 161.286 162.304 162.71 161.317 164.092C160.667 165.001 160.041 165.923 159.275 166.761C156.848 169.416 154.322 171.972 151.729 174.458C150.74 175.405 149.75 176.363 148.712 177.257C147.831 178.017 146.946 178.789 146.021 179.488C143.859 181.122 141.694 182.755 139.409 184.226C137.663 185.35 135.857 186.363 134.051 187.383C132.894 188.036 131.713 188.635 130.506 189.189C128.576 190.074 126.631 190.917 124.661 191.715C122.808 192.464 120.831 192.801 119.023 193.648C117.794 193.651 116.723 194.415 115.486 194.38C114.962 194.739 114.319 194.678 113.744 194.788C113.154 194.901 112.57 195.174 111.923 195.076C111.628 195.031 111.361 195.353 111.001 195.295C110.701 195.247 110.371 195.232 110.103 195.454C109.828 195.099 109.656 195.637 109.355 195.533C109.053 195.427 108.647 195.412 108.354 195.529C107.637 195.816 106.852 195.547 106.196 195.779C105.485 196.031 104.784 195.785 104.136 195.984C103.34 196.229 102.598 195.793 101.828 195.95C101.761 195.964 101.662 195.821 101.576 195.749C101.412 195.816 101.493 195.997 101.391 196.164C101.138 196.023 100.895 195.814 100.62 195.752C100.297 195.68 99.9459 195.735 99.5516 195.735C99.3648 195.963 99.1532 196.221 98.9676 196.447C98.5161 196.339 98.1649 196.494 97.7855 196.298C97.6198 196.212 97.2114 196.376 96.9144 196.429C96.5259 196.498 96.1838 196.059 95.9079 196.247C95.5401 196.498 95.1909 196.404 94.8401 196.405C91.5642 196.419 88.2883 196.418 85.0128 196.406C84.6619 196.405 84.2585 196.569 83.9686 196.206C83.6099 196.759 83.2864 196.095 82.9173 196.168C82.5785 196.236 82.2256 196.096 81.8739 196.004C81.2746 195.848 80.6044 195.976 79.9649 195.956C79.537 195.943 79.1203 196.021 78.6871 195.761C78.3416 195.554 77.8587 195.707 77.4146 195.594C76.8795 195.457 76.3104 195.271 75.7272 195.28C75.332 195.286 74.9535 195.297 74.5658 195.08C74.2775 194.918 73.821 195.211 73.5423 194.832C72.7735 194.877 72.0818 194.551 71.3545 194.392C69.6045 194.009 67.8967 193.494 66.2076 192.905C64.7923 192.412 63.3683 191.942 61.9583 191.436C61.501 191.271 61.0446 191.087 60.6031 190.892C59.0117 190.186 57.3901 189.516 55.8919 188.641C54.5574 187.861 53.1843 187.141 51.88 186.301C51.1866 185.854 50.3901 185.541 49.664 185.119C47.9538 184.126 46.2738 183.087 44.6464 181.962C43.2194 180.975 41.7652 180.026 40.5416 178.773C40.2202 178.443 39.8048 178.207 39.4614 177.897C39.0708 177.544 38.7573 177.087 38.3277 176.8C37.7686 176.427 37.3486 175.909 36.8217 175.524C36.4125 175.225 36.4589 174.585 35.8164 174.451C35.3496 174.354 35.3355 173.59 34.7859 173.456C34.6003 172.759 33.8179 172.611 33.4824 171.987C33.1577 171.383 32.5099 170.954 32.0037 170.448C31.4971 169.942 30.9272 169.483 30.4968 168.917C29.7049 167.876 28.6731 167.058 27.8712 166.047C27.1058 165.083 26.1262 164.283 25.5662 163.169C25.4336 162.905 25.1996 163.014 25.0497 162.846C24.8935 162.672 24.9159 162.436 24.7477 162.285C24.0639 161.67 23.501 160.945 22.9273 160.234C22.1122 159.223 21.3227 158.185 20.5017 157.184C19.2252 155.627 18.1172 153.964 17.0162 152.29C16.2989 151.2 15.6204 150.084 14.9307 148.976C14.1297 147.689 13.3178 146.409 12.5449 145.106C11.9564 144.112 11.4345 143.079 10.8575 142.079C10.3998 141.286 9.91145 140.511 9.42228 139.736C8.74548 138.666 8.10595 137.57 7.43867 136.499C6.48808 134.974 5.65761 133.397 4.88761 131.786C4.4995 130.974 4.10311 130.161 3.81565 129.29C3.63506 128.744 3.40642 128.168 3.14631 127.654C2.61447 126.603 2.39453 125.475 2.03707 124.381C1.91116 123.996 1.89252 123.606 1.79684 123.235C1.70696 122.888 1.65311 122.543 1.58228 122.195C1.37021 121.154 1.35157 120.073 0.959738 119.068C0.934471 119.003 0.917075 118.926 0.92453 118.858C1.05956 117.67 0.589028 116.529 0.681809 115.335C0.764649 114.273 0.316069 113.231 0.470152 112.154C0.0845305 111.544 0.371572 110.847 0.229501 110.218C-0.152807 108.523 0.0675482 106.813 0.0269565 105.112C-0.0128068 103.418 0.0232287 101.724 0.0166015 100.029C0.0116311 98.8279 0.314826 97.6669 0.502874 96.4938C0.543051 96.2404 0.717016 95.9699 0.692992 95.6787C0.651158 95.1812 0.823051 94.767 1.14157 94.4001" fill="black"/>
</svg>
