<svg width="123" height="172" viewBox="0 0 123 172" fill="none" xmlns="http://www.w3.org/2000/svg">
<path fill-rule="evenodd" clip-rule="evenodd" d="M4.45617 54.9947C4.38203 54.7172 4.24038 54.5677 3.97901 54.6182C3.52919 54.7048 3.27736 54.9815 3.25168 55.4462C3.23759 55.701 3.38754 55.7502 3.59961 55.7126C4.03535 55.6351 4.23748 55.295 4.45617 54.9947M2.15529 136.822C2.59972 135.572 2.88759 134.283 3.2612 133.016C2.5289 134.177 2.13251 135.439 2.15529 136.822M5.44901 52.4031C7.30298 50.4041 9.23771 48.4843 11.2027 46.5943C8.81481 48.0685 6.97038 50.0765 5.44901 52.4031M41.9874 32.6192C45.815 30.8878 48.9985 28.2941 52.0371 25.4991C48.8672 27.8807 45.7015 30.2649 42.3175 32.3417C42.1965 32.4162 42.0971 32.526 41.9874 32.6192M85.763 128.813C84.6505 132.614 82.442 135.838 81.3303 139.527C82.7286 138.541 86.3392 130.051 85.763 128.813M40.8682 166.602C41.6146 166.602 42.368 166.667 43.1065 166.59C46.1327 166.279 49.1191 165.705 52.105 165.14C56.5353 164.301 60.6219 162.419 64.8144 160.874C66.7487 160.16 68.599 159.188 69.9095 157.472C74.2404 151.801 77.7271 145.697 80.2024 138.958C82.1781 133.581 84.7487 128.424 86.8603 123.093C88.368 119.287 89.3301 115.3 89.7613 111.208C90.1204 107.799 89.9187 104.38 89.9432 100.964C89.963 98.1549 89.9133 95.3479 90.0902 92.5297C90.2145 90.5448 89.7692 88.4771 89.599 86.4438C89.2987 82.8634 89.3529 79.3274 90.441 75.8543C91.445 72.6501 92.8061 69.5991 94.4961 66.7166C97.9169 60.8805 102.205 55.6815 106.703 50.6618C109.119 47.9662 111.489 45.244 113.487 42.2224C117.163 36.6626 118.926 30.5221 118.774 23.8733C118.656 18.6755 116.379 14.64 111.895 11.8979C104.1 7.13214 95.8708 5.60705 87.0367 8.50936C80.1949 10.7572 74.1033 14.3289 68.5306 18.8652C65.055 21.6946 61.8819 24.862 58.4158 27.6997C53.6952 31.5655 48.8991 35.316 43.3393 37.9446C39.0366 39.9791 34.5139 41.4102 29.9652 42.7555C26.082 43.9041 22.3791 45.4544 18.8807 47.4894C14.8431 49.8379 11.4334 52.8426 9.07327 56.9361C8.79286 57.4236 8.78209 57.4174 8.14339 57.4307C7.94955 57.4348 7.93753 57.5959 7.87251 57.7252C7.28185 58.9036 6.89623 60.1329 6.88049 61.4654C6.86972 62.3655 7.21724 63.6528 6.90907 64.086C5.91955 65.4761 6.66469 66.8227 6.84694 67.994C7.07351 69.4471 7.45416 70.9547 7.89943 72.4107C9.01653 76.0656 10.3001 79.655 12.1206 83.0126C13.7898 86.0926 15.4068 89.1999 15.8885 92.6883C16.0277 93.6994 17.2463 94.8537 15.9457 95.9336C15.9453 95.934 16.0368 96.0346 16.0758 96.0947C16.7662 97.1588 17.115 98.36 17.1676 99.5939C17.2185 100.773 17.6398 101.874 17.6903 103.04C17.7719 104.92 18.4694 106.748 18.0664 108.679C17.8833 109.558 17.926 110.491 17.9243 111.399C17.9206 113.421 17.2355 115.347 17.1295 117.374C17.0897 118.133 16.4266 119.098 16.0613 119.967C14.7516 123.084 12.4283 125.457 10.39 128.058C8.47227 130.504 6.31759 132.901 6.11588 136.255C6.03469 137.608 5.63209 139.035 6.33002 140.305C8.20759 143.717 9.19505 147.584 11.771 150.643C13.7757 153.024 15.1219 155.909 17.5644 157.977C19.9531 160 22.2337 162.178 24.9931 163.672C26.3475 164.406 27.721 165.157 29.3111 165.508C33.1317 166.351 36.9751 166.656 40.8682 166.602M72.4875 9.1493C72.6983 9.08551 72.9265 9.05362 73.1175 8.95214C77.887 6.41557 82.8578 4.4067 88.1298 3.1732C88.3203 3.12847 88.5817 3.1351 88.6947 2.84226C88.3381 2.8932 88.003 2.93297 87.6708 2.99054C83.2936 3.75184 79.2361 5.42232 75.2949 7.40054C74.3141 7.89303 73.2405 8.27534 72.5074 9.1725C71.3323 9.25451 70.6149 10.2461 69.598 10.6541C69.4199 10.7253 69.2277 11.0492 69.4994 11.3243C69.5897 11.4154 69.7144 11.4742 69.7703 11.3669C70.3622 10.2382 71.7978 10.15 72.4875 9.1493M59.1635 26.3188C60.5278 25.4701 61.6135 24.3107 62.697 23.1501C61.5302 24.2175 60.1203 25.0182 59.1854 26.342C58.1893 26.6949 57.5526 27.5038 56.8414 28.2171C57.7452 27.7457 58.521 27.1144 59.1635 26.3188M89.2701 134.853C88.4781 137.019 87.7197 139.173 86.1168 140.957C85.148 142.035 84.3755 143.332 83.7364 144.639C83.5048 145.114 83.0794 145.257 82.8371 145.682C82.2717 146.672 82.0642 147.791 81.3402 148.753C79.7082 150.922 78.0974 153.1 76.3938 155.218C75.2697 156.616 74.2176 158.084 73.0495 159.449C70.8729 161.991 68.0949 163.696 65.0111 164.91C61.4478 166.313 57.9179 167.836 54.2755 168.999C47.4875 171.167 40.5592 172.04 33.389 171.185C29.0693 170.67 24.8622 169.854 21.1601 167.648C15.2395 164.119 10.3585 159.42 6.91114 153.358C6.78191 153.131 6.61582 152.924 6.46049 152.713C5.05138 150.797 3.77937 148.817 3.13239 146.483C2.8118 145.328 2.33836 144.22 1.81564 143.131C0.265286 139.9 0.563097 136.647 1.81523 133.406C3.07564 130.145 5.18061 127.376 7.53369 124.921C10.6779 121.641 12.1533 117.836 12.623 113.439C13.06 109.349 12.3422 105.388 11.6136 101.412C11.1666 98.9726 10.7669 96.523 10.2869 94.09C9.51233 90.1679 7.70807 86.672 5.85535 83.1675C3.44345 78.6042 1.59984 73.8003 0.485227 68.7346C-0.447554 64.4957 0.0122095 60.3334 1.4557 56.3368C2.28742 54.0342 3.36848 51.7743 5.12055 49.9092C6.82623 48.0929 8.54724 46.3143 10.5814 44.8638C15.4702 41.3766 20.8598 38.9304 26.5741 37.1497C33.0982 35.1168 39.452 32.7115 45.0264 28.6163C49.1568 25.5819 53.0867 22.3072 56.8613 18.8428C62.0011 14.1255 67.3845 9.73415 73.6058 6.4864C79.6366 3.33847 85.9353 0.888057 92.8289 0.951016C103.205 1.04587 112.088 4.71238 118.382 13.2466C123.036 19.559 123.79 26.7922 122.269 34.3439C121.995 35.7075 121.717 37.0706 121.398 38.4242C120.58 41.9014 119.165 45.0986 117.088 48.0312C115.877 49.7402 114.572 51.3767 113.36 53.0675C111.938 55.0519 110.354 56.8702 108.716 58.643C106.82 60.6962 105.14 62.8994 103.543 65.1804C102.987 65.9748 102.105 66.4569 101.567 67.3118C99.5332 70.5447 97.4182 73.7295 95.9661 77.2854C95.182 79.2048 94.3826 81.0766 94.2281 83.2395C94.134 84.5658 94.2148 85.8875 94.0993 87.2055C93.9261 89.1796 94.2666 91.1251 94.5806 93.0545C94.7011 93.795 93.8031 94.3944 93.9965 94.4462C95.0432 94.7241 94.3072 95.3123 94.3287 95.7397C94.3411 95.9924 94.1808 96.2699 94.238 96.5018C95.2097 100.445 94.7897 104.471 94.8726 108.454C94.9496 112.15 95.2727 115.917 94.2732 119.541C93.9083 120.862 93.6424 122.219 93.2576 123.54C92.7958 125.124 91.9437 126.61 91.8017 128.263C91.6016 130.591 90.4249 132.543 89.5774 134.624C89.531 134.738 89.3591 134.802 89.244 134.893C89.3525 133.653 90.3677 132.729 90.4033 131.454C89.5335 133.303 88.4475 135.054 87.9968 137.092C88.4214 136.346 88.8455 135.6 89.2701 134.853" fill="black"/>
<path fill-rule="evenodd" clip-rule="evenodd" d="M51.0576 44.4205C53.4877 42.9944 55.458 41.0402 57.3025 38.9427C55.2286 40.778 53.1899 42.6527 51.0576 44.4205V44.4205ZM65.1048 32.2152C65.024 32.1291 64.9433 32.0429 64.8625 31.9568C62.7331 33.9023 60.4264 35.6494 58.5774 37.9088L65.1048 32.2152ZM16.1524 135.303C14.9044 136.542 14.3361 140.384 15.155 141.175C15.3886 139.229 15.3948 137.211 16.1524 135.303V135.303ZM25.5999 57.9085C22.6719 59.893 20.0588 62.1694 18.7938 65.6338C20.8072 62.8326 23.019 60.2115 25.5999 57.9085V57.9085ZM69.1031 28.6858C73.9985 24.8511 79.1321 21.4472 84.8763 19.0316C81.1133 19.5299 70.6754 26.4276 69.1031 28.6858V28.6858ZM67.3812 120.147C66.2115 122.483 65.4867 124.986 64.7979 127.482C64.0933 130.035 63.1423 132.5 62.3172 135.006C61.5373 137.375 60.4102 139.63 59.436 141.936C63.6054 135.212 65.1603 127.564 67.3812 120.147V120.147ZM25.4968 82.643C25.5163 82.4992 25.4844 82.2921 25.5664 82.2254C25.7147 82.1045 25.7913 82.2888 25.8899 82.3978C26.169 82.7043 26.0386 83.1669 26.4213 83.4739C27.1275 84.0392 27.6134 84.7508 27.965 85.6497C28.2649 86.4159 29.0834 86.973 29.6413 87.6482C29.766 87.7985 29.9221 88.0528 29.7614 88.2666C29.4628 88.663 29.7022 88.793 30.0311 88.8862C30.4374 89.0005 30.6524 89.3079 30.7903 89.662C31.2882 90.9378 31.9509 92.1493 32.0992 93.5547C32.1948 94.4614 32.3411 95.5449 32.677 96.2064C33.6122 98.0496 33.6462 99.993 33.5576 101.839C33.4772 103.511 33.1558 105.223 33.2328 106.898C33.2991 108.345 32.5714 109.524 32.3688 110.871C32.1236 112.502 30.9928 113.926 30.77 115.621C30.6325 116.663 29.5332 117.454 29.5427 118.278C29.5643 120.185 27.8756 121.211 27.5773 122.93C27.4825 123.477 27.2584 124.296 26.7829 124.816C25.8058 125.884 25.52 127.362 24.5081 128.425C23.234 129.765 22.5725 131.558 21.214 132.888C20.398 133.687 19.7601 134.718 19.046 135.637C18.399 136.469 18.457 137.759 18.2433 138.858C17.9335 140.45 18.8468 141.69 19.2589 143.088C20.2439 146.429 22.2967 149.191 24.6999 151.419C29.3932 155.772 35.0143 157.202 41.2642 154.924C41.8988 154.693 42.5325 154.46 43.1724 154.245C46.9251 152.985 50.167 150.902 53.1783 148.346C57.119 145.001 58.985 140.337 61.1682 135.921C61.932 134.377 62.229 132.484 62.8056 130.769C63.2003 129.595 63.6253 128.423 63.897 127.218C64.1708 126.003 64.544 124.823 64.9076 123.639C65.2705 122.456 65.7816 121.314 66.069 120.117C66.325 119.051 66.849 118.099 67.0698 116.995C67.3647 115.519 67.8464 114.049 68.2473 112.575C69.6888 107.277 70.7669 101.909 71.4164 96.4528C71.7763 93.4292 72.0385 90.3769 72.6648 87.4046C74.6877 77.7981 79.1114 69.3102 85.2043 61.6819C87.9277 58.2726 90.8167 54.9946 93.6677 51.6889C97.7501 46.9558 99.9652 41.3223 101.634 35.4124C102.672 31.7381 102.492 28.108 101.144 24.562C100.374 22.5411 99.2288 20.8537 96.8115 20.4548C94.5607 20.0833 92.3646 20.6163 90.2364 21.0098C88.9711 21.2443 87.5926 21.8461 86.3227 22.4604C83.2762 23.9345 80.1863 25.3266 77.5374 27.4722C76.9066 27.9825 76.1213 28.0508 75.4909 28.5607C74.684 29.2131 74.1203 30.0941 73.2401 30.6802C72.7348 31.0161 72.1292 31.0488 71.6633 31.4796C68.7083 34.2092 65.3682 36.5051 62.7012 39.5652C61.7754 40.6281 60.6318 41.4983 59.6232 42.4924C55.8362 46.2231 51.4291 49.0144 46.4645 50.8381C40.3782 53.074 34.6983 56.0711 29.3849 59.7331C27.3532 61.1331 25.177 62.4536 23.7203 64.5821C22.8757 65.8169 21.7897 67.0756 21.658 68.4901C21.4625 70.5823 21.2496 72.7672 21.962 74.8514C22.1339 75.3543 21.8274 76.0551 21.9343 76.227C22.3464 76.8868 22.5949 77.6332 23.0414 78.2661C24.0057 79.6342 25.3353 80.8035 25.4968 82.643V82.643ZM24.3412 122.991C24.6618 122.87 24.7413 122.549 24.8519 122.293C25.9048 119.855 27.043 117.447 27.7476 114.875C28.1597 113.37 28.8829 111.937 28.8593 110.323C28.1315 113.177 26.8632 115.837 25.9624 118.627C25.4844 120.107 24.5901 121.438 24.3652 123.013C23.0783 124.71 22.4466 126.749 21.4061 128.575C22.5067 126.777 23.8002 125.077 24.3412 122.991V122.991ZM72.1106 116.208C72.0659 115.933 72.1089 115.689 71.8351 115.551C71.7867 115.974 71.4466 116.377 72.0058 116.747C72.3309 116.962 72.0253 117.312 71.942 117.572C71.1927 119.912 70.4641 122.261 69.7405 124.604C69.0521 126.835 68.2299 129.035 67.7138 131.32C67.455 132.467 66.8987 133.498 66.4775 134.58C66.2836 135.077 66.1204 135.551 66.1204 136.091C66.12 137.19 66.0438 137.219 65.0282 136.641C64.9432 136.593 64.8148 136.622 64.6777 136.613C64.6777 136.736 64.6401 136.857 64.6831 136.929C65.3309 138.004 65.1938 139.294 64.433 140.33C63.9309 141.013 63.4741 141.704 63.257 142.602C62.9311 143.954 62.0045 145.018 60.9284 145.906C60.8306 145.987 60.6082 145.95 60.5979 146.138C60.5374 147.252 59.6406 147.786 58.9643 148.45C58.3185 149.083 57.5224 149.546 56.9156 150.241C55.8772 151.433 54.7092 152.419 53.286 153.212C52.629 153.578 51.9618 154.274 51.2303 154.56C48.5276 155.62 45.8776 156.805 43.1401 157.793C38.5147 159.462 33.961 158.972 29.3704 157.858C26.6698 157.203 24.2285 155.995 21.9968 154.335C21.1435 153.701 20.4531 152.928 19.7518 152.144C17.0724 149.15 15.194 145.722 14.2504 141.825C13.6461 139.33 14.0272 136.89 15.2772 134.643C15.6061 134.052 15.8592 133.277 16.9688 133.411C17.4522 133.469 17.9318 132.57 18.3067 131.999C20.9572 127.964 23.1122 123.679 24.8477 119.176C26.6748 114.437 28.269 109.648 28.8846 104.56C29.3315 100.867 28.8324 97.3256 27.9323 93.7618C27.2116 90.9075 25.7221 88.5213 24.0214 86.1976C22.7469 84.4568 21.607 82.6181 20.3487 80.8648C19.9026 80.2435 20.4655 79.8471 20.5976 79.0481C19.9088 79.9846 19.7957 79.7966 19.5025 79.0262C19.2092 78.2562 18.6716 77.5371 18.247 76.7907C17.3391 75.1927 16.8201 73.4506 16.8027 71.6554C16.7961 70.9745 16.4403 70.4062 16.5322 69.7617C16.6478 68.9491 16.7046 68.1157 16.9344 67.3341C17.3403 65.9519 17.5951 64.4947 18.9462 63.5562C19.3194 63.2969 19.0978 62.4925 19.5219 62.0373C21.337 60.0885 23.046 58.0117 25.3158 56.5665C30.7161 53.1278 36.3725 50.199 42.2976 47.7312C46.4231 46.0127 50.3617 43.8418 53.6132 40.6492C58.398 35.9513 63.431 31.5293 68.6089 27.2742C73.5176 23.2407 78.7772 19.7792 84.8088 17.6134C87.3412 16.7042 89.9378 16.1645 92.6214 15.9794C96.4519 15.7151 99.3203 17.4585 101.546 20.3541C105.82 25.9156 106.823 32.1746 105.178 38.9054C104.073 43.4322 102.445 47.773 100.148 51.8363C99.0701 53.7433 98.0429 55.6735 96.2647 57.1244C95.4164 57.8166 94.9621 58.9854 94.3101 59.9249C92.0805 63.1366 89.2755 65.8906 87.0562 69.1218C86.0679 70.5603 85.2325 72.0779 84.3009 73.5425C82.268 76.7389 80.8801 80.2667 79.3517 83.7066C78.0105 86.7249 77.5254 90.0232 77.0421 93.2921C76.5218 96.814 75.9709 100.333 75.3712 103.842C75.0249 105.869 74.7834 107.962 74.0623 109.861C73.5615 111.181 73.5429 112.586 72.9435 113.865C72.5993 114.599 72.9692 115.603 72.1106 116.208V116.208Z" fill="black"/>
<path fill-rule="evenodd" clip-rule="evenodd" d="M59.6331 101.761C59.7457 101.821 59.8588 101.88 59.9715 101.94C60.3335 100.979 61.3623 100.296 60.8889 98.9842C60.4702 99.91 60.0518 100.836 59.6331 101.761V101.761ZM38.0623 65.6381C35.7133 66.0793 33.3044 68.2911 33.5491 69.7897C34.6865 67.9324 36.3351 66.7424 38.0623 65.6381V65.6381ZM57.9659 51.4414C57.8971 51.3499 57.828 51.2587 57.7592 51.168C54.6295 53.8806 51.4994 56.5936 48.3701 59.3067C48.4364 59.3841 48.5031 59.4616 48.5697 59.5394L57.9659 51.4414ZM67.0013 42.8099C69.9433 40.6374 72.967 38.5908 76.2168 36.8884C79.5019 35.1674 82.825 33.5309 86.1949 32.0046C79.3482 34.8009 72.5826 37.7479 67.0013 42.8099V42.8099ZM45.8613 130.66C46.6528 129.37 47.6133 128.232 48.2591 126.821C49.7208 123.629 51.4174 120.543 52.8083 117.312C54.8813 112.497 57.0629 107.733 59.6206 103.152C59.7805 102.864 59.9292 102.576 59.5047 102.16C54.4174 111.482 50.8006 121.39 45.8613 130.66V130.66ZM67.2983 47.7832C65.972 48.3767 65.3163 49.6595 64.3645 50.6383C63.1144 51.3648 62.4231 52.6732 61.3106 53.5509C59.3924 55.064 57.4233 56.5286 55.629 58.1804C51.9157 61.5997 47.8155 64.3922 43.2688 66.59C41.5809 67.4064 39.6118 67.5807 38.1696 68.9923C37.2873 69.8555 36.2149 70.5535 36.1354 71.9054C36.0174 73.9085 36.3305 75.8441 37.2956 77.6446C39.08 80.9731 41.4836 83.8829 43.5844 86.9972C45.7677 90.2338 47.7186 93.5271 48.2156 97.5577C48.6903 101.413 48.4045 105.235 48.1779 109.063C48.1319 109.838 47.6071 110.577 47.5786 111.475C47.5392 112.73 47.5264 114.124 46.7299 115.151C45.293 117.006 44.8167 119.268 43.876 121.327C43.5678 122.002 43.7567 122.997 43.164 123.514C42.3729 124.203 42.16 125.111 41.7814 125.978C41.6339 126.317 41.4289 126.657 41.1692 126.915C40.3122 127.767 39.7725 128.892 39.1757 129.864C38.0039 131.773 36.6996 133.463 35.0535 134.961C34.5793 135.393 33.83 135.34 33.545 136.013C33.26 136.686 32.7361 137.183 32.1868 137.647C31.626 138.12 31.3394 138.739 31.1165 139.464C31.5278 139.582 31.7933 139.414 32.0642 139.315C33.7683 138.69 35.2254 137.589 36.871 136.841C39.7576 135.528 42.1927 133.623 44.1208 131.077C45.5635 129.171 46.5426 127.015 47.5752 124.889C49.6214 120.674 51.7007 116.473 53.6197 112.2C54.6945 109.806 55.8125 107.437 57.002 105.104C58.9786 101.227 60.7398 97.2504 62.4562 93.2587C63.831 90.0619 64.9688 86.7661 65.7135 83.349C66.363 80.3655 67.4954 77.5377 68.6026 74.705C70.7104 69.3113 72.8548 63.9391 76.3299 59.2222C79.4522 54.9841 82.6146 50.7745 85.4361 46.3219C87.5419 42.9983 89.3698 39.5584 90.267 35.6943C90.3631 35.2797 90.6704 34.7358 90.3179 34.431C90.0193 34.1725 89.5322 34.5122 89.1548 34.6613C85.1984 36.227 81.3898 38.0913 77.7047 40.224C77.039 40.6092 76.4475 41.4803 75.429 41.0545C75.2853 40.9944 74.985 41.1961 75.0724 41.3688C75.381 41.9794 74.782 41.9719 74.5526 42.1235C73.1033 43.0816 71.6726 44.0628 70.259 45.0739C69.1531 45.8646 68.3847 46.9916 67.2983 47.7832V47.7832ZM38.0946 125.901C38.4139 125.878 38.5055 125.619 38.6227 125.39C40.1055 122.479 41.2052 119.4 42.5518 116.431C43.1975 115.006 42.9768 113.296 44.0616 112.029C44.2471 111.812 44.1887 111.598 43.9299 111.487C43.5902 111.341 43.4075 111.568 43.3694 111.845C43.222 112.927 42.7051 113.877 42.346 114.885C41.4206 117.48 40.6278 120.113 39.3898 122.603C38.8754 123.638 38.305 124.728 38.1207 125.926C37.2057 127.138 36.5525 128.488 36.0418 129.912C36.6826 128.553 37.9115 127.495 38.0946 125.901V125.901ZM78.2825 62.81C78.6842 63.4901 78.548 63.9171 78.2779 64.5757C77.6197 66.1816 76.2757 67.4432 76.0218 69.2346C75.9315 69.8742 75.4348 70.3571 75.1308 70.8952C74.3567 72.2645 74.208 73.858 73.5117 75.1921C72.851 76.4579 72.5677 77.8442 71.8942 79.0819C71.5364 79.7388 71.6623 80.5568 71.1963 81.1939C70.8819 81.623 70.1049 84.2942 70.0146 84.8082C69.788 86.103 69.5246 87.3916 69.2632 88.6801C69.2185 88.9013 69.1191 89.1287 68.818 89.0811C68.5073 89.0322 68.357 89.1735 68.4762 89.4493C68.9228 90.4832 68.3897 91.4093 67.9925 92.2212C66.8373 94.5804 65.8341 97.0056 64.8197 99.4208C64.6188 99.8996 63.6856 99.7696 64.0182 100.723C64.186 101.205 63.6438 102.04 63.2685 102.663C62.9032 103.271 62.6575 103.949 62.3266 104.58C59.889 109.227 57.649 113.966 55.5267 118.766C54.3495 121.429 52.9445 123.989 51.7044 126.625C51.3913 127.291 51.1862 128.039 50.9758 128.751C50.7824 129.406 50.4987 130.344 49.6993 130.756C49.551 130.832 49.4586 130.899 49.4102 131.051C48.4326 134.13 45.8066 135.74 43.4647 137.543C41.788 138.834 39.7431 139.596 37.8407 140.488C36.6635 141.04 35.5808 141.918 34.2094 142.112C32.8347 142.307 31.469 142.555 30.0752 142.583C28.7233 142.61 27.4732 142.294 26.3536 141.517C25.7671 141.11 25.6781 140.593 25.9341 139.94C26.5682 138.32 27.5246 136.964 28.9975 136.001C29.5616 135.632 30.1647 135.312 30.5404 134.709C30.8084 134.278 31.2623 134.82 31.7602 134.331C33.5218 132.598 34.619 130.491 35.749 128.373C38.0892 123.986 39.8313 119.348 41.5089 114.684C42.2345 112.666 42.6123 110.562 42.9424 108.446C43.1512 107.11 43.2916 105.773 43.381 104.426C43.422 103.802 43.6735 103.289 44.4402 103.669C44.8974 103.896 45.0383 103.563 45.2528 103.328C45.4052 103.161 45.3742 102.969 45.2276 102.828C44.96 102.572 44.7276 102.839 44.5184 102.941C43.6602 103.359 43.3798 103.11 43.4233 102.171C43.5442 99.5848 43.6097 96.9977 42.9378 94.4554C42.6036 93.1883 42.1343 91.9726 41.5225 90.8245C39.7344 87.4665 37.4248 84.44 35.3824 81.2428C33.8884 78.9025 32.3517 76.5627 32.0377 73.7064C31.9644 73.0416 31.4367 72.2314 32.3562 71.6917C32.4072 71.6623 32.4519 71.5678 32.4478 71.5074C32.2697 68.8946 32.3504 68.8291 34.1261 66.998C35.2784 65.8096 36.6838 64.9829 38.1157 64.3247C43.3844 61.902 47.8242 58.3772 52.1704 54.6051C57.461 50.0128 62.281 44.8891 67.7775 40.557C73.7991 35.8119 80.6869 32.5604 87.998 30.3142C91.8571 29.1288 94.7163 32.0087 93.8751 36.0136C93.0351 40.0123 91.5187 43.7551 89.5044 47.3159C87.1919 51.4033 84.5423 55.2757 81.9784 59.199C81.2751 60.2755 80.6786 61.4431 79.8208 62.4364C79.376 62.9512 79.0458 63.4035 78.2825 62.81V62.81Z" fill="black"/>
<path fill-rule="evenodd" clip-rule="evenodd" d="M67.2983 47.7832C66.6335 49.0561 65.5872 49.9383 64.3645 50.6383C65.3163 49.6596 65.972 48.3768 67.2983 47.7832" fill="black"/>
</svg>
