<svg width="36" height="18" viewBox="0 0 36 18" fill="none" xmlns="http://www.w3.org/2000/svg">
<path fill-rule="evenodd" clip-rule="evenodd" d="M23.4632 4.05371C23.8116 4.99022 23.3825 5.17164 22.5031 5.42969C20.611 5.98513 18.7666 6.73815 16.9594 7.5388C14.4983 8.62856 12.0976 9.8546 9.65584 10.9899C8.11625 11.7057 6.93454 12.9623 5.46951 13.7489C4.16726 14.4481 3.32187 15.5408 2.37045 16.5655C2.21969 16.7279 2.1501 16.9668 1.99602 17.1247C1.74087 17.386 2.11903 18.2165 1.16223 17.8905C0.335898 17.6093 -0.143747 17.2783 0.0385016 16.3638C0.305661 15.0251 1.24963 14.142 2.18241 13.2651C4.80761 10.7965 7.91454 9.02827 11.0351 7.2998C14.3243 5.47773 17.7858 4.01602 21.3674 2.88401C22.8419 2.41803 24.3223 1.86051 25.9331 1.84477C25.1884 2.50791 24.1914 2.57791 23.3154 2.91258C22.3395 3.28578 21.3289 3.57034 20.329 3.87767C20.0262 3.97087 19.7495 4.05785 19.7263 4.4356C19.5772 4.39584 19.4173 4.2985 19.2918 4.33164C17.0485 4.92063 14.9535 5.86791 12.9429 7.01028C12.7706 7.10844 12.8974 7.27247 12.9226 7.40211C12.7271 7.25714 12.52 7.16395 12.2914 7.28406C10.8102 8.06069 9.26815 8.73377 7.97501 9.83927C9.7043 9.18732 11.1296 7.91945 12.9168 7.39093C15.067 6.13424 17.3786 5.24992 19.7193 4.4327C20.3373 4.19868 20.9523 3.9572 21.5737 3.73312C22.1088 3.54051 22.0616 3.59519 22.5048 4.0827C22.6957 4.29229 23.1422 4.19537 23.4641 4.05744L23.4632 4.05371Z" fill="black"/>
<path fill-rule="evenodd" clip-rule="evenodd" d="M23.464 4.05756C23.7042 4.19425 23.9428 4.14123 23.9904 3.88774C24.0327 3.66573 23.8098 3.60733 23.5978 3.64999C23.3911 3.69182 23.1662 3.82892 22.9321 3.43336C23.7821 2.93052 24.7588 2.7433 25.6617 2.73709C26.3675 2.73212 27.0646 1.87265 27.845 2.6907C27.9875 2.84064 28.1618 1.92484 28.7778 1.91946C29.5163 1.91366 30.2556 1.66099 30.9912 1.67839C32.2227 1.7078 33.4002 1.2704 34.6354 1.3578C34.9812 1.38224 35.3147 1.28821 35.4911 1.67756C35.5943 1.90496 35.5214 2.11454 35.359 2.29514C35.0753 1.51975 34.7108 3.32981 34.3976 2.25869C34.2626 1.79644 34.0335 2.22389 33.9346 2.32082C33.4591 2.78389 32.6642 2.36017 32.2127 2.97774C32.1245 3.09786 31.6506 2.82076 31.6809 2.43804C31.7306 1.81218 31.2791 1.96502 31.0111 2.0578C30.524 2.22721 30.9933 2.40614 31.0351 2.6062C31.2062 3.42301 30.4242 3.37164 30.0564 3.39194C29.2715 3.43502 28.5342 3.32235 27.857 3.94697C27.4196 4.35082 27.4105 3.46194 26.9051 3.47147C26.7511 3.91673 26.3903 4.28372 25.8477 4.52312C25.6406 4.24147 26.1629 3.90555 25.7288 3.60567C25.0276 3.77756 24.4522 5.12744 23.4635 4.05425C23.4631 4.05383 23.464 4.05756 23.464 4.05756" fill="black"/>
<path fill-rule="evenodd" clip-rule="evenodd" d="M31.0164 0.948608C30.3462 1.49825 29.5696 1.55003 28.5105 1.47547C29.3944 0.736952 30.2477 1.06997 31.0164 0.948608" fill="black"/>
</svg>
