<svg width="102" height="128" viewBox="0 0 102 128" fill="none" xmlns="http://www.w3.org/2000/svg">
<path fill-rule="evenodd" clip-rule="evenodd" d="M15.2596 24.8887C19.4505 16.5012 24.5878 8.72579 30.0172 1.15833C30.6376 1.3178 30.0925 1.70425 30.3137 1.94821C30.6654 2.11058 31.0568 1.26313 31.5091 2.01697C31.925 2.70952 31.6785 3.23017 31.3857 3.76739C29.8444 6.59514 27.6185 8.98342 26.2753 11.9657C25.8155 12.9854 25.6146 14.2343 24.4809 15.0287C23.783 15.5174 23.9474 16.7534 23.3307 17.5673C22.9447 18.0772 22.7301 18.7905 22.3006 19.3658C20.5891 21.6563 19.6029 24.2472 19.3217 27.0948C19.2711 27.6076 19.0574 28.0719 18.5819 28.0876C17.2854 28.1311 15.9977 28.6683 14.7269 27.5338C13.8045 26.71 13.7188 25.964 13.9797 24.9708C14.6089 22.5779 15.8569 20.4663 17.0817 18.3564C18.5144 15.8886 20.1414 13.5371 21.659 11.124C23.7002 7.87833 25.9853 4.81324 28.1528 1.66242C28.3591 1.36295 28.5567 0.743718 29.009 1.01626C29.3495 1.22129 28.9908 1.71171 28.7965 2.00993C27.5713 3.8904 26.2595 5.70709 24.9159 7.50804C23.6281 9.23401 22.5487 11.1248 21.4734 12.9979C19.7359 16.0257 17.8214 18.952 16.2491 22.0743C15.8009 22.9644 15.3573 23.8661 15.2596 24.8887" fill="black"/>
<path fill-rule="evenodd" clip-rule="evenodd" d="M8.63551 61.086C7.84812 61.7189 7.27859 60.734 7.02966 60.5339C6.35617 59.993 5.30037 60.5509 5.03735 59.9105C4.6393 58.9409 3.78066 58.1204 4.13688 56.8214C4.82528 54.3089 5.86865 51.9438 6.83871 49.5451C7.54202 47.8063 8.2122 46.0505 9.23942 44.4608C9.69753 43.7521 10.224 43.1271 11.0014 42.7709C11.7988 42.4051 12.4988 42.3791 13.2667 43.0364C13.835 43.5227 14.5677 43.842 15.0937 44.4136C15.5945 44.957 15.9921 45.5257 15.4015 46.2663C14.9869 46.7857 15.0618 47.4667 14.8531 48.059C14.0139 50.439 13.6946 53.0021 12.3484 55.2027C11.3502 56.8351 10.6125 58.5917 9.84291 60.3347C9.62256 60.8338 9.40924 61.4369 8.63551 61.086" fill="black"/>
<path fill-rule="evenodd" clip-rule="evenodd" d="M58.2784 43.2616C58.0933 43.6791 57.974 43.9476 57.8588 44.2068C57.9955 44.3854 58.1218 44.2789 58.2577 44.2408C58.5365 44.1621 58.6321 43.6282 58.9697 43.8415C59.3781 44.0996 58.8529 44.4086 58.8844 44.7142C59.3313 44.8182 59.4502 44.2661 59.8147 44.2507C60.3797 45.1197 60.0831 45.8193 59.5571 46.5989C58.1276 48.7171 56.8888 50.9434 56.0546 53.3797C55.7398 54.2997 54.5614 54.7491 54.5386 55.8169C54.5096 57.1713 53.8775 58.3473 53.1672 59.3157C51.9403 60.9882 51.6781 62.9561 50.9479 64.774C50.7424 65.2855 51.0241 65.9155 50.5188 66.3347C50.3556 66.4702 50.0992 66.7787 49.9927 66.5186C49.6274 65.6297 48.9154 66.058 48.326 65.9106C47.2321 65.6368 47.0167 64.564 46.9098 63.6205C46.7417 62.1335 47.1708 60.6954 47.7743 59.3699C50.0839 54.2947 52.77 49.4258 56.0931 44.9346C56.5992 44.2503 57.0532 43.3917 58.2784 43.2616" fill="black"/>
<path fill-rule="evenodd" clip-rule="evenodd" d="M42.9749 23.1094C42.7214 23.8993 42.4766 24.726 42.1917 25.5391C40.387 30.6934 38.0459 35.6062 35.5102 40.4342C34.5381 42.2848 33.4177 44.0609 32.682 46.0358C32.4716 46.6016 32.0934 47.0481 31.4187 46.4463C31.2597 46.3042 31.0236 46.24 30.8132 46.1655C29.4136 45.6701 28.8668 44.5973 29.3059 43.1414C29.7557 41.6478 30.5878 40.3397 31.3943 39.0284C34.8065 33.4818 38.0161 27.8309 40.4661 21.7786C40.7768 21.0115 40.8666 21.0123 41.4113 21.5963C41.4706 21.6597 41.5907 21.7057 41.6768 21.6978C42.6929 21.6071 42.7852 22.3518 42.9749 23.1094" fill="black"/>
<path fill-rule="evenodd" clip-rule="evenodd" d="M8.76018 80.999C7.82989 83.2883 6.30894 85.0404 5.42255 87.1135C4.52663 89.2089 3.44184 91.229 2.87936 93.4657C3.69492 91.6726 4.50592 89.877 5.32687 88.086C6.26959 86.0312 7.46498 84.1221 8.64007 82.1953C9.22989 81.2285 9.8922 81.2778 10.5562 81.8101C11.2044 82.3303 11.339 83.2063 10.7285 83.8169C9.48462 85.0607 8.78504 86.65 8.33066 88.2111C7.53953 90.9299 6.14865 93.4499 5.72947 96.2893C5.63296 96.9437 5.15953 97.5017 5.0622 98.2306C4.95285 99.0508 4.91018 99.7532 5.31693 100.517C5.55261 100.961 6.13415 101.545 5.61764 102.041C5.19515 102.446 4.57634 102.744 3.8722 102.374C3.60338 102.233 3.21154 102.326 2.87563 102.314C0.911485 102.248 -0.247864 100.968 0.0449764 98.987C0.437639 96.3303 1.43545 93.8455 2.48918 91.3918C3.86971 88.1763 5.37078 85.023 7.41403 82.1592C7.71557 81.7367 7.96823 81.2699 8.76018 80.999" fill="black"/>
<path fill-rule="evenodd" clip-rule="evenodd" d="M62.3136 106.053C59.6536 106.048 58.8521 104.883 59.7522 102.678C60.4559 100.953 61.6529 99.5314 62.8086 98.1073C65.5063 94.7838 68.3141 91.5555 71.3034 88.4842C72.0345 87.7328 72.9221 87.464 73.8334 87.1853C74.1515 87.0883 74.8606 86.897 74.8337 87.1741C74.7773 87.7407 75.346 88.2556 74.8341 88.862C72.5477 91.5696 70.5073 94.4682 68.3932 97.3096C67.4613 98.5625 66.4299 99.7438 65.5324 101.02C64.9255 101.883 64.3051 102.816 64.9206 103.978C64.9943 104.117 64.9562 104.481 64.8908 104.503C63.8403 104.853 63.2054 105.972 62.3136 106.053" fill="black"/>
<path fill-rule="evenodd" clip-rule="evenodd" d="M89.5047 45.8211C90.8708 44.2865 91.7207 42.4201 93.0677 40.895C93.4645 40.446 93.94 40.0562 94.2792 39.5691C94.8392 38.7643 95.4154 39.3778 95.7857 39.6312C96.1452 39.8769 96.3138 40.4476 95.9282 40.9878C94.3534 43.1934 93.0867 45.6078 92.0231 48.0648C91.2651 49.8165 90.0067 51.3507 89.7441 53.3889C89.6443 54.1606 89.117 55.0511 88.8246 55.9151C88.4336 57.0704 87.6305 56.114 87.0108 56.0717C86.9131 56.0651 86.8265 55.7776 86.737 55.7793C86.3556 55.7847 86.1311 56.756 85.6841 56.0821C85.0777 55.1675 84.4304 54.3047 84.8545 52.9528C85.5284 50.8068 86.5635 48.8708 87.6963 46.9709C89.2322 44.395 90.6488 41.7283 92.8345 39.6027C92.9956 39.4461 93.1435 39.2742 93.3158 39.1309C93.4935 38.983 93.7325 38.8567 93.923 39.0385C94.1653 39.2701 94.0369 39.5501 93.8248 39.724C91.9713 41.2417 91.048 43.4307 89.7491 45.3476C89.6505 45.4934 89.5855 45.6628 89.5047 45.8211" fill="black"/>
<path fill-rule="evenodd" clip-rule="evenodd" d="M43.7827 83.9444C44.3543 83.4051 44.9996 82.9238 45.478 82.312C46.0364 81.5983 46.6581 81.4417 47.4447 81.7528C47.9123 81.9384 47.8129 82.4288 47.7678 82.7415C47.6514 83.5463 47.175 84.1664 46.3972 84.453C46.2112 84.5213 45.9312 84.3805 45.9316 84.7168C45.9357 86.36 44.4947 87.2348 43.8755 88.5511C43.6854 88.9545 43.3312 89.3377 43.0819 89.7515C42.3537 90.9597 41.7581 92.2723 40.2148 92.7349C39.8553 92.8426 39.2853 93.1645 39.4796 93.7108C40.0723 95.3771 38.9051 96.4901 38.2428 97.7257C37.1543 99.7557 35.7733 101.62 34.7639 103.7C34.65 103.935 34.5796 104.268 34.2524 104.187C33.8436 104.085 34.3853 103.722 34.1016 103.508C33.5921 103.78 33.1448 104.512 32.4344 103.648C32.1809 103.339 31.8086 103.861 31.6263 104.188C31.4876 104.437 31.3351 104.672 31.0224 104.489C30.6443 104.267 30.9702 104.036 31.0701 103.832C32.8892 100.125 35.1363 96.6769 37.4682 93.2804C39.5218 90.2891 41.575 87.2973 43.6282 84.3068C43.6792 84.1867 43.7309 84.0657 43.7827 83.9444" fill="black"/>
<path fill-rule="evenodd" clip-rule="evenodd" d="M63.6669 70.7846C64.926 68.8362 66.1947 66.8902 67.596 65.033C65.9976 66.2317 64.0707 69.0134 63.6669 70.7846M66.1309 73.7424C65.7391 73.8567 66.7382 72.4948 65.6703 73.3311C65.6418 73.3534 65.5854 73.3878 65.5726 73.3779C64.8689 72.8315 64.2492 72.8622 63.6051 73.5299C63.4361 73.7051 62.1248 72.2355 62.0966 71.8014C62.0544 71.1462 62.2201 70.5257 62.5083 69.952C64.1353 66.7121 66.4242 64.0202 69.3161 61.842C70.7327 60.7746 72.2189 60.891 73.7021 61.6858C74.4986 62.1128 74.4949 62.626 73.8326 63.2652C73.1355 63.9374 72.4724 64.6502 71.8482 65.3908C71.1279 66.2453 70.5248 67.1835 69.732 67.9966C68.6907 69.064 68.332 70.5779 67.5748 71.8453C67.1561 72.5449 66.7874 73.2549 66.1309 73.7424" fill="black"/>
<path fill-rule="evenodd" clip-rule="evenodd" d="M99.1334 75.6894C98.9677 76.2548 98.8679 76.5949 98.7159 77.1135C98.9685 76.918 99.1226 76.8587 99.169 76.7523C99.5459 75.8907 100.238 76.1136 100.784 76.3923C101.368 76.6906 101.52 77.3641 101.286 77.9448C100.905 78.8925 100.464 79.831 99.9266 80.698C99.1848 81.8942 98.3456 83.0502 97.8403 84.3566C97.3122 85.721 96.5422 87.0485 96.8714 88.6527C97.0272 89.4099 96.3947 89.8547 95.703 89.5449C95.3273 89.3759 94.9893 89.3949 94.6178 89.4136C92.2635 89.5312 91.0478 87.8616 91.9623 85.6137C93.2517 82.4455 95.3327 79.7673 97.4998 77.1623C97.914 76.6645 98.1994 76.0022 99.1334 75.6894" fill="black"/>
<path fill-rule="evenodd" clip-rule="evenodd" d="M13.3097 125.169C13.2956 126.015 14.0093 126.426 14.1079 127.101C13.0649 127.243 12.4076 126.677 12.1794 125.513C11.9317 124.248 12.3272 123.083 12.9427 122.074C14.2525 119.929 15.3455 117.659 17.1751 115.806C17.8908 115.081 18.3858 113.908 19.082 113.032C21.0665 110.531 23.1379 108.098 25.1841 105.647C25.5949 105.154 26.0825 104.741 26.6449 104.42C26.9328 104.255 27.2165 104.218 27.4845 104.433C27.7724 104.665 27.7405 104.96 27.5798 105.246C27.3408 105.67 27.1262 106.119 26.8276 106.498C24.0628 110.011 21.223 113.467 18.5361 117.038C17.4894 118.429 16.6722 120.028 16.1089 121.698C15.8488 122.47 16.1275 123.317 16.2158 124.128C16.2394 124.349 16.548 124.65 16.1569 124.816C15.406 125.135 14.7768 125.45 15.4375 126.428C15.5878 126.651 15.2461 126.768 15.0084 126.774C14.5834 126.783 14.0942 126.777 14.0441 126.249C13.9985 125.764 13.7239 125.518 13.3097 125.169" fill="black"/>
<path fill-rule="evenodd" clip-rule="evenodd" d="M31.3134 67.4794C31.0698 67.3067 30.9331 67.2736 30.8267 67.5325C30.439 68.4756 30.1159 69.4585 29.6098 70.3345C29.3037 70.8639 29.3695 71.9557 28.1973 71.6372C28.0109 71.5867 28.049 71.8215 28.1335 71.9545C28.3311 72.2651 28.2085 72.4929 27.9944 72.7543C27.629 73.1996 27.5284 73.6937 27.6233 74.3042C27.7993 75.4317 27.0148 75.9813 25.9834 75.5187C25.8596 75.4628 25.6396 75.2747 25.6285 75.3526C25.365 77.19 24.3693 74.7536 23.963 75.6438C23.6581 75.3903 23.5148 75.0676 23.48 74.6691C23.4005 73.7558 23.7741 72.9833 24.1978 72.2249C25.8033 69.3516 28.1029 67.0582 30.4614 64.8261C31.0292 64.288 31.885 64.259 32.621 64.0424C33.053 63.9152 33.3077 64.2731 33.4714 64.6152C33.6954 65.0841 33.4486 65.133 33.065 65.0079C33.0141 65.8491 32.464 66.4315 32.0125 67.0702C31.8137 67.3515 31.6849 67.6915 31.3134 67.4794" fill="black"/>
<path fill-rule="evenodd" clip-rule="evenodd" d="M64.8876 21.2926C64.7948 21.2238 64.7025 21.1551 64.6101 21.0863C64.0774 21.93 63.5398 22.7704 63.02 23.622C62.9595 23.7214 62.841 23.9008 63.0208 24.0093C63.1459 24.0847 63.3604 24.1062 63.4031 23.948C63.6736 22.9394 64.62 22.2978 64.8876 21.2926M60.9622 31.5341C60.6329 32.01 60.8678 32.8235 59.8302 32.889C59.0801 32.9366 59.2155 32.5742 59.2151 32.1881C58.5702 32.2461 58.8283 33.0124 58.2571 33.1644C58.0218 32.1277 58.4041 31.1352 58.3577 30.1391C58.3648 30.1097 58.3693 30.0774 58.3722 30.0426C59.1733 29.355 59.358 28.3261 59.802 27.4422C59.9851 27.0769 60.0493 26.6412 60.2742 26.3102C62.0843 23.6473 63.5572 20.7719 65.5068 18.1919C67.0348 16.1697 68.388 14.0167 70.02 12.0687C70.3952 11.621 70.727 11.1301 71.5322 10.6609C70.9109 11.7858 70.4379 12.6416 69.9653 13.4973C69.9769 13.4633 69.9872 13.4285 69.9964 13.3925C68.7509 14.3787 68.2435 15.9013 67.1769 17.0379C67.5414 17.3465 67.6507 17.0246 67.8259 16.9882C68.1258 16.9265 68.311 17.1145 68.427 17.3726C68.4841 17.4989 68.598 17.6853 68.3963 17.7371C67.5016 17.9669 67.7162 18.7092 67.6901 19.2978C67.6611 19.9485 67.3074 20.3059 66.7987 20.5967C66.0151 21.0445 65.5491 21.6794 65.6332 22.6275C65.4957 22.8309 65.3586 23.0347 65.221 23.2381C64.3645 23.6581 63.1393 25.7038 63.2262 26.5683C62.7375 26.5935 62.5445 27.5197 61.8793 27.0119C61.6821 26.4643 61.5703 26.205 61.0583 26.8868C60.4113 27.7475 60.5153 28.9197 59.7349 29.6888C59.619 29.8027 59.6268 29.9709 59.7859 30.0683C59.9926 30.195 60.1844 30.1022 60.2158 29.8993C60.3533 29.022 61.0538 28.4052 61.2658 27.5706C61.3557 27.2185 61.4506 26.9104 61.9107 26.98C62.1903 28.6057 60.9386 29.7162 60.5095 31.1042C60.4528 31.2881 59.7631 30.7927 60.0133 31.4115C60.1351 31.7135 60.5944 31.8634 60.9622 31.5341" fill="black"/>
<path fill-rule="evenodd" clip-rule="evenodd" d="M86.5817 106.626C86.3522 107.258 86.5299 107.829 86.7321 108.377C86.8385 108.665 86.9189 108.884 86.5734 109.003C86.2582 109.113 86.0644 108.891 85.9525 108.65C85.6671 108.037 85.738 107.354 85.9074 106.769C86.5531 104.539 87.7638 102.602 89.257 100.836C89.7002 100.313 90.2254 99.8386 90.5725 99.2575C91.2034 98.2013 92.277 97.9002 93.3005 97.5663C93.7785 97.4102 93.87 98.0513 93.9682 98.3964C94.0241 98.5939 93.8787 98.9771 93.7027 99.0922C92.0015 100.205 91.7277 102.278 90.5738 103.769C90.1935 104.26 90.3679 105.256 89.8767 105.908C89.4886 106.423 89.2794 107.067 88.5579 107.313C88.1416 107.454 88.4568 107.99 88.2687 108.309C88.1722 108.472 88.113 108.669 87.9076 108.695C87.7029 108.722 87.4449 108.547 87.4818 108.416C87.7299 107.537 86.6915 107.313 86.5817 106.626" fill="black"/>
<path fill-rule="evenodd" clip-rule="evenodd" d="M43.7828 83.9444C43.731 84.0657 43.6792 84.1867 43.6283 84.3068C42.1343 85.6235 40.9289 87.2112 39.7592 88.7913C38.1501 90.9651 36.695 93.261 35.2937 95.5772C34.1079 97.5376 32.5952 99.2992 31.7635 101.483C31.4259 102.369 30.8659 103.178 29.8884 103.783C29.6581 102.449 30.508 101.594 30.998 100.653C32.2887 98.1742 33.919 95.9028 35.5224 93.623C38.4151 89.5104 41.1327 85.2582 44.7379 81.694C44.9442 81.4902 45.109 81.2098 45.6053 81.3614C45.2814 82.4408 44.2458 83.0074 43.7828 83.9444" fill="black"/>
<path fill-rule="evenodd" clip-rule="evenodd" d="M87.5649 68.1976C87.1213 68.5228 87.644 69.4009 86.9648 69.258C86.3857 69.1358 86.5949 68.4296 86.7403 67.9814C87.6428 65.2063 89.4218 63.1527 91.9977 61.8077C92.3879 61.604 92.9541 61.2929 93.3149 61.8699C93.6355 62.3814 93.1397 62.6925 92.8568 63.0127C91.6709 64.3563 90.5459 65.7282 90.2498 67.58C90.1756 68.0452 89.7983 68.2129 89.4139 68.3703C89.2797 68.4254 89.1447 68.5153 89.0494 68.6234C88.2968 69.4792 87.729 69.5695 87.5649 68.1976" fill="black"/>
<path fill-rule="evenodd" clip-rule="evenodd" d="M64.3402 18.4009C64.2159 19.7831 63.0342 20.546 62.3918 21.6221C61.9158 22.419 61.5277 23.3232 60.7673 23.9561C60.578 24.1135 60.5022 24.4606 60.1899 24.285C59.9413 24.145 59.8908 23.8617 60.0586 23.5954C61.0688 21.9936 62.0513 20.3725 63.2583 18.9058C63.5432 18.5595 63.9926 18.569 64.3725 18.4282L64.3402 18.4009Z" fill="black"/>
<path fill-rule="evenodd" clip-rule="evenodd" d="M64.3725 18.4284C64.2312 18.1223 64.0672 17.8377 64.324 17.4885C65.7791 15.5083 67.2039 13.5048 68.8906 11.7075C69.021 11.5684 69.0931 11.2387 69.388 11.4449C69.5748 11.5758 69.5284 11.7784 69.4005 11.9403C67.7515 14.025 66.1515 16.1453 64.6537 18.3422C64.6115 18.4039 64.4474 18.3832 64.3402 18.401L64.3725 18.4284Z" fill="black"/>
<path fill-rule="evenodd" clip-rule="evenodd" d="M58.3721 30.0424C58.3697 30.0772 58.3647 30.1099 58.3581 30.1393C58.1588 30.6434 57.7239 31.0514 57.7612 31.6536C57.7744 31.8682 57.803 32.1731 57.4762 32.1449C57.1842 32.1196 57.2236 31.8483 57.2492 31.6172C57.4783 29.5623 58.1766 27.6409 58.9549 25.7484C59.0887 25.4236 59.4801 25.0749 59.8376 25.2414C60.2609 25.4386 59.9411 25.8569 59.7912 26.1021C59.0452 27.3219 58.7201 28.6842 58.3721 30.0424" fill="black"/>
<path fill-rule="evenodd" clip-rule="evenodd" d="M69.9967 13.3926C69.9876 13.4283 69.9772 13.463 69.9652 13.497C70.4415 13.0128 71.2703 12.8695 71.3507 11.9765C71.3639 11.829 71.7392 11.2897 72.1186 11.6223C72.4794 11.9384 72.0942 12.2722 71.8854 12.4698C70.9419 13.3632 70.193 14.3726 69.7643 15.7279C69.4019 15.3046 68.8605 15.0283 69.5812 14.5143C69.9685 14.238 69.8136 13.7505 69.9967 13.3926" fill="black"/>
<path fill-rule="evenodd" clip-rule="evenodd" d="M65.2209 23.2382C65.3584 23.0348 65.4959 22.831 65.633 22.6277C65.7983 22.4976 65.9636 22.368 66.1284 22.2379C66.1868 22.2781 66.2444 22.3183 66.3024 22.3584C65.9226 23.0365 65.5423 23.7141 65.1625 24.3922C65.0813 24.3657 65.0001 24.3387 64.9189 24.3118C65.0196 23.9544 65.1202 23.5961 65.2209 23.2382" fill="black"/>
<path fill-rule="evenodd" clip-rule="evenodd" d="M61.4023 30.9491C61.1811 30.1708 61.7481 29.6543 62.0455 29.0541C62.3371 28.4655 62.6768 27.9005 62.9957 27.3248C63.1084 27.6176 63.0819 27.8769 62.9187 28.1635C62.3955 29.0822 61.9051 30.0192 61.4023 30.9491" fill="black"/>
</svg>
