<svg width="41" height="57" viewBox="0 0 41 57" fill="none" xmlns="http://www.w3.org/2000/svg">
<path fill-rule="evenodd" clip-rule="evenodd" d="M36.1882 52.9614C36.6376 54.0313 37.0746 55.0142 37.4569 56.0174C37.5633 56.2966 37.8458 56.7551 37.4697 56.9175C37.0559 57.096 36.819 56.6097 36.6591 56.2924C35.7955 54.5835 34.975 52.8521 34.1167 51.1406C31.5251 45.9726 28.6224 40.9811 25.6157 36.0455C21.6522 29.5392 17.1631 23.3941 12.8181 17.1484C10.5222 13.8484 8.06059 10.6591 6.05503 7.16156C5.50953 6.20972 5.10527 5.20239 4.83355 4.14203C4.3742 2.34937 5.2084 1.15109 7.03503 1.0231C8.0026 0.955168 8.98716 0.806056 9.90669 1.30765C10.4108 1.58268 10.8088 1.85564 10.4182 2.52582C10.0869 3.0941 10.347 3.61931 10.5094 4.22114C11.0913 6.38245 12.5688 8.0728 13.9191 9.59955C15.6434 11.5484 17.2389 13.6161 18.8584 15.6274C20.7563 17.9842 22.5448 20.4653 24.2878 22.9646C26.4495 26.064 28.296 29.3623 30.5028 32.4324C31.156 33.3395 31.8863 34.3638 31.9173 35.618C31.9182 35.6507 31.9484 35.7021 31.9757 35.7112C33.3596 36.1735 32.6372 38.1297 34.0236 38.6036C34.1694 38.6537 34.3545 38.8848 34.3508 39.0273C34.3036 40.8386 35.8286 42.0075 36.2209 43.6456C36.3621 44.2346 36.6127 44.8737 37.2908 45.1558C37.413 45.2068 37.5658 45.3708 37.5708 45.4884C37.6358 47.0773 39.0346 48.2089 39.0482 49.8123C39.0491 49.9179 39.0888 50.0703 39.1646 50.1213C40.4631 51.0006 39.5295 52.7945 40.6901 53.7869C41.0629 54.1059 40.0647 55.737 39.443 55.6778C38.7985 55.6165 38.8399 55.7954 38.9335 56.2353C38.9878 56.4921 39.0627 56.8023 38.6974 56.8781C38.3014 56.9597 38.2256 56.6308 38.1043 56.3459C37.6781 55.3443 37.2332 54.3503 36.7859 53.3578C36.6972 53.1611 36.616 52.9237 36.1882 52.9614" fill="black"/>
<path fill-rule="evenodd" clip-rule="evenodd" d="M0.00050639 23.011C-0.0193753 21.8355 0.543938 21.4817 2.08725 21.6002C3.06228 21.6752 3.77471 22.0865 4.34258 23.0048C5.7811 25.3305 7.55678 27.4338 8.96506 29.7877C9.44512 30.59 9.22601 30.7379 8.43861 31.2026C6.87666 32.125 6.02796 31.1496 5.13453 30.2239C3.54317 28.5762 1.95057 26.9231 0.811926 24.9039C0.442045 24.2486 0.105713 23.5817 0.00050639 23.011" fill="black"/>
</svg>
