<svg width="30" height="50" viewBox="0 0 30 50" fill="none" xmlns="http://www.w3.org/2000/svg">
<path fill-rule="evenodd" clip-rule="evenodd" d="M29.1202 43.8306C29.063 45.108 29.0564 46.3904 28.9272 47.6608C28.8684 48.2406 28.8203 49.0434 27.9203 48.9999C26.8657 48.9485 26.2763 48.1905 26.3128 47.2598C26.4507 43.7101 26.01 40.208 25.4607 36.7064C24.8527 32.8278 23.8715 29.0192 22.3091 25.4679C21.04 22.5842 19.3774 19.8227 17.4625 17.2497C13.5119 11.9392 8.82476 7.34324 3.89618 2.96927C3.50725 2.62424 3.02719 2.34424 2.88553 1.79128C2.82465 1.55188 2.65938 1.28886 2.93441 1.06519C3.19163 0.855189 3.44843 0.965366 3.66506 1.11034C4.19565 1.46572 4.7337 1.81821 5.22121 2.22868C10.9923 7.08312 16.4494 12.2445 20.7728 18.4815C26.0551 26.1024 28.8841 34.5343 29.1202 43.8306" fill="black"/>
<path fill-rule="evenodd" clip-rule="evenodd" d="M18.0516 40.8222C17.9261 41.6651 18.0553 42.5316 17.724 43.3563C17.6039 43.6549 17.5111 43.9204 17.1578 43.9693C15.8626 44.147 14.644 42.9868 14.5499 41.6581C13.8694 32.0975 10.7836 23.6594 3.089 17.4116C2.44782 16.8913 1.76977 16.4063 1.06604 15.9751C0.456341 15.6015 -0.252358 15.0796 0.0889441 14.4421C0.520956 13.6361 1.31705 14.2744 1.86214 14.566C4.44427 15.949 6.60433 17.8784 8.62853 19.9672C13.5157 25.0101 16.4064 31.0715 17.7273 37.9195C17.9108 38.8709 17.9468 39.8509 18.0516 40.8222" fill="black"/>
</svg>
