<svg width="32" height="34" viewBox="0 0 32 34" fill="none" xmlns="http://www.w3.org/2000/svg">
<path fill-rule="evenodd" clip-rule="evenodd" d="M13.6571 2.23722C14.5829 1.53018 15.3338 1.78118 16.3039 3.09461C17.3158 4.46438 17.5258 6.14728 18.0506 7.70426C18.3488 8.58816 18.5584 9.50686 18.7406 10.4231C18.8752 11.0982 19.1229 11.1753 19.7322 10.8899C21.9416 9.85396 24.1733 8.86692 26.4013 7.87201C26.8465 7.67278 27.3022 7.48308 27.771 7.3555C28.3861 7.18858 29.053 7.04941 28.4884 8.1342C30.0922 7.68645 31.4914 8.84497 31.4375 10.3365C31.416 10.9197 31.0552 11.0063 30.7322 11.191C27.6074 12.9779 24.4773 14.7556 21.3426 16.5243C19.9898 17.2876 20.0859 17.474 20.677 18.8972C21.2623 20.3059 21.5356 21.867 21.7871 23.3876C22.2659 26.2799 22.9257 29.1073 24.172 31.7768C24.4094 32.2859 24.6952 32.9341 24.1811 33.3214C23.7715 33.6299 23.1191 34.0209 22.5803 33.335C22.5173 33.2543 22.3893 33.1859 22.2874 33.1793C19.8759 33.0269 19.1312 31.1758 18.4101 29.3384C17.3311 26.5898 16.5735 23.7351 15.782 20.8966C15.5339 20.0069 15.323 19.8325 14.4569 20.2976C11.8425 21.6993 9.25499 23.1506 6.63227 24.5374C4.75221 25.5311 3.00594 24.8385 1.24103 24.5221C0.748959 24.4338 0.262687 23.5408 0.042746 22.9216C-0.175952 22.3049 0.492983 21.9462 0.950675 21.6405C4.9502 18.9697 8.94434 16.2865 13.2288 14.0817C13.8754 13.7491 14.0282 13.4716 13.8303 12.7041C13.0644 9.73343 12.4174 6.73213 11.7539 3.7358C11.6097 3.08467 11.4308 2.3942 11.8525 1.76296C12.1726 1.2829 12.5346 0.844259 13.2139 0.97059C14.0432 1.12467 13.3593 1.79775 13.6571 2.23722" fill="black"/>
</svg>
