<svg width="27" height="27" viewBox="0 0 27 27" fill="none" xmlns="http://www.w3.org/2000/svg">
<path fill-rule="evenodd" clip-rule="evenodd" d="M21.4273 13.8139C20.9427 13.9701 20.7389 14.3897 20.5189 14.7624C19.4805 16.5211 17.7541 17.591 16.2974 18.9173C15.7701 19.3973 14.8481 19.334 14.1601 18.9148C12.0522 17.6308 10.4911 15.9781 10.3043 13.3276C10.2041 11.9032 10.0877 10.4829 10.0777 9.05392C10.0757 8.77185 10.2144 8.36966 9.84703 8.26114C9.48378 8.15303 9.36656 8.57883 9.22159 8.80084C7.58094 11.3142 5.96638 13.845 4.3394 16.3675C3.83035 17.1565 3.36106 17.9808 2.76709 18.7007C2.42496 19.1153 2.47756 20.2398 1.46981 19.7266C-0.104566 18.9247 -0.290128 18.5346 0.330759 17.2145C1.99419 13.6781 4.05691 10.3578 5.97177 6.95806C6.80182 5.48433 7.68283 4.03918 8.52034 2.5696C9.63247 0.617467 10.5238 0.283207 12.1483 2.36995C12.9863 3.44646 13.3375 4.7106 13.4299 6.04309C13.5989 8.47569 13.7277 10.9112 13.8785 13.3455C13.8934 13.5836 13.6916 13.9121 14.0437 14.031C14.3266 14.1266 14.5316 13.8669 14.7259 13.7071C16.5364 12.2168 17.9732 10.3727 19.5141 8.62729C20.434 7.58516 21.3312 6.51983 22.3004 5.52575C23.2311 4.57143 23.7219 4.8038 24.7421 5.56096C27.1586 7.35445 26.8595 9.75847 26.4238 12.1625C26.0804 14.0571 25.5001 15.9106 24.9691 17.7687C24.4837 19.4653 24.1482 21.2596 23.8723 23.0357C23.7571 23.7775 24.1585 24.3475 24.5209 24.8776C24.9061 25.441 24.8573 26.0146 24.5271 26.4052C24.1544 26.8463 23.6909 26.3129 23.3475 26.1115C21.4186 24.9812 20.5902 23.2718 20.6792 21.0339C20.7621 18.9558 21.1808 16.9324 21.4969 14.8908C21.5524 14.5317 21.7031 14.1747 21.4273 13.8139" fill="black"/>
</svg>
