<svg width="76" height="34" viewBox="0 0 76 34" fill="none" xmlns="http://www.w3.org/2000/svg">
<path fill-rule="evenodd" clip-rule="evenodd" d="M70.1909 4.56926C69.6329 4.14967 69.0311 3.94671 68.2839 4.20973C68.8228 5.09902 69.5638 4.52577 70.1909 4.56926M64.0752 4.20973C62.9229 3.56648 61.7528 3.88831 60.5855 4.0105C61.7486 4.07719 62.9121 4.14346 64.0752 4.20973M34.7556 29.4217C36.4998 29.8343 37.9229 29.5096 39.2115 28.2835C37.5286 28.6273 36.2388 29.4487 34.7556 29.4217M29.8725 10.5019C29.675 10.0015 29.3461 10.0864 29.023 10.221C28.2137 10.5578 27.6093 11.2864 26.6944 11.4322C26.5341 11.4578 26.4811 11.6732 26.5527 11.7979C26.638 11.9458 26.8369 12.1719 26.9288 12.1475C27.4399 12.012 28.345 11.8443 28.3628 11.6264C28.4469 10.5988 29.3324 10.8005 29.8725 10.5019M59.3773 3.97364C56.7124 3.59174 54.0275 3.9521 51.341 4.09003C48.0539 4.25902 44.8095 4.89316 41.6085 5.5418C38.5306 6.16559 35.5852 7.44589 32.5864 8.45239C32.3379 8.53565 31.8611 8.54559 32.0185 8.96849C32.12 9.24062 32.5089 9.22529 32.7889 9.07742C33.7432 8.57251 34.7742 8.266 35.7737 7.87541C41.075 5.80358 46.634 4.98346 52.2423 4.42056C54.6119 4.18239 56.9986 4.11736 59.3773 3.97364M34.6777 28.3817C35.2526 28.3274 35.6995 28.3022 36.1419 28.2413C39.5748 27.7666 42.6237 23.8955 40.3452 20.1018C38.6772 17.3246 36.455 15.1214 34.0444 13.0289C33.2673 12.3542 32.6042 12.4399 31.8769 12.8309C30.7767 13.422 29.7102 14.0781 28.6486 14.7371C28.0335 15.119 27.2225 15.3141 26.8803 15.9772C26.561 16.5956 25.4625 16.3301 25.5458 17.2832C24.1271 17.7806 24.2841 19.3119 23.6247 20.3085C23.4255 20.6096 22.8427 20.8503 23.0535 21.3514C23.319 21.9839 23.5224 22.6363 24.0083 23.1839C25.4335 24.7889 27.3037 25.7287 29.1261 26.7456C30.8902 27.7297 32.7889 28.2496 34.6777 28.3817M35.2551 11.2549C38.1711 13.4717 40.3957 15.9801 42.0629 18.9197C43.4579 21.3804 44.4773 23.9924 43.798 26.939C43.1903 29.5762 41.4192 31.163 39.0931 32.3116C36.1029 33.7878 33.1928 33.1756 30.4611 31.7943C28.2613 30.6813 25.9596 29.6334 24.2348 27.7417C22.2893 25.6078 20.2763 23.5372 20.1032 20.3888C19.9615 17.8084 21.002 15.778 22.7412 13.9783C24.4511 12.2088 26.4525 10.8266 28.5367 9.55417C27.3774 7.86174 25.1432 8.27222 23.8927 6.83908C23.6032 6.50731 22.6468 6.75914 22.7367 5.79405C22.757 5.5737 22.5093 5.63665 22.3995 5.72032C21.3218 6.54044 20.4727 5.37571 19.4678 5.36991C18.5429 5.36411 17.7385 4.79417 16.9871 4.19565C16.749 4.00594 16.254 3.97281 15.8183 3.98979C14.8967 4.02583 13.8939 4.41683 13.0667 3.59547C12.8663 3.39665 12.5635 3.61784 12.317 3.67665C12.1045 3.72802 11.9161 3.89452 11.6792 3.76074C11.2264 3.50476 11.226 3.50518 11.0537 4.03867C9.67898 2.92405 8.05614 3.17589 6.47141 3.19825C5.4417 3.21316 4.37762 3.55654 3.41129 2.81387C3.30857 2.73476 2.59531 2.13458 2.33188 3.09387C2.18525 3.62736 0.324248 3.25168 0.0835971 2.72192C-0.0348645 2.46097 -0.0419059 2.30358 0.157325 2.14701C0.342887 2.0008 0.52555 2.11222 0.658094 2.24559C1.12076 2.71074 1.50596 3.14523 1.90567 2.13251C1.98478 1.93287 2.76431 1.88441 3.17768 1.9718C3.8288 2.10973 3.95431 1.79494 3.99448 1.19973C4.40661 1.5489 4.84235 1.79452 5.10247 2.16358C5.6459 2.93565 6.17691 2.28742 6.7104 2.23358C6.81064 2.22364 6.98253 2.17725 6.88727 2.03849C6.5994 1.61807 6.59194 1.14009 7.07863 1.03281C7.7459 0.886181 8.50306 0.908134 9.10863 1.2834C9.50792 1.53109 9.6417 1.78873 10.181 1.34553C10.8143 0.824879 11.6676 1.45778 12.4384 1.45902C12.665 1.45944 12.4115 1.71955 12.3576 1.87115C12.2238 2.24973 12.5038 2.26091 12.7834 2.32263C13.2904 2.43488 13.0203 2.13624 12.9822 1.97967C12.8994 1.63754 13.1044 1.60523 13.355 1.60482C14.7778 1.60234 16.1099 2.12299 17.495 2.34127C17.9154 2.40754 17.6374 2.84452 17.6801 3.23926C18.2906 2.51151 18.8999 2.00328 19.315 3.29849C19.3593 3.43642 19.4583 3.59671 19.6347 3.42316C19.7292 3.33038 19.8124 3.09843 19.8621 3.1092C20.0589 3.15145 19.9665 3.32955 19.9644 3.46873C19.9611 3.65553 20.0858 3.76198 20.2535 3.69819C22.0085 3.0305 23.2913 4.14015 24.5144 5.005C25.8345 5.93819 27.2245 6.72062 28.6858 7.33239C29.2496 7.56849 29.4745 7.88328 29.728 8.30784C30.3422 7.86133 31.0679 8.27677 31.7571 7.98269C33.7147 7.14807 35.7053 6.36813 37.7341 5.72861C42.5189 4.21967 47.4537 3.54038 52.449 3.15725C55.7829 2.9021 59.1114 3.00772 62.4424 3.00316C63.1424 3.00192 63.8441 3.12825 64.5428 3.20902C64.8651 3.24589 65.3145 3.20571 65.3286 3.64807C65.341 4.04944 64.793 3.75908 64.6103 4.06642C65.6429 4.67322 66.7638 4.22547 67.9061 4.50216C67.786 3.80381 67.1262 3.94464 66.8698 3.48447C67.4389 3.48447 67.9753 3.39293 68.4682 3.50145C69.9494 3.82784 71.4749 3.95003 72.9192 4.44955C73.1764 4.53861 73.5699 4.40275 73.1764 4.94742C72.8906 5.34381 73.3985 5.28251 73.5728 5.16778C74.0318 4.86624 74.5015 5.0576 74.6241 5.396C74.791 5.85784 75.2528 6.34411 74.9629 6.86228C74.7902 7.17044 74.5259 7.88204 73.9705 7.13316C73.8826 7.01512 73.7033 6.81878 73.6499 6.84281C72.1799 7.50304 70.9174 5.57411 69.4076 6.51476C69.1177 6.69577 68.6795 6.43482 68.3183 6.40376C67.405 6.32423 66.4896 5.67766 65.5514 6.43896C65.1111 6.79559 64.7628 6.14529 64.2566 6.12665C62.3948 6.05748 60.6522 6.65062 58.85 6.88754C58.6309 6.91612 58.399 6.84364 58.1782 6.86642C56.2704 7.06316 54.2955 6.66843 52.4602 7.51589C51.9254 7.76275 51.4222 7.3792 50.8464 7.41689C48.9544 7.54157 47.1737 8.32855 45.2551 8.24447C44.9006 8.22873 44.452 8.43293 44.1824 8.87654C44.0519 9.09109 43.5573 9.22985 43.2678 9.17807C41.2838 8.82559 39.5984 9.74387 37.8409 10.3693C37.0718 10.6431 36.2964 10.8991 35.2551 11.2549" fill="black"/>
</svg>
