<svg width="51" height="67" viewBox="0 0 51 67" fill="none" xmlns="http://www.w3.org/2000/svg">
<path fill-rule="evenodd" clip-rule="evenodd" d="M22.8554 38.4651C23.7525 38.0174 24.1547 37.2594 24.1874 36.2939C23.7434 37.0175 23.2994 37.7411 22.8554 38.4651M29.0373 17.2257C29.0058 17.046 28.8596 17.0083 28.6442 17.0609C28.1315 17.1868 26.4933 19.0205 26.4279 19.5709C26.4167 19.6637 26.4598 19.8016 26.5281 19.8571C26.664 19.9669 26.7882 19.9189 26.8856 19.7577C27.3706 18.9571 28.1236 18.3967 28.7478 17.7207C28.8716 17.5861 29.0556 17.5107 29.0373 17.2257M46.4512 11.1121C46.3613 11.6415 46.119 11.9703 45.6207 12.0217C45.3792 12.0465 45.2533 12.0871 45.1489 12.3613C44.7857 13.3123 44.0256 13.8769 43.1148 14.2696C42.9317 14.3487 42.5921 14.4034 42.7358 14.6904C42.8551 14.9281 43.1177 14.9203 43.4076 14.7935C44.5927 14.2762 45.3846 13.2693 46.307 12.4421C46.5141 12.2565 47.0754 11.7077 46.4512 11.1121M6.6394 42.0227C4.01792 43.5606 1.6723 47.2052 1.82638 49.4974C2.46383 48.1392 3.10419 46.7935 3.93135 45.5302C4.74567 44.2867 5.83212 43.2608 6.6394 42.0227M34.2948 16.727C34.1506 17.2937 33.9667 17.7472 33.9435 18.2086C33.9307 18.4646 33.9659 18.6671 33.6863 18.6999C32.657 18.82 32.2606 19.8232 31.4592 20.2651C30.4978 20.7949 30.2381 21.6892 29.997 22.7363C29.5948 24.4821 30.0231 26.2085 29.8347 27.9448C29.7348 28.8631 29.7833 29.8609 29.8935 30.8086C30.0985 32.564 29.5874 34.1976 29.2067 35.8656C28.9437 37.0171 29.0145 38.2042 28.2798 39.2852C27.1519 40.9458 25.6256 41.9974 23.8557 42.7948C23.3412 43.0259 22.9979 42.801 22.6727 42.2389C22.7539 43.081 22.4155 43.1618 21.7702 43.238C20.3611 43.4037 18.9842 43.706 17.6803 42.8639C17.5992 42.8113 17.4513 42.7968 17.3606 42.8321C15.693 43.4811 14.0441 42.9803 12.4059 42.7123C11.8621 42.6233 11.527 42.5454 11.0308 42.9812C10.5594 43.395 9.98531 43.9152 9.14614 43.735C8.54058 43.605 8.85703 44.3294 8.53934 44.6164C5.39845 47.4579 4.38159 51.165 4.11774 55.2631C4.00342 57.0321 4.0175 58.8082 4.09413 60.5437C4.16413 62.1226 4.59904 63.7724 5.27212 65.2776C5.46348 65.7055 5.6917 66.1048 5.43697 66.5492C5.13792 67.0699 4.67028 66.6395 4.31738 66.6304C3.02839 66.5977 2.52472 65.8012 2.06869 64.5921C1.61762 63.3938 0.955728 62.2502 0.765195 60.9699C0.281408 57.7226 -0.405752 54.4848 0.307088 51.1687C1.12804 47.3514 2.5678 43.9367 5.73644 41.3919C6.61579 40.6857 7.45206 39.8208 8.51945 39.7508C10.1713 39.6423 11.8459 39.405 13.5213 39.7852C15.2117 40.1683 16.9344 40.2379 18.6206 39.709C21.9624 38.6615 23.3292 35.9928 23.9087 32.873C24.4993 29.6932 24.1332 26.4359 24.339 23.2246C24.6128 18.9509 26.5807 16.0974 30.4792 14.8167C31.9753 14.3255 33.5911 14.1681 35.2184 14.4634C37.2315 14.8283 39.2312 15.0831 41.279 14.3764C43.0576 13.763 44.8582 11.909 44.9795 10.0286C45.1141 7.93809 45.1469 5.84099 45.2309 3.7472C45.2612 2.99874 45.4227 2.26809 45.7002 1.57762C45.8862 1.11661 46.3393 0.829154 46.7937 0.996905C47.3057 1.18578 47.0443 1.58549 46.8099 1.89572C46.6351 2.12685 46.6989 2.31324 46.9279 2.45407C47.169 2.60152 47.3094 2.54229 47.4453 2.2714C47.8147 1.53578 48.1328 1.71513 48.39 2.36336C48.5855 2.85543 49.2019 2.72454 49.5125 3.333C50.0626 4.40868 50.157 5.44584 50.1541 6.5646C50.1537 6.67726 50.1885 6.79655 50.162 6.90134C49.9971 7.54418 49.8671 9.56424 50.0576 10.3521C50.1823 10.8681 49.805 11.3275 50.022 11.8436C50.0945 12.0159 49.8484 12.1464 49.6351 12.0325C49.5067 11.9637 49.3584 11.8225 49.3605 12.1037C49.3746 14.0049 49.2653 14.4908 48.6282 15.2732C47.9903 16.056 47.0112 16.4545 46.3998 17.2837C46.2022 17.5513 45.8452 17.3309 45.5987 17.1404C45.4248 17.0062 45.2566 16.7945 45.0201 17.0099C44.8445 17.1702 44.7277 17.4755 44.8569 17.6155C45.4003 18.2032 44.9352 18.2538 44.5123 18.3424C43.5982 18.535 42.6438 18.9832 41.7769 18.8539C40.2183 18.6216 38.66 18.639 37.1072 18.4948C36.5331 18.4414 35.9487 18.3147 35.6434 17.6528C35.4106 17.1479 34.786 17.1242 34.2948 16.727" fill="black"/>
</svg>
