<svg width="56" height="109" viewBox="0 0 56 109" fill="none" xmlns="http://www.w3.org/2000/svg">
<path fill-rule="evenodd" clip-rule="evenodd" d="M18.9422 92.7915L19.0926 92.9377C17.9009 94.025 16.7089 95.1123 15.5172 96.2C15.5143 96.1946 15.511 96.19 15.5077 96.1847C16.653 95.0539 17.7974 93.9227 18.9422 92.7915M27.6608 73.6641C27.686 71.8168 27.5349 69.9868 27.1728 68.1731C26.5064 64.83 25.0298 62.1779 21.4502 61.2261C17.2295 60.104 10.8616 61.1934 8.16639 66.5233C7.14249 68.5483 6.68024 70.5829 6.86456 72.8051C6.94822 73.8141 7.40716 74.5865 8.30101 75.0877C10.0692 76.0802 11.8851 76.9984 13.5949 78.0841C17.5273 80.5809 21.7112 80.725 26.0806 79.6651C26.7259 79.5085 27.0196 79.1875 27.1824 78.5803C27.6152 76.9649 27.7142 75.3226 27.6608 73.6641M0.65568 108.346C0.892604 108.174 1.12994 108.001 1.36396 107.832C0.949763 107.453 0.543018 108.08 0 107.601C5.0574 104.511 9.34521 100.566 13.522 96.4916C17.7237 92.3926 21.91 88.2784 24.9883 83.2496C24.7742 82.842 24.4776 82.9924 24.2457 83.0147C21.2808 83.3018 18.4667 82.7078 15.7769 81.5079C12.8191 80.1882 9.93876 78.7008 7.17314 77.0183C3.5903 74.8384 2.60988 72.4455 3.43538 68.3363C4.55124 62.7797 9.02337 58.7848 14.6863 58.2086C19.8253 57.6859 24.203 59.2421 27.7279 62.9964C29.4978 64.8818 30.2959 67.3003 30.8025 69.7905C31.2606 72.0454 31.4511 74.3347 31.3873 76.6381C31.3521 77.9126 31.3505 77.9461 32.5554 77.377C35.6764 75.9029 38.4611 73.94 40.8241 71.4187C43.4998 68.5645 45.4134 65.2186 47.0508 61.6854C49.729 55.9081 50.6527 49.7047 51.5664 43.4974C52.2618 38.7706 52.8467 34.0213 53.0641 29.2522C53.3069 23.9165 52.9444 18.5886 52.1906 13.2935C51.8104 10.6231 51.2127 7.99087 50.798 5.32424C50.6108 4.1214 49.951 2.96536 49.7128 1.71779C49.6631 1.45684 49.485 1.18596 49.7505 1.00992C50.0343 0.82146 50.2115 1.1114 50.3959 1.28826C50.6328 1.51732 50.9989 1.64738 51.0387 2.03093C51.2669 4.20631 52.6504 5.99235 53.0583 8.11596C53.4829 10.3265 54.0607 12.5073 54.5027 14.715C54.9454 16.9285 55.1604 19.176 55.3547 21.4251C55.8629 27.3187 55.6856 33.1884 55.0328 39.0705C54.5772 43.1698 54.1191 47.2708 53.3499 51.3147C52.6537 54.9791 51.8315 58.6071 50.2994 62.0922C49.1023 64.8139 47.8067 67.4494 46.2066 69.9264C44.9599 71.8574 43.5702 73.6786 41.7337 75.1739C40.4542 76.2156 39.2174 77.2929 37.8261 78.1938C36.0525 79.3416 34.2635 80.5287 32.2311 81.0696C30.554 81.5157 29.8034 82.7041 29.2873 84.032C28.5053 86.0421 27.3717 87.8402 26.0992 89.5052C22.3536 94.409 17.9465 98.7022 13.2909 102.74C11.0911 104.648 8.71769 106.328 6.05562 107.515C4.40669 108.25 2.65254 108.764 0.65568 108.346" fill="black"/>
</svg>
