<svg width="63" height="45" viewBox="0 0 63 45" fill="none" xmlns="http://www.w3.org/2000/svg">
<path fill-rule="evenodd" clip-rule="evenodd" d="M53.8966 35.5355C51.1132 36.9927 48.57 38.2332 45.9266 39.2567C48.1396 39.0699 52.2692 37.1646 53.8966 35.5355M21.8043 19.6612C32.7695 13.7543 43.8245 8.02385 55.1218 2.77343C43.5445 7.47006 32.6034 13.4254 21.8043 19.6612M4.37514 33.0317C4.63236 33.5283 5.08342 33.7474 5.51833 33.9433C6.92082 34.5758 8.30839 35.2588 9.75561 35.7687C14.4257 37.4143 19.189 38.7091 24.1267 39.2612C29.564 39.8693 35.0165 40.0114 40.4268 39.1453C45.6482 38.3094 50.5325 36.53 54.6521 33.0631C55.4751 32.3706 56.2464 31.6068 56.7683 30.626C58.1095 28.106 58.1563 25.3967 58.0627 22.6389C57.8887 17.5161 56.9982 12.4852 56.2265 7.43775C56.1519 6.95065 56.0757 6.58243 55.3828 6.83095C52.9825 7.69083 50.774 9.04527 48.2921 9.66698C47.1816 9.94491 46.4489 10.6913 45.5732 11.2849C44.4528 12.0445 43.0437 12.0698 41.8417 12.7362C40.6488 13.3977 39.3296 13.8591 38.0886 14.4684C37.7034 14.6573 37.7105 15.2434 37.2312 15.1634C36.1324 14.9808 35.5313 15.7388 34.886 16.3828C34.5526 16.7154 34.2221 17.0315 33.7391 16.9453C33.3572 16.877 33.1128 17.1089 32.8038 17.1893C31.3313 17.5745 30.4479 18.8275 29.2048 19.5598C26.795 20.9788 24.147 21.9025 21.789 23.4615C20.0079 24.6391 18.0844 25.6742 16.0523 26.4947C14.2551 27.22 12.7163 28.6034 10.9075 29.2794C8.50348 30.1782 6.73526 32.055 4.37514 33.0317M14.2298 24.0857C15.3929 23.8107 16.266 23.0461 17.188 22.3507C16.488 22.5619 15.8651 22.9612 15.1837 23.1596C14.6328 23.3203 14.3715 23.6053 14.2522 24.1098C12.8812 24.4846 11.7169 25.226 10.6519 26.1414C11.9343 25.6133 13.1753 25.0111 14.2298 24.0857M62.6827 25.5835C62.6947 27.488 62.751 29.385 62.3844 31.2779C62.2187 32.137 61.8733 32.9178 61.5854 33.7176C60.6332 36.3668 58.7432 38.2398 56.3557 39.6204C55.0564 40.3713 53.6937 41.015 52.3413 41.6698C51.9635 41.8525 51.5514 42.2095 51.0842 41.7866C51.0258 41.734 50.8481 41.732 50.781 41.7817C49.0575 43.0624 47.1712 43.7176 44.4905 44.2076C41.0535 44.8368 37.5787 44.9428 34.1127 44.9722C31.053 44.9983 28.0037 44.6686 24.9556 44.2333C20.9834 43.6663 17.1379 42.6138 13.3836 41.336C10.3898 40.317 7.4336 39.1283 4.7065 37.3319C2.55721 35.9162 0.901232 34.3803 0.148214 31.9332C-0.252733 30.6293 0.15277 29.663 1.45046 29.6091C3.76668 29.5138 5.42224 28.1959 7.2381 27.075C14.7836 22.4169 22.4169 17.91 30.2408 13.727C38.0617 9.54521 45.9282 5.46118 54.0341 1.85349C54.6177 1.59379 55.1997 1.31544 55.8077 1.12905C56.4941 0.918639 57.2272 0.692485 57.5602 1.70604C57.7321 2.22917 58.3903 2.14965 58.7337 2.63426C59.5977 3.8516 59.9825 5.19609 60.2115 6.60852C60.9882 11.3896 61.9358 16.1455 62.4097 20.9718C62.56 22.5031 62.5948 24.046 62.6827 25.5835" fill="black"/>
</svg>
