<svg width="58" height="61" viewBox="0 0 58 61" fill="none" xmlns="http://www.w3.org/2000/svg">
<path fill-rule="evenodd" clip-rule="evenodd" d="M19.1763 7.42133C18.7658 7.42133 18.4742 7.43624 18.1847 7.4176C17.7932 7.39234 17.5712 7.61435 17.4022 7.91672C17.3302 8.04595 17.2834 8.25263 17.4466 8.29819C17.7464 8.38186 17.9941 8.23275 18.2207 8.01364C18.451 7.79163 18.8772 7.92003 19.1763 7.42133M16.6948 24.8878C15.4087 24.9996 14.4051 25.6528 13.515 26.523C14.7501 26.3139 15.6642 25.49 16.6948 24.8878M25.0919 45.3721C25.574 45.2234 26.0499 45.049 26.5391 44.931C28.0638 44.5636 29.0405 43.3363 30.3005 42.5543C30.5291 42.4122 30.621 42.0933 30.4736 41.8506C30.2938 41.5536 30.0685 41.7652 29.9389 41.9317C28.6768 43.5612 26.7942 44.2525 25.0919 45.3721M31.0858 55.6124C32.0401 55.3158 33.0114 55.0644 33.9458 54.7144C37.6865 53.3132 40.9686 51.0993 44.1812 48.788C44.4545 48.5913 45.1061 48.0342 44.5382 47.3201C40.7102 51.1833 35.8694 53.3202 31.0858 55.6124M20.3141 3.82772C17.0394 3.53902 6.70714 11.1243 5.21063 14.5497C9.63596 10.1161 14.3326 6.06855 20.3141 3.82772M25.3959 5.24388C25.4435 5.80677 25.8188 6.50885 24.705 6.11163C24.1131 5.90038 23.7776 6.87086 22.9737 6.96198C22.5421 7.01044 21.8375 7.2395 21.2729 7.42506C20.9039 7.54683 20.4342 7.40352 20.3041 7.95192C20.2639 8.12092 20.1463 8.24062 19.9819 8.14618C19.1435 7.66447 18.5951 8.34376 17.9945 8.67015C15.5425 10.0043 13.1778 11.5257 11.1109 13.3742C8.15768 16.0152 5.36347 18.8462 3.0017 22.0592C2.95738 22.1197 2.9346 22.2203 2.87744 22.2439C2.34519 22.463 2.97146 23.9517 1.73093 23.3436C0.0372608 22.514 -0.350017 21.7734 0.293237 20.5151C1.04957 19.0355 1.87341 17.585 2.74779 16.1709C5.91602 11.0464 10.3471 7.23494 15.5338 4.31192C19.0271 2.34322 22.8784 1.37814 26.8783 1.09317C29.9621 0.873224 33.0491 0.82352 36.0877 1.53595C37.146 1.78364 38.2423 2.01601 39.195 2.50311C39.6941 2.75867 40.2098 2.88459 40.6613 3.09831C42.4154 3.92754 44.4297 4.29908 45.804 5.8863C46.1399 6.27358 46.8395 6.23506 47.3668 6.5892C52.3401 9.93015 55.4756 14.5158 56.4187 20.3974C57.3395 26.1395 57.5553 31.9304 56.1781 37.6709C55.8683 38.9619 55.2623 40.0993 54.6696 41.2802C53.989 42.6367 53.0997 43.8988 52.6126 45.3559C52.5083 45.6678 52.3749 46.0245 52.1405 46.2291C50.733 47.4584 49.7526 49.0626 48.4263 50.369C46.9277 51.8452 45.2879 53.097 43.5358 54.2522C42.1536 55.1634 40.8825 56.2619 39.5458 57.2377C37.9147 58.4277 35.9286 59.0113 34.0142 59.6736C32.248 60.2846 30.4193 60.5799 28.5873 60.8843C28.2858 60.9341 28.0356 61.1117 27.8086 60.7526C27.7469 60.6549 27.5365 60.5588 27.4367 60.5915C24.5476 61.5487 20.7034 60.6329 18.3793 59.4264C15.4588 57.91 12.788 56.0096 10.6652 53.5178C8.95046 51.5043 7.75424 49.1335 7.09525 46.4975C6.58785 44.4691 6.01791 42.4644 5.66915 40.3946C5.18371 37.5176 5.96241 34.9487 7.39265 32.5257C8.59424 30.4894 9.93998 28.5472 11.3619 26.6523C12.7851 24.7548 14.8839 23.9616 16.9599 23.3022C19.45 22.5111 22.0632 22.1648 24.7129 22.2667C26.5677 22.338 28.1416 22.9945 29.4737 24.2669C31.3053 26.0165 32.6303 28.1123 33.6766 30.4008C34.551 32.3144 34.5866 34.4107 34.9813 36.4266C35.0758 36.9058 34.7498 37.25 34.1728 37.2902C33.6836 37.3242 33.2984 37.5296 33.4927 38.148C33.5693 38.148 33.6062 38.1509 33.6422 38.1476C34.1144 38.1062 34.1811 37.1572 34.7759 37.5466C35.3144 37.8995 35.1694 38.5519 35.1234 39.1135C34.9296 41.4757 34.0556 43.5405 32.2812 45.1327C30.8103 46.4519 29.5039 47.9228 27.486 48.6145C23.4119 50.012 21.3943 48.8274 18.4257 46.08C17.4503 45.1774 17.1562 43.9017 16.6993 42.7158C15.3362 39.1794 17.9991 36.8068 20.9842 36.7745C20.6616 37.9856 19.0466 37.7384 18.5019 38.9938C19.5192 38.6861 20.1579 38.0909 20.9167 37.7404C21.2547 37.5843 21.8508 37.1726 21.9845 37.5975C22.1432 38.1016 22.9819 38.3067 22.4033 39.3057C21.787 40.3702 21.1068 41.5209 20.7726 42.7688C20.4876 43.8313 21.1781 44.6646 22.2376 44.571C25.2033 44.3101 27.7597 43.031 29.8216 40.9986C31.1541 39.6859 31.5166 37.7653 31.3687 35.8943C31.2125 33.9273 31.1222 31.9325 30.3096 30.069C30.0652 29.5094 28.9237 27.4948 28.4221 27.1191C28.0435 26.8358 27.5957 26.7003 27.0983 26.7032C26.8423 26.7045 26.4198 26.9766 26.3755 26.3429C26.3544 26.0405 25.8196 26.031 25.7993 26.2729C25.731 27.0843 25.1064 26.8805 24.7096 26.9045C22.5313 27.0346 20.5021 27.8398 18.3938 28.2797C17.5339 28.4594 16.7801 29.0816 16.5009 30.0247C16.3742 30.4522 16.1323 30.8138 15.8009 31.0159C14.0774 32.0655 13.6102 33.9008 12.7934 35.5452C12.3088 36.5206 11.3967 37.243 11.0587 38.3564C10.5025 40.1892 10.4714 42.0485 10.8719 43.8685C11.3151 45.8803 11.8246 47.9004 12.6791 49.7875C13.9159 52.5179 16.2963 53.8703 18.9837 54.8316C20.0237 55.204 21.2203 54.9886 22.185 55.7777C22.3358 55.9011 23.2305 55.4123 23.8509 55.3527C29.7392 54.7861 35.0103 52.5581 39.9915 49.4524C43.1925 47.4568 45.5919 44.7442 47.6973 41.6961C50.895 37.067 51.8418 31.8012 51.959 26.3367C52.0174 23.5942 51.9396 20.8427 51.5817 18.109C51.0677 14.1823 49.0547 11.3608 45.5774 9.45547C43.9886 8.58441 42.3521 7.78127 40.7607 6.92429C40.1195 6.57885 39.1296 6.08015 37.9938 6.32618C37.0068 6.53991 35.8408 5.97867 34.7113 5.94512C33.4956 5.9095 32.3023 5.43689 31.0597 5.76494C30.7391 5.84944 30.6674 5.7434 30.8443 5.42198C30.981 5.17346 30.6687 5.04133 30.5564 5.14281C29.5425 6.0524 28.0948 5.26417 27.0018 6.14601C26.3419 6.67825 26.1365 5.41453 25.3959 5.24388" fill="black"/>
</svg>
