<svg width="53" height="52" viewBox="0 0 53 52" fill="none" xmlns="http://www.w3.org/2000/svg">
<path fill-rule="evenodd" clip-rule="evenodd" d="M7.53074 11.4283C7.01092 11.8118 6.64642 12.1573 6.43808 12.6477C6.38134 12.7819 6.30222 12.9352 6.46211 13.0308C6.53708 13.076 6.75992 13.0296 6.76033 13.0209C6.774 12.4025 7.77347 12.3313 7.53074 11.4283M44.0857 43.0948C44.1586 43.1549 44.231 43.2149 44.3035 43.275C45.2823 42.5646 46.0966 41.7018 46.7332 40.6697C46.266 41.0126 45.892 41.4471 45.4823 41.8447C45.0342 42.2788 44.5525 42.6794 44.0857 43.0948M16.096 20.1862C17.0495 18.7489 18.2262 17.4586 18.7299 15.7803C17.337 16.9488 16.7633 18.6056 16.096 20.1862M37.0422 30.3142C36.1537 31.4321 34.88 32.3119 34.7297 33.9012C35.7664 32.8802 36.7137 31.802 37.0422 30.3142M8.70045 10.3327C10.8804 8.46924 13.4016 7.03279 15.3844 4.92202C12.8681 6.36468 10.4865 7.97551 8.70045 10.3327M42.7296 31.2176C40.6722 33.8643 38.6712 36.4382 36.6702 39.012C40.5446 35.7183 42.4251 33.26 42.7296 31.2176M9.50027 20.3539C9.60382 20.2852 9.74009 20.2462 9.76702 20.1688C10.7843 17.2652 12.8201 15.1503 15.0369 13.1282C16.1378 12.1237 16.8681 10.773 17.8323 9.308C14.7557 10.2984 9.63489 17.2718 9.50027 20.3539M23.89 51.3871C12.2518 51.1887 4.31116 44.6414 1.02364 34.2168C-0.862215 28.2357 -0.0441673 22.4328 2.67175 16.9475C5.415 11.4076 9.5069 6.98433 15.0775 4.15119C17.4045 2.96782 19.8988 2.10297 22.3492 1.17888C23.3048 0.81853 24.3191 0.907169 25.3244 1.26421C26.6002 1.71735 27.9583 1.90622 29.3016 1.86066C32.2797 1.76042 34.9405 2.71474 37.4067 4.23238C39.0689 5.25587 40.8628 6.08303 42.351 7.37865C46.9755 11.4051 50.1802 16.3581 51.9981 22.2095C52.6841 24.4152 52.4438 26.6697 52.2301 28.8997C52.1067 30.1846 51.6042 31.4549 51.4025 32.6872C51.2455 33.6456 50.4627 34.3411 50.5248 34.9802C50.6176 35.9461 50.2225 36.5571 49.8335 37.2305C46.1736 43.5649 40.4394 47.1585 33.6838 49.3927C31.291 50.1843 28.865 50.847 26.3719 51.221C25.4085 51.3652 24.4219 51.3544 23.89 51.3871" fill="black"/>
</svg>
