<svg width="231" height="176" viewBox="0 0 231 176" fill="none" xmlns="http://www.w3.org/2000/svg">
<path fill-rule="evenodd" clip-rule="evenodd" d="M50.9357 143.924C50.9444 143.877 50.9531 143.83 50.9614 143.783H46.5075C46.5075 143.83 46.5075 143.877 46.5079 143.924H50.9357ZM54.7108 142.897C56.706 143.254 57.6566 143.071 57.9966 142.135C57.0879 143.601 55.8606 142.229 54.7108 142.897V142.897ZM108.345 49.5814C110.322 48.917 112.068 47.8815 113.72 46.6778C111.929 47.6458 110.137 48.6134 108.345 49.5814V49.5814ZM166.624 2.21665C166.861 2.50701 166.914 2.6176 166.953 2.61305C168.672 2.41879 170.391 2.2734 172.122 2.44447C172.278 2.45979 172.434 2.40222 172.461 2.22535C172.5 1.96813 172.297 1.89855 172.112 1.90849C170.345 2.00003 168.578 2.10482 166.624 2.21665V2.21665ZM144.674 171.096C139.652 171.236 134.796 170.125 129.921 169.152C134.702 170.824 139.613 171.529 144.674 171.096V171.096ZM34.3217 62.0878C30.1142 64.3439 26.1773 66.9472 23.3019 70.8734C26.6461 67.5312 30.304 64.5871 34.3217 62.0878V62.0878ZM92.9395 50.1016C98.1638 48.8528 103.132 46.9541 107.773 44.2287C102.937 46.4612 97.9666 48.3533 92.9395 50.1016V50.1016ZM173.25 2.25973C177.892 2.6905 182.361 3.85523 186.703 5.546C182.498 3.32796 178.018 2.21748 173.25 2.25973V2.25973ZM76.0918 141.559C72.06 140.444 67.9482 139.91 63.7838 139.78C58.7952 139.625 53.8074 139.716 48.8192 139.863C46.1252 139.943 43.4283 139.912 40.7348 139.998C40.0787 140.018 39.3953 139.514 38.6783 140.066C40.6118 140.377 42.4897 140.411 44.3483 140.386C50.2709 140.308 56.1919 140.035 62.1158 140.161C66.8071 140.26 71.4818 140.628 76.0918 141.559V141.559ZM176.188 6.12299C176.174 6.07038 176.16 6.01778 176.146 5.96518C175.061 5.91216 173.974 5.78831 172.891 5.81979C169.363 5.9221 165.836 5.90139 162.465 7.33742C161.581 7.71352 160.443 7.62198 159.5 8.12109C158.209 8.80494 156.728 8.87701 155.386 9.58488C153.318 10.6759 151.198 11.7151 149.041 12.6396C147.612 13.2522 146.417 14.2074 145.111 14.9902C144.095 15.5995 143.186 16.4424 142.235 17.1689C140.45 18.532 138.764 19.9987 137.25 21.6245C135.714 23.2742 134.238 24.9956 132.79 26.7328C131.36 28.4468 130.001 30.2249 128.534 31.9058C126.807 33.8836 125.168 35.9339 123.721 38.1047C122.998 39.1899 121.931 39.8829 121.174 40.9349C120.548 41.8039 119.884 42.7773 119.016 43.5196C117.47 44.8417 115.862 46.0777 114.138 47.1546C108.378 50.7523 102.129 53.2338 95.6371 55.1251C93.6374 55.7078 91.6529 56.4385 89.5061 56.3813C88.8447 56.3639 88.121 56.3768 87.5271 56.6212C86.3338 57.1107 85.0941 57.3609 83.8428 57.4612C81.1853 57.6736 78.5808 58.2361 75.9295 58.5141C71.6334 58.9647 67.3368 59.3768 63.0254 59.5728C60.4023 59.692 57.8218 60.1779 55.1858 60.2309C53.4992 60.2649 51.8217 60.8787 50.1463 61.2594C42.2242 63.0591 35.0101 66.2704 29.1835 72.0858C28.445 72.8226 27.3967 72.7733 26.7725 73.6216C23.9646 77.4372 21.105 81.2148 18.0863 84.8713C14.9143 88.7139 13.2053 93.4167 10.7238 97.6668C10.2189 98.5313 10.2562 98.5474 9.2207 99.0047C9.1159 99.0507 9.0749 99.252 9.01318 99.3858C7.78715 102.049 6.33164 104.609 5.34667 107.381C4.73034 109.115 3.96697 110.824 3.9388 112.703C3.83981 119.251 6.54744 124.497 11.5104 128.624C14.3087 130.95 17.535 132.594 20.8341 134.087C27.6771 137.183 34.8535 138.773 42.3671 138.828C49.846 138.884 57.3169 138.411 64.8044 138.727C72.2045 139.038 79.2311 140.64 85.9349 143.767C93.9741 147.517 101.431 152.263 108.852 157.075C113.94 160.375 119.137 163.486 124.75 165.828C132.644 169.12 140.869 170.221 149.379 169.551C154.527 169.147 159.628 168.418 164.658 167.315C178.455 164.292 191.543 159.385 203.747 152.211C209.314 148.937 214.457 145.154 218.664 140.197C221.5 136.855 224.08 133.349 225.761 129.26C226.747 126.86 227.375 124.396 226.992 121.776C226.519 118.543 225.495 115.482 223.921 112.621C220.737 106.831 216.306 101.99 212.026 97.0314C207.828 92.1683 203.726 87.2646 201.35 81.1311C199.976 77.5855 199.062 73.977 198.743 70.2301C197.924 60.6377 198.561 51.0555 199.14 41.4771C199.407 37.0522 200.061 32.6451 199.729 28.1929C199.506 25.2073 198.978 22.2988 197.616 19.5953C195.554 15.5013 191.463 11.2019 186.175 9.05884C186.037 9.00293 185.881 8.95198 185.78 8.85174C184.564 7.64725 182.97 7.52133 181.409 7.28772C181.004 7.22683 180.469 7.24796 180.229 7.00234C179.369 6.12009 178.179 6.84494 177.192 6.26713C176.758 6.01322 175.747 6.33216 174.99 6.20707C175.39 6.1789 175.789 6.15074 176.188 6.12299V6.12299ZM148.504 175.464C148.717 175.513 148.93 175.563 149.144 175.612C145.235 175.939 141.343 175.86 137.48 175.264C131.985 174.416 126.746 172.714 121.732 170.321C116.835 167.983 112.191 165.209 107.673 162.21C101.085 157.838 94.4459 153.552 87.4161 149.902C81.5705 146.866 75.4055 144.971 68.8375 144.381C66.2558 144.149 63.6737 143.96 61.0166 143.922C61.314 143.437 61.7319 143.825 62.2045 143.552C61.4266 143.552 60.6591 143.322 60.2656 143.608C59.7226 144.002 59.1162 144.085 58.7364 143.883C57.1082 143.018 55.4373 143.665 53.8012 143.622C52.5039 143.588 51.2493 144.204 49.9073 144.132C48.2024 144.041 46.5038 144.347 44.7836 143.825C44.0153 143.591 43.0369 143.836 42.1414 144.077C41.3142 144.3 40.2394 144.374 39.5121 144.021C38.2881 143.429 37.0471 143.817 35.8261 143.597C32.8293 143.056 29.8699 142.432 26.9618 141.54C22.8131 140.267 18.8997 138.464 15.1106 136.359C8.83093 132.871 4.77673 127.497 2.06081 121.008C-0.659659 114.509 -0.771493 108.009 2.23312 101.533C3.81496 98.1233 5.39265 94.7119 7.27147 91.4538C8.47472 89.3671 9.8946 87.4191 11.5982 85.7101C13.115 84.1879 14.0395 82.3012 15.0104 80.4452C17.5697 75.5501 20.5905 70.9894 24.5834 67.1332C28.6157 63.238 33.3533 60.4256 38.5072 58.3078C45.3614 55.4916 52.5751 54.317 59.9094 53.6049C70.4612 52.5806 81.0283 51.5824 91.2748 48.625C98.4955 46.5407 105.472 43.877 111.81 39.7387C114.613 37.9075 116.893 35.5325 119.077 33.0216C122.925 28.5955 126.504 23.9361 130.563 19.6947C133.479 16.6478 136.486 13.6892 139.999 11.3183C146.156 7.16387 152.727 3.84654 160.019 2.25559C167.834 0.550738 175.666 0.2463 183.369 2.97092C190.701 5.56381 196.662 9.82884 200.073 17.0455C201.939 20.9924 202.529 25.2525 202.551 29.5751C202.592 37.5136 201.834 45.4315 201.903 53.3734C201.949 58.7543 201.784 64.1418 202.632 69.4838C203.669 76.012 206.576 81.6596 210.708 86.751C213.484 90.1727 216.415 93.461 219.255 96.8281C222.66 100.866 225.806 105.084 228.071 109.897C232.05 118.355 231.377 126.619 227.032 134.718C224.488 139.459 221.21 143.634 217.375 147.417C215.751 149.019 214.015 150.485 212.304 151.968C210.755 153.312 209.057 154.52 207.238 155.551C205.798 156.367 204.537 157.485 203.09 158.338C197.843 161.433 192.45 164.217 186.834 166.589C183.473 168.009 180.025 169.18 176.573 170.323C173.812 171.237 170.994 171.99 168.136 172.631C165.779 173.16 163.418 173.756 161.04 174.198C159.764 174.434 158.422 174.206 157.105 174.408C154.484 174.808 151.85 175.144 149.189 175.156C148.922 175.157 148.655 175.18 148.516 175.469C146.829 175.151 145.151 175.409 143.47 175.455C145.149 175.607 146.828 175.675 148.504 175.464V175.464Z" fill="black"/>
</svg>
