<svg width="42" height="36" viewBox="0 0 42 36" fill="none" xmlns="http://www.w3.org/2000/svg">
<path fill-rule="evenodd" clip-rule="evenodd" d="M14.0936 2.45686C12.7263 2.40384 11.4928 2.74722 10.4614 3.69574L14.0936 2.45686ZM22.6725 30.1856C24.3322 30.0485 25.7728 29.418 27.0407 28.373C25.5843 28.9769 24.1284 29.5812 22.6725 30.1856V30.1856ZM18.3586 35.3602C12.4525 35.6012 7.37149 32.5838 3.19717 27.8184C0.340007 24.557 -0.287922 20.5864 0.106812 16.3873C0.568646 11.4724 2.90391 7.50929 6.53024 4.33609C10.0348 1.26852 14.1404 0.208991 18.7268 1.46733C20.2892 1.89603 21.2563 2.98455 21.9157 4.39035C22.1096 4.80414 22.2169 5.2842 21.8416 5.65988C21.4841 6.01899 21.1557 5.6429 20.8156 5.53769C18.9356 4.95615 17.1731 5.53065 15.455 6.18219C12.3336 7.36597 9.99214 9.5194 8.02013 12.1823C5.80788 15.1695 4.86598 18.4985 4.86308 22.1637C4.86184 23.9771 5.64261 25.3075 7.09066 26.3559C11.5069 29.5531 16.4607 30.0021 21.5351 28.8241C26.7515 27.613 31.0903 24.7202 34.2838 20.4129C37.5589 15.9959 37.8372 11.2586 34.8541 6.52349C34.3488 5.72159 34.6065 4.95408 34.5435 4.18159C34.505 3.71355 34.9701 3.4758 35.5285 3.53461C36.7632 3.66426 37.5585 4.38083 38.239 5.3426C39.7927 7.53994 40.5747 10.0243 41.0084 12.6388C41.7879 17.3362 41.0286 21.728 38.345 25.7234C38.1603 25.9972 38.0004 26.2685 37.655 26.4296C37.0821 26.6963 36.7036 27.1022 36.4815 27.7906C36.3055 28.3353 35.6921 28.7686 35.2124 29.1815C30.5697 33.184 25.2625 35.4625 18.3586 35.3602V35.3602Z" fill="black"/>
</svg>
