<svg width="60" height="58" viewBox="0 0 60 58" fill="none" xmlns="http://www.w3.org/2000/svg">
<path fill-rule="evenodd" clip-rule="evenodd" d="M54.9052 15.514C54.7225 16.2956 54.3302 16.6142 53.6924 16.7496C53.5702 16.5856 53.4298 16.3967 53.3171 16.2455C52.7037 15.8698 52.1047 15.5033 51.5414 15.1582C51.5414 14.8691 51.5978 14.6587 51.5294 14.5034C51.3973 14.2031 51.2183 13.8999 51.3265 13.583C51.4938 13.093 51.6711 12.5848 51.9585 12.1623C52.3881 11.5307 52.9166 10.9665 53.3718 10.4119H53.967C54.4769 10.8547 54.9474 11.1716 55.2941 11.5907C55.6437 12.0132 55.8698 12.5376 56.1718 13.0541C55.4391 13.8556 54.8016 14.6372 54.9052 15.514" fill="black"/>
<path fill-rule="evenodd" clip-rule="evenodd" d="M33.1291 1.38145C33.2161 1.86731 33.7682 2.10257 33.7989 2.67956C33.813 2.94754 33.9497 3.16458 33.7736 3.45784C33.581 3.77967 33.4916 4.16281 33.3578 4.51819C33.3118 4.47843 33.2588 4.43245 33.2062 4.38648C32.8413 4.67476 32.7841 4.74393 32.529 5.40169C31.9462 5.55204 31.3096 5.71648 30.5855 5.90328C30.1535 5.60837 29.5459 5.53382 29.0484 5.19873C28.9316 4.3637 27.9665 3.80287 28.3161 2.80464C28.471 2.64559 28.6537 2.45837 28.8757 2.23015C28.988 2.29642 29.0994 2.38133 29.2245 2.43393C29.7654 2.66133 30.2082 2.39541 30.5934 2.08186C30.9981 1.75257 31.3431 1.34914 31.7432 0.948608H32.5385C32.3736 1.20376 32.2212 1.44027 32.058 1.69251C32.6014 2.07192 32.659 1.33879 33.1291 1.38145" fill="black"/>
<path fill-rule="evenodd" clip-rule="evenodd" d="M58.2273 26.2232H58.5872C58.8586 26.5658 59.1228 26.8992 59.4281 27.2844C59.4823 27.863 59.5399 28.5162 59.0072 29.0369C59.0524 29.5132 58.6912 29.8992 58.7475 30.4042C58.789 30.7707 58.6659 31.1841 58.5152 31.5324C58.4344 31.7205 58.1412 31.8166 57.9432 31.9545C57.1885 31.4421 56.5133 30.9832 56.0627 30.6771C55.3743 29.5062 55.7802 28.6181 56.0586 27.7185C56.4152 26.5645 56.7043 26.1938 57.8102 25.5456C57.9386 25.7547 58.0678 25.9643 58.2273 26.2232" fill="black"/>
<path fill-rule="evenodd" clip-rule="evenodd" d="M9.12599 17.9883C9.28214 18.7827 8.66291 19.5768 7.57729 20.0974C7.5164 20.044 7.43895 19.9756 7.36729 19.9127C7.27451 19.9918 7.1925 20.0622 7.11463 20.1285C6.65321 19.9429 6.20421 19.7623 5.65167 19.5403C5.53528 19.3357 5.36297 19.0333 5.17285 18.6999C5.32776 18.5578 5.44208 18.4008 5.59617 18.3271C5.71628 18.27 5.88528 18.3159 6.04557 18.3159C6.11682 17.9659 6.18599 17.6279 6.25475 17.2924C5.9909 16.8314 5.69723 16.3191 5.38492 15.7736C5.6293 15.5466 5.84137 15.349 6.05261 15.1527H6.61966C7.53794 15.8266 8.6335 16.322 9.12599 17.9883" fill="black"/>
<path fill-rule="evenodd" clip-rule="evenodd" d="M24.0503 43.4696C24.2375 43.2091 24.3696 43.0243 24.5784 42.7336C24.7714 42.6627 25.0974 42.5434 25.4739 42.4051C25.5269 42.6892 25.5654 42.8951 25.6205 43.1883C25.782 43.1395 25.9336 43.0935 26.0852 43.0475C26.5624 42.9129 26.2857 43.6059 26.7533 43.6593C26.9588 43.6825 27.1153 44.1352 27.3543 44.4794C27.4707 44.9723 27.3204 45.5021 26.9339 45.9912C26.994 46.0592 27.0632 46.137 27.1427 46.2269C27.0367 46.3218 26.9269 46.4199 26.8026 46.5314C26.7413 46.4775 26.6088 46.3446 26.598 46.3541C26.0086 46.8594 25.5468 46.3234 25.0559 46.154C24.6326 46.0078 24.2354 45.7841 23.8382 45.6007C23.605 45.1334 23.3718 44.667 23.1042 44.1315C23.0715 43.1548 23.1423 42.9788 23.885 42.4287C23.9393 42.77 23.9865 43.0666 24.0503 43.4696" fill="black"/>
<path fill-rule="evenodd" clip-rule="evenodd" d="M41.3143 41.239C40.8781 41.0758 40.5542 40.9549 40.2427 40.8385V40.5875C39.7424 40.4263 39.2457 40.2669 38.7214 40.0983C38.5979 39.4405 38.4894 38.8594 38.3975 38.3686C38.7773 37.9159 39.3224 37.884 39.4673 37.3236C39.5245 37.1007 39.964 36.976 40.3517 36.7288C40.4279 36.9156 40.5008 37.0941 40.5894 37.3107C40.5828 37.3273 40.5165 37.5017 40.4502 37.676C40.5053 37.71 40.5608 37.744 40.6159 37.7779C40.7282 37.5957 40.8408 37.4134 41.004 37.1488C41.4083 37.6885 41.8825 38.0795 42.0072 38.5608C42.1211 38.999 42.4148 39.4227 42.221 40.0063C42.0275 40.5883 41.2683 40.5245 41.3143 41.239" fill="black"/>
<path fill-rule="evenodd" clip-rule="evenodd" d="M16.1818 28.925H15.0348C14.7813 29.2816 15.2192 29.8507 14.2951 30.0636C13.4886 30.033 12.5873 29.5977 12.0054 28.5911V27.6787C12.321 27.363 12.5277 27.1564 12.7696 26.9149C12.8131 26.9488 12.9208 27.0333 13.0293 27.1182C13.3536 26.7264 13.7869 26.9667 14.0747 26.9132C14.9822 27.3676 15.8396 27.7669 16.1818 28.925" fill="black"/>
<path fill-rule="evenodd" clip-rule="evenodd" d="M9.63181 47.6862H10.111C10.1516 47.8076 10.1951 47.9376 10.2643 48.1443C10.7054 48.0843 11.3019 48.107 11.4953 48.4806C11.7326 48.9392 12.3382 48.9052 12.4521 49.5837V51.4231C11.7065 51.8999 11.2294 50.9273 10.5737 51.0839C10.1065 50.7877 9.92051 50.2642 9.4653 49.9606C9.21926 49.7966 9.03163 49.4138 9.0627 49.0228C9.08382 48.764 9.06684 48.5022 9.06684 48.2512L9.63181 47.6862Z" fill="black"/>
<path fill-rule="evenodd" clip-rule="evenodd" d="M0.493529 35.4883C0.674534 34.8127 -0.259075 34.5332 0.0714575 33.8535C0.333647 33.5908 0.616546 33.3071 0.988499 32.9348C1.54477 33.2135 2.19175 33.479 2.77495 33.846C3.37388 34.2229 3.57974 34.9117 3.91773 35.5127C3.80838 35.794 3.70814 36.0529 3.59424 36.3461C2.47341 36.5806 1.55513 36.0321 0.493529 35.4883" fill="black"/>
<path fill-rule="evenodd" clip-rule="evenodd" d="M36.099 54.5129C35.6674 53.9437 35.0684 53.9284 34.4939 53.7416C34.3469 53.5283 34.1688 53.2698 33.9373 52.9339V51.152C34.0818 51.0435 34.2902 50.8878 34.6455 50.621C34.899 50.6724 35.3439 50.761 35.7303 50.8389C36.6929 51.3281 36.7008 52.3217 37.1183 53.1758C36.7977 53.5962 36.4548 54.0465 36.099 54.5129" fill="black"/>
<path fill-rule="evenodd" clip-rule="evenodd" d="M16.3363 39.9476C16.4577 39.9787 16.5596 40.0048 16.7049 40.0417V41.1215C16.5003 41.3978 16.3255 41.6338 16.1988 41.8049C15.5286 41.6231 14.9541 41.4673 14.3133 41.2938C14.2889 41.1534 14.2533 40.9463 14.2156 40.7284C14.1104 40.7052 14.0081 40.6824 13.8822 40.6551C13.5525 39.789 14.3767 39.248 14.513 38.5124C15.0088 38.5365 15.1446 37.7134 15.7887 38.0324C15.8028 38.0792 15.8326 38.1794 15.8906 38.3741C16.0335 38.3952 16.234 38.4246 16.4415 38.4553L16.9514 38.9651C16.7509 39.2857 16.5442 39.6159 16.3363 39.9476" fill="black"/>
<path fill-rule="evenodd" clip-rule="evenodd" d="M46.8524 27.1798C47.0546 27.092 47.2058 27.0261 47.3607 26.9586C47.8266 27.7506 48.7337 28.3727 48.5834 29.5801C48.2011 29.7922 47.7732 30.0295 47.3718 30.2519C47.0604 30.0925 46.751 29.9347 46.4991 29.8058C46.2059 29.4347 45.9404 29.0988 45.6455 28.7252C45.5593 28.2087 45.4653 27.6437 45.3667 27.0502C45.6061 26.865 45.812 26.7064 46.1172 26.4707H46.7518C46.7824 26.6861 46.8118 26.8944 46.8524 27.1798" fill="black"/>
<path fill-rule="evenodd" clip-rule="evenodd" d="M49.6992 45.505C49.6213 45.6483 49.5435 45.7912 49.4453 45.9718C49.7941 46.154 50.0724 46.2095 50.347 45.7945C50.3802 46.007 50.4299 46.1188 50.4054 46.2104C50.3429 46.4423 50.2468 46.6647 50.1528 46.9228C50.5442 46.7037 50.5748 46.6722 50.806 46.2166C50.9915 46.7227 51.2309 47.1303 51.2711 47.5569C51.3084 47.9529 51.1328 48.3692 51.0495 48.785C50.9161 48.727 50.7509 48.614 50.7144 48.6459C50.3822 48.9399 50.0513 48.8965 49.715 48.6811C49.3774 48.4653 49.0974 48.5622 48.8737 48.911C48.6956 48.7681 48.5863 48.6807 48.4541 48.5742C48.5138 48.3319 48.5751 48.0821 48.6397 47.8175C48.4608 47.7321 48.3087 47.6597 48.1294 47.5743C48.2292 47.1266 48.3286 46.6797 48.4504 46.1333C48.7697 45.9196 49.179 45.6466 49.5874 45.3733L49.6992 45.505Z" fill="black"/>
<path fill-rule="evenodd" clip-rule="evenodd" d="M35.4985 16.0462C35.1638 15.8457 34.9033 15.6792 34.6332 15.5301C33.9341 15.1444 33.9353 15.1465 33.6913 14.372C33.6292 14.1752 33.5604 13.9764 33.4627 13.7958C33.3297 13.5502 33.1446 13.3315 33.022 13.0817C32.9159 12.8668 32.8658 12.6244 32.7859 12.3784C32.9988 12.1017 33.2237 11.8288 33.5174 11.7082C35.0126 12.6145 35.0052 12.3469 35.9558 14.9195C35.8021 15.2981 35.6472 15.6792 35.4985 16.0462" fill="black"/>
<path fill-rule="evenodd" clip-rule="evenodd" d="M44.9153 4.28955C45.0205 4.30157 45.1986 4.32186 45.3834 4.34257C46.0448 5.18547 46.5382 6.07228 46.3128 7.11772C45.9649 7.16494 45.6613 7.20677 45.3299 7.25192C45.0611 6.96032 44.7819 6.65754 44.6216 6.48358C44.2323 6.32867 43.9067 6.3034 43.7978 6.13648C43.4113 5.54624 43.3281 4.86736 43.4428 4.11021C43.7133 3.95074 44.0157 3.7718 44.3777 3.55807C44.5603 3.8066 44.7219 4.02612 44.9153 4.28955" fill="black"/>
<path fill-rule="evenodd" clip-rule="evenodd" d="M44.3058 14.9312V15.5537C44.5795 15.5802 44.8554 15.6071 45.1735 15.6382V16.1481C46.2562 16.5316 46.1266 17.4002 46.1088 18.2717C44.8086 18.5024 44.0175 17.7117 43.2661 16.9318C43.1572 16.4844 43.0574 16.0748 42.9385 15.5873C43.1928 15.1043 43.6397 14.9088 44.3058 14.9312" fill="black"/>
<path fill-rule="evenodd" clip-rule="evenodd" d="M19.6895 16.5603C19.9774 16.3871 20.2189 16.2417 20.4641 16.0943C21.1479 16.6837 22.1242 16.9301 22.5309 17.6687C22.6478 18.0319 22.7223 18.263 22.8263 18.5861C22.7521 18.7348 22.6295 18.9804 22.5463 19.1474C22.3504 19.2381 22.2253 19.2961 22.0675 19.3694C21.746 19.2339 21.3774 19.079 21.0088 18.9241C20.1924 18.4055 19.6365 17.6902 19.6895 16.5603" fill="black"/>
<path fill-rule="evenodd" clip-rule="evenodd" d="M18.1243 57.5524C17.8903 57.2095 17.6505 56.8591 17.4297 56.5356C17.4852 56.3401 17.5312 56.1777 17.5771 56.0153C17.5341 55.9971 17.4906 55.9789 17.4475 55.9607C17.778 55.522 18.1081 55.0834 18.418 54.6721C19.6506 54.9442 19.9228 55.9615 20.279 56.8172C20.1154 57.1415 19.9422 57.4849 19.7919 57.7831C19.289 57.7136 18.7597 57.6402 18.1243 57.5524" fill="black"/>
<path fill-rule="evenodd" clip-rule="evenodd" d="M14.4129 8.10898C14.673 7.85384 14.8594 7.67117 15.0656 7.46863C15.6149 7.50011 16.1198 7.43549 16.5936 8.03981C17.1458 8.74354 17.3997 8.80691 17.555 9.29153C17.5649 9.32342 17.6055 9.34496 17.632 9.37147C17.3454 9.63241 17.4245 10.2695 16.6711 10.1647C16.4197 9.91159 16.0324 9.75129 15.5387 9.68585C15.1472 9.63366 14.8097 9.18218 14.4116 8.88105C14.5284 8.71537 14.6084 8.60188 14.692 8.48301C14.6224 8.38981 14.5413 8.28088 14.4129 8.10898" fill="black"/>
</svg>
