<svg width="104" height="102" viewBox="0 0 104 102" fill="none" xmlns="http://www.w3.org/2000/svg">
<path fill-rule="evenodd" clip-rule="evenodd" d="M59.3067 84.9671C59.0134 84.8122 58.5508 84.5678 58.057 84.3068C58.1552 84.1515 58.2227 84.0442 58.3329 83.8698C58.2078 83.7278 58.033 83.5869 57.9369 83.4051C57.8417 83.2241 57.8247 83.0021 57.7746 82.8012C57.6379 82.7548 57.5074 82.7105 57.3877 82.6699V82.1799C57.5393 82.1078 57.693 82.0341 57.8864 81.9417C57.7845 81.7371 57.6921 81.5511 57.5828 81.3329C57.7911 81.2007 57.9949 80.9613 58.1892 80.9696C58.8432 80.9961 59.5212 80.7679 60.1537 81.1117C60.2428 81.1606 60.3608 81.1697 60.466 81.1722C61.2302 81.192 61.9804 81.1999 62.7487 81.3685C63.7034 81.5772 64.7112 81.5387 65.6937 81.6332C66.0428 81.6667 66.3825 81.7839 66.7296 81.8502C67.0415 81.9094 67.4093 81.7102 67.6615 82.0631C67.6881 82.1004 67.8032 82.0797 67.8765 82.0772C68.7857 82.0478 69.6381 82.3352 70.5154 82.5017C71.3177 82.6537 72.1258 82.7822 72.9169 82.9855C74.546 83.4035 76.1949 83.7344 77.8016 84.2592C78.4225 84.4622 79.0686 84.6746 79.7264 84.801C79.9016 84.8345 80.0491 85.0097 80.3995 85.2508H79.3147C79.311 85.2968 79.3072 85.3432 79.3031 85.39C79.68 85.5295 80.0561 85.6695 80.4836 85.8286C80.3957 85.9835 80.3125 86.131 80.2383 86.2619C80.3158 86.3774 80.3941 86.4934 80.508 86.6628C80.1075 86.949 79.7459 87.2079 79.3805 87.4688C79.3271 87.3363 79.2749 87.2071 79.197 87.0136C79.0401 87.0845 78.8889 87.152 78.7344 87.2216C78.606 87.1714 78.4486 87.1097 78.2912 87.0484C78.1321 86.9871 77.9723 86.9258 77.8811 86.891C77.6115 86.9623 77.3804 87.0236 77.1824 87.0762C77.0005 86.8939 76.8672 86.7614 76.7346 86.6284C76.0669 87.1391 75.4618 86.522 74.8218 86.5158C74.6918 86.5141 74.5634 86.3795 74.4333 86.3778C73.6381 86.3671 72.8958 86.1239 72.1333 85.9392C71.4353 85.7694 70.6952 85.7793 69.9757 85.689C69.5528 85.636 69.134 85.5469 68.7153 85.4658C68.2953 85.3846 67.816 85.6666 67.4449 85.2562C67.4101 85.2177 67.3028 85.2458 67.2287 85.2408C66.0565 85.1659 64.8831 85.1033 63.7125 85.0093C63.2515 84.972 62.7992 84.8337 62.3382 84.7981C61.8524 84.76 61.3599 84.7691 60.8724 84.7952C60.4118 84.82 59.9537 84.8933 59.3067 84.9671" fill="black"/>
<path fill-rule="evenodd" clip-rule="evenodd" d="M22.4609 83.072C22.038 82.8164 21.7373 82.6342 21.4453 82.4577C21.7941 81.5113 21.7941 81.5113 20.6608 80.9604C20.5278 81.0938 20.3949 81.2263 20.1886 81.433C20.0962 81.2905 20.0039 81.1476 19.8718 80.9438C20.2263 80.6088 20.2164 80.1817 19.8113 79.7845C20.1422 79.4912 20.4206 79.2448 20.7813 78.9246C20.8969 78.9192 21.15 78.9064 21.4147 78.8935C21.442 78.766 21.4639 78.6628 21.4867 78.556C21.5431 78.527 21.6052 78.4673 21.6669 78.4682C21.9962 78.4727 22.3023 78.2992 22.5918 78.2677C23.9218 78.124 25.205 77.6203 26.5768 77.769C26.9094 77.805 27.3734 77.4633 27.585 77.5979C27.9487 77.8286 28.1554 77.5114 28.4387 77.5478C28.8086 77.5954 29.1921 77.5888 29.5636 77.5478C29.7596 77.5263 29.9418 77.3834 30.1149 77.3022C30.2297 77.4074 30.3105 77.4819 30.3254 77.4952C31.0821 77.2425 31.7722 77.2463 32.6089 77.5329C32.6378 77.5147 32.7861 77.3444 32.9319 77.3465C34.0068 77.3622 35.08 77.4356 36.1544 77.4438C36.8225 77.4492 37.4906 77.3593 38.1596 77.3424C38.3559 77.3374 38.5547 77.436 38.8049 77.5002C38.8223 77.4844 38.9014 77.4128 38.9768 77.3448C39.0621 77.4202 39.1441 77.4931 39.2377 77.5764C39.9191 77.1883 40.634 77.3535 41.3444 77.3656C41.3444 77.5242 41.3444 77.5992 41.3444 77.6746C41.1571 77.7706 40.9703 77.8667 40.7603 77.974C40.7131 77.9326 40.6348 77.8634 40.5503 77.7885C39.7393 78.2163 38.8322 77.909 37.9732 78.1757C38.2022 78.1964 38.4594 78.2921 38.6537 78.2192C38.932 78.1153 39.0932 78.585 39.4088 78.293C39.5244 78.1865 39.857 78.3153 40.2364 78.3505C40.2248 78.3567 40.3689 78.2727 40.4981 78.1969C40.6232 78.3112 40.704 78.3853 40.7848 78.4586C41.0258 78.1012 41.3841 78.2702 41.6956 78.2486C41.8074 78.3609 41.9139 78.4673 42.0638 78.6169C41.8016 78.6682 41.573 78.7134 41.3444 78.7577C41.3464 78.7987 41.3481 78.8389 41.3502 78.8795C41.6322 78.9002 41.9147 78.9205 42.3107 78.949C42.1943 79.3251 42.0945 79.647 41.969 80.0525C40.9794 79.9539 39.9758 79.8533 39.1205 79.7679C38.792 80.0815 38.5796 80.2848 38.387 80.4683C37.8659 80.3391 37.6696 79.9224 37.4252 79.5567C37.2591 79.7257 37.1278 79.8595 37.0271 79.9626C36.6701 79.9001 36.3404 79.8421 36.0745 79.7957C35.8947 80.0835 35.7638 80.2931 35.6412 80.4895H34.8965C34.7876 80.6183 34.6674 80.7608 34.5378 80.914H33.5081C33.4733 80.8154 33.4277 80.6846 33.3453 80.4497C32.8955 80.5822 32.439 80.7169 32.0141 80.8424C31.7034 80.8026 31.3986 80.7475 31.0912 80.7272C30.7918 80.7073 30.4165 80.6108 30.2065 80.7492C29.8905 80.9571 29.5893 80.9298 29.2679 80.9496C28.939 80.9695 28.5551 80.9004 28.2983 81.0486C28.0576 81.1878 27.8555 80.8834 27.6003 81.1447C27.4417 81.3063 26.9832 81.1746 26.6522 81.3353C26.8805 81.3796 27.1091 81.4243 27.3883 81.479C26.8084 81.9164 26.3681 81.4098 25.8855 81.3721C25.3355 81.3295 24.9482 81.7611 24.4164 81.7395C24.5564 81.8079 24.6964 81.8758 24.8248 81.9383C24.7829 81.9847 24.7361 82.075 24.6997 82.0709C24.5249 82.0514 24.3534 82.0021 24.1794 81.9715C23.9603 81.9325 23.7391 81.9019 23.5014 81.9802C23.6472 82.0502 23.7926 82.1198 24.0809 82.2581H22.9812C22.8018 82.5389 22.6519 82.773 22.4609 83.072" fill="black"/>
<path fill-rule="evenodd" clip-rule="evenodd" d="M23.2214 22.0372C23.4289 22.1693 23.6989 22.3416 24.0233 22.5487C23.8257 22.6158 23.6948 22.6606 23.5498 22.7099C23.5631 22.7608 23.5614 22.8457 23.5921 22.8594C23.8447 22.9749 24.1036 23.0764 24.3608 23.1825C24.073 23.5772 24.6321 23.9413 24.348 24.2805C24.167 24.5112 23.986 24.7415 23.7934 24.9867C22.7562 24.505 21.6888 24.6007 20.6951 24.7419C19.9297 24.8513 19.1725 24.8546 18.4146 24.9304C18.0314 24.9693 17.6814 25.2502 17.2668 25.1412C17.1065 25.0994 16.9553 25.0223 16.8 24.9619C16.554 25.6225 16.0105 25.6325 15.342 25.5666C15.2521 25.311 15.1598 25.0497 15.0922 24.8583C14.8151 24.6019 14.5716 24.3762 14.2696 24.0974C14.2286 24.1765 14.1321 24.3629 14.1139 24.3981C13.1397 24.5916 12.3009 24.2399 11.5003 24.7204C11.4054 24.6508 11.292 24.568 11.1693 24.4789C10.8169 24.5647 10.4395 24.6566 10.068 24.7477C9.96941 24.5427 9.89982 24.3965 9.80828 24.2055C9.74284 24.3857 9.69562 24.5158 9.61609 24.7336C9.32864 24.6504 9.03497 24.5655 8.70361 24.4694C8.63982 24.5999 8.56692 24.7494 8.46544 24.9569C8.31343 24.8811 8.16225 24.8065 8.00319 24.7274C7.54385 25.1213 6.96272 24.8194 6.5216 24.9184C6.29959 24.8065 6.14923 24.7299 5.9732 24.6409C5.90402 24.8343 5.85722 24.9648 5.82201 25.0621C4.94805 25.1698 4.08941 25.2754 3.24651 25.3794C3.18686 25.5426 3.13965 25.6731 3.07337 25.8549C2.98142 25.666 2.91183 25.5223 2.83562 25.3653C2.34231 25.3525 2.24207 25.8872 1.82207 26.0744C1.5516 25.9203 1.24799 25.7472 0.936509 25.5699C0.917456 25.3665 0.900473 25.1884 0.881834 24.9942C0.568698 24.8368 0.00911243 25.017 0 24.4006C0.229882 24.2453 0.459349 24.09 0.744319 23.8974C0.554201 23.8344 0.427041 23.7918 0.291183 23.747C0.313136 23.274 0.678462 23.0913 1.08935 22.8851C1.39254 22.8851 1.87343 23.0276 2.11657 22.8474C2.39201 22.6436 2.6368 22.8942 2.90107 22.6875C3.14669 22.4957 3.60893 22.7939 3.93822 22.4758C4.03805 22.3789 4.35325 22.3636 4.4655 22.4485C4.77491 22.6829 5.02882 22.446 5.30509 22.4365C5.68077 22.4236 6.05686 22.4332 6.43296 22.4332C6.77136 22.4332 7.19012 22.5595 7.43036 22.4058C7.87189 22.1238 8.31426 22.381 8.75663 22.2385C9.19941 22.0964 9.73166 22.2609 10.2105 22.1921C10.6843 22.1242 11.1076 22.3918 11.6142 22.2385C12.0967 22.0931 12.6596 22.2364 13.1832 22.1992C13.6815 22.1631 14.1764 22.0683 14.6689 21.978C15.1622 21.8881 15.6966 22.1934 16.17 21.7721C16.2959 21.6607 16.6062 21.7555 16.8319 21.7555C18.3359 21.7555 19.8402 21.7303 21.3434 21.768C21.9498 21.7833 22.5533 21.937 23.2214 22.0372" fill="black"/>
<path fill-rule="evenodd" clip-rule="evenodd" d="M57.3088 95.261C56.9443 95.4834 56.7334 95.6118 56.5255 95.7382C56.8034 95.8574 57.1046 95.9871 57.4533 96.137C57.3709 96.3408 57.3191 96.4696 57.2383 96.6689C57.8307 97.2413 56.9488 97.5536 56.8726 98.1273C56.3093 97.8386 55.7655 97.5598 55.2001 97.2699C55.176 97.3403 55.1334 97.465 55.0609 97.6783C53.3109 97.2951 51.5186 97.1336 49.7036 97.0578C49.9318 97.0131 50.1605 96.9687 50.3883 96.924C50.3866 96.8888 50.3846 96.854 50.3825 96.8188H48.6383C48.594 96.9414 48.5468 97.0715 48.4946 97.2156H48.0385C47.2495 97.2156 46.4575 97.1767 45.6714 97.2268C44.9511 97.2724 44.237 97.4132 43.3643 97.5341C42.9492 97.7271 42.4754 98.2341 41.6412 98.0825C41.526 97.9434 41.3397 97.7184 41.1114 97.4426C41.1417 97.3821 41.205 97.2583 41.2692 97.1324C40.9395 96.6403 40.5924 96.1221 40.2793 95.6549C40.4549 95.1073 40.6098 94.6235 40.8053 94.0126C41.3289 93.5648 42.1208 93.4157 42.883 93.395C45.024 93.3366 47.1675 93.3635 49.3097 93.3851C49.6924 93.3884 50.0739 93.528 50.4566 93.5996C50.8406 93.6713 51.2689 93.441 51.6205 93.8009C51.6951 93.8776 51.9063 93.8208 52.0542 93.8266C53.2421 93.8718 55.5294 94.5167 56.8026 95.1587C56.8929 95.2038 57.0068 95.2018 57.3088 95.261" fill="black"/>
<path fill-rule="evenodd" clip-rule="evenodd" d="M74.8253 21.8827C74.6546 21.9419 74.5237 21.9871 74.2897 22.0682C74.5631 22.272 74.7872 22.4394 75.0502 22.6353C74.9744 22.7542 74.899 22.8718 74.8116 23.0085C74.9388 23.069 75.0841 23.139 75.2308 23.2094V23.4583C75.0883 23.525 74.9354 23.5966 74.7826 23.6683C74.8605 23.7561 74.9296 23.8348 74.9988 23.9135C74.8017 24.0154 74.6153 24.1123 74.3481 24.2507C72.7584 24.1496 71.0618 24.4632 69.3715 24.1285C69.516 24.1981 69.6606 24.2677 69.8097 24.3397C69.1362 24.8144 68.5029 24.0208 67.8431 24.2879C67.8265 24.3182 67.7934 24.3517 67.8004 24.3695C67.8128 24.4019 67.853 24.4217 67.8754 24.4516C67.9122 24.5017 67.9441 24.5555 68.0622 24.7382C67.527 24.6512 67.0983 24.5816 66.6034 24.5008C66.728 24.645 66.7951 24.7224 66.8631 24.8011C66.4919 25.2108 66.1672 24.6268 65.7128 24.7108C65.8135 24.8467 65.8653 24.9171 65.9564 25.0401C65.3777 25.2278 64.8194 25.5132 64.2387 25.5695C63.5751 25.6345 63.2757 26.3275 62.6784 26.2964C62.5566 26.7562 62.4489 27.1633 62.3342 27.5958H61.5323C61.4474 27.5113 61.2428 27.3974 61.2502 27.2992C61.3032 26.5627 60.4927 26.2061 60.5254 25.4361C60.5809 24.1219 61.1102 23.1029 62.3599 22.4394C63.2301 21.9771 64.1459 21.6553 65.1396 21.5024C65.712 21.4146 66.2832 21.3571 66.8523 21.2771C67.4239 21.1968 67.9814 21.0485 68.5692 21.0729C69.1325 21.0961 69.6979 21.0779 70.2624 21.0779C70.8643 21.0779 71.474 21.0182 72.0667 21.0924C72.874 21.1926 73.6705 21.3852 74.4657 21.5637C74.5912 21.5919 74.6865 21.7547 74.8253 21.8827" fill="black"/>
<path fill-rule="evenodd" clip-rule="evenodd" d="M49.426 66.6848H48.6569C48.5351 66.1678 48.4216 65.6865 48.299 65.1659H47.7763C47.3985 64.5388 48.1246 64.0318 47.8753 63.4954C48.2791 62.9068 48.8718 62.7896 49.4712 62.6401C50.674 62.3406 51.9125 62.3261 53.1182 62.1418C54.6462 61.909 56.1585 61.9397 57.6624 62.0051C59.4775 62.0842 61.2987 62.317 63.0483 62.8812C63.2115 62.9338 63.3436 63.0841 63.537 63.2229C63.3623 63.2804 63.2351 63.3227 63.0939 63.3695C63.1026 63.4196 63.0922 63.4987 63.1228 63.5203C63.3834 63.7079 63.651 63.8856 63.9384 64.0811C63.8614 64.1751 63.7992 64.2513 63.7396 64.3242C63.8204 64.4663 63.9036 64.6125 63.9956 64.7757C63.7918 64.871 63.6394 64.9422 63.4878 65.0135C63.5656 65.1033 63.6331 65.1808 63.7052 65.2636C63.2123 65.4786 62.8259 65.7064 62.1983 65.4074C61.5812 65.1129 60.7793 65.1688 60.0557 65.1431C59.0028 65.1058 57.9474 65.1448 56.8933 65.1282C56.4658 65.1216 56.0284 65.2367 55.6159 64.9281C55.4672 64.8167 55.1441 64.9381 54.8537 64.9563C54.9813 65.1046 55.0484 65.182 55.2012 65.3597C54.6678 65.3597 54.2237 65.3908 53.7863 65.3498C53.4181 65.3154 53.0573 65.1978 52.5301 65.0806C52.7189 65.3071 52.7827 65.3838 52.8755 65.4952C52.3424 65.7321 51.8499 65.5304 51.2042 65.2558C51.3682 65.5275 51.4275 65.6248 51.5579 65.8415C51.1168 65.7483 50.7668 65.6749 50.3062 65.578C50.4603 65.7607 50.5249 65.8373 50.6483 65.9839C50.365 66.0113 50.1281 66.0345 49.8369 66.0626C49.7118 66.2523 49.5602 66.4818 49.426 66.6848" fill="black"/>
<path fill-rule="evenodd" clip-rule="evenodd" d="M36.4497 64.6437C36.3023 64.4963 36.1958 64.3898 36.002 64.196C35.9361 64.4101 35.8699 64.6251 35.8579 64.6644C35.138 64.5559 34.6587 64.4838 34.0093 64.3865C34.1882 64.618 34.2445 64.6913 34.3448 64.8218C34.2201 64.8612 34.112 64.896 34.0026 64.9308C33.9124 64.7477 33.8378 64.5973 33.7119 64.3422C33.5595 64.5505 33.4509 64.6992 33.3345 64.8587C32.589 64.7841 31.8078 64.7063 31.0763 64.6338C31.0005 64.7568 30.9653 64.7903 30.9719 64.8086C30.984 64.8409 31.0245 64.8608 31.0469 64.8906C31.085 64.9407 31.1182 64.995 31.2345 65.1677C30.5602 65.0645 29.9866 64.9767 29.2642 64.8657C29.4489 65.0836 29.5148 65.1606 29.5806 65.2385C29.142 65.6192 28.734 65.1871 28.1984 65.0927C28.3227 65.301 28.3803 65.3971 28.454 65.5214C27.9205 65.7964 27.4376 65.0517 26.8991 65.4709C27.0424 65.5405 27.1837 65.6096 27.3961 65.7136C26.9732 65.806 26.6092 65.8851 26.0777 66.0006C25.5621 65.7629 25.1503 65.258 25.0219 64.4789C24.8534 64.466 24.6757 64.4528 24.4019 64.4325C24.4396 64.1686 24.4768 63.9106 24.5278 63.5589C24.5315 63.5639 24.447 63.4529 24.3774 63.3613C24.43 63.2503 24.4462 63.1745 24.4913 63.1265C25.1284 62.4538 25.8537 62.0521 26.825 61.9224C27.4347 61.8408 28.0688 61.8768 28.6495 61.7236C29.97 61.3753 31.2987 61.5621 32.6221 61.5268C33.9372 61.4916 35.2548 61.4858 36.5695 61.5293C37.5764 61.5633 38.5116 61.8802 39.3297 62.5085C39.234 62.6129 39.1599 62.6937 39.0787 62.7823C39.0816 63.2023 39.4154 63.2835 39.7542 63.409C39.6905 63.4906 39.6329 63.5643 39.5277 63.6985C39.6917 63.8095 39.8698 63.93 40.0061 64.0224C39.8814 64.2527 39.799 64.4039 39.6851 64.6143C39.538 64.6889 39.3206 64.7999 39.1052 64.9096C38.2656 64.4304 37.3544 64.8189 36.4497 64.6437" fill="black"/>
<path fill-rule="evenodd" clip-rule="evenodd" d="M53.8361 2.8994C53.7868 3.23159 53.7558 3.43952 53.7234 3.65904C53.3043 3.33555 52.9427 3.95893 52.4402 3.48798C52.4651 3.56626 52.4245 3.43828 52.3715 3.27011H51.6201C51.5091 3.40597 51.3753 3.56958 51.1848 3.80236C51.0949 3.54638 51.0489 3.41591 50.9818 3.22579C50.7959 3.23573 50.5917 3.2465 50.3245 3.261C50.462 3.41342 50.5329 3.49295 50.6579 3.63212C50.3291 3.6607 50.0474 3.68514 49.7807 3.70875C49.7525 3.75762 49.7185 3.79117 49.7252 3.8094C49.7376 3.84129 49.7782 3.86117 49.8001 3.89141C49.8378 3.94153 49.8701 3.99538 49.9161 4.06496C48.9485 4.3781 48.0481 3.63916 47.0101 3.98419C47.0672 4.0662 47.1289 4.15484 47.2474 4.32508C46.9388 4.32508 46.5781 4.43401 46.4144 4.30106C46.1291 4.0691 45.8155 4.06952 45.5782 4.15112C44.6011 4.48786 43.5312 4.34579 42.5711 4.78899C42.3296 4.90082 41.9639 4.74342 41.6056 4.70407C41.3935 5.05863 41.1541 5.1862 40.4123 5.22431C40.5978 5.00893 40.7386 4.8449 40.9313 4.62123H40.2892C40.2458 4.38307 40.2081 4.17638 40.1671 3.95271C39.962 3.92082 39.7549 3.88893 39.5449 3.8562C39.6423 3.43869 39.7301 3.06218 39.8328 2.62106C40.3663 2.23129 41.0754 2.03993 41.7497 1.75703C42.1958 1.57023 42.7397 1.89828 43.0776 1.42194C43.836 1.34656 44.5998 1.30431 45.3524 1.18999C47.9458 0.794843 50.556 1.06117 53.1552 0.94934C53.588 0.930701 54.0088 1.27697 54.4355 0.97005C54.8157 1.4381 55.4055 1.04792 55.8686 1.33496C56.2356 1.56236 56.7322 1.58183 57.269 1.7181C57.0085 1.84029 56.8556 1.91194 56.6697 1.99893C56.8051 2.47153 57.3353 2.40691 57.5809 2.69768C57.4488 2.75153 57.32 2.80413 57.1915 2.85632C57.2715 3.00046 57.3506 3.14336 57.4318 3.28916C57.0259 3.55259 56.6369 3.64289 56.2045 3.71372C55.787 3.78206 55.4221 3.33597 55.0273 3.66774C54.6749 3.44076 54.3224 3.21295 53.8361 2.8994" fill="black"/>
<path fill-rule="evenodd" clip-rule="evenodd" d="M45.0074 14.4995C44.8401 14.7695 44.7663 14.888 44.6881 15.0143C44.9561 15.1953 45.1847 15.3498 45.4171 15.5068C45.3549 15.5818 45.3114 15.6348 45.2336 15.7297C45.2858 15.8448 45.3653 15.9798 45.4063 16.1261C45.4353 16.2292 45.4121 16.3468 45.4121 16.5237C45.0919 16.696 44.7535 16.8778 44.5592 16.9826C43.9889 17.0779 43.7673 16.4036 43.3005 16.7503C42.9033 16.3253 42.5321 16.7672 42.1486 16.7763C41.0961 16.802 40.0416 16.8099 38.9903 16.7718C38.6109 16.7581 38.2369 16.5933 37.8384 16.4918C37.773 16.6827 37.7282 16.814 37.6831 16.9449C37.382 17.268 37.1136 16.6827 36.7321 16.9408C36.4716 17.1164 36.0081 17.0365 35.6423 16.9996C35.3072 16.9661 34.9808 16.8377 34.5132 16.7146C34.6491 16.9561 34.705 17.0559 34.833 17.2829C33.9772 17.0899 33.1919 17.4532 32.3917 17.0381C32.074 16.8733 31.5997 17.0108 31.1888 17.1756C31.5616 17.2146 31.9344 17.2535 32.3072 17.2924C32.3055 17.3285 32.3043 17.3649 32.303 17.401H30.7647C30.6707 17.2982 30.4805 17.0903 30.3281 16.9238C30.4052 16.7353 30.4669 16.5842 30.5443 16.3932C30.3625 16.3559 30.2594 16.3348 30.1049 16.3029C30.0746 16.1265 30.039 15.9198 30.0042 15.7176C29.8638 15.6679 29.7333 15.622 29.6033 15.5764V15.0139C30.3468 14.9911 31.1048 14.9675 31.8627 14.9439C31.8632 14.8913 31.8632 14.8391 31.8632 14.7869H29.9458C29.6592 14.3669 30.0593 14.0981 30.1471 14.113C30.6185 14.1942 30.9693 13.8533 31.4079 13.8409C33.4835 13.7817 35.5578 13.6934 37.6326 13.6251C38.1963 13.6065 38.7621 13.5986 39.3246 13.6272C40.4976 13.686 41.6768 13.7146 42.8387 13.8695C43.5527 13.9643 44.2395 14.2684 45.0074 14.4995" fill="black"/>
<path fill-rule="evenodd" clip-rule="evenodd" d="M14.433 4.88952C13.9426 5.11857 13.5702 5.29295 13.1958 5.46774C13.0628 5.33437 12.9299 5.20141 12.7456 5.01709C12.6963 5.15916 12.6569 5.27183 12.5985 5.43999H11.5775C11.5473 5.32484 11.5208 5.22295 11.474 5.04526C11.2602 5.1107 11.1683 5.31822 10.9761 5.46029H10.233C10.1912 5.34224 10.1444 5.21135 10.0582 4.96905C9.98781 5.15751 9.94805 5.2623 9.9 5.39112C9.33254 5.63425 8.71041 5.75727 8.04396 5.72869C7.73911 5.71626 7.42763 5.85792 7.11367 5.93123C7.04325 5.86662 6.96373 5.79413 6.88834 5.72496C6.80177 5.80118 6.71976 5.87449 6.60544 5.97597C6.3329 5.83555 6.05414 5.69183 5.84041 5.58165C5.49787 5.64378 5.19219 5.69928 4.8426 5.76224C4.7929 5.6007 4.75314 5.4723 4.70509 5.31573C4.07219 5.27431 3.63645 4.8423 3.15308 4.48236C3.24917 4.38626 3.3287 4.30674 3.48816 4.14686H4.48018C4.48556 4.10461 4.49095 4.06236 4.49592 4.0197C4.12769 3.912 3.75905 3.8039 3.30633 3.67135C3.49231 3.47254 3.58923 3.36981 3.72095 3.2294C4.6616 3.2294 5.63497 3.24431 6.60793 3.22319C7.10911 3.212 7.63349 3.35697 8.09988 3.00946C8.34302 2.82804 8.60396 3.34082 8.8355 3.0749C9.09852 2.77295 9.27621 3.39674 9.57568 3.0807C9.6987 2.95064 10.1088 3.11508 10.3867 3.10473C10.7541 3.09189 11.1198 3.00946 11.4864 3.00822C13.9331 2.9991 16.3814 3.05129 18.826 2.98254C19.9978 2.95023 21.1638 2.70295 22.3463 2.77751C22.8409 2.43041 23.3831 2.58946 23.9402 2.54431C23.7393 3.21573 23.1627 2.88934 22.577 3.17183C23.246 3.20869 23.6743 3.23271 24.2918 3.26709C24.0118 3.41952 23.8636 3.5007 23.6519 3.61626C23.7728 3.77615 23.8859 3.9091 23.9791 4.0549C24.0653 4.18993 24.1299 4.33822 24.2881 4.64348C23.9721 4.48194 23.8333 4.4107 23.6175 4.2997C23.545 4.47573 23.4841 4.6236 23.4195 4.78017C23.306 4.71473 23.1934 4.65011 23.0331 4.55733C22.9374 4.62319 22.8218 4.70313 22.6976 4.78887C22.6346 4.73212 22.5559 4.66005 22.4768 4.58839C22.3455 4.7197 22.2121 4.85265 22.063 5.00177C21.8323 4.88289 21.5954 4.7607 21.3361 4.62733C21.281 4.74165 21.211 4.88538 21.1422 5.02703C21.0607 5.03076 20.9869 5.03407 20.8801 5.03863C20.8382 4.9181 20.7935 4.7897 20.7359 4.62319H20.1792C20.1486 4.71141 20.103 4.84271 20.028 5.06058C19.712 4.98686 19.3864 4.91106 19.0576 4.83402C19.0041 4.9678 18.9528 5.09745 18.8708 5.30248C18.7001 5.04319 18.5551 4.82283 18.4147 4.6091C18.2756 4.82656 18.1273 5.0581 18.0092 5.24242C17.4165 5.36047 17.2057 5.05354 17.0885 4.52336C16.9112 4.77064 16.7782 4.95579 16.5893 5.21922H15.6628C15.6375 5.14342 15.594 5.01419 15.5398 4.8539H15.104C15.2154 4.98561 15.2801 5.06307 15.3467 5.14135C15.1802 5.39319 14.9056 5.30786 14.433 4.88952" fill="black"/>
<path fill-rule="evenodd" clip-rule="evenodd" d="M69.2158 77.5244C69.0965 77.7712 68.9776 78.0173 68.8086 78.3685C68.7312 78.1386 68.6976 78.0396 68.6314 77.8441C68.4118 77.7149 67.9165 77.8437 67.7963 77.4395C67.7354 77.2344 67.8593 76.9743 67.9057 76.7034C67.7089 76.614 67.424 76.4843 67.0611 76.3195C67.1179 75.7429 67.1767 75.139 67.2454 74.4382C67.2612 74.456 67.1883 74.3736 67.0234 74.1872C67.301 74.2381 67.4741 74.2704 67.7197 74.3152C67.7429 74.1167 67.7744 73.8546 67.8199 73.4689C68.3621 73.2353 68.9578 72.9417 69.5799 72.7205C70.2153 72.4952 70.9513 72.5179 71.537 72.2669C72.2109 71.9774 72.9635 72.4753 73.5434 71.9207C73.6179 71.9894 73.6987 72.064 73.7791 72.1381C74.5843 71.7214 75.4429 71.9886 76.4747 71.8809C76.2899 72.0888 76.217 72.1708 76.1454 72.2516C76.2154 72.3303 76.285 72.4086 76.4407 72.5842C75.7436 72.5399 75.1281 72.7652 74.5511 72.358C73.9054 72.6832 73.2311 72.8766 72.4872 72.8211C71.6153 72.7557 70.8121 73.034 69.8864 73.4056C70.19 73.6338 70.3959 73.7887 70.6249 73.961C70.6725 73.8218 70.7173 73.6905 70.7616 73.5596C70.8275 73.5373 70.8921 73.5058 70.96 73.4946C71.4546 73.4109 71.9508 73.6023 72.4652 73.2975C72.8326 73.08 73.415 73.4337 73.8238 73.0436C73.8433 73.0249 73.8967 73.0436 73.9344 73.0411C74.9947 72.9657 76.0543 72.8741 77.1159 72.8249C77.4273 72.8108 77.7902 72.6786 78.0536 73.0195C78.0975 73.0763 78.2843 73.0763 78.3742 73.0349C79.4101 72.5647 80.5007 72.9305 81.5582 72.817C81.67 72.8046 81.7839 72.8153 81.9011 72.8153C82.0308 72.947 82.1625 73.0808 82.3315 73.2527H83.6615C83.8305 73.4031 83.9407 73.5017 84.0778 73.6243C83.9162 73.6802 83.7853 73.7257 83.5861 73.7949C83.8251 73.9498 84.0343 74.0861 84.337 74.2833C83.9253 74.5811 83.5629 74.8428 83.2237 75.0885C82.6094 74.8988 82.1078 74.2369 81.4302 74.8358C81.257 74.4245 81.0951 73.9954 80.4701 74.2244C80.456 74.3106 80.4398 74.4129 80.4228 74.5185C80.5815 74.5956 80.7269 74.6656 80.8901 74.7438C80.7973 74.7886 80.7368 74.825 80.6714 74.8474C80.2659 74.9866 79.9486 74.3127 79.4615 74.7679C79.1587 75.0499 78.6554 74.8611 78.2239 75.0243C77.6746 75.2314 76.9887 75.0744 76.1027 75.0744C76.5128 74.883 76.6631 74.8126 76.9593 74.6743H75.7312C75.7991 74.8528 75.8637 75.0238 75.9544 75.2637H74.5942C74.3055 75.4111 74.1547 75.4886 73.9021 75.6178C74.035 75.4211 74.4774 74.9878 74.5491 74.9489C74.1154 74.62 73.8312 75.0988 73.4199 75.1373C73.5015 75.2401 73.5599 75.3146 73.6813 75.4687C73.1826 75.5673 72.7195 75.6717 72.2519 75.7487C71.8758 75.81 71.5941 75.9802 71.3647 76.3572C71.1617 76.2979 70.9488 76.2358 70.6991 76.1633C70.1825 76.5609 69.6689 76.9569 69.1553 77.3529C69.1752 77.4105 69.1955 77.4672 69.2158 77.5244" fill="black"/>
<path fill-rule="evenodd" clip-rule="evenodd" d="M20.4291 48.7629C20.5571 48.8263 20.6846 48.8901 20.8122 48.9539C20.7944 48.9998 20.777 49.0466 20.7592 49.093C20.3922 49.093 19.9366 48.9576 19.679 49.1253C19.3182 49.361 19.1057 49.0379 18.829 49.0922C18.479 49.1601 18.1369 49.0276 17.7587 49.2463C17.412 49.4468 16.9059 49.4335 16.5845 49.1357C16.2307 49.2024 15.9176 49.2492 15.6107 49.3221C15.3336 49.3879 15.0677 49.7897 14.786 49.3312C14.5652 49.7019 14.3225 49.5097 14.0815 49.3581C13.8238 49.6978 13.4581 49.5056 13.142 49.5379C12.8442 49.5685 12.5373 49.5168 12.2403 49.5511C11.817 49.6004 11.3759 49.6348 10.9841 49.7852C10.4323 49.9964 9.86323 50.0001 9.2879 50.0751C9.91749 50.3025 10.6071 50.3406 11.1791 50.1613C11.5859 50.0337 11.9603 50.0482 12.3484 49.9985C12.9196 49.926 13.4589 49.721 14.0616 49.7454C14.5901 49.7669 15.1783 49.9931 15.6728 49.5743C15.916 49.7802 16.0891 49.8113 16.4014 49.5797C16.601 49.4314 17.067 49.5201 17.3499 49.6456C17.5815 49.7479 17.8279 49.4654 18.0342 49.7566C18.0975 49.8456 18.4202 49.8324 18.5743 49.7603C19.3865 49.3788 20.2025 49.5134 21.0305 49.665C21.1618 49.6891 21.3204 49.5395 21.4588 49.5524C22.3771 49.6385 23.3103 49.3548 24.2228 49.6857C24.3698 49.7388 24.5856 49.5598 24.7724 49.5515C25.2607 49.5308 25.7524 49.5718 26.2395 49.5383C26.9395 49.4898 27.601 49.607 28.3971 49.9537C27.8872 49.9811 27.5302 50.0005 27.1727 50.02L27.1362 50.1281C27.2328 50.1596 27.3272 50.1994 27.4258 50.2205C27.5289 50.242 27.6354 50.2457 27.7712 50.2607C27.6552 50.4947 27.5554 50.696 27.4552 50.8973C27.3624 50.8144 27.2808 50.7411 27.1628 50.6359C27.0236 50.7105 26.877 50.7892 26.6367 50.918C26.691 50.592 26.7341 50.3348 26.7883 50.0121C26.7631 49.9869 26.6566 49.8804 26.5655 49.7893C26.0684 49.8891 25.5846 49.9869 25.0748 50.0892C25.1808 50.2035 25.2761 50.3058 25.3655 50.4019C25.5441 50.3311 25.716 50.2623 25.8754 50.1989C26.2022 50.7465 25.6236 50.6189 25.489 50.8103C25.5751 50.9888 25.646 51.135 25.7661 51.3831C25.5697 51.3289 25.3515 51.3123 25.3419 51.2589C25.2504 50.744 24.9567 50.5899 24.4767 50.7101C24.4257 50.8418 24.3756 50.971 24.2671 51.2498C24.1051 50.8762 23.9908 50.6123 23.8491 50.2859C24.1817 50.2375 24.3893 50.2072 24.5964 50.1774C24.5984 50.1314 24.6005 50.085 24.603 50.0395C24.2691 50.0204 23.9349 50.0014 23.524 49.9786C23.565 50.1024 23.5899 50.1782 23.6437 50.3414C23.5907 50.464 23.5016 50.6686 23.3977 50.9089C22.853 50.841 22.276 51.034 21.6236 50.6778C21.7293 50.9416 21.7984 51.1135 21.88 51.3181H21.2919C21.1792 50.9901 21.0545 50.6272 20.9228 50.2433H20.5881C20.6739 50.4442 20.7464 50.6144 20.8222 50.7925C20.3968 50.8994 20.0252 50.993 19.5634 51.1089C19.4425 51.0054 19.2581 50.848 19.0718 50.6881C18.9326 50.9834 18.7992 51.2672 18.6505 51.5836C18.5714 51.4217 18.5018 51.2792 18.4306 51.1338C18.1062 51.7555 17.5993 51.8959 16.9419 51.7514C17.0504 51.567 17.1354 51.4225 17.2807 51.1748C16.8989 51.1533 16.6213 51.1367 16.3007 51.1185V51.7758C15.382 51.8905 14.4928 52.0011 13.5973 52.113C13.5587 52.2265 13.5136 52.3578 13.4473 52.5516C12.8003 52.0707 12.08 52.3217 11.3904 52.243C11.3225 52.103 11.2525 51.9601 11.1613 51.7737C11.0951 51.9539 11.047 52.0844 10.9986 52.2157C10.8523 52.1432 10.7065 52.0707 10.4725 51.9543C10.4282 52.214 10.3938 52.4124 10.3806 52.4907C10.0045 52.912 9.69216 53.2615 9.355 53.6393C9.2879 53.4599 9.23903 53.3295 9.18353 53.1804C9.0311 53.4044 8.88323 53.6223 8.72956 53.8489C8.38702 53.3734 8.11696 52.9173 8.64009 52.4369C8.49181 52.2811 8.38992 52.1739 8.28181 52.0608C8.16873 52.1258 8.05648 52.1904 7.87548 52.2952C7.76282 52.1983 7.62986 52.084 7.45051 51.9299C7.50725 51.246 7.2956 50.5063 7.73134 49.8481C8.59702 49.2686 9.63418 49.3469 10.5786 49.0785C11.5983 48.7886 12.6239 48.8946 13.6499 48.8685C13.9079 48.8619 14.1349 48.8681 14.3648 48.661C14.4894 48.5484 14.8104 48.5981 15.02 48.656C15.1617 48.695 15.252 48.963 15.4235 48.6937C15.9246 48.8644 16.3993 48.562 16.9096 48.6242C17.5032 48.6962 18.112 48.6407 18.7139 48.6407H20.4075C20.4146 48.6817 20.422 48.7219 20.4291 48.7629" fill="black"/>
<path fill-rule="evenodd" clip-rule="evenodd" d="M40.4185 33.8444V33.327C40.1919 33.2922 39.9848 33.2607 39.6849 33.2148C39.8266 32.9741 39.9297 32.7989 39.9616 32.7451C40.6235 32.2054 41.2232 33.3937 41.654 32.6655C42.1192 32.7302 42.465 32.818 42.8109 32.8196C45.6693 32.8308 48.5277 32.7993 51.3857 32.8391C52.5189 32.8552 53.6505 33.0197 54.8592 33.1232L55.1035 33.3676C55.0605 33.4128 55.0178 33.4977 54.9743 33.4981C54.0718 33.506 53.1692 33.5022 52.2663 33.5051C52.0915 33.506 51.9163 33.5238 51.7406 33.602C52.1627 33.7822 52.6026 33.7164 53.0338 33.7271C53.4848 33.7383 53.9405 33.6915 54.3866 33.7408C54.7908 33.786 55.1839 33.9264 55.7062 34.0556C55.439 34.1509 55.3082 34.1977 55.0679 34.2834C55.2771 34.3712 55.4092 34.4271 55.5645 34.4926C55.5708 34.6276 55.5774 34.773 55.5844 34.9312C55.3848 35.0571 55.198 35.2307 54.9785 35.2978C54.7722 35.3607 54.5299 35.3293 54.3062 35.3073C53.851 35.263 53.3606 35.461 52.9468 35.1189C52.5289 35.5049 52.0227 35.2651 51.5588 35.3028C51.0734 35.3417 50.5817 35.311 50.0188 35.311C49.9177 35.4481 49.7852 35.6283 49.6386 35.8275C49.3511 35.7422 49.1196 35.6731 48.7514 35.5633C48.7277 35.5786 48.577 35.7555 48.437 35.7472C48.0091 35.7219 47.5804 35.8632 47.1455 35.6031C46.7023 35.3384 46.1821 35.6519 45.6651 35.5736C44.7899 35.4407 43.8799 35.5372 43.0047 35.5372C42.9393 35.7223 42.8933 35.8532 42.8386 36.0081C42.7198 35.9758 42.5926 35.9783 42.5255 35.9162C42.2558 35.6656 42.0218 35.34 41.567 35.6465C41.7269 35.7223 41.874 35.7923 42.0591 35.8806C41.4771 36.1452 40.9892 35.929 40.4682 35.6946C40.4537 35.5347 40.4379 35.3566 40.4222 35.1789C40.2892 35.0455 40.1563 34.9126 40.0055 34.7622C40.0664 34.6881 40.1281 34.6123 40.2254 34.4934C39.9968 34.348 39.7682 34.2022 39.4861 34.0229C39.6037 33.8497 39.7218 33.6758 39.8324 33.513C40.0042 33.6103 40.1509 33.6932 40.4185 33.8444" fill="black"/>
<path fill-rule="evenodd" clip-rule="evenodd" d="M21.8764 37.0447C21.7467 37.094 21.6167 37.1433 21.4228 37.217C21.5578 37.3636 21.6664 37.4809 21.7745 37.5985C21.8884 37.4846 21.9414 37.4316 22.0205 37.3525C22.1444 37.591 22.2636 37.8209 22.3742 38.0334C22.2674 38.2426 22.1725 38.4281 22.0661 38.6373C21.7674 38.7264 21.4319 38.9119 21.0977 38.9094C20.22 38.9032 19.3994 39.0718 18.5677 39.3522C18.1113 39.5063 17.5517 39.3042 17.0903 39.6041C16.1993 39.4587 15.3614 39.8969 14.475 39.8389C14.258 39.8248 13.9883 40.0265 13.8231 39.952C13.5124 39.8112 13.3459 40.1458 13.0593 40.0729C12.8344 40.0154 12.5291 39.9549 12.3514 40.2436C11.4054 40.2088 10.5509 40.6516 9.62347 40.7609C8.83731 40.8533 8.07891 41.1838 7.40625 41.3806C7.19004 41.6833 7.0314 41.9062 6.85785 42.1493C6.71081 42.0619 6.58737 42.0304 6.5385 41.9526C6.33595 41.6287 6.1566 41.2915 5.96524 40.9531H5.42471C5.46282 40.676 5.49802 40.4184 5.5469 40.0609C5.55394 40.0696 5.46613 39.9636 5.40234 39.8865C5.63264 39.1414 6.2995 39.0465 6.80276 38.9612C7.68128 38.8117 8.51838 38.5056 9.42714 38.4327C10.4158 38.3523 11.4083 38.1353 12.3953 37.9733C12.9719 37.8789 13.541 37.7948 14.1147 37.8122C14.4357 37.8222 14.6568 37.6341 14.9269 37.5848C15.2545 37.5248 15.6016 37.5712 15.94 37.5703C16.2399 37.5691 16.7245 37.6751 16.8041 37.5413C17.017 37.1839 17.3384 37.7207 17.49 37.3815C17.5119 37.3322 17.695 37.3545 17.8035 37.3446C18.3403 37.2961 18.866 37.3918 19.4168 37.1512C19.8849 36.9465 20.4859 37.2278 21.014 36.9138C21.2294 36.7858 21.5844 36.8927 21.876 36.8927C21.8764 36.9432 21.8764 36.9938 21.8764 37.0447" fill="black"/>
<path fill-rule="evenodd" clip-rule="evenodd" d="M74.243 62.1714H73.4689V61.4288C73.3293 61.297 73.2316 61.1773 73.1077 61.0961C73.0253 61.0419 72.9064 61.0435 72.7776 61.0141V59.6112C73.1491 58.7261 73.946 58.1735 74.7918 57.6806C75.8795 57.0469 77.0393 56.5312 78.2359 56.1912C79.1116 55.9427 80.0162 55.7211 80.9444 55.5985C81.7086 55.4978 82.486 55.5417 83.2221 55.3868C83.8716 55.2497 84.4895 55.1743 85.1543 55.2103V55.6535H83.8413C83.8397 55.7066 83.8384 55.7596 83.8368 55.8126H85.3279C85.2575 56.1253 85.2575 56.1253 85.1717 56.2185C85.3279 56.2931 85.482 56.3664 85.7164 56.4786C85.4836 56.7549 85.2769 57.0001 85.1697 57.1273C84.3185 57.3886 83.5555 57.3567 82.8435 57.6305C82.3755 57.8111 81.8047 57.4831 81.3756 57.9039C79.7445 58.1069 78.3134 58.8582 76.8649 59.5566C76.4868 59.7384 76.1463 59.9998 75.7698 60.1857C75.0437 60.5436 74.5843 61.0763 74.4986 61.9051C74.4895 61.9925 74.3482 62.0658 74.243 62.1714" fill="black"/>
<path fill-rule="evenodd" clip-rule="evenodd" d="M92.5998 94.2785C92.6172 94.4405 92.6246 94.5121 92.6404 94.6641C92.0547 94.8331 91.4185 94.6484 90.8278 94.9094C91.107 94.9251 91.3862 94.947 91.6657 94.9545C91.9619 94.962 92.258 94.9562 92.524 94.9562C92.6544 95.0941 92.7526 95.1976 92.8706 95.3227C92.7162 95.3778 92.5853 95.425 92.3471 95.5104C92.5554 95.5986 92.688 95.6545 92.9034 95.746C92.8259 95.9954 92.746 96.253 92.664 96.5165C91.7196 96.6328 90.8605 96.7385 89.9538 96.8503C89.9443 96.8971 89.9232 97.0002 89.8838 97.1933C89.4282 97.1274 88.9531 97.0292 88.4735 96.9973C87.9487 96.9626 87.4202 96.9895 86.8813 96.9895C86.7264 97.1365 86.5657 97.2902 86.4058 97.4426C86.0135 97.4691 85.6606 97.257 85.2224 97.4041C84.9225 97.5047 84.5046 97.2537 84.0676 97.3391C84.2056 97.4107 84.3439 97.4832 84.6181 97.6265H83.0843C82.8528 97.8419 82.6701 98.0126 82.4328 98.2333C82.1942 97.943 82.0091 97.7168 81.8492 97.5226C81.7498 97.2434 81.6557 96.9804 81.5609 96.7157C81.6272 96.6084 81.6943 96.4995 81.7933 96.3392H81.0092C80.7221 95.9395 80.916 95.6856 81.1869 95.4437C81.4582 95.413 81.7357 95.3824 82.0132 95.3517L82.0115 95.2229C81.7299 95.2005 81.4482 95.1778 81.128 95.1517C81.128 95.0274 81.0846 94.8866 81.1351 94.8298C81.4909 94.431 81.9349 94.2682 82.4829 94.2707C85.8313 94.2864 89.1797 94.2785 92.5998 94.2785" fill="black"/>
<path fill-rule="evenodd" clip-rule="evenodd" d="M41.3025 51.9705C41.365 51.5224 41.4143 51.1724 41.4868 50.6554C41.532 50.6215 41.7328 50.469 42.0572 50.223C43.6995 49.7852 45.5601 50.0664 47.4041 50.0006C47.7972 49.9869 48.1675 50.0308 48.5639 50.1886C48.9532 50.3435 49.4627 50.1646 49.9005 50.24C50.2666 50.3038 50.5963 50.5515 50.9588 50.6666C51.3274 50.7834 51.7437 50.7764 52.0879 50.9354C52.4607 51.1077 52.7742 51.4089 53.1238 51.6607C53.0153 51.7692 52.9623 51.8222 52.9333 51.8512C53.1375 52.2588 53.3359 52.6535 53.538 53.057C53.3591 53.2309 53.1718 53.4136 52.9254 53.6542C52.034 53.3945 51.0379 53.3134 50.1714 52.7219C49.7845 52.864 49.3782 53.1634 48.9105 52.7385C48.8207 52.6573 48.5063 52.7782 48.3191 52.8602C48.0101 52.9965 47.7528 53.004 47.5491 52.6672C47.0388 52.8963 46.591 52.9878 46.0045 52.7944C45.3998 52.5951 44.6782 52.7505 43.9873 52.7505C43.591 53.0383 43.1602 53.3519 42.7029 53.6845C42.3446 53.3535 41.9375 53.1605 42.0033 52.5931C42.0232 52.4261 41.8277 52.2182 41.6964 52.0575C41.645 51.995 41.4992 52.0099 41.3025 51.9705" fill="black"/>
<path fill-rule="evenodd" clip-rule="evenodd" d="M75.4415 43.9955C75.3521 44.1256 75.2725 44.2407 75.1379 44.4366C75.35 44.524 75.497 44.5845 75.6652 44.6537V45.6511C75.425 45.8002 75.1843 45.9501 74.9317 46.1075C74.3634 45.922 73.7822 45.7331 73.1096 45.514C72.9046 45.5827 72.6183 45.9427 72.2447 45.5558C72.1652 45.4734 71.973 45.4862 71.8318 45.48C69.4621 45.3806 67.0925 45.2849 64.6417 45.1851C64.2556 44.5816 64.0916 43.7416 63.1472 43.1017C63.8435 43.0259 64.2167 42.9857 64.5899 42.9451C64.5932 42.9082 64.5965 42.8714 64.6002 42.8341C64.3086 42.7919 64.0166 42.7492 63.6364 42.6937C63.7747 42.4613 63.8787 42.2861 64.0112 42.0637C64.3906 42.1921 64.8123 41.9026 65.1602 42.2799C65.2149 42.3395 65.3702 42.3101 65.4792 42.3143C66.39 42.3478 67.2967 42.3959 68.2071 42.4849C69.183 42.5798 70.1845 42.6427 71.1434 42.803C72.6096 43.0478 74.1235 43.2309 75.4415 43.9955" fill="black"/>
<path fill-rule="evenodd" clip-rule="evenodd" d="M37.1703 42.7303C37.0361 42.9063 36.901 43.0836 36.7996 43.2161H35.1651C34.3446 42.7174 34.4423 41.7051 33.7104 40.9724H34.746C34.7538 40.9202 34.7617 40.868 34.7691 40.8154C34.5915 40.7802 34.4138 40.745 34.1536 40.6936C34.1408 40.5358 34.1247 40.3329 34.1023 40.0558C35.3871 40.0558 36.6372 39.9203 37.8388 40.103C38.6436 40.2256 39.4405 40.1817 40.2279 40.2964C41.0604 40.4178 41.8768 40.6535 42.699 40.8456C43.4044 41.0109 44.1052 41.1919 44.8098 41.5374C44.705 41.7171 44.635 41.8372 44.5625 41.9615C44.7572 42.0949 44.9763 42.2452 45.1991 42.3977C45.1076 42.5 45.0368 42.5799 44.9771 42.6462C45.062 42.7622 45.1441 42.8756 45.2725 43.0513C45.0082 43.2501 44.7733 43.4265 44.4101 43.7003C44.1483 43.6187 43.7163 43.4837 43.2843 43.3491C42.332 43.0633 41.2456 43.5363 40.3861 42.8367C40.1712 42.8922 39.9694 43.0011 39.7835 42.9792C39.5043 42.9456 39.2413 42.5256 38.9604 42.9804C38.714 42.589 38.4924 42.9324 38.2381 42.963C37.9109 43.002 37.5575 42.8251 37.1703 42.7303" fill="black"/>
<path fill-rule="evenodd" clip-rule="evenodd" d="M14.2461 68.4371C14.0962 68.4901 13.9653 68.5365 13.752 68.6123C14.5908 68.8173 14.4661 69.5496 14.7233 70.0578C14.5067 70.388 14.3149 70.6804 14.0921 71.0188C13.6965 70.9616 13.4086 70.7127 13.2102 70.3436C13.1286 70.4157 13.0466 70.489 12.9969 70.5338C12.5889 70.4364 12.2116 70.3461 11.7464 70.2355C11.6661 70.0984 11.5402 69.883 11.3737 69.5989C10.8725 69.765 10.3415 69.9298 9.81833 70.1179C9.32833 70.2935 8.84744 70.4936 8.362 70.6833V70.9069C8.51443 70.9803 8.66685 71.0536 8.84579 71.1393C8.79608 71.254 8.73768 71.4363 8.71573 71.4317C8.30277 71.3501 8.43863 71.7909 8.24519 71.9126C8.19383 71.8588 8.14206 71.8049 8.06295 71.7221C7.93206 71.7888 7.79372 71.86 7.5775 71.9706C7.50502 71.795 7.44413 71.6475 7.37082 71.4694C7.28922 71.5345 7.21466 71.5937 7.05395 71.7213C6.91809 71.3936 6.84312 71.0482 6.65052 70.7922C6.44756 70.5226 6.18123 70.3159 6.35064 69.939C6.05987 69.8872 5.85277 69.8503 5.63946 69.8126C5.90123 69.0559 5.90123 69.0559 5.60425 68.3932C6.03957 68.1393 6.472 67.7027 6.93673 67.665C7.48265 67.6207 8.01076 67.153 8.66147 67.5122C8.54342 67.6998 8.45022 67.8472 8.33756 68.0262H7.36212C7.20762 68.2204 7.07715 68.3849 6.9533 68.5406C7.04732 68.6396 7.09082 68.6856 7.13431 68.7311C7.18733 68.6781 7.23661 68.5837 7.2946 68.5779C8.32265 68.4777 9.35153 68.3807 10.3816 68.307C10.4989 68.2983 10.6256 68.4304 10.725 68.4851C10.9081 68.3907 11.0953 68.2946 11.2887 68.1952C10.5875 67.7209 9.85105 67.728 9.06407 68.0216C9.06407 67.8344 9.06407 67.6571 9.06407 67.4798C9.09017 67.4533 9.11667 67.4036 9.1436 67.4032C10.0457 67.3966 11.0067 67.2007 11.8342 67.4484C12.6341 67.6882 13.6153 67.6551 14.2461 68.4371" fill="black"/>
<path fill-rule="evenodd" clip-rule="evenodd" d="M19.612 101.566C19.4567 101.475 19.1514 101.404 19.0603 101.224C18.7649 100.638 18.5189 100.022 18.3172 99.3979C18.2505 99.1929 18.3768 98.9253 18.4294 98.5956C18.4477 98.6163 18.3781 98.538 18.282 98.4295C18.5496 98.2564 18.8155 98.0845 19.0777 97.9147H27.027C27.1397 98.036 27.2354 98.1379 27.3766 98.2895C27.1148 98.3289 26.9077 98.3599 26.5954 98.4067C26.9794 98.5654 27.2759 98.6884 27.7937 98.9021C27.3327 98.9949 27.1107 99.0396 26.8883 99.0848C26.8874 99.1192 26.8866 99.1535 26.8862 99.1875C27.0858 99.219 27.2855 99.2505 27.4868 99.2824C27.6848 99.6444 27.5423 99.9099 27.2428 100.133C25.2882 100.11 23.3489 100.537 21.3856 100.379C21.311 100.373 21.2357 100.378 21.1607 100.378C20.6757 100.75 20.1906 101.122 19.612 101.566" fill="black"/>
<path fill-rule="evenodd" clip-rule="evenodd" d="M84.7513 31.5938C85.3225 31.5093 85.8091 31.3916 86.2983 31.378C86.7498 31.3647 87.1735 31.192 87.6797 31.4298C88.1038 31.6286 88.6949 31.4703 89.2242 31.3614C88.8519 31.2231 88.4795 31.0847 88.0529 30.9261C88.5056 30.6912 88.8328 30.835 89.213 30.9953C89.5138 31.122 89.9545 30.912 90.1247 31.4248C89.9114 31.4554 89.7043 31.4853 89.4462 31.5221C89.5465 31.6398 89.5962 31.7379 89.6757 31.7843C89.9172 31.9247 90.1703 32.0448 90.4209 32.1741C90.5211 32.0921 90.6048 32.0237 90.6926 31.9521C90.9444 32.0337 91.0252 32.2822 91.0165 32.9718C90.0709 33.0625 89.6185 32.9495 88.5781 32.3489C88.4497 32.4243 88.3001 32.5125 88.1303 32.6123C87.9883 32.5344 87.8358 32.4512 87.6374 32.3427C87.5376 32.4176 87.4258 32.5021 87.3123 32.5874C87.0178 32.5224 86.7113 32.4545 86.4052 32.387C86.201 32.8372 85.7839 32.0448 85.508 32.5556C85.4061 32.7444 84.931 32.7324 84.6117 32.8157C84.545 32.754 84.4638 32.6777 84.3652 32.5862C84.3263 32.6898 84.2894 32.7871 84.2124 32.9896C83.9519 33.087 83.6077 33.2158 83.1487 33.3869V32.4118C82.8928 32.3841 82.7146 32.3646 82.4951 32.341C82.6823 32.2201 82.8497 32.1119 82.9669 32.0357C82.8078 31.7064 82.7378 31.5611 82.6256 31.3283C83.3326 31.1655 83.9949 31.0131 84.6767 30.8557C84.7496 30.9327 84.8461 31.0358 84.9886 31.1879C84.7293 31.2272 84.5222 31.2587 84.1768 31.3117C84.453 31.4472 84.6167 31.5279 84.7513 31.5938" fill="black"/>
<path fill-rule="evenodd" clip-rule="evenodd" d="M101.927 62.8038C101.741 62.8916 101.602 62.957 101.289 63.1045C101.796 63.1331 102.136 63.1525 102.54 63.1753C102.449 62.9525 102.38 62.7818 102.299 62.5855C102.7 62.4927 103.059 62.4095 103.506 62.3059C103.445 62.4877 103.394 62.6389 103.318 62.8659C103.369 62.8858 103.471 62.9251 103.611 62.979C103.683 63.1186 103.778 63.3045 103.872 63.4885C103.348 63.7187 102.788 63.9635 102.362 64.1503C101.483 64.374 100.733 64.565 99.9545 64.7625C99.9073 64.6209 99.8638 64.4912 99.8203 64.362C99.5362 64.2336 99.2524 64.1052 98.8838 63.9379C99.3295 63.773 99.7064 63.6334 100.228 63.44C99.8054 63.4048 99.525 63.3812 99.2441 63.3576C99.2114 63.3182 99.1783 63.2789 99.1456 63.2399C99.2889 63.2122 99.4322 63.1848 99.5751 63.1575C100.259 63.0838 101.016 62.4741 101.927 62.8038" fill="black"/>
</svg>
