<svg width="106" height="96" viewBox="0 0 106 96" fill="none" xmlns="http://www.w3.org/2000/svg">
<path fill-rule="evenodd" clip-rule="evenodd" d="M104.656 50.3948C104.618 50.4996 104.524 50.7626 104.405 51.0936C104.51 51.1445 104.624 51.1988 104.783 51.275C104.863 51.5674 105.308 51.8768 105.037 52.2724C104.794 52.6282 105.437 53.0043 104.945 53.293C105.029 54.0394 104.503 54.5779 104.157 55.0993C103.843 55.5723 103.767 56.163 103.292 56.5739C102.879 56.9313 102.646 57.4984 102.333 57.9747C102.061 57.9871 101.807 57.9979 101.457 58.0137C101.52 58.2158 101.567 58.3674 101.642 58.6064C101.548 58.7124 101.393 58.8876 101.225 59.0773C101.329 59.3963 101.426 59.6961 101.541 60.0482C101.377 60.2342 101.216 60.4189 101.039 60.6206C101.178 60.6703 101.308 60.7167 101.53 60.7958C101.276 60.976 101.068 61.1243 100.848 61.28C100.891 61.3302 100.957 61.4076 101.061 61.529C100.313 61.8073 99.6474 61.1371 98.8227 61.461C98.3132 61.8284 97.9351 62.5781 97.1783 62.8552C96.8863 62.9625 97.1361 63.4977 96.6357 63.4347C96.4576 63.4123 96.5893 63.9856 96.1718 63.8742C96.0161 64.3936 95.5526 64.6023 95.1868 64.9296C94.8832 65.2005 94.6061 65.5538 94.3618 65.9071C94.158 66.2012 93.9405 66.4861 93.7247 66.7719C93.5296 67.0308 93.3006 67.269 93.1399 67.5473C93.0032 67.7847 93.0148 68.1902 92.83 68.2974C92.5815 68.4416 92.4117 68.5973 92.3587 68.9324C92.1143 68.7866 91.9652 68.698 91.8152 68.6085C91.3484 68.8367 90.8808 69.0538 90.4161 68.483V67.2971C89.5226 66.7939 88.5886 66.3544 88.1703 65.2166C88.203 64.8413 88.0207 64.3095 88.3819 63.8705C87.8576 62.8234 88.3128 61.937 88.8177 61.0638C89.4253 60.013 90.2226 59.1158 91.1575 58.2895C90.6078 57.4648 90.0334 56.6965 89.5649 55.8685C89.2426 55.299 88.8864 54.6777 88.8686 54.0261C88.8504 53.351 88.6379 52.6464 89.0405 51.9618C89.2203 51.6552 89.0476 51.2112 89.2493 50.8074C89.3702 50.5647 89.4452 50.295 89.6316 50.0622C89.7322 49.9367 89.7277 49.7267 89.8105 49.3937C89.9965 49.221 90.4629 48.9882 90.5602 48.6502C90.701 48.159 91.3298 48.3462 91.3207 47.7717C91.4831 47.8947 91.5551 47.9494 91.6674 48.0343C91.9275 47.9573 92.2216 47.8703 92.5285 47.78C92.6403 47.9921 92.7344 48.1697 92.8483 48.386C92.6234 48.7931 92.3777 49.238 92.0952 49.7491C92.6536 49.694 93.0848 49.6509 93.453 49.6145C93.6034 49.7648 93.6833 49.8444 93.7719 49.933C93.6212 50.2287 93.4691 50.5278 93.2687 50.9225C93.6228 50.959 93.8978 50.9871 94.2387 51.0219C94.1547 51.4212 94.071 51.8218 93.9886 52.2157C93.8444 52.3441 93.6887 52.4832 93.5284 52.6266C93.6299 52.728 93.6717 52.7823 93.6808 52.7769C93.8283 52.6953 93.972 52.6063 94.1472 52.5002C94.2064 52.6584 94.2433 52.7558 94.2909 52.8817C93.9712 53.0437 93.6671 53.1977 93.3205 53.3729C93.4812 53.4268 93.6087 53.4694 93.8448 53.5481C93.5756 53.8178 93.3366 54.0572 93.0251 54.3699C93.4223 54.6835 93.7744 54.9618 94.1518 55.26C94.7076 55.3657 95.1541 55.1312 95.5911 54.7535C96.6022 53.8808 97.7135 53.119 98.7096 52.2418C99.7294 51.3434 100.814 50.4632 101.54 49.2595C101.71 48.9779 102.008 48.7741 102.265 48.5181H103.453C103.518 48.6005 103.63 48.7426 103.746 48.8884C103.616 49.2591 103.483 49.641 103.309 50.1372C103.669 50.0382 103.962 49.9579 104.342 49.8531C104.402 49.9566 104.496 50.1177 104.656 50.3948" fill="black"/>
<path fill-rule="evenodd" clip-rule="evenodd" d="M32.9701 74.1847C32.6035 74.2982 32.3024 74.3918 31.913 74.5123C32.0079 74.3089 32.0704 74.1747 32.1495 74.0045C31.8902 73.6139 31.597 73.2643 31.0606 73.3418C31.0192 73.1836 30.9927 73.0817 30.9554 72.94H30.0222C29.929 72.8468 29.8482 72.8025 29.8271 72.7387C29.6842 72.3079 29.654 71.796 29.3947 71.458C29.0608 71.0235 29.2269 70.5973 29.2116 70.1765C29.1988 69.8347 29.3367 69.4847 29.4208 69.1418C29.7223 67.9157 30.1887 66.7498 30.7827 65.641C31.1484 64.9592 31.5581 64.2952 32.0071 63.6652C32.4457 63.0497 32.9597 62.4876 33.4555 61.8833C33.3209 61.7972 33.1734 61.6969 33.0202 61.6062C31.5386 60.7298 30.2409 59.6263 29.0376 58.4028C28.4698 57.8254 28.4665 57.0504 28.3008 56.3372C28.2341 56.0518 28.29 55.7374 28.29 55.4363C28.5936 54.8572 29.2054 54.8084 29.7989 54.5723C29.999 54.9243 30.2044 55.2863 30.4364 55.6935C30.477 55.6637 30.5474 55.6119 30.6737 55.5187C30.7512 55.5957 30.8875 55.6699 30.9256 55.7788C31.1617 56.4502 31.7101 56.792 32.2929 57.0827C33.4787 57.6755 34.6753 58.245 35.9486 58.8634C36.2464 58.5486 36.5442 58.0656 36.9766 57.8242C37.3751 57.6013 37.3958 56.9639 38.0171 57.0252C37.9285 56.9162 37.8668 56.8404 37.7748 56.7278C37.9653 56.5944 38.1584 56.4594 38.4272 56.2713C38.5121 56.0841 38.6417 55.7987 38.7685 55.5191C38.9607 55.5079 39.1392 55.4976 39.3964 55.4827C39.2871 55.3418 39.2299 55.2685 39.1413 55.1542C39.6209 55.0842 39.6528 54.5876 39.9547 54.3208C40.2737 54.0388 40.4994 53.6515 40.8018 53.2638C40.8689 53.3131 40.9389 53.3644 41.0723 53.4626C41.1311 53.3243 41.1862 53.1938 41.2553 53.0302C41.3369 53.096 41.4123 53.1565 41.5482 53.2667C41.696 52.4735 42.1459 51.8373 42.6239 51.2653C43.1163 50.6755 43.5591 49.9982 44.3652 49.6035C44.4662 49.6868 44.6017 49.7982 44.7549 49.9241C44.4364 50.5359 44.1278 51.1423 43.475 51.4616V52.365C43.6295 52.3273 43.7865 52.3343 43.8192 52.2739C43.9501 52.0299 44.0425 51.7652 44.0943 51.6405C44.6311 51.1982 45.0697 50.837 45.6231 50.3814C45.6546 50.8034 45.6744 51.0789 45.6943 51.3431C45.5258 51.4123 45.3973 51.4649 45.2623 51.5204C45.2971 51.5689 45.3406 51.6625 45.3638 51.6575C45.638 51.6012 45.9093 51.53 46.2427 51.4475C46.3372 51.614 46.4523 51.8166 46.5683 52.0204C46.5062 52.0895 46.432 52.1715 46.3521 52.2602C46.3993 52.5874 46.7928 52.8761 46.4884 53.251C46.3997 53.171 46.321 53.0998 46.2407 53.0265C46.2034 53.0965 46.1309 53.1706 46.1458 53.2174C46.1872 53.35 46.2647 53.4713 46.3517 53.6428C46.2895 54.2165 45.831 54.5975 45.4056 54.9848C45.003 55.3514 44.5602 55.6732 44.0425 56.0886C44.2554 56.2108 44.4405 56.3177 44.6489 56.4378C44.5188 56.6876 44.4401 56.8384 44.3573 56.9966C44.4053 57.05 44.4774 57.1287 44.5892 57.2521C44.3436 57.2915 44.1365 57.325 43.8395 57.3735C43.9203 57.5794 43.9895 57.7546 44.0694 57.9579H43.3172C43.1776 58.2442 43.0559 58.4939 42.9399 58.7317C43.0476 58.8476 43.123 58.9288 43.2315 59.0456C43.0008 59.0883 42.7941 59.1268 42.4934 59.1831C42.5663 59.3753 42.633 59.5485 42.7113 59.7543C42.5182 59.7829 42.3103 59.8136 42.0394 59.8533C42.1189 60.0679 42.1836 60.2418 42.2904 60.5301C41.9963 60.4158 41.7822 60.3326 41.5237 60.2323C41.402 60.4643 41.2777 60.7012 41.1568 60.9315C41.1998 61.0135 41.2168 61.1034 41.2678 61.1311C41.3576 61.18 41.479 61.1709 41.5681 61.2206C41.9139 61.4136 41.9947 61.861 42.3347 62.0527C42.7013 62.2598 42.8608 62.6152 43.0944 62.9317C43.3048 63.2166 43.461 63.4569 43.4373 63.8176C43.4291 63.9411 43.5392 64.072 43.6076 64.2265C43.5479 64.3279 43.4626 64.4725 43.3462 64.6705C43.041 64.7057 42.8189 65.1145 42.2618 64.8987C41.2889 64.5214 40.2762 64.1834 39.2195 64.0562C39.1607 64.0492 39.1123 63.9556 39.0162 63.8595C38.7072 64.2078 38.4002 64.5537 38.015 64.9882C38.0101 65.0292 37.9894 65.2069 37.9666 65.3986C37.7504 65.4326 37.5433 65.4653 37.2214 65.5159C37.4339 65.8141 37.5926 66.0369 37.8291 66.3691C37.5619 66.2908 37.3838 66.2391 37.1576 66.1728C37.1108 66.2283 37.016 66.3405 36.9129 66.4623C37.0437 66.8239 36.9385 67.0451 36.5148 67.2857C36.3881 67.7414 36.2663 68.1792 36.1648 68.5445C35.9734 68.6149 35.8666 68.6543 35.7286 68.7052L35.9759 68.9525C35.6384 69.211 35.2511 69.4201 34.9893 69.7341C34.7528 70.017 34.6542 70.4146 34.4703 70.8156C34.4881 70.8429 34.5623 70.9539 34.6799 71.1299C34.431 71.3863 34.1866 71.6382 33.9513 71.8801C34.0429 71.9944 34.1104 72.0785 34.2272 72.2243C34.0611 72.414 33.8979 72.6004 33.716 72.8079V73.4665C33.4493 73.7233 33.1788 73.9838 32.9701 74.1847" fill="black"/>
<path fill-rule="evenodd" clip-rule="evenodd" d="M60.7494 78.6863C61.2713 79.3175 61.2718 79.3188 61.9051 78.9688C61.9229 79.1709 61.9167 79.3469 61.9602 79.5093C61.9912 79.6245 62.089 79.7218 62.1519 79.8196C62.0716 79.9003 62.0181 79.9533 61.9502 80.0213C62.108 80.095 62.2588 80.1658 62.5057 80.2814C62.2489 80.6471 62.0065 80.9917 61.7646 81.3368C62.0765 81.8976 61.4167 81.997 61.3219 82.2973C61.1757 82.7612 60.6115 82.861 60.5954 83.3568C60.5767 83.9351 59.9836 84.0063 59.726 84.343C59.5023 84.6359 59.1046 84.8272 59.0533 85.2009C59.1423 85.3533 59.2128 85.4738 59.3283 85.6722C58.9941 85.8611 58.7029 86.0264 58.4109 86.1916L57.7063 86.5246C57.4922 86.7773 57.278 87.03 56.9918 87.3671V87.5887C56.2707 88.1185 55.5972 88.6143 54.8152 89.1892C55.0389 89.3031 55.1743 89.3723 55.3988 89.487C55.0881 89.9215 54.7738 90.3614 54.4358 90.834C55.3035 91.1297 56.1199 91.4085 56.962 91.6959C56.8787 91.8633 56.8083 92.0045 56.7131 92.1959C57.0883 92.3297 57.4391 92.4548 57.8397 92.5977V93.0889C58.0915 93.3204 58.3123 93.523 58.5409 93.7334C58.555 93.9989 58.5678 94.2524 58.5807 94.4947L58.9903 94.9039L57.9511 95.7688C57.7063 96.0413 57.4512 95.9908 57.177 95.809C57.0937 95.7539 56.9769 95.7224 56.8758 95.7245C55.7094 95.7501 54.6553 95.3061 53.5941 94.918C52.8113 94.6322 52.0578 94.2665 51.246 93.9169C51.0244 94.1377 50.6794 94.305 50.6351 94.7606C50.1662 94.8716 49.6853 94.9859 49.2355 95.0924C49.0035 94.8575 48.8184 94.6703 48.6328 94.4823C48.7032 94.4044 48.7761 94.324 48.8838 94.2052C48.772 93.9724 48.6515 93.7218 48.5794 93.5727C48.2302 93.6265 47.9212 93.6746 47.6197 93.721C47.4528 93.3913 47.3028 93.0935 47.1491 92.789C47.0742 92.864 47.0212 92.917 47.0017 92.9365C46.7519 92.6826 46.5001 92.427 46.1522 92.0741C46.2603 91.2904 45.7587 90.3904 45.8933 89.4174C45.9219 89.2136 45.7657 88.9187 45.6013 88.7646C44.9348 88.1392 44.9062 87.2354 44.5931 86.4662C44.4734 86.1726 44.3458 85.7998 44.3355 85.4448C44.3181 84.8811 44.2522 84.302 44.3487 83.7545C44.5012 82.8884 44.6652 81.9647 45.6738 81.6238C46.0072 81.5112 46.3742 81.4987 46.8136 81.4258V83.1874C47.196 82.9414 47.4519 82.7765 47.8338 82.5305C47.8868 82.6862 47.9506 82.8718 48.0136 83.0574C48.0703 83.0143 48.1271 82.9712 48.1838 82.9281V83.9674C48.3781 83.8688 48.5185 83.7975 48.651 83.73C49.1303 84.1492 49.1178 84.686 49.0516 85.2381C49.2119 85.2949 49.3423 85.3409 49.5515 85.415C49.4625 85.6569 49.3734 85.8971 49.2657 86.1875C49.3962 86.1639 49.4616 86.1709 49.4981 86.1415C49.5859 86.0719 49.6464 85.9477 49.7425 85.9112C50.7071 85.5446 51.1926 84.5191 52.161 84.1625C52.3557 83.4612 53.095 83.3117 53.527 82.8391C53.9764 82.3478 54.6106 82.0281 55.1528 81.6184C55.6775 81.2216 55.9733 80.5531 56.658 80.3431C57.1078 79.5242 57.7552 78.9038 58.5608 78.4407C58.5326 77.8861 59.2956 77.8173 59.2778 77.2325H60.2963C60.3692 77.3049 60.4757 77.4114 60.5821 77.5178C60.0946 77.7606 59.9165 78.2315 59.6046 78.7294C60.2793 78.869 60.6678 78.0476 61.3036 78.4266C61.1197 78.5127 60.9694 78.5832 60.7494 78.6863" fill="black"/>
<path fill-rule="evenodd" clip-rule="evenodd" d="M58.1293 66.7471C58.0767 66.219 58.8198 66.161 58.4677 65.6689C58.3778 65.7493 58.2979 65.8201 58.218 65.8909C58.1915 65.864 58.1455 65.8404 58.1409 65.8106C58.0573 65.2572 58.0908 64.7324 58.4835 64.2813C58.9155 63.786 59.3438 63.2864 59.758 62.7761C59.8888 62.615 59.9696 62.4133 60.0984 62.1863C59.8938 61.6532 59.6134 61.1007 59.3699 60.5515C59.1085 59.9616 59.1143 59.3221 58.8302 58.7385C58.679 58.4287 59.0733 57.8848 58.9809 57.5054C58.877 57.0809 58.6264 56.7197 58.9925 56.3196C59 55.2004 59.7609 54.5029 60.4265 53.7258H62.3082C62.4184 53.8302 62.5273 53.9338 62.7038 54.1007C62.4175 54.4656 62.1309 54.8305 61.8141 55.2344C61.8493 55.3097 61.9342 55.4899 62.0477 55.7314C62.1537 55.7314 62.3567 55.7923 62.4291 55.7206C62.7435 55.412 63.1068 55.5367 63.4377 55.5003C63.5599 55.7649 63.6618 55.9861 63.7753 56.2318C63.6055 56.4438 63.4303 56.6629 63.1644 56.9947C63.5665 57.0461 63.8362 57.0804 64.1907 57.1256V58.2083C64.9537 58.2332 65.0374 57.3091 65.6798 57.3128C65.9714 56.8688 66.3968 56.5598 66.7799 56.2057C67.2219 55.7977 67.6423 55.3652 68.059 54.9307C68.4425 54.5302 68.8319 54.1313 69.1765 53.6989C69.531 53.2532 69.8359 52.7678 70.0409 52.4737C70.5077 52.3064 70.7707 52.2119 71.0971 52.0951C71.204 52.2471 71.3792 52.4016 71.4239 52.5876C71.4583 52.7305 71.3444 52.9206 71.2678 53.0751C71.1804 53.2507 71.0607 53.4098 71.0619 53.7188C71.3912 53.58 71.7205 53.4409 72.0829 53.288C72.2764 53.6649 72.4835 54.0684 72.7974 54.6802C72.7974 54.6673 72.7792 54.8897 72.8036 55.1072C72.8227 55.2762 72.8944 55.4394 72.9577 55.656C72.913 55.7339 72.831 55.878 72.7552 56.0114C72.8691 56.1344 72.9449 56.216 73.0124 56.2885C72.358 57.3364 71.769 58.4212 71.0512 59.4356C70.4485 60.2872 70.533 60.3468 70.0915 60.5879C70.1619 60.6662 70.2331 60.7449 70.2903 60.8083C69.3964 61.8098 68.51 62.8035 67.6104 63.812V64.1869C68.317 64.6371 69.0009 65.0725 69.7158 65.5277C69.6122 65.7306 69.5488 65.8549 69.4511 66.0475C69.7216 66.2799 69.9034 66.7268 70.427 66.5619C70.5417 66.7897 70.6353 66.9757 70.7273 67.1588C70.6614 67.2507 70.5794 67.3646 70.4671 67.5208C70.7504 67.8045 71.0048 68.0593 71.2798 68.3347C71.175 68.6044 71.086 68.8342 70.987 69.089C71.0594 69.2132 71.1464 69.3632 71.2268 69.5011C71.187 69.5868 71.1746 69.6755 71.1253 69.7082C71.0143 69.7807 70.8511 69.7948 70.7699 69.8867C70.2841 70.4351 70.1971 70.4658 69.5861 70.257C68.795 69.9865 67.9442 69.8275 67.2215 69.4328C66.2531 68.9042 65.3828 68.196 64.3825 67.5038C63.9625 67.8145 63.4912 68.2407 63.0372 68.7257C62.5981 69.195 62.0195 69.567 61.2151 69.8064C61.3568 69.5723 61.4148 69.4767 61.5403 69.2679C61.0362 69.3619 60.6133 69.4406 60.1908 69.5193L60.1183 69.3739C60.3726 69.1755 60.6265 68.9776 60.8809 68.7796L60.4878 68.3865H59.7165C59.6138 68.1284 59.4995 67.8393 59.3645 67.4997H58.4284C58.2996 67.1754 58.184 66.8846 58.1293 66.7471" fill="black"/>
<path fill-rule="evenodd" clip-rule="evenodd" d="M63.0289 44.5823C62.6412 44.675 62.2995 44.7571 61.8174 44.8726C61.3224 44.5069 60.7305 44.0513 60.1196 43.6238C59.391 43.1139 58.7581 42.4645 57.9264 42.1053C57.7338 42.0221 57.5316 41.962 57.2641 41.8659C56.9397 41.3801 56.902 40.4779 55.9506 40.5774C55.5203 40.1839 55.4677 39.5004 54.8385 39.4342C54.6326 39.0833 54.5026 38.682 54.2321 38.4314C52.9974 37.2861 52.1039 35.9105 51.3356 34.2508C51.2689 33.7385 51.2685 33.0555 51.1579 32.3704C50.9839 31.2914 51.5588 30.3648 52.4933 29.7667C52.7513 29.6019 52.8843 29.2394 53.313 29.2779C53.6112 29.3049 53.926 29.1462 54.322 29.0489C54.4392 29.1533 54.5945 29.2912 54.7904 29.4652C54.4719 29.9999 53.8697 30.3375 53.8241 31.0557C54.5328 31.2922 54.8505 30.5048 55.5638 30.4141C55.6507 30.492 55.8052 30.6295 55.9502 30.7595C55.6975 31.1385 55.5273 31.3937 55.2138 31.8638C55.7013 31.7097 56.048 31.7072 56.1759 31.5387C56.4994 31.112 57.0226 30.941 57.3262 30.4663C57.6091 30.0243 58.073 29.695 58.5473 29.3869C59.2178 28.9516 59.7613 28.3257 60.39 27.8195C61.3141 27.0756 62.1802 26.2605 63.2095 25.6421C63.6167 25.3981 63.9178 24.9732 64.2558 24.619C64.5631 24.2968 65.0515 24.1559 65.148 23.6755H66.6673V24.6555C66.625 24.6977 66.4792 24.8435 66.3036 25.0195C66.5049 24.9835 66.7058 24.9549 66.9029 24.9102C67.1034 24.8646 67.3006 24.8033 67.6046 24.7201C67.5582 25.4495 67.5934 26.0952 68.1203 26.5658C68.0093 26.7153 67.9459 26.8006 67.8183 26.9733C67.979 27.062 68.1654 27.1639 68.5121 27.354C68.1551 27.4517 68.0337 27.4849 67.868 27.5304C67.931 27.6746 68.0155 27.8092 68.0461 27.9554C68.0772 28.0995 68.0532 28.2549 68.0532 28.4027C67.6344 28.9777 67.2152 29.5526 66.7551 30.1838C66.6706 30.1933 66.4925 30.2128 66.2307 30.2414C66.3102 30.3507 66.3591 30.4191 66.4233 30.5077C66.3558 30.6692 66.2808 30.8486 66.1967 31.0482C65.2026 31.0002 65.1956 32.0245 64.5809 32.4234C64.711 32.5945 64.7756 32.6794 64.805 32.7183C64.3962 33.1275 63.9836 33.5401 63.567 33.9563C63.6005 33.987 63.5471 33.9385 63.5703 33.9592C63.3847 34.1444 63.1933 34.3358 63.002 34.5275C62.9399 34.4791 62.8781 34.431 62.816 34.3826V34.9774C62.6847 34.8692 62.6085 34.8063 62.4374 34.6659C62.4751 34.9194 62.5004 35.0879 62.5356 35.3249C62.2535 35.6902 61.9143 36.1297 61.5469 36.606C61.3816 36.485 61.269 36.4018 61.1687 36.3281C60.762 36.8036 60.3449 37.2911 59.9241 37.7832C60.086 37.8639 60.2355 37.9381 60.4534 38.0462C60.2504 38.3034 60.0761 38.5246 59.9125 38.7321C59.939 38.8236 59.939 38.9081 59.9808 38.9553C60.6688 39.7266 61.4848 40.4162 62.0212 41.2803C62.6255 42.2532 63.3806 43.2577 63.0289 44.5823" fill="black"/>
<path fill-rule="evenodd" clip-rule="evenodd" d="M78.702 28.251C78.7715 28.1814 78.825 28.128 78.8801 28.0729C78.8395 28.0207 78.8051 27.9607 78.7566 27.9163C78.4638 27.6492 78.0939 27.4201 77.857 27.1583C77.6246 26.9024 77.3645 26.7073 77.1292 26.4728C76.8165 26.161 76.4678 25.7144 76.4512 25.3131C76.4218 24.5949 76.3783 23.8746 76.5489 23.122C76.8434 21.8226 77.524 20.8389 78.4253 19.9413C79.5693 18.8018 80.7096 17.6586 81.9099 16.4583C81.4543 16.066 81.4311 15.3254 80.7096 15.1813C80.4064 14.5919 80.1044 14.0025 79.8013 13.4131C79.5217 12.8692 79.5718 12.2823 79.5747 11.7012C79.5772 11.2874 79.5755 10.8736 79.5755 10.4598C79.9562 9.97397 80.3368 9.48811 80.7113 9.01095H82.593C82.2914 9.5258 82.0334 9.9661 81.7803 10.3985C82.4762 10.9039 82.7317 9.80912 83.3431 10.143C83.7246 10.6653 83.0146 10.9113 82.7897 11.4166C83.2238 11.3127 83.476 11.2518 83.7846 11.1776C83.9677 11.7144 83.8762 12.1841 83.5875 12.6886C83.7415 12.7487 83.8629 12.7959 84.046 12.8668C84.1765 13.0068 83.9056 13.027 83.8596 13.2333C84.041 13.5108 84.2618 13.8488 84.5347 14.2668C86.3986 12.3109 88.7753 10.9999 90.2288 8.76616H91.362C91.2746 9.13894 91.1984 9.4645 91.094 9.90977C91.4088 9.79876 91.6511 9.71344 91.9833 9.59622V10.4727C92.1647 10.5203 92.2666 10.5468 92.3685 10.5737C92.3971 10.6371 92.4418 10.6988 92.4497 10.7647C92.4634 10.8757 92.4348 10.9933 92.4563 11.1023C92.6862 12.2753 92.1022 13.206 91.4892 14.0849C90.8265 15.0359 90.0569 15.9128 89.279 16.8907C89.834 17.5572 90.7217 17.8811 91.5028 18.5032C91.5173 18.6059 91.541 18.7791 91.5687 18.9783C91.7758 19.2372 92.1105 19.4878 92.2053 19.8092C92.4133 20.5137 92.9277 21.1698 92.5781 22.0794C92.4928 22.1183 92.3047 22.2107 92.1121 22.2927C91.9199 22.3743 91.724 22.4447 91.5057 22.5296C91.2067 22.2256 90.5311 22.3221 90.6218 21.7302C89.9322 21.531 89.3254 21.3554 88.7372 21.1852C88.6026 20.9511 88.4804 20.7391 88.3425 20.4992H87.0949C87.0634 20.3646 87.039 20.2627 87.0092 20.1368C86.5478 19.7818 86.1601 20.1998 85.8904 20.2718C85.5218 20.6993 85.2397 21.0265 84.9278 21.3873C84.8384 21.3194 84.7667 21.2647 84.6424 21.1707C84.5091 21.3591 84.3653 21.5621 84.1901 21.8094C84.1669 21.7791 84.2237 21.8524 84.3078 21.961C83.7842 22.0923 83.7386 22.6183 83.5084 23.0511C83.3273 22.9397 83.2085 22.8664 83.0262 22.7541C82.9952 22.9488 82.9649 23.1394 82.9285 23.3647C82.8506 23.3858 82.7491 23.4131 82.5677 23.4624C82.5192 23.9201 82.4542 24.4776 81.7757 24.3256C81.5479 24.621 81.166 24.8956 81.1921 25.1242C81.27 25.8114 80.6947 26.1398 80.5377 26.677C80.4636 27.3559 80.4739 27.3555 80.6847 27.8091C80.1931 28.2009 79.6381 28.4647 79.0006 28.6275C78.9173 28.5223 78.8241 28.4055 78.702 28.251" fill="black"/>
<path fill-rule="evenodd" clip-rule="evenodd" d="M12.6408 15.4884C12.3596 15.5232 12.1901 15.5443 11.9764 15.5709C12.1065 15.715 12.1806 15.7966 12.2991 15.9279C12.0187 16.4494 11.4872 16.7621 11.1269 17.2181L11.3033 17.3946C11.0163 17.6199 10.7288 17.8452 10.4845 18.037C10.3494 18.3928 10.6377 18.7942 10.1626 19.0145C10.5835 19.2966 10.9683 19.5484 11.3464 19.8094C12.5323 20.6287 13.8006 21.3316 14.7781 22.435C15.3381 23.0667 15.8654 23.6772 15.8753 24.5843C15.877 24.7371 16.0323 24.8879 16.1561 25.112C15.8152 25.3278 15.4959 25.5295 15.0958 25.7826C12.8413 24.4617 10.5106 23.2845 8.37287 21.5594C8.21962 21.6468 7.88494 21.7205 7.82323 21.8924C7.57843 22.5733 7.09879 23.0513 6.61045 23.5388C6.5508 23.5985 6.57317 23.7397 6.55701 23.8441C6.34784 23.8673 6.17015 23.8864 5.89885 23.9162C5.95104 24.0947 5.99536 24.2463 6.07281 24.5118C5.6379 24.8759 5.31317 25.4177 5.1421 26.0903C5.04269 26.4809 4.66826 26.8011 4.33275 27.2729V29.7274C4.11902 29.7411 3.94092 29.7523 3.7392 29.7651C3.69571 29.8873 3.64932 30.0182 3.59382 30.1752H2.81512C2.69334 29.8223 2.56867 29.4603 2.42453 29.0432C2.2079 29.1384 1.99169 29.2333 1.73405 29.3464C1.68104 29.1823 1.6392 29.0539 1.59737 28.9255C1.53358 28.899 1.46317 28.8402 1.40559 28.851C0.927605 28.9417 0.600386 28.5374 0.541569 28.2802C0.301747 27.2331 -0.375886 26.1976 0.274824 25.0735C0.286836 23.9601 0.978138 23.1106 1.36997 22.1422C1.49796 21.8261 2.04802 21.8816 1.89891 21.3357C1.83761 21.1112 2.24518 20.7554 2.44565 20.4634C2.62749 20.1987 2.79855 19.9241 3.00772 19.6826C3.25334 19.3989 3.5524 19.1612 3.79595 18.8762C3.99849 18.6384 4.15465 18.3613 4.35305 18.0697C2.98039 17.0388 2.1408 15.5742 1.17861 14.2085C0.870031 12.8872 0.336954 11.6041 0.544883 10.057C0.862575 9.6921 1.26891 9.22488 1.70589 8.72328C2.18968 8.82269 2.73352 8.52281 3.17547 9.02689C2.88595 9.41707 2.59849 9.80435 2.30814 10.1958C2.38808 10.2803 2.46222 10.3598 2.53553 10.4377C3.14855 10.5644 3.37305 9.67222 4.0134 9.8789C4.10867 10.0636 4.20352 10.2488 4.30293 10.441C4.10577 10.5673 3.88003 10.7123 3.64311 10.8639C3.78766 11.0088 3.89411 11.1153 4.00056 11.2217C4.32033 10.8908 4.63098 10.8867 5.00666 11.3394C4.97269 11.5916 5.1682 11.9561 4.79086 12.2498C4.94743 12.3252 5.10068 12.3989 5.31979 12.5037C5.13962 12.746 4.97974 12.9606 4.81613 13.1805C4.96855 13.2348 5.09944 13.2807 5.37323 13.3781C5.12139 13.446 5.0021 13.4779 4.79334 13.5342C4.8153 13.7177 4.77139 13.9687 4.87577 14.1091C5.3082 14.6907 5.78536 15.2387 6.2969 15.8604C6.57855 15.6077 6.79476 15.4197 7.00394 15.2246C8.23991 14.0723 9.27417 12.6905 10.8071 11.8745C10.7988 11.45 11.2433 11.4798 11.4346 11.2524C11.6513 10.9952 11.8919 10.7583 12.0472 10.5922H12.8065C12.4623 11.0987 11.8758 11.3849 12.0671 12.1148C12.5575 11.8223 13.0376 11.5361 13.6225 11.1878C13.5703 11.522 13.5297 11.7797 13.4841 12.0725C13.6887 12.1756 13.9928 12.3301 14.3191 12.495C14.2351 12.6694 14.1646 12.8148 14.0826 12.985C14.2007 13.0098 14.3034 13.031 14.4107 13.0533C14.4219 13.0972 14.4649 13.1722 14.4442 13.2C14.1692 13.5711 13.801 13.8991 13.6258 14.3104C13.4062 14.8265 12.922 15.0589 12.6408 15.4884" fill="black"/>
<path fill-rule="evenodd" clip-rule="evenodd" d="M33.2603 27.0185C34.1604 25.9143 34.9204 24.9964 35.6647 24.0657C36.3697 23.1843 36.9724 22.2324 37.5204 21.257C37.4504 21.1704 37.3824 21.0867 37.2661 20.9434C37.4574 20.7264 37.6467 20.511 37.8476 20.2828H38.5919C38.8703 20.5611 39.0943 20.9583 39.4129 21.0598C39.8018 21.1832 39.8569 21.4943 40.0139 21.7267C40.5581 22.5315 40.9367 23.3483 40.5184 24.397C40.2611 25.0419 40.0006 25.6873 39.733 26.3293C39.6527 26.5227 39.5939 26.7253 39.4916 27.0198L38.9212 27.5905V28.3013C38.4747 29.1102 38.1032 29.7846 37.6964 30.5218C38.2585 30.9037 38.7762 31.2719 39.3097 31.6157C40.3668 32.2971 41.2411 33.1433 41.7634 34.306C41.8757 34.5561 41.9271 34.8341 42.0439 35.2247C42.0037 35.3137 41.9055 35.5328 41.797 35.7731C41.5642 35.8816 41.3128 35.9988 41.1165 36.0899C40.5855 35.9064 40.1158 35.7693 39.6668 35.5825C39.2174 35.3961 38.7887 35.1601 38.3508 34.9459C38.2763 34.2919 37.5307 34.5561 37.2238 34.1113C36.972 33.746 36.412 33.594 35.9207 33.3077C34.4487 34.8096 33.1522 36.4503 31.9626 38.1783C31.8711 38.3109 31.9005 38.5267 31.874 38.7035C31.3554 39.1028 30.8426 39.0419 30.3282 38.6791V38.32C29.6597 37.9195 29.033 37.5442 28.3475 37.1333C28.0194 36.7489 28.1863 36.145 27.9726 35.6778C27.7345 35.1576 27.9358 34.6539 27.8455 34.2712C28.5927 32.6057 29.477 31.1469 30.7432 29.8881V29.1193C30.0113 28.6095 29.5565 27.8146 29.0959 27.0351C28.9414 26.7737 28.9174 26.4324 28.8466 26.1251C28.7029 25.4996 28.4879 24.8945 28.5069 24.2301C28.5438 22.9593 29.2653 22.0527 30.4785 21.5966C31.2436 21.3092 31.9866 21.4537 32.8092 21.373C32.3665 22.2896 31.3057 22.2113 30.6856 22.9796C31.7551 22.9324 32.4066 21.9251 33.4972 22.1173C33.455 22.3741 33.4127 22.6313 33.368 22.9022C33.5681 22.9726 33.8617 23.0766 34.1442 23.1768V24.6112C33.8534 25.1186 33.5341 25.6247 33.2736 26.1599C33.1895 26.3318 33.2603 26.5795 33.2603 27.0185" fill="black"/>
<path fill-rule="evenodd" clip-rule="evenodd" d="M52.349 12.9571C51.9261 13.4873 51.5401 13.9719 51.1131 14.5071V15.9564C50.7158 16.1158 50.3294 16.2716 49.8928 16.4468C49.3767 15.9456 49.1676 15.2808 49.0023 14.6525C48.7811 14.7349 48.5856 14.8074 48.2952 14.9151C48.0674 14.5874 47.7903 14.2979 47.6408 13.9533C47.1935 12.9207 47.2291 11.8181 47.278 10.7805C47.4656 10.353 47.6329 9.97115 47.8417 9.49441C47.5294 9.4476 47.2527 9.49109 47.138 9.37512C46.4081 8.63743 45.6878 7.88689 45.0189 7.09453C44.6586 6.66707 44.2783 6.1837 44.1346 5.66305C43.925 4.90092 43.92 4.08245 43.821 3.23127C44.1648 2.7479 44.4444 2.18169 44.881 1.79151C45.2823 1.43281 45.8531 1.26382 46.4719 0.948608C46.6161 1.10476 46.7565 1.25595 46.8986 1.40961C46.8157 1.48914 45.7127 2.55157 45.7127 2.55157C45.7922 2.63151 45.8722 2.71145 45.9898 2.82867C46.4947 2.46044 46.9976 1.97873 47.8185 2.29642C47.6147 2.57559 47.4561 2.79263 47.1773 3.17411C47.5542 3.02707 47.7647 2.94547 48.0563 2.83198C48.1938 3.03908 48.3412 3.26151 48.5202 3.53157C48.2087 3.84346 47.9639 4.08825 47.6686 4.38399C47.8591 4.42293 47.9618 4.44447 48.1325 4.47967C47.8765 4.91127 48.021 5.50813 47.3612 5.72849C48.0161 6.53411 48.7451 6.97813 49.4848 7.46938C51.975 5.40458 54.4109 3.38453 56.8796 1.33754H57.9693C57.7784 1.72027 57.6268 2.02553 57.4731 2.33453C57.8003 2.58429 58.0592 2.30387 58.3492 2.17796C59.1867 2.95956 59.3838 3.93541 59.2115 5.02393C58.8636 5.47044 58.5061 5.92896 58.1412 6.39701C58.1648 6.41855 58.2191 6.46908 58.3682 6.60701C58.1673 6.63269 57.9739 6.65754 57.78 6.6824C57.8558 6.76358 57.9316 6.84518 58.0074 6.92677H57.587C56.8129 8.38352 55.5044 9.3747 54.5464 10.7018C55.8594 11.4333 57.3286 11.9775 58.7178 12.8055C58.76 13.0143 58.8077 13.2512 58.8636 13.5312C59.0342 13.3506 59.1622 13.2152 59.2857 13.0847C59.8448 13.1601 59.8332 13.8029 60.3025 14.0382C60.7134 14.2445 60.9532 14.792 61.273 15.1938V16.535C61.1645 16.6435 61.058 16.75 60.9089 16.8991C59.7458 16.7748 58.7841 16.1121 57.7249 15.5761C57.7034 15.5956 57.6247 15.6668 57.5903 15.6979C56.8493 15.5148 56.4074 14.7196 55.5525 14.8384C55.154 14.3261 54.4987 14.2863 53.9876 13.9843C53.4711 13.6795 52.9707 13.3485 52.349 12.9571" fill="black"/>
<path fill-rule="evenodd" clip-rule="evenodd" d="M85.2448 31.0044C85.478 31.1361 85.6615 31.2397 85.9308 31.3917C85.8695 31.7595 85.8073 32.1302 85.7315 32.5867C85.9208 32.9155 86.0795 33.4163 86.654 33.6184C86.9112 33.2597 87.069 32.8493 87.564 32.6488C87.9115 32.5075 88.1157 32.0126 88.382 31.6742C88.6748 31.3018 89.0816 31.0475 89.3123 30.5939C89.5061 30.2125 89.9228 29.9515 90.1859 29.5961C90.4572 29.2287 90.6626 28.8125 90.8966 28.4181H92.1699C92.237 28.7752 92.3472 29.1281 91.9267 29.4967C92.2896 29.5133 92.5704 29.5261 92.8272 29.5377C92.9419 30.0646 93.0455 30.5418 93.1474 31.0081C92.9643 31.0798 92.8347 31.1303 92.6818 31.19C92.698 31.2935 92.6955 31.4016 92.7324 31.4936C93.0472 32.271 92.9958 32.5378 92.3906 33.138C92.138 33.3881 92.0324 33.7775 92.1351 34.0206C92.2966 34.4025 91.8116 34.2555 92.0406 34.608C91.7979 34.4079 91.7217 34.3449 91.59 34.2364V34.8656C91.3514 34.9116 91.1451 34.9509 90.8999 34.9977V35.6153C90.6108 35.9164 90.407 36.1293 90.2372 36.3066C90.6311 36.6922 90.9944 37.0476 91.2963 37.3438V38.1945C91.5399 38.4381 91.7946 38.6928 92.0556 38.9546C91.9744 39.0987 91.9226 39.1894 91.8319 39.3489C91.9503 39.5891 92.0957 39.8849 92.2834 40.2664C92.0655 40.7212 91.8248 41.2236 91.5962 41.7007H90.6547C89.5579 41.0732 88.4947 40.4639 87.4343 39.8567C87.2463 40.1471 87.0967 40.3782 86.97 40.5741C86.7745 40.4789 86.6237 40.4051 86.3644 40.2788V41.33C86.0206 41.202 85.7804 41.1126 85.3306 40.9452C85.5161 41.1987 85.5671 41.2679 85.6648 41.4013C85.4577 41.596 85.2386 41.8018 84.8919 42.1274C84.8224 41.707 84.7789 41.4435 84.7312 41.1536C84.8899 41.0989 85.0183 41.0546 85.1815 40.9978C85.1976 40.9129 85.2171 40.8102 85.2407 40.6847C85.0978 40.635 84.9665 40.5903 84.8348 40.5447C84.8832 40.3451 84.9325 40.1438 85.0162 39.8025C84.807 39.9942 84.7263 40.0684 84.6782 40.1123C84.1973 40.022 83.7425 39.9371 83.2633 39.8476C83.1896 39.706 83.0939 39.5212 82.9808 39.305C83.0661 38.9745 83.1631 38.5992 83.2612 38.2165C83.482 38.2529 83.7624 38.2997 84.0428 38.3461C84.0544 38.3047 84.0656 38.2633 84.0776 38.2215C83.7848 38.0744 83.4924 37.9274 83.2343 37.7977C83.3855 37.4854 83.5359 37.1744 83.6924 36.8504C82.9493 35.5884 82.1396 34.3971 81.6819 33.0261C81.4073 32.0818 81.7324 31.1486 81.8683 30.2191C81.9739 29.4963 82.5716 28.9852 83.2256 28.6194C83.3188 28.5673 83.407 28.5072 83.5561 28.4144H84.6795C84.8567 28.5917 85.0162 28.7516 85.1285 28.8638C84.9073 29.085 84.6824 29.3095 84.549 29.4425V30.1375C84.7979 30.0729 85.0369 30.0112 85.3103 29.9403C85.4536 30.0741 85.5849 30.1971 85.7672 30.3674C85.5758 30.601 85.418 30.7936 85.2448 31.0044" fill="black"/>
<path fill-rule="evenodd" clip-rule="evenodd" d="M17.3112 42.6063C17.4388 42.7338 17.5452 42.8403 17.696 42.9911C17.0038 43.5829 16.3154 44.1711 15.6274 44.7597C15.6428 44.7995 15.6585 44.8392 15.6743 44.8786C15.8205 44.8359 15.999 44.8322 16.1054 44.7427C16.3043 44.5762 16.4608 44.3604 16.7338 44.3066C17.2163 44.0344 17.6989 43.7619 18.1682 43.4968C18.5774 43.8277 18.2788 44.0891 18.1027 44.4905C18.3707 44.389 18.5443 44.3231 18.7311 44.2519C18.8127 44.3335 18.9191 44.4399 19.026 44.5468C19.0264 44.9979 19.0264 45.4493 19.0264 45.9062C18.8947 46.0346 18.7605 46.1663 18.6184 46.3047C18.6391 46.3569 18.6445 46.4289 18.683 46.4571C18.9398 46.6497 19.1962 46.8448 19.4671 47.0163C19.7583 47.2002 20.1659 47.2532 20.177 47.7241C20.1783 47.7784 20.2702 47.8397 20.3307 47.8824C20.5631 48.046 20.8352 48.1698 21.0245 48.3724C21.2134 48.5741 21.3206 48.852 21.5116 49.1784C21.5116 49.3693 21.5116 49.6705 21.5112 49.9712C21.3244 50.1576 21.1384 50.344 20.9827 50.4997C19.5582 49.9906 18.1503 49.4878 16.7429 48.985C16.4302 49.1519 16.0934 49.3312 15.7563 49.5106C15.7422 49.4878 15.7281 49.465 15.714 49.4422C15.4212 49.7347 15.1283 50.0275 14.7543 50.4015C14.7489 50.4906 14.7382 50.6654 14.7245 50.8882C14.1314 51.4586 13.5105 52.0563 13.0097 52.5384C12.7583 53.3183 12.8859 54.1194 11.8466 54.2838C11.6317 53.9401 10.8596 53.885 11.0356 53.0835C10.8219 53.0218 10.5593 52.9451 10.2731 52.8623C10.2085 52.9058 10.0921 52.9837 10.0014 53.0441C9.71059 52.7368 9.45668 52.4676 9.08763 52.077C9.0052 51.3724 8.89958 50.4707 8.78857 49.5218C9.72674 48.5074 10.6512 47.5079 11.6321 46.4472C11.2485 46.2069 10.853 46.006 10.5141 45.7347C10.1637 45.4539 9.8684 45.1043 9.53994 44.7758C9.63065 44.483 9.72301 44.1844 9.82242 43.8617C9.63852 43.7987 9.50721 43.7536 9.34402 43.6973V42.9343C9.40698 42.8709 9.48692 42.7914 9.57928 42.6986C9.90236 42.6344 10.2416 42.5669 10.6608 42.4832C11.7766 43.1095 12.9969 43.7942 14.184 44.4598C15.3744 44.0071 16.146 42.9629 17.3112 42.6063" fill="black"/>
</svg>
