<svg width="39" height="55" viewBox="0 0 39 55" fill="none" xmlns="http://www.w3.org/2000/svg">
<path fill-rule="evenodd" clip-rule="evenodd" d="M35.27 43.4327H36.0656C36.2098 43.6543 36.3601 43.8854 36.5117 44.1194C36.6256 44.0167 36.7077 43.943 36.8315 43.8316C37.1264 43.9972 37.4313 44.1687 37.7307 44.3369C37.768 44.5784 37.7999 44.7855 37.833 45.0017C38.019 44.8965 38.1652 44.8132 38.3023 44.7353C38.4908 45.1264 38.6569 45.4701 38.8362 45.8421C38.7865 45.8587 38.6623 45.9009 38.4982 45.9564V46.4733C37.9018 46.678 37.4495 47.1945 36.7739 47.0176C36.7346 47.4757 36.3158 47.6265 36.0499 47.6857C35.4195 47.8257 34.8901 48.3227 34.297 48.3343C33.6049 48.3476 33.0797 48.7282 32.477 48.9001C31.7538 49.1068 31.0095 49.3276 30.2921 49.6043C29.5925 49.8739 28.8573 50.2264 28.0546 50.2007C26.7855 50.9368 25.3109 51.0209 23.9436 51.4396C22.8787 51.7656 21.8047 52.1719 20.6569 52.256C20.2577 52.2854 19.877 52.6992 19.4607 52.0887C19.158 52.6429 18.8017 52.949 18.2069 52.9291C17.7894 52.9154 17.3508 53.0144 16.9494 53.1474C15.8986 53.494 14.8035 53.6046 13.7294 53.8254C12.7432 54.0284 11.7293 54.0984 10.7629 54.3121C9.46067 54.6004 8.18038 54.3987 6.8947 54.4807C6.66813 54.4952 6.43576 54.3113 6.1976 54.2761C5.93955 54.238 5.60363 54.3659 5.42594 54.2429C5.19523 54.083 5.02458 54.2276 4.83653 54.1903C4.55902 54.1352 4.28606 54.0557 3.95511 53.9724C3.83334 53.7583 3.42328 53.6726 3.42411 53.2501C3.42452 53.1436 3.22156 52.9403 3.12174 52.9461C2.36541 52.9895 2.1902 52.367 1.86298 51.8418C1.73624 50.82 2.23369 50.1038 3.19174 49.6619C3.31766 49.6035 3.45103 49.548 3.58647 49.5264C4.11831 49.4423 4.68576 49.4601 5.17659 49.2733C5.7163 49.0683 6.24316 49.0845 6.78535 49.0704C7.306 49.0571 7.91943 49.2054 8.32121 48.9793C8.76896 48.727 9.32772 49.1267 9.64872 48.6247C10.0016 48.9971 10.3496 48.44 10.7012 48.6193C11.0773 48.2958 11.5449 48.4698 11.9583 48.3762C12.3414 48.2896 12.7362 48.2395 13.104 48.143C14.3155 47.8232 15.5428 47.6343 16.7813 47.4894C17.3181 47.0197 18.0591 47.4658 18.6356 47.0507C19.1306 46.6945 19.7938 46.7595 20.3682 46.6324C21.021 46.4878 21.7053 46.3781 22.3763 46.2687C23.003 46.1664 23.6193 45.9937 24.2489 45.8765C25.1771 45.7037 26.0619 45.3016 27.022 45.2303C27.4262 44.7536 28.0633 45.1649 28.5458 44.8016C28.9505 44.4964 29.5498 44.4442 30.0407 44.3655C31.239 44.1737 32.2981 43.5897 33.4628 43.3362C33.7387 43.2761 34.0141 43.2123 34.3335 43.1403C34.3757 43.4169 34.4076 43.624 34.4577 43.9513C34.7398 43.7715 34.9651 43.6274 35.27 43.4327" fill="black"/>
<path fill-rule="evenodd" clip-rule="evenodd" d="M16.3891 30.588C16.3274 30.6497 16.274 30.7031 16.2209 30.7566C16.0747 30.5308 15.9281 30.3055 15.7467 30.0259C15.675 30.2289 15.6291 30.3598 15.5553 30.5681C15.224 30.5275 14.7758 30.6029 14.5418 30.4132C14.162 30.1059 13.9134 30.5462 13.5837 30.4293C13.2847 30.3233 12.8502 30.4633 12.6327 30.2935C12.2782 30.0168 11.9207 30.1717 11.5798 30.0843C11.2456 29.999 10.9291 29.8424 10.5799 29.707C10.3931 29.7658 10.1724 29.8354 9.88201 29.9265C9.77308 29.7235 9.66538 29.521 9.47609 29.1669C9.36053 29.5401 9.32201 29.6631 9.2603 29.8631C8.22438 29.2675 6.9826 29.6047 5.94586 29.0832C5.91976 28.9647 5.89657 28.8624 5.83609 28.5919C5.74414 28.8604 5.70562 28.9743 5.66006 29.1064C5.39746 29.0372 5.11621 28.9631 4.82379 28.8856C4.80432 28.7092 4.78485 28.5315 4.75627 28.2714C4.64858 28.3492 4.58272 28.3969 4.48331 28.4689C4.3603 28.4072 4.21864 28.336 4.01858 28.2357C3.94154 28.4097 3.87527 28.5592 3.81148 28.7034C3.55964 28.5257 3.30698 28.3472 3.00834 28.1363C2.99675 28.0311 2.97728 27.853 2.9516 27.6227C2.69189 27.7532 2.4587 27.87 2.15799 28.0212C1.76243 27.4475 0.953491 27.1816 0.699586 26.4104C0.80355 26.2956 0.876864 26.2148 0.950592 26.1341C0.734379 25.9179 0.63497 25.9779 0.405503 26.4642C0.332189 26.4692 0.258462 26.4804 0.185976 26.475C0.156154 26.4729 0.128817 26.4348 0.0323077 26.3615C0.102722 26.1999 0.181006 26.0206 0.267574 25.8218C0.195503 25.6358 0.112663 25.4221 0 25.1321C0.287041 25.2365 0.461834 25.2995 0.678876 25.3786C0.610533 25.1093 0.56 24.9093 0.473846 24.5705C0.869823 24.7494 1.11586 24.8608 1.39669 24.9876C1.33166 25.0675 1.26994 25.1429 1.19497 25.2348C1.38923 25.3334 1.58556 25.4337 1.8258 25.5563V24.7958C2.08219 24.6653 2.29965 24.5547 2.53367 24.4354C3.06923 24.6579 3.61473 24.8848 4.17183 25.1164C4.42077 25.019 5.37509 25.1421 5.80751 25.3384C5.88373 25.2692 5.96243 25.1976 6.08047 25.0907C6.30994 25.2001 6.56053 25.3193 6.82396 25.4448C6.75107 25.5277 6.68314 25.606 6.61479 25.6838C6.66491 25.7207 6.73325 25.8056 6.77095 25.7936C7.20172 25.6598 7.6068 25.3309 8.07568 25.7692C8.16266 25.8504 8.4671 25.7008 8.67006 25.6544C9.59953 25.4424 10.4528 25.5749 11.2033 26.1784C11.3785 26.1308 11.5711 26.0343 11.7612 26.038C11.9853 26.0421 12.3428 26.2463 12.4082 26.168C12.7458 25.763 12.9218 26.2563 13.1737 26.2592C13.4193 26.2625 13.6463 26.2766 13.906 26.3946C14.3454 26.5951 14.8653 26.6373 15.3573 26.6995C17.0117 26.9078 18.6266 27.2566 20.2234 27.7561C21.456 28.1413 22.7119 28.4594 23.8969 28.9743C24.6951 29.3205 25.5628 29.6419 26.1899 30.2073C26.7566 30.7172 27.4276 31.1691 27.8695 31.8973C27.8074 31.9946 27.7324 32.1127 27.6459 32.2489C27.6939 32.3048 27.7614 32.3827 27.8393 32.4722C27.5734 32.724 27.3033 32.9796 26.9997 33.267C26.6547 33.1627 26.2943 33.0169 26.0922 32.5198C26.0495 32.8048 26.0189 33.0119 25.9853 33.2356H25.6635C25.6067 33.0881 25.5575 32.9585 25.5069 32.8259C25.3851 32.9034 25.2733 32.9746 25.1213 33.0715C25.0082 32.987 24.896 32.9025 24.7862 32.8205C24.6139 32.98 24.4312 33.1502 24.2428 33.3246C23.9686 32.987 23.7776 32.6847 23.5212 32.4552C23.2723 32.2324 22.7521 32.4477 22.634 31.8749C22.6796 31.8041 22.7554 31.6869 22.8734 31.5042C22.6378 31.4922 22.4211 31.481 22.1208 31.4657C22.2712 31.6343 22.342 31.7142 22.492 31.8832C22.2062 31.8683 21.9692 31.9221 21.8085 31.8351C21.4283 31.6293 21.0385 31.5199 20.6235 31.4073C20.2325 31.3012 19.8576 31.2565 19.465 31.2147C19.1158 31.1774 18.7774 31.0444 18.4282 31.0043C18.0596 30.9624 17.6748 31.0275 17.3136 30.9579C16.9918 30.8962 16.6931 30.7147 16.3891 30.588" fill="black"/>
<path fill-rule="evenodd" clip-rule="evenodd" d="M9.33081 2.44777V1.49842C9.71602 1.09251 10.1609 0.894933 10.8323 0.961205C10.8948 1.06558 11.0104 1.25819 11.1463 1.48558C11.8926 1.02623 12.1768 2.02322 12.7629 1.86499C13.6045 2.42251 14.2321 3.19955 15.0952 3.68623C15.2216 3.75748 15.3115 3.89334 15.4171 4.00061C16.1597 4.75322 16.9881 5.39647 17.8538 6.00452C18.4494 6.42328 18.9871 6.93067 19.5181 7.43351C20.0976 7.98233 20.7019 8.48683 21.4064 8.86831C21.5332 8.93706 21.621 9.07665 21.7287 9.18186C22.1561 9.60061 22.5422 10.079 23.026 10.4187C23.4157 10.6916 23.7036 11.0549 24.0486 11.3601C24.6451 11.8874 25.1409 12.529 25.6731 13.1284C26.2087 13.7314 26.7604 14.3229 27.2574 14.9566C27.4645 15.2213 27.5486 15.5825 27.6944 15.9122C27.3614 16.2038 27.081 16.4498 26.6486 16.8293C26.3292 17.0098 26.1689 16.4097 25.7916 16.2717C25.6677 16.3666 25.5567 16.4523 25.4809 16.5103C25.0361 16.4184 24.6177 16.3318 24.0097 16.2059C22.7621 15.1849 21.3091 14.1005 19.9518 12.8848C19.3068 12.3078 18.5783 11.7681 17.8004 11.3171C17.2445 10.9948 16.8105 10.4626 16.3068 10.0393C14.9722 8.91842 13.6315 7.76777 12.5036 6.44937C11.4445 5.2105 10.1484 4.1576 9.33081 2.44777" fill="black"/>
</svg>
