<svg width="85" height="20" viewBox="0 0 85 20" fill="none" xmlns="http://www.w3.org/2000/svg">
<path fill-rule="evenodd" clip-rule="evenodd" d="M64.919 0.949595C65.9847 1.55267 66.9896 2.20918 68.0673 2.70747C69.2051 3.23391 70.3976 3.63859 71.6373 3.90948C72.6612 4.13356 73.662 4.45084 74.7289 4.34522C75.5321 4.76729 76.3973 4.52581 77.2332 4.55687C77.5757 4.5693 77.9224 4.36634 78.2687 4.36013C78.6423 4.3535 78.9762 4.16835 79.3063 4.1464C80.5282 4.06439 81.6337 3.499 82.839 3.37599C82.9276 3.36687 83.0055 3.25504 83.1202 3.1664C83.4487 3.38261 83.7618 3.58889 84.1508 3.84486C83.8178 4.09131 83.5792 4.26776 83.1948 4.5519H84.3247C84.1984 4.8464 84.1205 5.02741 84.0153 5.27303C84.0559 5.33847 84.1292 5.45735 84.2535 5.65741C84.0936 6.06374 84.0033 6.62498 83.6922 7.00605C83.259 7.53581 82.6833 7.96202 82.1216 8.36794C81.8822 8.54149 81.5218 8.63427 81.222 8.62143C80.5555 8.59409 79.9599 9.02528 79.2794 8.87658C79.1799 8.85463 79.0433 9.00125 78.9057 9.08036C78.8614 8.95486 78.8154 8.82397 78.7682 8.69019H74.5417C74.9596 8.91758 75.3999 8.8509 75.8311 8.86167C76.3199 8.87285 76.8099 8.86084 77.2991 8.86498C77.7336 8.86871 78.1685 8.88072 78.6013 9.08989C77.7493 9.08989 76.8964 9.09445 76.044 9.08865C75.0313 9.08202 73.9983 9.198 73.068 8.64007C72.0507 8.65539 71.1328 8.26522 70.1789 7.98853C69.6902 7.84687 69.3331 7.61865 68.9997 7.28232C68.9463 7.33575 68.8937 7.38918 68.7955 7.48818C68.1204 7.12409 67.4572 6.67634 66.7282 6.40462C66.2246 6.21741 66.027 5.66776 65.4898 5.56877C65.2926 5.53273 65.1162 5.38735 64.8237 5.23699C64.4957 5.1293 63.9655 5.48303 63.5737 5.02699C63.5202 5.08001 63.4672 5.13344 63.3823 5.21835C63.2937 5.16782 63.1947 5.11066 63.0907 5.05102C63.0381 5.18149 62.9863 5.31031 62.9288 5.45279H62.5547C62.643 5.30741 62.7018 5.20965 62.7618 5.11107C62.6985 5.08208 62.6152 5.01084 62.5754 5.03031C62.293 5.16823 62.0171 5.32107 61.7433 5.4764C61.4981 5.61557 61.2579 5.76386 60.9588 5.94196C60.8822 5.89226 60.765 5.81646 60.6295 5.72865C60.5682 5.85664 60.4982 6.00244 60.4266 6.1532C60.3669 6.09812 60.3135 6.04924 60.2543 5.99457C60.0227 6.1822 59.8057 6.50155 59.5526 6.53427C58.8584 6.62332 58.3531 7.10462 57.7152 7.3022C57.3921 7.40202 57.113 7.68451 56.8462 7.9206C55.9611 8.70468 54.9927 9.34835 53.9025 9.79403C53.7973 9.69587 53.7161 9.62048 53.6337 9.54344C53.5032 9.67474 53.3711 9.80853 53.2008 9.98042H52.232C52.0916 10.2107 51.9636 10.4224 51.8195 10.6585H51.4235C51.2938 10.8221 51.204 11.0561 51.0507 11.1087C50.3412 11.3523 49.6921 11.8539 48.8331 11.3825C48.4673 11.182 47.8991 11.3489 47.4207 11.5349C47.8734 11.5623 48.3257 11.59 48.7784 11.6178L48.7726 11.7486H47.2562C47.209 11.6149 47.163 11.484 47.0851 11.2632C46.5541 11.7727 46.0103 11.5755 45.4818 11.3456C44.7387 11.0213 44.0196 10.6871 43.3669 10.1581C42.5231 9.47468 41.6276 8.8248 40.5992 8.40936C40.5014 8.37001 40.4198 8.29214 40.2521 8.17906H38.9299C38.8864 8.11279 38.85 8.07924 38.8562 8.06102C38.8674 8.02871 38.9084 8.00841 38.9312 7.979C38.9697 7.92847 39.0041 7.87463 39.0708 7.77687H38.2622C38.2072 7.61451 38.1628 7.48403 38.1082 7.32249C38.0216 7.308 37.9185 7.29143 37.6443 7.24587C37.7818 7.4422 37.8443 7.53125 37.9135 7.62942C37.8555 7.69279 37.7838 7.7719 37.6757 7.89119C37.9284 7.94131 38.1554 7.98605 38.3824 8.03161C36.9028 8.26812 35.4875 8.85628 33.9852 8.60735C33.7127 9.3761 33.1398 9.56747 32.405 9.54054C31.4453 10.4244 30.4877 11.3506 29.4816 12.2204C28.4328 13.1267 27.2399 13.8768 25.9012 14.1862C24.773 14.4468 23.5792 14.8734 22.393 14.2923C22.3014 14.2475 22.1697 14.2819 22.057 14.2869C20.9109 14.3428 19.9218 13.8408 18.936 13.3698C18.5235 13.1731 18.2025 12.7879 17.7941 12.5775C17.2337 12.2888 16.6169 12.1508 15.9989 11.9943C14.893 11.7147 13.7954 11.8447 12.6957 11.8062C11.6801 11.7706 10.6872 11.9359 9.71882 12.2482C9.61651 12.2813 9.48438 12.2809 9.38456 12.2453C9.28722 12.2101 9.21391 12.109 9.1058 12.0166C9.06065 12.1508 9.01757 12.2792 8.94302 12.5013C8.7645 12.4333 8.5897 12.3666 8.3942 12.2925C8.37432 12.3683 8.3474 12.4694 8.30225 12.6421C7.38645 12.9043 6.63716 13.7828 5.51716 13.6051L5.1829 13.9389C5.25414 14.0185 5.32538 14.098 5.42355 14.2078C4.88675 14.6083 4.27828 14.9388 3.83964 15.4234C3.37367 15.9387 2.94249 16.4639 2.2632 16.9286C2.20604 17.0508 2.08799 17.3023 1.94757 17.6009C1.78893 17.692 1.57479 17.815 1.3826 17.9252C1.31923 18.6066 1.31923 18.6066 0.979586 19.015L0 18.0354V16.0609C0.0488757 16.0265 0.377337 15.911 0.388935 15.7685C0.437396 15.1873 1.03675 15.0113 1.20201 14.5346C1.37722 14.0284 1.8142 13.7265 2.15509 13.3471C2.61899 12.8297 3.07544 12.3045 3.51243 11.7636C4.4974 10.5458 6.53485 9.28374 8.39089 8.8567C8.82953 8.75605 9.24083 8.54273 9.67533 8.41806C10.0854 8.30042 10.5356 8.5709 10.9569 8.21096C11.1308 8.06267 11.538 8.18652 11.579 8.18652C11.9195 8.3609 12.0876 8.44705 12.2852 8.54812C12.1373 8.75315 12.0557 8.86664 11.9385 9.02983H13.3191C12.9512 8.90143 12.8204 8.85587 12.6058 8.7809C13.225 8.13226 13.8178 7.63977 14.7414 8.14386C14.8296 8.1919 14.9543 8.1832 15.0624 8.18486C16.4595 8.20474 17.6773 8.68066 18.8246 9.48131C19.2893 9.80522 19.904 10.0674 20.5237 9.98125C21.1313 9.89676 21.6619 10.19 22.2389 10.2186C23.9905 10.3052 25.5111 9.65528 26.9111 8.68977C27.6529 8.17782 28.3798 7.62652 29.0359 7.0106C30.1758 5.94072 31.5443 5.29498 32.987 4.81492C34.0241 4.46989 35.1321 4.34522 36.1929 4.08551C37.3046 3.8138 38.4018 4.0064 39.4949 3.88131C40.2036 3.80013 40.7628 4.12155 41.295 4.45208C42.4705 5.18066 43.5868 6.00368 44.7549 6.7451C45.2925 7.08599 45.9436 7.18291 46.5645 7.27155C47.7015 7.4335 48.7946 7.12948 49.8479 6.75794C50.6982 6.45889 51.5055 6.03474 52.326 5.65326C53.7024 5.01332 54.9587 4.17415 56.2427 3.36977C57.5359 2.5596 58.9226 1.85794 60.485 1.62226C60.9621 1.55019 61.4227 1.34723 61.8817 1.17989C62.8849 0.813323 63.9224 1.00758 64.919 0.949595" fill="black"/>
</svg>
