<svg width="62" height="35" viewBox="0 0 62 35" fill="none" xmlns="http://www.w3.org/2000/svg">
<path fill-rule="evenodd" clip-rule="evenodd" d="M45.503 5.61631C45.2574 5.26342 45.0677 4.9917 44.8846 4.72868C44.7401 4.92004 44.6266 5.07123 44.47 5.27874C44.347 5.02442 44.2733 4.87199 44.1884 4.69679C44.108 4.86868 44.0363 5.02111 43.9692 5.16442H43.6839C43.6482 4.96188 43.6122 4.75519 43.5695 4.5104H42.6069C42.2574 3.8456 41.8258 3.61158 41.6058 3.9301C41.6762 4.0175 41.7798 4.09371 41.8042 4.19022C41.8266 4.27886 41.764 4.38904 41.7114 4.59945C41.4339 4.38199 41.2322 4.17655 40.9899 4.05105C40.852 3.97981 40.6469 4.03779 40.3997 4.03779C40.5537 4.24655 40.6345 4.35673 40.7095 4.45862C40.2389 5.03105 40.2385 5.03229 39.7075 4.74111C39.5025 4.84259 39.2366 4.88898 39.1508 5.03892C39.0448 5.22531 39.0755 5.48294 38.7673 5.38146C38.66 5.20791 38.5623 5.04886 38.414 4.80738C38.0383 5.30111 37.738 5.69543 37.4377 6.09016C37.3275 5.99282 37.2497 5.92448 37.1391 5.82756C36.9991 6.05413 36.8694 6.26413 36.734 6.48448C36.4871 6.59921 36.2175 6.72513 35.9462 6.85105C36.0319 6.95957 36.0911 7.03413 36.1582 7.11821C35.6914 7.25697 35.2561 7.38578 34.8071 7.51915C34.89 7.61028 34.9616 7.68939 35.0014 7.73247C34.8021 8.23779 34.61 8.72448 34.378 9.31223C35.2607 9.00945 35.3766 8.13673 35.9727 7.71424C36.5683 7.29342 37.1005 6.78312 37.7202 6.26205V6.76862C37.3114 7.13685 37.0268 7.49099 36.6594 7.69602C36.2734 7.91223 36.1694 8.37779 35.7929 8.54803C35.3692 8.73981 35.3008 9.18259 35.0353 9.4804C34.595 9.97454 34.4476 10.7425 33.6983 10.9119C33.6204 11.546 33.4494 12.1147 32.9826 12.5799V13.4476C32.8314 13.5031 32.7009 13.5508 32.5663 13.6005C32.775 13.8871 32.9337 14.1534 32.6313 14.467C32.2059 14.9081 32.0593 15.4627 32.1094 16.0505C32.1479 16.5044 31.9495 16.8925 31.8808 17.3129C31.8294 17.6294 31.9508 17.9802 31.653 18.2403C31.6294 18.2606 31.6828 18.37 31.701 18.4375C31.8319 18.4839 31.9628 18.5303 32.092 18.5758C32.0121 18.7125 31.9127 18.8239 31.8816 18.9515C31.8464 19.0932 31.8563 19.2531 31.8783 19.4001C31.9007 19.5476 31.9905 19.6876 31.998 19.8334C32.0038 19.9601 31.8704 20.1171 31.911 20.214C32.1434 20.7765 32.2362 21.3622 32.3521 21.9553C32.4967 22.6971 32.8678 23.3835 33.3255 23.9054C34.1705 23.784 34.7769 23.345 35.5249 23.1971C36.3198 23.0401 37.0289 22.4905 37.803 22.1815C39.2697 21.5958 40.4469 20.4609 41.9832 20.0098C42.0991 19.9758 42.1729 19.7965 42.2661 19.6847C42.3443 19.5902 42.4044 19.4676 42.503 19.4055C43.8094 18.5783 44.9555 17.5652 46.0191 16.4473C46.594 15.8434 47.0368 15.1558 47.4701 14.4521C47.7103 14.0619 47.813 13.5789 48.105 13.2542C48.6261 12.6755 48.6684 11.9499 48.7885 11.2797C48.9194 10.5507 48.8759 9.77448 48.8021 9.02933C48.7259 8.25685 48.4024 7.54028 47.9435 6.91069C47.8081 6.72472 47.5036 6.66921 47.34 6.49442C47.1768 6.32004 47.0936 6.07152 46.9585 5.82466C46.8397 5.92199 46.7634 5.98413 46.6736 6.05744C46.524 5.91578 46.3671 5.7675 46.2076 5.61631H45.503ZM35.8567 2.26708C35.9267 2.60673 36.3765 2.88217 36.0737 3.34691C35.9959 3.28395 35.9205 3.22265 35.8463 3.16259C35.6707 3.56271 35.3191 3.72507 34.9707 3.82904C34.5275 4.30205 34.1233 4.77424 33.6755 5.20004C33.2062 5.64697 32.6951 6.0504 32.1889 6.48365C32.1446 6.44389 32.0663 6.3743 31.9056 6.23223C31.9487 7.04241 31.4803 7.53324 30.9998 7.95821C31.1137 8.18022 31.2098 8.36744 31.3063 8.55507C31.3813 8.55549 31.4562 8.55549 31.5751 8.55549C31.6128 8.35874 31.6521 8.15288 31.7027 7.88862C32.2445 7.97063 32.5356 7.61773 32.8181 7.19608C32.7258 7.06436 32.6479 6.95377 32.5597 6.82868C33.1478 6.69448 33.5997 6.43063 33.987 5.91412C34.7616 4.88111 35.8339 4.14673 36.8997 3.43223C37.0778 3.31253 37.3321 3.30797 37.7579 3.19572C37.3516 2.96087 37.1382 2.83702 36.9506 2.7285C36.8288 2.89294 36.7191 3.0404 36.5538 3.26365C36.3964 2.82294 36.2817 2.50069 36.1669 2.17803C36.5588 1.9701 36.9502 1.76217 37.3611 1.5443C37.4373 1.60395 37.5218 1.67063 37.6158 1.74478C38.4355 1.17815 39.4503 1.19844 40.4266 0.965249C40.5372 1.02158 40.724 1.11768 40.9108 1.21336V1.72075C41.0309 1.74063 41.1593 1.76217 41.4269 1.80691C41.3184 1.52276 41.2517 1.34756 41.1829 1.16779C41.2442 1.10608 41.3242 1.02655 41.4012 0.949096C41.9595 0.930042 42.0395 1.4743 42.4172 1.81105C42.4574 1.57495 42.4893 1.38773 42.5336 1.1272C43.186 0.994658 43.6847 1.50371 44.2716 1.59649C44.2952 1.82057 44.3143 1.99868 44.3574 2.40046C44.5297 2.06785 44.6262 1.88146 44.6659 1.80401H45.6563C45.5734 1.94898 45.5171 2.0488 45.3945 2.26294C45.6352 2.20454 45.7876 2.16685 46.0813 2.09519C45.9814 2.07075 46.039 2.07282 46.0846 2.09768C46.8525 2.51726 47.644 2.89957 48.3792 3.36969C49.3754 4.00714 50.2804 4.78377 51.0181 5.70247C51.6423 6.47992 52.1129 7.37833 52.7855 8.12927C52.921 8.28087 52.9814 8.49915 53.0821 8.69797C53.0576 8.72282 53.0042 8.77584 52.8824 8.8972C53.271 9.05667 53.4723 9.37436 53.558 9.74507C53.8504 11.0105 53.843 11.0121 53.6143 11.5087C53.7879 11.9523 53.9374 12.3347 54.0853 12.712C53.8513 12.8288 53.7013 12.9038 53.4938 13.0077C53.604 13.1817 53.6963 13.3279 53.7369 13.3921C53.5688 14.2971 53.4134 15.1326 53.2556 15.9821C53.0908 16.0003 52.9131 16.0198 52.6762 16.0463C52.7226 16.8047 52.2048 17.2769 51.6258 17.8282C51.8714 17.9649 52.035 18.0564 52.2566 18.1799C52.1435 18.3605 52.0333 18.5357 51.8672 18.8012C51.7993 18.6011 51.7604 18.4868 51.7069 18.329C51.5189 18.4073 51.2472 18.4358 51.1242 18.5862C50.7182 19.0824 50.3529 19.6138 50.0033 20.1519C49.9143 20.2886 49.942 20.5006 49.9358 20.5458C49.5349 20.9016 49.0917 21.1286 48.9127 21.4873C48.4248 22.4668 47.4862 22.8761 46.6781 23.4551C46.454 23.6158 46.1989 23.7331 45.9462 23.8772C45.9102 23.7774 45.863 23.6465 45.8129 23.5069C45.7603 23.5313 45.6621 23.5579 45.6633 23.579C45.6824 23.8929 45.6762 24.1899 45.2036 24.361H44.5462C44.313 24.6443 44.0293 24.9889 43.7476 25.3315C43.4763 25.2524 43.2763 25.1944 43.0448 25.1268C42.6774 25.9097 41.8357 26.087 41.076 26.4196C40.9911 26.3516 40.9071 26.2841 40.7998 26.198C40.5749 26.4117 40.3404 26.6341 40.101 26.8615H39.2088C39.0133 27.2645 38.7876 27.5988 38.262 27.3594C37.8834 27.6158 37.5048 27.8726 37.1532 28.1116C37.8424 28.5022 38.5925 28.9267 39.3646 29.3641C39.4503 29.3028 39.5365 29.2411 39.628 29.1757C39.9005 29.2622 40.1834 29.3521 40.4626 29.4408V29.6872C40.5194 29.7054 40.6105 29.7497 40.6204 29.7352C40.8151 29.4623 41.1046 29.5571 41.3445 29.5795C41.6563 29.6081 41.9579 29.7348 42.269 29.7887C42.5552 29.8384 42.8803 29.7775 43.1301 29.8918C43.473 30.0492 43.6859 29.741 44.0024 29.7526C44.3549 29.7659 44.6717 30.0115 45.0768 29.8429C45.3978 29.7096 45.8129 29.7903 46.1856 29.7957C47.3471 29.8127 48.4451 29.4983 49.5465 29.1835C50.222 28.9909 50.9262 28.8861 51.5864 28.6525C52.6347 28.2822 53.6831 27.8896 54.6788 27.4004C55.1465 27.1705 55.7545 27.2099 56.0896 26.707C56.1927 26.5521 56.5709 26.7128 56.5216 26.328C56.5133 26.2642 56.8062 26.1806 56.9342 26.0758C57.1081 25.9329 57.2473 25.749 57.4192 25.6032C57.7414 25.3281 58.0765 25.068 58.4874 24.7367V25.6231C58.05 25.8691 58.05 25.8691 57.64 26.8147H58.2C58.4439 26.1607 59.1236 25.8293 59.5329 25.2523C59.629 25.3542 59.7056 25.4358 59.8369 25.5758C59.7279 25.7987 59.602 26.0563 59.4463 26.3744C59.5734 26.3674 59.7524 26.4105 59.8178 26.3429C60.0038 26.152 60.143 25.9159 60.4056 25.5526C60.4971 25.8753 60.5481 26.0555 60.6106 26.2746C60.7958 26.4001 61.0256 26.5558 61.3678 26.7874C60.9842 26.939 60.6972 27.0525 60.4085 27.1664C60.4661 27.3565 60.5332 27.5777 60.6152 27.8477C60.3559 28.0358 60.1098 28.2135 59.7756 28.455C60.0084 28.5846 60.1728 28.677 60.3488 28.7751C60.1542 28.9603 59.9653 29.1409 59.7843 29.3132C59.6463 29.2357 59.4989 29.1533 59.1849 28.9773C59.2715 29.3215 59.3166 29.5004 59.3585 29.6661C59.2603 29.7332 59.1245 29.826 59.0118 29.903C59.0068 29.8777 58.9853 29.775 58.9468 29.5878C58.5694 29.8405 58.212 30.0807 57.8433 30.328C57.9349 30.4286 58.0061 30.5077 57.9788 30.4771C57.804 30.7194 57.6313 30.9592 57.4291 31.2388C57.2697 31.1063 57.1636 31.0184 57.058 30.9306C56.9354 31.1452 56.8124 31.3589 56.6865 31.5784H56.0705C55.4774 31.9699 54.9667 32.365 54.4038 32.6603C53.9014 32.9246 53.2308 32.7225 52.73 33.2145C52.583 33.0584 52.431 32.8973 52.2682 32.7241C52.1091 32.7353 51.9335 32.7477 51.5881 32.7722C51.907 32.9213 52.0578 32.9913 52.2587 33.0849C51.5276 33.4469 50.9535 34.1912 50.0153 33.6801C49.9018 33.7936 49.7685 33.927 49.6223 34.0728C49.5465 34.0086 49.4694 33.9435 49.3373 33.8313C48.8929 34.151 48.3917 34.2177 47.8739 33.8251C47.6801 33.9966 47.4929 34.1622 47.2808 34.3499C47.0799 34.2873 46.8803 34.2248 46.6334 34.1481C46.5808 34.1784 46.4611 34.3035 46.3497 34.2968C46.2262 34.2898 46.1181 34.1225 45.9885 34.096C45.8083 34.0583 45.614 34.0864 45.426 34.0864C45.2752 34.0864 45.1174 34.1146 44.9762 34.0781C44.8453 34.0446 44.7318 33.9419 44.55 33.8334C43.9353 34.5346 43.36 33.6399 42.5237 33.893C42.8219 33.4755 42.9793 33.2555 43.1363 33.036C42.9329 32.8467 42.4852 33.0998 42.0962 33.6391C42.0685 33.5074 42.0465 33.4047 42.0196 33.2787C41.6675 32.942 41.385 33.3906 41.0462 33.4154C40.8868 33.2651 40.7265 33.1139 40.5695 32.9656C40.4908 33.0348 40.4125 33.1035 40.3065 33.1971C40.2713 33.07 40.2435 32.9689 40.1959 32.7958C39.4503 32.5783 38.648 32.3497 37.8598 32.0817C37.4721 31.9492 37.3574 31.7354 37.2683 31.5031C36.9568 31.4973 36.6006 31.6008 36.4026 31.4687C35.3042 30.7347 34.2467 29.9399 33.1685 29.1748C33 29.0551 32.7929 28.9913 32.611 28.8882C32.3944 28.7652 32.1856 28.6277 31.9471 28.4798C31.9205 28.5631 31.8808 28.6861 31.8141 28.894C31.2384 28.8261 30.6175 29.0638 30.0442 28.6612C29.7974 28.7896 29.5488 28.9189 29.2804 29.0589C28.6148 28.5908 27.7247 29.1897 27.0674 28.7341C26.8151 28.8062 26.5836 28.8725 26.3292 28.9454C26.2679 28.7664 26.2228 28.6351 26.1747 28.4947C25.7465 28.7445 25.3695 28.6273 24.9118 28.4757C24.4798 28.3332 23.9865 28.3792 23.6382 27.9968C23.5847 28.0428 23.5313 28.0884 23.4203 28.1841C23.3462 28.1298 23.2563 28.0627 23.1121 27.9563C23.0078 28.0076 22.8831 28.0693 22.7783 28.1211C22.2846 28.0018 21.7755 27.9132 21.2897 27.7537C20.2968 27.4281 19.2207 27.3668 18.3103 26.76C18.0038 26.5558 17.5908 26.497 17.2181 26.4084C15.0315 25.8881 13.1432 24.7545 11.2842 23.5541C10.233 22.8748 9.277 22.0879 8.43451 21.1596C8.15948 20.8564 7.88652 20.5102 7.53735 20.3263C7.1567 20.1258 7.0983 19.7207 6.78558 19.4792C5.93978 18.8256 5.44191 17.8609 4.79368 17.0329C4.16368 16.2281 3.62564 15.3447 3.11078 14.4591C2.56777 13.5242 1.97919 12.5865 1.63416 11.5738C1.30859 10.619 0.790429 9.71732 0.686879 8.68555C0.674453 8.56004 0.482264 8.44738 0.479778 8.32643C0.465696 7.63803 0.108654 7.03123 0.0287133 6.36685C-0.0288607 5.8843 0.0179441 5.38933 0.0179441 4.81566C0.192737 4.66448 0.41392 4.47353 0.683151 4.24034C1.02984 4.3414 1.43203 4.45862 1.79859 4.5659C1.83173 4.7146 1.85493 4.81691 1.87978 4.92708H2.3238C2.53339 5.19797 2.76783 5.42702 2.90824 5.7033C3.04783 5.97915 3.16753 6.30306 3.16753 6.60584C3.16712 7.71383 3.79836 8.61058 4.14215 9.5972C4.39191 10.3142 4.74439 11.0005 5.00368 11.7241C5.14286 12.1135 5.43238 12.451 5.66723 12.8035C6.19741 13.5984 6.63978 14.4483 7.22546 15.2092C7.54895 15.6292 7.77552 16.1275 8.11806 16.5284C8.86238 17.3987 9.61913 18.2644 10.4326 19.0696C12.1474 20.7678 14.2209 21.9462 16.3776 22.9767C16.844 23.1996 17.3866 23.2729 17.9011 23.3847C18.5878 23.5342 19.1814 23.96 19.8938 24.0292C20.9231 24.1294 21.8774 24.6112 22.9332 24.6095C23.3159 24.6091 23.6974 24.7574 24.0826 24.8208C24.4678 24.8845 24.8737 24.7035 25.2503 25.0266C25.3782 25.1372 25.7398 25.0154 25.9801 24.9483C26.6747 24.7549 27.1821 24.7702 27.8668 25.0494C27.9832 24.9694 28.0995 24.8895 28.264 24.7764C28.3717 24.8638 28.4839 24.9467 28.5862 25.0407C28.6678 25.1157 28.7374 25.2039 28.7842 25.2548C28.971 25.0548 29.1462 24.8671 29.3819 24.6137C29.1868 24.2048 28.9308 23.7132 28.7155 23.205C28.4984 22.6926 28.3468 22.1521 28.1194 21.6447C27.9061 21.1687 27.7342 20.6953 27.6187 20.0036C27.6472 20.0326 27.5143 19.8988 27.3552 19.7402C27.3552 19.3181 27.3734 18.8687 27.3486 18.4222C27.3312 18.1057 27.477 17.7624 27.156 17.4778C27.0607 17.3937 27.062 17.0802 27.1411 16.9414C27.4985 16.3147 27.2935 15.6429 27.3577 14.9955C27.4149 14.421 27.4998 13.8502 28.0374 13.4269C28.0018 12.9477 28.0544 12.4622 28.3029 11.9979C28.4649 11.6955 28.4375 11.2532 28.655 11.0279C28.9366 10.7358 28.8302 10.3974 28.9582 10.1266C29.2291 9.55247 29.3115 8.80939 30.1672 8.62424C30.0202 8.4304 29.9357 8.31939 29.8367 8.18933C30.0011 8.07087 30.1722 7.94785 30.5077 7.70637C30.5578 7.57756 30.6821 7.25697 30.8751 6.7591C31.2649 6.29975 31.6956 5.55915 32.3314 5.11016C32.9569 4.66862 33.3678 4.05519 33.9373 3.59667C34.5424 3.10957 35.2147 2.70655 35.8567 2.26708V2.26708Z" fill="black"/>
</svg>
