<svg width="56" height="34" viewBox="0 0 56 34" fill="none" xmlns="http://www.w3.org/2000/svg">
<path fill-rule="evenodd" clip-rule="evenodd" d="M4.27787 25.4142C4.66473 25.1512 4.98036 24.9756 5.25083 24.7461C6.36959 23.7951 7.61509 23.0284 8.83201 22.217C9.94621 21.4743 11.1064 20.8232 12.267 20.1597C13.3315 19.5512 14.3782 18.9022 15.487 18.3799C16.2736 18.0087 17.0249 17.5668 17.8372 17.2425C18.4183 17.0109 18.9224 16.5454 19.5147 16.395C20.8786 16.0483 22.1018 15.3612 23.4148 14.8939C25.2166 14.2523 26.9918 13.5258 28.8243 12.9696C30.7296 12.3917 32.6101 11.7274 34.6769 11.2933C34.2234 11.1454 33.8953 10.957 33.5598 10.9437C32.5836 10.9068 31.6835 10.4363 30.6998 10.4769C30.2562 10.1004 29.6792 10.399 29.2285 10.2126C28.2572 9.81044 27.2109 9.83074 26.2214 9.56689C25.6552 9.41612 25.0948 9.29145 24.5066 9.34737C24.3041 9.0305 23.9802 9.15849 23.6981 9.11417C23.4235 9.07151 23.1617 8.94103 22.8867 8.90127C22.243 8.80725 21.5728 8.82464 20.954 8.65151C19.8912 8.35411 18.8027 8.21328 17.7344 7.97056C17.2747 7.86577 16.7834 7.87737 16.3684 7.73074C15.4949 7.42216 14.5509 7.4934 13.6906 7.11192C13.324 6.94997 12.8585 7.09784 12.4277 6.88742C12.028 6.69275 11.526 6.67287 11.0654 6.64677C10.6296 6.62275 10.2229 6.53742 9.8 6.42849C8.97533 6.21559 8.1055 6.17044 7.28828 5.93849C6.64544 5.75666 6.07675 5.62204 5.42396 5.92896C5.20941 6.03003 4.83414 5.78855 4.56201 5.71234C4.50154 5.53257 4.45888 5.40417 4.42491 5.30393C4.20953 5.41535 4.02479 5.51021 3.83799 5.6063C3.79036 5.97328 3.88852 6.29595 4.02769 6.6447C4.14491 6.93671 4.05172 7.3124 4.05172 7.6508V8.77991C4.54213 8.9808 4.09811 9.3047 4.14947 9.56689C4.21905 9.92062 4.27041 10.2847 4.27207 10.6442C4.28367 12.7894 4.27787 14.9341 4.27787 17.0793V25.4142ZM6.72787 30.1987C6.88527 30.3718 6.93373 30.4252 7.04391 30.5462C6.57379 30.7603 6.13018 30.9629 5.67828 31.1696C5.71018 31.2085 5.77314 31.2851 5.88124 31.4156C5.48692 31.7896 5.04953 32.1442 4.68834 32.5638C4.34497 32.963 3.86491 33.2008 3.55385 33.6456C3.42006 33.8366 3.06633 33.9132 2.79876 33.9617C2.50757 34.0143 2.19982 33.9733 1.75994 33.9733C1.86722 33.8151 1.92769 33.7256 1.99521 33.6254C1.93929 33.5636 1.86722 33.4845 1.76325 33.3706C1.85355 33.173 1.95296 32.9556 2.04657 32.7501C1.62905 32.4184 1.33953 32.7887 0.97213 32.8984C0.924497 32.6474 0.886391 32.4424 0.856154 32.2846C0.619645 32.1355 0.410473 32.0033 0.218698 31.8824C0.233609 31.5187 0.0911243 31.1633 0.434083 30.9206C0.106036 30.6249 0.180592 30.2869 0.302781 29.922C0.513195 29.2924 0.739763 28.6628 0.876036 28.0154C1.00982 27.3813 0.956805 26.7012 1.13408 26.084C1.4058 25.1367 1.16473 24.1513 1.37929 23.2442C1.64189 22.1313 1.42941 21.0303 1.57728 19.9414C1.93101 17.3414 1.75166 14.7316 1.77651 12.1262C1.77941 11.8131 2.16047 11.4979 1.79266 11.1839C2.02213 10.831 2.03456 10.438 2.0213 10.0349C2.00846 9.65885 2.0184 9.28192 2.0184 8.90541C2.0184 8.52849 2.00183 8.15115 2.02751 7.7763C2.03663 7.65038 2.15343 7.53234 2.20976 7.43127C1.74669 6.66376 2.14391 5.89666 2.25905 5.14861C1.9484 5.05251 1.68663 4.97133 1.43189 4.89222C1.31095 4.46062 1.24675 4.11559 1.63195 3.70719C1.36645 3.76352 1.18959 3.80121 0.925325 3.85754C0.880592 3.82027 0.756746 3.71837 0.632899 3.61606C0.752604 3.49677 0.805621 3.44334 0.854497 3.39447C0.560828 3.16748 0.26426 2.9376 0 2.73382C0.140828 2.46914 0.256391 2.25086 0.381893 2.01476C0.325148 1.90044 0.253077 1.75547 0.162781 1.57281C0.381065 1.3947 0.583195 1.22902 0.926154 0.948608C1.47704 0.993756 2.20686 1.05133 2.93544 1.1176C3.03692 1.12671 3.13219 1.20169 3.23367 1.21038C4.14325 1.29157 5.05491 1.35163 5.96284 1.44565C6.3497 1.48541 6.72746 1.60346 7.11349 1.66186C7.49994 1.72109 7.93485 1.52973 8.26166 1.89174C8.93473 1.73973 9.54485 2.1589 10.2009 2.11086C10.6143 2.08021 10.9738 2.21482 11.3533 2.33411C11.7248 2.45092 12.1647 2.18086 12.5172 2.54121C12.5925 2.61867 12.803 2.56358 12.9508 2.56938C13.382 2.58677 13.7975 2.54618 14.2253 2.77234C14.5861 2.9637 15.0417 2.7363 15.4978 2.97861C15.895 3.19027 16.4645 3.05606 16.9723 3.21636C17.6164 3.41932 18.333 3.38577 19.0147 3.47814C19.3639 3.52494 19.7052 3.62683 20.0515 3.69808C20.4338 3.77719 20.8169 3.85257 21.2005 3.92382C21.5484 3.98843 21.8793 3.93458 22.2563 4.10689C22.7885 4.35003 23.4529 4.33802 24.0638 4.36535C24.5737 4.38772 25.0178 4.77293 25.5508 4.60269C26.4592 5.05169 27.532 4.80109 28.4328 5.28074C29.5719 5.18092 30.6331 5.64151 31.7415 5.78151C32.6275 5.89334 33.5457 6.05902 34.4214 6.36387C34.988 6.56062 35.6317 6.52127 36.2289 6.64512C36.8167 6.76689 37.4251 6.79299 37.9909 7.02287C38.4221 7.19766 38.9511 6.93009 39.3383 7.31405C40.5056 7.2805 41.6011 7.78417 42.7663 7.76595C43.2849 8.10725 43.9612 7.80405 44.4338 8.09027C44.945 8.39885 45.5721 7.9163 45.9933 8.43902C46.0227 8.47547 46.1387 8.43447 46.2128 8.44482C46.8155 8.5289 47.4571 8.24435 48.0266 8.63784C48.4822 8.22529 49.0924 8.65109 49.5115 8.415C49.987 8.14701 50.4414 8.27458 50.9024 8.21825C51.549 8.13997 52.1943 8.03311 52.8425 8.0008C53.5595 7.96435 54.1912 8.20334 54.7127 8.8495C54.3391 9.06985 53.9762 9.28441 53.5856 9.51512C53.9497 9.6489 54.3767 9.53127 54.7831 9.58346C55.1907 10.0668 55.1869 10.0677 54.8887 10.5929C55.0221 10.7258 55.155 10.8592 55.3505 11.0547C55.3145 11.4577 55.2731 11.9171 55.2267 12.4328C55.0428 12.784 54.8175 13.2131 54.5809 13.6638C53.7053 13.4741 52.9221 13.9616 52.0601 13.882C51.2388 13.8067 50.3693 13.7164 49.5853 13.9023C48.5137 14.1562 47.3647 14.0129 46.3557 14.5435C45.2966 14.4955 44.3034 14.8914 43.2733 15.0406C42.1715 15.2 41.0705 15.5028 39.9754 15.7712C39.1184 15.9808 38.2813 16.2587 37.3928 16.3772C36.6419 16.477 35.9228 16.8125 35.1843 17.0258C34.5435 17.2106 33.8448 17.2702 33.2649 17.5676C32.6838 17.865 32.0546 17.9557 31.4636 18.1222C29.7442 18.606 28.1073 19.3064 26.4161 19.8569C24.7253 20.4074 23.1265 21.1865 21.4796 21.8475C19.5341 22.6283 17.6938 23.6282 15.842 24.5929C14.442 25.3219 13.083 26.1465 11.7617 27.0292C10.5174 27.8613 9.21556 28.6023 8.07775 29.5902C7.87935 29.7625 7.56538 29.7981 7.31024 29.9091C7.11722 29.9928 6.9329 30.0955 6.72787 30.1987V30.1987Z" fill="black"/>
</svg>
