<svg width="60" height="66" viewBox="0 0 60 66" fill="none" xmlns="http://www.w3.org/2000/svg">
<path fill-rule="evenodd" clip-rule="evenodd" d="M42.0609 4.92876C41.9333 5.05675 41.8269 5.16278 41.6922 5.2974C40.9985 5.21994 40.2819 5.10894 39.5612 5.06834C38.8483 5.02858 38.1309 5.05965 37.4156 5.05965C36.8511 5.05965 36.2335 4.91592 35.7356 5.09817C35.1822 5.30113 34.5779 5.09071 34.1422 5.32515C33.636 5.59769 33.0263 5.28746 32.6138 5.73769C31.7585 5.65361 31.0485 6.1813 30.2586 6.30556C29.3702 6.44515 28.5733 6.79142 27.7577 7.10207C26.8154 7.46118 25.8424 7.73373 24.9391 8.2084C24.2954 8.54639 23.6012 8.80361 22.9335 9.08941C21.7456 9.59805 20.7237 10.3345 19.6853 11.0556C19.1166 11.4499 18.6229 11.9511 18.094 12.4022C17.594 12.8296 17.0353 13.2041 16.6008 13.6895C15.0645 15.4076 13.4342 17.0603 12.4376 19.1889C11.7525 19.8036 11.4767 20.685 11.1325 21.4728C10.7883 22.2606 10.2767 23.0091 10.1869 23.9037C9.43302 25.1451 9.13438 26.565 8.72183 27.9236C8.39669 28.9934 7.91497 30.0517 7.92781 31.2131C7.51817 31.5515 7.75178 32.085 7.52893 32.5199C7.30278 32.9615 7.15988 33.5265 7.23899 34.096C7.31396 34.6365 6.92627 35.1215 7.00746 35.6977C7.07663 36.1918 7 36.6851 6.83142 37.1938C6.66781 37.6859 6.8513 38.2686 6.59284 38.7934C6.5303 38.9202 6.76101 39.1683 6.78503 39.3692C6.8016 39.5083 6.60485 39.7275 6.65704 39.7991C6.96231 40.217 6.70467 40.6739 6.79911 41.021C6.64959 41.301 6.5332 41.518 6.36462 41.8333C6.50006 41.9053 6.68728 42.0056 6.85586 42.0954C6.85586 43.5853 6.8542 44.9675 6.86249 46.3493C6.8629 46.4027 6.96231 46.4557 7.01698 46.5104C6.94408 46.5904 6.87118 46.6707 6.79828 46.7511C6.98426 47.4718 7.26675 48.1656 7.26385 48.9356C7.26219 49.356 7.3732 49.7838 7.48172 50.196C7.70663 51.0484 7.88763 51.917 8.04669 52.7769C8.22645 53.7469 8.73799 54.536 9.13894 55.3805C9.53408 56.2143 10.0788 56.9475 10.9308 57.4578C12.1063 58.1615 13.2565 58.9137 14.4979 59.4907C15.091 59.7661 15.7421 59.9703 16.3344 60.2321C16.9549 60.5059 17.616 60.6247 18.2365 60.8074C18.7886 60.9693 19.4364 61.0286 20.0469 61.0833C20.5493 61.1284 21.0398 61.0928 21.5443 61.2899C21.9953 61.466 22.5719 61.1603 23.0238 61.5393C23.0457 61.5579 23.0971 61.5418 23.1348 61.5418C24.9896 61.5289 26.8427 62.0268 28.683 61.734C29.9273 61.5364 31.2374 61.5219 32.3976 60.9072C34.1944 60.6815 35.7489 59.6969 37.4852 59.2823C37.9607 58.8317 38.6334 58.7811 39.1739 58.4456C39.7028 58.1172 40.3159 57.9279 40.8651 57.6284C42.8065 56.5701 44.7573 55.5288 46.6113 54.3177C46.9725 54.0816 47.2289 53.7395 47.6377 53.5328C48.1447 53.2764 48.5734 52.8415 48.9884 52.4352C49.3761 52.0549 49.7866 51.7041 50.0562 51.1901C50.3213 50.6839 50.8275 50.336 51.1828 49.8572C52.0117 48.7405 52.8894 47.6478 53.4382 46.3758C53.7795 45.5855 54.1063 44.7683 54.397 43.9469C54.6775 43.1541 54.7748 42.3179 55.1082 41.5338C55.3667 40.9274 55.3033 40.1822 55.3708 39.4976C55.4533 38.6634 55.5535 37.8296 55.5904 36.9933C55.628 36.1289 55.65 35.2578 55.5841 34.3971C55.5187 33.5451 55.3973 32.6968 55.2027 31.8543C55.0917 31.3759 54.9662 30.8747 54.938 30.3839C54.8945 29.6151 54.5789 28.9516 54.2927 28.2727C53.7244 26.9237 52.8993 25.7482 52.0204 24.5706C51.0499 23.2704 49.6561 22.476 48.621 21.276C48.1886 20.7753 47.5689 20.4108 46.9816 20.0778C46.5347 19.8238 45.9937 19.7721 45.5108 19.5409C44.9185 19.2576 44.2491 19.1367 43.6141 18.9416C43.5487 18.9217 43.4936 18.8513 43.4298 18.8451C42.6333 18.7639 41.8364 18.6831 41.0386 18.6194C40.7392 18.5953 40.431 18.5808 40.1369 18.626C39.8901 18.6641 39.6718 18.2578 39.4266 18.5974C39.0298 18.2921 38.6649 18.7457 38.2453 18.6376C37.8766 18.5427 37.486 18.6674 37.0896 18.8066C36.6365 18.9656 36.0877 18.79 35.6101 19.0601C35.3144 19.2274 34.9785 19.3235 34.6409 19.4598C34.5473 19.3662 34.4143 19.2328 34.2764 19.0953C34.23 19.1301 34.1397 19.1682 34.1422 19.2001C34.1675 19.5637 34.0519 19.799 33.6973 19.9829C33.0727 20.3072 32.4862 20.7049 31.8479 21.0934C31.7394 21.0312 31.5886 20.9455 31.3132 20.7881C31.2693 20.9625 31.2192 21.1609 31.1819 21.3096C31.1285 21.2835 31.2726 21.3535 31.452 21.4401C30.904 21.9781 30.3609 22.4942 29.8378 23.0294C28.5998 24.296 27.5651 25.715 26.7226 27.2724C26.2906 28.0714 25.8267 28.8576 25.4551 29.6843C24.9991 30.6983 24.5302 31.7073 24.1765 32.7697C23.9226 33.5318 23.6443 34.2824 23.4061 35.0515C23.2582 35.5291 23.3444 36.0166 23.1124 36.5095C22.8353 37.0985 23.0002 37.8793 22.8167 38.5329C22.6025 39.2963 22.6373 40.0522 22.603 40.8172C22.5926 41.0525 22.4625 41.2824 22.3843 41.5243C22.4538 41.6025 22.5272 41.6846 22.6013 41.7678C22.5574 41.8175 22.5102 41.8705 22.4725 41.9136C22.5201 42.2201 22.6059 42.5175 22.6059 42.8153C22.6054 43.6872 22.8337 44.5107 23.0619 45.3395C23.4214 46.6425 24.3231 47.4966 25.5053 47.9614C26.8916 48.506 28.3575 48.7624 29.8581 48.9467C31.0817 49.0967 32.2886 49.0196 33.4853 49.1311C34.0469 48.7322 34.7134 48.5897 35.2887 48.243C35.4817 48.1266 35.7311 48.0612 35.9307 47.8934C36.7641 47.1901 37.6757 46.5904 38.4843 45.844C38.8459 45.5101 39.2683 45.2007 39.637 44.8515C40.7967 43.7543 41.5208 42.3858 42.0393 40.8984C42.2121 40.4038 42.2469 39.8323 42.5202 39.4094C42.8371 38.9189 42.5082 38.3018 42.9469 37.8855C43.0218 36.9759 43.1821 36.0622 43.1436 35.1567C43.1167 34.516 42.8856 33.8798 42.9427 33.2158C42.9556 33.0696 42.176 31.2831 42.0029 31.1266C41.6268 30.7861 41.2188 30.4812 40.8245 30.1615C40.4335 30.3736 40.1208 29.8454 39.6473 30.1031C39.2567 30.3156 38.6644 30.3541 38.2283 30.2323C37.7354 30.0948 38.0713 30.4891 37.9056 30.5678C36.5669 31.2036 35.7124 32.4586 34.5071 33.2713C34.4483 33.3107 34.4089 33.3794 34.4694 33.3107C34.3302 33.7944 34.3244 34.2086 34.1182 34.4567C33.5147 35.1837 33.3801 36.1206 32.9174 36.9047C32.8155 37.0778 32.8105 37.3143 32.7824 37.5239C32.7211 37.9849 32.9265 38.4803 32.5649 38.9078C32.4904 38.9956 32.5251 39.2068 32.5595 39.3489C32.6573 39.7507 32.7811 40.1458 32.9153 40.6159C34.3891 39.6131 34.93 37.9476 35.9953 36.7108H36.8188C36.6568 37.0679 36.5098 37.3918 36.2675 37.9249C36.6125 37.7774 36.7798 37.7463 36.8917 37.6502C37.1472 37.4295 37.3759 37.1768 37.6285 36.9241C37.9636 37.1482 38.1434 37.5247 38.4565 37.7869C38.7489 38.0309 38.8438 38.5118 39.118 39.0801C39.1288 39.9225 38.4184 40.7621 38.2022 41.7558C37.7946 42.0246 37.3349 42.1837 37.2644 42.8265C37.2226 43.2076 36.8428 43.5514 36.6709 43.8227C36.1871 44.038 35.7957 43.8442 35.3906 44.0865C34.8231 44.4262 34.2163 43.8206 33.5938 43.9192C32.7153 43.3376 31.6694 43.114 30.7727 42.5308C30.0983 42.0921 29.6779 41.4932 29.2248 40.9038C28.9108 40.4954 28.7613 39.9648 28.4834 39.5237C28.2083 39.0879 28.2083 38.571 28.0849 38.1129C27.896 37.4104 27.9151 36.5953 28.0642 35.8729C28.2759 34.8523 28.4618 33.8118 28.9299 32.8484C29.5139 31.646 30.2537 30.5599 31.1765 29.6036C32.0405 28.708 32.9099 27.827 34.0088 27.1842C34.7208 26.7679 35.5161 26.6366 36.2443 26.3011C36.5851 26.1437 36.8999 26.5405 37.3129 26.3268C37.6099 26.1736 38.0535 26.2676 38.4263 26.3049C38.8127 26.3442 39.3317 26.3181 39.5475 26.5492C40.0296 27.0657 40.8701 26.7712 41.2395 27.4141C41.9594 27.4153 42.403 27.948 42.8818 28.3436C44.105 29.3546 45.382 30.3388 45.9622 31.9115C46.0467 32.1405 46.1225 32.3721 46.2017 32.5999C46.3056 32.6231 46.4083 32.6459 46.5007 32.6666C46.668 33.2928 46.8304 33.9021 46.9973 34.5267C46.9692 34.5632 46.9244 34.6199 46.8428 34.7243C46.9799 34.9418 47.132 35.1833 47.3266 35.4922C47.0247 35.5399 46.8176 35.573 46.591 35.6091C46.584 35.7221 46.5778 35.824 46.5691 35.9694H47.0736C47.1469 36.0369 47.1742 36.0622 47.2015 36.087C46.8884 36.3733 47.395 36.6342 47.2355 36.898C46.8619 37.516 47.0914 38.1945 47.0052 38.839C46.9398 39.3269 46.8358 39.8178 46.6776 40.2829C46.5773 40.5782 46.3458 40.8284 46.1751 41.096C46.6403 41.7823 45.7692 42.4562 46.065 43.1968C45.9813 43.2142 45.8786 43.2357 45.7638 43.2598C45.5398 43.7481 45.307 44.2551 44.9769 44.9737V45.7301C44.7259 46.3348 44.4392 46.7846 43.8598 46.9495V47.4478C43.2389 48.057 42.6408 48.7475 41.93 49.2897C41.6479 49.5051 41.3717 49.7395 41.0863 49.9562C40.8307 50.1508 40.5304 50.2975 40.3088 50.5232C39.5686 51.2762 38.6309 51.7248 37.7143 52.1788C36.4302 52.815 34.5957 53.0975 33.1825 52.9434C32.6676 52.8875 32.1685 52.6841 31.6023 52.5321C31.4793 52.5797 31.2573 52.7582 31.0941 52.7147C29.3002 52.2384 27.4545 52.0164 25.7115 51.2613C24.413 50.6984 23.1543 50.08 22.0322 49.2657C21.2141 48.6725 20.4868 47.9009 19.9177 47.0062C19.2562 45.9662 18.5873 44.9423 18.2505 43.7407C18.2228 43.6425 18.1155 43.5625 18.0998 43.4656C18.0132 42.9338 17.8902 42.4007 17.879 41.866C17.8488 40.398 17.8015 38.9251 17.8943 37.4626C17.9482 36.6209 18.1317 35.7706 18.2741 34.9298C18.4117 34.12 18.6018 33.3272 18.755 32.5241C18.9278 31.6186 19.2761 30.7782 19.5735 29.9212C19.8125 29.2337 20.0258 28.5059 20.3824 27.8904C20.9975 26.828 21.4034 25.6707 22.0686 24.6211C22.7061 23.615 23.3009 22.5712 23.9731 21.5809C24.3153 21.076 24.6537 20.5537 25.0786 20.1229C26.1208 19.0663 27.0888 17.9202 28.333 17.0839C29.4095 16.3607 30.4616 15.6359 31.7249 15.1815C32.9824 14.7296 34.2217 14.3953 35.5455 14.3141C35.7812 14.2996 36.0107 14.1721 36.2546 14.093C36.3321 14.1609 36.4149 14.2325 36.4994 14.3063C36.5479 14.2657 36.6009 14.2218 36.6585 14.1741C36.8751 14.223 37.1162 14.2338 37.3129 14.3324C37.5859 14.4695 37.7296 14.0151 38.0701 14.2553C38.2987 14.4169 38.7175 14.3009 39.0501 14.3257C39.3325 14.3465 39.6593 14.2031 39.871 14.5233C40.1949 14.0445 40.4894 14.6149 40.8025 14.5498C41.2159 14.4637 41.575 14.6563 41.9532 14.7694C42.2908 14.87 42.642 14.9251 42.987 15.0005C43.3325 15.0759 43.7169 15.0788 44.0163 15.2391C45.2801 15.915 46.7944 16.1242 47.8021 17.2496C48.5672 17.2272 49.0414 17.786 49.5836 18.155C51.525 19.4772 53.1528 21.163 54.7408 22.8691C56.2957 24.5395 57.5947 26.4266 58.4015 28.5726C58.8298 29.7108 59.314 30.8428 59.4739 32.0925C59.5762 32.894 59.8098 33.6967 59.8765 34.5085C59.9436 35.3311 59.891 36.1637 59.891 36.9921C59.891 37.5943 59.8968 38.197 59.8898 38.7992C59.8827 39.411 59.9316 40.0046 59.5456 40.5832C59.3236 40.9158 59.3782 41.4331 59.3082 41.8676C59.7411 42.1058 58.9238 42.5291 59.4159 42.7449C59.0953 43.3683 58.7751 43.9896 58.4525 44.6171C58.3448 44.5194 58.2719 44.4291 58.1779 44.3773C58.1228 44.347 58.0337 44.3781 57.9202 44.3831C57.8436 44.661 58.1675 44.6875 58.2723 44.9576V45.8771C58.1717 45.9778 58.0387 46.1111 57.8776 46.2723C57.9306 46.3414 57.9873 46.4147 58.052 46.4984C57.5748 46.9781 57.5151 47.6768 57.1821 48.2426C56.8048 48.8834 56.4685 49.5527 55.9408 50.015C55.5742 49.9172 55.2826 49.8398 54.991 49.7623C54.9728 49.8166 54.9546 49.8708 54.9363 49.9251C55.0718 49.9839 55.2072 50.0431 55.4234 50.1372C55.2188 50.2776 55.0407 50.3994 54.863 50.5211C54.8899 50.5721 54.9169 50.623 54.9438 50.6736C55.1215 50.6338 55.2996 50.5944 55.546 50.5389C55.563 50.6744 55.587 50.8653 55.6123 51.0654C55.4495 51.125 55.3191 51.1727 55.1285 51.2422C55.1757 51.4647 55.2242 51.6958 55.2963 52.0379C55.0353 52.1866 54.6837 52.3883 54.2798 52.6191C54.1129 52.9956 53.9153 53.4404 53.7182 53.8844C53.7517 53.9047 53.7857 53.925 53.8196 53.9445C52.9979 54.7663 52.2333 55.6568 51.3402 56.3916C50.2683 57.2734 49.1147 58.0662 47.9467 58.8205C46.2907 59.8904 44.595 60.8985 42.9009 61.9079C42.7 62.0276 42.4051 61.9891 42.1027 62.0314C41.727 62.7148 40.9028 62.8072 40.2653 63.1816C39.6701 63.5312 38.9975 63.7503 38.331 64.039C38.2573 63.8907 38.1831 63.7416 38.1077 63.59C37.7358 64.4967 36.7881 64.5099 36.0413 64.8753C35.9415 64.8193 35.7969 64.7386 35.5977 64.6263C35.5385 64.8185 35.4995 64.9469 35.4602 65.0745C35.4337 65.1014 35.3976 65.1561 35.3815 65.1503C34.9172 64.9979 34.5249 65.2932 34.1252 65.4038C32.2124 65.9364 30.2615 65.7646 28.3214 65.8528C26.8303 65.9203 25.3723 65.6515 23.8978 65.5749C23.3369 65.5459 22.7264 65.4912 22.1946 65.3404C21.6453 65.1847 21.0994 65.2704 20.5879 65.1346C19.9396 64.9627 19.2914 64.8102 18.6382 64.6607C17.927 64.4983 17.2217 64.2834 16.5304 64.0324C15.842 63.7822 15.1308 63.5946 14.4432 63.3436C13.7573 63.0934 13.0975 62.772 12.4095 62.5284C10.4014 61.8176 8.71231 60.5353 6.89148 59.4886C6.06225 58.5367 5.07065 57.7502 4.28201 56.7408C3.6603 55.9459 3.12639 55.0997 2.60615 54.2556C2.04491 53.3447 1.67669 52.3105 1.3768 51.2692C1.0616 50.1765 0.770414 49.0801 0.690059 47.9365C0.668107 47.6254 0.537633 47.3231 0.475089 47.0128C0.411716 46.7009 0.612189 46.334 0.268402 46.0772C0.229467 46.0482 0.251006 45.9372 0.24645 45.8647C0.171065 44.5782 0.0654438 43.2925 0.0285799 42.0047C-0.00911243 40.688 0.0149112 39.3696 0.0289941 38.052C0.0306509 37.9307 0.156568 37.8109 0.224911 37.6904C0.16071 37.6183 0.0873965 37.5363 0 37.4382C0.0815976 37.2476 0.253491 37.0451 0.231538 36.8662C0.0948521 35.7478 0.51858 34.6771 0.478402 33.5691C0.468462 33.2891 0.355385 32.9594 0.681361 32.7527C0.330118 32.5075 0.735621 32.2872 0.713254 32.042C0.687574 31.7665 0.659408 31.494 0.846627 31.1966C1.08686 30.8143 0.773314 30.2501 1.14982 29.8587C1.15479 28.6633 1.71314 27.6034 1.9687 26.4718C2.16462 25.6049 2.49059 24.8129 2.84142 24.006C3.13053 23.3421 3.29083 22.6197 3.5497 21.9292C4.16355 20.2927 4.91864 18.7246 5.69154 17.1696C6.20598 16.1354 6.97805 15.2341 7.49746 14.1886C8.17882 13.8651 8.31385 13.0894 8.80675 12.5849C9.31083 12.0696 9.76314 11.4781 10.2796 10.9558C10.809 10.4207 11.3243 9.86935 11.8805 9.36278C12.7885 8.53479 13.824 7.8555 14.7534 7.06397C15.6924 6.26414 16.778 5.73148 17.7962 5.09237C18.7567 4.48929 19.8601 4.0726 20.9503 3.73255C21.7178 3.49355 22.4344 3.12367 23.2313 2.95261C24.2212 2.74053 25.1814 2.3926 26.1614 2.12876C26.5722 2.01775 27.1049 2.10142 27.3969 1.86616C27.8339 1.5145 28.3492 1.8732 28.7435 1.53811C29.0877 1.2461 29.6464 1.68184 29.9675 1.22124C29.9799 1.20343 30.0404 1.21337 30.0768 1.21959C31.0071 1.38651 31.8827 0.942901 32.8076 0.984321C33.7093 1.0245 34.6401 0.857575 35.512 1.02408C36.9194 1.2929 38.3857 1.30781 39.6966 2.09645C40.6837 2.69042 41.5195 3.34195 41.9615 4.42012C42.0282 4.58249 42.0315 4.77012 42.0609 4.92876" fill="black"/>
</svg>
