<svg width="33" height="33" viewBox="0 0 33 33" fill="none" xmlns="http://www.w3.org/2000/svg">
<path fill-rule="evenodd" clip-rule="evenodd" d="M6.63678 20.1878C6.34021 20.216 6.18198 20.1965 6.05234 20.2487C4.43613 20.8974 3.60979 22.3649 2.58755 23.6265C2.54695 23.6767 2.60122 23.8274 2.64346 23.9157C2.7263 24.0851 2.88867 24.0983 3.01873 24.0022C4.40755 22.9742 6.12482 22.2584 6.63678 20.1878M24.8107 10.1642C26.0475 10.3618 26.8146 9.36519 27.8 8.9659C28.2287 8.79193 28.5588 8.02152 29.026 8.66933C29.4444 9.2488 29.2315 10.0089 28.6723 10.4715C28.3687 10.7234 28.0601 10.8754 28.1061 11.3712C28.8467 11.4362 29.4663 11.0663 29.8428 10.5552C30.4852 9.68329 31.1931 10.0503 31.6057 10.5208C31.86 10.8107 31.8695 11.6106 31.3642 12.0935C31.1533 12.2952 30.4712 12.388 31.2018 12.9551C31.4872 13.1763 30.6675 13.6174 30.4128 14.0092C30.2835 14.208 29.9662 14.2751 29.784 14.4528C29.5993 14.6334 29.6341 14.8558 29.8378 15.0397C30.1398 15.3123 30.1965 15.0157 30.2972 14.8426C30.8754 13.8539 31.8231 13.2471 32.7426 12.4158C33.2881 13.5279 32.3889 14.027 31.9424 14.6318C31.0556 15.8325 29.9638 16.8423 28.7874 17.761C28.6541 17.865 28.5443 18.0452 28.6408 18.3148C29.5388 18.1156 30.0971 17.3767 30.9048 16.7628C30.9819 17.952 30.0288 18.2341 29.5106 18.6951C27.9739 20.0615 26.3163 21.2938 24.6802 22.5447C24.1513 22.9489 24.0527 23.4157 24.1467 24.025C24.4164 25.7725 24.6881 27.5209 24.8968 29.2763C25.0219 30.33 25.0783 31.3949 23.8613 31.9922C23.5606 32.1396 23.4318 32.712 23.0888 32.0054C22.912 31.6409 22.6324 32.0265 22.4547 32.1521C21.9229 32.5286 21.5754 32.6628 21.3533 31.8182C21.1628 31.0921 20.8194 30.3316 19.8399 31.1373C19.7181 31.2375 19.4344 31.2777 19.3006 31.206C18.176 30.6042 16.6422 30.8974 15.8291 29.6225C15.5301 29.1532 15.1395 29.0957 14.6802 29.3823C13.6981 29.9949 12.6994 29.4183 11.7112 29.3968C11.4196 29.3906 11.5778 29.0103 11.6449 28.8277C11.8325 28.317 12.0628 27.8224 12.3594 27.1253C11.2203 27.6083 10.1202 27.4306 9.22471 28.2155C8.91364 28.4884 8.15731 28.288 7.61015 28.2399C7.40015 28.2217 7.18891 28.039 7.42335 27.7545C7.8537 27.233 7.83796 26.4854 8.41039 26.0144C7.82471 25.6603 7.41589 25.7551 7.07003 26.2165C6.98015 26.3358 6.8708 26.441 6.77098 26.5529C5.37305 28.1148 4.60346 28.1525 3.04731 26.7318C2.9392 26.6336 2.74204 26.5073 2.7553 26.4195C2.93382 25.2502 2.09009 24.4376 1.52388 23.6986C0.831748 22.7948 0.413819 21.8239 0.060505 20.8129C-0.17269 20.1439 0.311097 19.5512 0.779972 19.0761C2.61695 17.2168 4.69666 15.69 7.11145 14.6678C8.11382 14.2432 8.49323 13.8294 8.02187 12.6158C7.15246 10.3791 6.52246 8.0385 6.71465 5.58104C6.93956 2.70525 9.91684 0.463588 12.7322 1.03933C13.02 1.09814 13.387 1.11554 13.498 1.42992C13.6252 1.7882 13.2379 1.92572 13.0457 2.13199C12.542 2.67252 11.9067 3.1327 11.9696 4.14542C12.6464 3.91596 12.8544 3.32737 13.1994 2.89868C14.0597 1.8288 15.7803 2.01891 16.2632 3.30708C16.443 3.78507 16.7582 3.67613 17.0403 3.76436C18.0749 4.08661 18.579 4.98666 18.1557 5.79519C18.7526 6.04122 20.0233 5.86684 18.9961 7.13595C18.9332 7.21341 18.9402 7.3472 18.9154 7.45489C20.194 7.60607 19.2107 8.5198 19.4435 9.0243C19.7226 9.62986 20.1306 9.28483 20.4864 9.15187C22.1308 8.53803 23.6791 7.68891 25.3645 7.16495C25.7911 7.0324 26.2794 6.89323 26.5238 7.19767C26.9086 7.67773 26.214 7.82436 26.0322 8.14205C25.6519 8.80684 24.7601 9.13572 24.8107 10.1642" fill="black"/>
</svg>
