<svg width="110" height="168" viewBox="0 0 110 168" fill="none" xmlns="http://www.w3.org/2000/svg">
<path fill-rule="evenodd" clip-rule="evenodd" d="M58.6078 162.692C59.5323 162.935 60.3106 162.356 61.1742 162.175C62.0378 161.993 62.9225 161.811 63.7393 161.543C64.5189 161.286 65.3286 161.04 66.0957 160.707C66.8914 160.36 67.743 160.14 68.5317 159.78C69.3046 159.428 70.2224 159.398 70.8338 158.655C69.5071 159.032 68.2475 159.65 66.8413 159.859C66.7332 159.98 66.6089 160.12 66.4573 160.289H65.2769C65.2433 160.437 65.2197 160.539 65.1949 160.647C64.8428 160.605 64.5404 160.968 64.1767 160.746C63.9953 161.212 63.4999 161.115 63.1591 161.288C62.8227 161.459 62.4238 161.511 62.0482 161.598C61.6688 161.685 61.2761 161.725 60.9033 161.834C60.5529 161.936 60.2215 162.102 59.8918 162.236L59.6972 162.042C59.2527 162.718 58.4198 162.3 57.8589 162.685C57.8357 162.701 57.7024 162.558 57.6075 162.477C57.318 162.628 57.0396 162.774 56.7526 162.925C56.6693 162.861 56.5596 162.777 56.4179 162.669C56.2141 162.85 56.0331 163.01 55.8625 163.161C55.7643 163.085 55.691 163.028 55.6322 162.983C55.5274 163.062 55.457 163.113 55.3936 163.16C55.3012 163.068 55.2482 163.014 55.2134 162.98C54.8713 163.164 54.5379 163.344 54.2044 163.524C54.2214 163.581 54.238 163.638 54.255 163.695C55.5618 163.493 56.869 163.291 58.2446 163.079C58.322 162.997 58.45 162.86 58.6078 162.692M58.2367 161.379C58.6223 161.194 58.8936 160.988 59.1927 160.934C60.6163 160.681 61.9724 160.192 63.3521 159.788C64.825 159.358 66.2647 158.817 67.7074 158.302C68.6485 157.966 69.6082 157.639 70.5194 157.178C71.0135 156.929 71.4977 156.642 71.9956 156.392C72.8095 155.984 73.6272 155.557 74.3566 155.021C74.6643 154.796 75.1821 154.709 75.2463 154.195C76.6136 153.397 77.4009 152.054 78.3395 150.862C79.368 149.556 80.2001 148.113 80.9697 146.645C81.5015 145.63 82.0011 144.594 82.4294 143.523C82.8034 142.586 83.2085 141.662 83.5854 140.726C83.8836 139.985 84.1731 139.233 84.4262 138.479C84.6809 137.719 84.9527 136.96 85.1631 136.18C85.3718 135.406 85.5682 134.617 85.7604 133.842C85.8676 133.408 86.0544 132.926 86.0043 132.48C85.943 131.937 86.2893 131.502 86.2533 130.99C86.2197 130.513 86.462 130.042 86.4442 129.617C86.3817 128.126 86.7499 126.669 86.6981 125.191C86.6318 123.302 86.8729 121.41 86.5055 119.52C86.3117 118.523 86.5838 117.472 86.2727 116.45C86.0764 115.805 86.1576 115.072 85.9372 114.439C85.7061 113.774 85.5549 113.08 85.3975 112.414C85.1788 111.487 84.869 110.587 84.6536 109.661C84.4407 108.748 84.0393 107.882 83.7759 106.979C83.2863 105.303 82.6837 103.677 82.0118 102.062C81.492 100.811 81.0273 99.5303 80.4445 98.3067C79.0959 95.4753 77.6677 92.6815 76.3261 89.8463C75.7922 88.7167 75.3328 87.547 74.8428 86.396C74.0778 84.5979 73.2747 82.8202 72.7938 80.9202C72.5854 80.0985 72.2852 79.2659 72.2744 78.435C72.2475 76.3081 72.1472 74.1853 72.6575 72.0617C73.0204 70.5507 73.4814 69.0927 74.0612 67.6666C74.9862 65.3922 76.3953 63.4003 77.8582 61.4536C78.7947 60.2069 79.7983 59.0073 80.8107 57.8198C81.6026 56.8908 82.419 55.977 83.2892 55.1221C84.2937 54.1351 85.2157 53.0677 86.3655 52.2169C87.3422 51.4941 88.0886 50.4992 89.0636 49.7379C90.23 48.8275 91.2568 47.7394 92.342 46.7263C92.5073 46.5722 92.6344 46.3473 92.827 46.2582C93.5635 45.9186 93.9806 45.2322 94.565 44.7298C95.1491 44.2274 95.7389 43.7308 96.303 43.2068C96.5031 43.0208 96.6224 42.5838 96.8021 42.5702C97.2963 42.5329 97.1509 42.0715 97.3907 41.8573C98.9725 40.4432 100.272 38.7798 101.408 36.9872C102.146 35.8224 102.927 34.6838 103.641 33.505C104.038 32.8509 104.348 32.1435 104.677 31.4509C104.901 30.9796 104.999 30.4622 105.2 29.9739C105.543 29.1368 105.794 28.2272 105.883 27.3284C105.996 26.1724 105.91 24.9969 105.91 23.8301C105.523 23.3579 105.812 22.7577 105.618 22.2565C105.017 20.6983 104.62 19.0618 103.665 17.6406C103.004 16.6553 102.39 15.6463 101.554 14.7897C100.578 13.7894 99.494 12.9241 98.3985 12.058C97.3311 11.2139 96.1825 10.5064 95.0037 9.86774C93.9383 9.29035 92.8759 8.67195 91.6959 8.31573C91.2328 8.17615 90.802 7.93135 90.3522 7.74496C89.8663 7.54283 89.4285 7.17709 88.8478 7.28644C88.4738 6.87431 87.9461 6.92526 87.4706 6.78816C86.3187 6.45556 85.2248 5.91005 83.9859 5.93573C82.7909 5.33597 81.4543 5.52733 80.1927 5.30118C79.0138 5.08993 77.7671 5.33307 76.5643 5.04396C76.2437 4.96692 75.8506 5.1268 75.5607 5.00792C75.2036 4.86171 74.9278 5.46934 74.6113 5.03982C74.3719 5.40597 73.9995 5.2465 73.6851 5.25106C72.443 5.26845 71.2004 5.2581 69.9578 5.2581C69.732 5.2581 69.4475 5.1707 69.2921 5.2755C68.9185 5.52816 68.5221 5.51656 68.1328 5.47266C67.6755 5.42047 67.2932 5.65946 66.8691 5.70461C65.9988 5.79739 65.1249 5.85952 64.253 5.93739C64.1473 5.94692 64.0376 5.961 63.9402 5.99952C62.9561 6.38638 61.9015 6.5094 60.8901 6.80514C59.4437 7.22763 57.9517 7.50556 56.5111 7.96905C54.4103 8.64419 52.384 9.49414 50.5234 10.6879C48.9093 11.7242 47.3792 12.8827 46.0062 14.2285C45.512 14.7135 45.126 15.3087 44.636 15.7991C43.3536 17.0823 42.442 18.6293 41.5361 20.1685C40.7392 21.5221 40.0106 22.9308 39.34 24.3416C38.558 25.9885 37.2653 27.1271 35.9796 28.2268C34.7846 29.2499 33.4165 30.1077 32.0451 30.9369C30.2098 32.0466 28.3628 33.133 26.4865 34.1681C25.5728 34.6718 24.6218 35.1158 23.6604 35.523C22.6676 35.943 21.584 36.1786 20.6467 36.6902C19.5718 37.2767 18.468 37.816 17.4022 38.4261C15.9165 39.2769 14.3935 40.0692 12.9156 40.9432C11.8971 41.5454 10.9328 42.2135 10.0328 42.9707C9.21349 43.6595 8.44349 44.4063 7.64077 45.1158C7.51444 45.2277 7.33343 45.2774 7.2071 45.3412C7.16817 45.5433 7.13296 45.7222 7.09361 45.924C6.9532 45.82 6.88278 45.7674 6.79953 45.7057C6.57006 46.573 6.18858 47.2598 5.3929 47.6321C5.45627 47.7079 5.52047 47.785 5.59462 47.8736C5.4426 47.9332 5.31296 47.9838 5.25994 48.0045C5.06154 48.6577 4.81757 49.2504 4.70533 49.8667C4.3429 51.8628 4.35408 52.8295 4.69621 54.7597C4.75172 55.0749 4.70781 55.376 4.83538 55.7165C5.1274 56.4969 5.29515 57.3311 5.60538 58.1098C6.10698 59.3698 6.54231 60.6774 7.21663 61.8425C7.98953 63.1783 8.71438 64.5357 9.44627 65.8922C9.7971 66.5429 10.2254 67.1518 10.6205 67.7789C10.8276 68.1073 11.0434 68.4304 11.2451 68.7626C12.1038 70.1759 12.9289 71.6106 13.8227 73.0011C14.7443 74.4351 15.7173 75.8363 16.6931 77.2343C17.6885 78.6612 18.6337 80.1245 19.5764 81.5821C20.9739 83.7438 22.5963 85.7627 23.7404 88.0938C24.0452 88.7143 24.505 89.2718 24.8599 89.8864C25.2298 90.526 25.5355 91.192 25.8627 91.8481C26.1564 92.4375 26.4033 93.058 26.5988 93.6872C26.8079 94.3606 26.9993 95.0797 27.0204 95.7569C27.0569 96.9237 27.095 98.0918 26.8895 99.2855C26.6431 100.717 25.9799 101.93 25.4436 103.218C25.4054 103.308 25.1983 103.329 25.135 103.355C24.997 103.802 24.9643 104.268 24.7344 104.593C23.8418 105.855 22.9269 107.104 21.9402 108.291C21.3338 109.02 20.8873 109.9 20.0573 110.435C19.6091 111.49 18.7314 112.233 18.0252 113.082C17.0266 114.284 16.052 115.501 15.1034 116.742C14.4067 117.653 13.645 118.532 13.0801 119.521C12.5578 120.436 11.9584 121.314 11.4945 122.25C10.2875 124.686 8.92686 127.074 8.53503 129.832C8.0471 130.528 8.15189 131.391 7.89675 132.162C7.64077 132.937 7.70538 133.819 7.6329 134.654C7.62296 134.766 7.67888 134.918 7.62379 134.986C7.2245 135.483 7.52976 136.072 7.39225 136.589C7.25059 137.121 7.13213 137.641 7.17811 138.193C7.26053 139.178 6.98095 140.191 7.4055 141.149C7.25763 141.894 7.57988 142.592 7.66438 143.311C7.75675 144.097 8.02391 144.901 8.34947 145.613C8.67959 146.334 8.92438 147.102 9.39201 147.793C9.80538 148.404 10.2357 148.974 10.7634 149.466C11.3259 149.992 11.7695 150.632 12.4886 151.012C13.1153 151.343 13.6612 151.832 14.2228 152.278C14.367 152.392 14.4357 152.602 14.5405 152.77C14.6014 152.71 14.6549 152.656 14.7137 152.598C14.9883 152.811 15.2463 153.174 15.5437 153.21C16.1414 153.282 16.3088 153.686 16.4989 154.069C16.8584 154.187 17.1902 154.295 17.3078 154.333C17.7518 154.836 18.0592 155.184 18.3818 155.549C18.712 155.452 19.0056 155.366 19.2893 155.282C19.4902 155.625 19.4898 156.061 19.9285 156.224C20.0192 156.031 20.0908 155.878 20.2225 155.597C20.5725 155.962 20.8803 156.282 21.1967 156.613C22.016 156.253 22.0309 156.293 22.7831 156.914C23.0399 157.126 23.4301 157.32 23.8327 157.129L24.232 157.528C25.2505 157.534 25.2505 157.534 25.8677 157.922C25.5889 158.049 25.3052 158.178 24.8666 158.377C25.3064 158.416 25.5877 158.441 25.8578 158.466C25.9634 158.682 25.9228 159.063 26.395 158.79C26.3453 158.539 26.2914 158.264 26.2218 157.907C26.8017 158.086 27.3004 158.259 27.8107 158.39C28.6246 158.6 29.4037 158.918 30.2114 159.151C30.6418 159.275 31.0535 159.309 31.4636 159.4C32.0438 159.64 32.6333 159.954 33.238 159.985C33.909 160.021 34.4595 160.46 35.0812 160.444C35.7588 160.426 36.3341 160.772 36.9451 160.727C37.0072 160.91 37.0457 161.025 37.0971 161.178C37.4011 160.794 37.7412 160.944 38.0543 160.949C38.1078 161.094 38.1558 161.224 38.1769 161.281C38.3956 161.257 38.6425 161.152 38.7518 161.233C39.007 161.422 39.2721 161.11 39.5475 161.353C39.7583 161.538 40.1402 161.549 40.4521 161.595C41.0221 161.679 41.5866 161.551 42.1802 161.788C42.6855 161.99 43.3163 161.788 43.8867 162.033C44.2736 162.2 44.7619 161.908 45.174 162.198C45.5369 162.453 46.065 162.06 46.3951 162.487C46.4912 162.026 46.9331 162.746 47.0383 162.28C47.2011 162.433 47.3573 162.579 47.508 162.72C47.593 162.648 47.6688 162.53 47.762 162.513C47.9446 162.481 48.1372 162.504 48.3253 162.504C49.0783 162.504 49.8325 162.533 50.5839 162.495C51.3452 162.458 52.1032 162.353 52.8624 162.278C52.9709 162.267 53.1242 162.299 53.1805 162.239C53.5293 161.87 53.965 162.131 54.3502 162.052C54.733 161.975 55.1128 161.866 55.4996 161.836C55.9317 161.802 56.3649 161.845 56.7625 161.604C57.2211 161.325 57.7376 161.354 58.2367 161.379M74.9982 161.408C75.0255 162.29 73.9308 161.868 73.7328 162.506H72.6596C72.2226 162.732 71.849 162.925 71.3739 163.171C70.6764 162.949 70.0679 163.54 69.3555 163.729C68.8634 163.86 68.2715 163.926 67.999 164.528C67.9377 164.664 67.6349 164.728 67.4336 164.756C66.3791 164.902 65.4546 165.447 64.4373 165.72C63.8562 165.876 63.2551 165.92 62.6856 166.115C62.365 166.224 62.0308 166.291 61.6021 166.404C61.7147 166.171 61.7644 166.068 61.8866 165.815C61.5959 165.954 61.4314 166.062 61.2517 166.111C61.086 166.156 60.9033 166.138 60.6685 166.152C60.8031 166.304 60.8739 166.384 61.0106 166.537C60.3214 166.706 59.6756 166.864 59.0303 167.022C57.9993 167.274 56.9146 167.275 55.8712 167.722C55.7005 167.487 55.5233 167.243 55.2971 166.932C55.1351 167.085 55.0076 167.207 54.8518 167.354C55.0063 167.429 55.1467 167.498 55.3729 167.608C54.4157 167.718 53.5405 167.818 52.7199 167.911C52.5762 167.717 52.4673 167.568 52.3149 167.362C52.1898 167.616 52.1152 167.767 52.0386 167.924C51.8775 167.774 51.7213 167.628 51.566 167.482C51.503 167.546 51.4496 167.599 51.3966 167.652C51.2243 167.584 51.052 167.516 50.7082 167.379C50.8647 167.641 50.9223 167.738 51.0412 167.936C50.6382 167.878 50.2704 168.078 49.9684 167.68C48.9155 168.214 47.8564 167.842 46.7559 167.656V166.827C46.4725 166.811 46.2249 166.798 45.9208 166.781C45.7908 166.963 45.6504 167.158 45.4486 167.439C45.4954 167.418 45.4279 167.477 45.3687 167.47C44.7975 167.399 44.1538 167.452 43.6829 167.194C43.3462 167.009 43.2571 167.327 43.0496 167.251C42.8209 167.166 42.5873 167.041 42.3533 167.034C41.896 167.021 41.4984 166.918 41.2176 166.608C41.0374 166.675 40.8618 166.811 40.7164 166.785C39.5749 166.577 38.4027 166.476 37.3179 165.929C37.2702 165.972 37.1915 166.044 37.136 166.095C36.89 165.959 36.6498 165.826 36.4099 165.694L36.1975 165.907C35.7812 165.65 35.1682 165.76 34.867 165.209C34.7743 165.295 34.6931 165.37 34.5614 165.491C34.3414 165.326 34.1161 165.158 33.8522 164.96C33.6795 165.015 33.4803 165.078 33.3241 165.127C32.8482 165.003 32.3682 164.916 31.9175 164.749C31.4627 164.581 31.0365 164.333 30.5975 164.12C30.0772 164.485 29.7873 163.83 29.3118 163.822C28.8562 163.815 28.4055 163.503 27.9246 163.313V162.762L27.807 162.747C27.7751 162.934 27.7424 163.12 27.7043 163.343C27.2809 163.179 26.8502 163.012 26.4008 162.838C26.3834 162.765 26.3593 162.662 26.344 162.598C26.0309 162.476 25.7426 162.363 25.4212 162.237C25.5558 162.086 25.6262 162.008 25.7737 161.842H24.5116C24.6479 161.665 24.7034 161.593 24.8119 161.451C24.7005 161.4 24.5708 161.34 24.3513 161.24C24.1044 161.357 23.708 161.545 23.3262 161.727C23.2412 161.381 22.8345 161.325 22.5065 161.134C22.4004 161.203 22.2886 161.275 22.0326 161.44C22.1428 161.137 22.2057 160.962 22.2762 160.769C22.2024 160.695 22.096 160.589 21.944 160.437C21.8102 160.509 21.6602 160.589 21.5028 160.672C21.4449 160.549 21.3744 160.4 21.2941 160.23C21.2112 160.399 21.1421 160.54 21.0029 160.824V160.091C21.082 160.064 21.2129 160.02 21.3736 159.966C21.3877 159.877 21.4034 159.775 21.4312 159.594C21.2117 159.683 21.0427 159.753 20.843 159.834C20.7875 159.674 20.7428 159.545 20.6922 159.401C20.1434 159.293 19.5888 159.183 19.0118 159.07C18.9675 159.226 18.9393 159.327 18.8863 159.513C18.736 159.459 18.5778 159.375 18.4104 159.348C18.2331 159.318 18.0467 159.341 17.8749 159.341C17.8102 159.041 17.645 158.929 17.4114 158.808C17.2229 158.712 17.133 158.423 17.0017 158.223C16.9214 158.295 16.8398 158.368 16.7275 158.47C16.4856 158.351 16.2359 158.228 16.0109 158.118C15.9853 157.991 15.9637 157.888 15.9434 157.79C15.7326 157.765 15.5549 157.745 15.3838 157.726C15.3317 157.581 15.2844 157.451 15.2298 157.3C15.1324 157.386 15.0541 157.455 15.0069 157.497C13.9072 156.855 13.1207 155.821 11.9928 155.207C11.5222 154.951 11.1399 154.532 10.7212 154.183C10.244 153.786 9.67533 153.454 9.32367 152.966C8.97822 152.487 8.68041 152.022 8.11213 151.801C8.08024 151.379 7.69047 151.221 7.47467 150.935C7.28083 150.679 7.08574 150.422 6.91633 150.15C6.39527 149.313 5.81787 148.501 5.38793 147.619C4.73225 146.273 4.16645 144.882 3.79243 143.424C3.53769 142.432 3.25521 141.453 3.08456 140.434C2.91183 139.405 2.73373 138.377 2.67491 137.34C2.61278 136.252 2.66911 135.157 2.6571 134.065C2.65172 133.59 2.97728 133.193 2.90314 132.688C2.83562 132.23 2.94953 131.776 3.07751 131.306C3.28462 130.544 3.2345 129.717 3.34675 128.925C3.46107 128.116 3.54059 127.28 3.81562 126.522C4.16314 125.564 4.23562 124.534 4.6842 123.606C4.90953 123.139 4.98781 122.601 5.20444 122.129C5.84355 120.736 6.44663 119.318 7.1984 117.986C8.08189 116.42 9.06769 114.907 10.0825 113.421C10.7928 112.381 11.5575 111.376 12.3701 110.405C13.5162 109.035 14.6689 107.67 15.8018 106.29C16.7925 105.084 17.7879 103.881 18.7629 102.662C19.914 101.222 21.046 99.7465 21.794 98.0483C22.3039 96.8902 22.7765 95.6989 22.7732 94.3855C22.7707 93.1711 22.2973 92.1086 21.722 91.0926C20.5357 88.9963 19.139 87.0334 17.8015 85.0332C16.8576 83.6212 15.953 82.1831 15.0169 80.7661C14.6076 80.1465 14.2634 79.4883 13.8285 78.8836C13.3737 78.2524 12.979 77.5785 12.5412 76.9344C12.1208 76.3143 11.6743 75.7125 11.2472 75.097C10.8222 74.484 10.3542 73.8929 9.99882 73.2409C9.12112 71.6342 8.06864 70.1353 7.16734 68.5431C6.8045 67.9023 6.5713 67.1828 6.07177 66.6241C5.59296 66.0881 5.54615 65.2891 4.95592 64.826C4.44728 63.4132 3.50953 62.205 3.08746 60.7391C2.85923 59.948 2.30586 59.2558 2.01716 58.4755C1.65391 57.4947 1.27491 56.5163 1.05828 55.4788C0.93071 54.8686 0.63497 54.2908 0.557515 53.6554C0.541361 53.5229 0.387278 53.3829 0.412959 53.2727C0.54426 52.7007 0.158225 52.2177 0.172308 51.6689C0.187219 51.1048 0.190118 50.539 0.167751 49.9753C0.160296 49.7731 0.0633728 49.5747 0 49.349C0.0521894 49.088 0.171065 48.777 0.166509 48.4676C0.132544 46.206 0.934852 44.2303 2.21639 42.4235C2.96692 41.3657 3.61846 40.2072 4.83414 39.5722C5.04953 38.7318 5.90899 38.5317 6.44331 38.0144C7.20917 37.2734 8.10426 36.6384 9.02254 36.0879C10.4677 35.2218 11.9141 34.3516 13.3853 33.5323C14.753 32.7706 16.1961 32.1439 17.6106 31.4671C19.9985 30.3243 22.4675 29.3547 24.7916 28.0769C25.3433 27.7737 25.9485 27.5401 26.4385 27.1577C27.2002 26.5646 28.106 26.2399 28.8909 25.696C29.6431 25.1746 30.4595 24.745 31.2146 24.2273C31.7233 23.8785 32.1768 23.4502 32.6498 23.0509C33.1812 22.6028 33.7441 22.1828 34.2259 21.6857C34.9321 20.9559 35.5882 20.1793 36.1631 19.3335C36.4128 18.9661 36.8159 18.7076 37.105 18.3626C37.8683 17.4526 38.6785 16.577 39.2675 15.5328C39.7811 14.6232 40.3635 13.7666 41.0979 13.0115C41.5817 12.5141 41.9681 11.9189 42.4689 11.4413C44.1422 9.84662 45.8972 8.37206 47.9541 7.24999C49.1545 6.59514 50.3681 5.99786 51.5975 5.4068C53.0269 4.71964 54.5375 4.31331 56.0099 3.7823C56.9638 3.43851 57.9745 3.25005 58.962 3.0007C59.3737 2.89715 59.8827 2.93485 60.1826 2.69916C60.5935 2.37567 61.0653 2.75715 61.436 2.41627C61.7669 2.11266 62.3369 2.55834 62.6541 2.09485C63.2427 2.15283 63.8048 2.02982 64.3698 1.87615C64.7802 1.76473 65.2069 1.69928 65.6302 1.64875C66.0208 1.60236 66.4449 1.74609 66.7808 1.4197C66.8003 1.40106 66.8546 1.41224 66.8914 1.41804C68.0069 1.58703 69.078 1.14757 70.1872 1.1836C70.8549 1.20514 71.562 1.2768 72.1849 1.09621C72.8592 0.900289 73.505 1.01337 74.1607 0.974431C74.8358 0.934254 75.5176 1.00053 76.1927 0.957863C77.4917 0.876266 78.7521 1.36585 80.0531 1.19147C80.4768 1.47851 80.9975 1.29958 81.4175 1.44662C81.8855 1.61064 82.3577 1.5423 82.7988 1.65828C84.9626 2.2278 87.1653 2.64987 89.233 3.57603C90.4678 4.12899 91.7862 4.49431 93.0014 5.11147C94.7626 6.00449 96.4675 6.99153 98.0667 8.15212C98.8582 8.72703 99.6253 9.33218 100.38 9.95887C101.064 10.5267 101.755 11.0867 102.331 11.7515C103.926 13.5931 105.394 15.5179 106.621 17.6464C107.596 19.3376 108.063 21.1966 108.804 22.9602C108.967 23.3496 108.882 23.7861 109.032 24.2186C109.263 24.8863 109.211 25.6496 109.304 26.3691C109.345 26.6814 109.481 26.9817 109.516 27.294C109.554 27.6287 109.546 27.9725 109.521 28.3096C109.459 29.1074 109.41 29.9097 109.288 30.6996C109.17 31.4667 108.998 32.2288 108.795 32.9785C108.252 34.977 107.392 36.8467 106.355 38.6303C105.471 40.1525 104.541 41.649 103.6 43.1368C103.311 43.5941 102.936 44.0033 102.567 44.4034C101.089 46.0056 99.8208 47.7982 98.1785 49.2525C97.7362 49.6443 97.3012 50.0457 96.8643 50.4437C96.4571 50.8153 96.2227 51.3239 95.6726 51.6043C95.1946 51.8483 94.8512 52.3577 94.4515 52.7529C94.0233 53.1766 93.6376 53.6538 93.1663 54.0212C91.6337 55.2145 90.3634 56.6779 88.963 58.0062C88.6498 58.3028 88.2199 58.4908 87.9544 58.8189C87.102 59.8718 86.0499 60.7511 85.3022 61.8943C85.2012 62.0484 85.0347 62.1582 84.9083 62.2973C84.4664 62.7848 83.9196 63.173 83.6131 63.7922C83.4996 64.0212 83.2023 64.1587 82.8991 64.4135C82.7649 64.633 82.5959 64.9859 82.3598 65.2862C81.2344 66.7173 80.0059 68.0742 79.2499 69.7612C78.7015 70.2111 78.5019 70.88 78.2248 71.4835C77.7754 72.4622 77.2862 73.4522 77.0501 74.4914C76.8306 75.4586 76.5042 76.4257 76.5266 77.4496C76.5332 77.7553 76.3422 78.0618 76.322 78.3729C76.2515 79.4308 76.4814 80.4456 76.7014 81.4815C77.0394 83.0786 77.748 84.5196 78.3627 85.9954C79.7578 89.3434 81.5044 92.5278 83.049 95.805C83.8004 97.3996 84.7572 98.9359 85.125 100.704C86.1812 102.649 86.7834 104.765 87.4321 106.864C87.6595 107.6 87.8185 108.359 88.0853 109.079C88.3541 109.805 88.5624 110.543 88.7865 111.279C88.9828 111.922 89.1158 112.57 89.2811 113.216C89.436 113.823 89.7156 114.399 89.8535 115.008C89.9467 115.422 89.9164 115.844 90.0656 116.277C90.2611 116.844 90.148 117.518 90.3443 118.085C90.6214 118.887 90.399 119.708 90.5684 120.48C90.9578 122.255 90.7121 124.037 90.7618 125.814C90.8115 127.582 90.7879 129.353 90.7627 131.122C90.7556 131.582 90.5912 132.037 90.5556 132.498C90.5175 132.984 90.6695 133.518 90.522 133.957C90.1919 134.941 90.3327 136.016 89.8692 136.961C90.0316 137.599 89.7284 138.187 89.6174 138.783C89.4463 139.707 89.1104 140.6 88.8387 141.505C88.7178 141.908 88.5844 142.307 88.4344 142.78C88.3673 142.811 88.2149 142.882 88.0571 142.956C88.1217 143.021 88.1752 143.074 88.2104 143.11C87.7817 144.245 87.3592 145.371 86.9317 146.495C86.2856 148.192 85.5777 149.86 84.5952 151.396C84.5753 151.428 84.5248 151.447 84.5194 151.477C84.3463 152.415 83.5875 153.036 83.2271 153.88C82.8601 154.74 82.2251 155.434 81.6573 156.172C81.0447 156.97 80.3356 157.664 79.6463 158.385C79.286 158.761 78.8714 159.075 78.5172 159.467C78.1469 159.877 77.5704 160.092 77.1375 160.456C76.7225 160.804 76.1629 160.89 75.7794 161.306C75.6501 161.446 75.2935 161.377 74.9982 161.408" fill="black"/>
</svg>
