<svg width="235" height="144" viewBox="0 0 235 144" fill="none" xmlns="http://www.w3.org/2000/svg">
<path fill-rule="evenodd" clip-rule="evenodd" d="M140.64 15.7089C140.412 15.8187 140.093 16.1036 139.785 16.092C139.113 16.0659 138.483 16.2333 137.847 16.3588C137.248 16.4777 136.629 16.5 136.049 16.6537C135.268 16.8604 134.477 17.0277 133.7 17.2489C132.825 17.4978 131.921 17.6776 131.079 18.011C130.335 18.3059 129.589 18.5942 128.844 18.8879C128.1 19.182 127.334 19.4454 126.616 19.7755C124.649 20.6797 122.605 21.3669 120.591 22.1377C119.842 22.4248 119.082 22.7847 118.303 22.8617C117.367 22.9537 116.519 23.4735 115.557 23.3493C114.854 23.959 113.884 23.6098 113.127 24.0269C111.874 24.0273 110.645 24.3831 109.379 24.2663C109.037 24.2348 108.691 24.2137 108.316 24.4225C108.013 24.5902 107.529 24.4481 107.127 24.4125C106.921 24.3939 106.723 24.2746 106.517 24.2593C105.681 24.1963 104.854 24.2638 104.004 24.0691C103.214 23.8877 102.402 23.7577 101.601 23.5845C99.9869 23.2358 98.4188 22.7462 96.9065 22.0963C94.0937 20.8872 91.6155 19.1459 89.4024 17.0555C88.1346 15.8576 86.9479 14.5674 85.7575 13.2846C83.8293 11.2074 81.9103 9.09038 79.6467 7.35405C78.8395 6.73565 77.9605 6.17523 77.0406 5.74695C75.547 5.05192 74.0782 4.8063 72.4546 4.83032C71.692 4.84192 70.9241 4.70813 70.1665 5.02665C69.8463 5.16085 69.4201 5.01961 69.0473 5.0573C68.6605 5.09624 68.2587 5.14594 67.9029 5.28843C67.4262 5.47896 66.8653 5.36423 66.4557 5.60239C65.8054 5.98014 65.0685 6.08742 64.3917 6.3521C63.5815 6.66896 62.7453 6.95683 61.9835 7.36233C61.2119 7.77239 60.4253 8.1576 59.6798 8.63849C57.4319 10.0886 55.2942 11.6663 53.3334 13.4859C53.178 13.63 53.0028 13.7816 52.809 13.8504C52.4764 13.9676 52.4863 14.3077 52.3016 14.5036C52.1111 14.7053 51.7362 14.7803 51.626 15.0019C51.3001 15.6584 50.7024 16.0485 50.2488 16.5762C49.7953 17.1031 49.3309 17.6213 48.8944 18.1626C48.4661 18.6936 48.0614 19.2449 47.6567 19.7946C47.3241 20.2465 46.7733 20.5638 46.7662 21.4514C46.813 21.4684 47.0255 21.5446 47.2372 21.62C47.0259 21.832 46.8925 21.965 46.7596 22.0988C46.8453 22.2065 46.9306 22.3138 47.0769 22.4981C46.0882 23.2362 45.6698 24.2849 45.2817 25.3656C45.1177 25.8241 44.812 26.2313 44.5564 26.6869C44.5701 26.7022 44.6443 26.783 44.7101 26.8555C44.3887 27.7829 44.1244 28.7289 43.7334 29.619C43.3967 30.3853 43.1254 31.176 42.7833 31.9365C42.437 32.7073 41.9731 33.4309 41.993 34.3206C41.3273 35.3081 41.3381 36.5362 40.8481 37.5717C40.6104 38.0725 40.8945 38.7766 40.2131 39.028C40.6911 39.641 40.1688 39.9927 40.0073 40.4309C40.332 40.6529 40.2653 41.0414 40.1634 41.3214C39.9282 41.9655 39.859 42.6312 39.7447 43.2939C39.6275 43.974 39.4448 44.6433 39.5164 45.3475C39.5467 45.6453 39.6482 46.0785 39.4974 46.226C39.0658 46.6472 39.5761 47.2955 39.0695 47.6446V49.2261C39.0695 49.4141 39.1437 49.6531 39.0563 49.7815C38.7551 50.221 38.8844 50.7002 38.8376 51.1649C38.7908 51.6259 38.6284 52.0824 38.633 52.5401C38.64 53.2475 38.3824 53.863 38.1003 54.4719C37.2938 56.2128 36.0831 57.677 34.824 59.0977C34.3137 59.6735 33.6683 60.1249 33.1121 60.6477C31.7398 61.9358 30.3597 63.2095 28.8822 64.3755C28.1731 64.9355 27.4831 65.522 26.7483 66.0455C25.8834 66.6623 24.9925 67.2455 24.0879 67.803C23.4641 68.187 22.7786 68.4711 22.1556 68.8563C21.4378 69.3003 20.7419 69.768 19.9782 70.1449C19.2268 70.5156 18.5662 71.0528 17.7982 71.426C17.0999 71.7648 16.4922 72.2904 15.827 72.7461C15.825 72.744 15.7479 72.6794 15.7019 72.6404C15.5479 72.8542 15.4476 73.1375 15.2521 73.241C13.8057 74.0061 12.6944 75.1633 11.5388 76.2817C10.2809 77.4994 9.36923 78.952 8.5781 80.4825C7.54923 82.4732 6.54313 84.482 6.27514 86.7564C5.86633 87.2133 6.3 87.8288 6.05645 88.2426C5.73378 88.791 5.79716 89.3584 5.89656 89.8517C6.02041 90.4668 6.09994 91.0662 6.0813 91.5773C6.26148 91.9493 6.46112 92.2193 6.52449 92.518C6.71213 93.4039 7.16899 94.1553 7.68633 94.8598C8.57272 96.0681 9.32822 97.3906 10.611 98.2704C10.9776 98.5218 11.2104 98.9749 11.5848 99.2056C13.4711 100.368 15.2836 101.651 17.266 102.66C18.9509 103.519 20.6541 104.279 22.5002 104.764C23.6973 105.079 24.9117 105.377 26.1141 105.534C27.5282 105.719 28.9684 105.959 30.4193 105.82C30.9048 105.774 31.4006 105.779 31.8869 105.819C33.4865 105.952 35.0667 105.683 36.6473 105.547C37.2499 105.496 37.9454 105.55 38.4536 105.311C38.9701 105.067 39.4601 105.262 39.9398 105.075C40.4277 104.886 40.9533 104.751 41.4735 104.696C42.3624 104.603 43.1946 104.297 44.0553 104.102C45.0133 103.884 45.9593 103.625 46.8992 103.335C48.1368 102.953 49.3877 102.612 50.6373 102.269C51.8555 101.934 53.079 101.619 54.3001 101.294C55.288 101.031 56.3032 100.844 57.2728 100.553C58.4624 100.197 59.6934 100.08 60.8818 99.7404C61.3113 99.6174 61.7943 99.6112 62.2536 99.5084C62.7378 99.4003 63.2775 99.5784 63.7364 99.2612C64.7719 99.3556 65.7838 99.1029 66.8065 99.0545C67.7902 99.0077 68.7835 98.943 69.7685 99.238C70.2175 99.3726 70.8611 99.0797 71.2004 99.3055C71.6556 99.6083 72.1381 99.3046 72.556 99.619C72.9214 99.8936 73.5041 99.5469 73.886 99.9388C75.6294 100.111 77.1876 100.89 78.7359 101.589C80.3981 102.339 82.0093 103.221 83.4566 104.401C84.5786 105.315 85.7947 106.114 86.8302 107.141C88.7004 108.997 90.517 110.896 92.1962 112.932C92.9853 113.888 93.7785 114.847 94.5953 115.777C95.6378 116.962 96.6141 118.212 97.7096 119.342C99.0032 120.676 100.265 122.044 101.725 123.225C102.716 124.026 103.68 124.874 104.685 125.661C105.525 126.318 106.402 126.939 107.316 127.488C108.128 127.976 108.888 128.54 109.742 128.979C110.609 129.425 111.436 129.977 112.307 130.432C113.851 131.237 115.398 132.037 117.009 132.713C118.166 133.2 119.325 133.669 120.519 134.056C122.312 134.636 124.097 135.235 125.892 135.809C126.76 136.087 127.653 136.373 128.533 136.49C129.531 136.623 130.462 137.156 131.502 136.991C132.911 137.525 134.434 137.492 135.877 137.872C136.457 138.025 137.088 137.924 137.707 138.087C138.284 138.239 138.916 138.194 139.531 138.316C140.27 138.462 141.042 138.399 141.81 138.534C142.81 138.709 143.85 138.665 144.876 138.758C147.205 138.971 149.565 138.596 151.895 139.023C152.823 139.193 153.707 138.788 154.625 138.796C155.716 138.805 156.809 138.815 157.901 138.793C158.963 138.772 160.018 138.77 161.089 138.615C162.428 138.421 163.805 138.573 165.172 138.375C166.59 138.171 168.042 138.196 169.48 138.121C169.555 138.117 169.661 138.153 169.701 138.115C170.078 137.76 170.547 137.868 170.966 137.911C171.464 137.963 171.881 137.721 172.342 137.673C173.214 137.583 174.087 137.518 174.959 137.443C175.034 137.438 175.151 137.475 175.179 137.438C175.466 137.059 175.873 137.279 176.221 137.216C176.605 137.146 176.984 137.047 177.371 136.995C178.053 136.905 178.787 136.969 179.411 136.734C180.285 136.405 181.218 136.437 182.089 136.116C182.466 135.978 182.927 135.944 183.344 135.891C183.81 135.832 184.259 135.738 184.718 135.648C186.07 135.382 187.381 134.951 188.739 134.695C189.476 134.556 190.18 134.193 190.943 134.024C191.722 133.852 192.426 133.368 193.267 133.375C193.811 132.871 194.563 132.869 195.196 132.579C195.862 132.276 196.579 132.132 197.26 131.832C198.629 131.231 200.007 130.649 201.366 130.023C203.145 129.204 204.847 128.238 206.584 127.34C207.649 126.788 208.657 126.15 209.66 125.519C210.774 124.819 211.871 124.074 212.93 123.274C213.655 122.726 214.315 122.102 215.046 121.581C215.751 121.078 216.375 120.486 217.052 119.958C217.583 119.545 218.021 119.013 218.501 118.534C218.98 118.055 219.401 117.489 219.954 117.12C220.518 116.744 220.743 116.168 221.123 115.686C221.146 115.657 221.175 115.632 221.202 115.606C222.543 114.363 223.52 112.832 224.56 111.35C225.598 109.876 227.03 106.995 227.748 105.328C228.209 104.258 228.525 103.16 228.844 102.055C229.021 101.447 229.31 100.814 229.265 100.213C229.188 99.2114 229.615 98.2513 229.332 97.2266C229.143 96.5444 229.257 95.7943 229.117 95.0616C228.958 94.217 228.712 93.4085 228.374 92.6497C227.836 91.4369 227.031 90.3749 226.114 89.4052C225.255 88.4969 224.247 87.7712 223.269 87.0037C221.982 85.993 220.613 85.1029 219.162 84.3661C217.302 83.4204 215.458 82.4338 213.479 81.7264C212.336 81.3167 211.273 80.6635 210.117 80.3085C208.541 79.8248 207.1 79.0407 205.576 78.4463C204.217 77.9165 202.955 77.1399 201.652 76.4685C200.277 75.7606 199.044 74.8345 197.904 73.8143C196.942 72.954 196.093 71.9562 195.264 70.9613C194.721 70.311 194.217 69.5981 193.855 68.8381C193.497 68.0888 193.176 67.3093 192.828 66.5554C192.415 65.662 192.134 64.7246 191.833 63.8064C191.518 62.845 191.303 61.8236 191.147 60.8191C190.966 59.6461 190.808 58.4598 190.703 57.2798C190.603 56.1494 190.281 55.0274 190.439 53.8751C190.455 53.7641 190.49 53.6071 190.434 53.5433C190.033 53.086 190.292 52.5446 190.215 52.0484C190.139 51.553 190.039 51.0593 189.995 50.5606C189.902 49.5015 189.839 48.4395 189.764 47.3791C189.761 47.3414 189.775 47.2992 189.762 47.2665C189.228 45.975 189.394 44.5265 188.86 43.2351C189.016 42.7388 188.579 42.323 188.648 41.8628C188.725 41.3591 188.481 40.94 188.387 40.4901C188.18 39.4977 187.878 38.5235 187.58 37.5526C187.334 36.7541 187.016 35.984 186.642 35.2298C186.256 34.4486 185.962 33.6376 185.5 32.8742C184.433 31.1122 183.291 29.4194 181.829 27.9664C180.882 27.0261 179.946 26.0503 178.874 25.272C177.788 24.4842 176.699 23.6889 175.553 22.9686C173.763 21.8445 171.857 20.9684 170.008 19.9731C169.374 19.9996 168.915 19.5216 168.323 19.3969C167.784 19.2839 167.257 19.0639 166.759 18.8204C166.22 18.5565 165.645 18.4149 165.087 18.2185C164.364 17.963 163.653 17.6043 162.907 17.4983C161.111 17.2439 159.453 16.3878 157.617 16.3455C157.262 15.8497 156.65 16.3083 156.194 15.9322C155.875 15.6687 155.319 15.9727 154.825 15.7122C154.413 15.4948 153.792 15.694 153.268 15.658C152.956 15.6364 152.655 15.4852 152.343 15.45C151.973 15.4082 151.595 15.448 151.224 15.4103C151.107 15.3987 151.004 15.252 150.973 15.2288C150.671 15.3208 150.472 15.4306 150.272 15.4335C149.105 15.4504 147.937 15.4123 146.771 15.45C145.634 15.4869 144.498 15.5859 143.363 15.6704C142.788 15.713 142.208 15.5544 141.634 15.8655C141.418 15.9827 141.028 15.7801 140.64 15.7089M193.027 39.8129C193.198 40.5556 193.229 41.1177 193.456 41.5845C193.823 42.3387 193.806 43.1651 194.045 43.9384C194.191 44.4114 194.134 44.9652 194.347 45.3935C194.496 45.6925 194.502 45.9518 194.502 46.2326C194.503 47.1037 194.641 47.9367 194.931 48.7671C195.092 49.2256 195.018 49.7463 195.146 50.2541C195.365 51.1281 195.339 52.0638 195.411 52.9746C195.439 53.3308 195.395 53.6692 195.609 54.0275C195.758 54.2768 195.638 54.6877 195.638 55.027C195.638 55.4035 195.529 55.8293 195.671 56.1407C195.789 56.3992 195.771 56.6705 195.821 56.9025C195.995 57.7155 196.001 58.5638 196.094 59.3959C196.142 59.8197 196.254 60.2355 196.311 60.6584C196.37 61.083 196.174 61.5519 196.541 61.9197C196.497 62.9051 196.937 63.8101 197.007 64.7818C197.052 65.4097 197.536 65.9515 197.455 66.6242C198.19 67.6199 198.337 68.906 199.119 69.893C199.808 70.7637 200.443 71.6327 201.32 72.3725C202.403 73.2858 203.654 73.8752 204.827 74.6004C205.455 74.9894 206.203 75.2582 206.915 75.5398C207.627 75.8219 208.352 76.0779 209.037 76.4151C209.726 76.7539 210.447 77.0451 211.151 77.3068C212.36 77.755 213.565 78.2177 214.741 78.7342C216.494 79.5042 218.225 80.3313 219.926 81.2107C220.956 81.7429 221.888 82.462 222.906 83.0216C224.094 83.6752 225.157 84.5127 226.246 85.2972C227.32 86.0717 228.239 87.0667 229.205 87.987C231.072 89.7643 232.481 91.8718 233.416 94.2597C233.823 95.2968 234.142 96.375 234.326 97.5116C234.511 98.6635 234.43 99.7922 234.487 100.929C234.503 101.24 234.635 101.604 234.291 101.871C234.259 101.895 234.516 102.204 234.471 102.312C234.341 102.63 234.331 102.962 234.282 103.286C234.222 103.674 234.212 104.051 234.089 104.447C233.982 104.789 233.793 105.006 233.694 105.132C233.737 105.48 233.857 105.75 233.782 105.944C232.977 108.022 232.239 110.124 231.122 112.073C230.171 113.732 229.197 115.374 228.036 116.888C226.428 118.983 223.613 122.029 221.564 123.803C219.826 125.307 218.131 126.885 216.073 127.98C215.979 128.03 215.962 128.227 215.892 128.396C215.81 128.334 215.738 128.278 215.664 128.222C214.986 128.954 214.167 129.509 213.29 129.989C212.645 130.344 212 130.701 211.375 131.089C210.629 131.552 209.856 131.947 209.035 132.26C208.75 132.369 208.552 132.7 208.268 132.815C207.493 133.129 206.741 133.495 205.983 133.842C205.348 134.132 204.789 134.59 204.157 134.89C203.657 135.128 203.094 135.231 202.567 135.413C202.272 135.515 201.998 135.682 201.701 135.775C201.451 135.853 201.226 136.187 200.918 135.89C200.697 136.068 200.56 136.318 200.192 136.34C199.908 136.357 199.647 136.637 199.358 136.758C199.102 136.866 198.817 136.905 198.552 136.994C198.255 137.093 197.97 137.293 197.673 137.309C197.235 137.332 196.904 137.47 196.555 137.735C196.294 137.935 195.911 138.011 195.57 138.065C194.592 138.218 193.745 138.877 192.71 138.798C192.103 139.302 191.305 139.212 190.612 139.458C189.952 139.693 189.207 139.701 188.56 139.961C188.236 140.091 187.865 140.023 187.643 140.182C187.359 140.386 187.097 140.342 186.815 140.386C186.503 140.434 186.202 140.558 185.89 140.598C185.593 140.635 185.285 140.578 184.988 140.617C184.829 140.638 184.684 140.774 184.547 140.852C184.398 140.755 184.279 140.678 184.166 140.603C184.089 140.622 184.003 140.618 183.955 140.659C183.736 140.845 183.589 141.09 183.215 141.076C182.873 141.064 182.528 141.232 182.179 141.276C181.859 141.318 181.51 141.21 181.257 141.51C180.623 141.386 180.042 141.691 179.43 141.732C178.999 141.761 178.582 141.728 178.158 141.941C177.824 142.11 177.344 141.792 177.008 142.168C176.973 142.207 176.867 142.182 176.793 142.187C175.695 142.263 174.596 142.325 173.499 142.419C173.001 142.462 172.507 142.563 172.011 142.639C171.552 142.709 171.056 142.473 170.624 142.851C170.518 142.944 170.26 142.865 170.071 142.865C169.62 142.865 169.144 142.953 168.723 142.841C168.294 142.726 167.942 143.421 167.537 142.892C167.201 143.208 166.784 143.071 166.399 143.087C165.948 143.105 165.459 142.98 165.05 143.112C163.843 143.504 162.616 143.331 161.411 143.289C159.92 143.238 158.473 143.618 156.985 143.556C155.482 143.495 153.973 143.531 152.467 143.547C151.474 143.557 150.519 143.221 149.51 143.3C148.537 143.377 147.526 143.458 146.582 143.277C145.623 143.094 144.681 143.149 143.732 143.084C143.271 143.051 142.817 142.923 142.356 142.87C141.893 142.817 141.396 142.984 140.982 142.639C140.162 142.814 139.403 142.308 138.591 142.417C138.175 142.474 137.821 142.29 137.439 142.198C137.061 142.108 136.683 142.165 136.278 141.998C135.73 141.774 135.073 141.824 134.468 141.729C134.229 141.692 134.007 141.548 133.768 141.516C132.713 141.375 131.687 141.11 130.66 140.837C129.166 140.439 127.64 140.142 126.172 139.666C125.609 139.483 125.011 139.427 124.465 139.155C123.939 138.894 123.347 138.767 122.788 138.571C122.164 138.352 121.54 138.131 120.923 137.892C119.821 137.464 118.732 136.999 117.623 136.589C115.066 135.644 112.668 134.363 110.239 133.145C109.707 132.878 109.219 132.524 108.689 132.251C107.218 131.492 105.919 130.445 104.431 129.716C103.241 128.485 101.628 127.814 100.393 126.621C99.4646 125.723 98.2829 125.086 97.3584 124.185C96.163 123.02 94.8276 121.974 93.8998 120.548C93.7996 120.394 93.6331 120.284 93.5059 120.146C92.6788 119.246 91.8176 118.375 91.0389 117.436C90.1989 116.422 89.3258 115.436 88.4932 114.421C87.4416 113.139 86.3754 111.879 85.2049 110.705C84.8214 110.32 84.5496 109.821 84.1528 109.454C82.6029 108.025 81.1089 106.496 79.2499 105.478C77.7588 104.662 76.2623 103.826 74.5227 103.515C73.6814 103.365 72.8451 103.199 71.9989 103.059C71.2314 102.933 70.478 102.861 69.7142 102.887C69.2163 102.904 68.7243 103.057 68.2256 103.093C67.7012 103.131 67.1304 102.978 66.6566 103.136C66.1848 103.295 65.6894 103.196 65.2835 103.361C64.8477 103.537 64.4083 103.443 64.0144 103.573C63.1388 103.862 62.2167 103.896 61.3291 104.163C60.6014 104.382 59.8098 104.489 59.0547 104.684C58.0354 104.949 57.0247 105.25 55.9979 105.482C54.4211 105.838 52.8893 106.358 51.3208 106.749C49.823 107.122 48.3526 107.613 46.8263 107.884C46.4398 108.305 45.862 107.952 45.3952 108.266C45.0452 108.502 44.4989 108.442 44.0424 108.526C43.6949 108.59 43.354 108.698 43.0053 108.743C42.6855 108.784 42.3401 108.68 42.0775 108.971C42.0435 109.008 41.9321 108.971 41.8571 108.977C40.9094 109.051 39.9311 109.004 39.0215 109.231C37.7271 109.555 36.4398 109.332 35.1549 109.431C34.8385 109.456 34.5054 109.318 34.2076 109.622C34.0958 109.737 33.7532 109.715 33.5577 109.643C32.475 109.24 31.3554 109.521 30.2591 109.423C29.7231 109.375 29.1912 109.282 28.6582 109.201C28.1624 109.125 27.6794 109.236 27.1501 109.027C26.694 108.847 26.098 108.895 25.567 108.762C25.0467 108.632 24.4627 108.698 23.9781 108.502C23.1845 108.181 22.3275 108.21 21.5235 107.885C20.7593 107.575 19.9015 107.456 19.1096 107.167C18.4879 106.941 17.85 106.747 17.2548 106.465C16.0263 105.882 14.7895 105.305 13.6135 104.625C11.5906 103.455 9.60035 102.232 7.72609 100.821C7.10065 100.351 6.59946 99.7594 5.98686 99.2988C5.0429 98.5893 4.35739 97.64 3.55509 96.8041C2.89443 96.1165 2.39739 95.2666 1.86225 94.4659C1.27615 93.5891 0.868577 92.6223 0.583192 91.6088C0.430352 91.0653 0.224494 90.5381 0.199228 89.9561C0.175204 89.4201 0.00828095 88.8896 0.000411125 88.3548C-0.00580189 87.9352 0.163192 87.5161 0.201713 87.0923C0.239405 86.6819 0.0451449 86.1301 0.248103 85.882C0.564967 85.4948 0.201299 84.9522 0.66189 84.6825C0.83834 83.3434 1.43935 82.153 1.90491 80.9067C2.33029 79.7697 2.99964 78.7946 3.56461 77.7558C4.12254 76.7303 4.76704 75.7469 5.51633 74.8253C6.42674 73.7045 7.43449 72.7245 8.5429 71.8021C10.1463 70.4667 11.8524 69.2896 13.5904 68.1505C14.6826 67.4348 15.7902 66.741 16.8998 66.0517C17.9759 65.3832 19.076 64.752 20.1422 64.0681C20.9507 63.55 21.8118 63.1138 22.5263 62.4449C22.967 62.0319 23.5237 61.7457 23.986 61.3526C24.773 60.6833 25.4904 59.9282 26.3034 59.2949C27.2445 58.5617 28.0948 57.7404 28.9112 56.8817C30.1601 55.5687 31.2382 54.1157 32.2704 52.6287C32.5148 52.2771 32.5782 51.8397 32.7062 51.4569C32.919 50.8187 32.8867 50.0996 32.9721 49.417C33.0342 48.9196 33.1266 48.4258 33.1937 47.9288C33.2608 47.4317 33.0433 46.9032 33.4078 46.431C33.4989 46.313 33.4103 46.064 33.4235 45.8768C33.4592 45.3669 33.5076 44.8575 33.547 44.3476C33.5834 43.8721 33.4467 43.2711 33.687 42.9505C34.0361 42.4841 33.7591 41.9775 34.0519 41.4975C34.3431 41.0203 34.2238 40.3042 34.3306 39.7007C34.5593 38.4067 34.7937 37.1127 35.0733 35.8287C35.2369 35.0769 35.5161 34.3542 35.6971 33.6012C35.8673 32.8945 36.1995 32.2285 36.4153 31.5301C36.6527 30.7614 37.0242 30.0432 37.3369 29.3142C37.9168 27.9635 38.239 26.5262 38.8492 25.1962C39.6328 23.4859 40.1079 21.6262 41.293 20.109C41.6724 18.7756 42.7779 17.8864 43.3905 16.6877C43.6655 16.1496 44.1824 15.7391 44.5647 15.2512C45.8819 13.5704 47.4919 12.1704 48.9565 10.6312C50.0508 9.48139 51.269 8.46991 52.5389 7.5363C53.7612 6.63707 54.9264 5.63014 56.3579 5.04405C56.9448 4.38588 57.8221 4.19784 58.5246 3.71529C59.1177 3.30813 59.8268 3.05216 60.5106 2.79908C61.4588 2.44825 62.4632 2.23411 63.3806 1.82198C63.8909 1.59251 64.4195 1.69979 64.9318 1.47074C65.4674 1.23133 66.1682 1.38375 66.734 1.18577C67.6834 0.853991 68.636 1.02588 69.5854 0.990263C70.5252 0.954641 71.475 0.910322 72.4061 1.00766C73.0237 1.07227 73.6479 1.26902 74.2617 1.40156C76.3087 1.84517 78.1531 2.7502 79.9752 3.70784C80.9411 4.21606 81.8776 4.81003 82.7408 5.47772C84.8561 7.11423 86.8609 8.90026 88.6072 10.9183C90.1032 12.6467 91.7505 14.2132 93.3589 15.8207C94.5476 17.0087 95.9335 17.9547 97.493 18.6365C98.7621 19.1919 100.075 19.5138 101.439 19.7614C103.52 20.1396 105.599 19.9072 107.675 19.9267C108.471 19.9342 109.313 19.8339 110.102 19.549C110.368 19.4533 110.696 19.5436 110.988 19.5009C111.263 19.4612 111.527 19.3477 111.8 19.2843C112.831 19.0449 113.872 18.8427 114.894 18.5685C115.872 18.3059 116.884 18.0653 117.791 17.6619C119.478 16.9101 121.211 16.2822 122.907 15.559C124.699 14.7952 126.512 14.0475 128.377 13.5033C129.757 13.1003 131.127 12.5572 132.598 12.5046C132.977 12.1952 133.471 12.4003 133.849 12.2512C134.311 12.0701 134.837 12.2064 135.207 11.9968C135.657 11.7417 136.077 11.9194 136.496 11.8249C137.848 11.5217 139.21 11.3167 140.602 11.3652C140.683 11.3681 140.768 11.2289 140.851 11.1556C140.928 11.2272 141.009 11.3018 141.047 11.337C141.473 11.2703 141.855 11.192 142.241 11.1527C143.038 11.0719 143.855 11.3043 144.64 10.941C144.824 10.8561 145.11 10.994 145.47 11.0471C145.484 11.0392 145.629 10.9568 145.762 10.8806C145.885 10.9949 145.967 11.0707 146.047 11.1448C146.126 11.0711 146.206 10.9953 146.322 10.8884C146.436 10.9431 146.561 11.0036 146.669 11.0554C146.968 11.0114 147.364 10.8255 147.553 10.9514C148.017 11.2587 148.495 11.178 148.945 11.132C150.14 11.0102 151.307 11.2852 152.461 11.4294C153.646 11.5768 154.849 11.8017 156.021 12.0805C156.732 12.2495 157.481 12.2888 158.164 12.6235C158.471 12.7739 158.885 12.6919 159.215 12.8124C159.737 13.0029 160.35 12.9656 160.774 13.4084C161.339 13.28 161.874 13.4971 162.344 13.7067C162.857 13.9349 163.407 14.0355 163.921 14.2687C164.375 14.475 164.911 14.5997 165.408 14.7654C166.301 15.0619 167.269 15.2355 168.063 15.7023C168.952 16.2242 169.955 16.4114 170.841 16.9287C171.828 17.5053 172.936 17.8694 173.956 18.3946C174.386 18.6166 174.986 18.6584 175.163 19.2545C175.807 19.1907 176.139 19.7834 176.67 19.9797C177.157 20.1591 177.598 20.4801 178.033 20.7762C178.829 21.3193 179.575 21.941 180.398 22.4359C181.494 23.0949 182.304 24.1035 183.387 24.7675C183.882 25.6021 184.902 25.9463 185.313 26.8865C185.467 27.2398 185.861 27.4991 186.171 27.7717C187.361 28.8167 188.161 30.1691 189.087 31.4229C189.697 32.2475 190.204 33.136 190.657 34.0489C191.259 35.2642 191.889 36.4712 192.317 37.7655C192.526 38.3951 192.72 39.0293 192.93 39.658C192.963 39.7566 193.044 39.8386 193.027 39.8129" fill="black"/>
</svg>
