<svg width="97" height="83" viewBox="0 0 97 83" fill="none" xmlns="http://www.w3.org/2000/svg">
<path fill-rule="evenodd" clip-rule="evenodd" d="M75.5382 71.766C75.7602 71.977 75.9812 72.189 76.2032 72.4C77.4572 71.284 78.7112 70.168 79.9652 69.052C79.7662 68.829 79.5652 68.607 79.3652 68.385C78.0902 69.512 76.8132 70.639 75.5382 71.766M52.2922 73.255C52.3542 73.524 52.4162 73.792 52.4782 74.061C55.4442 73.412 58.4102 72.762 61.3772 72.113C61.3082 71.811 61.2382 71.509 61.1702 71.207C58.2102 71.89 55.2512 72.573 52.2922 73.255M36.6192 53.891C36.6842 54.146 36.7492 54.4 36.8142 54.655C41.2382 55.678 44.7632 53.195 48.5222 51.628C48.4672 51.413 48.4122 51.199 48.3572 50.984C44.4442 51.953 40.5312 52.922 36.6192 53.891M48.4342 79.301C53.1222 80.231 62.2172 77.805 65.9702 74.892C59.6422 76.483 54.0382 77.892 48.4342 79.301M0.146221 34.139C-0.368779 29.836 0.490221 25.652 2.50822 21.642C3.94622 18.786 6.05622 17.002 9.33322 17.14C12.1192 17.257 14.6502 17.954 15.7242 21.079C15.9982 21.88 16.9682 22.422 17.3552 23.212C17.6402 23.791 19.3812 24.874 17.0892 25.207C17.1742 25.64 17.1092 26.3 17.3682 26.471C20.1302 28.301 20.7852 31.12 19.5522 34.026C18.7702 35.864 18.3262 38.003 18.3982 39.984C18.4392 41.09 19.6102 42.575 20.6732 43.151C25.5752 45.813 30.8682 46.343 36.2762 45.065C50.8882 41.615 64.0272 35.575 72.8052 22.726C75.4902 18.796 77.2042 14.204 79.3892 9.92803C80.4592 7.83103 81.4502 5.67503 82.7292 3.71003C84.1262 1.56703 86.2582 0.720033 88.8642 1.00103C92.2122 1.36203 92.9492 2.14703 92.4942 5.47603C92.3152 6.78703 92.3972 7.49203 93.9992 7.63803C94.5882 7.69203 95.3782 8.73303 95.5672 9.45703C97.3462 16.24 97.3042 23.169 96.2912 30.002C95.2302 37.162 93.9812 44.36 91.9622 51.293C89.9982 58.038 87.4582 64.764 82.1022 69.799C76.8732 74.716 70.6802 78.002 63.8262 80.04C53.9992 82.962 44.0712 84.004 34.0602 81.063C32.2152 80.52 30.5172 79.394 28.8332 78.399C26.6132 77.087 24.2192 75.914 22.3572 74.187C19.3442 71.391 15.4602 69.639 13.6272 65.329C12.4312 62.517 9.17422 60.658 7.26722 58.058C2.10522 51.02 -0.382779 43.089 0.146221 34.139" fill="black"/>
</svg>
