<svg width="95" height="99" viewBox="0 0 95 99" fill="none" xmlns="http://www.w3.org/2000/svg">
<path fill-rule="evenodd" clip-rule="evenodd" d="M81.4213 60.9364C76.3143 66.5784 71.2053 72.2194 66.0973 77.8614C65.9013 77.6834 65.7053 77.5054 65.5093 77.3284C70.6133 71.6674 75.7183 66.0074 80.8223 60.3474C81.0223 60.5434 81.2223 60.7404 81.4213 60.9364" fill="black"/>
<path fill-rule="evenodd" clip-rule="evenodd" d="M59.3401 83.2049C59.6521 82.8489 59.9631 82.4929 60.2751 82.1369L64.3151 78.6719C64.4471 78.7879 64.5791 78.9039 64.7121 79.0199C63.8561 79.9389 63.0201 80.8779 62.1411 81.7739C59.6771 84.2869 57.2351 86.8229 54.6871 89.2479C54.1711 89.7389 53.2301 89.7819 52.4851 90.0319C52.6571 89.8699 52.8301 89.7089 53.0031 89.5469C55.1151 87.4329 57.2281 85.3189 59.3401 83.2049" fill="black"/>
<path fill-rule="evenodd" clip-rule="evenodd" d="M84.2336 56.2699C85.6366 54.4669 87.0406 52.6639 88.4446 50.8609C88.6406 51.0119 88.8376 51.1629 89.0356 51.3139C87.5996 53.1169 86.1636 54.9189 84.7276 56.7219C84.5626 56.5709 84.3986 56.4199 84.2336 56.2699" fill="black"/>
<path fill-rule="evenodd" clip-rule="evenodd" d="M84.5969 49.8973C83.0879 51.6533 81.5559 53.3913 80.0749 55.1703C76.5299 59.4283 73.0089 63.7063 69.4779 67.9763C73.5029 64.2283 77.0759 60.1003 80.5319 55.8753C82.0499 54.0193 83.3279 51.9663 84.7149 50.0023C86.0369 48.3693 87.3599 46.7353 88.6829 45.1023C88.3899 44.8953 88.0979 44.6883 87.8059 44.4803C86.7359 46.2863 85.6659 48.0913 84.5969 49.8973M52.4849 90.0313C49.1759 93.0743 46.7249 97.1893 41.6559 98.5633C41.9959 97.6973 42.2579 97.0323 42.5889 96.1913C41.3369 96.4473 40.2009 96.9073 39.1419 96.7723C38.7759 96.7243 38.6009 95.1933 38.3609 94.4133C37.5929 94.9773 36.6569 95.8353 35.5649 96.3863C35.0969 96.6223 34.0809 96.4213 33.7319 96.0383C33.4519 95.7323 33.5719 94.6383 33.9149 94.2563C37.2519 90.5443 40.7849 87.0053 44.0449 83.2303C48.4249 78.1573 52.6219 72.9243 56.8669 67.7363C57.1789 67.3553 57.2439 66.7723 57.0039 65.9763C54.8919 68.3663 52.7929 70.7683 50.6629 73.1423C45.0759 79.3723 39.4959 85.6093 33.8459 91.7813C33.2819 92.3983 32.2539 92.5913 31.4419 92.9813C31.5879 91.9883 31.3919 90.7193 31.9349 90.0463C36.2079 84.7543 40.6409 79.5923 44.9819 74.3553C46.6019 72.4013 48.1029 70.3483 49.6669 68.3473C50.5499 67.2183 50.2369 66.8033 48.8589 66.7403C46.7779 66.6453 44.6909 66.2183 42.6289 66.3373C41.5679 66.3983 40.3069 67.1103 39.5759 67.9243C38.2839 69.3623 37.3269 71.1023 36.2309 72.7153C36.0039 72.5773 35.7789 72.4393 35.5529 72.3013C36.6699 70.4343 37.7859 68.5663 38.9039 66.6983C38.6959 66.5683 38.4889 66.4383 38.2819 66.3083C37.1919 67.9943 36.1199 69.6933 35.0069 71.3643C33.9259 72.9873 32.9639 73.8173 30.6439 72.6563C28.8729 71.7693 26.6069 70.9253 24.2639 71.6863C23.6329 71.8913 22.4839 71.3763 21.9889 70.8203C21.6389 70.4283 21.8389 69.3583 22.0679 68.6833C22.4769 67.4753 23.0929 66.3363 23.6219 65.1683C23.4049 65.0473 23.1859 64.9273 22.9679 64.8063C22.3539 65.6363 21.7719 66.4943 21.1099 67.2853C20.7909 67.6653 20.3229 67.9193 19.9219 68.2303C19.6569 67.7793 19.2679 67.3563 19.1569 66.8703C19.0199 66.2723 19.0219 65.6063 19.1239 64.9973C19.5589 62.4113 18.6959 61.3223 16.0529 60.5283C12.9479 59.5953 9.85091 58.5643 6.88091 57.2733C5.04691 56.4773 3.53891 55.0993 3.61391 52.6983C3.62691 52.2533 3.14791 51.6073 2.71891 51.3623C-0.455086 49.5423 -1.02009 45.0813 1.92991 42.7693C4.03991 41.1153 6.39291 39.5303 8.89791 38.6693C15.5889 36.3673 22.3979 34.3883 29.2129 32.4703C31.0359 31.9573 31.7799 31.0163 32.4729 29.3383C35.3789 22.2993 38.2639 15.2283 41.6839 8.4343C42.9509 5.9173 45.4859 3.9043 47.7729 2.0733C49.8869 0.380305 52.2339 0.672305 54.4989 2.4553C55.7809 3.4633 57.5929 3.7683 59.0049 4.6483C61.2669 6.0583 63.7999 7.33531 65.4909 9.29531C68.2929 12.5453 70.4649 16.3333 73.0269 19.8033C73.6109 20.5943 74.6309 21.1743 75.5699 21.5693C77.6639 22.4493 79.8059 23.2423 81.9789 23.9043C85.2839 24.9123 87.7579 27.0973 90.1949 29.3723C90.9139 30.0443 91.7999 30.5913 92.3549 31.3753C93.2389 32.6243 94.9309 34.1343 91.1749 35.0193C92.7949 35.1033 93.6049 35.1453 94.4129 35.1863C94.3039 36.5783 94.6599 38.2593 94.0049 39.3113C90.9319 44.2483 87.9299 49.2973 84.2569 53.7763C76.9109 62.7313 69.1379 71.3353 61.5629 80.1023C61.0439 80.7033 60.6999 81.4553 60.2749 82.1363C59.9629 82.4923 59.6519 82.8493 59.3399 83.2053C57.2279 85.3193 55.1159 87.4333 53.0029 89.5473C52.8299 89.7093 52.6579 89.8703 52.4849 90.0313" fill="black"/>
</svg>
