<svg width="59" height="75" viewBox="0 0 59 75" fill="none" xmlns="http://www.w3.org/2000/svg">
<path fill-rule="evenodd" clip-rule="evenodd" d="M4.93899 32.9485C4.68659 32.5676 4.43361 32.1872 4.18064 31.8101C4.22907 31.4413 4.99368 31.0164 4.03479 30.6958C3.94135 30.6643 4.06327 30.2073 4.0855 29.9485C4.38917 29.9717 4.76635 29.9095 4.98628 30.0329C6.36679 30.8104 6.32406 32.3825 4.93899 32.9485" fill="black"/>
<path fill-rule="evenodd" clip-rule="evenodd" d="M27 29.9955L26.9521 29.9485C26.5577 30.6182 26.1742 31.2941 25.7367 31.9429C25.713 31.9787 25.0601 31.8364 25.0132 31.6978C24.8495 31.2178 26.2437 30.0685 27 29.9955" fill="black"/>
<path fill-rule="evenodd" clip-rule="evenodd" d="M44.541 34.1163C44.1036 32.3697 43.7664 30.6617 43.2288 29.0198C42.918 28.0709 42.1617 27.4737 41.0605 28.075C39.968 28.6716 38.8948 29.3039 37.8277 29.9449C37.7774 29.9744 37.875 30.2361 37.8898 30.3913C37.9177 30.6835 38.0276 31.0089 37.9406 31.2649C37.4279 32.782 36.637 34.2431 36.37 35.7974C35.748 39.4145 36.5185 42.0113 41.1571 41.8031C41.2955 41.797 41.441 41.7634 41.5712 41.7939C42.3727 41.9818 42.8096 41.6142 42.9831 40.8674C43.5019 38.6432 44.011 36.4164 44.541 34.1163M35.7322 26.9957L35.4265 26.6994C34.0415 27.9197 32.4826 28.9923 31.3062 30.3883C27.9284 34.3969 24.9861 38.688 23.9052 43.9703C23.3493 46.6863 23.2537 49.4262 25.4657 51.4295C27.6024 53.3651 30.2599 53.0586 32.8076 52.2145C36.0104 51.1541 38.3226 48.9207 40.2477 46.25C41.4099 44.6367 41.3753 44.6123 39.4324 44.123C34.8828 42.9771 32.3407 40.0605 32.4363 35.7561C32.4918 33.2906 33.2618 30.9457 34.5908 28.8254C34.9728 28.216 35.3517 27.6056 35.7322 26.9957M4.87367 33.3395C4.56748 35.1569 4.21144 36.9683 3.96934 38.7939C3.71096 40.7467 3.49378 42.7103 3.38087 44.6764C3.27863 46.4531 3.29033 48.2416 3.35849 50.0203C3.38544 50.7198 3.78318 51.3985 3.86405 52.1035C3.95713 52.9135 3.77555 53.7622 3.91543 54.5584C4.07615 55.4702 4.39404 56.3702 4.75719 57.227C6.56788 61.4998 8.60694 65.653 12.5126 68.4454C18.1131 72.4489 24.2704 73.1707 30.6648 70.8564C36.9839 68.5691 41.677 64.0285 45.9087 58.987C49.852 54.2891 52.594 48.9996 54.216 43.0341C55.1722 39.5173 55.4768 35.9445 55.2658 32.4552C55.0837 29.447 53.9195 26.3756 51.1485 24.439C48.6217 22.6725 45.78 22.8435 42.9165 23.1739C42.4272 23.2305 41.8987 23.0513 41.4308 23.1617C40.9023 23.2865 40.3347 23.5211 39.9471 23.8826C39.5911 24.214 39.5224 24.7089 40.324 24.7318C43.6006 24.8275 47.0398 28.4812 47.3033 32.191C47.4381 34.0894 47.8119 35.9526 47.138 37.8602C46.9493 38.3958 47.4249 39.2103 47.727 39.8329C47.7814 39.9454 48.4742 39.7484 48.9324 39.6853C49.203 40.9366 48.4208 41.9472 47.5739 42.5408C45.6879 43.8629 44.8777 45.8926 43.7267 47.6907C41.7599 50.7636 39.4945 53.4715 35.9885 54.8496C30.2564 57.1028 22.8163 54.9758 20.295 48.8464C19.2152 46.2205 19.2508 43.4363 20.2391 40.8134C21.205 38.2491 22.4943 35.8055 23.6794 33.3273C23.9068 32.8518 24.245 32.221 24.8792 33.0361C24.9316 33.1043 25.2933 33.0605 25.3762 32.9587C27.3623 30.5171 29.3297 28.0602 31.2548 25.5224C29.6771 26.9835 28.0998 28.4451 26.5221 29.9067L26.5674 29.9586C26.7484 29.4424 26.8023 28.8223 27.1289 28.4267C30.4278 24.4273 34.3111 21.2542 39.4711 19.9657C43.5431 18.9485 47.3425 19.4225 51.0524 21.5606C54.2882 23.4254 56.5882 25.9454 57.8328 29.4144C58.4538 31.1448 58.5672 32.95 58.6389 34.8235C58.7132 36.7702 58.8424 38.7053 58.586 40.6291C57.6812 47.4102 55.1391 53.5239 50.9547 58.9452C49.613 60.6838 48.4187 62.5603 46.9157 64.1441C45.4011 65.7401 43.6072 67.0754 41.8972 68.4774C40.8448 69.3393 39.735 70.1335 38.6257 70.9226C32.1123 75.5543 25.0323 75.844 17.6711 73.5398C10.2096 71.2041 5.28565 66.1993 2.48824 58.9406C0.0600805 52.6406 -0.574678 46.1619 0.512753 39.5499C1.01781 36.476 1.97707 33.4764 2.80765 30.1327C3.45105 31.0414 3.82336 31.5678 4.19669 32.0902C4.42252 32.5041 4.64784 32.9215 4.87367 33.3395" fill="black"/>
<path fill-rule="evenodd" clip-rule="evenodd" d="M15.5726 12.1129C15.4706 12.0071 15.3687 11.9013 15.2662 11.7955C14.4749 12.7003 13.6826 13.6046 12.8908 14.5094L13.1581 14.7516C13.9631 13.8722 14.7676 12.9928 15.5726 12.1129M6.48325 28.5037C6.16774 27.9816 5.97245 27.658 5.77716 27.3345C5.69752 27.6637 5.65948 28.0117 5.52557 28.3155C5.42158 28.5514 5.1989 28.7319 5.05586 28.9046C3.57571 27.6933 4.42383 26.592 5.00767 25.3947C8.99057 17.227 14.7529 10.6314 22.0172 5.41359C26.0528 2.51507 30.4085 0.369963 35.5769 1.13426C36.5462 1.27789 37.4907 1.63411 38.4251 1.9587C38.6204 2.02663 38.7177 2.38856 38.8603 2.61463C38.5737 2.6893 38.281 2.84433 38.001 2.82359C36.7801 2.73544 35.5637 2.5187 34.3432 2.48967C31.1968 2.415 28.6291 3.9913 26.1512 5.70604C24.0482 7.16152 21.728 8.44485 20.013 10.2975C16.7814 13.7871 13.9225 17.6366 10.8892 21.3191C10.6543 21.6049 10.2511 21.7391 9.94825 21.9746C9.80165 22.0886 9.65607 22.2556 9.59825 22.4293C9.38926 23.0541 9.32028 23.7515 9.01086 24.3136C8.24847 25.7022 7.38158 27.0317 6.48325 28.5037" fill="black"/>
</svg>
