<svg width="193" height="105" viewBox="0 0 193 105" fill="none" xmlns="http://www.w3.org/2000/svg">
<path fill-rule="evenodd" clip-rule="evenodd" d="M73.8969 90.7248C73.9335 90.8626 73.9697 91.0005 74.0068 91.1383C74.7671 90.9097 75.5275 90.6812 76.2878 90.4521C76.2611 90.3525 76.2343 90.2524 76.2076 90.1527C75.4374 90.3431 74.6671 90.534 73.8969 90.7248M159.703 3.43423C159.709 3.32466 159.714 3.2151 159.72 3.10603C155.611 2.90078 151.502 2.69503 147.394 2.48929C147.387 2.62116 147.381 2.75304 147.374 2.88491C151.484 3.06785 155.593 3.25129 159.703 3.43423M92.5295 71.77C110.183 68.9461 127.547 65.0146 144.16 58.1952C127.286 64.0116 110.058 68.4666 92.5295 71.77M86.7924 65.8366C86.8196 65.9531 86.8468 66.0696 86.8746 66.1861C90.9198 65.434 94.9744 64.728 99.0087 63.9199C109.662 61.7856 120.286 59.5145 130.722 56.4615C134.946 55.2256 139.131 53.8528 143.317 52.4869C145.44 51.7938 147.524 50.9768 149.627 50.2188C150.435 49.9277 151.247 49.6451 152.056 49.3586C152.008 49.2153 151.959 49.072 151.911 48.9288C130.721 56.5483 108.916 61.805 86.7924 65.8366M143.626 65.5609C143.547 65.437 143.468 65.313 143.39 65.1891C141.774 66.0607 140.193 67.0076 138.534 67.7899C134.699 69.5995 130.865 71.415 126.962 73.0684C122.326 75.0331 117.631 76.8625 112.93 78.6676C112.201 78.9478 111.363 79.7782 110.466 78.8615C110.444 78.8397 110.158 79.0776 109.995 79.1946C109.478 79.567 109.013 80.1059 108.436 80.2873C99.6007 83.0711 90.751 85.8107 81.9027 88.5523C80.6107 88.9524 79.3049 89.3094 78.006 89.6862C78.7623 89.7903 79.4623 89.6738 80.136 89.47C89.5526 86.6233 98.9686 83.7736 108.375 80.8942C109.306 80.6091 109.721 80.6765 109.587 81.7865C109.542 82.1529 109.794 82.555 109.911 82.9412C110.116 82.5942 110.355 82.262 110.52 81.8961C110.893 81.0667 110.714 80.0618 111.973 79.6037C116.74 77.8699 121.476 76.0396 126.169 74.113C129.274 72.8384 132.29 71.3471 135.337 69.9346C137.321 69.015 139.307 68.0983 141.257 67.1102C142.093 66.6858 142.839 66.083 143.626 65.5609M19.2206 57.167C19.2756 57.2642 19.331 57.3608 19.3855 57.4575C21.1829 56.3004 22.9525 55.0976 24.7821 53.9946C31.2558 50.0903 37.9711 46.6408 45.0418 43.9715C51.2611 41.6236 57.4938 39.223 63.8868 37.4462C71.9169 35.2147 80.0949 33.4934 88.2527 31.7592C91.6771 31.0309 95.213 30.8227 98.7003 30.4003C100.739 30.1529 102.783 29.9427 104.825 29.7275C106.883 29.5108 108.943 29.3086 111.001 29.0994C109.405 28.9189 107.817 28.7647 106.269 28.9477C101.542 29.5054 96.8238 30.1464 92.1152 30.8395C79.7949 32.6516 67.6355 35.2296 55.888 39.4065C48.9276 41.8814 42.0812 44.7033 35.2802 47.5971C29.5134 50.0512 24.1108 53.2058 19.2206 57.167M123.219 2.17745C104.598 1.90973 75.1077 6.18626 41.2416 23.4312C32.6453 27.8089 24.4846 32.9684 16.9916 39.1026C49.0019 16.3679 84.4535 3.6598 123.219 2.17745M172.573 8.8312C172.359 9.03992 172.119 9.45092 171.934 9.42712C170.123 9.1951 168.323 8.88276 166.516 8.61405C166.177 8.56349 165.823 8.60463 165.476 8.60315C165.705 8.85847 165.893 9.17626 166.17 9.35821C167.767 10.4097 169.432 11.3656 170.99 12.4712C176.25 16.2043 179.481 21.2562 180.394 27.6676C180.642 29.4067 180.431 31.2118 180.431 33.3377C184.249 30.5034 187.36 27.5565 189.15 23.5313C190.022 21.5706 190.182 19.3634 188.757 17.4829C185.878 13.6823 181.524 12.3204 177.321 10.7305C175.709 10.1207 173.736 10.4043 172.573 8.8312M96.8926 34.241C97.1361 33.9465 97.3801 33.651 97.6796 33.2886C97.3301 33.2425 97.051 33.128 96.8218 33.1915C96.3075 33.3328 95.8184 33.5633 95.3189 33.7576C95.8605 33.9044 96.402 34.0516 96.9435 34.1984C96.6064 34.4507 96.2891 34.8751 95.9273 34.9182C95.2382 35 94.4918 34.7135 93.827 34.8538C92.8676 35.0556 91.9855 35.6237 91.0262 35.824C83.6357 37.3644 76.213 38.756 68.8478 40.4074C65.9451 41.0584 63.1319 42.1679 60.3346 43.2189C55.5801 45.0052 50.5463 45.9963 45.9739 48.2976C45.5893 48.491 45.0874 48.4414 44.6913 48.6189C43.2004 49.2867 41.7139 49.9679 40.259 50.7101C38.9161 51.3947 37.6483 52.2331 36.2876 52.8761C34.9733 53.4973 33.565 53.9147 32.2285 54.4923C28.6382 56.0446 25.7355 58.6419 22.7025 61.0058C21.0264 62.3126 19.6132 63.9779 18.1851 65.5748C17.4351 66.4132 16.8674 67.4275 16.2932 68.4076C15.6729 69.4666 16.2045 70.0239 17.2639 70.1448C20.3819 70.5008 23.504 71.0972 26.625 71.0987C41.2783 71.1051 55.7513 69.0323 70.1972 66.8613C78.2772 65.6472 86.3177 64.1544 94.3487 62.6423C107.635 60.1406 120.819 57.1764 133.807 53.3833C142.947 50.7135 151.985 47.7523 160.796 44.1153C161.916 43.6532 161.8 43.2308 161.139 42.5001C158.94 40.0668 156.064 38.524 153.125 37.4769C149.348 36.1309 145.311 35.5196 141.396 34.5538C141.116 34.4849 140.935 34.0729 140.671 33.8682C140.357 33.6238 140.003 33.4304 139.666 33.2153C139.533 33.3774 139.399 33.5395 139.266 33.7016C139.627 33.7685 139.99 33.835 140.351 33.9019C140.265 34.0149 140.18 34.1275 140.094 34.2405C139.397 34.1181 138.674 33.8132 138.008 33.9074C135.916 34.2038 133.909 33.5311 131.837 33.5261C128.31 33.5177 124.784 33.2063 121.258 33.012C120.333 32.9609 119.41 32.8206 118.485 32.8147C117.656 32.8092 116.827 32.9297 115.998 32.9986C115.381 33.0502 114.764 33.1002 114.148 33.1647C113.572 33.2252 112.839 33.5638 112.454 33.3263C111.314 32.6233 110.273 33.0616 109.224 33.3461C108.314 33.5925 107.474 33.9887 106.922 32.7815C106.834 32.5871 106.419 32.5301 106.143 32.4483C106.108 32.4379 105.912 32.713 105.945 32.7755C106.5 33.8459 105.559 33.3536 105.234 33.4418C104.798 33.5603 104.342 33.6109 103.893 33.6783C103.125 33.7933 102.356 33.9059 101.587 34.0055C100.653 34.127 99.5765 33.9842 98.8216 34.4135C97.9811 34.892 97.5074 34.5727 96.8926 34.241M37.7107 34.7864C36.142 35.4918 34.5154 36.0947 33.0121 36.9212C26.1325 40.7024 19.831 45.3101 14.2364 50.8132C12.296 52.7219 10.8154 55.0972 9.09423 57.2339C7.00183 59.8303 5.83459 62.8015 5.67273 66.1063C5.6252 67.0705 5.84697 68.31 6.44049 68.9907C7.79632 70.5469 9.66399 71.4428 11.8564 71.9955C10.3615 69.2629 9.73081 66.5435 11.2941 63.9016C12.3806 62.0657 13.734 60.3137 15.265 58.8318C19.9305 54.3168 25.5365 51.1439 31.2414 48.1687C40.1922 43.501 49.5865 39.9136 59.2001 36.8865C71.659 32.9629 84.3624 30.1653 97.3569 28.7816C101.856 28.3027 106.37 27.9368 110.884 27.6358C120.069 27.0241 129.224 27.4311 138.322 28.8083C143.269 29.5565 148.138 30.5753 152.844 32.4414C157.631 34.3407 161.975 36.6024 164.315 41.508C164.6 42.1049 164.929 42.3082 165.579 41.9686C167.133 41.157 168.742 40.4496 170.277 39.6068C171.528 38.9196 172.969 38.3257 173.86 37.289C175.852 34.9753 177.104 32.2232 177.289 29.0924C177.433 26.6468 177.034 24.1952 175.62 22.2701C173.926 19.9623 172.163 17.5013 169.464 16.2668C168.16 15.6709 167.647 13.897 165.91 14.068C165.769 14.0824 165.593 13.6278 165.415 13.4047C164.865 12.7151 163.69 12.9689 163.313 12.0136C163.234 12.0517 163.157 12.1107 163.074 12.1241C162.706 12.1816 162.287 12.3641 161.973 12.255C158.196 10.9427 154.457 9.53074 150.515 8.73354C146.903 8.00326 143.312 7.5774 139.594 7.81388C137.283 7.96063 134.936 8.73453 132.564 7.87585C132.108 7.71076 131.404 8.40434 130.786 8.48069C126.726 8.98489 122.666 9.52875 118.59 9.8629C114.621 10.1891 110.805 11.7042 106.714 11.2288C105.776 11.1197 104.521 11.1127 103.626 12.2248C103.225 12.722 102.089 12.0646 101.154 12.544C100.155 13.0562 98.8013 12.8742 97.6024 12.9982C97.5618 13.0021 97.5262 13.0497 97.4846 13.0601C94.8487 13.6863 92.3043 14.6575 89.7233 15.3942C79.9499 18.1839 70.216 21.0584 60.7242 24.7108C58.5853 25.5338 56.4919 26.502 54.3064 27.1673C51.3863 28.0563 48.3891 28.6318 45.8215 30.4855C44.8616 31.1786 43.5771 31.4116 42.4623 31.9039C42.0307 32.0948 41.6594 32.422 41.2604 32.6878C40.0774 33.3873 38.8943 34.0868 37.7107 34.7864M124.993 70.0149C124.633 70.2405 124.3 70.5801 123.909 70.6743C117.187 72.294 110.501 74.112 103.719 75.4218C95.0783 77.0901 86.3632 78.3737 77.6684 79.7494C75.4651 80.0984 73.2128 80.1252 70.9932 80.382C69.5913 80.5446 68.2157 80.9442 66.8133 81.0895C63.1572 81.4688 59.4936 81.7875 55.8291 82.0761C55.1905 82.1266 54.5297 81.8332 53.8832 81.851C53.4877 81.8624 53.104 82.3022 52.708 82.314C49.2687 82.4201 45.8269 82.557 42.3876 82.5198C37.7107 82.4692 33.0156 82.5 28.3649 82.088C21.271 81.4593 14.2334 80.3389 8.1849 76.1228C4.22383 73.3624 0.783518 70.1984 0.119215 64.9595C-0.360944 61.1728 0.636005 57.7867 2.62891 54.6961C4.13374 52.362 5.96627 50.2416 7.59782 47.9863C8.04976 47.3621 8.24529 46.5565 8.66753 45.905C9.32193 44.8956 9.94367 43.8159 10.7985 42.9949C15.6165 38.3663 20.9774 34.417 26.6131 30.8658C30.785 28.2367 35.0179 25.6756 39.3779 23.3777C53.3169 16.0308 67.7964 10.026 83.1348 6.23931C93.3844 3.70938 103.753 1.78777 114.288 1.1507C120.647 0.765486 127.049 1.04411 133.431 1.07287C138.6 1.09617 143.767 1.19582 148.936 1.25432C158.411 1.3619 167.769 2.37873 176.862 5.15902C181.41 6.54916 185.666 8.54068 189.061 12.0478C192.964 16.0799 194.21 23.2483 191.69 28.2798C189.64 32.3719 186.696 35.7368 182.923 38.3564C180.944 39.7297 178.891 41.0197 177.052 42.562C175.483 43.8768 174.27 45.612 172.723 46.9576C170.305 49.0606 167.699 50.9456 165.257 53.0223C164.474 53.6872 164.009 54.7124 163.309 55.4923C161.408 57.6097 159.67 59.9463 157.48 61.7147C154.12 64.4266 150.473 66.7889 146.878 69.1944C144.958 70.4795 142.891 71.5444 140.89 72.708C139.438 72.7927 138.201 73.2984 137.338 74.5344C135.007 75.5909 132.678 76.6538 130.341 77.6994C129.838 77.9245 129.307 78.0861 128.795 78.272C126.919 79.0187 125.038 79.7702 123.157 80.5213C122.536 80.9398 121.967 81.4945 121.286 81.7548C107.581 86.9877 93.6007 91.3401 79.3301 94.7366C70.3398 96.8764 61.3831 99.1926 52.3239 100.99C44.377 102.566 36.3118 103.548 28.2917 104.744C27.0101 104.936 25.6889 104.846 24.389 104.935C22.8916 105.036 21.6091 104.588 20.5096 103.574C20.3829 103.457 20.2265 103.364 20.0711 103.284C19.6607 103.072 19.2429 102.873 18.8281 102.669C19.1904 102.403 19.5538 102.137 19.9602 101.839C19.8602 101.755 19.7805 101.659 19.6785 101.607C19.2786 101.404 18.8717 101.215 18.4672 101.02C18.9276 100.742 19.3731 100.249 19.8493 100.217C35.9104 99.1197 51.3685 94.9091 66.8732 91.0099C85.0084 86.4488 102.903 81.0657 120.345 74.2662C124.361 72.7005 128.332 71.005 132.261 69.2311C135.131 67.9367 137.898 66.4166 140.6 64.7151C139.188 65.1931 137.784 65.6943 136.363 66.1439C133.369 67.0914 130.363 67.9981 127.373 68.9584C126.971 69.0873 126.638 69.4304 126.274 69.6743C125.847 69.7879 125.42 69.9014 124.993 70.0149" fill="black"/>
</svg>
