<svg width="56" height="52" viewBox="0 0 56 52" fill="none" xmlns="http://www.w3.org/2000/svg">
<path fill-rule="evenodd" clip-rule="evenodd" d="M40.2549 37.7637C40.3311 37.8467 40.4068 37.9293 40.483 38.0124C40.9334 37.5815 41.3944 37.1612 41.8218 36.7083C41.8925 36.633 41.8135 36.4155 41.8034 36.2641C41.6634 36.2995 41.4715 36.2884 41.393 36.3775C40.9972 36.8253 40.6313 37.2993 40.2549 37.7637M44.4901 42.4729C44.592 42.5918 44.6939 42.7106 44.7958 42.8294C45.4345 42.2219 46.0735 41.6149 46.7126 41.0073C46.6515 40.9399 46.59 40.872 46.5285 40.8045C45.849 41.3606 45.1696 41.9168 44.4901 42.4729M49.0747 44.5222C49.0154 44.4437 48.9567 44.3652 48.8979 44.2868C47.9646 44.8558 47.0271 45.4174 46.1029 46.0011C45.9693 46.085 45.9023 46.2736 45.804 46.414C46.0001 46.442 46.2618 46.5655 46.3811 46.4829C47.2943 45.8519 48.1803 45.1811 49.0747 44.5222M6.09588 14.7268C6.31212 14.8677 6.58575 15.1847 6.82172 15.159C7.07239 15.1315 7.28725 14.7791 7.51818 14.5685C7.12014 14.1601 6.72164 13.7513 6.3236 13.3424C6.25795 13.7393 6.19275 14.1362 6.09588 14.7268M27.5708 14.4776C27.6599 14.384 27.7494 14.2904 27.8389 14.1968C26.525 12.8996 25.211 11.6024 23.8971 10.3057C23.7791 10.4287 23.6606 10.5512 23.5431 10.6742C24.8851 11.9424 26.2279 13.2103 27.5708 14.4776M23.5119 28.0084C23.2943 28.6425 23.0073 29.0688 23.0514 29.4575C23.1001 29.8851 23.359 30.461 23.6992 30.6353C24.0408 30.8102 24.5949 30.5688 25.0559 30.5096C24.9957 30.1935 25.0265 29.8131 24.8571 29.5745C24.4655 29.022 23.977 28.5379 23.5119 28.0084M50.9519 44.2C51.989 43.0804 53.0257 41.9608 54.0628 40.8412C54.0114 40.7889 53.96 40.7371 53.9076 40.6847C53.0046 41.591 52.1686 42.5794 51.1847 43.387C48.9842 45.1926 46.7131 46.9133 44.463 48.6578C44.0085 49.0098 43.515 49.3112 43.0425 49.6416C42.4902 50.028 41.9232 50.7342 41.4697 49.5443C41.2755 49.6246 40.9862 49.6494 40.9008 49.794C40.1856 51.0141 39.4372 51.1513 38.2004 50.0716C38.5562 51.1279 38.3721 51.4261 37.318 51.1898C36.6748 51.0462 35.9095 51.4637 35.1956 51.6152C31.9341 52.3044 28.7039 51.7501 25.441 51.5073C20.2716 51.1219 15.8229 48.9414 11.6772 46.1837C8.21831 43.883 5.66479 40.6026 3.21961 37.1997C0.000393707 32.7208 -0.28884 27.8331 0.173016 22.6852C0.544888 18.5477 1.88684 14.7272 3.97851 11.1693C5.65147 8.32436 8.04523 6.09983 10.3531 3.77618C12.6799 1.43463 15.6048 1.24788 18.5302 0.956045C19.2276 0.886299 20.0158 1.32175 20.7022 1.65029C21.4795 2.02197 22.1488 2.62628 22.9339 2.97088C26.2289 4.4172 28.6056 7.01387 31.1041 9.44076C33.2384 11.5134 35.2557 13.7058 37.3244 15.8455C41.9623 20.6424 46.6584 25.3842 51.2035 30.2673C52.6938 31.8687 53.802 33.8285 55.0558 35.6442C55.3368 36.0503 55.537 36.5257 55.7046 36.9937C56.1099 38.1271 56.2334 39.1412 55.1807 40.1419C53.7704 41.4818 52.5423 43.0125 51.2357 44.4616C51.1411 44.3744 51.0465 44.2872 50.9519 44.2" fill="black"/>
</svg>
