<svg width="51" height="55" viewBox="0 0 51 55" fill="none" xmlns="http://www.w3.org/2000/svg">
<path fill-rule="evenodd" clip-rule="evenodd" d="M37.9932 12.2912C37.9097 12.2224 37.8268 12.154 37.7434 12.0852C37.2703 12.6506 36.7967 13.2164 36.3231 13.7818C36.4276 13.8683 36.5317 13.9548 36.6361 14.0417C37.0882 13.4582 37.5407 12.8747 37.9932 12.2912V12.2912ZM38.838 10.9186C38.9237 10.9739 39.0102 11.0291 39.0959 11.0843C39.6394 10.4171 40.1829 9.75027 40.7265 9.08302C40.5839 8.978 40.4421 8.87297 40.3 8.7684C39.8125 9.485 39.3255 10.202 38.838 10.9186V10.9186ZM44.2001 9.73352C44.1508 9.63212 44.1019 9.53072 44.0531 9.42887C43.7988 9.5022 43.5454 9.57553 43.2911 9.64932C43.3423 9.47911 43.3929 9.3089 43.4436 9.13915C43.5068 9.20388 43.5701 9.26862 43.6333 9.33335C43.1777 9.63121 42.7216 9.92862 42.2655 10.226C42.3799 10.3202 42.5377 10.5194 42.601 10.4922C43.1436 10.2627 43.6692 9.992 44.2001 9.73352V9.73352ZM35.2518 44.317L35.3881 44.8013L38.5295 43.3885C38.482 43.2667 38.4335 43.145 38.386 43.0232C37.3411 43.4542 36.2962 43.8856 35.2518 44.317V44.317ZM32.2548 19.2127C33.4571 17.8351 34.6585 16.4581 35.8603 15.0806L35.541 14.8013C34.7159 15.7515 33.8912 16.7016 33.066 17.6518C32.9759 17.5957 32.8849 17.54 32.7943 17.4839C33.0678 16.9778 33.2777 16.4223 33.6239 15.9737C36.2832 12.5229 38.969 9.09343 41.6462 5.65668C42.596 4.43761 43.5503 3.22216 44.4939 1.99856C45.5078 0.684884 45.711 0.659081 46.9491 1.61424C47.3895 1.95375 47.9582 2.14931 48.3375 2.53952C49.6618 3.89937 49.4179 4.70786 47.5662 5.15284C47.6572 5.25017 47.7469 5.40816 47.8039 5.39729C48.334 5.29317 49.1259 4.88169 49.3336 5.08585C49.9986 5.74042 50.5583 6.57064 50.9296 7.43345C51.1054 7.84267 50.9327 8.62762 50.6251 8.9875C49.1416 10.7235 49.1824 12.7285 49.4053 14.7986C49.4264 14.995 49.4206 15.1996 49.3918 15.3952C49.1569 16.9891 48.9138 18.5816 48.6716 20.1741C48.6443 20.3548 48.6115 20.5345 48.5811 20.7151C48.4537 20.6603 48.3268 20.6056 48.1994 20.5508C48.1411 20.7029 47.9878 20.9297 48.0389 20.9958C48.8954 22.1094 48.2201 23.2592 48.151 24.3936C48.1003 25.2315 48.1407 26.078 48.0429 26.9091C47.8837 28.2654 47.6442 29.6116 47.3945 31.2571C47.0926 30.7298 46.9438 30.4695 46.7944 30.2087C46.7101 30.2888 46.5397 30.4052 46.5554 30.4437C46.6796 30.7488 46.8169 31.0548 46.9926 31.3323C47.6209 32.3214 47.3622 33.4332 47.3025 34.458C47.1994 36.2398 46.9191 38.0016 45.9881 39.619C45.6204 40.2582 45.7285 41.1604 45.4746 41.8915C45.3742 42.1803 44.8778 42.3288 44.4499 42.6162C45.1271 43.3478 44.2432 43.8213 43.6737 44.3296C42.8884 45.0318 42.0915 45.7583 41.1879 46.2762C40.3628 46.7488 39.3878 46.9529 38.4833 47.2866C38.2362 47.3775 37.9093 47.4418 37.7792 47.631C37.1842 48.4984 37.0066 47.8601 36.7214 47.1915C36.2303 48.239 35.6545 48.7759 34.4742 48.9035C32.7606 49.0891 31.1009 49.7749 29.4161 50.2394C28.0273 50.6219 26.6424 51.0234 25.2428 51.3616C23.1163 51.8758 20.9902 52.4086 18.8412 52.8106C16.5555 53.2384 14.2495 53.568 11.9423 53.8604C8.67396 54.2746 5.40073 54.6689 2.11942 54.9441C1.44675 55.0007 0.719809 54.5113 0.0417527 54.218C-0.0250663 54.1895 -0.0183396 53.6766 0.110814 53.544C1.46065 52.1556 2.84546 50.8021 4.21458 49.4327C5.02224 48.6256 5.83931 47.8271 6.61647 46.991C9.14752 44.2667 11.6606 41.5266 14.1854 38.797C14.2581 38.7182 14.3832 38.6883 14.7289 38.5068C14.5666 39.0188 14.4711 39.3203 14.3756 39.6218C14.4312 39.663 14.4868 39.7037 14.5424 39.7449C15.7922 38.3266 17.0425 36.9084 18.2883 35.4951C18.6753 34.9822 19.0663 34.4648 19.4574 33.947C21.5561 32.0969 23.458 30.0752 24.8827 27.6348C25.4204 27.0866 25.9581 26.5384 26.4958 25.9902C27.4837 24.7847 28.4721 23.5788 29.4601 22.3728L29.4175 22.4163C30.3677 21.3339 31.3184 20.2511 32.2687 19.1687L32.2548 19.2127Z" fill="black"/>
</svg>
