<svg width="60" height="96" viewBox="0 0 60 96" fill="none" xmlns="http://www.w3.org/2000/svg">
<path fill-rule="evenodd" clip-rule="evenodd" d="M49.1051 90.0766C48.6731 92.769 48.4331 93.1611 45.912 93.8266C44.604 94.1713 43.2267 94.251 41.8849 94.4741C41.6618 94.5106 41.2669 94.689 41.2756 94.7664C41.4589 96.4688 40.2332 95.6681 39.6556 95.5846C37.7547 95.3091 35.8494 94.9824 34.0003 94.4773C33.1042 94.233 32.2985 93.8353 31.8098 92.6528C31.2731 91.3546 29.9165 90.4066 28.9745 89.259C28.6642 88.881 28.3052 88.3099 28.3871 87.9133C28.4563 87.5784 29.1229 87.3559 29.5391 87.1071C29.8003 86.9506 30.0878 86.8371 30.3632 86.7046C30.0834 86.5688 29.8003 86.4401 29.5249 86.2966C29.1638 86.109 28.8087 85.9104 28.4509 85.7168C28.6942 85.3066 28.8938 84.8588 29.1976 84.4999C29.3716 84.2959 29.7191 84.1235 29.9836 84.1301C31.992 84.1791 32.7185 82.7501 33.2192 81.2244C34.3582 77.7581 35.3536 74.2442 36.492 70.7773C36.7985 69.8446 37.2098 68.757 37.9282 68.1902C39.2138 67.1773 40.8703 67.7697 41.9792 69.3286C44.4671 72.8266 46.0167 76.7817 47.2063 80.8415C48.0872 83.847 48.4898 86.9931 49.1051 90.0766" fill="black"/>
<path fill-rule="evenodd" clip-rule="evenodd" d="M8.63645 65.216C11.8972 64.7688 15.1574 64.3215 18.4175 63.8742C18.4519 63.9544 18.4857 64.0346 18.5195 64.1148C17.5514 64.4459 16.6055 64.8904 15.6106 65.089C11.8955 65.828 8.145 66.1831 4.40209 65.3666C3.78409 65.2313 3.29263 64.4895 2.76027 64.009C2.62663 63.8879 2.595 63.5906 2.45918 63.5459C0.600271 62.9279 0.496635 61.1159 0.142635 59.7042C-0.177002 58.4317 0.106635 56.9606 0.349362 55.6177C0.445362 55.0848 1.05845 54.4684 1.59082 54.2219C3.621 53.2788 4.21445 51.4024 4.91045 49.549C5.84973 47.048 6.78682 44.5455 7.803 42.0751C8.69373 39.9091 11.4248 39.6277 12.7628 41.5668C16.365 46.7857 18.5059 52.5893 19.4937 58.8315C19.593 59.462 19.587 60.116 19.5657 60.757C19.5308 61.8331 19.1583 62.6813 17.9594 62.9284C15.3505 63.4673 12.7465 64.0319 10.1365 64.5675C9.62154 64.6728 9.08863 64.6951 8.56391 64.7557C8.58845 64.9095 8.61245 65.0628 8.63645 65.216" fill="black"/>
<path fill-rule="evenodd" clip-rule="evenodd" d="M38.3672 24.6918C38.3525 24.5331 38.3383 24.3749 38.3235 24.2167C37.3374 24.3002 36.349 24.3656 35.3677 24.4884C35.2314 24.5058 35.131 24.8053 35.0137 24.9738C35.1594 25.0491 35.317 25.2067 35.4479 25.1876C36.4237 25.042 37.3946 24.8615 38.3672 24.6918M25.8823 23.1918C25.7197 23.6456 25.6183 23.9298 25.5032 24.2516C25.3657 24.1207 25.2403 24.0575 25.2375 23.9893C25.1972 23.0647 25.2048 22.1369 25.1274 21.2162C25.1066 20.9767 24.8448 20.7504 24.6741 20.5333C24.4554 20.2546 24.217 19.9916 23.9868 19.7216C24.2726 19.5046 24.5475 19.2711 24.8492 19.0791C24.9626 19.0071 25.1715 19.0791 25.2785 19.0033C25.6194 18.7622 25.933 18.4824 26.257 18.2173C25.9445 18.022 25.6488 17.788 25.3145 17.6424C25.0052 17.5076 24.655 17.4667 24.1941 17.3527C24.8034 16.6666 24.8574 15.3847 26.3225 15.8996C26.4746 15.9531 26.9241 15.562 27.0228 15.2975C27.6866 13.5187 28.3766 11.7411 28.8823 9.91492C29.1163 9.07055 28.8894 8.10946 28.9886 7.21382C29.1403 5.84582 29.383 4.4871 29.6061 3.12728C29.7588 2.2011 32.3475 0.602915 33.1477 1.01528C33.6425 1.27055 34.0532 1.75764 34.4012 2.21637C37.8059 6.71092 39.3414 11.9729 40.4661 17.3729C40.8261 19.1026 40.9275 20.8987 41.0105 22.6709C41.0743 24.0346 40.4448 25.0229 39.007 25.3949C38.0606 25.6393 37.147 26.0069 36.2137 26.3026C35.7675 26.4438 34.8141 26.1967 35.5968 27.1851C35.3486 27.2511 35.0557 27.4371 34.8594 27.3635C33.3135 26.7869 31.7797 26.1771 30.2579 25.5395C29.7861 25.342 29.4125 24.8598 28.969 25.6562C28.8337 25.8984 28.1765 25.9164 27.7668 25.8907C27.6719 25.8853 27.7063 25.2122 27.5192 24.9722C27.0479 24.3673 26.4845 23.8344 25.8823 23.1918" fill="black"/>
<path fill-rule="evenodd" clip-rule="evenodd" d="M47.6324 94.8871C45.786 95.2166 43.9396 95.5455 42.0933 95.8744C42.0595 95.6382 42.0262 95.4026 41.9929 95.167C42.8924 95.0661 43.7935 94.9821 44.6902 94.8593C45.6589 94.7268 46.6222 94.5577 47.5876 94.4039C47.6029 94.5653 47.6176 94.7262 47.6324 94.8871" fill="black"/>
<path fill-rule="evenodd" clip-rule="evenodd" d="M44.3885 43.2828C44.1332 43.0587 44.0743 42.9877 43.9996 42.9447C43.4514 42.6267 42.9 42.3141 42.3496 41.9994C42.8607 41.3896 43.2981 40.3488 43.8954 40.2474C46.0047 39.8879 46.6052 38.3841 47.1403 36.7063C47.9209 34.2594 48.6256 31.7814 49.5496 29.389C49.842 28.6325 50.6743 27.6817 51.3665 27.5847C52.2354 27.4636 53.6847 27.8563 54.0605 28.5043C55.428 30.8628 56.6536 33.3507 57.5498 35.9225C58.4705 38.5652 59.0454 41.3443 59.5701 44.1016C59.8358 45.5007 59.7425 46.9908 59.6285 48.4254C59.5936 48.8667 59.0291 49.4732 58.5752 49.6368C56.9138 50.2363 55.1961 50.6803 53.5058 51.181C53.6754 51.3736 53.9176 51.6485 54.1598 51.9239C53.9574 52.0297 53.7065 52.2703 53.5625 52.2174C53.0863 52.0423 52.6587 51.739 52.1923 51.5301C51.8514 51.3774 51.4789 51.2028 51.1211 51.2039C50.6427 51.2056 50.0247 51.6059 49.7111 51.421C48.2438 50.5565 46.3112 50.647 45.3043 48.7188C44.6934 47.5494 44.3312 45.8732 42.6229 45.4183C42.4151 45.3627 42.2541 44.6437 42.3081 44.2657C42.3436 44.017 42.7761 43.7688 43.0805 43.6287C43.4372 43.4645 43.8485 43.4187 44.3885 43.2828" fill="black"/>
<path fill-rule="evenodd" clip-rule="evenodd" d="M58.6721 50.721C57.5327 51.5529 56.307 52.2521 54.7568 51.5643C56.0616 51.2834 57.3668 51.0019 58.6721 50.721" fill="black"/>
</svg>
