<svg width="111" height="53" viewBox="0 0 111 53" fill="none" xmlns="http://www.w3.org/2000/svg">
<mask id="mask0" mask-type="alpha" maskUnits="userSpaceOnUse" x="0" y="0" width="111" height="53">
<path fill-rule="evenodd" clip-rule="evenodd" d="M0.207275 0.315063H110.443V52.7176H0.207275V0.315063Z" fill="white"/>
</mask>
<g mask="url(#mask0)">
<path fill-rule="evenodd" clip-rule="evenodd" d="M6.44617 43.8259C5.89279 44.2475 5.30835 44.653 5.09918 45.3675C5.61901 44.916 6.24114 44.5619 6.44617 43.8259M42.2004 19.4754C44.7577 18.6283 47.1737 17.4363 49.6668 16.4327C53.2414 14.9929 56.8093 13.5345 60.5085 12.4178C62.7813 11.7323 64.9662 10.7917 67.2716 10.1679C72.6484 8.71361 77.9816 7.11438 83.435 5.93349C87.8123 4.9858 92.1763 3.98261 96.5784 3.1513C100.481 2.41485 104.427 2.02219 108.365 1.56284C108.917 1.49823 109.481 1.49201 109.979 1.77574C109.951 2.30468 109.306 1.88923 109.27 2.35397C109.65 2.57764 110.495 2.00687 110.44 2.72012C110.395 3.30332 109.948 3.93373 109.144 4.16568C108.028 4.48793 106.89 4.3003 105.773 4.5074C100.815 5.4261 95.8333 6.19817 90.9287 7.40764C87.9121 8.15154 84.854 8.77243 81.9248 9.79012C80.3007 10.3538 78.5615 10.4048 77.0024 11.1421C76.6193 11.3231 76.1442 11.2601 75.9056 11.794C75.817 11.992 75.2939 12.4866 74.9588 11.7816C74.8879 11.6329 74.6262 11.7953 74.4485 11.8524C72.5282 12.47 70.5032 12.8693 68.7089 13.7424C66.9622 14.5924 65.0975 15.0418 63.3284 15.7886C62.0784 16.3159 60.6166 16.2123 59.3517 16.8485C58.8294 17.1107 58.2453 17.2499 57.7959 17.6562C57.5855 17.7183 57.3755 17.7809 57.1651 17.843C55.7017 18.1731 54.2951 18.6478 53.0301 19.4791C51.4918 19.8225 50.0537 20.4073 48.7262 21.2602C47.1468 21.7821 45.5567 22.2439 44.2387 23.3709C43.6911 23.839 42.9129 24.0304 42.2584 24.382C40.0292 25.5795 37.8132 26.8009 35.5811 27.9918C35.1681 28.2121 34.7858 28.594 34.2391 28.4321C32.9733 28.7862 31.8947 29.4792 30.8799 30.2869C29.8833 31.1438 28.6374 31.5788 27.5104 32.205C26.0582 33.0123 24.6478 33.7889 23.4562 35.0083C22.4758 36.0115 21.0712 36.5049 19.9239 37.3569C17.4167 39.2199 14.7633 40.9774 12.6787 43.2559C10.4113 45.7341 7.5438 47.545 5.47114 50.1979C4.94262 50.8747 4.598 51.6795 3.89593 52.2433C3.18019 52.8173 1.73421 52.9416 0.897112 52.2155C0.212438 51.6215 -0.00957417 50.7956 0.445633 49.8865C1.22557 48.3299 2.22546 46.9158 3.30859 45.5692C7.96918 39.7758 13.5795 35.0104 19.6016 30.7106C25.4845 26.5098 31.6984 22.8532 38.174 19.6415C41.4698 18.007 44.8811 16.6427 48.2656 15.2087C51.7478 13.7333 55.2449 12.3081 58.8343 11.1251C62.0307 10.0718 65.2673 9.14355 68.4981 8.20125C72.2818 7.09698 76.0771 6.04533 79.9089 5.15811C89.1 3.02994 98.3276 1.06994 107.782 0.504559C108.419 0.466452 109.096 0.0365115 109.771 0.614322C109.259 1.19255 108.585 1.24391 107.923 1.29154C103.074 1.63781 98.2862 2.37302 93.4972 3.21385C86.4388 4.45272 79.5456 6.36136 72.6044 8.06912C69.2473 8.89503 65.9851 10.0999 62.6615 11.0692C58.3008 12.3399 54.0677 13.969 49.8466 15.6179C47.322 16.6041 44.8161 17.6786 42.4622 19.0554C42.2911 19.1556 42.1532 19.2683 42.217 19.4957C41.6326 19.2994 41.2142 19.7082 40.7582 19.9227C37.2068 21.5944 33.7449 23.4372 30.3174 25.3492C28.166 26.5495 26.1046 27.8973 23.9822 29.1441C21.7484 30.4559 19.6753 32.0613 17.6342 33.6676C17.0559 34.1224 16.0801 34.3158 16.0097 35.3136C14.8226 35.4221 14.3185 36.4013 13.6479 37.1663C14.4929 36.6221 15.3494 36.0915 15.9873 35.2875C16.2155 35.1662 16.4661 35.0742 16.6691 34.9193C22.6617 30.3262 29.0421 26.3441 35.7248 22.8399C37.8791 21.71 40.0416 20.5966 42.2004 19.4754" fill="black"/>
</g>
</svg>
