<svg width="290" height="162" viewBox="0 0 290 162" fill="none" xmlns="http://www.w3.org/2000/svg">
<path fill-rule="evenodd" clip-rule="evenodd" d="M29.069 82.4817C29.1208 82.5964 29.1726 82.7111 29.2244 82.8258C29.7309 82.6158 30.2373 82.4058 30.7438 82.1959C30.6827 82.0599 30.6212 81.9239 30.5606 81.7879C30.0629 82.0192 29.5662 82.2504 29.069 82.4817V82.4817ZM150.544 57.8756C150.535 57.741 150.526 57.606 150.517 57.4709C149.889 57.4709 149.261 57.464 148.634 57.483C148.582 57.4843 148.487 57.6624 148.497 57.7489C148.509 57.8585 148.613 58.0519 148.667 58.0482C149.294 58.0084 149.919 57.9381 150.544 57.8756V57.8756ZM143.187 41.8984C143.195 41.9992 143.203 42.1 143.211 42.2008C144.084 42.1328 144.957 42.0639 145.83 41.9959C145.82 41.872 145.809 41.7485 145.8 41.6245L143.187 41.8984ZM217.583 131.701L217.568 131.621C216.691 131.536 215.815 131.449 214.938 131.367C214.798 131.354 214.652 131.35 214.518 131.379C214.474 131.388 214.456 131.517 214.427 131.592C214.571 131.628 214.715 131.694 214.86 131.696C215.767 131.706 216.675 131.701 217.583 131.701V131.701ZM121.097 75.074C121.107 75.1628 121.117 75.2516 121.127 75.3409C122.178 75.2298 123.229 75.1193 124.28 75.0083C124.27 74.9163 124.26 74.8233 124.25 74.7308C123.199 74.845 122.148 74.9597 121.097 75.074V75.074ZM40.5645 46.3131C40.508 46.1878 40.4516 46.0629 40.3947 45.9375C39.5862 46.3705 38.7777 46.8025 37.9688 47.2354C38.0433 47.3718 38.1177 47.5083 38.1927 47.6442C38.9836 47.2007 39.7745 46.7567 40.5645 46.3131V46.3131ZM134.046 11.3595C134.104 11.4974 134.163 11.6357 134.222 11.7735C134.847 11.6426 135.477 11.533 136.091 11.3632C136.218 11.3281 136.32 11.0774 136.355 10.9095C136.366 10.8559 136.096 10.6537 136.005 10.682C135.345 10.8841 134.697 11.1283 134.046 11.3595V11.3595ZM175.883 113.037C175.867 112.914 175.851 112.79 175.834 112.667C174.31 112.825 172.786 112.984 171.263 113.143C171.273 113.249 171.282 113.354 171.292 113.46C172.822 113.319 174.353 113.178 175.883 113.037V113.037ZM202.342 107.458C202.341 107.595 202.339 107.733 202.338 107.87L205.908 108.078C205.913 107.93 205.916 107.782 205.92 107.634C204.728 107.575 203.535 107.517 202.342 107.458V107.458ZM182.498 78.1132C182.475 77.9934 182.452 77.8736 182.428 77.7538C181.153 77.8792 179.879 78.004 178.605 78.1299C178.627 78.2848 178.648 78.4402 178.67 78.5951C179.946 78.4342 181.222 78.2737 182.498 78.1132V78.1132ZM146.663 10.2999L146.668 9.97846C145.717 10.0566 144.764 10.1154 143.817 10.2338C143.68 10.2509 143.578 10.552 143.459 10.7222C143.627 10.7782 143.808 10.9067 143.959 10.8781C144.864 10.7051 145.762 10.496 146.663 10.2999V10.2999ZM132.225 37.6108C132.207 37.5322 132.189 37.4535 132.172 37.3758C130.596 37.6959 129.021 38.0164 127.445 38.3374C127.476 38.4715 127.506 38.6057 127.537 38.7398C129.099 38.3633 130.662 37.9873 132.225 37.6108V37.6108ZM54.8559 46.7039C54.7953 46.6036 54.7347 46.5032 54.6741 46.4033L48.3029 48.708C48.3445 48.8227 48.3861 48.9365 48.4273 49.0503C50.5702 48.2677 52.713 47.4856 54.8559 46.7039V46.7039ZM92.813 123.797C92.4851 122.981 91.3681 122.428 90.7863 122.695C90.6114 122.776 90.3779 122.722 90.1725 122.747C89.8982 122.78 89.6253 122.829 89.3515 122.872C89.5518 123.075 89.7271 123.417 89.956 123.457C90.8654 123.618 91.7918 123.684 92.813 123.797V123.797ZM155.577 76.0541C155.569 76.1466 155.561 76.2386 155.553 76.3311H161.474C161.47 76.2386 161.466 76.1466 161.462 76.0541H155.577ZM183.089 119.339C183.088 119.383 183.087 119.428 183.087 119.472H194.548C194.549 119.428 194.549 119.383 194.55 119.339H183.089ZM148.48 9.75275L148.496 10.2934C150.007 10.3915 151.517 10.5034 153.03 10.5686C153.193 10.5756 153.369 10.3143 153.539 10.1773C153.399 10.015 153.259 9.7139 153.117 9.71251C151.571 9.6991 150.026 9.7324 148.48 9.75275V9.75275ZM223.72 159.851C223.714 159.908 223.708 159.966 223.702 160.023C227.303 159.539 230.905 159.066 234.501 158.552C234.889 158.497 235.243 158.199 235.612 158.013C235.286 158.101 234.96 158.19 234.633 158.277C234.593 158.287 234.549 158.281 234.507 158.287C230.911 158.808 227.316 159.329 223.72 159.851V159.851ZM39.361 67.1159C37.6719 66.9114 33.1581 68.891 32.8598 69.8984C34.9939 68.9849 37.0313 68.1135 39.361 67.1159V67.1159ZM35.4536 63.5762C34.5517 63.7769 34.7307 65.6205 33.3006 64.7427C33.2349 64.8902 33.1725 65.0387 33.1017 65.1839C33.0666 65.2556 33.03 65.3412 32.969 65.3833C32.8455 65.4679 32.5832 65.5576 32.5911 65.5905C32.6383 65.7736 32.721 66.0622 32.8432 66.0905C33.2714 66.1885 33.7617 66.3314 34.1539 66.2116C35.5221 65.7935 35.6909 65.3786 35.4536 63.5762V63.5762ZM230.875 91.1299C230.847 90.9255 230.82 90.7201 230.792 90.5157C227.736 90.8404 224.679 91.1655 221.623 91.4907C221.63 91.5822 221.637 91.6738 221.644 91.7649C224.721 91.5536 227.798 91.3417 230.875 91.1299V91.1299ZM159.075 71.5958C159.08 71.4446 159.085 71.2933 159.09 71.1416C154.478 70.9909 149.865 70.8405 145.252 70.6902C149.861 70.9576 154.451 71.7549 159.075 71.5958V71.5958ZM143.121 52.6977C143.118 52.812 143.115 52.9253 143.113 53.0391C143.439 53.0664 143.765 53.1038 144.092 53.1195C146.344 53.2232 148.596 53.3448 150.849 53.404C151.254 53.4142 151.997 53.1991 152.017 53.0229C152.102 52.287 151.591 52.0373 150.883 52.0946C148.296 52.3046 145.709 52.4979 143.121 52.6977V52.6977ZM14.982 53.275C15.1199 53.3651 15.2572 53.4549 15.3951 53.5451L23.0479 41.2249C22.2288 42.0223 21.516 42.9251 20.7755 43.8044C20.573 44.0454 20.4028 44.8576 19.9583 43.957C19.8413 44.0287 19.6771 44.074 19.6188 44.1786C19.5415 44.3169 19.5138 44.6439 19.5217 44.6457C20.4037 44.8511 19.7691 45.2391 19.6091 45.5097C18.0749 48.1035 16.5264 50.6881 14.982 53.275V53.275ZM217.837 111.873C217.836 111.777 217.835 111.682 217.834 111.587L198.169 112.148C198.178 112.35 198.187 112.552 198.195 112.755C204.742 112.46 211.29 112.167 217.837 111.873V111.873ZM218.228 36.7843C218.246 36.6927 218.263 36.6011 218.281 36.5091C217.372 35.7117 216.23 35.0628 215.609 34.0827C214.595 32.4819 213.193 31.3649 211.784 30.2109C211.682 30.1286 211.484 30.1647 211.331 30.1457C211.337 30.3252 211.274 30.5583 211.363 30.6772C213.063 32.9454 214.458 35.5336 217.376 36.5535C217.653 36.6506 217.943 36.7084 218.228 36.7843V36.7843ZM236.417 95.7676C229.637 96.5775 223.244 97.3406 216.852 98.1042C223.351 98.1431 229.793 97.7162 236.417 95.7676V95.7676ZM192.428 93.1608C192.7 93.1095 192.91 93.0965 193.1 93.0285C193.397 92.9208 193.682 92.7769 193.972 92.6479C193.676 92.4721 193.391 92.165 193.083 92.1405C189.298 91.8403 185.509 91.5762 181.721 91.3288C181.525 91.3163 181.19 91.499 181.145 91.6558C181.097 91.8214 181.293 92.2242 181.429 92.2473C182.33 92.4 183.242 92.523 184.155 92.5693C185.166 92.6206 186.187 92.5124 187.195 92.5938C188.968 92.7376 190.734 92.9726 192.428 93.1608V93.1608ZM218.964 92.7256C218.563 92.6539 218.162 92.517 217.761 92.5198C212.975 92.5498 208.189 92.5915 203.402 92.665C203.075 92.6696 202.753 92.9467 202.427 93.097C202.741 93.2358 203.048 93.4763 203.369 93.4975C208.574 93.8412 213.755 93.5137 218.964 92.7256V92.7256ZM125.583 57.8988C125.604 58.1212 125.627 58.3437 125.648 58.5662C127.566 58.4163 129.483 58.2558 131.402 58.1217C132.274 58.0606 133.15 58.0079 134.023 58.0324C135.194 58.0648 136.367 58.2785 137.532 58.2309C139.575 58.1481 141.61 57.8659 143.653 57.7868C144.637 57.7484 145.629 58.0135 146.621 58.0708C146.859 58.0847 147.112 57.8188 147.358 57.6814C147.247 57.5412 147.153 57.3026 147.019 57.2776C146.229 57.1314 145.43 56.9562 144.631 56.9395C143.34 56.9127 142.046 57.0204 140.753 57.0343C139.187 57.0524 137.619 56.995 136.054 57.0371C134.382 57.0829 132.71 57.168 131.044 57.3081C129.219 57.4617 127.403 57.698 125.583 57.8988V57.8988ZM122.51 46.8908C123.051 46.969 123.631 47.2025 124.148 47.1049C129.067 46.1767 133.967 45.1531 138.888 44.2401C141.192 43.8132 143.531 43.5745 145.85 43.2267C146.036 43.1985 146.193 42.9843 146.365 42.8567C146.204 42.7378 146.057 42.551 145.881 42.5163C145.599 42.4603 145.292 42.4723 145.004 42.5135C141.646 42.9927 138.287 43.4631 134.935 43.9774C133.092 44.2604 131.241 44.538 129.43 44.9713C127.134 45.5213 124.876 46.2266 122.51 46.8908V46.8908ZM53.8772 30.7239C61.3043 29.5708 68.7319 28.4173 76.1595 27.2642C68.4521 26.6666 61.098 28.2804 53.8772 30.7239V30.7239ZM126.425 51.4975L126.493 51.9447C126.836 51.929 127.188 51.9609 127.519 51.8892C129.031 51.5632 130.523 51.1155 132.048 50.8791C137.802 49.9883 143.567 49.1664 149.324 48.3006C149.513 48.2723 149.673 48.0494 149.846 47.9176C149.659 47.7922 149.465 47.5508 149.284 47.5605C147.291 47.6711 145.274 47.6627 143.315 47.993C139.081 48.7066 134.873 49.5785 130.662 50.4295C129.236 50.7181 127.837 51.1377 126.425 51.4975V51.4975ZM242.206 100.049C231.853 102.208 221.337 102.991 210.819 103.759C221.444 103.893 231.969 103.185 242.206 100.049V100.049ZM129.214 53.2139C129.849 53.2911 130.141 53.4072 130.388 53.3439C132.649 52.7634 134.997 53.5224 137.324 52.5224C139.064 51.7745 141.214 51.9582 143.187 51.7935C143.603 51.7588 144.044 52.0164 144.474 52.139C144.859 50.4827 146.393 52.6353 147.071 51.3721C147.211 51.1104 148.503 51.5507 149.252 51.4975C149.672 51.4674 150.066 51.0886 150.472 50.8671C150.199 50.6252 149.943 50.2024 149.65 50.1747C148.794 50.0947 147.919 50.1229 147.058 50.1941C141.151 50.6839 135.329 51.6825 129.214 53.2139V53.2139ZM223.458 112.615C223.453 112.508 223.447 112.401 223.441 112.293C222.297 112.369 221.154 112.483 220.009 112.516C212.742 112.721 205.474 112.886 198.208 113.134C197.395 113.162 196.597 113.623 195.792 113.884C195.836 114.04 195.881 114.198 195.926 114.354C205.152 114.535 214.321 113.823 223.458 112.615V112.615ZM167.257 2.47685C146.099 3.42224 125.104 5.5984 104.546 11.0816C125.154 5.97767 146.178 4.01982 167.257 2.47685V2.47685ZM176.563 10.3721C176.563 10.2629 176.563 10.1542 176.563 10.046C175.361 9.71066 174.16 9.37071 172.955 9.0488C172.855 9.0229 172.721 9.16258 172.605 9.16027C171.028 9.12095 169.452 9.07192 167.875 9.02058C167.355 9.00347 166.835 8.97618 166.315 8.94519C165.367 8.88784 164.415 8.75094 163.469 8.78054C162.245 8.81893 161.023 8.97803 159.801 9.10384C158.74 9.21253 157.678 9.32261 156.624 9.48079C156.106 9.55803 155.598 9.72593 155.099 9.8929C154.94 9.94562 154.705 10.1376 154.714 10.2467C154.729 10.4012 154.915 10.6246 155.068 10.6648C155.344 10.7365 155.65 10.7046 155.942 10.6986C157.712 10.6598 159.482 10.5932 161.252 10.5816C162.392 10.5737 163.533 10.6778 164.673 10.6709C166.327 10.6611 167.981 10.5978 169.635 10.5548C171.944 10.4951 174.253 10.4331 176.563 10.3721V10.3721ZM200.496 129.629C200.491 129.689 200.486 129.749 200.482 129.81C201.423 129.99 202.358 130.274 203.306 130.332C207.93 130.614 212.536 130.223 217.146 129.911C218.901 129.793 220.672 129.95 222.433 129.895C223.499 129.861 224.841 130.009 225.538 129.438C226.18 128.913 226.731 128.831 227.368 128.789C227.966 128.749 228.593 129.031 229.179 128.955C229.877 128.865 230.545 128.546 231.226 128.324C231.401 128.267 231.572 128.2 231.745 128.137C231.577 127.977 231.411 127.682 231.239 127.68C230.534 127.668 229.826 127.731 229.12 127.79C224.399 128.186 219.684 128.663 214.958 128.966C210.142 129.275 205.317 129.415 200.496 129.629V129.629ZM201.713 106.428C206.785 107.777 231.447 106.499 237.588 103.292C237.143 103.343 236.857 103.37 236.573 103.407C230.916 104.127 225.275 105.007 219.599 105.522C214.345 105.999 209.067 106.503 203.77 105.942C203.209 105.882 202.607 106.205 201.713 106.428V106.428ZM181.833 120.527C195.344 121.721 210.631 121.537 225.11 119.566C210.594 119.888 195.311 120.227 181.833 120.527V120.527ZM228.956 125.263C222.147 125.672 215.444 126.232 208.731 126.432C201.965 126.633 195.189 126.476 188.417 126.476C188.418 126.598 188.419 126.72 188.42 126.842C192.008 128.568 224.024 127.34 228.956 125.263V125.263ZM207.352 25.9484C207.89 26.3748 208.427 26.8017 209.166 27.3896C208.824 26.4432 208.596 25.8151 208.397 25.2657C208.044 25.4988 207.682 25.737 207.32 25.9761C207.773 24.7666 207.543 24.1034 205.935 23.7468C206.431 24.528 206.884 25.2435 207.352 25.9484V25.9484ZM85.9455 126.618C85.6042 126.583 85.2638 126.548 84.9234 126.511C84.5977 126.476 84.2721 126.411 83.9456 126.411C83.6838 126.411 83.2074 126.453 83.1935 126.538C83.0576 127.354 82.9165 127.852 81.8444 127.411C81.3754 127.218 80.6293 127.572 80.0544 127.796C79.2815 128.096 79.2205 127.778 79.2746 127.133C79.2913 126.933 79.0498 126.711 78.9263 126.499C78.8292 126.639 78.7631 126.84 78.6294 126.907C78.0452 127.198 77.4379 127.681 76.8441 127.673C74.605 127.645 72.3646 127.308 70.1306 127.356C66.7782 127.428 63.4328 127.862 60.0814 127.902C53.3758 127.981 46.6947 129.445 39.9734 128.339C37.2463 127.891 34.4513 127.558 31.8584 126.671C29.3544 125.814 27.0339 124.38 24.701 123.078C20.9402 120.979 17.2895 118.701 14.2785 115.559C10.2713 111.378 6.61966 106.955 4.61834 101.396C3.81078 99.1523 2.78352 96.9817 2.08465 94.7075C1.59901 93.128 1.16007 91.3958 1.31086 89.7895C1.56802 87.0449 0.987092 84.4474 0.567124 81.8143C-0.81026 73.1749 0.376566 64.8578 3.51569 56.7526C5.39722 51.8934 7.65108 47.2233 10.3517 42.767C13.9696 36.7972 18.4306 31.5481 23.8619 27.162C26.7088 24.8628 29.618 22.6584 33.0823 21.263C36.8273 19.7543 40.4114 17.8265 44.1976 16.4413C50.4212 14.1633 56.7832 12.2277 63.4953 12.1907C68.3661 12.1643 73.2373 12.4728 78.11 12.5695C80.9165 12.6255 83.725 12.5302 86.532 12.5496C92.4439 12.5899 98.0677 10.8947 103.701 9.4942C115.701 6.51141 127.801 4.21916 140.116 3.08275C147.559 2.39591 154.986 1.42739 162.444 1.05044C172.508 0.542131 182.344 1.86864 191.445 6.57432C196.256 9.06175 200.371 12.5135 204.193 16.339C207.65 19.7982 211.349 23.0257 214.662 26.6125C217.16 29.3173 220.143 31.333 223.034 33.4907C225.06 35.0031 227.255 36.2972 229.419 37.6154C234.952 40.9858 241.198 42.5635 247.235 44.6818C251.81 46.2872 256.298 48.1447 260.811 49.9231C261.074 50.0267 261.212 50.4383 261.42 50.6973C261.474 50.7653 261.57 50.843 261.646 50.8426C262.81 50.837 263.633 51.3943 264.443 52.2139C264.978 52.756 265.945 52.8499 266.554 53.3457C269.343 55.6125 272.27 57.7591 274.765 60.321C276.933 62.5471 278.768 65.1608 280.419 67.8092C282.098 70.5024 283.546 73.3751 284.775 76.3029C286.022 79.2727 286.978 82.3767 287.884 85.4742C289.679 91.6165 290.242 97.9336 289.631 104.274C289.007 110.744 287.161 116.951 284.438 122.862C283.362 125.2 282.123 127.47 280.837 129.7C280.159 130.877 279.189 131.883 278.405 133.003C277.864 133.776 277.463 134.647 276.918 135.416C273.816 139.802 269.849 143.304 265.561 146.477C264.793 147.045 264.081 147.687 263.333 148.283C263.105 148.464 262.852 148.626 262.588 148.753C260.247 149.887 257.893 150.996 255.563 152.154C255.21 152.329 255.011 152.86 254.657 152.979C253.521 153.362 252.313 153.564 251.505 154.58C250.903 153.833 250.56 154.836 250.528 154.826C249.006 154.369 248.495 156.01 247.369 156.309C246.925 156.427 246.489 156.737 246.062 156.714C245.592 156.688 244.965 157.777 244.629 156.574C244.233 156.817 243.84 157.067 243.439 157.303C242.966 157.582 242.487 157.849 241.882 157.898C242.09 157.746 242.298 157.593 242.505 157.441C234.08 159.488 225.653 161.342 216.884 160.489C216.894 160.653 216.903 160.816 216.912 160.979C221.566 160.847 226.22 160.715 230.875 160.582C230.883 160.598 230.89 160.613 230.898 160.628C229.002 160.827 227.111 161.098 225.209 161.211C216.742 161.716 208.544 160.224 200.601 157.438C194.943 155.453 189.419 153.09 183.825 150.919C180.946 149.802 178.03 148.774 175.162 147.629C173.902 147.126 172.752 146.345 171.491 145.845C169.785 145.169 168.015 144.658 166.283 144.045C164.832 143.531 163.256 143.18 162.022 142.336C161.492 141.973 161.127 142.012 160.656 141.889C160.375 141.816 160.195 141.394 159.94 141.163C159.817 141.052 159.513 140.923 159.479 140.963C158.877 141.669 158.33 141.164 157.713 140.971C154.962 140.109 152.205 139.267 149.429 138.493C145.961 137.528 142.498 136.53 138.989 135.741C135.048 134.854 131.069 134.117 127.084 133.441C123.194 132.781 119.279 132.254 115.368 131.719C112.162 131.28 108.942 130.947 105.738 130.5C104.443 130.32 103.181 129.915 101.889 129.703C101.352 129.614 100.714 129.939 100.23 129.768C98.9867 129.332 97.5941 129.733 96.392 128.903C95.9711 128.613 95.0979 129.07 94.461 128.978C93.7913 128.881 93.1571 128.535 92.5054 128.304C92.4079 128.269 92.27 128.222 92.1969 128.262C91.16 128.849 90.4199 128.541 90.2053 127.726C89.5379 127.771 88.969 127.836 88.3997 127.838C87.8733 127.841 87.3289 127.677 86.8225 127.762C85.7009 127.953 85.8207 127.316 85.9626 126.613C86.1671 126.88 86.3932 127.397 86.5565 127.377C87.1439 127.308 87.7124 127.067 88.2794 126.866C88.3474 126.841 88.4256 126.612 88.3895 126.569C88.2947 126.454 88.1305 126.306 88.0102 126.32C87.3192 126.395 86.6328 126.514 85.9455 126.618V126.618Z" fill="black"/>
</svg>
