<svg width="75" height="177" viewBox="0 0 75 177" fill="none" xmlns="http://www.w3.org/2000/svg">
<path fill-rule="evenodd" clip-rule="evenodd" d="M3.86934 138.337V122.256C1.78734 127.845 1.87634 133.111 3.86934 138.337M66.3483 42.7642C64.0123 49.4412 61.6753 56.1192 59.3383 62.7972C63.3163 56.6702 65.6363 49.9852 66.3483 42.7642M59.1243 1.69525C63.3593 0.404249 66.9883 0.40125 69.0873 4.83125C70.0033 6.76525 69.3253 10.3932 67.7083 12.0632C69.7813 11.6692 70.9193 12.1252 71.2173 14.4912C71.4623 16.4412 72.8053 18.2362 73.1653 20.1922C74.6203 28.0812 75.7443 36.0472 73.4343 43.9412C72.8413 45.9652 70.3623 47.5002 72.2273 50.0052C70.8473 55.5322 69.4883 61.0733 66.5283 66.0283C65.8203 67.2123 64.8653 68.2502 64.0083 69.3432C60.3843 73.9622 56.7663 78.5863 53.0973 83.1693C52.8503 83.4773 52.1723 83.4052 51.7403 83.6072C51.3633 83.7822 51.0493 84.0953 50.7063 84.3463C52.3073 86.4213 49.9003 87.0683 49.1133 87.6783C46.7413 89.5143 44.0253 90.9062 41.4403 92.4662C41.1403 92.6482 40.6733 92.7202 40.5343 92.9792C39.0073 95.8132 36.9043 97.6433 33.5333 98.1823C32.3443 98.3733 31.3753 99.9363 29.9603 100.419C29.7573 101.058 29.7493 101.903 29.3223 102.304C24.8673 106.493 20.3453 110.611 15.7743 114.811C16.0013 117.237 12.8913 122.254 10.3383 123.035C10.9073 123.401 11.3173 123.666 11.3303 123.674C10.9723 125.093 10.3723 126.354 10.3843 127.61C10.4413 134.015 10.6193 140.338 13.1183 146.495C15.6783 152.804 17.3313 159.476 19.6973 165.872C20.5353 168.138 22.2253 170.117 23.6773 172.117C24.5333 173.296 24.7973 174.076 23.3413 174.956C19.4583 177.304 16.6113 177.172 14.1433 173.214C10.8083 167.866 7.48834 162.298 5.49234 156.377C3.02934 149.069 1.62034 141.353 0.332339 133.717C-1.05066 125.519 2.66434 118.682 7.46534 112.411C12.7153 105.55 19.0493 99.8783 26.3203 95.1702C35.1183 89.4742 42.3853 82.1063 48.9313 73.9453C55.7883 65.3953 60.7553 55.9312 63.1833 45.2542C65.0393 37.0972 65.7573 28.8542 63.5593 20.5782C61.9633 14.5702 60.5263 8.52025 59.0353 2.48525C58.9763 2.24625 59.0903 1.96425 59.1243 1.69525" fill="black"/>
<path fill-rule="evenodd" clip-rule="evenodd" d="M41.4397 38.8305C37.5627 40.9825 36.5197 40.8965 33.5577 37.9845C30.3937 34.8745 27.3807 31.6125 24.2907 28.4275C23.7867 27.9085 23.1527 27.5015 22.7097 26.9405C21.9307 25.9555 21.2527 24.8925 20.5317 23.8615C21.9857 23.6315 23.5407 22.9735 24.8697 23.2825C26.4637 23.6535 28.1537 24.5685 29.3017 25.7395C33.3907 29.9125 37.2667 34.2935 41.4397 38.8305" fill="black"/>
<path fill-rule="evenodd" clip-rule="evenodd" d="M11.7468 66.453C8.46176 65.608 5.03376 64.829 1.68776 63.785C0.971756 63.561 0.554756 62.375 -0.000244141 61.633C0.732756 61.12 1.40376 60.441 2.21576 60.14C3.02876 59.836 4.00176 59.744 4.87176 59.845C8.83076 60.306 12.7808 60.856 16.7298 61.406C17.4438 61.505 18.1808 61.661 18.8218 61.968C19.2608 62.178 19.8798 62.742 19.8338 63.064C19.7618 63.579 19.2928 64.304 18.8338 64.454C16.6128 65.179 14.3378 65.741 11.7468 66.453" fill="black"/>
<path fill-rule="evenodd" clip-rule="evenodd" d="M45.7952 149.253C43.8842 151.5 42.2492 151.63 40.5842 150.274C38.3472 148.452 36.0872 146.63 34.0722 144.578C33.4272 143.92 33.5252 142.533 33.2832 141.48C34.7972 141.336 36.8852 140.491 37.7202 141.176C40.6172 143.55 43.0782 146.456 45.7952 149.253" fill="black"/>
<path fill-rule="evenodd" clip-rule="evenodd" d="M57.6463 133.079C52.0463 135.521 48.1693 131.426 43.7263 129.841C43.3193 129.695 42.8793 128.251 43.0573 128.095C43.9393 127.321 45.3643 126.005 45.9793 126.277C49.8833 128.006 53.6273 130.098 57.4073 132.102C57.5563 132.181 57.5333 132.584 57.6463 133.079" fill="black"/>
<path fill-rule="evenodd" clip-rule="evenodd" d="M25.0452 46.1078C23.6852 46.2828 22.1752 46.9208 20.9922 46.5428C17.7452 45.5028 14.6042 44.1038 11.4952 42.6848C10.8332 42.3828 10.4832 41.3968 9.99023 40.7248C10.8012 40.2988 11.7312 39.3758 12.4022 39.5358C15.0922 40.1778 17.7602 41.0148 20.3222 42.0598C22.0832 42.7778 23.6552 43.9578 25.3122 44.9318C25.2232 45.3238 25.1342 45.7158 25.0452 46.1078" fill="black"/>
<path fill-rule="evenodd" clip-rule="evenodd" d="M56.6335 106.236C56.2085 107.201 56.1465 107.715 55.8585 107.938C52.8425 110.264 49.8665 112.655 46.7025 114.763C45.8045 115.361 44.3315 115.097 43.0425 114.781C47.0085 111.139 50.5695 107.149 56.6335 106.236" fill="black"/>
</svg>
