<svg width="75" height="70" viewBox="0 0 75 70" fill="none" xmlns="http://www.w3.org/2000/svg">
<path fill-rule="evenodd" clip-rule="evenodd" d="M3.31365 57.5979C7.82127 40.1673 15.2109 24.1709 27.5351 10.63C14.4326 23.7833 7.18208 39.8486 3.31365 57.5979M0.00889471 64.3161C0.393597 59.3615 1.69754 54.2725 3.13884 49.2092C6.33954 37.9622 11.3288 27.5473 18.1755 17.9995C22.9602 11.327 28.5102 5.50762 36.0794 1.75531C38.5047 0.553068 40.6031 0.810941 42.7876 1.97283C44.0125 2.62365 44.4079 4.54337 43.3519 4.93925C40.6732 5.94325 39.4489 8.34422 37.6878 10.1996C32.3477 15.8249 27.1932 21.5992 23.0732 28.2004C18.0703 36.215 14.4332 44.806 11.61 53.7562C10.2847 57.9581 8.86776 62.135 7.87479 66.4334C7.74457 66.9983 6.93235 67.3492 7.28971 68.1134C7.32776 68.1953 7.15949 68.3789 7.07268 68.5058C6.7956 68.911 2.66495 69.5823 2.24695 69.2946C0.288354 67.9468 -0.0660242 67.2106 0.00889471 64.3161" fill="black"/>
<path fill-rule="evenodd" clip-rule="evenodd" d="M43.3818 26.8723L43.0495 26.5935C42.1485 27.6419 41.2476 28.6904 40.3466 29.7388C40.4402 29.8167 40.5332 29.8959 40.6268 29.9744C41.5449 28.9402 42.4637 27.9066 43.3818 26.8723M38.678 32.1563C35.2258 36.507 32.1225 41.0822 30.278 46.3851C32.5757 41.3521 35.5878 36.7415 38.678 32.1563M50.8986 22.954C51.5698 24.9102 50.4017 25.759 49.2152 26.7678C48.0945 27.7211 47.6864 29.2733 46.6201 30.379C45.3057 31.7434 43.9351 33.2289 43.0495 34.79C42.3713 35.9849 41.0012 36.5791 40.6997 38.1065C40.4574 39.3333 39.7122 40.5772 38.4115 41.2369C37.8677 41.5134 37.8807 42.1105 37.6787 42.5972C37.1604 43.8459 36.7825 45.2073 35.4166 45.9001C35.2069 46.007 34.9421 46.3053 34.9534 46.5002C35.0671 48.3779 33.3475 49.2757 32.7036 50.7458C32.4051 51.4269 31.7174 51.6607 30.9651 51.6991C30.3141 51.7328 29.1999 52.0872 29.0975 51.8887C28.5389 50.799 27.706 49.8835 28.1041 48.3135C29.5026 42.7898 32.3305 38.0327 35.5297 33.435C38.7609 28.7925 42.6035 24.6905 46.818 20.9339C48.4487 19.4809 50.2299 18.2063 52.2332 17.2802C53.6619 16.6192 54.9994 17.061 56.3233 17.6127C56.8286 17.823 57.0223 18.2577 56.998 18.781C56.9755 19.2701 56.6307 19.4981 56.2386 19.7278C54.8413 20.5476 53.1549 21.0402 52.7461 22.9711C52.6614 23.3698 52.235 23.8417 51.7131 23.8594C51.212 23.8771 51.6622 23.1518 50.8986 22.954" fill="black"/>
<path fill-rule="evenodd" clip-rule="evenodd" d="M62.5581 35.2967C63.619 34.7417 64.4769 34.8227 64.9817 34.1436C65.1859 33.869 65.6802 33.553 65.2507 33.1648C64.9029 32.8506 64.4354 32.9899 64.1331 33.3257C63.6885 33.8206 63.298 34.3628 62.5581 35.2967M58.9183 38.879C56.5554 41.3181 54.3669 43.8855 53.278 47.1979C54.8828 44.2353 56.9452 41.5916 58.9183 38.879M63.6494 38.7473C64.5988 39.5698 64.1792 39.8998 63.5332 40.6932C62.533 41.9209 61.6173 43.3224 60.3527 44.1712C58.735 45.2567 58.4205 47.2475 56.8787 48.3126C55.5644 49.2203 53.6164 49.1328 52.5409 48.2024C51.6089 47.3956 52.1056 46.6476 52.3828 45.9154C53.8423 42.0591 56.4666 39.0224 59.4295 36.2621C61.5718 34.2672 64.0129 32.6459 66.4085 30.9717C67.1853 30.4283 67.4024 30.7781 67.4975 31.5272C67.5395 31.8595 67.3848 32.2851 67.9171 32.5597C68.2235 32.0152 68.5222 31.4911 68.8146 30.9635C68.8846 30.837 69.0177 30.6703 68.9827 30.5712C68.5923 29.4629 68.7516 29.2391 70.2584 28.9488C70.1633 29.488 69.5038 29.6547 69.5248 30.219C70.0098 30.756 70.1837 29.2741 70.7235 29.9917C71.1799 30.5997 70.999 31.5377 70.6996 31.7435C69.5768 32.5142 69.4834 33.9197 68.5613 34.7959C68.2801 35.0629 68.8 35.963 67.8009 35.9595C67.2512 35.9584 66.8304 37.0526 66.1407 36.1787C66.3408 36.8439 65.5892 37.0368 65.4853 37.3732C65.1953 38.3054 64.4494 38.4412 63.6494 38.7473" fill="black"/>
<path fill-rule="evenodd" clip-rule="evenodd" d="M71.2163 28.1783C72.1763 28.3658 72.9396 29.1433 73.3036 27.8558C73.4636 27.2914 73.985 27.6101 74.223 27.9858C74.5903 28.567 75.0663 29.2445 74.5976 29.862C74.0503 30.5845 73.3636 31.477 72.5596 31.6808C71.927 31.8401 71.5596 30.7933 71.633 30.0389C71.6896 29.4476 72.057 28.8526 71.2163 28.1783" fill="black"/>
</svg>
