<svg width="55" height="68" viewBox="0 0 55 68" fill="none" xmlns="http://www.w3.org/2000/svg">
<path fill-rule="evenodd" clip-rule="evenodd" d="M30.0113 21.3265C31.7407 21.4457 34.2931 19.9414 35.4301 18.1655C33.5893 19.2393 31.8588 20.2489 30.0113 21.3265M40.2603 24.9272C38.6742 25.73 37.3412 26.4909 35.9391 27.0972C31.732 28.9171 27.5034 29.968 23.2623 27.132C22.4415 26.5828 22.1116 27.1886 21.8722 27.8596C20.7291 31.0625 19.4626 34.2284 18.4656 37.4748C16.6588 43.3565 14.998 49.2823 13.312 55.1993C13.0232 56.2132 12.909 57.2762 12.6526 58.6422C13.8582 58.2808 14.7888 58 15.7205 57.7224C21.4473 56.014 27.1817 54.328 32.8909 52.5652C33.4191 52.4019 34.1476 51.7798 34.1861 51.3221C34.712 44.9784 36.3228 38.8594 37.9825 32.7502C38.677 30.1939 39.4615 27.6615 40.2603 24.9272M39.114 61.3063C37.8782 60.4589 37.0645 59.6023 36.0741 59.2817C33.553 58.467 33.5393 58.6155 30.5373 59.6099C22.4097 62.3023 14.2672 64.9511 6.12591 67.6027C4.94058 67.9886 3.78765 68.2596 2.67151 67.2369C2.13073 66.7417 1.30226 66.555 0.43482 66.149C1.00305 65.6347 1.44995 65.2303 2.18947 64.5609C1.29842 64.7421 0.79662 64.8444 0 65.0072C0.203135 64.5081 0.268468 64.0966 0.503447 63.8338C0.79113 63.511 1.18917 63.1714 1.59379 63.0833C3.71463 62.6196 4.15769 61.0402 4.66443 59.2251C7.9695 47.3736 11.3816 35.5515 14.7729 23.7239C15.2906 21.9186 15.8879 20.1362 16.4309 18.3381C16.7653 17.2289 17.4356 16.529 18.6489 16.4756C18.935 16.4631 19.3209 16.4522 19.4999 16.615C20.7967 17.7971 22.0029 19.082 23.3507 20.201C23.7767 20.5542 24.5992 20.7224 25.1509 20.5961C30.8041 19.3008 35.1337 16.0087 38.5672 11.5034C40.3982 9.10001 42.0425 6.5573 43.8064 4.10274C44.8056 2.71165 45.9899 1.51866 47.7588 1.10558C49.0665 0.800258 50.1541 0.822028 50.909 2.26809C51.3329 3.07956 52.2607 3.61673 52.8773 4.34711C55.6816 7.66865 55.2638 11.3913 54.1449 15.1646C53.2819 18.0757 52.3228 20.9597 51.4504 23.8681C49.4245 30.6239 47.4118 37.3839 45.4255 44.1511C44.9248 45.8568 44.5026 47.5875 44.1254 49.3236C44.0057 49.8733 43.9904 50.5476 44.2061 51.0456C44.7573 52.3164 44.0776 53.1834 43.4792 54.1614C42.7754 55.312 42.1341 56.5082 41.5697 57.7322C40.9071 59.1696 40.7605 60.9634 39.114 61.3063" fill="black"/>
</svg>
