<svg width="127" height="63" viewBox="0 0 127 63" fill="none" xmlns="http://www.w3.org/2000/svg">
<path fill-rule="evenodd" clip-rule="evenodd" d="M72.2559 42.4326C73.1899 42.3555 74.8455 41.0114 75.0902 40.1826C75.1337 40.0339 75.1818 39.8599 75.0086 39.8098C74.8894 39.7759 74.6379 39.8339 74.6102 39.9105C74.1898 41.0686 73.0304 41.5445 72.2559 42.4326M114.778 24.0917C116.059 23.9708 117.084 23.3905 117.955 22.5381C118.185 22.3131 118.815 22.0961 118.376 21.7059C117.969 21.3447 117.973 22.0646 117.718 22.2096C117.588 22.2837 117.449 22.3508 117.339 22.449C116.571 23.1382 115.507 23.3594 114.778 24.0917M86.3213 17.9491C85.4937 17.9015 82.5504 19.5434 82.3433 20.1262C82.3102 20.2181 82.3019 20.3726 82.3558 20.4314C82.5513 20.646 82.7832 20.5325 82.9605 20.4049C84.0689 19.6068 85.1669 18.7949 86.3213 17.9491M38.1866 36.5057C37.5644 36.5376 37.3586 36.7568 37.1511 36.9759C35.3195 38.9143 33.6229 40.9447 32.2076 43.2282C30.2969 46.3128 28.59 49.5245 26.468 52.4815C26.1147 52.9748 25.4184 53.2888 25.3815 54.2186C26.4315 53.3207 27.185 52.4094 27.7972 51.3793C29.1789 49.0556 30.5239 46.71 31.9404 44.4083C33.6747 41.5901 35.7469 39.0245 38.1866 36.5057M1.47468 45.5647C2.3909 44.7235 2.92397 44.808 3.3125 45.9926C3.94747 47.9319 4.36664 49.9308 4.25936 51.9849C4.23161 52.5142 4.65119 52.6588 4.81232 53.0108C5.16812 53.7883 5.35285 54.6192 5.68711 55.4058C6.78847 57.9953 9.0351 58.5313 11.418 58.9521C16.4079 59.8336 20.093 57.536 23.424 54.1797C25.8811 51.704 27.443 48.663 29.1429 45.7002C31.0155 42.4355 33.1122 39.3323 35.6827 36.5749C40.0256 31.9164 46.3915 31.0926 52.153 34.3316C55.1133 35.9959 57.6466 38.1915 59.8464 40.707C62.1949 43.3918 64.9962 43.7456 68.1192 42.8592C72.3151 41.6684 74.686 38.6306 76.0702 34.646C77.1314 31.5908 77.7088 28.4127 78.5339 25.2987C80.3237 18.5464 84.1269 16.1556 90.6712 15.0385C93.0695 14.6293 94.8323 15.6677 96.4191 17.2239C97.8419 18.6189 99.215 20.0657 100.609 21.4901C100.926 21.8132 101.228 22.1553 101.701 22.2535C105.393 23.0185 109.097 23.7136 112.881 23.002C116.777 22.2692 120.755 18.5244 121.093 13.7367C121.345 10.1729 121.655 6.61285 121.931 3.05072C121.972 2.5222 122.025 1.98664 122.311 1.54261C122.585 1.11599 122.998 0.896874 123.563 0.959004C124.101 1.01823 124.16 1.30155 124.091 1.73315C124.065 1.89179 124.135 2.04752 124.299 2.08812C126.124 2.54498 126.273 4.14504 126.452 5.54007C126.85 8.65321 126.359 11.7717 126.216 14.8861C126.149 16.3429 126.055 17.7967 125.765 19.2427C125.121 22.4556 123.39 24.8762 120.534 26.7223C120.869 25.9345 121.706 25.7866 121.951 25.0986C120.706 25.9134 119.484 26.7509 118.159 27.4455C118.405 27.7537 118.677 27.2281 118.959 27.6708C117.758 28.1584 116.64 28.8231 115.286 28.4218C115.061 28.3555 115.013 28.4396 114.851 28.5191C113.791 29.0352 112.631 28.8637 111.507 28.9035C111.042 28.9201 110.816 28.5759 110.874 27.9972C110.353 28.9209 109.63 28.812 108.839 28.6682C107.623 28.4466 106.386 28.3418 105.166 28.1376C102.429 27.6791 100.192 26.2626 98.2354 24.3734C97.1527 23.3284 96.1238 22.2253 95.104 21.1182C94.6476 20.622 94.1394 20.4894 93.4895 20.5466C88.9018 20.95 86.0711 23.1763 84.6272 27.5308C83.7499 30.1784 83.2939 32.9316 82.5778 35.6189C81.7469 38.735 80.6662 41.7288 78.2738 44.0392C77.3356 44.9455 76.1788 45.5328 75.0766 46.2142C73.433 47.2302 71.7936 47.7662 69.9417 47.8801C64.5712 48.2107 59.9794 46.5944 56.3108 42.5303C55.0317 41.1137 53.5866 39.8467 52.2156 38.5134C49.8285 36.191 46.1488 36.4333 43.647 37.8879C40.7915 39.5489 38.8572 42.1078 37.062 44.7546C35.0573 47.7095 33.3574 50.8769 31.2723 53.7697C28.7855 57.2199 25.6321 60.0431 21.5829 61.5372C19.5554 62.2852 17.3966 62.6679 15.121 62.3444C13.8527 62.1647 12.5351 62.1373 11.2391 61.9754C9.30267 61.7331 7.47397 61.1304 5.78445 60.2449C2.63693 58.5959 0.734921 55.9579 0.178235 52.4049C-0.108392 50.5741 -0.0114694 48.7491 0.203087 46.9204C0.270602 46.3468 0.471489 45.8228 0.704684 45.3158C0.808649 45.0892 0.942436 44.6676 1.33883 44.8428C1.67433 44.9911 1.08326 45.3104 1.47468 45.5647" fill="black"/>
</svg>
