<svg width="94" height="112" viewBox="0 0 94 112" fill="none" xmlns="http://www.w3.org/2000/svg">
<path fill-rule="evenodd" clip-rule="evenodd" d="M66.5157 36.3354C66.6255 36.446 66.7358 36.5566 66.8456 36.6672C67.7405 35.7546 68.635 34.8424 69.5291 33.9297C69.4524 33.8522 69.3753 33.7747 69.2981 33.6972C68.3705 34.5768 67.4428 35.4563 66.5157 36.3354M75.3462 27.7254C75.4181 27.8403 75.49 27.9556 75.5615 28.07C76.9634 26.9649 78.3647 25.8599 79.7666 24.7544C79.6833 24.6466 79.6005 24.5379 79.5181 24.4302C78.1272 25.5286 76.7371 26.627 75.3462 27.7254M83.3157 44.5877C82.9896 45.1175 82.0611 44.6657 81.9167 45.5958C81.7904 46.4106 81.4013 47.1853 81.1173 48.0096C82.6347 47.4131 82.8126 45.9002 83.3157 44.5877M82.8803 52.3687C82.5793 51.7874 82.4577 51.5511 82.3772 51.3956C81.461 51.5288 82.6749 53.4232 81.2423 52.9898C80.655 53.6992 80.1945 54.3907 79.6029 54.9418C78.3098 56.146 76.9851 57.3234 75.5989 58.418C75.0556 58.8472 74.3087 59.0149 73.6637 59.3217C73.4346 59.4304 73.1288 59.5495 73.0356 59.7471C71.7644 62.4628 69.4373 64.0948 67.0789 65.7472C64.6311 67.4619 62.4086 69.5255 59.8637 71.0672C57.7165 72.3679 55.4438 73.826 52.6003 72.288C51.1648 71.5119 50.4336 69.4612 51.5259 68.2224C51.888 67.8121 52.1866 67.313 52.3944 66.8059C54.2965 62.1655 56.2119 57.5304 58.044 52.8626C59.6351 48.8083 61.0417 44.6799 62.6859 40.6483C63.7489 38.0431 65.6065 35.9427 67.6956 34.0696C68.9753 32.9216 70.2811 31.8028 71.7667 30.8722C71.4847 31.3174 71.2021 31.7627 70.9205 32.2084C70.9858 32.2793 71.0521 32.3506 71.1179 32.422C71.9717 31.628 72.8255 30.8335 73.6797 30.0394C73.6225 29.9421 73.5657 29.8452 73.5079 29.7478C73.1284 29.8702 72.7488 29.9926 72.3688 30.1155C72.3034 30.0479 72.2386 29.9808 72.1738 29.9132C72.5723 29.4718 72.913 28.9538 73.3783 28.5998C77.8053 25.2327 82.2518 21.8916 86.6964 18.5477C87.2833 18.1063 87.9307 17.7362 88.475 17.2499C89.4977 16.3367 91.5418 15.5961 92.2347 16.1259C93.3834 17.0046 94.2447 18.1441 93.9371 19.7203C93.5883 21.5135 93.3375 23.3601 92.7 25.0545C91.7283 27.6351 91.4008 30.3864 90.3752 32.9362C90.2105 33.3451 89.8749 33.6854 89.7093 34.0942C89.546 34.495 89.4717 34.9393 89.4054 35.3717C89.2682 36.2731 89.2294 37.1952 89.0263 38.0799C88.7698 39.1963 88.4409 40.3028 88.0519 41.3799C87.2397 43.6254 86.3807 45.8544 85.5009 48.0743C85.4081 48.3092 85.0394 48.4264 84.8217 48.6235C84.613 48.8116 84.2311 49.1023 84.2737 49.229C84.7824 50.7235 82.8912 50.8761 82.8803 52.3687" fill="black"/>
<path fill-rule="evenodd" clip-rule="evenodd" d="M49.8649 38.058C49.6938 37.9655 49.5221 37.8724 49.3514 37.7798C48.5545 39.3868 47.7576 40.9942 46.9607 42.6021C47.0839 42.6661 47.2071 42.731 47.3304 42.7959C48.1752 41.2166 49.0201 39.6373 49.8649 38.058M30.4278 62.9486C29.5729 60.5952 30.0553 56.8959 31.3768 55.9471C30.9927 55.927 30.6551 55.9094 30.2878 55.8903C30.248 55.7624 30.1799 55.6488 30.1828 55.5376C30.2917 51.519 30.3631 47.4984 30.5348 43.4822C30.6748 40.2053 30.9294 36.9331 31.1428 33.659C31.4707 28.6315 33.7004 24.4201 36.782 20.5585C41.1492 15.0866 45.4963 9.6018 50.624 4.78949C51.7618 3.72184 52.7759 2.52437 53.8816 1.42092C54.47 0.833404 54.9614 0.739859 55.7262 1.45051C56.9844 2.62078 57.1 4.002 56.9475 5.48487C56.3611 11.2035 55.7061 16.915 55.1283 22.6346C54.7778 26.1048 54.5659 29.5894 54.1971 33.0577C54.0955 34.0113 53.6035 34.9181 53.3844 35.8674C53.1566 36.8515 53.0977 37.8733 52.8699 38.8575C51.8112 43.4216 49.1174 47.0374 46.0362 50.4255C43.5553 53.1531 41.1325 55.9342 38.6017 58.6145C37.2884 60.0058 35.8993 61.377 34.3381 62.4632C33.6323 62.9543 32.4225 62.7262 31.4415 62.8269C31.136 62.8589 30.8321 62.8999 30.4278 62.9486" fill="black"/>
<path fill-rule="evenodd" clip-rule="evenodd" d="M91 70.0465C90.676 71.9722 90.2177 74.3464 89.8895 76.7388C89.4905 79.6458 89.1085 82.5615 88.9006 85.4861C88.7817 87.152 88.1659 88.5091 87.1114 89.674C85.1318 91.8608 82.9423 93.8662 81.0928 96.156C79.0287 98.7124 76.3478 100.46 73.8645 102.476C71.1601 104.672 68.4684 106.885 65.7333 109.042C64.7581 109.811 63.6697 110.434 62.6388 111.133C60.8365 112.354 58.8776 111.937 56.9734 111.581C56.5749 111.507 56.068 110.757 56.0246 110.28C55.9453 109.395 56.0642 108.455 56.2877 107.587C57.7963 101.723 59.3925 95.8812 60.8794 90.0118C61.6414 87.0031 62.9576 84.3351 65.0636 82.0782C68.8522 78.0177 72.579 73.8947 76.4747 69.9415C79.0481 67.3307 82.1312 65.341 85.3044 63.5221C87.7886 62.0981 90.4596 63.4362 90.7963 66.3184C90.9217 67.3879 90.9189 68.4727 91 70.0465" fill="black"/>
<path fill-rule="evenodd" clip-rule="evenodd" d="M41.1129 83.9497C40.9448 83.8574 40.7757 83.7641 40.607 83.6718C40.1911 84.3762 39.7752 85.0807 39.3588 85.7847C39.4959 85.8651 39.6325 85.9456 39.7691 86.026C40.2175 85.3339 40.665 84.6418 41.1129 83.9497M37.4327 89.6421C37.5086 89.6983 37.5849 89.7549 37.6612 89.8116C38.6927 88.7087 39.7253 87.6058 40.7568 86.502C40.6848 86.4339 40.6122 86.3654 40.5397 86.2969C39.5039 87.4116 38.4681 88.5269 37.4327 89.6421M27.1787 79.1798C27.3139 79.3145 27.4487 79.4487 27.5834 79.583C28.4581 78.5267 29.3328 77.4715 30.2075 76.4157C30.2603 76.4719 30.313 76.5276 30.3658 76.5837C29.3036 77.4496 28.2414 78.3145 27.1787 79.1798M24.0426 83.7122C25.0732 81.8958 25.8613 79.8695 27.183 78.3035C30.28 74.6345 33.5749 71.1284 36.9033 67.6689C39.062 65.4255 41.4097 63.3673 43.706 61.263C43.9552 61.0335 44.4813 60.8779 44.7799 60.9812C45.7757 61.3248 47.0108 61.6537 46.9999 62.9761C46.9806 65.3189 46.7785 67.6613 46.6137 70.0008C46.4535 72.2684 46.251 74.5332 46.0531 76.7979C45.7324 80.4778 45.1761 84.1397 43.3362 87.3736C42.4558 88.9215 41.0314 90.1643 39.8039 91.498C38.5076 92.9075 37.192 94.3031 35.8105 95.6254C34.7252 96.664 33.5231 97.5765 32.3813 98.5551C31.476 99.331 30.5132 100.056 29.6993 100.921C27.4835 103.276 25.0539 105.331 22.1858 106.825C21.5767 107.143 18.8381 106.803 18.4425 106.314C17.7232 105.426 18.0326 104.492 18.3139 103.498C19.0765 100.802 19.7256 98.0739 20.4378 95.3631C21.3374 91.9431 22.2348 88.5221 23.1853 85.1173C23.3285 84.6042 23.7576 84.173 24.0605 83.6989C24.2202 83.9093 24.3737 84.1244 24.581 84.4157C25.4364 82.9621 26.2541 81.5726 27.0718 80.1827C26.9517 80.1085 26.8311 80.0342 26.7105 79.96C26.4152 80.4022 26.1321 80.8524 25.8226 81.2837C25.2376 82.0991 24.6366 82.9035 24.0426 83.7122" fill="black"/>
<path fill-rule="evenodd" clip-rule="evenodd" d="M14.763 61.5347C14.654 61.4911 14.5449 61.4475 14.4359 61.4044C13.8949 62.7505 13.354 64.0971 12.8131 65.4432C12.9164 65.4821 13.0192 65.5205 13.122 65.5593C13.6692 64.2179 14.2158 62.8766 14.763 61.5347M10.2891 55.9087C10.182 55.8272 10.0739 55.7461 9.96675 55.6646C8.85608 56.9861 7.74589 58.3071 6.63522 59.629L6.91961 59.8536C8.04325 58.5388 9.16642 57.2235 10.2891 55.9087M0 82.9336C0.563984 78.8109 1.06504 75.1915 1.55264 71.5706C1.7472 70.1236 1.96866 68.6765 2.07819 67.2224C2.36546 63.394 4.68385 60.6819 7.10168 57.9764C8.84839 56.0219 10.4049 53.9025 12.1305 51.9281C14.2168 49.5406 16.3416 47.1805 18.5591 44.9124C19.2437 44.2121 20.1651 43.6331 21.3891 44.142C22.8212 44.738 23.9237 45.5402 23.9472 47.182C23.9895 50.1731 24.0596 53.171 23.903 56.1546C23.8242 57.6532 23.1757 59.114 22.9619 60.6165C22.7501 62.1085 22.8183 63.638 22.6535 65.1395C22.5353 66.2184 22.4133 67.3555 21.9747 68.3269C21.4367 69.5175 20.6863 70.6646 19.8139 71.6459C18.3785 73.2607 16.7744 74.7309 15.2357 76.2552C13.072 78.3997 10.9986 80.6327 8.31516 82.2058C7.43892 82.7194 6.76925 83.5638 5.94873 84.1845C4.46047 85.3098 2.7493 84.9852 1.19138 84.5194C0.590405 84.3394 0.254609 83.2965 0 82.9336" fill="black"/>
</svg>
