<svg width="51" height="78" viewBox="0 0 51 78" fill="none" xmlns="http://www.w3.org/2000/svg">
<path fill-rule="evenodd" clip-rule="evenodd" d="M3.614 55.3923C3.49089 55.753 3.36983 56.0398 3.30112 56.3385C3.26398 56.4988 3.00783 56.9402 3.4134 56.7779C3.8026 56.6222 3.564 55.9754 3.74997 55.5813C3.75962 55.5605 3.69704 55.5053 3.614 55.3923V55.3923ZM2.08205 63.0435L2.24814 61.4309C2.19609 61.9804 1.57647 62.452 2.08205 63.0435V63.0435ZM2.98122 58.8026C2.91192 58.7839 2.84232 58.7649 2.77331 58.7462C2.61512 59.393 2.45721 60.0396 2.29931 60.6861C2.69114 60.1007 2.87098 59.4612 2.98122 58.8026V58.8026ZM30.5285 2.11939C29.6253 2.13461 29.0238 2.68666 28.517 3.38235L30.5285 2.11939ZM24.3157 40.4536C23.0858 42.3064 21.8126 44.1272 20.3684 45.8226C22.1091 44.3446 23.3317 42.4866 24.3157 40.4536V40.4536ZM13.3101 66.3947C15.7766 62.8288 17.7352 59.0013 19.387 55.0132C17.3317 58.7933 15.3386 62.6061 13.3101 66.3947V66.3947ZM20.9275 48.8886C20.6813 48.9529 20.5804 48.9673 20.4894 49.005C17.863 50.0895 15.2903 49.1753 13.902 46.6602C13.5265 45.9806 13.273 45.2545 13.1025 44.4994C12.4373 41.5534 12.558 38.5877 12.8566 35.6127C12.9651 34.535 13.2756 33.4707 13.1376 32.3657C12.17 35.0115 11.1945 37.646 10.4091 40.3363C9.82923 42.3228 9.15493 44.282 8.61133 46.2837C8.23646 47.6648 7.92212 49.0939 7.38115 50.4523C6.87908 51.712 6.66152 53.0832 6.29133 54.3979C5.70446 56.4827 5.28134 58.6055 4.78599 60.7115C4.30117 62.772 4.11987 64.8901 3.65377 66.9465C3.19292 68.9794 3.58446 71.0703 3.05578 73.0802C3.03853 73.1466 3.05403 73.2785 3.08853 73.2925C3.82658 73.5854 3.73301 74.3416 3.87015 74.8881C4.06548 75.6663 4.35117 75.6046 4.86055 75.2471C6.89195 73.8194 8.35898 71.8526 9.74297 69.8621C12.2601 66.2417 14.4339 62.4051 16.4059 58.4577C17.9595 55.3487 19.5008 52.2345 20.9275 48.8886V48.8886ZM15.8962 39.7C15.8102 41.7309 15.9687 43.7358 16.5381 45.6918C16.9372 47.0621 17.1703 47.137 18.3709 46.3249C19.3031 45.6945 20.0926 44.8999 20.7813 44.0187C25.3306 38.2013 28.4296 31.6747 30.2437 24.5276C30.3274 24.1985 30.3236 23.8424 30.3271 23.4984C30.3625 20.2735 30.821 17.1002 31.5877 13.9775C32.05 12.0949 32.6275 10.2463 32.3813 8.26771C32.2634 7.31984 32.2087 6.36406 32.1026 5.41443C31.9736 4.26616 31.7321 4.17576 30.7727 4.88754C30.6876 4.95103 30.5967 5.01071 30.5253 5.08736C29.4671 6.22715 28.3302 7.30638 27.3793 8.52984C26.5017 9.6591 25.7458 10.9022 24.9484 12.0867C23.9063 13.6355 23.2293 15.3496 22.2825 16.9305C21.379 18.4395 20.8011 20.1606 20.1274 21.8106C17.7799 27.5573 16.1626 33.466 15.8962 39.7V39.7ZM18.3247 64.1654C17.8101 64.8921 17.2878 65.6004 16.9989 66.4743C16.8714 66.8605 16.448 67.153 16.1451 67.4751C15.9839 67.6465 15.886 67.8806 15.7345 68.0275C14.8251 68.9121 14.6564 70.1947 13.9701 71.2017C13.1458 72.4108 12.0831 73.3976 11.0714 74.4227C10.6895 74.8094 10.3831 75.2655 9.93421 75.6131C8.36629 76.8263 6.69106 77.718 4.68072 77.931C2.9204 78.1173 0.738119 76.8178 0.287804 74.3776C-0.222457 71.6121 -0.000515461 68.8609 0.534015 66.1519C3.61809 50.5198 8.42477 35.4129 14.6084 20.7434C16.26 16.8246 18.2045 13.0378 20.7079 9.57192C21.0178 9.14303 21.3661 8.73785 21.729 8.35226C21.9541 8.11354 21.9456 8.28 22.36 8.38532C22.7258 8.47864 23.2337 8.45933 23.5565 7.96843C24.5069 6.52409 25.5897 5.17775 26.7561 3.89988C27.4913 3.09389 28.2445 2.30487 29.1583 1.69607C30.8531 0.566809 31.8979 0.698459 33.2723 2.21828C33.9591 2.97804 34.4451 3.86038 34.7372 4.84278C34.839 5.18507 34.939 5.33135 35.3835 5.4314C35.8627 5.53877 36.4134 5.80294 36.8239 6.22071C37.2991 6.70372 37.4444 7.22827 37.3397 7.88476C37.0485 9.71 36.7063 11.5449 36.5101 13.3631C36.1873 16.3545 35.4519 19.2499 34.9612 22.1977C34.6422 24.1133 34.0501 25.9661 33.5176 27.8302C33.2003 28.9402 33.2354 30.0153 33.5851 31.1194C34.3466 33.5236 35.5396 35.6449 37.4035 37.3733C39.5989 39.4092 42.197 40.1994 45.155 40.0438C46.7882 39.9578 48.1871 39.282 49.5787 38.5383C49.7538 38.4447 50.9507 38.8367 50.9901 39.021C51.0425 39.2659 50.8787 39.3911 50.6866 39.5181C48.3973 41.0332 45.9407 41.7394 43.169 41.2939C38.2895 40.5092 35.0004 37.6255 32.6219 33.4844C32.5085 33.2872 32.4719 32.9558 32.1912 32.9686C31.7865 32.9871 31.9795 33.3855 31.8929 33.6052C31.321 35.0531 30.8277 36.5358 30.3338 38.0053C29.2665 41.1795 27.9954 44.2694 26.7886 47.3866C26.2231 48.8473 25.5879 50.2817 24.9604 51.7176C24.8557 51.9572 24.8549 52.3164 24.4771 52.3688C23.8823 52.807 23.9817 53.6493 23.4557 54.1279C22.7939 55.4862 21.9012 56.7357 21.5254 58.2289L21.5483 58.195C20.9476 59.0419 20.435 59.9363 20.0929 60.9213C19.4745 61.5658 19.1049 62.342 18.8876 63.1986C18.7002 63.5207 18.5124 63.843 18.3247 64.1654V64.1654Z" fill="black"/>
</svg>
