<svg width="224" height="128" viewBox="0 0 224 128" fill="none" xmlns="http://www.w3.org/2000/svg">
<path fill-rule="evenodd" clip-rule="evenodd" d="M57.025 5.20971C56.048 5.11464 55.1367 5.31689 54.2758 5.77835C55.184 5.56085 56.1708 5.74382 57.025 5.20971V5.20971ZM191.122 9.42072H195.847V9.31892H191.122V9.42072ZM132.062 9.93645C132.062 9.88801 132.063 9.83868 132.063 9.79025H125.501C125.5 9.83868 125.499 9.88801 125.498 9.93645H132.062ZM161.699 12.2707C161.699 12.2908 161.7 12.311 161.7 12.3312H168.803L168.801 12.2707H161.699ZM51.3016 101.321C50.3867 101.14 49.5236 101.024 48.7284 100.454C48.1506 100.039 47.3799 100.279 46.6994 101.159C48.4203 100.543 49.7294 102.277 51.3016 101.321V101.321ZM184.256 11.1697C188.218 10.6473 192.183 10.2849 196.181 10.4136C193.727 9.95842 186.595 10.3939 184.256 11.1697V11.1697ZM189.611 5.35546C193.413 5.13123 197.12 5.83486 200.838 6.41068C197.184 5.02136 193.424 4.80924 189.611 5.35546V5.35546ZM175.435 12.4792C168.971 13.3026 162.499 13.5156 156.012 12.7846C162.502 13.7021 168.98 13.8865 175.435 12.4792V12.4792ZM11.9689 25.0678C14.0956 23.1848 16.3144 21.4291 18.6456 19.8169C20.9527 18.2212 23.2906 16.6732 25.6603 15.1803C20.6571 17.8665 15.8116 20.7792 11.9689 25.0678V25.0678ZM167.473 8.03544C167.319 8.02512 167.165 8.00853 167.011 8.00674C161.611 7.94575 156.238 7.57756 150.907 6.67213C145.146 5.69359 139.356 4.97606 133.507 4.78547C127.065 4.57469 120.625 4.27064 114.182 4.10157C110.362 4.00201 106.539 4.08319 103.077 4.08319C109.749 4.56438 116.806 4.49487 123.847 4.8496C130.083 5.16397 136.336 5.16666 142.538 6.00976C147.676 6.70845 152.809 7.45244 157.95 8.12961C161.116 8.54578 164.296 8.50946 167.473 8.03544V8.03544ZM219.046 45.1448C219.046 40.906 219.212 36.6582 218.994 32.4306C218.816 28.9954 218.463 25.4894 216.358 22.5435C211.451 15.6749 204.626 12.0168 196.408 10.9814C191.497 10.3625 186.628 11.2702 181.786 12.0832C176.905 12.903 172.015 13.673 167.065 13.8806C161.777 14.1022 156.524 13.5775 151.339 12.5855C139.925 10.401 128.335 10.4028 116.806 9.80819C107.662 9.33686 98.5103 9.01621 89.3983 8.10988C82.251 7.39863 70.5176 8.00136 63.1493 9.35794C62.0947 9.55212 61.0373 9.73375 59.9836 9.92255C53.1033 11.154 46.361 12.925 39.6562 14.8834C31.377 17.3019 23.8586 21.1896 16.9819 26.3809C15.3133 27.6406 13.863 29.0039 13.3884 31.2C13.1401 32.3503 12.5114 33.428 11.6331 34.2325C10.1221 35.6169 9.03757 37.374 7.6132 38.8027C4.8502 41.5747 4.22195 45.0556 4.22195 48.6706C4.22151 54.3548 6.15222 59.652 8.35486 64.7518C10.5267 69.7808 14.0197 74.0174 17.8977 77.8687C22.9241 82.8596 28.2496 87.4689 34.6418 90.6771C39.3646 93.0477 44.0462 95.4989 49.1048 97.1089C51.0203 97.7183 52.9372 98.3139 54.8648 98.8843C64.667 101.782 74.5871 104.275 84.2688 107.593C93.4272 110.731 102.639 113.71 112.037 116.065C117.127 117.34 122.278 118.273 127.464 119.053C134.369 120.091 141.291 120.901 148.286 120.801C157.831 120.665 167.353 120.281 176.624 117.643C181.56 116.238 186.326 114.433 190.674 111.638C196.244 108.058 199.862 102.745 203.155 97.2062C207.124 90.5287 210.761 83.6615 214.053 76.6171C215.793 72.8918 217.329 69.1005 218.082 65.0133C219.297 58.4295 219.249 51.7923 219.046 45.1448V45.1448ZM53.9512 106C52.6594 105.681 52.6385 104.481 52.3085 103.528C52.1812 103.161 52.3969 102.759 52.7313 102.462C52.9818 102.24 53.2899 102.058 53.1868 101.576C52.9559 100.494 53.5391 100.589 54.2955 100.824C55.6712 101.252 57.0692 101.607 58.5101 101.82C58.2993 101.726 58.0975 101.592 57.8769 101.545C55.9462 101.14 54.2437 100.143 52.4232 99.4548C50.1929 98.6117 47.8331 98.0879 45.6568 97.1331C41.3993 95.2639 36.907 93.932 32.9009 91.4633C32.1137 90.9785 31.3037 90.3228 30.0825 90.1457C30.8987 91.065 31.8239 91.4879 32.6687 91.9584C36.2975 93.9809 40.0643 95.7155 43.8717 97.3802C46.4003 98.4857 48.9918 99.3619 51.5981 100.226C51.8664 100.314 52.1384 100.397 52.4081 100.482C53.0131 100.674 52.8492 101.152 52.8327 101.591C52.8072 102.285 52.3679 101.747 52.141 101.816C51.8834 101.895 51.5842 101.835 51.2842 101.835C51.3145 102.259 51.7195 102.133 51.9022 102.323C52.2705 102.705 52.0544 103.044 51.9289 103.417C51.7441 103.968 51.3766 103.731 51.035 103.66C50.2818 103.504 49.8585 102.426 48.7779 102.993C48.4721 103.153 47.7509 102.468 47.4112 101.979C47.2049 101.683 47.0388 101.358 46.69 101.569C45.5251 102.272 44.5262 101.32 43.7587 100.943C42.6424 100.394 41.4422 100.47 40.3849 99.9539L40.4224 99.9736C39.783 99.0987 38.7864 98.8906 37.8594 98.5552C37.5067 98.9525 38.2215 99.0682 38.0125 99.4373C37.6205 99.6064 37.2807 99.3359 36.9257 99.2036C36.4399 99.0225 36.1028 98.744 35.4237 99.0507C34.7807 99.3409 33.9814 98.6238 33.4782 98.0942C32.5066 97.0721 31.6426 96.1532 29.9954 96.2905C29.3382 96.3452 28.5947 95.5783 27.9183 95.1424C24.0622 92.6584 20.4861 89.7905 17.2185 86.5903C13.9581 83.3969 10.8442 80.0747 8.36691 76.1399C6.95371 73.8959 5.38601 71.7625 4.39341 69.2893C1.81035 62.8499 -0.181535 56.276 0.0131441 49.2191C0.137274 44.7349 1.07316 40.4481 3.0003 36.3923C3.15613 36.064 3.33786 35.7263 3.58434 35.4658C6.01693 32.8966 7.61633 29.8053 9.22957 26.6953C11.2697 22.7623 14.8757 20.3743 18.3223 17.8549C25.725 12.4438 34.1891 9.41444 42.8594 6.87663C52.0625 4.18274 61.4392 2.37591 70.9816 1.39289C77.9967 0.670426 84.9739 0.891515 91.9761 1.6077C99.3261 2.35932 106.724 2.2194 114.101 2.47816C123.787 2.81719 133.503 2.67503 143.144 3.91277C147.765 4.50653 152.371 5.21509 156.982 5.8815C163.313 6.79635 169.593 6.23713 175.86 5.23931C181.467 4.34688 187.081 3.21677 192.773 3.46252C204.742 3.97959 213.995 9.11039 220.357 19.642C223.082 24.1534 223.569 28.8761 223.749 33.7836C223.966 39.7279 224.068 45.6803 223.95 51.6322C223.744 62.0288 221.195 71.7953 216.55 81.103C212.678 88.8622 208.628 96.508 203.998 103.832C200.13 109.951 195.618 115.493 189.286 119.244C185.035 121.762 180.447 123.447 175.698 124.785C172.78 125.608 169.823 126.176 166.851 126.638C164.065 127.069 161.233 127.209 158.42 127.465C156.772 127.614 155.132 127.847 153.464 127.708C152.271 127.608 151.029 128.017 149.926 127.939C148.724 127.853 147.505 127.886 146.3 127.81C145.216 127.741 144.076 127.658 143.062 127.682C141.792 127.71 140.54 127.245 139.188 127.606C138.118 127.892 136.859 127.112 135.635 127.283C134.736 127.408 133.882 126.84 133.055 126.994C132.233 127.148 131.628 127.175 131.098 126.464C130.999 126.332 130.664 126.219 130.545 126.286C129.322 126.988 128.282 125.914 127.137 125.963C125.866 126.017 124.667 125.584 123.427 125.423C120.066 124.984 116.816 123.937 113.474 123.449C111.063 123.097 108.706 122.459 106.374 121.896C104.434 121.427 102.388 120.973 100.521 120.108C99.8052 119.933 99.0894 119.758 98.3737 119.583C96.697 119.047 95.0199 118.511 93.3428 117.975C92.6293 117.797 91.9689 117.369 91.1866 117.515C90.9558 117.126 90.5535 117.055 90.1672 116.928C85.7843 115.489 81.4054 114.04 77.0251 112.594C71.42 110.983 65.8253 109.337 60.2055 107.781C58.1158 107.202 56.1096 106.329 53.9512 106V106Z" fill="black"/>
</svg>
