<svg width="17" height="160" viewBox="0 0 17 160" fill="none" xmlns="http://www.w3.org/2000/svg">
<path fill-rule="evenodd" clip-rule="evenodd" d="M16.1653 141.523C16.2085 141.524 16.2518 141.526 16.295 141.527V133.1H16.1653V141.523ZM11.4617 143.601C11.1577 148.213 9.98176 152.71 9.56529 157.307C10.8649 152.402 11.8189 145.393 11.4617 143.601V143.601ZM8.24019 156.929C8.39631 153.789 9.18385 150.738 9.58518 147.631C10.438 141.028 9.99862 134.435 9.68941 127.821C9.25693 118.565 5.96235 109.996 3.49553 101.23C1.1299 92.8246 -0.300291 84.3314 0.053472 75.5793C0.226461 71.3106 1.20774 67.2364 2.76811 63.2815C4.44567 59.0298 6.22659 54.8168 8.23976 50.709C10.7801 45.5261 11.8094 40.0029 12.084 34.3341C12.3098 29.6787 12.318 25.0076 11.9564 20.3544C11.6745 16.7316 10.5051 13.3421 8.84349 10.1017C7.7476 7.96502 7.00072 5.70014 6.57517 3.33562C6.47656 2.78931 6.48305 2.2596 6.62706 1.735C6.75551 1.26874 6.76632 0.473331 7.53958 1.32495C7.66716 1.46504 7.81593 1.22446 7.94567 1.2185C8.62898 1.18997 9.09346 1.50294 9.11076 2.19829C9.17044 4.62753 10.1958 6.76679 11.2411 8.86987C12.51 11.4226 13.9964 13.8812 14.851 16.6094C15.7155 19.3682 16.5255 22.133 16.4784 25.0932C16.4459 27.1179 16.6903 29.1567 16.9476 31.1721C17.1111 32.4525 16.8464 33.7095 16.7737 34.9494C16.7249 35.7772 17.06 36.4828 16.9896 37.2624C16.8996 38.2575 16.8957 39.2603 16.8438 40.2588C16.6989 43.0347 16.1211 45.7386 15.5287 48.4488C14.473 53.2754 11.8916 57.5254 10.3104 62.1544C9.1233 65.6298 7.66932 69.0329 6.85671 72.6076C6.38228 74.6949 6.35763 76.9095 6.35417 79.0671C6.34033 88.219 8.38291 97.0214 11.2217 105.673C12.1727 108.571 13.1241 111.481 13.9077 114.414C14.5413 116.784 15.1109 119.201 15.4711 121.674C15.9166 124.73 16.33 127.786 16.5121 130.857C16.9887 138.884 16.6717 146.862 14.4535 154.672C14.3164 155.156 14.079 155.622 14.0111 156.113C13.7162 158.244 12.0883 159.109 10.3731 159.889C9.7106 160.19 8.29209 159.293 8.24538 158.554C8.21121 158.014 8.23846 157.471 8.24019 156.929V156.929Z" fill="black"/>
</svg>
