<svg width="193" height="100" viewBox="0 0 193 100" fill="none" xmlns="http://www.w3.org/2000/svg">
<path fill-rule="evenodd" clip-rule="evenodd" d="M7.89605 51.4667C7.71724 52.3822 7.33045 53.2627 7.47895 54.2331C7.68654 53.3226 8.17348 52.4586 7.89605 51.4667V51.4667ZM20.22 49.8499C20.1728 49.7647 20.1252 49.6803 20.0776 49.5951C19.4675 49.9916 18.7488 50.2173 18.3436 50.9447C18.9691 50.5796 19.5945 50.2146 20.22 49.8499V49.8499ZM177.795 68.1499C177.808 68.0862 177.821 68.0229 177.834 67.9592C177.037 67.7557 176.239 67.5515 175.442 67.3477C175.422 67.4621 175.401 67.5761 175.381 67.6905C176.186 67.8436 176.99 67.9964 177.795 68.1499V68.1499ZM144.984 76.8944C145.005 76.8157 145.026 76.7374 145.047 76.6587H141.975C143.165 76.752 144.074 76.8234 144.984 76.8944V76.8944ZM151.722 99.3384C151.731 99.3061 151.74 99.2743 151.748 99.2424H147.496C147.497 99.2743 147.499 99.3061 147.5 99.3384H151.722ZM141.873 98.5849V98.6521H146.494C146.494 98.6294 146.494 98.6075 146.493 98.5849H141.873ZM87.2702 95.9068C85.8339 95.8484 84.4153 95.4646 82.9614 95.7283C84.408 95.6009 85.8182 96.1333 87.2702 95.9068V95.9068ZM60.7762 23.5816C61.0172 25.1109 62.2988 24.5566 63.0455 24.9723C62.3817 24.4253 61.7294 23.8638 60.7762 23.5816V23.5816ZM121.826 98.907C123.836 98.9465 125.863 99.6048 128.12 99.2447C125.892 99.125 123.859 99.016 121.826 98.907V98.907ZM169.245 90.7475C170.384 90.5855 171.441 90.2723 172.371 89.6428C171.273 89.8842 170.069 89.8393 169.245 90.7475V90.7475ZM30.8 83.6969C32.2393 84.2485 33.7143 84.6589 35.2534 84.8174C33.8187 84.2489 32.407 83.5883 30.8 83.6969V83.6969ZM19.4694 24.8491C18.029 26.4325 17.3697 28.4066 16.6902 30.3704C17.6168 28.5298 18.5431 26.6897 19.4694 24.8491V24.8491ZM43.5099 21.7561C40.6443 22.4631 37.9755 23.6269 35.5094 25.261C38.0987 23.9125 40.8143 22.8569 43.5099 21.7561V21.7561ZM21.5062 50.8802C21.4629 50.1148 21.096 50.1063 20.7515 50.21C19.8152 50.4906 19.0335 51.0783 18.2089 51.5769C18.019 51.6916 17.9265 51.9277 18.0428 52.1204C18.1755 52.34 18.4115 52.2348 18.6019 52.1615C19.4061 51.8498 20.207 51.5281 21.012 51.2187C21.2887 51.1128 21.5147 50.9831 21.5062 50.8802V50.8802ZM38.8113 17.4216C41.5461 16.6443 44.3418 16.1668 47.0935 15.4978C44.1726 15.4467 41.4528 16.2828 38.8113 17.4216V17.4216ZM146.23 99.3921H129.147C134.842 99.5764 140.536 99.632 146.23 99.3921V99.3921ZM18.2442 78.7223C16.0286 77.1097 14.0924 75.0941 11.6201 73.8071C13.5671 75.7851 15.7784 77.4118 18.2442 78.7223V78.7223ZM9.75748 40.0499C11.0541 36.0195 12.5034 32.0497 13.9945 28.0942C12.1968 31.9457 10.6631 35.8901 9.75748 40.0499V40.0499ZM15.4972 25.0337C16.7024 23.2462 18.2815 21.7488 19.4134 19.9128C17.3505 21.0363 16.1583 22.8343 15.4972 25.0337V25.0337ZM89.7256 41.849C89.7705 41.7523 89.815 41.6555 89.8599 41.5588L83.2331 38.4999C84.7557 41.0041 87.472 40.9262 89.7256 41.849V41.849ZM151.527 95.0723C145.301 95.1333 139.073 95.0416 132.857 95.5037C139.085 95.584 145.309 95.4842 151.527 95.0723V95.0723ZM145.886 76.7339C148.838 77.5784 162.199 77.4552 163.45 76.5927C157.548 76.8318 151.718 76.8372 145.886 76.7339V76.7339ZM37.1666 3.34974C36.7254 3.02232 36.3459 3.14784 36.0673 3.23919C32.6307 4.36771 29.0356 5.10086 25.982 7.20473C25.7847 7.341 25.5714 7.47458 25.3457 7.54559C24.1835 7.91332 23.3331 8.77314 22.352 9.42491C22.195 9.52894 22.0166 9.7627 22.2242 9.95117C22.416 10.1254 22.5799 9.9147 22.756 9.80454C23.5123 9.3301 24.2222 8.79233 24.9962 8.33325C27.9597 6.57752 31.0352 5.11391 34.3663 4.20649C35.2757 3.95852 36.1701 3.65644 37.1666 3.34974V3.34974ZM114.13 94.3967C103.287 93.1308 92.4585 91.709 81.5278 91.4898C92.3948 92.4587 103.262 93.4275 114.13 94.3967V94.3967ZM50.0267 2.27842C51.0761 1.28464 52.2104 1.47618 52.9468 2.67839C53.0784 2.89373 53.2146 3.04996 53.4161 2.85381C54.0227 2.2646 54.5841 2.57552 55.2456 2.77781C55.807 2.94977 56.2671 3.37277 56.8953 3.37699C57.1723 3.37891 57.4091 3.60039 57.4348 3.92782C57.4693 4.37577 57.9428 4.30245 58.079 4.4464C58.9136 5.32886 60.5525 4.57192 61.0721 5.96912C62.3149 5.75839 62.4623 7.21356 63.5014 7.53177C64.6698 7.8899 65.542 8.99846 66.453 9.89129C67.9403 11.3495 69.4318 12.8262 70.6087 14.5355C72.223 16.8804 74.4355 18.6553 76.2632 20.7914C76.7616 21.3741 77.5912 21.6777 78.0816 22.3211C79.1653 23.744 81.0888 24.2515 81.9572 25.902C84.4978 27.0025 86.0009 29.4096 88.2602 30.884C92.6803 33.769 97.2186 36.4145 102.066 38.5291C106.181 40.3243 110.373 41.9008 114.69 43.1195C118.116 44.0868 121.669 44.3905 125.18 44.9083C132.112 45.9301 139.096 46.5327 146.038 47.4708C150.732 48.105 155.309 49.2404 159.845 50.6169C166.439 52.6179 172.777 55.2246 178.897 58.3553C182.747 60.324 186.313 62.7219 189.361 65.856C192.928 69.526 194.166 77.0771 191.746 81.2549C190.802 82.884 189.647 84.3599 188.18 85.5548C187.481 86.124 186.825 86.7554 186.198 87.3781C184.909 88.6605 183.345 89.5587 181.972 90.7133C181.679 90.9594 181.354 91.306 180.874 91.1095C180.723 91.048 180.617 91.0903 180.511 91.2054C177.956 93.9829 174.555 95.3306 171.149 96.5954C166.203 98.4321 161.016 99.0524 155.778 99.3833C148.119 99.8677 140.452 100.037 132.782 99.9061C125.883 99.789 119.006 99.2271 112.136 98.5987C103.808 97.8368 95.4841 97.0307 87.1459 96.3728C77.315 95.5974 67.4648 95.0646 57.6516 94.052C51.3854 93.406 45.1661 92.433 38.987 91.2611C31.6675 89.8731 24.548 87.7504 18.0727 83.9457C12.8798 80.8945 8.31316 76.9988 4.86619 72.0613C0.542428 65.8691 -1.40457 58.9364 1.12453 51.5489C3.10146 45.7731 3.92991 39.9159 4.44448 33.8849C5.12712 25.8916 8.54377 19.1977 15.275 14.4526C17.0486 13.2024 18.2876 11.3618 20.0044 10.031C21.8151 8.62766 23.5235 7.08574 25.5411 5.96759C30.8188 3.04189 36.4871 1.43395 42.4984 1.07889C43.1561 1.04051 44.0115 0.640537 44.5721 1.46696C44.6047 1.51571 44.8422 1.46312 44.9619 1.40862C46.5271 0.692741 48.0939 1.24779 49.6564 1.40632C50.1226 1.45353 50.118 1.49844 50.0267 2.27842V2.27842Z" fill="black"/>
</svg>
