<svg width="39" height="112" viewBox="0 0 39 112" fill="none" xmlns="http://www.w3.org/2000/svg">
<path fill-rule="evenodd" clip-rule="evenodd" d="M29.5632 108.95C29.3811 109.553 28.8613 110.085 29.397 110.908C28.143 110.655 28.239 109.716 28.0126 108.888C27.2009 109.558 27.2136 110.537 26.6071 111.168C25.5664 112.254 25.16 112.23 24.3704 110.95C23.8986 110.186 23.5883 109.364 22.358 109.214C21.0264 109.051 20.8069 109.373 21.2307 110.466C19.6869 110.769 18.3722 110.298 17.0634 109.729C16.7092 109.575 16.4184 109.722 16.097 110.077C14.1516 112.224 11.8912 111.893 10.4762 109.402C10.0244 108.608 9.59533 107.702 8.28486 107.773C7.37445 107.823 6.88415 106.866 6.4102 106.144C4.56404 103.337 3.47366 100.218 2.70785 96.9726C2.12255 94.4946 1.5325 92.016 1.01528 89.5232C-0.205997 83.6367 -0.162192 77.671 0.298557 71.7322C0.735028 66.1091 1.99483 60.6109 4.3809 55.4724C6.82029 50.2191 10.0798 45.4529 13.4945 40.7835C17.4919 35.3165 21.369 29.7374 23.2853 23.1269C24.7346 18.1275 24.8153 13.0889 22.9169 8.13125C22.4372 6.87716 21.9289 5.62201 21.5964 4.32561C21.2967 3.15562 21.3996 2.01208 22.7454 1.41281C24.5277 0.618356 25.0761 0.842621 26.2409 2.09354C27.3941 3.33176 28.7995 4.29123 29.8361 5.7077C33.8746 11.2281 35.8348 17.562 37.3437 24.1075C38.7919 30.3885 39.3339 36.7468 38.7967 43.1547C38.28 49.3204 36.6365 55.1889 33.9654 60.822C31.6263 65.7548 29.607 70.8425 28.067 76.1106C27.0304 79.656 26.4879 83.2861 26.0092 86.9172C25.3531 91.8896 27.0679 96.4431 28.8206 100.989C29.5189 102.799 30.376 104.546 30.9724 106.391C31.4062 107.731 30.8943 108.558 29.5384 108.966C29.8984 107.801 29.3764 106.633 29.8049 105.291C28.2232 106.526 28.2211 107.185 29.5632 108.95" fill="black"/>
</svg>
