<svg width="140" height="143" viewBox="0 0 140 143" fill="none" xmlns="http://www.w3.org/2000/svg">
<path fill-rule="evenodd" clip-rule="evenodd" d="M82.1797 141.688C82.1797 141.705 82.1797 141.722 82.1801 141.739H85.266V141.688H82.1797ZM79.5042 53.773C80.5053 53.4589 81.3696 52.9032 82.1849 52.2605C81.1965 52.5973 80.312 53.1172 79.5042 53.773V53.773ZM136.136 42.7793C136.216 43.4616 135.701 44.2097 136.394 44.9107C136.738 44.0961 136.436 43.4377 136.136 42.7793V42.7793ZM36.9452 93.4798C38.0599 92.9203 39.1216 92.316 40.0109 91.4548C38.8928 91.993 37.8622 92.6664 36.9452 93.4798V93.4798ZM113.159 133.342C111.888 133.663 110.615 133.985 109.344 134.307C110.705 134.276 112.011 134.041 113.159 133.342V133.342ZM13.4978 76.3205C12.4881 77.3057 11.6649 78.9378 11.6496 79.8005C12.309 78.5591 12.9034 77.4398 13.4978 76.3205V76.3205ZM41.7904 30.1786C42.713 29.3163 43.6636 28.4932 44.2984 27.3974C43.1145 28.0181 42.4341 29.0907 41.7904 30.1786V30.1786ZM11.1019 70.3586C10.1647 70.893 9.54755 71.6746 9.05186 72.5583C8.9741 72.6972 8.81784 72.8391 9.00139 72.993C9.18195 73.1446 9.32176 73.0031 9.41484 72.8675C9.98269 72.035 10.5404 71.1955 11.1019 70.3586V70.3586ZM91.878 70.4471C93.1452 70.1139 94.2245 69.4929 95.1583 68.6238C93.8492 68.8606 92.8869 69.7128 91.878 70.4471V70.4471ZM95.4252 36.2952C95.386 36.2 95.3467 36.1051 95.3075 36.0099L91.2522 37.6927C91.2851 37.7738 91.3187 37.8548 91.352 37.9355C92.6578 37.2632 94.1923 37.146 95.4252 36.2952V36.2952ZM8.42158 80.9231C9.15914 79.2918 9.89708 77.6605 10.6343 76.0289C9.56213 77.5078 8.75466 79.1044 8.42158 80.9231V80.9231ZM29.8764 66.8368C28.8622 68.2701 27.8476 69.7035 26.8334 71.1369C28.2237 69.9814 29.1893 68.5256 29.8764 66.8368V66.8368ZM41.1949 80.5698C41.1306 80.4866 41.0663 80.4036 41.002 80.3204C39.5085 81.471 38.0338 82.6429 36.833 84.1357C38.2872 82.9469 39.741 81.7586 41.1949 80.5698V80.5698ZM88.4006 66.2299C89.5883 66.0876 93.2604 63.7199 94.0181 62.7492C92.0492 63.969 90.2249 65.0994 88.4006 66.2299V66.2299ZM91.4791 59.5229C89.4533 60.7575 87.4275 61.9922 85.4014 63.2265C85.4462 63.2993 85.4911 63.3722 85.5359 63.4454C87.6761 62.3933 89.6787 61.1138 91.4791 59.5229V59.5229ZM39.5758 98.6776C39.6237 98.7553 39.6715 98.8334 39.7194 98.9111C41.6076 98.3113 43.0801 97.034 44.6248 95.8733C44.5788 95.7982 44.5324 95.7235 44.4864 95.6485C42.8498 96.6583 41.2128 97.6682 39.5758 98.6776V98.6776ZM67.7158 22.9678C65.2198 23.8099 60.6295 26.8021 60.0456 27.9692C61.4041 27.0886 62.6845 26.3192 63.8972 25.455C65.1409 24.5692 66.462 23.8103 67.7158 22.9678V22.9678ZM67.1798 5.89145C68.6904 5.18075 70.2186 4.55818 71.7902 4.0682C73.3401 3.58493 74.924 3.21408 76.493 2.79356C72.9906 2.9915 68.8014 4.39834 67.1798 5.89145V5.89145ZM36.633 87.0588C38.9695 85.2774 41.3855 83.5897 43.4042 81.4337C40.9982 83.1329 38.636 84.8841 36.633 87.0588V87.0588ZM51.3384 27.8486C49.0823 29.5822 46.6599 31.1451 45.2876 33.7878C47.276 31.7789 49.3283 29.8354 51.3384 27.8486V27.8486ZM121.191 18.4059C122.957 20.4555 124.819 22.4034 127.035 23.9806C125.437 21.7622 123.405 19.9886 121.191 18.4059V18.4059ZM77.0493 64.4993C74.7782 65.105 69.4355 68.4468 68.3854 69.9235C71.3084 68.0935 74.0863 66.3546 77.0493 64.4993V64.4993ZM17.8428 76.2014C19.2985 75.8197 22.7329 71.5058 23.0024 69.7371C20.9322 71.7725 19.5441 74.1152 17.8428 76.2014V76.2014ZM41.9066 45.4361C44.4704 42.3539 47.6322 39.823 50.0281 36.6052C46.7612 39.0465 44.1085 42.0451 41.9066 45.4361V45.4361ZM45.7328 82.8745C45.6236 82.7371 45.5145 82.5996 45.4057 82.4626C42.2962 84.7978 39.1859 87.132 36.4289 89.9106C39.8438 87.9648 42.7089 85.3184 45.7328 82.8745V82.8745ZM30.1415 99.5717C34.0925 96.9941 38.2158 94.6674 41.9433 91.2692C37.4525 93.3412 30.8772 97.9374 30.1415 99.5717V99.5717ZM80.9356 142.528C88.8985 142.618 96.8566 142.2 104.802 141.447C104.808 141.529 104.815 141.611 104.822 141.693C103.19 141.848 101.557 141.99 99.9265 142.161C94.8877 142.687 89.8282 142.803 84.77 142.934C81.0238 143.031 77.3285 142.63 73.6646 141.834C69.3117 140.89 64.8706 140.581 60.4527 140.1C51.9671 139.178 43.5496 137.846 35.3138 135.547C34.6648 135.366 33.9153 135.26 33.3915 134.957C32.094 134.205 30.5964 133.888 29.3841 132.934C28.7392 132.426 27.8118 132.335 27.1433 131.716C25.3299 130.037 23.0802 129.031 20.958 127.818C17.6851 125.948 14.352 124.038 11.9752 121.062C7.70794 115.72 3.93188 110.018 1.81002 103.447C-0.385852 96.6467 -0.655757 89.7772 1.39694 82.8196C2.28142 79.8225 2.95581 76.7893 4.63954 74.104C5.51281 72.7118 6.55056 71.4446 7.59691 70.1845C8.85148 68.675 9.88101 66.9981 11.3842 65.6697C13.4649 63.8315 15.5486 62.0206 17.8013 60.3833C20.1677 58.6639 21.0069 56.0489 21.5452 53.2752C22.2099 49.8479 22.4959 46.3534 23.4779 42.981C26.2237 33.5506 31.66 26.1418 39.7541 20.5346C43.839 17.7045 48.169 15.3121 52.4023 12.7494C56.3768 10.3435 60.5462 8.24652 64.4968 5.81639C73.4239 0.324214 83.0193 0.259604 92.8611 1.84571C97.2305 2.54969 101.37 4.09061 105.467 5.75738C109.942 7.57765 114.49 9.20857 118.585 11.8527C125.951 16.6095 131.737 22.7104 135.173 30.8874C136.828 34.8249 138.478 38.7653 139.286 42.9769C140.08 47.119 140.264 51.2738 139.573 55.485C138.74 60.5652 137.222 65.4904 136.351 70.5576C136.183 71.535 136.121 72.509 136.126 73.4919C136.139 76.0879 135.791 78.6868 136.056 81.2768C136.376 84.4091 136.872 87.5241 137.184 90.6571C137.662 95.4543 137.541 100.242 137.01 105.043C136.511 109.563 135.618 113.987 134.379 118.345C133.64 120.945 132.633 123.475 131.292 125.809C130.659 126.91 130.38 128.405 128.933 128.938C126.489 133.002 122.283 134.822 118.462 137.127C116.788 138.138 114.931 138.771 113.174 139.599C111.743 140.273 110.252 140.233 108.804 140.53C104.854 141.342 100.82 141.558 96.8054 141.872C91.5288 142.284 86.2395 142.413 80.9356 142.528V142.528Z" fill="black"/>
</svg>
