<svg width="65" height="57" viewBox="0 0 65 57" fill="none" xmlns="http://www.w3.org/2000/svg">
<path fill-rule="evenodd" clip-rule="evenodd" d="M25.2503 29.3438C26.0747 29.3197 26.594 28.8442 27.051 28.3431C28.3339 26.9362 29.635 25.5613 30.6756 23.9273C31.1534 23.1759 31.4546 22.6299 31.2017 21.7136C29.3324 24.4356 27.6707 27.1779 25.2503 29.3438M13.1667 1.28258C12.1498 2.25487 11.1536 3.24982 10.1112 4.19462C7.93932 6.16378 6.12559 8.41316 4.68349 10.9635C4.54594 11.2075 4.17914 11.4911 4.62461 11.7072C4.97548 11.8774 5.1304 11.5229 5.28533 11.2442C6.95571 8.23953 9.04213 5.55225 11.7555 3.43743C12.6078 2.77332 13.3902 2.10102 14.1083 1.29995C14.8101 0.516717 17.0326 1.14754 17.4192 2.16565C17.5509 2.51289 17.4023 2.9074 17.1513 2.95611C15.6214 3.25513 14.9983 4.74056 13.7854 5.48473C12.9495 5.99739 12.7849 7.34827 11.9896 8.10256C11.7333 8.34612 11.5571 9.22195 11.0339 8.29355C10.9162 8.08472 10.6971 8.13825 10.7309 8.37264C10.8356 9.09028 9.98712 9.01456 9.79165 9.59572C11.4741 9.64732 10.5392 10.3138 10.2193 11.0131C9.7347 12.0751 9.35487 13.1993 9.06336 14.3313C8.6261 16.0294 7.46875 17.5114 7.42194 19.2969C7.32396 23.0153 6.94268 26.8017 9.20188 30.1439C9.47457 30.5481 9.7265 30.9537 10.2873 30.9951C14.6667 31.3188 18.9732 31.1919 22.8676 28.795C25.7291 27.0341 27.6924 24.4303 29.4782 21.6581C31.7031 18.2055 32.3971 14.365 32.4705 10.3486C32.4874 9.43367 32.4734 8.47103 33.3798 7.87878C33.7065 7.66562 34.0984 7.34441 34.456 7.49489C34.8219 7.64922 34.8112 8.15176 34.8494 8.53951C34.8779 8.82792 34.6795 9.1414 34.9396 9.41004C35.3754 9.50456 35.4131 9.09414 35.611 8.89978C35.875 8.64176 35.9633 8.11703 36.4812 8.24532C36.945 8.3601 36.9855 8.78644 37.0637 9.18192C37.0907 9.31888 36.9136 9.73172 37.318 9.56147C39.0719 8.82406 39.0526 10.6611 39.4551 11.3112C40.3263 12.7175 39.9653 14.4986 39.654 16.0453C38.5101 21.7334 35.3576 26.3469 31.8107 30.8336C30.7765 32.1425 29.8305 33.4644 28.3976 34.0827C26.9796 34.6952 25.7725 36.1059 23.9636 35.6448C22.9086 37.0087 21.2797 36.1918 19.9452 36.6253C18.4385 37.1144 16.6638 36.934 15.0219 36.8182C12.1136 36.6133 9.34522 35.8021 6.77955 34.3842C4.35964 33.0473 2.99814 30.7868 1.82148 28.4333C1.04783 26.8851 0.393862 25.27 0.158338 23.5062C-0.563196 18.1051 1.24474 13.4656 4.28869 9.14575C5.88234 6.8848 7.54115 4.69764 9.77187 3.02122C10.7685 2.27223 11.7579 1.49865 12.9046 0.985979C12.9925 1.08485 13.0793 1.18372 13.1667 1.28258" fill="black"/>
<path fill-rule="evenodd" clip-rule="evenodd" d="M56.6682 46.5072C55.8625 47.603 55.0568 48.6994 54.2511 49.7952C55.5521 49.052 56.2895 47.9073 56.6682 46.5072M58.9894 42.3279C59.7536 42.0246 59.8568 41.3116 60.2207 40.8204C60.4844 40.4649 60.5742 39.8094 61.2333 40.0605C61.9019 40.3149 61.5174 40.8583 61.4754 41.2996C61.4639 41.4237 61.4735 41.5497 61.4735 41.6935C62.1345 41.762 62.0949 40.6139 62.7946 40.9397C63.3262 41.1865 63.4413 42.1185 63.6653 42.2234C65.2256 42.9527 63.4909 43.8655 63.9542 44.6102C64.3893 44.6149 64.1094 43.8397 64.6214 43.8842C61.4835 53.9103 55.4436 58.1514 45.6712 56.6569C39.3548 55.6904 35.3672 52.0305 33.5241 46.1047C32.2265 41.9326 33.6889 38.1333 36.1443 34.7024C36.4256 34.309 36.822 33.791 37.4362 34.1777C38.4502 34.8145 40.1013 34.7446 40.098 36.5419C40.0937 38.9756 39.6653 41.3973 39.8788 43.8358C40.0985 46.3529 40.8239 48.6821 42.4684 50.6587C42.8127 51.0732 43.2096 51.4124 43.766 51.4479C47.7231 51.6961 51.3066 50.9893 53.7873 47.477C55.1251 45.5824 56.1596 43.5296 56.972 41.3614C57.2548 40.6067 57.6521 39.9412 58.3647 39.5363C58.5715 39.4193 58.8872 39.3494 59.0979 39.4208C59.4155 39.5291 59.2431 39.8458 59.2282 40.0974C59.1881 40.807 58.806 41.486 58.9894 42.3279" fill="black"/>
</svg>
