<svg width="69" height="80" viewBox="0 0 69 80" fill="none" xmlns="http://www.w3.org/2000/svg">
<path fill-rule="evenodd" clip-rule="evenodd" d="M36.1829 16.3224C28.7019 21.7798 22.1742 28.201 16.6316 35.6185C11.078 43.0505 6.62959 51.0457 4.24952 60.0846C10.3978 42.1947 21.8079 28.1805 36.1829 16.3224M9.23242 61.4985C10.0664 60.3139 10.4829 58.9807 10.632 57.5523C11.1401 57.4844 11.092 57.0053 11.236 56.6906C12.0674 54.8714 12.7659 52.9917 13.7417 51.2383C13.8311 51.0773 14.0411 50.8903 13.7494 50.6012C12.6134 52.9114 11.3531 55.1157 10.6648 57.5831C10.031 58.8372 9.53866 60.1422 9.26011 61.5271C8.73622 62.7518 8.41763 64.0329 8.20339 65.3426C8.51559 64.0534 9.32017 62.8957 9.23242 61.4985M8.6685 70.4673C10.6959 58.5631 16.115 48.1851 23.302 38.5974C23.0678 38.8656 22.8199 39.1231 22.6005 39.4028C15.7959 48.0804 10.8186 57.6574 8.31924 68.4658C7.52744 71.8885 6.85363 75.341 5.83226 78.7081C5.63804 79.3478 5.71342 80.1741 4.52211 79.5677C3.95094 79.2769 3.09824 79.8132 2.34179 79.876C1.72718 79.9273 1.69268 80.1203 1.60494 79.5459C1.53892 79.115 1.044 78.9293 1.14324 78.4429C0.792702 78.5778 0.936665 79.1744 0.555461 79.0775C0.135498 78.9707 0.0869427 78.5509 0.0660724 78.1295C-0.112817 74.5693 0.080128 71.031 0.54098 67.4978C1.49378 60.1926 3.68346 53.2752 7.02698 46.7297C11.4029 38.1636 17.1334 30.5941 23.8864 23.7685C31.9155 15.6537 41.2812 9.53142 51.6321 4.85889C55.3653 3.17341 59.1607 1.65277 63.2692 1.13308C63.6909 1.0797 64.1143 1.02632 64.5385 1.00241C64.8805 0.98319 65.3337 0.901201 65.0394 1.52295C64.9397 1.73433 64.9972 1.99183 65.2366 1.90514C66.2422 1.54217 66.761 2.4022 67.5051 2.70795C68.3778 3.06665 68.5341 3.91174 68.733 4.55783C68.9719 5.33331 68.4302 5.88418 67.5353 6.19762C59.0896 9.1582 51.6223 13.8939 44.5068 19.2151C34.1214 26.9823 25.28 36.2253 18.3106 47.2136C14.4019 53.376 11.5137 59.9915 9.62854 67.0468C9.32272 68.1908 8.98922 69.3272 8.6685 70.4673" fill="black"/>
<path fill-rule="evenodd" clip-rule="evenodd" d="M23.7362 66.8507C23.0625 67.8528 22.7647 68.9994 22.7259 70.2133C23.0625 69.0925 23.3996 67.9716 23.7362 66.8507M24.9909 71.3607C25.4553 69.87 26.2977 68.5087 26.3914 66.9215C25.7689 68.3587 25.1801 69.8048 24.9909 71.3607M24.9747 74.816C26.8716 70.4572 28.4038 65.9493 30.598 61.7119C27.7889 65.6907 26.4447 70.2807 24.9747 74.816M28.8213 50.8373C23.221 56.5532 19.6783 65.6153 19.5849 71.0343C21.3719 63.5749 21.5986 63.0821 28.8213 50.8373M48.7576 41.7065C49.1415 41.3611 49.4414 41.0915 50 40.5894C49.7158 41.6256 49.2407 42.1517 48.7657 42.674C46.5356 45.1226 44.1748 47.4427 41.7543 49.7067C37.5771 53.6135 33.7578 57.8122 30.8929 62.7885C29.0714 65.9527 27.8196 69.3591 26.4839 72.7322C26.1051 73.6888 25.7519 74.7048 25.1328 75.5001C24.7894 75.9415 23.9982 76.091 23.6688 76.6942C23.1933 76.4331 23.6739 75.9895 23.3659 75.7498C22.6454 76.1197 22.0293 77.0581 21.0643 76.1049C20.9318 75.9739 20.7822 76.3796 20.6476 76.5384C20.3408 76.8998 19.9761 77.0472 19.5206 76.8795C19.06 76.7102 18.7792 76.4444 18.7119 75.8901C18.6182 75.1222 19.0072 74.4293 19.0034 73.5452C18.3796 73.907 18.5522 74.4794 18.3472 74.8699C18.2036 75.1429 18.2756 75.6475 17.7793 75.6138C17.3221 75.583 17.1448 75.2056 17.0775 74.8114C17.02 74.4744 16.9893 74.1256 17.0034 73.7844C17.3766 64.796 20.3267 56.7512 26.0288 49.7135C28.9662 46.0876 32.1238 42.6825 35.9469 39.934C37.8216 38.5865 39.9213 37.7268 42.1339 37.1127C42.8493 36.9143 43.5714 36.7858 44.2025 37.3983C44.3452 37.5369 44.6251 37.5798 44.8458 37.5908C46.6728 37.6788 47.925 38.838 49.1364 39.9618C49.6421 40.4306 48.6988 40.9281 48.7576 41.7065" fill="black"/>
<path fill-rule="evenodd" clip-rule="evenodd" d="M6 78.9485C6.81362 76.6768 7.00725 74.2696 7.98294 71.9485C8.16667 72.9299 6.82399 77.7659 6 78.9485" fill="black"/>
</svg>
