<svg width="169" height="189" viewBox="0 0 169 189" fill="none" xmlns="http://www.w3.org/2000/svg">
<path fill-rule="evenodd" clip-rule="evenodd" d="M166.684 39.8874C166.809 39.5159 167.07 39.7449 167.351 39.7612C167.748 39.7847 168.006 39.4937 168.051 39.0646C168.076 38.8225 168.161 38.5319 167.835 38.4659C167.255 38.3482 167.545 38.9108 167.375 39.1266C167.129 39.4371 166.801 39.357 166.5 39.4335C166.324 39.4783 166.285 39.6661 166.345 39.8322C166.394 39.9684 166.509 39.9897 166.684 39.8874M150.274 177.5C152.424 175.747 154.638 174.052 155.897 171.479C154.143 173.6 152.324 175.66 150.274 177.5M156.679 79.9979C156.066 80.589 155.809 80.3405 155.847 79.6118C155.901 78.5723 156.072 77.5413 156.171 76.5049C156.422 73.8586 157.154 71.2898 157.824 68.7214C157.942 68.2683 158.002 67.1432 159.088 67.8814C159.309 67.4904 159.939 67.8723 160.108 67.2948C160.334 66.525 159.54 66.9817 159.501 66.7717C159.363 66.0172 158.637 65.3487 158.873 64.6115C159.233 63.4855 159.508 62.3422 159.829 61.209C160.206 59.877 160.683 58.5731 161.074 57.2448C161.805 54.7583 162.542 52.2719 163.206 49.7668C163.545 48.4928 163.919 47.2301 164.267 45.9615C164.631 44.6336 164.661 43.2189 164.933 41.8611C165.634 38.3509 165.617 34.7936 165.089 31.3137C164.528 27.6189 162.957 24.2064 160.932 21.0338C155.649 12.7574 148.122 7.55412 138.676 5.10882C132.708 3.56371 126.65 3.81353 120.608 4.76576C119.577 4.92824 118.562 5.22332 118.612 3.44151C118.3 4.59967 117.74 4.921 116.689 4.66348C116.035 4.50372 115.419 5.26994 114.667 5.0527C114.811 6.40909 113.689 5.49623 113.257 5.82797C113.166 5.89812 113.001 5.87414 112.912 5.94519C112.218 6.49825 111.995 6.08866 111.859 5.31248C111.85 6.64307 111.264 7.22011 110.05 7.14996C109.48 7.11692 108.83 7.60933 108.776 7.85599C108.6 8.66294 107.952 8.79555 107.439 8.9544C106.433 9.26533 105.607 9.71791 104.71 10.3149C103.462 11.1463 102.006 11.7486 100.814 12.7316C100.155 13.2752 99.1602 13.31 98.6591 13.7794C97.9545 14.4397 96.8677 14.5913 96.4142 15.5291C96.3883 15.5834 96.1759 15.6096 96.0955 15.5662C95.6547 15.3263 95.5812 15.305 95.4985 15.8133C95.4309 16.2292 95.1812 16.4487 94.8929 16.4921C94.1012 16.6112 93.6504 17.4557 92.7511 17.3842C92.4066 17.357 91.9658 17.6159 91.7837 18.0431C91.1977 19.4203 89.8911 20.0598 88.7517 20.7912C86.6534 22.1363 84.597 23.5497 82.4924 24.8857C80.731 26.0036 78.9819 27.2025 77.1442 28.1398C74.5548 29.4613 71.8051 30.4497 68.897 31.0689C62.3217 32.4683 55.8709 32.3139 49.558 29.999C45.584 28.5417 41.7216 26.7757 37.5647 25.8515C35.6367 25.4234 33.6583 24.9554 31.7099 25.2831C27.8579 25.9312 24.4146 27.6198 21.2314 29.8709C20.7983 30.1768 20.3788 31.0177 19.5576 30.3393C19.3102 30.1352 19.3048 30.5498 19.2353 30.7C18.3106 32.6995 16.4829 33.9726 15.0425 35.5015C13.8994 36.7148 13.04 38.1002 12.0794 39.386C10.7175 41.2076 9.83002 43.3814 8.7337 45.4017C8.71236 45.441 8.61158 45.4383 8.62837 45.4338C8.17849 45.2274 8.93662 44.9305 8.34147 44.6409C8.48447 45.48 7.15888 45.9937 8.07317 46.9748C8.15398 47.0613 8.04003 47.7619 7.42718 47.8538C7.15117 47.8949 6.62139 48.1823 6.93599 48.6865C7.2288 49.1563 7.21154 50.2348 6.82794 50.5226C6.30316 50.9164 6.31224 50.9146 6.42754 51.4699C6.4684 51.6663 6.51153 51.8921 6.45524 52.0736C5.78382 54.227 5.46513 56.4551 5.13147 58.6695C4.88497 60.3079 4.32613 61.9861 4.92718 63.647C5.48375 65.1863 5.23225 66.7581 5.31941 68.319C5.4388 70.4376 4.91402 72.504 4.9181 74.6208C4.92264 77.1602 5.40748 79.6535 5.45696 82.1748C5.55684 87.2537 7.75358 91.6899 10.1691 95.8717C11.9441 98.9448 14.8559 101.324 17.7427 103.539C22.7681 107.394 28.0137 110.966 32.8053 115.122C37.2805 119.003 41.7062 122.938 45.8046 127.222C50.0714 131.681 54.4786 136.031 58.1266 141.025C63.4494 148.312 69.109 155.332 75.1976 161.978C81.3007 168.638 88.5015 173.973 96.4405 178.353C107.424 184.412 119.073 186.178 131.362 184.087C135.875 183.319 140.325 182.355 144.391 180.021C154.797 174.048 160.07 164.574 162.66 153.367C164.431 145.705 163.954 137.928 162.938 130.199C162.536 127.141 162.49 124.032 161.676 121.028C161.146 119.076 161.063 117.03 160.342 115.106C160.084 114.418 160.476 113.442 160.138 112.839C159.524 111.745 159.375 110.529 158.884 109.421C158.495 108.544 158.856 107.509 158.462 106.707C157.68 105.113 157.574 103.371 157.113 101.711C156.123 98.155 155.991 94.4574 155.429 90.83C155.207 89.3966 155.374 87.9606 155.335 86.5268C155.261 83.8684 155.664 82.3242 156.618 80.5663C156.706 80.4048 156.654 80.1685 156.673 79.9784C157.001 80.278 157.149 80.8972 157.806 80.6048C158.618 80.2432 157.808 79.8101 157.862 79.4163C157.899 79.1484 158.085 78.8257 157.564 78.8429C157.19 78.8551 156.941 78.9398 156.992 79.4046C157.018 79.6345 156.949 79.8875 156.679 79.9979M162.276 110.08C162.403 110.179 162.642 110.28 162.641 110.377C162.605 112.427 163.819 114.137 164.181 116.072C164.591 118.265 165.072 120.441 165.559 122.618C166.28 125.846 166.83 129.094 167.144 132.409C167.456 135.713 167.876 139.015 167.929 142.329C168.035 148.815 167.268 155.186 165.233 161.403C164.578 163.406 163.746 165.337 162.836 167.183C161.872 169.139 160.592 171.006 159.487 172.899C158.51 174.575 157.208 175.917 156.052 177.373C154.838 178.904 153.172 180.107 151.607 181.329C148.326 183.89 144.704 185.826 140.629 186.827C136.985 187.723 133.328 188.57 129.566 188.799C122.291 189.242 115.09 188.75 108.085 186.665C98.1965 183.72 89.3782 178.749 81.2512 172.434C71.2426 164.658 63.5066 154.823 55.9403 144.858C49.8172 136.793 42.9841 129.436 35.6058 122.512C28.6138 115.952 20.7811 110.492 13.2075 104.68C9.28708 101.672 5.63129 98.3093 3.19212 93.8998C1.37535 90.6163 0.338035 87.0622 0.135566 83.3257C-0.137722 78.2722 -0.0419352 73.2196 0.833313 68.2113C0.900046 67.828 0.830589 67.3682 1.35628 67.2039C1.61141 67.1242 1.64591 66.8459 1.53424 66.6979C0.431098 65.2401 1.03714 63.5959 1.11613 62.0675C1.32768 57.9622 1.86382 53.8903 3.19984 49.9669C3.31651 49.6243 3.32604 49.2183 4.0129 49.0956C3.63383 51.97 2.47849 54.6538 2.50164 57.5236C3.95706 49.5383 6.63092 42.0666 11.6572 35.367C10.876 35.8332 9.61848 37.4381 8.997 38.5844C7.96377 40.4903 6.84383 42.3531 5.88732 44.296C5.31396 45.461 5.0039 46.7522 4.52452 47.9674C4.41102 48.2557 4.40603 48.8639 3.90213 48.6978C3.42637 48.5408 3.67106 48.0402 3.80816 47.7302C4.96577 45.1084 5.90457 42.3911 7.30552 39.8761C9.75739 35.4757 12.8857 31.6645 16.9755 28.6666C20.1033 26.3738 23.4213 24.6277 27.261 23.6452C32.3263 22.3495 37.0294 23.456 41.8201 24.7726C45.7978 25.8656 49.4354 27.9022 53.4757 28.8019C57.0675 29.6021 60.6439 29.4409 64.2783 28.9983C69.247 28.3932 73.5597 26.3227 77.6586 23.6565C79.4531 22.4893 81.1872 21.2302 82.9641 20.035C83.4666 19.6969 83.9696 19.0687 84.6437 19.8281C84.7427 19.9395 85.006 19.901 85.0709 19.7263C85.2938 19.123 84.8203 19.672 84.6964 19.5208C84.2905 19.0248 84.7509 18.8628 85.0046 18.679C86.5999 17.5258 88.2115 16.3953 89.8176 15.2575C94.0113 12.2868 98.2991 9.4622 102.87 7.0952C104.524 6.23892 106.154 5.24641 107.999 4.92236C108.492 4.83591 109.473 4.09413 109.885 5.27175C110.221 5.04727 110.331 4.72911 110.399 4.34396C110.48 3.8873 110.814 3.56507 111.266 3.85381C111.63 4.08689 111.766 3.95157 111.962 3.71216C112.401 3.17539 112.847 2.60514 113.174 3.79181C113.698 3.60535 114.484 3.56914 114.693 3.20481C115.236 2.25394 116.162 2.44266 116.803 2.51146C117.708 2.60876 118.873 1.78642 119.59 3.4578C119.396 1.52121 119.391 1.47459 121.215 1.27636C129.579 0.370295 137.662 1.27274 145.375 4.86352C153.204 8.50771 159.631 13.7527 164.108 21.1492C165.83 23.9941 167.547 26.921 167.958 30.3724C168.047 31.1282 168.791 31.8188 168.029 32.5986C169.522 34.0604 168.886 35.9826 168.742 37.5811C168.626 38.8614 169.17 40.3205 168.249 41.5244C168.046 41.7896 168.329 41.9806 168.466 42.1603C168.835 42.6486 168.576 43.4004 168.39 43.509C167.369 44.1059 167.867 44.8531 167.951 45.6343C168.098 47.0115 167.612 48.3349 167.111 49.5623C166.567 50.896 166.088 52.2198 165.895 53.6405C165.833 54.0967 166.049 54.6868 165.232 54.6294C165.183 54.6257 165.126 54.7303 165.072 54.785C166.209 55.3304 164.669 56.16 165.279 56.7737C165.344 56.838 165.35 57.0873 165.302 57.1158C163.938 57.9341 164.649 59.5801 163.869 60.6627C163.437 61.2619 163.885 62.1712 163.48 62.8736C163.434 62.955 163.523 63.1881 163.496 63.1976C162.303 63.6086 162.814 65.0881 161.91 65.6886C161.483 65.9729 161.679 66.41 161.777 66.802C161.833 67.0224 162.364 66.4558 162.138 66.983C161.774 67.8343 161.764 68.7399 161.559 69.6007C161.254 70.8856 160.542 70.0302 159.929 69.6401C160.415 70.257 160.134 71.245 161.047 71.5921C161.297 71.6871 161.137 71.846 161.093 71.9763C160.594 73.4355 160.43 74.9697 160.068 76.4578C159.898 77.1539 159.639 77.8671 159.247 78.4582C158.947 78.9108 158.917 79.3941 159.08 79.7241C159.304 80.1812 159.673 80.2844 158.812 80.3957C158.28 80.465 158.887 80.9782 159.011 81.2461C159.202 81.6607 159.475 82.0019 159.205 82.4966C158.914 83.0315 158.451 82.6437 158.044 82.655C158.212 83.1592 158.661 83.0125 158.893 83.2411C159.067 83.4131 159.367 83.5977 159.106 83.8303C158.004 84.8129 158.872 85.7402 159.041 86.754C159.295 88.2919 159.352 89.8872 159.276 91.4473C159.175 93.5482 159.719 95.5441 159.996 97.5834C160.329 100.043 161.119 102.415 161.373 104.892C161.463 105.767 162.12 106.619 161.908 107.462C161.656 108.464 162.718 109.162 162.296 110.108C161.794 109.896 161.39 109.435 160.688 109.459C160.764 109.694 160.792 109.85 160.863 109.983C161.058 110.347 161.023 110.796 160.698 110.905C160.272 111.048 160.237 110.615 160.219 110.268C160.192 109.766 159.751 109.989 159.506 109.867C159.405 110.049 159.562 110.089 159.629 110.178C160.644 111.527 160.639 111.523 161.763 110.377C161.897 110.242 162.103 110.177 162.276 110.08" fill="black"/>
</svg>
